<svg width="275" height="536" viewBox="0 0 275 536" fill="none" xmlns="http://www.w3.org/2000/svg">
<path d="M274.32 439.26C274.18 437.81 274.04 436.3 274.17 434.98C274.99 426.9 274.77 419.68 273.5 412.93C273.48 412.83 273.46 412.73 273.42 412.58C273.54 408.74 272.63 405.12 270.64 401.52C270.49 401.26 270.43 400.54 270.39 399.96C270.36 399.61 270.33 399.25 270.28 398.91C270.24 398.61 270.24 398.3 270.23 397.96C270.21 397.31 270.19 396.57 270 395.78C269.22 392.53 268.41 389.28 267.59 385.97C267.15 384.22 266.72 382.48 266.29 380.73C266.09 379.91 265.9 379.08 265.71 378.25C265.42 377.01 265.14 375.76 264.81 374.53C264.51 373.41 264.19 372.3 263.85 371.17C263.43 369.75 263 368.29 262.65 366.86C262.09 364.53 261.59 362.13 261.1 359.8C260.07 354.89 259.01 349.82 257.31 344.98C256.2 341.82 255.23 338.53 254.3 335.35C253.24 331.75 252.14 328.03 250.82 324.39C248.28 317.42 246.43 310.03 244.62 302.86C243.94 300.17 243.25 297.4 242.52 294.68L243.74 292.88C245.61 290.12 247.54 287.26 249.38 284.37C250.22 283.05 250.09 281.48 250 280.44C249.94 279.77 249.8 279.16 249.67 278.62C249.55 278.12 249.43 277.61 249.46 277.34C249.98 271.95 248.66 266.99 247.38 262.19C247.09 261.11 246.8 260.03 246.54 258.95C245.16 253.31 242.87 247.89 240.66 242.66L239.69 240.35C237.2 234.39 234.34 228.07 230.69 220.45C228.27 215.39 225.73 210.37 223.28 205.51C222.04 203.05 220.8 200.58 219.57 198.11C219.49 197.95 219.25 197.48 219.21 197.18C219.07 196.23 218.96 195.28 218.85 194.3C218.64 192.45 218.43 190.54 217.98 188.63C216.79 183.62 215.18 177.01 213.2 170.4C211.94 166.19 210.35 161.24 208.15 156.49C205.14 149.98 201.9 143.47 198.75 137.14L198.63 136.91C197.36 134.35 196.09 131.79 194.83 129.23C194.66 128.88 194.5 128.53 194.34 128.17C193.95 127.3 193.51 126.32 192.89 125.4C189.75 120.73 186.58 116.12 183.47 111.7C182.5 110.33 181.55 108.94 180.59 107.56C174.08 98.1401 167.34 88.4001 157.08 81.5901C154.92 80.1601 152.92 78.1701 150.99 76.2401C149.69 74.9401 148.34 73.6001 146.89 72.3601C142.32 68.4601 138.23 65.1801 134.38 62.3201C128.6 58.0301 122.62 53.8201 116.85 49.7401L113.18 47.1501C107.14 42.8801 100.9 38.4601 93.9999 35.1101C93.9099 35.0101 93.7699 34.7901 93.7399 34.6601C93.2599 32.5101 92.8298 30.2901 92.4198 28.1501C92.0698 26.3601 91.73 24.5601 91.34 22.7701C90.96 21.0001 90.4499 19.5601 89.7799 18.3501C88.8099 16.6101 87.45 15.5001 85.85 15.1501C84.25 14.8001 82.5699 15.2301 80.9799 16.4001C79.9699 17.1401 79.0998 17.9501 78.2098 18.8201C76.6998 17.0601 75.31 15.1301 73.85 13.1201C71.16 9.40012 68.3899 5.56012 64.4899 2.31012L62.1598 0.370117L60.6998 3.03012C58.5498 6.94012 59.4999 10.2901 60.2699 13.0201C60.4299 13.5901 60.5899 14.1601 60.7099 14.7301C61.1999 17.0101 61.6898 19.2901 62.1898 21.6101L62.2499 21.8801C60.9699 21.8801 59.7499 21.8901 58.5499 21.8501C56.8999 21.7901 55.25 21.7201 53.6 21.6401C50.83 21.5101 47.9698 21.3801 45.1298 21.3501C43.7898 21.3301 42.7198 21.9801 41.8898 22.4801C41.6798 22.6101 41.4699 22.7501 41.2499 22.8501L38.9398 23.9601L40.11 26.2401C40.23 26.4701 40.3198 26.7301 40.4298 27.0201C40.8098 28.0101 41.32 29.3701 42.6 30.1701C46.4 32.5401 50.18 34.6601 53.82 36.4901C56.16 37.6601 58.5399 38.6501 61.0499 39.6901L61.1598 39.7401C61.2798 39.7901 61.3899 39.8401 61.5099 39.8801L61.4198 40.0001C59.8898 41.9601 58.4399 43.8101 57.0299 45.6901C56.9099 45.8501 56.7898 46.0001 56.6598 46.1501C55.8198 47.1601 53.8599 49.5401 55.7899 52.6501C57.4299 55.3001 60.19 56.2801 63.37 55.3401C65.42 54.7301 67.5899 53.8501 69.8099 52.7301C73.1899 51.0201 76.5399 49.2501 79.7999 47.5201C80.6099 47.0901 81.4199 46.6601 82.2199 46.2401C92.2099 53.9701 135.67 95.4201 142.54 103.75L139.8 110.42C138.48 102.18 134.06 96.0201 126.65 92.1001C124.03 90.7101 121.32 90.7001 119.23 92.0601C117.8 92.9901 116.83 94.4401 116.4 96.2201C115.91 95.5901 115.53 94.9301 115.29 94.1501C114.61 91.9001 113.46 89.9101 112.35 87.9701C112.08 87.5001 111.81 87.0301 111.55 86.5601C110.37 84.4301 108.95 83.2601 107.22 82.9601C106.04 82.7601 104.86 82.9901 103.66 83.6701C103.65 82.9801 103.61 82.3001 103.52 81.6001C103.23 79.1701 102.1 77.3701 100.33 76.5101C98.54 75.6501 96.3899 75.9001 94.2799 77.2201C93.1399 77.9301 92.1099 78.7001 91.0099 79.5401C91.0099 79.5401 90.9899 79.5501 90.9899 79.5601C88.2099 78.2301 85.4399 79.6001 84.0099 80.3101C82.7899 80.9101 81.3799 81.6001 80.0099 82.0601C75.8999 83.4601 74.8098 85.0701 75.1498 89.2401C75.1898 89.7301 75.2199 90.2201 75.2499 90.7201C75.2999 91.5601 75.3498 92.4301 75.4598 93.3201C75.6398 94.8301 75.8899 96.1301 76.2199 97.2401C75.0699 97.1801 73.3 97.5001 71.57 99.5301C70.27 101.06 69.33 102.77 68.32 104.61C68.05 105.1 67.7799 105.6 67.4899 106.11L66.4598 106.32C64.9598 105.01 63.1699 103.78 61.0499 103.38C56.5899 102.54 53.81 106.12 52.62 107.65C47.22 114.6 44.5999 122.59 42.7499 129.49C41.8899 132.7 41.9498 136.15 42.9198 140.05C43.7498 143.37 45.8399 145.54 48.9699 146.33C49.7999 146.54 50.6299 146.78 51.5399 147.06C51.3899 147.37 51.25 147.67 51.11 147.98C50.75 148.76 50.3999 149.54 50.0399 150.36C49.3799 151.83 48.6999 153.36 47.9699 154.82C46.2699 158.23 46.8799 162.59 49.5499 166.2C52.2999 169.9 56.5598 171.87 60.4198 171.22C62.5398 170.86 64.5599 170.29 66.7199 169.69C67.1899 169.56 67.6698 169.42 68.1598 169.29C68.3198 169.51 68.4898 169.72 68.6498 169.94C69.8698 171.56 71.1299 173.23 72.2899 174.99C74.3199 178.07 77.33 179.89 80.59 179.99C83.65 180.04 86.4198 178.64 88.3998 176.02C88.5198 175.86 88.6399 175.7 88.7599 175.54C89.7399 177.95 91.3198 179.81 93.3898 180.92C96.3998 182.54 100.14 182.41 103.93 180.55C103.97 180.53 104 180.51 104.04 180.5C101.09 185.24 98.0698 190.13 95.4098 195.15C90.5498 204.32 85.6299 214.3 82.5599 225.14C82.1999 226.42 81.8098 227.71 81.4298 229C80.5798 231.85 79.7099 234.79 79.0199 237.77C78.4499 240.23 78.0798 243.05 79.6698 245.21C81.2698 247.38 84.1198 247.87 86.6998 248.05C88.0998 248.15 89.5499 248.32 90.9699 248.49L90.9999 248.83C91.1299 250.41 91.2498 251.87 91.3898 253.33C92.4298 263.84 96.2098 273.87 102.96 283.99C103.99 285.54 105.13 286.53 106.38 286.96C105.98 288.88 105.6 290.72 105.3 292.59L105.11 293.73C104.66 296.49 104.19 299.34 104.11 302.24C103.98 306.72 104.43 310.52 111.28 311.56C112.92 311.81 114.55 312.02 116.34 312.24C115.93 313.44 115.51 314.57 114.97 315.53C113 319.07 110.9 322.61 108.87 326.04C107.57 328.24 106.27 330.43 104.99 332.64C103.51 335.19 102.02 337.74 100.49 340.36C96.3399 347.47 92.0399 354.83 88.0399 362.2C83.7299 370.15 79.2398 379.01 73.9198 390.08C69.8098 398.64 65.0899 408.6 61.0199 418.53C57.2699 427.68 55.2399 436.85 54.9899 445.79C54.8299 451.56 56.8499 455.87 61.0199 458.6C62.5799 459.62 64.1298 460.65 65.6698 461.67L66.9699 462.53L66.2299 466.15C61.7699 465.34 58.24 467.57 55.57 469.72C55.3 469.93 54.9499 470.14 54.5299 470.38C54.3599 470.48 54.1799 470.58 54.0099 470.69L51.9899 471.91C42.8399 477.43 33.3799 483.14 25.2899 490.74C25.1799 490.79 24.9699 490.87 24.7999 490.93C22.9799 491.6 21.15 492.26 19.33 492.92C15.56 494.29 11.6599 495.7 7.78993 497.15C6.48993 497.64 5.16989 498.37 3.74989 499.39C1.72989 500.85 1.40989 502.41 1.49989 503.46C1.55989 504.13 1.80999 505 2.59999 505.84C2.57999 505.88 2.56994 505.93 2.54994 505.97C1.98994 507.53 1.45996 509.01 1.06996 510.62C0.739956 512.01 0.8298 513.38 0.9098 514.59L0.949839 515.24C0.989839 515.91 1.08981 516.55 1.16981 517.12C1.27981 517.85 1.37998 518.48 1.33998 518.99C0.939975 523.53 2.59994 525.64 7.04994 526.29C9.42994 526.63 11.57 526.77 13.61 526.74L14.34 526.72C22.41 526.55 30.7599 526.37 38.9699 525.99L41.4298 525.88C53.9198 525.32 66.8299 524.74 79.5499 523.8C83.2499 523.53 86.8099 522.47 90.2699 521.45C91.0799 521.21 91.8898 520.97 92.6998 520.74C96.0198 519.8 97.99 517.18 98.1 513.53C98.12 512.7 98.34 511.82 98.6 510.79C98.72 510.32 98.8298 509.85 98.9298 509.37C99.3798 507.23 100.18 503.43 96.9498 500.7C97.2998 499.29 97.6499 497.89 97.9899 496.49C99.1099 491.96 100.26 487.28 101.46 482.72C102.63 478.27 101.91 475.64 98.6698 473.22C99.8998 471.36 100.29 469.27 100.64 467.37C100.71 466.98 100.79 466.59 100.87 466.2C106.63 466.23 111.82 464.55 116.65 462.75C122.56 460.55 127.84 456.93 132.35 451.97C134.88 449.18 137.27 446.05 137.59 442.06C138.14 435.09 135.37 430.62 128.88 428C127.51 427.45 126.12 426.96 124.64 426.46C141.78 403.96 158.14 382.65 177.74 362.78L178.1 363.58C179.34 366.32 180.51 368.88 181.64 371.46C182.81 374.13 184.02 376.78 185.22 379.43C188.09 385.75 191.06 392.28 193.51 398.84C195.93 405.31 197.88 412.12 199.77 418.72C200.43 421.03 201.09 423.33 201.77 425.63C201.89 426.02 201.89 426.55 201.84 426.76C197.62 433.35 195.33 440.56 193.65 446.74C192.38 451.42 191.75 456.27 191.14 460.95L191.05 461.66C190.79 463.7 192 466.74 193.96 467.61C194.61 467.9 195.25 468.2 195.89 468.5L195.99 468.55C198.88 469.92 202.16 471.47 206.03 471.65C208.41 471.76 210.8 472.26 213.22 472.76C213.65 472.85 214.06 472.93 214.48 473.02L215.74 477.61C215.55 478.12 215.34 478.65 215.13 479.19C214.38 481.12 213.6 483.13 213.03 485.27C212.76 486.29 212.49 487.31 212.23 488.33C210.58 494.68 208.88 501.24 205.99 507.19C205.4 508.4 205.25 508.58 204.58 508.82C200.92 510.13 198.52 512.63 197.83 515.87C197.17 519 196.88 522.18 196.6 525.26L196.58 525.46C196.04 531.48 198.01 533.04 202.93 534.45C206.46 535.46 210.22 535.93 214.75 535.93C216.5 535.97 218.36 535.87 220.63 535.73C231.46 535.08 240.72 532.67 248.95 528.35C250.83 527.36 252.55 525.57 254.2 522.87C255.33 521.02 255.71 518.93 256.02 516.77C256.19 515.6 255.95 514.55 255.71 513.52C255.66 513.32 255.61 513.11 255.57 512.9C255.57 512.88 255.59 512.86 255.6 512.84C256.11 511.58 256.88 509.68 255.77 508.04C255.45 507.57 255.46 507.19 255.53 506.18L255.55 505.91C255.72 503.26 255.92 500.61 256.11 497.97C256.22 496.53 256.32 495.08 256.43 493.64C256.49 492.73 256.59 491.81 256.7 490.85C257.19 486.31 257.74 481.15 254.3 476.22C253.02 474.38 252.02 472.23 251.06 470.15C251 470.02 250.94 469.89 250.88 469.76C251.15 469.65 251.41 469.54 251.68 469.43C254.36 468.35 257.13 467.22 259.91 465.95C266.02 463.17 270.3 458.34 272.29 452.01L272.59 451.06C273.67 447.66 274.8 444.14 274.45 440.16L274.36 439.23L274.32 439.26ZM114.08 249.65C114.08 249.65 114.06 249.57 114.05 249.53C113.9 248.83 113.74 248.12 113.57 247.4C114.01 247.32 114.34 247.28 114.57 247.26C114.53 247.7 114.41 248.45 114.08 249.65ZM82.4999 103.4L82.0599 104.25C81.9199 103.91 81.7798 103.56 81.6398 103.22C81.9098 103.29 82.1999 103.36 82.4899 103.41L82.4999 103.4Z" fill="white"/>
<path d="M80.7899 483.42C81.2199 483.33 81.9399 483.36 82.0299 483.14C82.8199 481.23 83.4899 479.28 84.2299 477.24C86.2899 476.94 88.5998 476.41 90.9398 476.28C97.7698 475.9 98.3299 478.86 96.9599 483.64C96.2299 486.17 95.5598 488.72 94.1598 491.12C93.1598 492.82 93.41 495.25 93.12 497.35C93.09 497.59 93.17 497.85 93.11 498.07C91.79 502.77 92.2599 502.82 87.2199 502.04C84.9299 501.69 82.5698 501.75 80.1898 502.31C84.3698 502.85 88.5498 503.38 93.1798 503.98C92.5698 508.44 91.97 512.83 91.33 517.55C86.07 518.46 80.84 520.4 75.11 520.77C71.42 521.01 67.6599 520.82 64.0399 521.41C59.7299 522.11 55.3698 521.53 51.1498 522.17C47.1798 522.77 43.2 522.23 39.34 522.86C34.06 523.73 28.72 522.84 23.56 523.69C20.79 524.15 18.0398 523.93 15.4098 523.97C12.4098 524.01 9.25983 523.59 6.16983 523.48C4.81983 523.43 4.23985 522.55 4.43985 521.26C4.62985 519.99 4.58996 518.48 5.29996 517.56C5.98996 516.66 5.74984 516.66 5.42984 515.69C4.83984 513.88 5.24993 511.69 5.51993 509.69C5.69993 508.33 6.34984 507.04 6.92984 505.32H13.6899C13.6899 505.14 13.6899 504.95 13.6899 504.77C12.4099 504.67 11.1298 504.57 9.67984 504.46V502.01C13.3098 500.28 16.9298 498.47 20.6298 496.83C22.3198 496.08 24.1299 495.52 25.9499 495.19C27.5399 494.89 29.1499 495.01 29.2199 497.4C29.2299 497.84 30.1598 498.27 30.6598 498.7C30.5998 499.4 30.3999 500.07 31.4999 500.27C32.1299 500.38 32.6598 500.98 33.4298 501.49C33.9198 500.84 34.49 500.08 35.07 499.33C33.29 499.79 31.9 499.64 30.56 498.8C30.25 496.6 29.93 494.4 29.6 492.08C35.92 487.76 42.0199 483.49 48.2299 479.37C52.6799 476.42 57.24 473.64 61.82 470.9C62.66 470.4 63.8599 470.47 65.0099 470.26C65.9599 473.2 70.3998 474.27 68.6798 478.35C69.0998 478.37 69.45 478.39 69.8 478.41C69.86 479.04 70.0399 479.68 69.9699 480.29C69.5099 484.5 72.39 486.86 76.31 485.39C77.84 484.81 79.32 484.08 80.82 483.42H80.7899ZM52.09 502.18C52.89 503.98 53.31 505.39 54.08 506.56C55.24 508.33 54.31 509.59 53.11 511.02H55.58C55.51 507.82 55.84 504.53 52.08 502.18H52.09ZM38.06 496.5C41.48 496.23 42.5199 500.27 45.4999 499.35C43.8499 498.02 42.2099 496.69 40.4599 495.28C40.0899 495.47 39.48 495.78 38.06 496.5ZM73.6 503.79C75.47 503.43 76.9398 503.15 78.1298 502.92C76.7398 502.21 75.16 501.4 73.6 500.6V503.79Z" fill="white"/>
<path d="M226.14 482.02C226.01 482.85 226.69 483.8 225.27 484.38C224.23 484.8 223.48 485.95 222.6 486.77C221.57 487.72 221.51 488.74 221.75 490.14C222.08 492.14 221.74 494.25 221.88 496.3C221.97 497.64 222.41 498.96 222.75 500.6C223.86 499.98 224.55 499.59 225.41 499.11C225.02 498.98 224.75 498.84 224.47 498.81C222.94 498.61 222.77 497.34 222.6 496.25C221.6 490.07 222.22 489.44 228.42 489.32C232.46 489.24 236.48 488.72 240.52 488.68C243.11 488.65 245.71 489.14 248.28 489.39C248.827 490.723 250.01 491.566 251.83 491.92C251.24 497.64 250.64 503.4 250.06 508.95C251 509.61 252.04 509.96 252.29 510.6C252.67 511.63 251.83 512.24 250.81 512.65C249.44 513.2 248.17 513.97 246.85 514.65C248.01 514.73 249.28 514.81 250.81 514.92C251.53 518.76 247.44 521.11 248.01 524.64C243.72 526.16 239.72 527.74 235.61 528.98C232.81 529.83 229.9 530.48 226.99 530.73C221.86 531.19 216.68 531.14 211.55 531.57C208.23 531.85 205.31 530.3 202.13 529.99C200.8 529.86 200.4 528.3 200.77 525.96C201.1 523.86 201.45 521.76 201.85 519.35C202.45 519.25 203.33 519.11 204.34 518.94C202.42 518.16 202.97 516.65 203.02 514.91C204.37 514.41 205.87 513.91 207.32 513.3C207.67 513.15 207.91 512.67 208.11 512.3C209.52 509.61 211.13 507.01 212.23 504.2C213.75 500.32 214.94 496.32 216.62 492.5C217.13 491.34 217.16 489.99 217.45 488.73C218 486.34 218.51 483.95 219.16 481.59C219.9 478.9 220.42 478.61 223.92 478.66C224.12 480.12 223.64 482.26 226.24 482.15L226.14 482.05V482.02ZM231.08 515.16C225.49 515.68 220.46 516.15 215.43 516.62V516.81C216.94 516.89 218.45 516.96 220.1 517.05C220.29 517.7 220.47 518.33 220.78 519.4C227.89 518.55 234.99 517.71 242.09 516.87C242.07 516.65 242.06 516.42 242.04 516.2C238.56 516.5 235.09 516.8 231.64 517.1C231.36 516.09 231.17 515.44 231.09 515.16H231.08ZM206.89 519.28C206.87 519.4 206.84 519.52 206.82 519.64H218.66C218.66 519.52 218.66 519.4 218.66 519.28H206.9H206.89ZM239.09 501.49C239.09 501.38 239.09 501.27 239.09 501.16H229.3C229.3 501.27 229.3 501.38 229.3 501.49H239.09Z" fill="white"/>
<path d="M226.24 482.12C225.66 479.73 227 477.77 227.68 475.66C227.79 475.31 228.2 474.97 228.55 474.8C230.66 473.8 232.72 472.5 234.95 471.99C237.71 471.36 240.63 471.51 243.46 471.12C245.71 470.81 246.93 472.21 247.8 473.72C248.83 475.51 249.42 477.58 250.06 479.57C250.39 480.6 250.53 481.88 249.34 482.46C248.14 483.04 247.32 482.87 246.17 481.53C243.36 478.25 239.37 478.7 235.59 479.6C233.34 480.13 231.2 481.11 228.97 481.76C228.08 482.02 227.09 481.94 226.15 482.02L226.25 482.12H226.24Z" fill="white"/>
<path d="M223.7 487.97C224.33 487.06 224.75 485.76 225.62 485.31C230.09 483 234.65 480.85 239.93 481.32C242.17 481.52 243.61 482.9 244.87 484.46C245.51 485.26 245.67 486.44 246.21 487.89C238.5 487.42 231.42 487.54 224.38 488.64C224.16 488.42 223.93 488.2 223.7 487.98V487.97Z" fill="white"/>
<path d="M101.86 154.17C103.13 154.39 104.37 154.28 104.46 152.73C104.56 151.01 106.43 149.66 105.42 147.76C106.56 146.71 107.71 145.66 108.72 144.73C110.08 146.18 111.34 147.32 112.35 148.65C114.24 151.14 115.3 153.88 114.26 157.1C113.45 159.62 112.65 162.1 109.75 163C107.36 163.25 104.97 163.49 102.59 163.74C100.06 161.44 101.24 158.57 101.39 155.86C101.42 155.29 101.7 154.74 101.86 154.17Z" fill="white"/>
<path d="M125.08 120C126.65 122.26 127.98 124.6 128.02 127.47C128.11 133.38 121.49 137.55 116.24 134.88C115.92 134.72 115.6 134.55 114.95 134.2V127.99C118.58 127.96 119.52 126.83 118.74 123.44C118.31 121.59 120.45 119.17 122.44 119.36C123.33 119.44 124.2 119.78 125.08 120Z" fill="white"/>
<path d="M237.02 294.57C238.15 299.37 239.43 303.3 239.9 307.32C240.34 311.11 241.79 314.57 242.53 318.25C243.4 322.58 244.75 326.84 246.09 331.03C247.44 335.25 248.51 339.53 249.72 343.77C251.5 350.05 252.96 356.43 254.55 362.77C254.81 363.79 254.88 364.9 255.33 365.82C257.12 369.48 257.45 373.47 258.22 377.37C258.94 381.03 259.99 384.62 260.78 388.27C261.45 391.37 261.9 394.52 262.57 397.62C262.91 399.18 263.61 400.66 263.98 402.22C264.49 404.39 265.01 406.58 265.2 408.79C265.57 413.27 267.28 417.52 266.99 422.15C266.65 427.7 266.99 433.29 266.88 438.86C266.8 442.43 266.81 446.09 266.07 449.55C265.37 452.81 263.24 455.49 260.26 457.25C253.85 461.04 246.74 462.85 239.59 464.51C235.48 465.47 231.4 466.89 227.24 467.16C221.59 467.53 216.01 468.96 210.16 467.61C206.39 466.74 202.59 466.08 199.01 464.61C195.49 463.17 194.9 462.4 195.71 459.05C197.24 452.72 198.3 446.21 201.5 440.41C202.8 438.06 204.29 435.8 205.86 433.61C207.98 430.65 208.64 425.8 207.76 421.71C206.43 415.52 203.98 409.72 202.02 403.75C201.08 400.88 199.47 398.13 198.8 395.35C197.95 391.84 196.09 388.92 194.9 385.66C193.83 382.74 192.47 379.93 191.26 377.07C190.04 374.18 188.93 371.23 187.61 368.38C185.36 363.52 183.11 358.65 180.58 353.93C179.36 351.65 177.49 349.72 175.91 347.63C175.68 347.72 175.45 347.81 175.21 347.9C175.51 349.09 175.56 350.42 176.16 351.43C176.91 352.71 176.84 353.53 175.83 354.59C173.58 356.95 171.42 359.39 169.28 361.84C166.53 364.99 163.36 367.79 161.12 371.39C160.56 372.29 159.62 372.96 158.83 373.71C157.44 375.04 155.46 375.92 155.51 378.32C155.51 378.59 155.08 378.87 154.85 379.14C150.75 383.97 146.49 388.67 142.6 393.66C136.81 401.08 131.45 408.84 125.59 416.2C123.01 419.44 120.25 422.52 118.08 426.06C117.9 426.36 117.51 426.55 117.35 426.85C115.52 430.24 116.01 431.7 119.67 433.28C121.59 434.11 123.6 434.73 125.58 435.41C130.14 436.97 131.71 440.62 129.65 445.05C128.26 448.04 126.08 450.35 123.27 452.08C121.98 452.88 120.63 453.61 119.47 454.57C118.6 455.28 117.78 455.63 116.65 455.85C114.41 456.29 112.28 457.31 110.06 457.9C106.75 458.77 103.44 459.52 99.9202 459.48C94.7702 459.43 89.6103 460.24 84.4803 460.04C79.2103 459.83 74.0304 458.57 69.0404 456.78C65.8904 455.66 63.6102 453.35 61.9002 450.6C61.0502 449.24 59.3904 447.75 61.1004 445.85C60.0304 443.68 60.8203 441.57 61.0103 439.34C61.5203 433.42 63.2704 427.89 65.0804 422.3C66.8404 416.87 69.3904 411.8 71.5604 406.57C73.1704 402.71 75.1403 399 76.9303 395.21C78.4603 391.98 79.8703 388.68 81.5103 385.5C85.7403 377.33 90.0604 369.21 94.3604 361.08C95.4504 359.02 96.5203 356.94 97.7103 354.93C99.9103 351.19 102.21 347.5 104.43 343.77C105.02 342.78 105.47 341.71 106.05 340.72C108.1 337.21 110.18 333.71 112.25 330.21C115.45 324.81 118.69 319.43 121.83 314C122.34 313.12 122.31 311.95 122.7 310.98C123.54 308.94 124.26 308.61 126.24 309.06C127.27 309.29 128.3 309.57 129.35 309.65C134.47 310.03 139.6 310.54 144.73 310.64C148.43 310.71 152.03 311.27 155.67 311.76C157.48 312 159.41 311.25 161.29 311.14C166.56 310.84 171.84 310.73 177.1 310.35C179.55 310.17 181.96 309.49 184.4 309.11C185.46 308.95 186.55 308.95 187.63 308.95C190.25 308.95 192.66 308.47 195.05 307.15C196.61 306.29 198.71 306.39 200.56 306.03C205.05 305.16 209.52 304.22 214.02 303.4C218.84 302.51 223.33 300.55 228.03 299.27C229.98 298.74 231.66 297.24 233.48 296.24C234.45 295.71 235.48 295.29 237.04 294.56L237.02 294.57Z" fill="#030000"/>
<path d="M137.38 124.26C137.65 123.08 137.66 122.09 138.74 120.91C140.83 118.62 142.14 115.57 143.57 112.74C144.73 110.43 145.59 107.97 146.64 105.42C147.64 105.52 148.64 105.61 149.81 105.72C149.53 105.02 149.39 104.33 149.03 103.78C148.12 102.4 148.32 101.18 149.03 99.75C151.02 95.72 152.47 91.5 152.87 86.97C154.66 85.85 156.05 86.73 156.77 88.17C157.73 90.07 159.37 90.78 161.02 91.76C162.74 92.78 164.36 94.13 165.66 95.65C167.84 98.2 169.81 100.95 171.72 103.71C174.08 107.13 176.32 110.62 178.54 114.13C181.4 118.63 184.2 123.18 187.02 127.71C187.27 128.1 187.59 128.54 187.61 128.97C187.8 132.59 191.38 134.82 191.49 138.46C195.19 142.11 196.45 147.11 198.6 151.59C200.27 155.06 201.42 158.79 202.92 162.35C204.57 166.26 205.79 170.27 206.63 174.43C206.88 175.65 207.81 176.72 208.22 177.93C208.58 179.01 208.64 180.19 208.84 181.38C207 181.97 206.13 181.67 205 180.2C201.88 176.11 198.52 172.19 195 168.44C190.74 163.9 186.23 159.59 181.81 155.2C181.11 154.51 180.31 153.92 179.55 153.28C179.35 153.45 179.16 153.61 178.96 153.78C179.18 154.23 179.28 154.84 179.63 155.12C186.6 160.66 192.29 167.33 197.19 174.72C197.92 175.81 198.95 176.7 199.84 177.69C203.34 181.55 205.71 186.19 208.75 190.37C209.98 192.05 211.11 193.77 212.8 195.21C214.54 196.69 215.61 199.08 216.65 201.23C218.71 205.47 220.57 209.81 222.46 214.13C225.2 220.38 227.94 226.63 230.59 232.92C231.49 235.06 231.84 237.47 232.94 239.48C234.76 242.8 235.55 246.5 236.88 249.97C238.72 254.77 240.33 259.77 240.77 265.02C241.09 268.8 241.8 272.55 242.16 276.33C242.38 278.63 241.53 280.41 239.74 282.21C236.41 285.57 232.79 288.1 228.23 289.45C226.1 290.08 224.19 291.42 222.12 292.27C220.61 292.88 219.01 293.32 217.42 293.64C212.2 294.68 206.96 295.62 201.74 296.64C200.81 296.82 199.85 297.03 199.03 297.46C194.31 299.96 189.05 300.1 183.97 300.96C179.53 301.71 175.09 302.44 170.64 303.11C168.52 303.43 166.39 303.77 164.26 303.8C159.92 303.88 155.74 305.07 151.44 305.52C146.61 306.02 141.79 306.32 137.05 305.93C129.58 305.32 122.12 305.41 114.66 305.3C111.96 305.26 111.46 304.52 110.48 301.55C109.57 298.8 109.69 296.21 110.52 293.5C110.98 292.03 110.98 290.41 111.22 288.87C111.47 287.23 111.75 285.6 112.04 283.97C112.55 281.05 113.04 278.13 113.61 275.23C114.76 269.44 115.93 263.65 117.14 257.87C118.06 253.48 119.1 249.11 120.01 244.72C120.57 242.01 120.37 239.26 119.82 236.59C119.07 233.01 119.07 229.48 119.76 225.91C119.89 225.21 120.1 224.47 120.01 223.79C119.28 218.32 120.18 212.86 120.13 207.4C120.1 203.39 121.09 199.38 121.42 195.36C121.63 192.86 121.46 190.33 121.08 187.81C120.73 190.73 120.42 193.65 120.02 196.56C119.65 199.26 119.15 201.94 118.76 204.63C118.62 205.58 118.59 206.54 118.58 207.5C118.56 212.14 118.71 216.78 118.54 221.4C118.34 226.91 117.87 232.41 117.48 238.35C114.77 238.83 111.76 239.31 108.78 239.89C102.52 241.11 96.2003 241.53 89.8303 241.36C88.6703 241.33 87.4803 241.64 86.3303 241.87C84.6103 242.21 83.6602 241.71 83.7302 239.97C83.8202 237.61 84.0201 235.18 84.6501 232.92C86.0901 227.73 87.7002 222.57 89.4802 217.48C90.8802 213.49 92.4802 209.55 94.2702 205.71C96.6602 200.57 99.1101 195.43 101.91 190.51C104.84 185.36 108.25 180.49 111.37 175.45C112.6 173.47 113.6 171.34 114.77 169.15C117.98 168.1 121.56 166.96 125.1 165.71C125.7 165.5 126.11 164.78 126.61 164.3C127.58 163.82 128.54 163.34 129.51 162.86C130.18 162.9 130.85 162.94 131.87 163.01C131.59 164.47 131.4 165.61 131.15 166.73C130.87 167.99 130.38 169.23 130.29 170.51C130.24 171.22 130.68 172.49 131.14 172.62C132.21 172.91 133.87 173.12 134.48 172.53C135.51 171.54 138.25 172.02 137.53 169.39C140.52 167.23 142.97 164.59 144.51 161.2C145.15 159.8 145.38 158.09 146.34 156.99C148.04 155.05 148.37 152.87 148.4 150.51C148.44 148.1 148.44 145.69 148.46 143.27C148.68 143.87 149.07 144.46 149.1 145.06C149.19 146.74 149.13 148.43 149.13 150.12C149.79 149.48 150.08 148.86 150.27 148.21C150.89 146.09 150.95 143.91 149.61 142.11C149 141.3 147.7 140.94 146.64 140.59C146.4 140.51 145.87 141.33 145.47 141.73C144.57 141.8 143.67 141.87 142.97 141.92C142.58 143.99 142.25 145.75 141.92 147.51C141.9 144.98 141.92 142.45 141.83 139.92C141.81 139.3 141.39 138.7 141.15 138.09C141.31 135.81 140.9 133.65 140.04 131.52C139.07 129.13 138.28 126.68 137.41 124.25L137.38 124.26Z" fill="#8A71AA"/>
<path d="M90.9199 154.83C89.0999 155.05 87.6398 154.8 86.8898 152.74C86.5898 151.91 85.5399 151.38 84.9199 150.64C84.0899 149.66 82.9899 149.45 81.9799 149.9C80.8999 150.38 79.87 151.22 80.03 152.66C80.3 155.07 80.6399 157.47 80.9499 159.87C81.1799 159.85 81.4198 159.83 81.6498 159.81V153.08C82.7998 152.34 83.93 152.4 84.8 153.48C86.4 155.45 88.0899 157.38 89.4099 159.53C91.2299 162.5 89.83 165.35 88.3 167.91C86.79 170.44 84.9 172.74 83.29 174.99C79.61 175.92 77.0201 174.48 74.8701 171.87C73.5801 170.3 72.1499 168.83 70.9899 167.18C70.0299 165.82 69.57 164.43 70.27 162.51C71.1 160.25 72.92 158.07 71.76 155.21C70.15 153.47 68.7799 155.05 66.9199 156.08C68.2299 156.22 69.1799 156.33 70.2099 156.44C70.3199 156.76 70.56 157.09 70.53 157.4C70.36 159.3 70.8198 161.53 68.1498 162.22C67.9698 162.27 67.7399 162.58 67.7399 162.77C67.7999 165.86 65.62 165.72 63.52 165.76C63.05 165.76 62.5701 165.86 62.1101 165.97C56.8201 167.27 52.8698 164.56 52.3998 159.19C52.1698 156.55 52.3399 153.93 53.7399 151.54C53.9799 151.13 54.23 150.7 54.34 150.25C55.49 145.32 58.5999 142.91 63.6599 142.63C62.2199 142.55 60.7899 142.46 58.9099 142.35C59.0599 140.45 59.19 138.65 59.33 136.85C59.21 136.8 59.0899 136.75 58.9699 136.7C58.1099 138.59 57.26 140.48 56.35 142.48C55.56 142.48 54.8398 142.48 54.1298 142.48C48.8998 142.51 47.5199 141.03 47.2399 135.7C47.0099 131.3 48.09 127.15 49.54 123.16C51.14 118.76 52.22 114.06 55.31 110.31C56.44 108.93 57.4001 107.5 59.6201 107.53C63.4601 107.59 63.4599 107.45 64.4999 111.26C66.3399 110.62 68.18 109.98 70.34 109.24C71.8 106.41 71.0099 101.37 76.6799 100.97C78.4299 104.35 80.1598 107.66 82.1298 111.46C84.1398 107.22 86.01 103.28 87.83 99.4601C85.3 99.2301 82.8401 99.0001 80.1101 98.7501C79.4701 94.8401 78.8399 91.0101 78.1599 86.8601C82.3399 85.7601 85.53 83.0201 89.77 82.8301C90.2 84.0101 90.5899 84.8401 89.4699 85.8201C88.6299 86.5601 88.1101 87.7201 87.6101 88.7701C86.9901 90.0801 86.9798 91.3601 88.6298 92.3101C89.2498 92.0101 89.9699 91.6601 90.9199 91.2001C90.9199 90.0701 90.9099 88.8801 90.9199 87.6801C90.9399 86.1401 90.7098 84.6701 92.1398 83.3601C93.8598 81.7801 95.6899 80.5001 97.9399 80.0001C99.2999 79.6901 100.4 80.3801 100.35 81.9301C100.26 84.3101 99.96 86.6801 99.82 89.0601C99.74 90.4901 99.81 91.9301 99.81 94.1501C101.07 92.2301 102.09 90.8801 102.89 89.4101C103.55 88.2001 104.04 87.1501 105.75 87.1701C107.47 87.1901 108.41 88.0401 109.11 89.4101C110.02 91.1901 111.03 92.9301 111.79 94.7801C112.76 97.1201 113.12 99.5001 116.08 100.81C118.04 101.67 119.19 104.31 120.77 106.1C121.11 106.48 121.71 106.64 122.18 106.9L122.14 106.85C122.21 107.92 122.39 108.97 120.89 109.33C120.29 109.48 119.81 110.08 119.27 110.48C115.72 111.28 112.16 112.1 108.61 112.89C107.66 113.1 106.69 113.23 105.86 113.37C105.37 110.94 104.98 109 104.6 107.11C102.36 107.06 101.73 107.25 100.42 109.07C98.3899 111.9 96.5 114.84 94.56 117.74C93.86 118.02 93.1598 118.29 92.6498 118.5C94.2598 120.06 95.6398 121.53 97.1498 122.85C101.67 126.8 104.47 131.41 103.31 137.71C103.2 138.28 103.34 138.9 103.37 139.5C102.86 141.94 102.35 144.38 101.83 146.82C101.34 147.55 100.85 148.28 100.36 149.01C99.1701 150.05 98.7299 152.03 96.6699 152C95.3599 151.63 94.05 151.27 92.54 150.84C92.52 151.29 92.4899 151.94 92.4599 152.6C91.9499 153.34 91.4299 154.08 90.9199 154.82V154.83ZM95.7299 145.58C96.1299 140.95 94.4499 138.07 90.4699 136.06C88.5299 139.62 89.5799 143.1 90.9499 146.6V140.64C93.0166 140.5 94.6099 142.15 95.7299 145.59V145.58ZM66.9099 136.16C66.4199 134.26 65.0199 134.51 63.7499 134.5C62.5366 134.493 61.55 134.94 60.79 135.84C62.77 135.94 64.7099 136.04 66.9199 136.16H66.9099Z" fill="#EEB344"/>
<path d="M83.6802 41.71C81.6102 42.22 80.1102 42.46 78.7202 42.96C75.7102 44.06 72.6404 44.9 69.8704 46.71C67.5904 48.2 65.2003 50.22 61.5503 49.02C63.5103 45.17 66.1002 41.97 68.4202 38.51C67.2402 36.4 64.9802 36.07 63.1702 35.76C56.9502 34.71 52.1303 30.73 46.6003 28.28C46.1803 28.09 46.0603 27.22 45.5703 26.15C50.2503 26.45 54.3803 25.78 58.6003 26.65C61.4503 27.23 64.4804 27.29 67.3604 26.44C65.9104 20.21 64.5602 14.37 63.2002 8.52001C64.6402 7.84001 65.5502 7.65 66.4202 9.11C68.4802 12.56 70.6902 15.93 72.9202 19.28C74.4902 21.65 76.1803 23.94 78.0803 26.64C79.3103 25.01 80.1703 23.87 81.0203 22.73C82.5803 20.63 83.2403 20.36 86.3503 20.63C87.0303 23.63 88.5703 26.56 87.3203 29.84C87.2003 30.16 87.3503 30.57 87.2903 30.92C86.6803 34.51 88.1102 36.52 91.4702 38.22C96.0202 40.52 100.05 43.82 104.42 46.51C108.78 49.19 112.94 52.12 117 55.22C122.76 59.63 128.53 64.02 134.3 68.42C136.39 70.01 138.59 71.47 140.57 73.2C144.29 76.46 147.88 79.87 151.28 82.99C150.25 88.13 149.35 92.77 148.36 97.39C148.2 98.13 147.68 99.31 147.22 99.36C146.43 99.45 145.38 99.01 144.76 98.44C142.4 96.25 140.2 93.87 137.87 91.64C132.27 86.26 126.65 80.91 121.02 75.56C116.68 71.43 112.37 67.27 107.96 63.21C104.1 59.67 99.8803 56.49 96.2703 52.72C93.2903 49.6 90.0603 46.81 86.8103 44.02C85.6603 43.04 84.3802 42.21 83.6902 41.7L83.6802 41.71Z" fill="#F5D2B7"/>
<path d="M96.6701 152.02C98.7301 152.05 99.1703 150.07 100.36 149.03C101.04 149.1 101.72 149.17 102.93 149.29C101.09 153.39 100.77 157.38 101.23 161.72C101.99 162.26 102.89 163.39 103.86 163.46C105.59 163.59 107.43 163.29 109.12 162.81C112.44 161.86 113.4 158.97 114.32 156.03C115.37 152.64 114.28 149.76 112.35 147.14C111.48 145.95 110.13 145.1 108.62 143.77C107.64 144.57 106.38 145.39 105.4 146.46C104.23 147.73 103.18 148.16 101.83 146.84C102.34 144.4 102.85 141.96 103.37 139.52C103.76 138.71 104.3 137.93 104.52 137.08C105.34 133.85 105.12 130.21 103.54 127.74C101.68 124.82 99.2802 121.85 96.0502 119.92C95.3702 119.51 95.0402 118.5 94.5502 117.77C96.5002 114.88 98.3801 111.94 100.41 109.1C101.72 107.27 102.35 107.08 104.59 107.14C104.97 109.03 105.36 110.97 105.85 113.4C106.67 113.26 107.64 113.13 108.6 112.92C112.16 112.13 115.71 111.32 119.26 110.51C121.93 110.99 124.6 111.47 127.26 111.94C128.73 113.16 130.19 114.39 131.66 115.61C133.56 118.5 135.46 121.38 137.37 124.27C138.24 126.7 139.03 129.15 140 131.54C140.86 133.67 141.27 135.83 141.11 138.11C141.11 140.17 141.18 142.23 141.06 144.28C140.99 145.57 140.64 146.84 140.42 148.11C140.16 149.62 139.9 151.13 139.64 152.65C137.94 154.85 136.23 157.04 134.53 159.24C132.15 159.49 130.63 160.94 129.47 162.88C128.5 163.36 127.54 163.84 126.57 164.32C125.36 164.79 124.16 165.31 122.93 165.7C119.5 166.79 116.02 167.48 112.37 167.23C110.08 167.08 107.78 167.21 105.48 167.21C102.8 167.33 100.9 165.67 98.9001 164.27C97.3201 163.11 95.85 161.73 94.13 160.83C91.59 159.5 90.5301 157.61 90.9101 154.82C91.4201 154.08 91.9401 153.34 92.4501 152.6C93.8601 152.41 95.4201 153.33 96.6601 152L96.6701 152.02ZM122.54 116.74C120.92 117.77 118.56 118.46 117.71 119.98C116.08 122.9 115 126.23 114.29 129.52C113.57 132.82 116.65 135.55 120.14 135.22C124.33 134.82 128.51 130.13 127.96 126.02C127.48 122.44 126.19 119.11 122.54 116.74ZM129.03 144.06C128.15 146.66 130.05 147.84 131.04 149.34C131.25 149.65 132.66 149.57 133.2 149.2C135.13 147.89 134.67 146 134.28 144.07H129.03V144.06ZM108.36 120.09C108.56 120.25 108.76 120.4 108.96 120.56C109.94 119.31 110.91 118.07 111.89 116.82C109.61 117.05 109.39 118.88 108.36 120.09Z" fill="#F5D2B7"/>
<path d="M94.7601 245.98C99.9401 245.64 104.6 245.33 109.46 245.01C109.59 245.73 109.8 246.4 109.82 247.07C110 253.4 111.08 259.56 113.16 265.56C113.56 266.72 113.46 268.18 113.21 269.43C112.49 272.91 111.07 276.23 111.25 279.9C111.33 281.39 110.96 281.63 109.08 282.84C105.2 277.91 101.85 272.67 99.5902 266.76C98.5302 263.99 97.1501 261.33 96.2701 258.51C95.2601 255.25 94.56 251.87 93.94 248.51C93.79 247.72 94.4801 246.77 94.7501 245.98H94.7601Z" fill="#F5D2B7"/>
<path d="M70.4502 468.86V461.3C72.9902 460.22 74.9904 461.76 77.1204 462C80.1504 462.34 83.1802 462.89 86.2202 463C88.3202 463.08 90.4403 462.42 92.5503 462.38C96.1803 462.3 96.3502 462.68 95.4402 466.35C94.9602 468.28 94.7003 470.26 94.3403 472.23C90.7903 474.27 86.8202 473.9 82.9502 474.09C79.0302 473.24 75.0903 472.45 71.6003 470.36C71.1003 470.06 70.8302 469.37 70.4502 468.87V468.86Z" fill="#030000"/>
<path d="M131.67 115.61C130.2 114.39 128.74 113.16 127.27 111.94C126.56 111.23 125.36 110.58 125.25 109.79C124.97 107.81 123.41 107.58 122.14 106.88L122.18 106.93C121.13 104.67 119.82 102.47 120.04 99.86C120.14 98.61 120.53 97.38 120.81 96.06C126.31 95.66 129.43 98.97 132.31 102.41C135.45 106.15 135.36 110.6 134.3 115.38C133.5 115.45 132.59 115.54 131.67 115.63V115.61Z" fill="#F5D2B7"/>
<path d="M98.9101 164.28C100.92 165.68 102.81 167.34 105.49 167.22C105.97 167.46 106.43 167.77 106.94 167.93C108.14 168.29 109.35 168.57 110.97 168.99C110.34 170.1 110.1 170.93 109.55 171.43C106.25 174.5 102.61 176.84 97.8402 176.67C95.1802 176.57 92.85 174.62 92.38 172C91.81 168.76 92.45 167.46 95.38 165.72C96.49 165.06 97.3901 163.96 98.9001 164.29L98.9101 164.28Z" fill="#F5D2B7"/>
<path d="M70.45 468.86C70.83 469.37 71.1001 470.05 71.6001 470.35C75.1001 472.44 79.04 473.23 82.95 474.08C82.88 474.67 83.04 475.54 82.71 475.81C81.24 477.01 81.45 478.59 81.48 480.14C81.51 481.5 81.1499 482.37 79.6299 482.75C78.5299 483.03 77.59 483.9 76.53 484.38C72.81 486.06 69.6099 484.03 69.8799 480.06C70.0999 476.87 70.1301 473.8 68.0601 471.1C67.8501 470.83 67.77 470.45 67.7 470.11C67.65 469.88 67.72 469.63 67.76 469.12C68.63 469.03 69.54 468.94 70.46 468.85L70.45 468.86Z" fill="#EEB344"/>
<path d="M224.78 476.76C219.48 476.96 218.15 475.55 218.48 470.47H229.29C228.49 473.32 225.22 474.07 224.78 476.76Z" fill="#030000"/>
<path d="M134.55 159.24C136.25 157.04 137.96 154.85 139.66 152.65C142.19 151.72 141.82 149.53 141.89 147.53C142.22 145.77 142.55 144.01 142.94 141.94C143.64 141.89 144.54 141.82 145.44 141.75C146.44 142.26 147.43 142.78 148.43 143.29C148.41 145.7 148.41 148.11 148.37 150.53C148.33 152.89 148.01 155.07 146.31 157.01C145.35 158.11 145.12 159.82 144.48 161.22C142.93 164.61 140.49 167.25 137.5 169.41C137.23 169.67 136.96 169.92 136.68 170.18C135.54 170.09 134.41 170.01 133.05 169.9V164.37C133.31 163.78 133.65 163.22 133.82 162.6C134.12 161.49 134.31 160.36 134.55 159.24Z" fill="#F5D2B7"/>
<path d="M129.03 144.06H134.28C134.67 145.99 135.13 147.88 133.2 149.19C132.66 149.56 131.25 149.65 131.04 149.33C130.05 147.83 128.15 146.65 129.03 144.05V144.06Z" fill="#E79062"/>
<path d="M136.68 170.18C135.41 170.47 134.15 170.76 132.56 171.13C132.59 168.54 131.62 166.41 133.05 164.37V169.9C134.41 170 135.55 170.09 136.68 170.18Z" fill="#8A71AA"/>
<path d="M218.33 477.74C217.68 475.38 217.14 473.4 216.44 470.87C213.38 470.34 209.77 469.35 206.12 469.18C201.94 468.98 198.53 466.94 194.94 465.36C194.1 464.99 193.36 463.1 193.5 462.02C194.13 457.12 194.74 452.17 196.03 447.43C197.86 440.69 200.12 434.06 203.95 428.08C204.45 427.31 204.42 425.91 204.13 424.96C201.46 415.94 199.1 406.8 195.81 398.01C192.31 388.66 187.91 379.64 183.88 370.49C182.2 366.67 180.46 362.89 178.47 358.49C156.79 380.01 138.8 403.7 120.49 427.74C123.24 428.71 125.6 429.44 127.88 430.36C133.43 432.6 135.5 435.97 135.04 441.91C134.78 445.2 132.66 447.9 130.45 450.34C126.34 454.86 121.39 458.35 115.73 460.45C110.42 462.42 104.92 464.18 98.9199 463.64C97.6999 467.13 98.2299 471.15 94.9099 473.56C95.3899 473.97 95.7299 474.33 96.1299 474.59C99.4799 476.7 99.99 478.31 98.99 482.12C97.27 488.63 95.7101 495.18 94.0501 501.84C97.4301 503.6 96.9999 506.22 96.4399 508.89C96.1199 510.42 95.6001 511.95 95.5601 513.49C95.4801 516.04 94.25 517.72 91.98 518.36C87.81 519.54 83.6001 521.01 79.3301 521.33C65.8501 522.32 52.3301 522.91 38.8301 523.52C30.4001 523.9 21.96 524.08 13.52 524.26C11.47 524.3 9.40012 524.13 7.37012 523.83C4.12012 523.36 3.52005 522.37 3.79005 519.23C3.91005 517.89 3.47992 516.5 3.40992 515.13C3.33992 513.83 3.16998 512.47 3.46998 511.24C3.97998 509.13 4.81005 507.1 5.54005 504.96C3.59005 504 3.39994 502.75 5.17994 501.46C6.24994 500.69 7.4099 499.99 8.6399 499.53C14.2799 497.41 19.9599 495.39 25.6299 493.32C26.0799 493.16 26.5699 492.99 26.8999 492.67C35.3899 484.68 45.39 478.85 55.28 472.87C55.9 472.49 56.5601 472.16 57.1201 471.71C60.3501 469.1 63.7701 467.41 68.1001 469.4C68.6701 466.6 69.2 464.03 69.73 461.42C67.31 459.82 64.8401 458.17 62.3601 456.54C58.5001 454.01 57.34 450.25 57.46 445.89C57.72 436.72 59.8601 427.9 63.3001 419.5C67.2301 409.92 71.6599 400.53 76.1399 391.19C80.6299 381.84 85.25 372.53 90.2 363.42C95.61 353.46 101.43 343.73 107.11 333.91C110.42 328.19 113.88 322.54 117.11 316.77C118.2 314.82 118.76 312.58 119.68 310.16C116.75 309.78 114.17 309.49 111.61 309.1C106.85 308.38 106.44 306.64 106.57 302.32C106.66 299.2 107.23 296.09 107.73 293C108.19 290.16 108.84 287.35 109.46 284.23C107.4 285.39 106.15 284.32 105.01 282.61C99.02 273.62 94.9101 263.93 93.8401 253.09C93.6301 250.94 93.47 248.79 93.26 246.25C91.11 246.02 88.9901 245.73 86.8501 245.57C81.5301 245.18 80.1999 243.6 81.4199 238.34C82.3999 234.13 83.7499 230 84.9299 225.83C87.8799 215.45 92.5801 205.79 97.5901 196.33C101.7 188.57 106.61 181.24 111.15 173.71C111.24 173.56 111.12 173.27 111.14 173.43C108.46 175.02 105.74 176.89 102.81 178.32C96.4401 181.44 91.18 178.49 90.25 171.48C90.19 171.02 90.12 170.56 89.99 169.64C88.63 171.49 87.5099 173.02 86.3799 174.53C83.0999 178.89 77.4701 178.36 74.3601 173.63C72.6501 171.04 70.7099 168.6 69.1399 166.45C65.7599 167.32 62.91 168.26 59.98 168.76C53.77 169.82 47.3299 161.69 50.1899 155.95C51.3199 153.68 52.3001 151.34 53.3601 149.04C53.8501 147.98 54.36 146.92 55.02 145.52C52.94 144.91 51.2601 144.35 49.5501 143.92C47.1701 143.32 45.8801 141.74 45.3101 139.46C44.5401 136.37 44.2999 133.26 45.1299 130.15C47.1299 122.66 49.7101 115.42 54.5601 109.2C56.1001 107.22 57.9301 105.36 60.5601 105.85C62.4301 106.2 64.1099 107.54 65.6899 109.04C67.0599 108.76 68.4301 108.47 69.0601 108.34C70.7001 105.59 71.7699 103.12 73.4399 101.16C75.4999 98.75 77.72 99.53 78.76 102.56C79.53 104.8 80.56 106.96 81.47 109.15L82.3201 109.24C83.7201 106.53 85.1201 103.81 86.6201 100.89C80.7701 101.64 78.7299 99.7 77.9199 93.03C77.7599 91.71 77.7399 90.37 77.6299 89.05C77.3799 85.99 77.7901 85.46 80.8001 84.44C82.2801 83.94 83.7001 83.26 85.1101 82.56C87.1501 81.55 89.15 80.8 91.03 82.64C92.65 81.46 94.0601 80.31 95.5901 79.36C98.3601 77.63 100.65 78.66 101.03 81.91C101.28 84.03 101.08 86.2 101.08 89.01C102.26 87.98 102.93 87.4 103.6 86.8C105.97 84.69 107.78 84.96 109.35 87.79C110.64 90.11 112.13 92.4 112.89 94.9C113.92 98.29 116.84 99.87 118.52 102.58C118.73 102.48 118.94 102.38 119.16 102.28C118.99 101.17 118.74 100.06 118.67 98.94C118.38 94.57 121.6 92.29 125.48 94.34C132.45 98.02 136.46 103.91 137.46 111.73C137.77 114.18 138.44 116.69 136.83 119.09C136.51 119.57 137.17 120.72 137.59 122.41C140.43 115.48 142.92 109.41 145.38 103.41C142.3 98.31 89.9399 48.26 82.4299 43.32C78.0199 45.64 73.3899 48.14 68.6799 50.51C66.7499 51.48 64.7199 52.34 62.6499 52.95C60.8299 53.49 59.0899 53.26 57.9099 51.34C56.7499 49.46 58.13 48.39 59.03 47.2C61.04 44.51 63.14 41.88 65.48 38.86C61.67 37.22 58.2199 35.92 54.9299 34.27C51.1599 32.38 47.4899 30.29 43.9199 28.07C43.0999 27.56 42.8501 26.13 42.3301 25.13C43.2501 24.69 44.1701 23.86 45.0801 23.87C49.5401 23.92 54 24.22 58.46 24.36C60.61 24.43 62.7701 24.37 65.3301 24.37C64.5801 20.9 63.8699 17.55 63.1499 14.21C62.4799 11.1 60.8199 8.02 62.8899 4.25C69.3199 9.6 72.6801 16.94 78.1001 22.41C79.6101 21.01 80.91 19.56 82.46 18.43C84.51 16.93 86.3701 17.36 87.6001 19.58C88.2301 20.71 88.6299 22.03 88.8999 23.31C89.7399 27.27 90.4201 31.27 91.3001 35.23C91.4801 36.02 92.1201 37 92.8201 37.34C100.01 40.83 106.45 45.49 112.94 50.07C119.62 54.79 126.32 59.48 132.89 64.35C137.14 67.5 141.24 70.85 145.26 74.28C148.82 77.32 151.83 81.13 155.69 83.69C167.02 91.2 173.88 102.44 181.42 113.15C184.6 117.67 187.73 122.22 190.81 126.8C191.54 127.88 191.99 129.15 192.57 130.34C197.02 139.4 201.63 148.39 205.86 157.54C207.88 161.9 209.4 166.51 210.78 171.12C212.57 177.09 214.09 183.14 215.53 189.21C216.17 191.93 216.31 194.77 216.72 197.55C216.81 198.13 217.05 198.7 217.31 199.23C221.01 206.67 224.83 214.05 228.42 221.54C231.55 228.07 234.58 234.65 237.37 241.32C239.87 247.3 242.57 253.3 244.1 259.56C245.5 265.27 247.56 271.01 246.97 277.12C246.86 278.28 247.41 279.48 247.51 280.68C247.58 281.47 247.66 282.45 247.28 283.04C244.84 286.85 242.28 290.58 239.82 294.25C242.62 304.55 244.81 315.18 248.48 325.27C250.95 332.05 252.58 339.04 254.97 345.83C257.42 352.8 258.49 360.25 260.23 367.47C260.86 370.07 261.71 372.61 262.4 375.19C262.94 377.23 263.36 379.3 263.87 381.35C265.11 386.36 266.38 391.36 267.58 396.38C267.8 397.3 267.69 398.3 267.82 399.25C267.97 400.43 267.93 401.75 268.47 402.74C270.2 405.86 271.07 409.13 270.93 412.69C270.93 412.93 271.01 413.17 271.05 413.4C272.38 420.48 272.42 427.59 271.69 434.74C271.5 436.61 271.76 438.54 271.92 440.44C272.25 444.26 270.97 447.81 269.87 451.31C268.08 457 264.31 461.24 258.83 463.74C254.93 465.52 250.91 467.06 247.43 468.51C248.89 471.39 250.17 474.81 252.2 477.7C255.74 482.78 254.27 488.15 253.89 493.52C253.6 497.62 253.28 501.71 253.01 505.81C252.93 507.06 252.78 508.2 253.66 509.5C254.16 510.24 253.14 512.01 252.95 512.76C253.21 514.28 253.67 515.42 253.52 516.47C253.26 518.24 252.94 520.15 252.03 521.63C250.96 523.39 249.51 525.28 247.75 526.2C239.23 530.67 229.99 532.73 220.44 533.3C214.79 533.64 209.14 533.7 203.58 532.11C199.44 530.93 198.64 530.13 199.03 525.75C199.31 522.64 199.59 519.5 200.23 516.45C200.8 513.78 202.95 512.09 205.37 511.23C206.99 510.65 207.52 509.72 208.19 508.34C211.65 501.21 213.39 493.55 215.4 485.97C216.17 483.07 217.41 480.3 218.32 477.77L218.33 477.74ZM104.89 128.14L104.79 128.05C104.97 129.45 105.21 130.85 105.33 132.26C105.83 138 103.61 143.18 101.63 148.31C100.49 151.26 98.32 153.61 94.47 153.48C93.6 153.45 92.0899 154.65 91.9399 155.48C91.7399 156.56 92.2501 158.25 93.0701 158.95C100.53 165.3 108.92 168.26 118.85 165.99C125.25 164.53 130 160.74 134.75 156.54C138.39 153.31 139.97 149.24 140.2 144.85C140.69 135.24 138.38 126.19 132.51 118.39C128.05 112.48 123.16 110.61 115.38 112.19C112.26 112.82 109.25 113.98 105.59 115.07C105.04 112.69 104.42 109.99 103.61 106.49C100.59 110.61 97.9401 114.23 95.6201 117.39C98.6101 120.93 101.14 123.94 103.68 126.94C104.05 127.37 104.48 127.75 104.89 128.15V128.14ZM236.24 295.89C230.13 300.71 223.04 301.96 216.28 303.94C212.28 305.11 208.1 305.68 204.01 306.55C199.29 307.56 194.61 308.87 189.84 309.56C184.17 310.38 178.42 310.55 172.73 311.25C162.93 312.45 153.17 312.72 143.34 311.54C137.83 310.88 132.27 310.71 126.73 310.35C125.81 310.29 124.87 310.44 124.48 310.46C121.95 315.38 119.82 319.93 117.33 324.28C112.62 332.52 107.65 340.61 102.9 348.83C97.2599 358.6 91.61 368.37 86.21 378.28C83.34 383.54 80.9999 389.09 78.4399 394.52C74.9299 402 70.9901 409.32 68.0601 417.03C65.0401 424.98 61.8801 433.04 61.5501 441.7C61.4201 444.95 60.96 448.55 63.54 451.3C65.88 453.8 68.64 455.71 72.01 456.65C84.12 460.05 96.1699 459.55 108.41 457.01C115.4 455.56 121.17 452.49 126.36 447.87C131.31 443.46 130.37 438.21 124.21 436.07C122.15 435.36 120.07 434.7 118.06 433.86C116.45 433.18 114.95 432.12 115.4 430.07C115.79 428.33 116.22 426.44 117.22 425.02C120.49 420.39 123.98 415.92 127.48 411.46C131.41 406.43 135.48 401.5 139.42 396.49C142.61 392.43 145.69 388.29 148.88 384.23C150.59 382.05 152.79 380.18 154.12 377.8C155.39 375.53 157.03 373.8 158.91 372.14C159.53 371.59 159.88 370.76 160.43 370.11C161.97 368.29 163.52 366.48 165.1 364.7C168.57 360.79 172.05 356.91 175.25 353.32C175.34 350.62 172.5 348.6 174.97 345.99C177.96 347.88 180.17 350.39 181.71 353.43C184.21 358.39 186.71 363.35 188.92 368.44C192.84 377.47 196.75 386.52 200.29 395.7C203.2 403.24 205.78 410.92 208.1 418.65C209.77 424.21 210.5 429.8 206.29 435C200.75 441.85 198.45 450.12 196.97 458.63C196.4 461.93 196.82 462.83 199.88 463.92C206.27 466.21 212.85 467.48 219.71 466.99C229.9 466.26 239.7 463.65 249.43 460.8C252.75 459.83 256.01 458.35 258.97 456.57C262.72 454.32 265.32 450.95 265.47 446.33C265.64 441.04 265.54 435.74 265.68 430.46C265.86 423.85 266.13 417.26 264.51 410.75C263.79 407.86 263.53 404.85 262.85 401.95C261.92 398 260.67 394.13 259.76 390.17C258.08 382.83 256.61 375.45 254.94 368.11C254.19 364.81 253.16 361.58 252.31 358.31C250.38 350.84 248.56 343.34 246.56 335.89C244.52 328.32 242.19 320.83 240.2 313.24C238.73 307.64 237.62 301.95 236.25 295.84L236.24 295.89ZM207.97 180.96C207.61 179.72 207.3 178.46 206.87 177.24C206.01 174.77 204.94 172.37 204.23 169.86C201.85 161.53 198.28 153.67 194.7 145.82C193.57 143.35 191.95 141.1 190.66 138.69C187.64 133.03 184.88 127.23 181.67 121.69C178.83 116.79 175.58 112.13 172.43 107.42C168.53 101.58 165.22 95.24 158.59 91.72C156.99 90.88 155.86 89.16 154.17 87.51C153.72 89.08 153.38 90.19 153.08 91.32C152.62 93.07 152.53 95.02 151.65 96.53C149.89 99.57 149.26 102.49 150.93 105.71C151 105.84 150.76 106.13 150.56 106.57C149.55 106.69 148.41 106.83 147.54 106.93C144.58 112.68 141.76 118.19 138.94 123.68C140.06 128.12 141.6 132.84 142.4 137.67C143.72 145.56 142.75 152.97 136.47 158.89C133.35 161.83 133.03 165.7 133.28 170.36C134.68 169.77 135.69 169.53 136.48 168.97C143.33 164.14 146.53 157.1 148.1 149.18C148.95 144.88 148.55 144.32 144.58 142.17C144.3 142.02 144.15 141.63 143.93 141.34C144.58 139.47 146.06 139.45 147.52 139.76C149.42 140.16 150.97 141.27 151.25 143.26C151.49 145.02 151.55 146.93 151.11 148.62C150.18 152.22 149.26 155.91 147.63 159.22C144.84 164.87 141.09 169.83 135.51 173.21C133.75 174.27 131.94 175.02 130.61 173.57C129.66 172.53 129.46 170.49 129.53 168.93C129.61 167.33 130.43 165.76 131.12 163.55C125.95 167.16 120.88 169.15 115.79 169.54C114.69 171.63 113.91 173.38 112.9 174.98C110.02 179.53 106.82 183.9 104.15 188.57C98.7299 198.07 93.8299 207.85 90.4199 218.28C88.3399 224.65 86.5199 231.11 84.6599 237.55C84.3899 238.49 84.5 239.54 84.46 240.27C95.57 240.94 106.06 239.94 116.51 237.45C116.64 235.83 116.82 234.4 116.86 232.96C117.05 226.09 116.95 219.21 117.44 212.36C118.02 204.19 119.07 196.06 120.01 187.92C120.13 186.85 120.85 185.85 121.29 184.82C121.62 184.86 121.95 184.9 122.28 184.94C122.43 186.01 122.67 187.07 122.69 188.14C122.7 189.09 122.4 190.04 122.33 191C121.83 198.64 121.27 206.29 120.88 213.94C120.61 219.45 120.44 224.97 120.49 230.48C120.52 233.68 121.46 236.9 121.29 240.07C121.07 244.21 120.3 248.34 119.51 252.43C117.59 262.35 115.52 272.24 113.53 282.15C113.13 284.12 112.84 286.12 112.54 288.11C112.06 291.29 111.31 294.46 111.2 297.65C110.97 304.15 111.38 304.35 117.78 304.47C123.58 304.57 129.37 304.92 135.16 305.02C139.61 305.1 144.08 305.28 148.49 304.86C154.24 304.32 159.94 303.21 165.67 302.37C174.01 301.15 182.34 299.82 190.71 298.84C194.13 298.44 196.98 296.62 200.23 295.93C208.68 294.14 217.32 293.25 225.3 289.46C229.62 287.41 234.43 286.32 237.67 282.44C238.76 281.13 240.41 279.83 240.64 278.35C241.64 272.08 240.26 265.85 238.8 259.85C237.21 253.31 234.52 247.03 232.17 240.69C230.21 235.4 228.14 230.15 225.97 224.94C223.47 218.94 220.95 212.94 218.14 207.09C215.85 202.32 213.9 197.26 209.65 193.67C208.85 193 208.29 192.01 207.7 191.12C205.52 187.8 203.58 184.3 201.16 181.17C197.21 176.05 192.66 171.38 188.91 166.12C185.28 161.03 180.56 157.16 175.91 153.25C170.15 148.4 164.06 143.9 157.87 139.6C152.75 136.05 147.26 133.05 141.98 129.72C141.5 129.42 141.39 128.52 140.77 127.16C143.1 127.88 144.68 128.11 146.02 128.82C156.38 134.3 165.81 141.19 175.07 148.3C187.37 157.74 197.91 168.96 207.93 180.96H207.97ZM81.99 163.16C80.01 159.18 79.24 155.85 79.45 152.26C79.55 150.64 80.1599 149.17 81.6599 148.9C82.7899 148.7 84.2301 149.29 85.3001 149.92C86.3001 150.51 86.9801 151.64 87.8401 152.49C88.5601 153.2 89.3401 153.86 90.0901 154.54C90.3901 154.45 90.68 154.36 90.98 154.26C91.01 153.22 91.2301 152.16 91.0501 151.16C90.3101 147.03 89.4399 142.92 88.6299 138.8C88.3299 137.28 88.9101 135.92 90.3101 135.63C91.2901 135.43 92.77 135.9 93.51 136.61C96.09 139.1 97.3901 142.13 96.3001 145.8C95.7901 147.51 95.2599 149.21 94.6799 151.09C97.1199 151.72 98.75 150.78 99.46 148.77C100.54 145.74 101.43 142.61 102.09 139.46C102.55 137.28 102.99 134.88 102.54 132.76C101.63 128.51 98.9801 125.18 95.5801 122.47C94.1901 121.37 92.8499 120.21 91.3899 119C91.8799 118.33 92.1699 117.62 92.4299 117.63C94.5199 117.72 94.9401 115.97 95.8401 114.72C98.3401 111.23 100.86 107.76 103.58 104C106.55 106.53 104.87 110.1 106.44 112.36C111.35 111.06 116.26 109.76 121.61 108.35C120.09 106.67 119.16 105.36 117.96 104.39C113.96 101.17 111.21 97.13 109.35 92.37C108.69 90.66 107.55 89.14 106.67 87.62C102.53 88.75 103.13 93.82 98.7 94.93C99.01 92.15 99.33 89.82 99.5 87.49C99.67 85.17 100.41 82.73 98.25 80.17C96.17 81.7 93.8901 82.92 92.3301 84.75C91.5701 85.64 92.2301 87.68 92.1001 89.18C91.9801 90.65 91.64 92.18 89.99 92.64C89.15 92.87 87.4301 92.77 87.3701 92.51C87.0201 91.08 86.7301 89.49 87.0601 88.1C87.3901 86.69 88.46 85.46 89.21 84.15C89.08 83.96 88.9401 83.76 88.8101 83.57C85.6001 84.83 82.38 86.1 79.01 87.42C79.68 91.28 80.2799 94.69 80.9299 98.44H88.53C87.58 103.68 84.5199 107.85 82.1899 113C79.9399 108.97 77.98 105.46 75.97 101.87C71.73 103.41 72.1101 107.48 70.8601 110.38C69.4101 110.64 68.17 110.86 66.95 111.07C68.46 114.83 69.8801 118.15 71.1001 121.54C71.4301 122.45 71.5701 124.04 71.0601 124.52C69.6801 125.8 67.99 126.9 66.24 127.61C64.44 128.34 62.6401 127.17 62.0601 125.2C61.7901 124.29 61.67 123.27 61.79 122.34C62.2 119 62.76 115.68 63.23 112.35C63.41 111.09 64.16 109.57 62.49 108.82C60.92 108.12 59.2001 107.74 57.8201 109.31C56.7101 110.57 55.3399 111.75 54.6799 113.23C52.7799 117.51 50.97 121.85 49.54 126.3C48.63 129.13 48.0601 132.2 48.0601 135.17C48.0601 140.87 50.87 142.73 55.99 141.5C56.23 140.63 56.4 139.67 56.74 138.77C57.91 135.67 60.19 133.86 63.48 133.48C65.87 133.21 67.56 134.41 68.49 136.8C69.44 139.25 69.2401 140.52 66.8401 142.02C65.0601 143.13 62.9399 144.16 60.9199 144.27C58.8199 144.38 57.72 145.35 56.95 146.83C55.67 149.28 54.4301 151.81 53.6001 154.43C52.6701 157.37 52.7901 160.43 54.8701 162.95C57.7201 166.38 62.7001 166.51 66.8501 163.34C65.0001 161.16 65.0801 158.7 66.0501 156.21C66.6401 154.71 69.4801 153.24 70.8501 153.57C72.3801 153.94 73.1701 155.8 72.6001 158.15C72.2001 159.78 71.48 161.34 71.02 162.96C70.81 163.68 70.5299 164.73 70.8799 165.21C72.7999 167.83 74.7 170.53 77 172.81C79.43 175.21 82.3101 174.81 84.3401 172.08C85.8501 170.05 87.3099 167.92 88.4299 165.66C89.3899 163.73 89.8099 161.56 88.3999 159.51C86.3199 160.69 84.3 161.83 81.98 163.15L81.99 163.16ZM82.24 40.66C82.43 40.35 82.6201 40.04 82.8201 39.73C94.4701 48.49 104.59 58.98 115.15 68.98C125.66 78.94 136.2 88.88 147.2 99.28C148.26 93.87 149.23 89.19 150.03 84.47C150.14 83.82 149.54 82.87 148.99 82.33C146.25 79.62 143.55 76.84 140.58 74.4C135.73 70.43 130.8 66.54 125.7 62.9C115.69 55.75 105.56 48.76 95.4299 41.78C92.2699 39.6 88.9601 37.65 85.8501 35.68C87.4101 30.33 86.9899 25.53 85.1899 19.8C82.6999 22.58 80.76 24.76 78.46 27.33C77.2 26.23 75.88 25.39 74.99 24.23C73.68 22.51 72.71 20.54 71.53 18.71C69.37 15.35 67.16 12.02 64.97 8.67001C64.64 8.83001 64.31 8.98999 63.98 9.14999C65.26 14.14 66.4801 19.14 67.8401 24.11C68.5201 26.62 68.11 27.5 65.53 27.54C63 27.58 60.4599 27.36 57.9199 27.24C54.3999 27.08 50.8801 26.91 47.3601 26.75C47.3001 27 47.2499 27.25 47.1899 27.5C48.1899 28.08 49.18 28.69 50.2 29.24C55.32 31.95 60.56 34.35 66.21 35.81C69.3 36.61 69.73 38.17 67.96 40.82C66.3 43.31 64.66 45.81 63 48.3C64.88 48.15 66.43 47.4 68.01 46.71C71.43 45.23 74.86 43.79 78.29 42.33C79.6 41.77 80.92 41.22 82.24 40.67V40.66ZM90.24 515.79C90.86 511.84 91.41 508.35 91.98 504.67C90.45 504.14 89.13 503.44 87.75 503.25C80.45 502.23 73.4401 503.13 66.8401 506.61C65.2501 507.45 63.6099 508.22 61.9399 508.91C56.0099 511.39 49.79 512.86 43.47 513.72C35.96 514.73 28.4001 515.46 20.8501 516.18C16.0701 516.63 11.2699 516.84 6.1399 517.18C5.9899 518.5 5.84998 519.75 5.71998 520.89C6.18998 521.16 6.39011 521.37 6.61011 521.39C15.3701 522.5 24.17 522.14 32.95 521.71C43.25 521.21 53.5301 520.3 63.8301 519.78C72.8501 519.32 81.76 518.33 90.25 515.79H90.24ZM38.72 496.44C38.11 496.94 36.55 497.57 36.21 498.6C35.19 501.68 32.6301 502.38 30.1201 503.09C22.8201 505.16 15.41 506.44 7.71998 505.31C6.91998 508.42 4.99002 511.15 6.26002 514.58C7.20002 514.63 8.0201 514.74 8.8401 514.71C14.3801 514.48 19.9399 514.52 25.4399 513.91C33.6899 512.99 41.9101 511.69 50.1101 510.38C52.8001 509.95 53.98 507.89 52.96 505.7C52.38 504.46 51.4 503.19 50.27 502.48C48.56 501.4 46.5099 500.89 44.6899 499.96C42.8399 499.02 41.1 497.86 38.74 496.45L38.72 496.44ZM201.81 527.68C203 528.07 203.78 528.37 204.59 528.59C210.25 530.11 216 529.72 221.74 529.36C229.87 528.86 237.58 526.56 245.12 523.65C245.92 523.34 246.82 522.63 247.16 521.88C248.18 519.63 248.94 517.26 249.74 515.11C234.43 518.18 218.97 521.05 202.65 519.4C202.39 521.92 202.12 524.64 201.81 527.68ZM108.26 245.94C104.11 246.18 99.7 246.44 95.01 246.71C95.01 247.76 94.92 248.68 95.02 249.58C95.89 257.11 99.0301 263.88 102.32 270.56C104.25 274.48 106.52 278.21 109.91 281.95C110.29 279.22 110.4 277.06 110.91 275C111.91 270.98 112.97 267.25 111.52 262.84C109.78 257.56 109.33 251.84 108.26 245.93V245.94ZM42.76 494.19C42.76 494.59 42.78 494.98 42.78 495.38C44.68 496.33 46.51 497.48 48.5 498.18C53.47 499.91 56.85 502.82 56.78 509.1C62.32 506.48 67.3801 504.08 72.8301 501.5C69.0201 495.38 65.43 489.61 61.73 483.66C55.1 487.34 48.93 490.77 42.75 494.2L42.76 494.19ZM76.3601 500.53C79.4501 500.36 81.96 500.18 84.48 500.09C86.61 500.01 89.4499 500.84 90.6899 499.77C92.1399 498.52 92.1401 495.64 92.8701 493.5C93.4801 491.71 92.6499 490.95 91.1399 490.17C88.4099 488.76 85.67 487.29 83.24 485.43C81.73 484.27 80.4499 483.67 78.6799 484.36C78.4599 484.45 78.26 484.66 78.04 484.69C75.8 484.96 73.2899 485.91 71.4199 484.36C70.0499 483.23 69.4399 481.19 68.3999 479.39C67.0199 480.3 65.3699 481.38 63.6599 482.5C68.0699 488.76 72.2801 494.74 76.3601 500.54V500.53ZM63.95 470.55C62.68 471.13 61.1799 471.61 59.9199 472.43C51.0599 478.22 42.2299 484.05 33.4099 489.92C29.7999 492.33 29.5999 494.07 32.4099 497.91C37.2699 495.06 42.13 492.16 47.03 489.34C52.25 486.34 57.64 483.61 62.73 480.4C68.14 476.99 70.2399 477.23 63.9399 470.54L63.95 470.55ZM243.94 504.42C239.76 501.17 234.67 501.3 229.65 501.88C225.14 502.4 220.21 502.29 217.47 507.17C216.27 509.3 214.79 511.26 213.43 513.3C213.6 513.62 213.77 513.94 213.93 514.27C216.76 514.31 219.62 514.62 222.41 514.33C226.36 513.93 230.35 513.4 234.18 512.37C238.41 511.23 243.69 511.01 243.94 504.41V504.42ZM72.01 461.52C71.7 463.47 71.2301 464.89 71.3301 466.28C71.4101 467.33 71.95 468.83 72.75 469.27C78.63 472.47 84.9401 473.69 91.5601 472.27C92.4701 472.08 93.4901 470.86 93.8301 469.89C94.4801 468 94.6699 465.96 95.1799 463.34C87.4499 463.73 79.77 464.4 72.02 461.52H72.01ZM216.29 517.06C215.48 516.87 214.67 516.67 213.86 516.48C209.92 515.54 209.46 514.2 212.02 511.15C214.35 508.38 216.6 505.54 219.04 502.88C221.08 500.65 221.52 498.13 221.15 495.29C220.88 493.28 220.77 491.24 220.5 489.23C220.21 487.11 220.94 485.46 222.55 484.12C223.18 483.59 223.76 483 224.38 482.43C222.44 480.71 220.58 480.99 219.69 483.12C219.14 484.44 218.71 485.84 218.45 487.25C216.95 495.36 213.48 502.77 210.23 510.25C209.49 511.95 208.9 513.84 206.21 513.63C205.36 513.56 204.39 515.06 203.14 516.13C207.82 518.24 212.04 517.57 216.29 517.08V517.06ZM224.77 499.89C229.46 499.71 233.37 499.56 237.29 499.41C240.31 499.29 242.91 500.26 245.42 501.95C246.87 502.93 247.46 504.04 247.07 505.56C246.23 508.82 244.7 511.53 241.1 512.54C238.68 513.22 236.33 514.13 233.95 514.94C239.67 514.06 245.45 513.44 250.18 511.09C249.7 509.68 249.02 508.67 249.1 507.72C249.4 503.76 249.96 499.81 250.33 495.85C250.44 494.66 250.24 493.44 250.16 491.93C242.18 496.62 233.19 496.11 224.78 499.89H224.77ZM133.24 115.22C133.64 114.2 133.91 113.79 133.96 113.36C134.93 105.96 131.91 101.36 124.82 97.4C122.3 95.99 120.98 96.86 120.83 99.71C120.79 100.42 121 101.14 121.06 101.85C121.31 104.68 123.83 105.9 125.21 107.92C127.33 111.03 130.8 112.15 133.24 115.23V115.22ZM93.8701 489.02C94.7901 486.18 95.7701 483.72 96.3601 481.17C97.0001 478.4 96.08 477.01 93.21 476.76C90.54 476.52 87.81 476.85 85.27 476.93C84.53 479.23 83.93 481.1 83.26 483.19C85.77 486.25 89.1801 488.21 93.8701 489.02ZM223.84 497.3C232.01 494.25 240.54 494.42 248.38 489.53C239.58 488.17 231.78 489.29 223.84 489.85V497.29V497.3ZM227.14 480.46C229.23 479.7 230.86 478.95 232.57 478.5C237.99 477.07 243.47 475.56 247.94 480.77C248.04 480.89 248.38 480.81 248.63 480.83C249.63 478.33 248.05 476.42 247.12 474.39C246.32 472.65 244.96 471.23 242.98 471.44C239.67 471.79 236.4 472.53 233.12 473.13C229.37 473.81 227.76 476.36 227.14 480.46ZM97.3101 165.56C96.9601 165.77 96.26 166.21 95.54 166.59C93.06 167.88 92.3099 169.9 93.4099 172.44C94.7399 175.55 97.2701 176.7 100.85 175.6C104.34 174.53 107.48 172.84 109.73 169.77C105.73 168.41 101.82 167.08 97.3201 165.56H97.3101ZM70.47 471.6C70.7 474.57 70.9401 477.36 71.1201 480.15C71.3101 483.06 72.0899 483.98 74.8899 483.5C76.7099 483.19 78.62 482.4 80.04 481.26C80.71 480.73 80.2399 478.87 80.4399 477.63C80.5799 476.72 80.97 475.86 81.25 474.97C77.59 473.82 73.96 472.68 70.47 471.59V471.6ZM10.6899 502.45C17.4999 503.92 24.0199 502.56 30.4099 500.86C29.2499 498.84 28.2 497.01 26.97 494.88C21.23 496.46 15.8999 499.2 10.6899 502.44V502.45ZM244.98 485.93C242.38 479.53 232.29 480.89 226.45 485.93H244.98ZM65.52 112.22C65.23 112.28 64.9299 112.34 64.6399 112.39C64.1699 115.83 63.5901 119.27 63.3101 122.73C63.2401 123.62 63.8501 125 64.5601 125.4C65.2301 125.77 66.5499 125.33 67.4199 124.91C68.3399 124.47 69.0599 123.62 70.1299 122.73C68.5599 119.16 67.04 115.69 65.51 112.22H65.52ZM110.47 245.58C111.89 249.91 111.97 254.4 114.64 258.69C115 256.84 115.23 255.54 115.52 254.25C115.81 252.96 116.12 251.67 116.47 250.39C118.09 244.52 116.7 243.87 110.47 245.58ZM59.76 142C61.96 141.43 63.89 141.25 65.49 140.43C67.28 139.52 67.03 137.83 65.24 136.94C62.07 135.35 60.12 136.9 59.76 142ZM219.43 471.26C219.63 473.31 219.57 475.14 221.5 475.47C224.61 476.01 225.47 473.23 227.31 471.26H219.42H219.43ZM87.8899 157.77C85.7899 155.61 84.1099 153.89 82.4299 152.16C82.1699 152.33 81.9099 152.5 81.6499 152.67C82.0699 155.15 82.49 157.64 83.02 160.75C84.88 159.61 86.0599 158.9 87.8899 157.78V157.77ZM91.53 140.86C91.85 143.9 92.13 146.51 92.45 149.59C94.99 144.93 94.84 143.19 91.53 140.86ZM70.1399 156.23C66.6999 158.22 66.5099 159.63 68.9099 161.48C69.2799 159.92 69.6199 158.44 70.1399 156.23ZM90.03 87.56C89.76 87.52 89.49 87.48 89.21 87.44C88.82 88.48 88.4301 89.52 87.8501 91.06C90.7201 90.39 90.37 88.97 90.03 87.56Z" fill="black"/>
<path d="M113.74 133.92C112.87 128.43 114.53 123.64 117.23 119.33C119.74 115.31 124.94 116.02 126.88 120.33C127.23 121.1 127.54 121.89 127.86 122.67C130.54 129.24 126.37 135.76 119.26 135.73C117.42 135.73 115.58 134.56 113.74 133.92ZM115.53 132.59C119.71 134.78 124.89 133.02 126.91 128.92C128.44 125.81 126.07 121.12 121.95 119.12C120.54 120.12 119.62 121.1 119.93 123.23C120.38 126.32 119.03 127.79 115.73 128.85C115.66 130.1 115.6 131.39 115.53 132.59Z" fill="black"/>
<path d="M107.47 144.04C106.32 146.44 106.5 148.66 106.61 151.01C106.72 153.44 105.58 154.08 102.45 153.78C102.07 156.19 101.69 158.63 101.31 161.05C105.11 163.19 109.69 162.22 112.57 158.67C114.67 156.08 114.59 150.95 111.78 148.42C110.73 147.47 110.08 146.07 108.8 144.25C113.82 146.04 116.26 150.54 115.51 155.21C114.59 160.9 111.22 163.96 105.48 164.32C102.72 164.49 101 163.3 100.55 160.65C99.5604 154.78 101.55 149.73 105.12 145.21C105.61 144.59 106.67 144.42 107.47 144.05V144.04Z" fill="black"/>
<path d="M127.24 143.47C129.87 143.07 132.07 142.74 134.21 142.42C135.59 145.13 135.82 147.37 134.2 149.59C133.22 150.93 131.82 151.13 130.77 150.16C129.04 148.56 127.48 146.7 127.24 143.47ZM134.18 145.15C133.97 144.9 133.75 144.65 133.54 144.39C132.22 144.61 130.9 144.83 129.01 145.15C130.2 146.71 131.06 147.82 132.4 149.58C133.2 147.57 133.69 146.36 134.18 145.14V145.15Z" fill="black"/>
<path d="M104.89 128.14C104.06 125.63 104.59 123.25 106.15 121.31C107.82 119.24 108.59 116.26 111.77 115.28C112.06 115.86 112.66 116.59 112.51 116.83C110 120.61 107.39 124.32 104.8 128.06L104.9 128.15L104.89 128.14Z" fill="black"/>
</svg>
