<svg width="137" height="219" viewBox="0 0 137 219" fill="none" xmlns="http://www.w3.org/2000/svg">
<path d="M136.78 180.87L134.78 180.91L136.78 180.86C136.71 177.39 136.64 173.81 136.61 170.29C136.57 164.4 136.57 158.51 136.56 152.63V152.31C136.56 147.61 136.56 142.9 136.53 138.2C136.52 135.18 136.47 132.16 136.42 129.14C136.37 125.93 136.31 122.73 136.3 119.52C136.29 116.39 136.32 113.25 136.35 110.12V110C136.38 106.63 136.41 103.15 136.4 99.71C136.38 95.38 136.31 91.02 136.24 86.81C136.19 83.33 136.13 79.86 136.1 76.38C136.04 69.98 136.01 63.58 135.98 57.17V56.32C135.95 52.33 135.93 48.35 135.91 44.36L135.88 40.09C135.82 30.89 135.76 21.37 135.63 12.01C135.61 10.7 135.34 9.45002 135.1 8.33002C135 7.88002 134.9 7.43001 134.83 6.98001L134.58 5.51001L135.44 4.50002L134.52 3.75002L134.56 3.25002L133.97 3.31001L133.45 2.89002C133.33 2.79002 133.21 2.67001 133.07 2.54001C132.55 2.04001 131.84 1.34001 130.77 1.03001C129.47 0.650015 128.19 0.630011 127.06 0.620011H126.88C125.22 0.590011 123.56 0.590018 121.89 0.580018H121.43C119.44 0.570018 117.45 0.56002 115.46 0.52002C113.73 0.49002 112 0.430011 110.27 0.370011L109.53 0.340013C107.1 0.250013 104.59 0.170019 102.11 0.190019C98.6797 0.200019 95.2397 0.280022 91.8797 0.350022C88.2697 0.430022 84.5297 0.510011 80.8497 0.510011C78.3297 0.550011 75.7297 0.470016 73.2197 0.390016L71.3097 0.330018C68.5597 0.250018 65.7097 0.17001 62.8997 0.15001C50.7897 0.0700101 38.0997 0.0300193 24.1297 0.0500193C19.4997 0.0500193 14.5197 0.0900113 9.54968 0.370011C4.18968 0.660011 1.75969 3.10002 1.43969 8.52002C1.40969 9.04002 1.3897 9.56001 1.3797 10.09C1.3197 14.5 1.25969 18.91 1.18969 23.33V23.45C1.03969 33.21 0.889707 43.3 0.829707 53.23C0.719707 71.85 0.649697 90.46 0.569697 109.09C0.519697 122.78 0.459705 136.47 0.389705 150.16C0.369705 154.32 0.30968 158.48 0.23968 162.69C0.15968 167.81 0.079717 173.11 0.089717 178.33C0.089717 184.98 0.359717 191.69 0.589717 197.61C0.729717 201.18 0.949683 204.71 1.17968 208.44L1.1997 208.7C1.2997 210.32 1.39969 211.99 1.49969 213.7L1.54968 214.65L2.21966 215.33C4.42966 217.54 7.36966 217.55 9.71966 217.55H10.2097C15.7397 217.59 21.2697 217.59 26.7997 217.6H27.3497C32.5297 217.6 37.7197 217.61 42.8997 217.64C45.2497 217.65 47.6397 217.72 49.9597 217.78C52.1997 217.84 54.5097 217.91 56.8097 217.92C58.5897 217.93 60.3797 217.89 62.1097 217.85H62.5097C64.2997 217.8 66.1497 217.76 67.9397 217.78C71.3297 217.82 74.7897 217.91 78.1497 217.99C81.0197 218.06 83.8897 218.14 86.7597 218.18H87.0297C91.9797 218.26 97.5897 218.35 103.03 218.28C105.98 218.24 108.92 218.13 111.85 218.03C114.51 217.93 117.26 217.83 119.96 217.79L121.11 217.77C123.68 217.72 126.34 217.67 128.73 218.12C129.61 218.29 130.37 218.37 131.05 218.37C132.47 218.37 133.6 218.02 134.51 217.3C135.72 216.35 136.38 214.85 136.48 212.84C136.81 206.04 136.97 199.91 136.97 194.1C136.97 189.68 136.88 185.2 136.79 180.87H136.78Z" fill="white"/>
<path d="M7.59961 211.74C7.35961 205.12 7.31964 198.78 8.87964 192.54C7.33964 189 9.15963 185.49 8.98963 181.94C8.62963 174.36 8.49961 166.77 8.21961 159.19C8.04961 154.75 7.75965 150.32 7.50965 145.89C7.36965 143.45 8.48962 141.13 7.66962 138.54C7.06962 136.65 7.49964 134.42 7.49964 132.34C7.49964 116.11 7.51961 99.88 7.46961 83.65C7.46961 81.88 7.02961 80.11 6.84961 78.34C6.76961 77.62 6.77965 76.8901 6.82965 76.1701C7.03965 73.0701 7.63964 69.94 7.43964 66.87C6.10964 47.23 7.04961 27.58 6.84961 7.93004C6.84961 7.71004 7.01962 7.50005 7.16962 7.14005C27.8396 7.08005 48.5796 7.21004 69.2996 6.90004C90.1096 6.60004 110.93 8.00004 131.78 6.04004C131.33 11.11 130.58 15.65 130.63 20.17C130.66 23.47 130.54 26.75 130.53 30.04C130.49 51.36 130.58 72.68 130.47 93.99C130.43 100.59 130.59 107.19 130.48 113.79C130.43 117.15 129.92 120.5 129.84 123.86C129.78 126.14 130.2 128.42 130.22 130.71C130.24 133.46 130.08 136.2 129.98 138.95C129.94 140.15 129.74 141.36 129.81 142.55C130.24 149.96 129.62 157.37 129.76 164.78C129.9 172.29 129.79 179.8 129.79 187.31C129.79 194.82 129.79 202.33 129.79 209.84C129.79 210.43 129.72 211.02 129.68 211.59C129.54 211.59 7.91962 211.73 7.60962 211.73L7.59961 211.74Z" fill="white"/>
<path d="M3.97968 213.53C3.64968 207.77 3.27971 202.63 3.07971 197.49C2.82971 191.1 2.58971 184.7 2.57971 178.31C2.57971 168.93 2.8297 159.54 2.8797 150.16C3.0397 117.85 3.1197 85.5399 3.3197 53.2299C3.4097 38.8599 3.67969 24.4899 3.86969 10.1199C3.86969 9.63994 3.88968 9.14994 3.91968 8.66994C4.15968 4.58994 5.47968 3.08995 9.66968 2.85995C14.4797 2.59995 19.2997 2.54995 24.1097 2.54995C37.0297 2.53995 49.9497 2.55994 62.8597 2.64994C68.8597 2.68994 74.8597 3.01994 80.8597 3.00994C87.9397 3.00994 95.0197 2.71995 102.11 2.68995C106.54 2.66995 110.97 2.93995 115.41 3.01995C119.22 3.08995 123.03 3.05994 126.83 3.11994C127.91 3.13994 129.04 3.12994 130.05 3.42994C130.73 3.62994 131.26 4.34995 131.85 4.82995C131.34 5.42995 130.93 6.21994 130.28 6.58994C129.59 6.97994 128.67 7.09995 127.84 7.10995C118.46 7.24995 109.08 7.34995 99.6997 7.46995C95.8597 7.51995 92.0197 7.63995 88.1797 7.62995C80.8597 7.60995 73.5397 7.48994 66.2297 7.47994C61.7997 7.47994 57.3697 7.64995 52.9497 7.68995C45.6197 7.73995 38.2897 7.75995 30.9597 7.76995C24.8597 7.77995 18.7597 7.76995 12.6497 7.76995C11.1297 7.76995 9.5997 7.76995 7.8197 7.76995C7.7397 8.52995 7.59967 9.31995 7.59967 10.1099C7.62967 27.7799 7.62968 45.4399 7.72968 63.1099C7.83968 81.4899 7.98969 99.88 8.23969 118.26C8.53969 140.53 9.0697 162.79 9.2597 185.06C9.3197 191.78 8.55968 198.51 8.22968 205.23C8.13968 207.13 8.21967 209.05 8.21967 211H128.89C128.95 210.53 129.14 209.74 129.15 208.96C129.21 198.11 129.22 187.26 129.3 176.41C129.4 163.3 129.62 150.19 129.66 137.07C129.7 125.08 129.49 113.09 129.54 101.1C129.59 86.96 129.82 72.8199 129.93 58.6799C130.03 45.9099 130.08 33.1399 130.18 20.3699C130.21 17.1199 130.27 13.8699 130.46 10.6299C130.52 9.54995 131.02 8.48994 131.32 7.42994C131.67 7.42994 132.02 7.42994 132.37 7.42994C132.64 8.97994 133.12 10.52 133.14 12.07C133.29 22.85 133.35 33.6199 133.42 44.3999C133.49 55.0699 133.53 65.75 133.62 76.42C133.69 84.19 133.87 91.9699 133.91 99.7399C133.94 106.34 133.79 112.94 133.82 119.55C133.84 125.78 134.02 132.01 134.05 138.23C134.1 148.93 134.05 159.63 134.12 170.33C134.18 178.26 134.47 186.18 134.47 194.11C134.47 200.31 134.28 206.52 133.98 212.72C133.83 215.73 132.19 216.24 129.19 215.67C126.18 215.1 123.01 215.25 119.91 215.29C114.27 215.38 108.63 215.71 102.99 215.78C97.5897 215.85 92.1897 215.77 86.7997 215.68C80.5197 215.58 74.2497 215.35 67.9697 215.28C64.2597 215.23 60.5397 215.44 56.8297 215.41C52.1897 215.38 47.5597 215.15 42.9197 215.12C32.0197 215.06 21.1197 215.1 10.2297 215.03C7.96968 215.02 5.58969 215.14 3.99969 213.54L3.97968 213.53Z" fill="black"/>
<path d="M109.33 152.62C106.57 152.84 104.1 153.15 101.62 153.22C88.9697 153.59 76.3097 153.97 63.6597 154.19C51.4597 154.4 39.2597 154.44 27.0597 154.52C25.8997 154.52 24.2097 154.74 24.3197 153.06C24.3697 152.29 25.7897 151.19 26.7497 150.98C30.7597 150.11 34.7997 149.28 38.8697 148.88C52.2197 147.57 65.5797 146.3 78.9497 145.32C87.3897 144.7 95.8697 144.47 104.34 144.33C109.58 144.24 109.58 144.46 109.33 149.61C109.29 150.33 109.33 151.05 109.33 152.62Z" fill="black"/>
<path d="M96.7697 100.96C95.4497 101.44 94.2997 102.15 93.1097 102.23C85.1497 102.78 77.1897 103.21 69.2197 103.65C60.2997 104.15 51.3697 104.6 42.4497 105.1C38.2397 105.34 34.0097 105.99 29.8697 104.61C28.9397 104.3 28.0597 103.82 27.1597 103.42C27.1797 103.11 27.1997 102.8 27.2097 102.49C30.2497 101.6 33.2497 100.26 36.3497 99.8998C46.0697 98.7598 55.8197 97.9798 65.5697 97.0798C73.0197 96.3898 80.4697 95.7198 87.9097 95.0498C88.1497 95.0298 88.3897 95.0099 88.6297 94.9999C92.603 94.7265 95.3097 96.7165 96.7497 100.97L96.7697 100.96Z" fill="black"/>
<path d="M76.6997 161.96C76.1897 166.38 73.9397 168.08 69.6897 168.03C63.3297 167.96 56.9597 168.36 50.5897 168.59C46.7497 168.73 42.9097 169 39.0697 169.04C37.5297 169.06 35.8897 168.83 34.4697 168.26C33.6997 167.95 32.9697 166.75 32.8597 165.87C32.7797 165.23 33.5997 164.23 34.2797 163.8C35.1697 163.23 36.2897 162.94 37.3497 162.75C48.4097 160.79 59.5297 159.41 70.7997 159.68C73.0597 159.73 75.1197 160.03 76.7197 161.96H76.6997Z" fill="black"/>
<path d="M24.1697 50.0699C24.1697 47.0099 24.0797 43.9499 24.1897 40.8899C24.4597 33.0499 24.7697 25.2099 25.1897 17.3799C25.2497 16.2799 26.0097 15.2199 26.4497 14.1399L27.4697 14.2599C28.8997 19.1499 30.3297 24.0499 31.8697 29.2999C34.6797 25.2999 33.5197 19.6199 38.2097 15.7799C38.3897 17.8999 38.5397 19.1599 38.5897 20.4299C38.8997 29.2399 39.1797 38.0399 39.4797 46.8499C39.5497 49.0499 39.4797 49.1299 36.6497 49.5399V23.6799C33.9497 28.0899 35.0397 33.1699 31.3297 37.3899C30.1597 33.0699 29.1997 29.5599 28.2497 26.0499C27.9497 26.0699 27.6597 26.0899 27.3597 26.1199C27.2097 30.1799 27.2697 34.2599 26.8597 38.2899C26.4597 42.2399 28.0697 46.5999 25.2297 50.1299L24.1697 50.0599V50.0699Z" fill="black"/>
<path d="M51.7897 61.51C52.8197 61.84 53.9497 61.98 54.8097 62.54C55.3797 62.91 55.8697 63.92 55.7997 64.58C55.7297 65.23 54.9997 66.19 54.3897 66.35C50.9497 67.24 47.4897 68.23 43.9797 68.62C38.5497 69.21 33.0597 69.32 27.5997 69.66C26.2897 69.74 24.9497 70.15 23.6797 69.99C22.7597 69.87 21.9297 69.04 21.0697 68.53C21.7597 67.66 22.3497 66.67 23.1697 65.96C23.6597 65.53 24.5197 65.45 25.2297 65.35C30.2797 64.64 35.3397 63.98 40.3897 63.28C43.3597 62.87 46.3297 62.42 49.2897 61.98C50.1097 61.86 50.9197 61.69 51.7997 61.52L51.7897 61.51Z" fill="black"/>
<path d="M98.5497 27.0399C98.5497 28.8899 98.5797 30.7399 98.5497 32.5899C98.4897 35.8399 98.3797 39.0899 98.3197 42.3399C98.2897 44.3699 97.9197 46.1299 94.9597 46.6999C94.7497 44.8799 94.5597 43.2899 94.3097 41.1399C93.7497 42.2099 93.4297 42.9899 92.9497 43.6799C91.8697 45.2299 90.9597 47.0199 89.5397 48.1899C87.3797 49.9799 85.4197 49.1399 84.7497 46.3499C84.4797 45.2199 84.5197 43.9699 84.5997 42.7899C84.8297 39.4399 85.0497 36.0699 85.5097 32.7499C85.6897 31.4699 86.5297 30.2899 87.5497 29.1499C89.2697 34.4799 86.7497 39.9299 88.1797 45.7799C91.1497 42.1499 91.2497 38.1199 92.6997 34.6399C93.4797 32.7599 93.8097 30.6899 94.6997 28.8799C95.1897 27.8799 96.4097 27.2399 97.2997 26.4399C97.7197 26.6399 98.1297 26.8399 98.5497 27.0299V27.0399Z" fill="black"/>
<path d="M55.6597 39.9399C56.2497 44.8999 52.2797 50.4999 48.2197 50.6099C47.1397 50.6399 45.4197 49.6799 45.0597 48.7599C44.1697 46.4699 43.4897 43.9399 43.4697 41.4999C43.4397 38.8899 44.1297 36.2499 44.7597 33.6799C45.1197 32.1999 45.7797 30.6899 46.6797 29.4699C48.3297 27.2499 49.9897 26.8799 51.9797 27.8599C53.8197 28.7699 55.0997 31.1899 54.6697 33.2999C53.9197 36.8999 51.8297 39.3499 47.7197 40.4199C48.0497 42.3899 48.3597 44.2699 48.7197 46.4899C51.8697 44.6899 52.1197 40.8299 55.6697 39.9299L55.6597 39.9399ZM47.7697 38.3099C50.7097 37.4199 52.3198 35.8799 52.3398 34.1899C52.3598 32.6199 51.6497 31.5299 49.4897 31.3399C48.9397 33.5599 48.3997 35.7599 47.7697 38.3199V38.3099Z" fill="black"/>
<path d="M34.7797 179.61C41.6197 178.96 48.3197 178.28 55.0297 177.73C56.6897 177.59 58.4597 177.64 60.0497 178.06C61.0497 178.33 62.2297 179.32 62.5397 180.24C62.7497 180.87 61.7897 182.38 60.9997 182.76C59.2197 183.62 57.2497 184.31 55.2897 184.55C48.9297 185.36 42.5897 185.23 36.3597 183.48C34.4297 182.94 33.3397 181.93 34.7797 179.61Z" fill="black"/>
<path d="M64.7397 28.5699V36.9499C65.0297 37.0399 65.3297 37.1399 65.6197 37.2299C66.2897 35.9399 66.8196 34.5499 67.6596 33.3799C69.3296 31.0599 70.9397 28.6099 73.0097 26.6899C74.8197 25.0099 76.5797 25.8499 76.6097 28.3499C76.6897 34.5699 76.4996 40.7999 76.2896 47.0299C76.2396 48.4099 75.3797 49.4599 73.6097 49.2199V29.2699C71.0197 30.4699 70.3596 32.8999 69.4696 34.9899C68.0496 38.2999 66.9896 41.7599 65.6596 45.1199C65.2796 46.0699 64.4997 46.8699 63.6297 48.1399C62.4097 43.6099 62.9997 31.8399 64.7497 28.5699H64.7397Z" fill="black"/>
<path d="M23.9998 81.3099C25.1598 80.5999 25.8397 79.88 26.6097 79.76C30.6197 79.16 34.3197 77.1999 38.6697 77.9099C41.3997 78.3499 44.3498 77.3899 47.1998 77.0899C48.5798 76.9499 49.8297 77.4399 49.6097 78.9699C49.4897 79.7799 48.4298 81.0199 47.6898 81.0999C40.3098 81.8799 32.9497 83.3399 25.4797 82.0999C25.2597 82.0599 25.0597 81.8799 23.9797 81.2999L23.9998 81.3099Z" fill="black"/>
<path d="M52.0698 118.81C45.4198 120.33 39.4698 119.47 33.5598 119.26C32.5298 119.22 31.5198 118.46 30.4998 118.03C30.4998 117.72 30.4998 117.41 30.5098 117.1C31.4298 116.81 32.3298 116.38 33.2598 116.27C38.1498 115.7 43.0598 115.24 47.9498 114.68C50.5898 114.38 50.4898 116.67 52.0598 118.8L52.0698 118.81Z" fill="black"/>
<path d="M30.2297 134.71C33.6397 132.57 37.3198 131.9 40.9998 131.49C43.6298 131.2 44.0597 131.99 44.1697 136.14C39.8397 136.8 35.4498 136.71 31.0598 136.37C30.7698 136.35 30.5597 135.39 30.2297 134.71Z" fill="black"/>
<path d="M96.0197 19.1199C95.2597 20.1199 94.9497 20.9099 94.3997 21.1399C93.8797 21.3599 92.8197 21.2499 92.5097 20.8699C90.8697 18.8199 89.3296 16.6899 87.9296 14.4799C87.6896 14.0999 88.0896 13.0699 88.4896 12.6099C88.7596 12.2999 89.8596 12.2099 90.0996 12.4699C92.1096 14.5999 94.0197 16.8399 96.0097 19.1099L96.0197 19.1199Z" fill="black"/>
</svg>
