<svg width="228" height="505" viewBox="0 0 228 505" fill="none" xmlns="http://www.w3.org/2000/svg">
<path d="M226.05 121.01C227.5 117.94 227.46 114.2 225.94 109.88C225.36 108.24 224.06 104.55 219.9 103.67C219.72 103.48 219.49 103.28 219.2 103.11C217.75 102.25 217.08 100.74 216.23 98.8302C216.08 98.4902 215.93 98.1502 215.77 97.8102C212.88 91.5502 209.45 85.2102 202.17 82.4302C197.68 80.7102 193.34 79.5002 189.25 78.8202C186.84 78.4202 184.34 78.2702 182.44 79.8502C180.47 81.4802 180.2 84.1002 180.17 85.9202C180.17 86.4202 180.09 86.6002 180.1 86.6002C180.06 86.6302 179.88 86.7502 179.18 86.9302C176.74 87.5502 174.68 88.3002 172.89 89.2302C168.09 91.7202 167.31 94.8902 167.55 99.8802C167.72 103.48 167.2 106.37 166.13 107.8C162.73 112.34 163.84 116.15 165.39 119.97C166.67 123.12 169.34 124.38 171.59 125.33C170 130.89 170.8 133.28 175.42 137.17C175.6 137.32 175.8 137.47 176.01 137.63C176.09 137.69 176.18 137.75 176.26 137.81C177.15 140.81 178.89 143.18 181.44 144.9C178.24 149.55 176.06 154.6 173.95 159.5C172.67 162.46 171.36 165.5 169.84 168.38L164.15 164.94C164 163.85 163.86 162.77 163.73 161.7C163.29 158.24 162.88 154.98 162.02 151.69C161.16 148.39 159.7 143.56 156.97 139.66C152.01 132.57 146.62 125.66 141.41 118.98C140.32 117.58 139.22 116.18 138.13 114.77C137 113.32 135.71 112.07 134.41 110.82C133.91 110.34 133.4 109.85 132.92 109.35C132.15 108.56 131.36 107.8 130.57 107.03C128.93 105.43 127.23 103.78 125.82 102.04C123.91 99.6702 121.78 97.3602 118.58 96.6602V96.6002L121.56 94.9602C121.56 94.9602 121.57 94.9602 121.58 94.9602C122.59 95.5302 123.86 96.2502 125.34 96.0602C128.83 95.6402 132.86 94.7902 136.27 91.7102C137.99 90.1602 140.25 87.7502 140.02 84.7502C139.87 82.7402 138.67 81.1702 137.35 79.9902C141.58 74.4902 144.84 68.3802 147.07 61.7802C147.3 61.1102 147.41 61.1102 147.65 61.1002C150.46 60.9802 152.25 59.3402 152.96 56.2202L153.81 52.4802L149.22 53.3702C149.86 48.1902 150.15 42.3802 148.34 36.5402C144.94 25.5502 137.87 18.7002 127.32 16.1902C125.49 15.7502 123.96 15.4502 122.49 15.2402C116.27 14.3402 110.44 15.2002 105.18 17.8002C103.16 18.8002 101.06 19.7602 99.0302 20.6902L98.2902 21.0302L97.3702 19.4302L101.27 13.6902L93.4801 13.1902L92.6901 11.9002C91.2301 9.50018 89.72 7.02018 88.14 4.52018C87.42 3.39018 86.45 2.47018 85.4 1.93018C82.3 0.34018 79.02 0.140193 75.91 1.35019C74.43 1.58019 73.1501 2.24019 72.2601 3.22019C69.9501 4.50019 67.9902 5.64018 66.0802 6.99018C62.2502 9.68018 58.3601 13.1102 58.4801 18.1602C58.5001 19.0902 58.3102 20.1602 58.1102 21.2902C57.6002 24.1702 56.9802 27.7102 59.5602 30.9502C59.4902 31.7202 59.4002 32.5002 59.3202 33.3002L59.2601 33.8602C57.4301 35.9802 58.3101 38.2602 58.7501 39.3902C58.7601 39.4202 58.7802 39.4602 58.7902 39.4902C58.6902 41.4502 58.5801 43.4102 58.4701 45.3802C58.2001 50.2702 57.9201 55.3302 57.7501 60.3302C57.4101 61.8002 57.37 63.3302 57.64 64.8602V65.4102C57.62 65.7502 57.6102 66.1002 57.6002 66.4402C57.5002 75.1602 57.6401 83.9002 57.7701 90.6002L54.9401 102.17L57.9501 98.4502C57.9501 98.7802 57.9701 99.1202 57.9701 99.4502C58.0201 101.62 58.1001 103.79 58.1901 105.96C57.5501 107.34 57.61 108.83 58.38 110.17C58.56 113.91 58.7701 117.65 58.9801 121.46L59.0302 122.33C59.0902 123.5 59.6402 124.43 60.0502 125.12C60.0702 125.15 60.0902 125.18 60.1002 125.21C57.4702 127.65 54.7001 130.32 51.6701 133.33C43.5001 141.43 35.3202 150.02 27.3502 158.85C23.0202 163.65 18.9401 168.75 14.9901 173.68L14.8402 173.86C13.4602 175.58 12.0801 177.3 10.6901 179.02C8.14007 182.16 5.15021 185.88 2.33021 189.67C-0.519793 193.51 -0.209871 195.99 3.50013 199.15C5.44013 200.8 7.52019 202.53 9.81019 203.96C22.5102 211.86 36.1702 220.33 50.1102 228.78C53.2902 230.71 56.47 232.42 59.88 234.24C59.5 234.37 59.1301 234.49 58.7601 234.61C53.9101 236.23 48.8902 237.9 44.2902 241.4L41.5702 243.47L44.3602 245.43C48.2102 248.14 52.0501 247.72 55.4401 247.35C56.6601 247.22 57.7702 247.08 58.8202 247.11C58.5902 248.49 58.37 249.69 57.9 250.69C56.45 253.85 54.8602 257.04 53.3002 260.17C51.3502 264.08 49.3402 268.12 47.5502 272.21C42.7402 283.19 40 295.04 39.39 307.43C39.15 312.4 39.0402 316.82 39.0702 320.94V321.64C39.1202 327.62 39.1602 333.8 39.5502 339.9C39.8902 345.21 40.4 350.57 40.9 355.79C41.15 358.43 41.41 361.06 41.64 363.7C42.02 368.08 41.2502 372.55 39.3402 377C36.6102 383.36 35.93 389.93 35.63 395.51C35.33 401.05 35.2202 406.68 35.1202 412.12L35.1002 413.26C35.0702 414.76 35.0301 416.26 34.9801 417.83C34.7801 424.52 34.5801 431.44 35.7601 438.34C36.0701 440.13 36.35 441.93 36.63 443.74C37.36 448.34 38.1101 453.09 39.2201 457.73C39.7401 459.91 39.9502 461.6 39.3502 463.33C37.5502 468.54 37.3501 473.34 38.7401 478C39.3801 480.16 40.2301 482.99 42.9701 484.5C42.9101 485.25 42.86 486.02 42.91 486.81L43.0101 488.45C43.1801 491.16 43.3602 493.97 43.8402 496.75C44.5502 500.82 47.6601 503.56 51.9701 503.89C56.5301 504.24 60.3601 504.4 64.0201 504.4C72.5801 504.4 80.07 503.49 86.91 501.62C89.1 501.02 91.3001 499.81 92.9201 498.31C96.4501 495.04 98.5501 490.76 98.9901 485.93C99.1401 484.24 99.4301 483.76 100 483.32C100.81 482.7 101.24 481.9 101.57 481.3C101.64 481.16 101.72 481.03 101.79 480.91C105.13 475.59 104.21 470.13 103.03 466.27C103.12 466.06 103.21 465.85 103.31 465.64C103.73 464.7 104.12 463.8 104.41 462.84C105.27 459.97 105.56 457.03 105.28 454.11C106.76 456.89 109.11 458.48 112.3 458.87C111.89 459.64 111.49 460.4 111.11 461.16C108.7 466.02 108.57 471.18 110.74 475.68C112.91 480.17 117.23 483.6 122.02 484.64C123.21 484.9 124.41 485.12 125.69 485.36C125.29 486.82 124.91 488.22 124.58 489.65C124.08 491.82 124.28 493.49 125.2 494.78C126.1 496.04 127.55 496.76 129.63 496.97L130.46 497.06C133.36 497.36 136.36 497.68 139.39 497.51L139.71 497.49C141.54 497.39 143.59 497.27 145.58 496.71L148.99 496.88C150.42 496.95 151.81 497.01 153.16 497.07H153.33C156.46 497.21 159.42 497.34 162.35 497.59C164.25 497.75 166.54 497.76 168.9 496.9L171.17 497.47C172.98 497.92 174.41 497.82 175.68 497.73C175.95 497.71 176.22 497.69 176.49 497.68C179.05 497.57 181.6 497.48 184.16 497.39C188.48 497.24 192.95 497.08 197.4 496.84C200.26 496.69 202.22 495.99 203.4 494.69C208.34 489.24 211.34 484.23 212.82 478.93C213.19 477.61 213.49 476.28 213.78 474.96C213.96 474.17 214.14 473.38 214.33 472.59C215.64 467.29 213.14 462.64 207.96 460.75C205.4 459.82 202.64 459.2 199.98 458.95C199.47 458.9 199.33 458.84 198.46 458.05L197.5 457.17C195.25 455.1 192.92 452.95 190.14 451.4C186.51 449.37 182.64 447.81 178.89 446.29L177.05 445.54C176.15 445.17 175.25 444.92 174.36 444.71L173.81 443.59C173.39 442.75 172.99 441.98 172.6 441.21C171.84 439.72 171.19 438.44 170.58 437.14C170.24 436.42 169.91 435.6 169.62 434.89C169.01 433.37 168.38 431.8 167.43 430.32C166.02 428.11 164.31 427.44 163.12 427.28C162.35 427.17 161.32 427.2 160.14 427.7C160.14 426.8 160.06 425.83 159.97 424.78C159.77 422.25 159.49 419.71 159.22 417.24C158.76 413.02 158.28 408.65 158.2 404.41C157.97 392.21 157.83 379.15 158.42 366.28L158.49 364.72C159.07 352.07 159.66 338.98 159.33 326.05L159.24 322.76C158.86 308.05 158.46 292.84 157.67 277.88C156.79 261.18 155.02 246.37 152.25 232.6C151.81 230.39 151.23 228.2 150.67 226.09C150.42 225.13 150.16 224.17 149.92 223.21L149.45 221.35H148.9C150.58 218.36 152.07 215.14 153 211.58C154.12 207.29 155.43 202.93 156.71 198.7C156.94 197.92 157.18 197.14 157.41 196.36C157.72 196.59 158.03 196.83 158.34 197.06C161.28 199.26 164.32 201.54 167.49 203.59C170.7 205.66 174.38 207.54 178.41 209.17C180.21 209.89 182.12 209.85 183.81 209.06C185.54 208.24 186.88 206.68 187.48 204.76C189.63 197.89 191.55 191.69 193.21 185.39C193.95 182.57 194.5 179.69 195.03 176.9C195.4 174.94 195.79 172.92 196.24 170.96C196.41 170.23 196.58 169.49 196.75 168.76C197.78 164.39 198.83 159.9 198.88 155.2C202.11 156.22 205.24 156.57 208.56 156.28C214.77 155.75 219.46 152.91 222.91 147.61C225.95 142.92 226.83 137.45 225.66 130.38C225.1 126.96 224.61 124.01 226.02 121L226.05 121.01ZM102.82 445.49C102.43 444.43 102.25 443.37 102.18 442.3C102.29 442.83 102.39 443.37 102.5 443.92C102.6 444.44 102.71 444.96 102.81 445.49H102.82ZM71.5101 218.42L47.5702 193.95C49.5902 195.44 51.6401 196.9 53.7301 198.28C56.6501 200.2 59.1001 200.85 61.4601 200.33C63.9001 199.79 65.9701 198.01 67.9901 194.72C68.3201 194.18 68.6501 193.64 68.9801 193.09C68.9801 193.26 68.9801 193.44 68.9701 193.61C68.7001 202.06 69.5501 210.4 71.5101 218.43V218.42ZM85.9801 100.44C89.7201 100.42 92.5502 98.8902 94.5302 95.8202C94.8802 96.7902 95.1101 97.7502 95.2101 98.6402C91.6501 99.8602 88.7 101.94 85.89 104.09C86.01 102.92 86.0701 101.69 85.9901 100.44H85.9801ZM85.7902 98.7602C85.7902 98.7602 85.7902 98.7902 85.7902 98.8402L85.3702 98.9102L85.2701 98.8702L85.8002 98.7602H85.7902Z" fill="white"/>
<path d="M69.5802 248.89C70.9702 247.93 72.3901 246.18 73.7401 246.23C75.0401 246.28 76.2702 248.2 77.5202 249.3C79.6202 251.15 81.1002 250.81 81.8402 248.06C82.3302 246.25 82.4902 244.32 82.5402 242.43C82.6202 238.99 83.0901 235.45 80.9701 232.44C83.1301 230.63 84.86 228.26 87.13 227.48C90.85 226.2 94.5 223.27 98.89 225.47C99.02 225.54 99.3102 225.28 99.5302 225.18C100.67 225.31 101.82 225.61 102.94 225.53C104.64 225.42 106.32 225.05 108.01 224.79C108.92 224.81 109.84 224.84 110.75 224.86C112.21 226.92 114.77 226.66 116.62 226.84C121.72 227.31 126.67 229.17 131.89 228.53C134.49 228.21 137.14 228.2 139.7 227.7C140.86 227.48 141.83 226.38 142.93 225.73C143.65 225.31 144.43 224.99 145.58 224.43C146.46 228.81 147.29 232.71 148.01 236.62C148.74 240.57 149.37 244.54 150.03 248.5C150.13 249.09 150.15 249.69 150.2 250.28C150.49 253.49 149.52 256.79 150.9 259.91C149.54 262.58 151.02 265.24 151.02 267.91C151.02 276.21 151.14 284.53 151.8 292.8C152.05 295.9 151.26 298.87 151.65 301.91C151.94 304.15 152.18 306.4 152.34 308.65C152.41 309.71 152.19 310.79 152.17 311.87C152.14 313.48 152.16 315.1 152.19 316.71C152.19 317.06 152.46 317.45 152.37 317.75C150.83 322.85 153.19 327.94 152.39 333.04C152.26 333.86 152.1 334.67 151.97 335.48C151.86 336.18 151.58 336.92 151.7 337.58C153.11 345.47 151.76 353.39 151.42 361.22C151.03 370.06 150.11 378.9 150.22 387.78C148.82 390.66 149.8 393.77 149.7 396.71C149.52 401.95 150.16 407.24 150.27 412.52C150.32 414.98 150.89 417.44 151.28 420.36C149.88 420.25 148.77 420.51 148.16 420.07C144.55 417.44 140.45 416.02 136.14 414.98C134.91 415.32 133.6 415.88 132.24 416.02C127.75 416.47 124.92 419.2 122.59 422.69C119.47 427.37 121.54 431.65 123.84 435.74C124.75 437.36 126.51 438.19 128.56 438.67C133.36 439.79 138 439.18 142.69 438.02C141.79 437.97 140.88 437.77 140.01 437.89C136.96 438.31 134.34 437.14 131.91 435.62C128.49 433.48 127.46 429.91 126.94 426.17C126.18 420.68 129.35 419.3 133.88 418.95C137.53 418.66 140.53 420.41 143.63 421.88C146.48 423.23 149.29 424.68 152.11 426.08C152.47 428.2 152.86 430.48 153.32 433.16C154.16 432.59 154.53 432.34 154.91 432.08C158.11 429.9 161.93 430.98 163.13 434.64C164.04 437.4 165.47 440.17 164.49 443.5C162.89 443.79 161.16 444.09 159.44 444.41C159.09 444.47 158.67 444.47 158.41 444.66C154.98 447.19 150.58 448.18 147.66 451.53C146.84 452.47 143.23 456.22 142.95 456.83L143.01 456.76C141.49 457.95 139.53 458.79 139.4 461.13C138.4 462.37 137.41 463.61 136.41 464.85C135.72 465.68 135.02 466.51 134.17 467.53C130.87 467.68 130.86 467.68 129.71 464.36C129.21 462.92 128.85 461.43 128.26 460.03C126.84 456.69 127.78 453.44 128.79 450.33C129.64 447.69 129.95 447.77 128.14 445.96C125.02 442.85 121.78 439.85 119.56 435.96C118.77 434.59 117.69 433.38 116.75 432.1C115.99 429.26 115.23 426.41 114.47 423.57C114.24 423.64 114.02 423.71 113.79 423.78C114.42 426.66 114.66 429.66 116.81 432.05C117.94 437.26 121.48 441.01 124.85 444.77C127.93 448.21 128.18 448.11 126.73 452.15C125.48 455.64 124.91 459.01 126.9 462.41C127.25 463.01 127.46 463.73 127.55 464.42C127.96 467.28 129.74 469.22 132.07 470.53C133.42 471.29 133.5 472.3 133.59 473.5C133.56 474.69 133.51 475.89 133.51 477.08C133.52 478.95 133.06 480.57 131.32 481.59C127.37 481.41 123.57 480.84 120.06 478.75C116.69 476.75 114.97 473.78 114.65 470.1C114.2 464.95 115.45 460.23 119.05 456.28C119.91 455.34 120.48 454.15 121.46 452.64C120.2 452.64 119.33 452.59 118.47 452.65C116.57 452.78 114.64 453.27 112.78 453.06C110.43 452.8 109.25 450.99 108.77 448.75C107.8 444.26 106.87 439.76 105.85 435.27C105.44 433.43 105.14 431.49 104.3 429.85C103.04 427.38 103.58 424.99 104.69 423.01C105.78 421.06 106.08 419.06 106.63 417.03C107.29 414.57 108.22 412.18 109.13 409.8C109.22 409.57 109.98 409.59 110.63 409.46C110.84 410.46 111.03 411.35 111.22 412.24L111.63 412.22C111.63 411.3 111.85 410.32 111.59 409.48C110.48 405.93 111.03 402.48 111.59 398.89C112.51 392.93 114.12 387.11 114.74 381.07C115.15 377.04 115.99 372.96 117.31 368.98C118.82 364.42 119.4 359.55 120.42 354.83C121.86 348.15 122.9 341.34 124.97 334.86C126.08 331.37 126.61 327.81 127.62 324.33C128.64 320.83 128.74 317.03 129.99 313.65C131.78 308.84 132.18 303.72 133.69 298.94C136.15 291.18 137.39 283.13 139.81 275.37C140.85 272.02 140.99 268.38 141.49 264.86C141.79 262.74 141.82 260.58 142.26 258.5C143.46 252.85 142.49 247.06 143.54 241.36C143.97 239.03 143 236.44 142.57 233.2C142.09 234.88 141.55 235.92 141.55 236.96C141.51 241.75 140.25 246.34 139.41 251C138.9 253.81 138.8 256.69 138.61 259.55C138.34 263.46 137.91 267.3 136.63 271.07C135.54 274.29 135.09 277.72 134.2 281.02C133.5 283.63 132.52 286.16 131.77 288.76C129.68 295.99 127.56 303.21 125.6 310.47C123.61 317.85 121.57 325.23 120 332.7C118.64 339.18 116.73 345.47 114.75 351.76C114.71 351.87 114.61 351.99 114.63 352.09C115.53 356.49 112.63 360.01 111.88 364.02C110.64 370.63 109.37 377.23 108.02 383.82C106.77 389.95 106.48 396.26 104.45 402.23C105.17 406.9 102.9 411.07 102.14 415.49C101.5 419.17 100.18 422.77 98.88 426.3C97.79 429.25 96.0403 429.29 94.1103 426.63C89.7103 420.54 83.6702 417.22 76.3202 416.15C72.7702 417.29 68.7102 416.53 65.5502 419.09C61.3902 422.45 56.6702 425.22 53.7902 429.97C52.6202 431.91 51.3001 433.77 50.2401 435.77C48.8001 438.47 50.2102 441.49 53.2702 442.43C54.2702 442.74 55.3901 443.07 56.3901 442.94C60.6101 442.39 64.8202 441.69 69.0202 441.02C74.5602 440.14 80.0701 438.86 85.7201 439.37C93.5501 440.07 98.5701 445.1 99.4401 453.2C99.7501 456.09 99.6702 458.77 99.0402 461.83C98.4302 461.7 97.4902 461.77 97.2702 461.4C93.0602 454.37 85.8801 452.26 78.6901 450.32C74.4401 449.18 70.0502 448.5 65.5902 448.79C61.3402 449.07 57.4601 450.28 54.4101 453.57C54.9901 453.37 55.8003 453.35 56.1103 452.94C57.1703 451.51 58.6402 451.79 60.0702 451.68C61.6002 451.55 63.1 451.14 64.63 451C68.02 450.67 71.2601 451.55 74.4601 452.47C78.0701 453.51 81.6601 454.68 85.1601 456.03C91.2001 458.36 94.9001 462.83 96.4301 469.1C96.8801 470.93 97.3602 472.75 97.8402 474.56C98.3402 476.47 97.0402 477.79 96.0602 479C95.3502 479.87 94.4201 479.29 93.9901 478.11C93.3101 476.26 92.8301 474.4 91.7101 472.61C88.2401 467.12 82.9701 464.5 77.1701 462.67C74.4901 461.83 71.6002 461.2 68.8102 461.24C64.2002 461.32 59.5801 462.04 55.2301 463.63C53.5901 464.23 52.1501 465.72 50.9301 467.09C49.2401 468.98 47.8602 471.15 46.3202 473.18C45.0702 474.83 43.7702 474.7 43.0102 472.83C42.7502 472.19 42.6203 471.45 42.6003 470.75C42.5503 468.69 42.6402 466.63 42.5702 464.57C42.5002 462.52 43.5203 461.5 45.6003 461.02C46.2203 462.02 46.8101 462.98 47.6901 464.4C48.1501 463.41 48.8202 462.64 48.7502 461.95C48.5502 459.97 48.0501 458.02 47.6601 456.06C47.6601 454.47 47.73 452.88 47.63 451.29C47.59 450.68 47.1801 450.09 46.9401 449.49V442.95C46.6801 441.45 46.4201 439.95 46.1601 438.46C46.3601 437.84 46.8501 437.13 46.7001 436.61C45.3901 432.1 47.3102 427.52 46.3102 423.02C47.6502 419.55 46.7402 415.96 46.8302 412.42C48.0902 409.64 47.9201 406.73 47.9101 403.84C47.6601 403.81 47.4201 403.78 47.1701 403.74C46.8601 406.63 46.5602 409.52 46.2502 412.42C45.8102 415.68 45.2001 418.93 44.9801 422.21C44.7001 426.44 45.25 430.71 44.13 434.9C44.01 435.33 44.5201 435.93 44.7401 436.45C44.7401 437.89 44.7401 439.33 44.7401 440.78C44.5001 441.14 44.3001 441.54 43.9901 441.84C43.5601 442.26 43.0402 442.59 42.5602 442.96C42.4502 442.02 42.5501 440.99 42.2001 440.15C41.1901 437.77 41.0502 435.32 41.0802 432.78C41.1102 430.16 40.9202 427.53 40.8302 424.91C40.5102 421.95 39.7802 419 41.0202 416.03C41.3202 415.31 41.0803 414.36 41.1003 413.51C41.1503 410.6 40.6202 407.75 41.0002 404.77C41.6202 399.91 41.5 394.97 41.88 390.07C42 388.46 42.5503 386.84 43.1003 385.3C45.0503 379.77 47.0302 374.24 48.2702 368.5C48.8202 365.97 49.0902 363.33 49.0502 360.75C48.9702 355 49.2001 349.14 48.2201 343.52C46.9701 336.36 47 329.23 46.88 322.05C46.85 320.05 45.9702 317.97 46.2802 316.06C47.0402 311.39 46.4302 306.67 47.0302 302.07C47.8302 295.89 48.8402 289.71 50.0502 283.57C50.8802 279.35 53.2201 275.76 53.6901 271.4C54.0201 268.33 56.2902 265.49 57.5602 262.49C58.6002 260.04 59.4501 257.51 60.4601 254.79H64.8402C65.8702 253.66 66.6702 252.91 67.3202 252.05C67.8702 251.33 68.2701 250.48 68.7301 249.7C69.0001 249.43 69.2702 249.16 69.5402 248.89H69.5802ZM61.5902 270.3C61.3802 270.32 61.1701 270.33 60.9601 270.35C60.4101 272.14 59.7902 273.92 59.3202 275.73C57.9802 280.88 57.2703 286.17 56.1003 291.32C54.7003 297.5 54.32 303.77 53.63 309.98C52.97 315.92 53.4302 321.97 52.8102 327.97C52.1902 334.01 53.4302 340.08 52.7702 346.14C52.7402 346.38 52.7102 346.66 52.8002 346.86C53.3502 348.08 53.2001 349.17 52.9801 350.54C52.6501 352.54 53.3702 354.74 53.8102 356.82C53.8802 357.17 54.8002 357.34 55.8402 357.85C55.6002 355.39 55.5501 353.26 55.1601 351.18C54.5401 347.86 55.7602 344.39 54.2702 341.17C54.2302 341.09 54.3303 340.95 54.3503 340.83C54.5503 339.43 54.8801 338.03 54.9201 336.62C55.0101 333.47 55.0601 330.32 54.9201 327.18C54.7801 324.02 55.5202 320.9 55.0402 317.7C54.7902 316.01 55.68 314.19 55.64 312.43C55.5 306.06 55.9201 299.74 57.1801 293.52C58.3101 287.98 58.5802 282.28 60.5302 276.88C61.2702 274.83 61.2603 272.51 61.6003 270.31L61.5902 270.3Z" fill="#0197D2"/>
<path d="M108.02 224.81C106.33 225.07 104.65 225.44 102.95 225.55C101.82 225.62 100.67 225.33 99.5403 225.2C98.4103 224.03 97.2802 222.87 96.1602 221.72C94.7002 222.96 93.0102 223.66 91.1802 223.42C88.1602 223.02 85.1502 222.48 82.1702 221.82C78.4802 221.01 77.0103 218.15 76.0203 214.84C73.3503 205.95 72.9104 196.85 73.0904 187.66C73.1304 185.36 72.7003 183.06 72.4603 180.51C69.5003 182.34 68.7102 185.21 67.1802 187.54C65.9002 189.5 64.7402 191.53 63.4202 193.46C62.0802 195.41 61.0804 195.67 58.8704 194.38C54.2304 191.66 49.4003 189.25 45.5003 185.38C42.9603 182.86 39.9504 180.81 37.3504 178.34C34.7604 175.88 32.3503 173.22 30.0203 170.51C27.9403 168.09 28.7303 164.59 31.5503 162.84C32.0503 162.53 32.7703 162.4 33.0503 161.97C37.3303 155.44 43.8903 150.96 48.5003 144.7C50.3203 142.22 53.0904 140.45 55.3304 138.25C58.1904 135.45 60.9503 132.55 63.7603 129.69C65.1103 128.25 66.2402 126.41 67.8802 125.47C70.1102 124.2 71.9503 122.47 74.0103 121.03C77.0603 118.88 79.7504 116.22 82.5904 113.77C83.3804 113.25 84.1803 112.74 84.9703 112.21C86.5203 111.19 88.3703 110.42 89.5303 109.07C91.0303 107.34 92.7304 106.56 94.8704 106.39C95.8904 109.4 96.8603 112.43 97.9603 115.42C100.03 121.06 102.18 126.66 104.29 132.28C105.4 135.24 106.4 138.24 107.61 141.15C108.86 144.15 110.32 147.07 111.68 150.02C112.14 153.24 113.2 156.22 115.3 158.76C116.26 160.67 117.03 162.71 118.26 164.43C119.25 165.82 120.68 167.03 122.17 167.89C122.84 168.28 124.5 168.02 125.05 167.43C127.1 165.24 128.43 162.66 127.69 159.47C127.94 159.21 128.18 158.94 128.43 158.68C128.9 158.48 129.69 158.39 129.8 158.07C130.54 155.95 130.9 153.75 130.47 151.49C132.01 149.44 131.25 147.16 131.14 144.94C130.91 143.24 130.68 141.53 130.44 139.83C130.25 138.2 130.09 136.57 129.85 134.95C129.21 130.66 128.49 126.39 127.88 122.1C127.52 119.54 127.3 116.97 127.01 114.4C128.82 114.17 129.81 114.98 131.07 116.4C133.57 119.22 136.49 121.67 138.46 124.95C139.78 127.14 140.71 129.69 142.42 131.5C145.5 134.76 147.75 138.61 150.63 141.96C152.99 144.72 154.29 147.9 155.86 151.03C158.64 156.57 158.62 162.57 158.06 168.42C157.67 172.46 157.05 176.68 155.8 180.48C154.25 185.23 154.11 190.35 151.79 194.88C151.33 195.77 151.54 196.98 151.29 198.01C150.48 201.38 149.78 204.8 148.68 208.07C147.76 210.79 146.31 213.34 145.14 215.98C144.18 218.15 143.44 220.43 141.48 221.98C140.59 222.68 139.7 224.01 138.83 223.99C135.56 223.92 132.38 226.09 129.03 224.27C128.28 223.86 127.13 224.17 126.16 224.2C122.81 224.32 119.59 223.62 116.34 222.93C114.61 222.56 112.74 222.81 110.94 222.77C110.69 222.67 110.28 222.41 110.2 222.48C109.44 223.23 108.74 224.04 108.02 224.83V224.81ZM91.1204 204.43C89.4804 206.89 90.3504 211.97 92.5904 214.65C92.7204 214.13 92.9702 213.67 92.9002 213.27C92.3802 210.47 91.7904 207.69 91.1204 204.43Z" fill="white"/>
<path d="M120.56 90.4702C120.4 90.3002 120.13 89.9702 120.1 89.9902C116.68 92.3302 113.27 90.9902 109.96 89.8302C106.99 88.7902 104.13 87.4202 100.94 86.5202C102.07 87.3202 103.12 88.3102 104.36 88.8902C107.25 90.2502 110.28 91.3202 113.15 92.7102C113.82 93.0302 114.41 94.1102 114.5 94.9102C114.71 96.5802 114.48 98.3002 114.59 99.9902C114.67 101.16 115 102.31 115.22 103.47C114 104.75 114.43 106.29 114.81 107.66C115.11 108.74 116.01 108.26 116.69 107.8C118.6 107.95 118.64 109.51 119 110.84C118.64 112.88 117 112.95 115.5 112.91C114.11 112.87 112.72 112.54 111.35 112.21C108.53 111.52 105.73 110.75 102.92 110.01C102.67 108.11 101.89 106.57 100.06 105.73C99.8002 104.73 99.5402 103.74 99.2802 102.74C99.7502 102.07 100.23 101.39 100.75 100.65C97.9302 96.6502 97.6902 91.2002 93.8302 87.6102C93.4302 89.0202 93.1302 90.1102 92.8202 91.2002C92.6102 88.6502 93.2902 85.8002 90.5002 84.0902C91.9502 83.2702 91.1503 82.3902 90.3603 81.8902C88.5603 80.7602 86.6302 79.8202 84.7502 78.8002C82.6802 77.0402 80.5502 75.3602 78.5702 73.5102C76.1802 71.2702 73.7401 68.9902 73.9601 64.7002C77.5201 65.0702 80.7201 65.4102 84.6601 65.8202C83.2601 65.0302 82.4101 64.6602 81.6901 64.1102C80.8001 63.4302 80.8002 61.8102 81.8202 61.4702C84.1602 60.7002 84.1702 58.9102 83.9902 57.1302C83.4602 51.9402 85.6501 47.5502 88.4401 43.6102C90.8801 40.1702 94.1402 37.3002 97.0502 34.2002C97.2802 33.9602 97.6702 33.7402 97.9902 33.7402C100.11 33.7502 101.45 32.3802 103 31.2102C104.18 30.3202 105.77 29.9902 107.11 29.2902C110.84 27.3302 115.21 28.0702 119.01 26.4202C121.92 25.1502 124.91 26.5902 127.84 26.1702C128.97 26.0102 130.1 25.8502 131.24 25.7002C131.31 27.1102 131.38 28.5202 131.44 29.9102C133.49 30.0202 133.3 28.4902 133.81 27.2302C134.53 27.2702 135.56 27.0202 136.09 27.4202C139.92 30.3302 142.37 34.2102 143.65 38.8402C143.71 39.0602 143.67 39.3202 143.65 39.5602C143.61 39.9102 143.54 40.2502 143.47 40.7402C142.67 40.8802 141.88 41.0102 141.1 41.1402C141.1 41.2502 141.1 41.3502 141.09 41.4602C142.05 41.5902 143.01 41.7202 143.95 41.8502C145.54 44.5002 144.98 47.4202 145.15 50.2502C145.27 52.2502 144.68 53.4902 142.4 53.4502C142.88 54.0102 143.23 54.4302 143.58 54.8402C141.6 54.6602 139.66 54.6102 138.3 56.4702C136.29 56.9602 134.04 57.1102 133.52 59.7702C130.92 61.6302 133.03 64.4402 132.25 66.7002C132.15 66.9902 133.87 68.2502 134.89 68.5002C135.79 68.7202 136.89 68.1802 137.9 67.9702C139.2 69.7302 138.5 71.3602 137.5 72.9002C134.5 77.4902 131 81.6302 126.48 84.8502C125.92 85.2502 125.78 86.2402 125.45 86.9602C123.82 88.1202 122.19 89.2902 120.56 90.4502V90.4702ZM117.15 57.0202C116.78 56.5302 116.5 55.7402 116.02 55.6002C113.67 54.9002 111.27 54.3602 108.88 53.7802C105.84 53.0402 102.86 52.9402 100.08 54.7002C97.9402 54.3502 97.3602 56.1102 96.3202 57.3602C95.4502 58.4202 95.7601 59.2002 96.1901 60.2902C96.7101 61.5802 96.9203 63.0202 97.0903 64.4102C97.3003 66.1302 98.2602 67.2602 99.7702 67.7902C102.19 68.6502 104.65 69.5402 107.16 69.9702C108.58 70.2102 110.17 69.6102 111.66 69.3102C112.23 69.2002 112.75 68.6402 113.28 68.6602C115.96 68.7302 117.34 67.2502 118.1 64.9102C119.46 65.9002 119.75 64.3502 120.33 63.8502C121.74 62.6302 121.4 60.8202 120.82 59.5002C120.22 58.1502 119.38 56.3102 117.14 57.0102L117.15 57.0202ZM116.95 45.3402C116.18 41.2302 113.52 40.1302 108.38 41.6302C112.08 40.9102 114.63 42.7602 116.95 45.3402Z" fill="#9F623E"/>
<path d="M131.25 25.7202C130.12 25.8802 128.98 26.0302 127.85 26.1902C124.91 26.6102 121.93 25.1802 119.02 26.4402C115.22 28.0902 110.85 27.3402 107.12 29.3102C105.78 30.0202 104.19 30.3402 103.01 31.2302C101.47 32.4002 100.13 33.7702 98.0002 33.7602C97.6802 33.7602 97.2902 33.9802 97.0602 34.2202C94.1402 37.3202 90.8901 40.1902 88.4501 43.6302C85.6601 47.5702 83.4702 51.9602 84.0002 57.1502C84.1802 58.9302 84.1702 60.7202 81.8302 61.4902C80.8102 61.8202 80.8101 63.4402 81.7001 64.1302C82.4201 64.6802 83.2701 65.0502 84.6701 65.8402C80.7201 65.4302 77.5301 65.0902 73.9701 64.7202C73.7501 69.0102 76.1902 71.2902 78.5802 73.5302C80.5602 75.3802 82.7002 77.0602 84.7602 78.8202C84.6002 79.8302 84.5601 80.8802 84.2401 81.8502C83.7901 83.2302 84.7202 83.1002 85.5102 83.2202C84.7802 83.4302 84.0502 83.7202 83.3002 83.8502C80.6202 84.2902 78.7601 86.1102 78.1801 88.9302C76.9501 90.5002 77.2102 91.8902 78.5102 93.3502C80.6002 95.7002 83.2601 96.3402 86.2201 96.2802C85.2401 97.2602 82.9302 96.9402 83.3302 99.2602C83.9102 102.66 82.9901 105.96 82.7301 109.31C82.6101 110.76 81.6502 112.27 82.5902 113.77C79.7502 116.21 77.0602 118.88 74.0102 121.03C71.9502 122.48 70.11 124.2 67.88 125.47C66.24 126.41 65.1102 128.25 63.7602 129.69C62.4902 129.14 63.0902 128.11 63.0902 127.21C63.0902 126.57 62.9701 125.94 62.9001 125.3C62.6201 120.34 62.3402 115.39 62.0302 110.43C62.0302 110.29 61.6801 110.17 61.4901 110.04C60.3901 109.02 59.7302 107.91 60.7902 106.47C62.1302 104.39 61.2001 102.07 61.4601 99.8702C61.4601 99.3802 61.4601 98.9002 61.4701 98.4102C61.0001 96.2302 60.5202 94.0502 60.0502 91.8802H60.0402C60.5202 89.9502 61.0001 88.0002 61.4801 86.0602C61.2401 85.3302 61.0102 84.6102 60.7702 83.8802C60.7702 80.4902 60.7702 77.0902 60.7702 73.7002C60.7802 73.2202 60.8002 72.7502 60.8102 72.2702C61.1202 70.5602 61.5202 68.8402 60.8302 67.1302C59.8602 64.4802 59.5502 61.8302 60.7902 59.1702C61.5602 57.7302 61.7901 56.3102 61.1501 54.7002C60.8101 53.8502 60.8802 52.8302 60.7702 51.8902C60.7902 51.4102 60.8002 50.9302 60.8202 50.4502C61.2402 49.0202 63.1302 47.8202 61.5102 46.0602C61.6602 45.0602 61.7601 44.0302 61.9801 43.0402C62.2101 42.0202 62.6402 41.0202 61.5402 40.2302C61.6102 38.5402 59.5902 36.8702 61.5002 35.1602C63.5702 32.0602 62.9903 28.4002 63.6203 25.0002C63.6603 24.8002 63.1901 24.5202 62.9501 24.2702C61.2601 21.0702 63.2901 17.9302 63.1701 14.7302C63.1401 13.9502 64.3401 12.8702 65.2201 12.3502C68.5901 10.3502 71.5503 7.92019 74.1003 4.92019C75.5603 3.20019 79.2602 3.34017 81.2902 5.36017C83.6502 7.71017 85.9901 10.2302 87.6801 13.0702C89.8001 16.6302 92.5102 19.8302 93.8002 23.9602C94.6902 26.8102 97.1301 27.0702 99.9901 25.4402C100.91 24.9202 101.97 24.6402 102.96 24.2602C104.9 23.7702 106.83 23.2802 108.77 22.7902C110.7 22.0902 112.62 21.4002 114.55 20.7002C115.51 20.4402 116.47 20.1802 117.43 19.9202C117.93 20.1602 118.51 20.7002 118.92 20.5902C120.76 20.1102 122.51 19.5702 124.43 20.4702C124.8 20.6402 125.7 19.6702 126.35 19.2202C127.39 19.4502 128.47 19.5702 129.45 19.9502C130.54 20.3702 131.71 20.8502 132.55 21.6202C134.34 23.2602 133.87 24.5802 131.26 25.7002L131.25 25.7202ZM85.4801 38.0802C86.4201 37.0402 87.3702 36.0002 88.3102 34.9502C88.0702 34.7202 87.8302 34.4902 87.5902 34.2702C85.3902 35.2502 84.1702 37.2302 83.2802 39.5302C82.2402 40.4202 81.5501 41.4402 82.2101 43.5002C83.4601 41.4302 84.4701 39.7502 85.4801 38.0802Z" fill="#78423B"/>
<path d="M131.3 481.59C133.04 480.58 133.5 478.95 133.49 477.08C133.49 475.89 133.54 474.69 133.57 473.5C134.51 470.62 135.45 467.74 136.4 464.86C137.4 463.62 138.39 462.38 139.39 461.14C140.54 460.49 141.7 459.84 143 459.1V456.77L142.94 456.84C144.68 455.68 146.43 454.53 148.17 453.37C150.4 451.89 152.49 450.04 154.93 449.08C156.51 448.46 158.6 449.15 160.76 449.27C161.2 447.39 162.84 447.23 164.77 447.28C167.06 447.34 170.8 448.09 172.73 449.11C177.03 451.37 181.28 453.67 185.85 455.44C188.64 456.53 191.02 458.7 193.52 460.47C194.61 461.24 195.07 462.23 194.02 463.52C191.17 466.99 188.45 470.56 185.53 473.96C184.94 474.65 183.68 474.76 182.48 475.23C182.33 473.82 181.71 473.01 183.09 471.89C184.2 470.98 184.52 469.05 185.09 467.53C185.86 465.48 184.34 463.99 183.31 462.75C181.51 460.59 179.63 458.4 176.76 457.33C175.15 456.73 173.81 455.43 172.3 454.53C171.66 454.15 170.88 454 169.88 454.35C171.73 455.46 173.61 456.52 175.42 457.69C176.99 458.7 178.62 459.69 179.98 460.94C183.46 464.12 184.07 468.69 181.23 472.45C179.49 474.75 177.58 477.25 174.21 477.49C173.75 477.52 173.21 477.94 172.88 477.8C169.74 476.44 166.46 477.32 163.25 477.16C160.84 477.04 158.66 476.77 157.29 474.42C156.75 473.49 155.97 472.69 155.3 471.83C155.1 471.97 154.91 472.1 154.71 472.24C154.94 473.51 155.16 474.78 155.47 476.48C148.94 476.15 142.79 475.83 136.64 475.52C136.61 475.74 136.57 475.97 136.54 476.19C137.51 476.5 138.46 477.04 139.44 477.1C145.19 477.42 150.97 477.43 156.7 477.91C166.67 478.74 176.66 478.24 186.62 478.74C190.92 478.96 195.22 479.33 199.53 479.28C201.48 479.26 203.42 478.79 205.31 477.9H186.08C185.44 475.44 186.41 473.71 188.04 472.45C191.37 469.88 193.45 466.4 195.8 462.38C198.44 462.67 201.44 462.71 204.27 463.42C206.64 464.01 208.62 465.52 209.88 467.9C211.37 470.72 209.95 472.87 208.6 475.06C208.24 475.64 207.47 475.96 207.4 476.01C207.77 477.42 208.41 478.44 208.13 479.04C206.68 482.22 205.07 485.33 203.36 488.38C201.67 491.39 199.42 492.83 195.51 492.76C190.5 492.66 185.46 493.96 180.43 494.55C178.9 494.73 177.33 494.58 175.34 494.58C176.1 492.75 176.69 491.35 177.58 489.23C176.11 489.67 175.37 489.84 174.68 490.11C174.14 490.32 173.65 490.64 173.15 490.94C169.77 492.89 166.85 495.55 162.17 494.04C159.33 493.12 155.95 493.87 152.84 493.87C152.58 492.23 153.214 490.07 154.74 487.39C153.98 487.56 153.42 487.54 153.04 487.8C151.2 489.07 149.42 490.43 147.59 491.71C147.13 492.03 146.56 492.34 146.03 492.39C141.27 492.76 136.5 493.07 131.93 493.39C129.99 490.66 130.56 488.02 130.77 485.45C130.88 484.16 131.12 482.89 131.3 481.61V481.59Z" fill="white"/>
<path d="M175.71 113.14C175.94 111.78 176.42 110.4 176.35 109.06C176.13 105.21 177.46 101.96 179.26 98.6401C180.44 96.4701 181.21 94.1101 183.3 92.6101C185.68 90.9201 188.07 89.2201 190.57 87.7301C191.3 87.2901 192.49 87.7101 193.4 87.4801C199.15 86.0101 203.17 88.7401 207.29 92.3401C209.33 94.1201 210.56 96.2701 212.14 98.2601C212.66 98.9101 212.67 99.9701 212.96 101.01C211 101.41 209.51 101.34 207.82 100.73C205.98 100.06 203.87 100.01 201.87 99.9301C201.18 99.9001 200.12 100.43 199.84 101C199.29 102.11 199.85 103.07 201.11 103.47C201.61 104.21 202.1 104.95 202.6 105.69C202.56 106.36 202.52 107.03 202.47 107.67C196.04 108.02 191.52 110.49 187.13 114.52C191.01 113.55 193.93 111.58 197.11 110.24C199.98 109.04 203.01 107.86 206.22 109.36L206.16 109.3C206.41 109.91 206.5 110.73 206.95 111.08C208.31 112.13 208.51 113.52 208.46 115.04C207.09 116.54 205.57 117.93 204.39 119.56C203.23 121.16 201.15 122.52 202.28 125.57C205.19 123.81 207.97 122.28 210.59 120.49C211.78 119.67 212.73 119.03 214.12 120.01C214.17 121.07 214.22 122.14 214.28 123.22C214.45 126.35 213.39 129.64 215.61 132.98C216.45 132.01 217.11 131.24 217.77 130.48C218.04 129.96 218.31 129.44 218.58 128.92C220.31 128.47 221.21 129.65 221.33 130.92C221.92 137.21 221.63 143.35 216.52 148.04C214.66 149.75 212.5 150.92 209.81 150.76C206.94 150.59 203.97 150.93 201.21 150.32C199.02 149.84 196.91 148.48 195.04 147.13C190.09 143.53 186.61 138.65 183.66 133.35C183.34 132.78 182.73 132.37 182.26 131.88C181.25 129.91 180.24 127.95 179.23 125.98C179.41 122.73 177.63 120.14 176.33 117.38C176.27 116.84 176.22 116.3 176.14 115.76C176.01 114.88 175.86 114.01 175.72 113.14H175.71Z" fill="#EFB445"/>
<path d="M69.5802 248.89C69.3102 249.16 69.0402 249.43 68.7702 249.7C67.5402 250.26 66.3202 250.82 64.2702 251.75C64.5502 249.68 64.61 248.43 64.89 247.23C65.66 243.94 65.0401 243.09 61.6501 243.06C59.2501 243.04 56.85 243.06 54.64 243.06C53.83 241.55 54.5102 241.07 55.5002 240.61C58.6002 239.18 61.7303 237.89 65.1103 237.21C66.8803 236.85 68.5602 236.08 70.2902 235.5C70.2902 235.22 70.3002 234.94 70.3102 234.66C66.9002 232.86 63.4902 231.07 60.0902 229.26C56.1302 227.15 52.1801 225.01 48.2301 222.88C43.5701 220.36 38.8502 217.94 34.2802 215.28C30.0802 212.83 26.0501 210.08 21.9201 207.51C18.9201 205.65 15.8303 203.92 12.8603 202.02C10.4003 200.44 8.04008 198.7 5.67008 196.99C4.46008 196.12 4.39026 194.89 5.61026 193.99C9.06026 191.46 10.8002 187.71 12.8202 184.14C12.9902 183.83 13.15 183.49 13.39 183.24C16.98 179.51 20.2602 175.51 23.5802 171.55C24.6902 170.23 26.0401 170.23 27.4301 170.47C29.0401 172.45 30.5501 174.44 32.1901 176.3C33.7501 178.07 35.4501 179.73 37.2101 181.57C35.6701 182.95 34.4702 184.03 33.2902 185.09C48.8102 201.22 64.2101 217.23 79.7101 233.34C78.9001 237.18 81.9902 241.05 79.0902 245.11C77.9302 245.47 76.9101 245.31 75.9401 243.68C74.6701 241.55 72.8401 241.78 71.6601 244.04C70.8501 245.59 70.2702 247.27 69.5902 248.89H69.5802Z" fill="#9F623E"/>
<path d="M46.9402 483.21C47.7202 483.04 48.2803 482.91 49.0703 482.73C48.5903 482.43 48.1402 482.31 47.9502 482.02C46.4202 479.75 46.6703 476.1 48.5003 473.78C49.4703 472.55 50.4502 471.32 51.4802 470.14C52.6602 468.79 55.6904 468.69 57.1104 469.98C59.5204 472.17 62.4002 472.31 65.4002 471.95C66.9202 471.77 68.4402 471.36 69.9502 471.36C73.4202 471.36 76.7804 470.91 80.1204 469.98C83.1304 469.15 86.5904 470.93 88.3604 474.25C89.7204 476.81 91.3303 479.32 91.3403 482.41C91.3403 482.83 91.7802 483.46 92.1702 483.65C93.7602 484.41 93.6802 485.82 93.4202 487.08C93.0002 489.13 92.3402 491.13 91.6702 493.12C90.5202 496.51 87.9903 497.78 84.5203 498.3C79.4503 499.06 74.3903 499.48 69.2903 499.85C65.8503 500.1 62.5402 500.47 59.1702 499.69C57.2502 501.01 55.3302 499.71 53.4102 499.65C50.4102 499.55 48.2502 497.83 47.7002 494.92C47.2402 492.49 47.1202 489.99 46.9402 487.51C46.8402 486.08 46.9202 484.64 46.9202 483.22L46.9402 483.21ZM80.2503 487.86C80.2503 487.74 80.2503 487.62 80.2503 487.5H58.0003C58.0003 487.62 58.0003 487.74 58.0003 487.86H80.2503Z" fill="white"/>
<path d="M169.61 175.46C170.1 175.25 170.86 174.93 171.63 174.6C171.63 174.38 171.63 174.19 171.63 174.01C171.68 173.23 171.51 172.34 171.82 171.68C174.49 165.96 177.25 160.29 180.5 154.85C182.37 151.74 183.83 148.38 185.66 144.75C189.04 146.12 192.37 147.53 195.6 149.97C195.02 151.1 194.48 152.12 193.98 153.16C193.26 154.64 192.07 156.09 191.94 157.63C191.52 162.38 189.33 166.75 189.39 171.61C189.42 174.16 188.49 176.71 188.07 179.28C187.53 182.55 187.14 185.85 186.55 189.12C186.2 191.09 185.65 193.03 185.08 194.95C184.31 197.54 183.44 200.11 182.54 202.92C180.19 203.35 177.99 203.08 175.7 201.43C170.9 197.96 165.85 194.84 160.88 191.59C159.99 191.01 159.06 190.46 158.09 190.04C156.02 189.15 155.57 188.48 156.26 186.61C158.22 181.25 158.7 175.57 160.04 169.74C164.45 169.22 166.2 173.13 169.61 175.45V175.46Z" fill="#9F623E"/>
<path d="M96.1104 433.58C96.4604 435.86 96.7503 437.72 97.0603 439.69C95.2303 440.61 93.6503 439.84 92.0503 438.99C89.7103 437.74 87.1703 436.88 84.5403 437.2C79.2703 437.86 73.9403 438.22 68.7803 439.66C67.6503 439.98 66.4203 439.93 65.2403 440.06C63.2403 440.28 61.2403 440.66 59.2303 440.7C57.8503 440.73 56.3604 440.53 55.0904 440.01C53.7004 439.45 53.2904 437.84 53.8304 436.46C55.3704 432.53 57.6503 428.78 60.7403 426.25C63.7903 423.76 67.0802 420.83 71.4502 420.44C76.2002 420.02 80.7503 420.79 84.8203 423.37C87.5903 425.13 89.5603 427.74 91.2703 430.5C92.4003 432.32 93.6204 433.83 96.1204 433.57L96.1104 433.58Z" fill="#0197D2"/>
<path d="M214.28 123.22C214.23 122.15 214.18 121.07 214.12 120.01C212.73 119.02 211.78 119.67 210.59 120.49C207.98 122.28 205.19 123.82 202.28 125.57C201.15 122.52 203.22 121.16 204.39 119.56C205.58 117.93 207.09 116.53 208.46 115.04C210.22 114.24 210.35 113.1 209.03 111.8C208.13 110.91 207.12 110.13 206.16 109.3L206.22 109.36C205.01 108.14 203.81 106.91 202.6 105.69C202.1 104.95 201.61 104.21 201.11 103.47C201.11 102.68 201.26 102.11 202.27 102.04C205.12 101.83 207.69 102.6 210.08 104.1C211.29 104.86 212.48 105.92 213.81 106.16C216.76 106.7 217.69 108.74 218.46 111.17C219.1 113.17 219.97 115.09 220.67 117.06C221.45 119.26 222.36 121.29 220.34 123.62C219.21 124.92 219.13 127.13 218.58 128.92C218.31 129.44 218.04 129.96 217.77 130.48C215.02 129.92 215.1 129.92 214.9 127.49C214.78 126.07 215.63 124.47 214.28 123.22Z" fill="#9F623E"/>
<path d="M119.01 110.84C118.66 109.51 118.61 107.95 116.7 107.8C116.46 106.43 116.21 105.06 115.97 103.7C119.27 103.16 121.37 105.15 123.31 107.31C125.13 109.34 126.24 111.8 127.01 114.4C127.3 116.97 127.52 119.54 127.88 122.1C128.49 126.39 129.21 130.67 129.85 134.95C130.09 136.57 130.25 138.21 130.44 139.83C129.34 139.83 128.24 139.83 127.14 139.83C127.1 132.13 124.5 124.97 122.37 117.73C121.66 115.31 120.16 113.13 119.02 110.84H119.01Z" fill="#EFB445"/>
<path d="M137.89 67.9901C136.88 68.2001 135.78 68.7401 134.88 68.5201C133.86 68.2701 132.14 67.0101 132.24 66.7201C133.03 64.4501 130.92 61.6501 133.51 59.7901C135.33 59.4701 134.83 62.2501 136.79 62.0301C137.45 61.3301 138.23 60.5001 138.78 59.9301C138.58 58.5301 138.43 57.5101 138.29 56.4901C139.64 54.6301 141.59 54.6901 143.57 54.8601C143.86 58.8701 142 62.3501 140.87 66.0201C140.4 67.5601 139.06 67.6101 137.88 67.9901H137.89Z" fill="white"/>
<path d="M78.8702 467.05V469.46C78.6002 469.62 78.4101 469.83 78.2001 469.84C72.8401 470.11 67.4702 470.34 62.1102 470.61C60.9602 470.67 59.8802 470.58 59.3602 469.4C58.8802 468.28 60.4501 465.79 61.7201 465.53C65.2101 464.8 69.0501 465.02 73.4801 466.09C75.1701 466.5 76.91 466.72 78.88 467.07L78.8702 467.05Z" fill="white"/>
<path d="M120.56 90.4702C122.19 89.3102 123.82 88.1402 125.45 86.9802C127.82 87.0202 129.78 85.9802 131.64 84.6702C132.53 83.9202 133.41 83.1702 134.25 82.4702C135.02 83.3002 135.64 83.9602 136.26 84.6202C136.26 87.9702 134.87 90.1502 132 91.0502C130.01 91.6802 127.84 91.8802 125.97 92.7402C124.03 93.6302 122.72 92.2202 121.11 91.9702C120.86 91.9302 120.74 90.9902 120.56 90.4702Z" fill="#E8AF43"/>
<path d="M175.71 113.14C175.85 114.01 176 114.89 176.13 115.76C176.21 116.3 176.26 116.84 176.32 117.38C176.15 117.74 175.79 118.12 175.83 118.46C175.99 119.68 176.27 120.88 176.57 122.37C172.91 122.19 170.55 120.92 169.1 118.02C167.77 115.38 168.09 113.77 170.73 110.77C171.43 110.52 172.12 110.26 172.82 110.01C174.03 109.99 174.71 110.56 174.97 111.77C175.07 112.26 175.46 112.69 175.72 113.14H175.71Z" fill="#70B359"/>
<path d="M172.11 102.07C172.07 101.59 172.11 101.09 171.98 100.64C170.3 94.5203 174.09 90.4702 180.56 91.5002C180.6 91.6102 180.71 91.7502 180.67 91.8102C178.59 95.7502 177.46 100.21 174.23 103.52L172.1 102.07H172.11Z" fill="#71B45A"/>
<path d="M179.22 125.98C180.23 127.95 181.24 129.91 182.25 131.88C182.49 132.89 182.74 133.9 183.01 135.06C180.96 135.88 179.32 135.59 177.85 134.05C176.01 132.12 175.02 129.91 175.8 127.27C176.31 125.56 177.97 126.17 179.21 125.98H179.22Z" fill="#71B45A"/>
<path d="M194.1 84.5703C190.51 86.0503 187.52 87.2903 184.4 88.5803C183.6 87.2303 182.23 86.1903 183.28 84.9503C184.35 83.6703 184.92 81.4603 187.24 81.7203C189.1 81.9303 190.98 82.1903 192.78 82.6903C193.34 82.8503 193.65 83.8903 194.1 84.5703Z" fill="#71B45A"/>
<path d="M42.5803 442.97C43.0603 442.6 43.5803 442.27 44.0103 441.85C44.3203 441.56 44.5103 441.15 44.7603 440.79C44.7503 442.26 45.4702 442.99 46.9402 442.97V449.51C46.4502 451.48 45.1401 450.22 44.1501 450.22C43.6201 448.54 43.0903 446.85 42.5703 445.17C42.5703 444.43 42.5703 443.7 42.5803 442.96V442.97Z" fill="#018DC4"/>
<path d="M42.5803 442.97C42.5803 443.71 42.5803 444.44 42.5703 445.18C42.1103 444.67 41.3302 444.21 41.2302 443.63C40.6302 440.19 40.1602 436.73 39.7102 433.26C39.3302 430.38 40.3204 427.68 40.8604 424.92C40.9504 427.54 41.1404 430.17 41.1104 432.79C41.0804 435.32 41.2202 437.77 42.2302 440.16C42.5802 441 42.4903 442.03 42.5903 442.97H42.5803Z" fill="#018AC0"/>
<path d="M172.11 102.07C172.82 102.55 173.53 103.04 174.24 103.52C173.76 105.69 173.29 107.85 172.81 110.02C172.11 110.27 171.42 110.53 170.72 110.78C170.68 109.12 170.65 107.46 170.61 105.8C170.58 104.34 170.87 103.02 172.1 102.07H172.11Z" fill="#5C9349"/>
<path d="M44.1501 450.23C45.1401 450.23 46.4502 451.49 46.9402 449.52C47.1802 450.12 47.5901 450.71 47.6301 451.32C47.7301 452.9 47.6602 454.5 47.6602 456.09C45.8202 455.79 44.8003 454.87 44.8403 452.84C44.8603 451.98 44.3901 451.11 44.1501 450.24V450.23Z" fill="#017EAF"/>
<path d="M184.29 137.64V140.38C183.22 140.45 182.21 140.51 180.95 140.59C180.88 139.64 180.83 138.87 180.76 137.86C181.91 137.79 182.92 137.73 184.29 137.64Z" fill="#71B45A"/>
<path d="M136.25 84.6102C135.63 83.9502 135.02 83.2903 134.24 82.4603C133.4 83.1703 132.51 83.9203 131.63 84.6603C131.7 82.3503 132.31 81.2903 133.67 81.1003C135.09 80.9003 135.95 82.0702 136.24 84.6102H136.25Z" fill="#C09137"/>
<path d="M115.97 103.69C116.21 105.06 116.46 106.43 116.7 107.79C116.02 108.25 115.12 108.73 114.82 107.65C114.44 106.28 114.01 104.75 115.23 103.46C115.47 103.53 115.72 103.61 115.96 103.68L115.97 103.69Z" fill="#F9F9F9"/>
<path d="M108.76 22.8002C106.82 23.2902 104.89 23.7802 102.95 24.2702C103.05 24.0602 103.09 23.7102 103.25 23.6402C105.49 22.6802 107.68 21.5702 110.19 21.4602C109.71 21.9102 109.24 22.3602 108.76 22.8002Z" fill="#985C3D"/>
<path d="M108.76 22.8003C109.24 22.3503 109.71 21.9003 110.19 21.4603C111.49 20.3103 113.03 20.6103 114.54 20.7103C112.61 21.4103 110.69 22.1003 108.76 22.8003Z" fill="#91573D"/>
<path d="M108.02 224.81C108.74 224.02 109.44 223.21 110.2 222.46C110.28 222.38 110.69 222.64 110.94 222.75C110.88 223.46 110.82 224.17 110.76 224.88C109.85 224.86 108.93 224.83 108.02 224.81Z" fill="#878787"/>
<path d="M46.8303 412.45C46.7303 415.99 47.6503 419.57 46.3103 423.05C47.3103 427.55 45.4002 432.13 46.7002 436.64C46.8502 437.16 46.3501 437.87 46.1601 438.49C45.6901 437.82 45.2202 437.15 44.7502 436.48C44.5302 435.96 44.0201 435.36 44.1401 434.93C45.2601 430.74 44.7102 426.47 44.9902 422.24C45.2102 418.96 45.8202 415.72 46.2602 412.45H46.5503H46.8403H46.8303Z" fill="#01090D"/>
<path d="M46.8303 412.45H46.5403H46.2502C46.5602 409.56 46.8602 406.67 47.1702 403.77C47.4202 403.8 47.6602 403.83 47.9102 403.87C47.9202 406.76 48.0903 409.67 46.8303 412.45Z" fill="#010C10"/>
<path d="M44.7502 436.47C45.2202 437.14 45.6902 437.81 46.1602 438.48C46.4202 439.98 46.6802 441.48 46.9402 442.97C45.4702 442.98 44.7503 442.25 44.7603 440.79C44.7603 439.35 44.7603 437.91 44.7603 436.46L44.7502 436.47Z" fill="#018AC0"/>
<path d="M94.8704 106.39C95.4304 103.2 95.7603 102.92 99.2903 102.74C99.5503 103.74 99.8103 104.73 100.07 105.73C100.09 107.52 99.2802 109.53 101.41 110.75C103.02 115.87 104.63 121 106.26 126.12C106.72 127.57 107.2 129.02 107.71 130.46C109.56 135.67 111.45 140.86 113.27 146.08C113.61 147.07 113.7 148.15 113.91 149.19C113.17 149.47 112.42 149.74 111.68 150.02C110.31 147.07 108.86 144.15 107.61 141.15C106.4 138.24 105.4 135.24 104.29 132.28C102.18 126.66 100.03 121.05 97.9602 115.42C96.8602 112.44 95.9004 109.4 94.8704 106.39Z" fill="#EFB445"/>
<path d="M127.68 159.48C128.42 162.67 127.09 165.25 125.04 167.44C124.49 168.02 122.84 168.29 122.16 167.9C120.68 167.03 119.25 165.83 118.25 164.44C117.02 162.72 116.26 160.67 115.29 158.77C115.01 156.99 115.82 156.32 117.53 156.55C118.17 157.36 118.98 158.08 119.4 158.98C120.18 160.7 121.36 161.75 123.21 162.14C123.83 161.46 124.39 160.84 124.94 160.23C125.85 159.98 126.76 159.73 127.67 159.48H127.68Z" fill="#EFB445"/>
<path d="M127.68 159.48C126.77 159.73 125.86 159.98 124.95 160.23C125 159.54 124.8 158.66 125.14 158.18C127.68 154.63 126.98 150.49 127.33 146.57C127.53 144.35 127.21 142.08 127.13 139.83C128.23 139.83 129.33 139.83 130.43 139.83C130.66 141.53 130.89 143.24 131.13 144.94C130.7 147.12 130.26 149.29 129.83 151.47C129.36 153.87 128.89 156.28 128.42 158.68C128.17 158.94 127.93 159.21 127.68 159.47V159.48Z" fill="#ECBA5B"/>
<path d="M117.54 156.54C115.83 156.3 115.02 156.98 115.3 158.76C113.2 156.22 112.14 153.24 111.68 150.02C112.42 149.74 113.17 149.47 113.91 149.19C116.26 151.08 116.47 154.02 117.54 156.54Z" fill="#F1BF60"/>
<path d="M130.46 151.49C130.25 151.49 130.04 151.48 129.83 151.47C130.26 149.29 130.7 147.12 131.13 144.94C131.24 147.16 132 149.44 130.46 151.49Z" fill="#282216"/>
<path d="M117.54 156.54C116.47 154.02 116.26 151.08 113.91 149.19C113.7 148.15 113.62 147.07 113.27 146.08C111.45 140.86 109.56 135.67 107.71 130.46C107.2 129.02 106.72 127.57 106.26 126.12C104.64 121 103.03 115.88 101.41 110.75C101.92 110.5 102.42 110.25 102.93 110.01C105.74 110.75 108.54 111.52 111.36 112.21C112.72 112.54 114.12 112.87 115.51 112.91C117.01 112.95 118.65 112.88 119.01 110.84C120.15 113.13 121.65 115.31 122.36 117.73C124.48 124.97 127.09 132.13 127.13 139.83C127.21 142.08 127.53 144.35 127.33 146.57C126.98 150.49 127.68 154.63 125.14 158.18C124.79 158.66 125 159.54 124.95 160.23C124.39 160.84 123.84 161.46 123.22 162.14C121.37 161.75 120.19 160.7 119.41 158.98C119 158.07 118.18 157.35 117.54 156.55V156.54Z" fill="white"/>
<path d="M118.12 64.9101C117.36 67.2501 115.98 68.7301 113.3 68.6601C112.77 68.6501 112.24 69.2001 111.68 69.3101C110.18 69.6101 108.6 70.2101 107.18 69.9701C104.66 69.5401 102.21 68.6501 99.7903 67.7901C98.2803 67.2601 97.3204 66.1301 97.1104 64.4101C96.9404 63.0101 96.7303 61.5801 96.2103 60.2901C95.7703 59.2001 95.4604 58.4201 96.3404 57.3601C97.3804 56.1001 97.9604 54.3501 100.1 54.7001C101.02 54.7901 101.95 54.8801 103.48 55.0201C102.41 56.7201 101.59 58.0401 100.77 59.3401C100.93 59.5701 101.06 59.7601 101.2 59.9501C102.26 61.4201 103.89 62.0001 105.24 61.0201C106.38 60.1901 107.59 58.8001 106.65 56.8901C106.39 56.3701 106.7 55.5801 106.79 54.3701C110.36 55.3001 113.58 56.1401 116.81 56.9801C118.74 58.5301 119.66 60.3201 118.4 62.7901C118.09 63.3901 118.22 64.2001 118.14 64.9201L118.12 64.9101Z" fill="white"/>
<path d="M92.8303 91.2102C92.4003 94.6202 90.0003 95.4202 87.0903 95.5702C84.3303 95.7302 81.9402 94.9602 79.7102 92.8202C81.4302 92.9902 82.7901 93.1302 84.1401 93.2702C84.6501 93.5102 85.2901 94.0802 85.6501 93.9402C86.6001 93.5702 87.5803 93.0402 88.2903 92.3102C89.2903 91.2902 89.3903 90.0502 88.6003 88.7202C87.5203 86.9202 85.9603 86.4802 84.0403 86.7802C83.5503 87.0102 83.0603 87.2502 82.5703 87.4802C81.8503 87.9702 81.1301 88.4602 80.4001 88.9502C79.7201 89.7402 79.0502 90.5402 78.1802 91.5602V88.9002C78.7602 86.0702 80.6203 84.2602 83.3003 83.8202C84.0503 83.7002 84.7703 83.4102 85.5103 83.1902C87.1803 83.4902 88.8403 83.7902 90.5103 84.0902C93.3003 85.8002 92.6203 88.6502 92.8303 91.2002V91.2102Z" fill="#E9B043"/>
<path d="M138.3 56.4902C138.45 57.5102 138.59 58.5302 138.79 59.9302C138.25 60.5002 137.46 61.3402 136.8 62.0302C134.84 62.2402 135.33 59.4703 133.52 59.7903C134.03 57.1303 136.28 56.9802 138.3 56.4902Z" fill="#0C0805"/>
<path d="M102.94 110.01C102.43 110.26 101.93 110.51 101.42 110.75C99.2801 109.53 100.1 107.52 100.08 105.73C101.91 106.57 102.7 108.11 102.94 110.01Z" fill="#1A1A1A"/>
<path d="M84.1501 93.2802C82.7901 93.1402 81.4401 93.0002 79.7201 92.8302C81.9501 94.9702 84.3403 95.7402 87.1003 95.5802C86.8103 95.8102 86.5201 96.0502 86.2301 96.2802C83.2701 96.3302 80.6102 95.7002 78.5202 93.3502C77.2202 91.8902 76.9701 90.5002 78.1901 88.9302V91.5902C79.0601 90.5702 79.7301 89.7802 80.4101 88.9802C80.4501 90.8202 81.4169 92.0202 83.3102 92.5802C83.5302 92.6402 83.7501 92.6702 83.9701 92.6702C84.0401 92.8702 84.1001 93.0802 84.1501 93.2802Z" fill="#D7A040"/>
<path d="M83.2903 39.5303C84.1803 37.2203 85.3903 35.2403 87.6003 34.2703C87.8403 34.5003 88.0803 34.7303 88.3203 34.9503C87.3803 35.9903 86.4302 37.0303 85.4902 38.0803C84.7602 38.5603 84.0303 39.0503 83.3003 39.5403L83.2903 39.5303Z" fill="#9D603E"/>
<path d="M83.2903 39.5303C84.0203 39.0403 84.7502 38.5603 85.4802 38.0703C84.4702 39.7403 83.4602 41.4203 82.2102 43.4903C81.5502 41.4303 82.2403 40.4203 83.2803 39.5203L83.2903 39.5303Z" fill="#91563D"/>
<path d="M83.3003 92.5703C81.407 92.0036 80.4401 90.8036 80.4001 88.9702C81.1201 88.4802 81.8403 87.9902 82.5703 87.5002C82.8103 89.1902 83.0603 90.8802 83.3003 92.5802V92.5703Z" fill="#78423B"/>
<path d="M83.3003 92.5703C83.0603 90.8803 82.8103 89.1903 82.5703 87.4903C83.0603 87.2603 83.5503 87.0203 84.0403 86.7903C84.0103 88.7503 83.9902 90.7003 83.9602 92.6603C83.7302 92.6603 83.5103 92.6303 83.3003 92.5703Z" fill="#764339"/>
<path d="M196.2 151.35C197.05 157.91 195.27 164.13 193.84 170.41C192.75 175.18 192.07 180.04 190.83 184.76C189.13 191.23 187.14 197.63 185.14 204.02C184.36 206.49 181.89 207.87 179.39 206.86C175.76 205.39 172.18 203.62 168.89 201.5C164.46 198.65 160.33 195.34 156.07 192.24C154.21 198.57 152.24 204.72 150.62 210.96C149.16 216.56 146.17 221.34 143.09 226.08C142.4 227.14 140.9 228.06 139.63 228.31C133.66 229.46 127.63 229.43 121.66 228.28C117.77 227.53 113.96 226.34 110.05 225.71C107.83 225.35 105.49 225.73 103.2 225.77C101.05 225.8 98.8202 226.9 96.8002 225.12C96.5102 224.86 95.6503 225.16 95.0803 225.3C91.5503 226.16 88.1301 227.19 85.4301 229.88C84.3401 230.97 82.9601 231.75 82.1301 232.37C82.5101 234.65 83.1101 236.75 83.1401 238.85C83.1801 241.85 83.0802 244.91 82.5402 247.85C81.9202 251.22 79.7702 251.85 76.9902 249.75C75.8502 248.89 74.8902 247.8 73.5202 246.51C71.3402 248.74 69.1502 250.92 67.0502 253.17C66.7402 253.5 66.8902 254.24 66.7802 254.77C66.2202 257.46 65.7702 260.18 65.0502 262.82C63.2202 269.55 60.9201 276.17 59.4501 282.97C58.0201 289.54 57.0002 296.26 56.4902 302.97C55.7702 312.45 55.5301 321.98 55.4001 331.49C55.3001 338.75 55.5801 346.02 55.8901 353.27C56.0201 356.24 56.5703 359.21 57.0903 362.15C57.4303 364.06 57.6301 365.66 55.4201 366.72C54.6301 367.1 53.8902 368.27 53.7302 369.18C52.6502 375.35 51.6502 381.53 50.7802 387.73C49.7302 395.24 48.8201 402.78 47.8901 410.31C47.7301 411.62 47.7501 412.96 47.7101 414.29C47.4701 423.92 46.9401 433.56 47.1301 443.18C47.2501 449.29 48.3701 455.38 49.2001 461.46C49.4401 463.21 49.0501 464.23 47.2201 464.89C46.5201 463.75 45.8601 462.66 45.1801 461.56C42.0101 464.61 41.9303 469.48 44.8303 475.07C46.3503 472.84 47.9401 470.59 49.4401 468.28C51.9801 464.34 56.0202 462.74 60.2402 461.87C66.8602 460.51 73.4602 460.48 79.9802 463C87.2802 465.82 93.0503 469.85 94.3703 478.22C94.4203 478.52 94.8002 478.76 95.0202 479.02C95.2802 478.91 95.5801 478.89 95.6901 478.73C96.3201 477.85 96.9001 476.94 97.4601 476.09C96.8901 473.82 96.3002 471.62 95.8002 469.4C94.5302 463.71 91.2302 459.65 86.0402 457.1C78.5902 453.45 70.8201 451.23 62.4001 451.72C59.2301 451.9 56.6401 453.19 54.1801 455C53.4101 455.56 52.5202 455.95 51.5002 456.14C52.4002 453.47 54.2802 451.56 56.5602 450.75C60.0102 449.52 63.7303 448.4 67.3403 448.39C75.3603 448.36 83.2001 449.98 90.2101 454.1C93.1701 455.84 95.6802 458.33 98.5702 460.62C98.7002 460.22 99.1901 459.41 99.2101 458.59C99.5101 446.67 93.8502 438.12 79.3002 439.93C72.0002 440.84 64.7502 442.14 57.4802 443.26C57.0002 443.33 56.5102 443.28 56.0302 443.34C50.6702 444 47.7702 440.18 50.0402 435.18C52.9402 428.82 57.5101 424.15 63.1601 420.14C69.0201 415.97 75.2001 415.15 81.9001 416.9C87.0101 418.24 90.8703 421.48 94.0903 425.54C94.7603 426.39 95.4003 427.27 96.0903 428.18C98.2503 427.56 98.7502 425.69 99.2802 424.03C102.1 415.15 103.91 406.04 105.1 396.81C105.27 395.52 105.78 394.27 106 392.99C107.15 386.24 108.39 379.53 109.87 372.82C112.47 361.05 115.22 349.34 118.62 337.78C119.74 333.97 120.25 329.99 121.27 326.14C123.67 317.07 126.24 308.05 128.68 298.99C131.03 290.25 133.48 281.54 135.55 272.73C136.81 267.35 137.47 261.82 138.32 256.35C139.43 249.2 140.43 242.04 141.54 234.9C141.69 233.96 142.21 233.08 142.55 232.16C142.91 232.22 143.26 232.28 143.62 232.34C143.62 236.11 143.77 239.89 143.59 243.66C143.29 250.03 143.19 256.46 142.26 262.75C141.07 270.83 139.33 278.84 137.47 286.8C134.86 297.98 131.88 309.08 129.12 320.23C128.25 323.73 127.89 327.38 126.77 330.78C123.88 339.53 122.19 348.58 120.19 357.53C118.47 365.22 115.93 372.76 115.21 380.71C114.81 385.1 113.59 389.42 112.65 393.75C111.12 400.86 111.24 407.84 112.83 415.01C114.62 423.09 116.49 431.02 121.69 437.69C123.68 440.25 125.83 442.72 128.15 444.98C130.83 447.59 130.94 447.47 129.14 450.8C126.73 455.25 128.88 464.12 133.21 467.52C135.08 464.9 136.73 462.08 138.88 459.72C142.21 456.07 145.71 452.53 149.45 449.32C153.02 446.26 157.38 444.59 162.04 443.73C164.65 443.25 164.95 442.71 164.23 440.38C163.77 438.89 163.38 437.33 162.68 435.95C161.81 434.26 160.65 432.72 159.55 431.02C161.57 429.22 163.74 429.18 165.32 431.66C166.6 433.66 167.29 436.03 168.31 438.2C169.24 440.18 170.26 442.11 171.57 444.7C171.5 444.85 171.05 445.77 170.72 446.45C172.5 446.9 174.39 447.14 176.09 447.84C180.42 449.61 184.83 451.29 188.9 453.56C191.79 455.18 194.26 457.61 196.75 459.87C197.67 460.71 198.33 461.29 199.72 461.42C202.21 461.65 204.72 462.23 207.07 463.08C211.11 464.55 212.84 468.04 211.87 471.97C211.36 474.06 210.95 476.17 210.38 478.24C208.78 483.96 205.42 488.69 201.51 492.99C200.64 493.95 198.71 494.25 197.23 494.32C190.27 494.69 183.31 494.86 176.35 495.15C174.95 495.21 173.55 495.46 171.74 495.01C173.32 493.69 174.9 492.37 176.92 490.69C173.85 489.88 172.29 491.68 170.94 492.81C168.36 494.96 165.66 495.34 162.53 495.07C158.23 494.71 153.9 494.6 149.09 494.35C149.87 493.02 150.58 491.84 151.5 490.27C150.66 490.6 149.9 490.65 149.61 491.04C146.99 494.63 143.01 494.76 139.22 494.97C136.12 495.15 132.97 494.76 129.86 494.44C127.14 494.16 126.35 492.91 126.98 490.17C127.49 487.96 128.13 485.78 128.78 483.36C126.45 482.91 124.47 482.57 122.51 482.15C115.17 480.57 108.45 472.05 113.31 462.23C114.26 460.31 115.32 458.45 116.56 456.13C115.28 456.26 114.49 456.42 113.71 456.42C110.09 456.38 107.79 454.76 106.63 450.83C105.61 447.37 105.04 443.79 104.28 440.25C104.05 439.2 103.86 438.14 103.68 437.25H99.8603C100.18 435.42 100.49 433.59 100.88 431.36C98.3201 433.26 99.1001 435.23 99.9301 437.19C99.5201 440.6 99.2502 443.85 100.82 447.25C102.98 451.92 103.5 456.99 101.98 462.07C101.61 463.3 101.01 464.46 100.34 466.09C101.74 470.31 102.48 475.01 99.6401 479.53C99.2601 480.13 98.9801 480.88 98.4501 481.29C96.9601 482.42 96.6301 483.87 96.4601 485.66C96.0801 489.87 94.2701 493.57 91.1801 496.43C89.8301 497.68 87.9901 498.68 86.2101 499.17C75.0201 502.24 63.5801 502.24 52.1301 501.36C49.1301 501.13 46.8102 499.38 46.2802 496.28C45.7302 493.1 45.5901 489.84 45.3801 486.61C45.3001 485.42 45.5003 484.21 45.5903 482.8C42.5603 482.11 41.8503 479.71 41.1103 477.23C39.7803 472.77 40.1901 468.42 41.6901 464.09C42.5001 461.76 42.2301 459.57 41.6301 457.08C40.1201 450.76 39.2901 444.28 38.2001 437.86C36.8101 429.69 37.4203 421.46 37.5803 413.25C37.6903 407.36 37.7903 401.47 38.1103 395.59C38.4403 389.55 39.2003 383.57 41.6203 377.93C43.6103 373.3 44.5603 368.47 44.1203 363.42C43.4303 355.51 42.5402 347.61 42.0302 339.68C41.6302 333.43 41.6002 327.14 41.5602 320.87C41.5302 316.42 41.6601 311.95 41.8801 307.5C42.4601 295.58 45.0503 284.08 49.8303 273.16C53.0103 265.89 56.8401 258.9 60.1601 251.69C61.0901 249.68 61.2102 247.29 61.7302 244.97C56.4902 243.43 51.0202 247.03 45.7902 243.34C52.0102 238.6 59.2501 237.41 65.9401 234.62C60.9901 231.9 56.0701 229.43 51.3901 226.58C37.9101 218.4 24.5003 210.1 11.1103 201.77C8.98028 200.44 7.02027 198.82 5.10027 197.18C2.40027 194.88 2.24024 193.89 4.32024 191.09C6.99024 187.5 9.78028 184 12.6103 180.52C18.0903 173.79 23.3801 166.89 29.1901 160.45C37.0301 151.76 45.1101 143.27 53.4201 135.03C60.0001 128.51 66.7902 122.12 74.0602 116.41C77.3402 113.83 77.8603 111.39 77.3603 107.87C77.0203 105.48 76.7503 103.04 76.8503 100.64C76.9203 98.9502 77.6502 97.2901 78.2802 94.8701C75.3402 87.6301 75.8101 86.3601 83.9101 82.1501C80.8601 79.5701 77.9003 77.0601 74.3703 74.0701C73.9103 87.5601 73.4702 100.45 73.0302 113.35C72.7202 113.38 72.4103 113.4 72.1003 113.43C71.9803 112.63 71.7602 111.84 71.7602 111.04C71.9002 98.3501 72.1001 85.6601 72.1901 72.9701C72.2001 71.3501 71.7402 69.6901 71.2802 68.1101C69.9702 63.6401 72.1801 61.1801 76.6901 62.1601C78.0301 62.4501 79.4002 62.6401 80.7502 62.8801C80.8602 62.6601 80.9803 62.4501 81.0903 62.2301C80.2403 61.1101 79.3902 59.9901 78.2602 58.5101C78.0902 57.1601 77.8403 55.1201 77.5803 53.0901C77.3203 53.0601 77.0702 53.0301 76.8102 52.9901C76.5302 53.5201 76.1002 54.0201 76.0102 54.5701C75.8602 55.5101 76.1303 56.5601 75.8503 57.4401C75.4203 58.8101 74.7601 60.3801 72.8901 59.9301C71.2901 59.5501 71.6802 58.0701 71.7702 56.8901C72.2802 50.7701 72.7703 44.6501 73.3403 38.5301C73.5903 35.9001 72.3901 34.4601 69.4101 33.6901C69.1901 36.5601 68.8402 39.3401 68.8002 42.1301C68.6302 53.9801 68.5001 65.8302 68.4701 77.6702C68.4401 88.0602 68.7502 98.4501 68.4902 108.83C68.4202 111.53 69.6702 114.62 67.2302 117.45C66.9102 116.59 66.4902 115.99 66.4802 115.38C66.4102 110.7 66.4101 106.01 66.4001 101.33C66.4001 97.4801 66.4401 93.6401 66.4001 89.7901C66.2801 77.9401 65.9402 66.1001 66.0502 54.2501C66.1102 47.7401 66.8603 41.2401 67.3603 34.7401C67.5103 32.7801 67.2502 31.1601 64.7902 30.4501C62.6002 61.7601 63.2303 93.0001 63.6203 124.23L62.6103 124.52C62.2303 123.71 61.5602 122.92 61.5202 122.1C61.1002 114.5 60.6501 106.9 60.4701 99.3001C60.2101 88.3301 59.9703 77.3501 60.1003 66.3801C60.2103 57.3501 60.8302 48.3201 61.3002 39.2901C61.4502 36.4001 61.8203 33.5301 62.0903 30.6501C62.1103 30.4101 62.2003 30.0601 62.0903 29.9401C58.4803 26.3101 61.0802 21.9201 60.9802 18.0101C60.8802 14.0301 64.3202 11.2001 67.5202 8.95015C70.0702 7.16015 72.8503 5.66014 75.5903 4.16014C78.4203 2.61014 81.3802 2.59014 84.2602 4.07014C84.9602 4.43014 85.6002 5.09012 86.0302 5.77012C88.1402 9.11012 90.1802 12.5001 92.0202 15.5101C93.6702 15.6201 94.8802 15.6901 96.7502 15.8101C95.7002 17.3601 95.0701 18.2801 94.4301 19.2301C95.3301 20.8001 96.2202 22.3501 97.2602 24.1701C100.29 22.7601 103.32 21.4101 106.29 19.9401C111.33 17.4501 116.63 16.8101 122.13 17.6101C123.68 17.8401 125.22 18.1601 126.74 18.5201C136.84 20.9301 142.94 27.4401 145.95 37.1801C147.8 43.1401 147.29 49.1301 146.44 55.1501C146.39 55.4801 146.4 55.8201 146.38 56.3701C147.74 56.1001 148.95 55.8701 150.51 55.5601C150.06 57.5301 149.21 58.4201 147.53 58.5001C145.98 58.5701 145.16 59.5001 144.69 60.8801C142.28 68.0401 138.64 74.5201 133.79 80.3201C138.55 83.4601 138.7 86.0301 134.58 89.7501C131.85 92.2101 128.48 93.0501 125.02 93.4701C124.01 93.5901 122.86 92.6101 121.51 92.0101C120.09 92.7901 118.22 93.8201 116.06 95.0101V98.8501C119.66 98.6301 121.75 100.9 123.85 103.5C126.03 106.2 128.68 108.51 131.12 111C132.81 112.72 134.67 114.31 136.14 116.2C142.5 124.39 148.97 132.5 154.9 140.99C157.18 144.25 158.56 148.32 159.58 152.22C160.76 156.73 161.09 161.46 161.83 166.36C164.45 167.95 167.42 169.74 170.75 171.76C176.05 162.76 178.43 152.39 185.15 143.96C181.84 142.59 179.5 140.25 178.54 136.66C178.38 136.07 177.57 135.63 177.01 135.16C173.06 131.83 172.63 130.39 174.07 125.54C174.23 124.99 174.19 124.38 174.26 123.67C171.71 122.48 168.84 121.79 167.68 118.93C166.35 115.65 165.42 112.79 168.11 109.2C169.88 106.83 170.18 102.86 170.03 99.6601C169.83 95.4901 170.28 93.3001 174.02 91.3501C175.82 90.4201 177.8 89.7501 179.77 89.2501C181.66 88.7701 182.61 88.0901 182.65 85.8701C182.75 80.8301 185.16 80.5801 188.82 81.1901C193.05 81.8901 197.25 83.1402 201.26 84.6702C207.74 87.1502 210.78 92.9001 213.49 98.7601C214.6 101.17 215.44 103.71 217.91 105.17C218.21 105.35 218.39 105.9 218.67 105.92C221.57 106.19 222.73 108.25 223.56 110.62C224.63 113.68 225.1 117.02 223.76 119.85C222 123.58 222.59 127.05 223.2 130.76C224.08 136.11 223.92 141.37 220.81 146.16C217.87 150.69 213.9 153.23 208.34 153.71C203.92 154.09 199.97 153.16 196.08 151.34C192.76 149.4 189.45 147.46 186.24 145.58C182.75 151.93 179.46 157.67 176.44 163.54C174.61 167.12 173.21 170.92 171.62 174.62L172.15 174.99C171.06 175.43 169.96 175.87 169.12 176.2C166.33 173.9 163.8 171.82 160.94 169.46C159.56 176.11 158.28 182.27 157.02 188.33C159.37 189.71 161.8 191.01 164.1 192.51C166.83 194.29 169.37 196.37 172.13 198.09C175.12 199.95 177.87 202.47 181.81 202.54C182.7 199.63 183.8 196.93 184.34 194.12C185.98 185.62 187.36 177.07 188.93 168.55C189.74 164.18 190.55 159.79 191.71 155.51C192.27 153.44 193 150.9 196.16 151.24L196.2 151.35ZM203.16 118.91C204.77 117.21 206.38 115.52 208.11 113.7C206.46 111.97 205.23 110.68 203.65 109.02C197.92 111.3 192.23 113.57 186.31 115.93C186.83 111.49 193.15 107.89 201.64 106.78C201.01 105.81 200.44 104.91 199.86 104.03C199.15 102.96 198 102.08 198.95 100.5C199.88 98.9401 201.26 98.8701 202.74 99.1201C206.01 99.6701 209.26 100.29 212.48 100.88C210.48 96.6101 207.18 93.3601 203.4 90.4601C199.26 87.2801 194.89 87.5701 190.36 89.1801C185 91.0801 181.7 95.1501 179.49 100.13C176.87 106.02 176.05 112.05 178.1 118.42C180.19 124.91 183.19 130.95 186.93 136.56C190 141.17 193.51 145.56 198.64 148.18C208.27 153.1 220.01 149.98 220.6 135.8C220.68 133.87 221.15 131.82 219.66 129.88C219.19 130.46 218.89 130.82 218.61 131.2C217.77 132.32 217.21 133.95 215.31 133.33C213.58 132.76 213.55 131.22 213.47 129.74C213.3 126.76 213.12 123.79 212.93 120.57C208.54 122.81 204.69 126.39 199.16 126.39C199.36 123.02 202.17 121.37 203.26 118.8L203.16 118.9V118.91ZM95.1003 222.15C93.2103 217.73 91.4101 213.56 89.6401 209.37C88.9401 207.71 88.7001 205.88 90.1901 204.67C91.7901 203.37 93.1802 204.81 94.2802 205.82C99.1702 210.3 104.06 214.8 108.77 219.47C110.53 221.22 111.99 222.84 114.84 222.45C116.34 222.24 117.93 222.92 119.5 223.03C124.67 223.42 129.85 223.83 135.03 224.06C139.14 224.24 141.85 221.9 143.37 218.37C145.52 213.41 147.82 208.43 149.21 203.24C152.17 192.21 154.84 181.09 157.09 169.9C157.9 165.86 157.61 161.45 157.04 157.32C156.12 150.58 152.49 145.03 148.33 139.72C144.32 134.6 140.77 129.13 136.94 123.86C134.6 120.64 131.92 117.71 128.6 115.35C129 119.52 129.74 123.49 130.4 127.48C131.83 136.07 132.9 144.73 131.16 153.36C130.27 157.8 128.72 162.18 126.92 166.36C125.29 170.15 121.79 170.51 119.17 167.49C117.67 165.77 116.1 163.98 115.17 161.94C111.88 154.72 108.63 147.46 105.8 140.05C102.92 132.52 100.58 124.79 97.9501 117.16C96.7401 113.66 95.4002 110.21 94.0402 106.49C68.8102 123.69 48.2803 145.26 28.5903 167.44C29.9003 169.02 30.8401 170.28 31.9001 171.42C39.7601 179.85 48.0102 187.8 58.3202 193.28C61.1902 194.8 61.3302 194.91 63.2602 192.16C65.8102 188.52 68.2402 184.78 70.4802 180.94C72.3802 177.68 74.4401 175.05 77.9501 172.99C83.0901 169.97 87.4801 165.66 92.2001 161.92C93.1001 161.21 94.0402 160.55 95.5702 159.41C95.8002 164.21 92.5403 166.4 90.6203 168.93C86.2303 174.71 82.2102 181.24 74.0602 182.6C74.0602 189.08 73.6601 195.51 74.1901 201.86C74.6001 206.84 76.0802 211.75 77.2802 216.64C77.5802 217.84 78.3701 219.34 79.3801 219.88C84.3801 222.57 89.6503 223.81 95.1003 222.15ZM74.4201 66.3301C75.9001 68.2801 76.9802 70.1701 78.4802 71.6001C83.6602 76.5201 88.9703 81.2901 96.5803 82.0501C96.9103 82.0801 97.2102 82.3901 97.5402 82.5401C103.09 85.1101 108.61 87.7501 114.23 90.1801C115.74 90.8301 117.41 90.8601 118.93 89.4701C123.55 85.2601 128.46 81.3501 132.94 77.0001C134.99 75.0101 136.3 72.2501 138.15 69.5401C134.27 69.7001 132.52 69.0101 131.61 67.2601C130.09 64.3101 131.7 58.4701 134.67 56.7001C137.55 54.9801 140.54 53.4501 143.67 51.7301V43.2201C138.88 41.3301 137.26 46.5001 133.14 47.4701C133.56 45.9701 133.65 44.8901 134.14 44.0301C136.01 40.7601 139.79 40.8101 142.74 39.5401C141.16 34.7901 139.1 30.6801 134.65 27.7001C134.53 28.4201 134.6 28.9701 134.36 29.2301C133.63 30.0301 132.79 30.7201 131.99 31.4501C131.51 30.6101 130.77 29.8301 130.59 28.9301C129.62 24.0201 129.26 23.5801 124.23 22.5601C122.96 22.3001 121.67 22.1801 119.99 21.9401C120.6 24.0301 121.89 26.0501 118.97 27.0701C116.73 25.6401 116.63 21.2901 112.91 21.8401C110.01 22.2601 107.2 23.3301 104.18 24.1601C107.5 28.8701 109.29 30.0301 105.6 32.1501C104.96 31.0201 104.39 29.8401 103.67 28.7601C102.15 26.5101 100.3 25.6801 98.5803 26.6901C96.4403 27.9501 94.4503 29.4701 92.1003 31.0801C93.6203 32.1801 94.9902 32.9401 96.0602 34.0001C97.5002 35.4401 97.4301 36.9501 95.4001 38.2601C93.8701 37.4401 92.3401 36.4601 90.6901 35.7901C89.7901 35.4301 88.2301 35.1201 87.7201 35.6001C85.5801 37.6101 83.4501 39.7501 82.6801 42.9101C85.5001 43.6901 88.9201 42.8701 90.1401 46.5101C89.1801 47.8001 88.3502 48.5101 86.5402 47.5801C85.0602 46.8201 83.1902 46.8201 80.8002 46.3501C80.5302 49.7901 80.3102 52.5801 80.0402 55.9801C81.8602 55.1701 83.0102 54.5601 84.2302 54.1401C85.2402 53.8001 86.3203 53.5301 87.3703 53.5401C87.9303 53.5401 88.9801 54.2701 88.9501 54.5801C88.8701 55.3001 88.4403 56.2801 87.8503 56.5701C86.9203 57.0301 85.7401 56.9301 84.7001 57.2101C83.5001 57.5301 82.3503 58.0201 80.8503 58.5501C82.5303 61.3301 83.9502 63.6801 85.5702 66.3601C81.8802 68.5201 78.6201 64.3901 74.4201 66.3401V66.3301ZM64.9001 251.09C68.2901 249.31 69.3102 246.4 70.7902 243.81C72.3102 241.17 75.3303 241.13 77.0803 243.61C77.5303 244.25 78.1102 244.79 78.7802 245.55C80.8302 241.44 78.5201 237.69 78.6901 233.93C78.7001 233.62 78.0101 233.3 77.6801 232.95C73.4801 228.47 69.3403 223.94 65.0903 219.51C55.5703 209.58 45.9901 199.72 36.4701 189.79C35.0801 188.35 33.8702 186.74 32.4802 185.1C33.7302 183.71 34.7401 182.59 35.6901 181.53C32.4701 177.71 29.3303 173.98 25.8403 169.84C19.0603 178.46 12.3303 187 5.61028 195.55C8.24028 197.43 10.7802 199.47 13.5302 201.17C21.4002 206.04 29.2602 210.95 37.3102 215.53C46.7302 220.88 56.3503 225.88 65.8503 231.08C67.7003 232.09 69.4002 233.37 71.2702 234.6C69.2702 238.06 65.8101 237.52 63.1701 238.63C60.5301 239.74 57.8003 240.66 55.1103 241.66C57.6303 242.28 59.9001 242.26 62.1801 242.28C65.3001 242.3 66.0901 243.19 65.6901 246.25C65.4901 247.73 65.2101 249.2 64.9001 251.08V251.09ZM135.11 477.4C134.68 478.44 134.46 479.89 133.64 480.79C131.47 483.16 131.62 486.11 131.32 488.91C131.06 491.29 131.96 492.31 134.47 492.28C139.83 492.22 145.41 492.83 149.79 488.56C150.47 487.9 151.35 487.34 152.24 487.05C153.36 486.68 154.59 486.64 156.54 486.33C155.14 489 154.17 490.84 153.09 492.88C154.39 492.99 155.34 493.06 156.29 493.15C162.51 493.73 168.54 493.68 173.84 489.52C174.77 488.79 176.99 488.41 177.75 488.99C179.48 490.3 177.67 491.72 177.03 493.05C176.97 493.18 177.14 493.43 177.25 493.74C177.95 493.69 178.66 493.67 179.37 493.59C184.89 493 190.41 492.19 195.95 491.9C198.42 491.77 200.31 490.93 201.49 489.08C203.59 485.79 205.31 482.26 207.09 479C204.37 479.39 201.96 480.05 199.57 480.04C190.42 479.97 181.28 479.73 172.13 479.47C163.71 479.22 155.29 478.93 146.88 478.52C143.06 478.33 139.26 477.81 135.11 477.4ZM61.0402 255.5C60.6102 256.6 60.3401 257.54 59.8901 258.38C54.5701 268.48 51.4501 279.36 49.1601 290.43C46.5701 303.01 46.4901 315.84 47.1501 328.61C47.5701 336.79 48.7902 344.93 49.5602 353.1C50.3702 361.73 49.9703 370.15 46.1203 378.23C44.3303 382 42.7002 386.1 42.2602 390.19C41.4602 397.57 41.5903 405.05 41.3503 412.48C41.1003 420.33 41.2003 428.18 42.3703 435.97C42.4703 436.66 42.8202 437.32 43.0502 437.99C43.3202 437.94 43.5903 437.89 43.8703 437.83C43.8703 436.79 43.8203 435.75 43.8703 434.72C44.4403 424.85 44.7801 414.97 45.6701 405.13C46.5101 395.88 47.9001 386.68 49.1401 377.47C49.7101 373.19 49.7001 368.7 52.4701 365.05C53.6001 363.55 54.0302 362.22 53.3002 360.43C52.9502 359.57 52.9901 358.53 52.9701 357.57C52.8001 348.45 52.5202 339.32 52.5202 330.19C52.5202 312.02 53.9001 293.98 58.6401 276.36C60.5101 269.4 62.8001 262.54 64.9401 255.48H61.0202L61.0402 255.5ZM127 448.42C119.81 441.56 114.76 433.66 112.82 423.98C111.95 419.64 111.14 415.29 110.3 410.95C108.56 414.39 107.73 417.98 106.35 421.34C104.9 424.87 104.31 428.02 105.69 431.91C107.49 436.97 108.12 442.45 109.44 447.7C110.58 452.23 112.81 453.36 117.24 452.06C118.04 451.83 118.87 451.57 119.69 451.56C121.69 451.54 122.37 452.57 121.44 454.31C120.7 455.68 119.76 456.97 118.79 458.2C116.71 460.85 115.54 463.94 115.3 467.18C114.68 475.8 122.02 480.64 129.89 480.58C131.38 480.57 131.98 479.52 132.06 478.16C132.18 476.14 132.27 474.11 132.36 472.27C124.91 466.33 123.34 459.29 127 448.43V448.42ZM143.67 457.96C144.46 459.19 144.75 459.86 145.23 460.36C149.45 464.8 153.81 469.11 157.88 473.68C159.58 475.59 161.51 476.33 163.85 476.4C167.21 476.5 170.57 476.51 173.94 476.49C174.73 476.49 175.85 476.53 176.25 476.07C178.12 473.91 180.01 471.7 181.49 469.26C183 466.78 182.24 464.61 180.02 462.6C175.58 458.59 170.38 455.82 165.23 452.99C162.92 451.72 160.39 450.83 157.9 449.95C157.1 449.67 155.87 449.62 155.21 450.04C151.4 452.51 147.7 455.16 143.68 457.95L143.67 457.96ZM56.6401 467.8C55.6501 468.7 54.9602 469.29 54.3202 469.93C52.4902 471.77 50.4401 473.46 48.9601 475.55C48.1701 476.67 47.6902 478.85 48.2502 479.94C49.7602 482.86 51.8302 485.56 55.5402 486C57.5602 486.24 59.5903 486.48 61.6203 486.5C66.6703 486.56 71.7302 486.34 76.7802 486.52C81.2702 486.68 85.3002 485.22 89.3002 483.57C89.8802 483.33 90.5503 481.89 90.3303 481.35C89.1803 478.59 87.8401 475.91 86.4101 473.28C85.3601 471.36 83.4001 470.92 81.4101 471.03C79.5101 471.13 77.6301 471.62 75.7201 471.73C70.5601 472.04 65.3902 472.48 60.2302 472.4C56.9702 472.35 56.5101 471.42 56.6501 467.79L56.6401 467.8ZM105 113.13C106 116.77 106.86 120.36 107.97 123.86C109.94 130.03 111.95 136.19 114.16 142.28C115.8 146.79 117.66 151.23 119.64 155.61C120.34 157.15 121.7 158.38 122.91 159.96C123.71 159.1 124.36 158.73 124.47 158.24C125.11 155.19 125.88 152.14 126.15 149.05C126.75 142.04 125.74 135.11 124.35 128.27C123.33 123.25 122.32 118.18 119.96 113.96C114.83 113.68 110.07 113.42 105 113.14V113.13ZM95.6601 434.28C92.8801 434.03 91.2701 432.35 89.9301 430.24C83.1501 419.57 70.9702 417.76 61.0402 427.3C58.5202 429.72 56.7203 433.03 55.0803 436.19C53.8603 438.53 54.8501 439.76 57.4301 440.01C58.1401 440.08 58.8703 439.99 59.5903 439.89C67.1103 438.89 74.6401 437.92 82.1501 436.85C86.2201 436.27 90.0501 436.83 93.6901 438.72C94.3801 439.08 95.1201 439.35 96.2001 439.82C95.9901 437.73 95.8301 436.08 95.6601 434.27V434.28ZM71.4902 185.01C70.7602 185.69 70.3601 185.94 70.1501 186.3C68.7101 188.66 67.3201 191.05 65.8801 193.41C62.8301 198.36 59.9001 199.33 55.1301 196.19C49.8101 192.69 44.8102 188.69 39.7302 184.84C37.4502 183.11 37.3201 183.05 35.3901 185.05C50.0101 200 64.6301 214.95 79.4701 230.12C80.6001 228.95 81.7203 227.79 83.1003 226.36C82.0603 225.97 81.4302 225.71 80.7802 225.5C77.4702 224.48 75.2202 222.69 74.2702 219.02C72.1102 210.68 71.2202 202.27 71.5002 193.69C71.5902 190.99 71.5102 188.28 71.5102 185.02L71.4902 185.01ZM47.6701 484.76C47.6701 486.2 47.5801 487.64 47.6801 489.07C48.2601 497.31 50.3501 499.11 57.2201 499.16C65.9101 499.23 74.5401 498.98 83.1501 497.57C88.8501 496.64 93.1901 490.95 92.1501 485.35C89.1601 486.27 86.1903 487.72 83.1103 488.01C76.1903 488.66 69.2002 489.08 62.2502 488.93C57.3002 488.82 51.9601 488.98 47.6701 484.76ZM91.5002 83.5801C92.5602 84.5201 93.4501 85.0001 93.8901 85.7501C95.5201 88.5501 97.3101 91.3201 98.4401 94.3301C99.4901 97.1101 102.58 99.6401 100.24 103.15C101.74 105.68 102.76 108.88 105.62 110C108.58 111.16 111.89 111.49 115.07 111.97C116.12 112.13 117.27 111.66 118.17 111.51C118.42 107.85 116.06 109.51 114.12 109.29C113.97 103.97 113.83 98.7601 113.69 93.8001C106.43 90.9701 99.7802 87.9501 94.7702 82.4801C93.6902 82.8401 92.8002 83.1401 91.5002 83.5801ZM186.77 476.35C187.17 476.64 187.35 476.89 187.54 476.89C193.2 476.89 198.87 477.05 204.52 476.74C207.49 476.57 208.35 473.68 209.14 471.35C209.81 469.36 209 467.5 207.25 466.28C204.85 464.61 202.24 463.49 199.26 463.2C197.64 463.04 196.72 463.48 195.7 464.86C193.27 468.13 190.48 471.14 187.89 474.29C187.39 474.89 187.13 475.68 186.77 476.35ZM215.81 129.24C216.27 129.31 216.73 129.37 217.19 129.44C218.07 127.15 219.03 124.89 219.8 122.56C220.19 121.4 220.66 120 220.36 118.93C219.44 115.71 218.21 112.57 216.97 109.46C216.69 108.76 215.92 108.16 215.24 107.75C213.06 106.47 210.88 105.13 208.56 104.15C206.63 103.33 204.5 102.99 201.97 102.31C203.84 107.54 208.98 109.07 211.09 112.99C209.07 117.32 204.41 119.4 203.29 124.23C207.04 122.23 210.79 120.23 214.7 118.14C215.11 122.2 215.46 125.72 215.81 129.23V129.24ZM154.94 475.63C151.54 469.37 146.69 465.05 142.57 460.13C137.15 464.14 135.72 469.35 134.87 474.7C141.67 475.02 147.99 475.31 154.94 475.63ZM79.8801 96.8301V111.45C86.1201 107.84 90.7101 102.17 97.6901 100.52C98.0801 97.4701 96.6702 93.3101 94.2702 90.1601C91.8602 98.7301 86.7601 98.9301 79.8901 96.8201L79.8801 96.8301ZM193.53 462.35C191.02 458.92 187.29 457.71 183.95 455.95C179.61 453.67 175.13 451.64 170.83 449.28C168.24 447.86 165.37 447.61 162.3 449.25C162.92 449.54 163.43 449.87 163.99 450.03C169.79 451.59 174.87 454.69 179.73 457.98C185.42 461.83 187.49 465.42 184.62 471.67C184.52 471.9 184.68 472.25 184.76 472.93C187.82 469.23 190.64 465.81 193.52 462.34L193.53 462.35ZM95.5803 105.38C96.5603 108.03 97.5401 110.48 98.3901 112.98C104.17 129.93 110.42 146.68 118.61 162.66C119.7 164.78 121.08 166.34 123.13 167.29C125.9 164.81 126.43 163.67 126.47 160.3C123.84 164.14 121.39 164.13 118.79 160.26C118.52 159.86 118.31 159.42 118.09 158.99C117.13 157.06 116.05 155.17 115.25 153.17C113.11 147.82 111.02 142.44 109.06 137.02C106.73 130.58 104.43 124.13 102.37 117.6C101.05 113.42 98.7502 109.5 98.8002 104.92C98.8002 104.62 98.4501 104.32 98.1601 103.87C97.3401 104.35 96.5403 104.81 95.5803 105.37V105.38ZM115.89 101.72C116.99 107.61 121.81 111.83 123.17 117.56C124.56 123.43 126.5 129.19 127.45 135.12C128.38 140.89 128.37 146.81 128.79 152.9C129.78 147.52 129.91 142.3 129.25 137.11C128.39 130.32 127.4 123.55 126.15 116.82C125.47 113.16 124.41 109.48 121.6 106.74C119.84 105.03 117.91 103.49 115.88 101.71L115.89 101.72ZM85.3801 8.61012C83.6201 8.70012 82.6102 8.53012 81.7502 8.83012C74.1302 11.4901 69.4901 17.4301 65.4501 23.9501C64.3301 25.7601 65.1303 27.0701 67.1203 27.6701C70.9136 21.6635 76.997 15.3101 85.3703 8.61012H85.3801ZM91.1701 21.3902C85.4001 24.8802 81.7702 30.0101 78.0002 35.5601C79.3902 36.2001 80.5203 36.7301 81.3503 37.1101C85.1203 32.8001 88.6602 28.7701 92.5102 24.3701C92.2702 23.8401 91.7501 22.6601 91.1701 21.3801V21.3902ZM107.69 222.52C103.21 216.85 98.5102 212.61 93.0002 209.21C95.0502 214.09 96.6401 219.2 100.97 222.52H107.69ZM72.8503 31.7401C76.3703 25.7801 79.7603 20.0401 83.3703 13.9401C82.3603 14.6501 81.5802 15.0301 81.0302 15.6201C77.9502 18.9801 74.8801 22.3501 71.9101 25.8101C69.1301 29.0701 69.3403 29.8301 72.8403 31.7401H72.8503ZM60.0602 469.42C66.1802 470.45 71.8801 469.09 77.6401 468.54C73.5401 466.64 69.3603 465.73 64.8703 466.32C62.9703 466.57 60.9702 466.32 60.0602 469.42ZM133.33 61.8001C133.33 63.1001 133.13 64.4501 133.4 65.7001C133.57 66.4901 134.3 67.4301 135.02 67.7501C136.21 68.2801 139.71 66.4901 140.15 65.1201C141.06 62.2701 141.75 59.3501 142.47 56.4401C142.53 56.2201 142.14 55.8801 141.91 55.5301C141.4 55.7601 140.96 55.9301 140.55 56.1501C140.15 56.3701 139.78 56.6601 139.46 56.8801C140.12 60.5401 139.68 61.6501 137.43 62.8201C135.71 63.7101 134.5 63.4701 133.33 61.8001ZM88.5803 167.64C81.2503 171.33 74.8903 177.12 73.6203 181.05C78.4903 178.42 83.2503 174.98 88.5803 167.64ZM173.25 110.22C171.05 112.02 168.78 113.33 169.79 116.53C170.73 119.51 172.06 120.56 175.44 120.81C174.73 117.38 174.02 113.93 173.25 110.22ZM174.2 102.43C176.18 98.6701 177.9 95.3802 179.72 91.9202C172.89 92.7102 170.79 96.4701 174.2 102.43ZM79.8603 5.13014C74.3103 5.50014 65.0701 13.3501 63.9201 18.8401C68.6901 12.9401 73.5603 8.18014 79.8603 5.13014ZM89.9802 17.4101C89.1502 16.2101 88.5101 15.2801 87.4001 13.6701C86.3201 17.6001 82.4601 19.3101 82.6901 23.7901C85.2601 21.5401 87.4802 19.6001 89.9802 17.4101ZM89.9101 84.5001C88.0801 84.5801 86.7801 84.7001 85.4701 84.6801C79.7301 84.5801 78.1403 86.7801 80.1103 92.1301C80.8303 87.4201 81.5003 86.7701 85.6203 85.4801C88.3003 84.6401 88.5401 87.2501 90.4501 88.9701C90.2101 87.0101 90.0801 85.9001 89.9101 84.5001ZM177.82 126.37C175.28 130.42 176.73 133.2 182.17 135.04C180.67 132.05 179.3 129.32 177.82 126.37ZM88.3603 91.8001C88.4403 90.0001 85.7901 87.9101 84.2001 87.8301C82.7201 87.7501 82.3602 88.7001 82.3002 89.8501C82.2302 91.1501 84.5502 93.2101 86.0402 92.9701C86.9502 92.8201 87.7703 92.1101 88.3603 91.8001ZM132.5 82.4001C132.64 86.1901 132.17 86.9401 128.91 88.4801C128.47 88.6901 128.01 88.8601 127.61 89.1201C127.22 89.3701 126.89 89.7101 126.34 90.1801C129.66 90.4001 132.13 89.3601 134.09 87.1301C136.13 84.8101 135.93 84.1401 132.51 82.4001H132.5ZM185.13 87.3902C186.34 86.8002 187.47 86.2001 188.64 85.6801C189.9 85.1201 191.19 84.6401 193.28 83.8101C191.48 83.4001 190.42 83.1401 189.36 82.9301C185.56 82.1601 184.64 83.0802 185.13 87.3902ZM77.4902 45.9001C78.6302 43.6301 79.4102 42.0901 80.2602 40.4001C79.5502 40.1001 78.9501 39.8501 77.9101 39.4101C77.7701 41.5801 77.6602 43.3601 77.5002 45.8901L77.4902 45.9001ZM84.0702 95.1702C87.8502 96.7202 89.3703 96.1101 90.0903 92.9301C88.1703 93.6501 85.9602 94.4702 84.0702 95.1702Z" fill="black"/>
<path d="M150.13 420.14C149.95 408.72 149.49 397.51 149.69 386.3C149.87 376.06 151.02 365.84 151.3 355.6C151.65 342.82 151.56 330.04 151.61 317.25C151.64 310.27 151.7 303.28 151.5 296.3C151.19 285.57 150.9 274.82 150.18 264.11C149.53 254.38 148.36 244.69 147.31 234.99C147.01 232.24 146.23 229.55 145.89 226.81C145.77 225.85 146.3 224.82 146.53 223.82C146.86 223.82 147.18 223.83 147.51 223.84C148.29 226.93 149.19 229.99 149.82 233.11C152.8 247.94 154.4 262.95 155.19 278.03C156.03 294.05 156.42 310.09 156.84 326.13C157.19 339.49 156.54 352.83 155.93 366.18C155.35 378.92 155.47 391.71 155.71 404.47C155.84 411.32 156.95 418.15 157.5 424.99C157.91 430.05 157.93 431.3 152.41 433.84C147.94 435.89 143.84 438.69 138.86 439.62C134.82 440.37 130.88 440.1 127.1 438.79C125.5 438.23 123.72 436.93 122.95 435.48C120.35 430.52 118.63 424.23 124.81 419.26C129.7 415.33 134.85 413.38 140.95 415.92C144.04 417.21 147.03 418.72 150.11 420.15L150.13 420.14ZM151.45 426.94C148.83 425.65 146.59 424.51 144.32 423.43C142.04 422.35 139.77 421.21 137.41 420.34C134.79 419.37 132.14 419.77 129.75 421.17C128.39 421.97 127.45 423.02 127.55 424.94C128.09 435.13 137.86 439.48 145.04 436.25C147.43 435.17 149.68 433.76 152.07 432.47C151.83 430.37 151.62 428.49 151.45 426.94Z" fill="black"/>
<path d="M90.9202 56.6201C92.3402 56.4801 93.1702 56.5101 93.9102 56.2901C95.1002 55.9301 96.2701 55.4701 97.3901 54.9201C98.6801 54.3001 99.8302 53.1301 101.16 52.9101C107.54 51.8801 113.7 52.8101 119.29 56.1501C122.64 58.1501 123.12 63.1301 120.3 65.7701C113.82 71.8501 108.28 72.2301 99.9802 69.1001C97.3802 68.1201 96.2604 65.5501 95.8704 63.0701C95.4804 60.5401 94.4501 58.8901 92.1301 57.9501C91.8401 57.8301 91.6602 57.4501 90.9202 56.6201ZM101.76 55.7201C100.32 55.6101 99.0703 55.2701 98.0503 56.9901C97.2103 58.4101 96.4402 59.6001 97.2002 61.1501C98.3202 63.4101 98.0704 66.6301 101.36 67.4301C105.61 68.4601 109.87 69.2801 114.17 67.5801C116.41 66.6901 118.61 61.5601 117.48 59.4201C117.13 58.7601 116.34 58.1301 115.62 57.8901C113.05 57.0401 110.42 56.3701 107.6 55.5601C108.03 59.3201 107.29 61.3301 105.5 62.0501C103.68 62.7801 101.45 62.3201 100.58 60.9601C99.2703 58.8901 100.13 57.3101 101.76 55.7201Z" fill="black"/>
<path d="M118.29 46.3401C116.83 45.8401 115.65 45.7401 114.86 45.1201C110.63 41.8401 109.48 41.7201 104.91 44.5401C103.74 45.2601 102.6 46.0301 100.99 47.0801C103.5 41.7301 108.44 38.8201 112.97 39.5901C115.71 40.0601 117.97 42.5601 118.28 46.3301L118.29 46.3401Z" fill="black"/>
<path d="M113.9 81.5C112.24 83.43 110.91 83.3 109.85 81.62C109.5 81.06 109.41 79.64 109.67 79.5C111.73 78.41 112.57 80.19 113.9 81.49V81.5Z" fill="black"/>
<path d="M125.24 77.2302C125.84 74.7602 127.42 74.1702 129.35 73.9802C129.22 76.3502 128.95 76.5702 125.24 77.2302Z" fill="black"/>
<path d="M211.2 128.03C210.18 130.56 204.56 133.43 199.38 134.3C200.82 131.23 206.1 128.35 211.2 128.03Z" fill="black"/>
<path d="M203.25 118.81C199.53 120.24 195.8 121.68 192.36 123.01C193.75 120.31 199.58 117.18 202.77 117.77C202.96 117.81 203.03 118.52 203.16 118.92L203.26 118.82L203.25 118.81Z" fill="black"/>
</svg>
