<svg width="117" height="163" viewBox="0 0 117 163" fill="none" xmlns="http://www.w3.org/2000/svg">
<path d="M116.13 29.1599C115.82 27.6699 115.54 26.1099 115.27 24.5699C114.59 20.7299 113.89 16.7599 112.45 12.9999C109.66 5.7399 104.4 1.58991 97.6299 1.31991C91.2599 1.06991 84.7799 0.919896 78.3599 0.869896C74.8599 0.839896 71.3199 0.889903 67.8999 0.939903C65.3799 0.979903 62.8501 1.00991 60.3301 1.01991C56.5501 1.02991 52.77 1.01991 49 0.989906C47.51 0.989906 46.0098 0.979897 44.5098 0.979897C42.8298 0.979897 41.1602 0.979908 39.4902 0.959908H37.8701C34.2601 0.959908 30.5201 0.959907 26.8301 1.09991C26.3301 1.11991 25.8102 1.1299 25.2402 1.1399C22.8702 1.1899 20.18 1.23991 17.77 2.20991C11.15 4.86991 6.28984 10.1499 3.33984 17.8899C1.70984 22.1499 0.779961 27.1099 0.709961 31.8599C0.519961 45.3699 0.550078 59.1099 0.580078 72.3799C0.580078 76.4899 0.600097 80.5999 0.600097 84.7099H0.0898435V87.2099C0.0898435 91.7899 0.089863 96.3599 0.109863 100.98C0.129863 112.37 0.159785 124.15 0.0297849 135.72C-0.0302151 141.1 1.29006 146.32 4.31006 152.65C6.98006 158.25 12.3999 159.47 16.3599 160.37C18.6499 160.89 20.9399 160.91 23.1699 160.93C23.6899 160.93 24.21 160.93 24.73 160.95C37.76 161.24 50.7898 161.5 63.8198 161.76L65.3701 161.79C68.1101 161.84 70.8601 161.9 73.6001 161.96C81.6501 162.13 89.9699 162.31 98.1699 162.37H98.7402C103.72 162.37 108.84 161.81 111.95 155.15C114.86 148.92 116.15 143.25 116.02 137.34C115.85 129.71 115.8 121.94 115.74 114.43V112.53C115.71 109.87 115.71 107.2 115.72 104.54C115.72 101.53 115.74 98.1199 115.7 94.8199C115.67 91.9699 115.58 89.0799 115.5 86.2599C115.43 83.7299 115.35 81.2099 115.32 78.6799C115.29 76.6999 115.25 74.7299 115.21 72.7499V72.4999C115.08 66.6199 114.95 60.5399 115.14 54.6099C115.22 52.1299 115.14 49.6399 115.05 47.2299C114.87 42.2599 114.69 37.1199 116.09 32.3199C116.44 31.1299 116.32 29.9399 116.15 29.1599H116.13Z" fill="white"/>
<path d="M51.3198 67.7599C47.0398 67.4899 42.7599 67.0799 38.4799 67.0099C35.7299 66.9699 32.9299 67.8399 30.2299 67.5599C27.7099 67.2899 25.42 67.4199 23.35 68.4099C21.43 67.0799 19.7099 65.8899 17.9799 64.6999C17.2999 61.6899 18.7797 59.4499 21.0297 57.9199C23.4997 56.2399 26.1299 54.8699 29.4199 54.9099C33.4799 54.9499 37.5398 54.3899 41.6098 54.0699C44.5398 53.8399 47.4698 53.5999 50.3998 53.3599C51.4298 53.2799 52.4602 53.1999 53.7402 53.1099C53.1702 50.8199 51.7299 50.4299 49.9199 50.4699C49.3199 50.4799 48.7201 50.2099 48.1201 50.0699C49.4701 49.8599 50.8401 49.4199 52.1801 49.4799C54.5801 49.5799 56.9701 49.9799 59.3701 50.2499C58.3201 50.7299 57.2797 51.1999 56.0097 51.7799C59.5997 52.9999 60.2599 52.9199 63.2099 51.0599C63.8099 51.2499 64.3999 51.4399 64.9999 51.6399C64.9199 52.0199 64.6797 52.6799 64.7797 52.7399C66.1797 53.5299 67.9398 52.7499 68.8798 50.9899C70.0098 50.7199 71.3199 49.9399 72.2299 50.2699C74.6499 51.1499 77.0098 50.8099 79.3798 50.5699C83.4598 50.1599 87.36 51.0999 91.29 51.8599C91.29 52.0999 91.2498 52.3399 91.1498 52.5599C90.7298 52.8499 90.3197 53.1399 89.7797 53.5099C90.0197 53.9199 90.1801 54.2199 90.3701 54.5099C92.4301 57.6299 92.4501 57.6399 90.3901 60.6299C89.6601 61.6999 88.81 62.6899 88.02 63.7099C86.24 64.3199 84.4599 64.9299 82.7099 65.5299C82.9799 66.2899 83.1102 66.6499 83.2402 66.9999C81.8702 68.0399 80.4698 68.9799 78.6098 68.5299C76.2198 67.2599 73.8298 65.8899 71.1098 67.7399C70.9598 67.7899 70.8101 67.8099 70.6601 67.7999C70.0801 66.4499 68.9201 66.8599 67.9301 66.9999C67.1701 67.1099 66.4401 67.4499 65.7001 67.6899C62.7801 66.3199 59.8501 66.9399 56.9301 67.6899C56.6601 67.4599 56.3701 66.9999 56.1401 67.0299C54.5301 67.2199 52.93 67.5099 51.33 67.7599H51.3198Z" fill="#80B6E0"/>
<path d="M59.37 50.2499C56.97 49.9799 54.5801 49.5799 52.1801 49.4799C50.8401 49.4199 49.47 49.8599 48.12 50.0699C44.66 51.4099 41.1201 50.4699 37.7201 50.0299C32.8201 49.3999 27.9597 49.1099 23.0497 49.3099C22.1397 49.3499 21.2 49.2699 20.31 49.0499C16.9 48.2199 16.3301 46.0899 18.6801 43.3699C20.6401 41.0999 23.5797 40.9799 26.0697 39.9199C27.8397 39.1599 29.8499 38.9399 31.7699 38.5699C32.2099 38.4799 32.7899 38.6399 33.1899 38.8799C35.5299 40.2899 37.9398 40.0099 40.3798 39.2699C44.6798 37.9599 48.9998 37.9199 53.3598 38.9899C54.2298 39.1999 55.4397 39.3899 56.0697 38.9699C58.6997 37.1999 61.5199 38.9999 64.1899 38.3199C65.0899 38.0899 66.1901 38.6999 67.2001 38.9199C69.8401 37.7099 72.4999 37.7799 75.2699 38.5299C76.7599 38.9299 78.5401 39.3199 79.8901 38.8499C81.4601 38.2999 82.6602 38.7299 83.9902 39.0999C87.4902 40.0599 90.7601 39.8599 93.6601 37.4299C95.2501 37.9499 96.8398 38.4699 98.4198 38.9899C100.23 40.7599 101.65 42.7299 101.63 45.4199C101.36 46.4799 101.09 47.5399 100.82 48.5999H100.84C98.4298 49.3899 96.01 50.1599 93.6 50.9399C92.83 51.2499 92.0697 51.5599 91.2997 51.8599C87.3697 51.0999 83.4601 50.1599 79.3901 50.5699C77.0101 50.8099 74.6502 51.1499 72.2402 50.2699C71.3302 49.9399 70.0201 50.7199 68.8901 50.9899C67.5901 51.2099 66.2999 51.4199 64.9999 51.6399C64.3999 51.4499 63.8099 51.2599 63.2099 51.0599C61.9299 50.7899 60.65 50.5199 59.37 50.2499Z" fill="#0197D1"/>
<path d="M90.4102 97.9998C91.0002 99.2498 91.6202 100.49 92.1802 101.75C92.8002 103.15 93.77 104.69 91.27 105.31C89.93 105.54 88.59 105.76 87.25 105.99C85.04 105.3 82.8699 107.61 80.6499 106.08C79.4799 107.14 78.5999 106.52 77.6099 105.71C77.4599 105.59 76.57 106.37 76.02 106.74C75.53 106.92 74.9298 107.38 74.5698 107.24C71.5998 106.06 68.9302 107.04 66.4502 108.34C65.3202 107.81 64.37 107.37 63.96 107.18C61.87 107.66 60.18 107.8 58.71 108.44C56.6 109.36 54.5899 107.97 52.6299 108.44C50.0099 109.07 47.6102 110.27 44.7002 109.32C43.6002 108.96 42.0301 110.32 40.6401 110.44C39.2501 110.56 37.8199 110.06 36.3999 109.92C34.0499 109.69 31.6201 109.78 29.3501 109.25C27.4301 108.8 25.83 108.94 24.21 109.91C23.78 109.44 23.4199 108.84 22.8999 108.51C21.0899 107.36 20.4802 105.47 21.1802 103.8C21.7502 102.44 23.2702 101.22 24.6602 100.52C26.7802 99.4398 29.1402 98.8598 31.4102 98.0698C33.4902 98.0498 35.5999 98.2298 37.6499 97.9598C39.0699 97.7698 40.41 96.9598 41.79 96.4298C43.86 96.1898 45.94 95.8898 48.02 95.7498C48.9 95.6898 49.9302 95.7698 50.6602 96.1898C52.1602 97.0398 53.5101 96.9598 55.1001 96.4798C57.7101 95.6998 60.4001 95.1998 63.0601 94.5898C63.4001 94.5098 63.9201 94.3698 64.1001 94.5398C66.2901 96.5198 67.8999 94.7798 69.6299 93.7398C69.9499 93.5398 70.3301 93.4398 70.6401 93.2998C71.4401 93.8698 72.1801 94.3798 72.5801 94.6698C74.0301 94.0898 75.1102 93.2798 76.1602 93.3098C78.4202 93.3898 80.6602 93.9198 82.9102 94.2398C83.7702 94.3598 84.82 94.7798 85.48 94.4498C87.88 93.2598 88.8801 94.4898 89.6401 96.4598C89.8901 96.9798 90.1499 97.4998 90.3999 98.0198L90.4102 97.9998Z" fill="#F4CE87"/>
<path d="M24.23 109.9C25.85 108.93 27.4501 108.79 29.3701 109.24C31.6501 109.78 34.0699 109.68 36.4199 109.91C37.8399 110.05 39.2702 110.55 40.6602 110.43C42.0502 110.31 43.6102 108.95 44.7202 109.31C47.6302 110.26 50.0299 109.06 52.6499 108.43C54.6099 107.96 56.62 109.34 58.73 108.43C60.2 107.79 61.9 107.65 63.98 107.17C64.39 107.36 65.3402 107.8 66.4702 108.33C68.9502 107.03 71.6098 106.05 74.5898 107.23C74.9498 107.37 75.55 106.91 76.04 106.73C79.77 107.96 83.51 107.96 87.25 106.77C88.28 106.89 89.3898 106.81 90.3398 107.16C93.0398 108.14 95.3301 107.18 97.6001 105.94H97.5801C100.46 106.51 104 105.67 105.26 109.34C104.27 112.01 102.5 113.73 100.01 114.71C98.8398 115.23 97.6098 116.31 96.5298 116.18C93.4698 115.81 90.5802 116.46 87.7202 117.17C85.3702 117.76 83.1501 117.57 80.8701 117.11C80.2001 116.87 79.5201 116.39 78.8701 116.43C76.5701 116.58 74.2802 116.92 71.9902 117.19C69.8702 117.26 67.8001 118.11 65.6201 117.22C64.9401 116.94 63.8698 117.43 63.0498 117.74C61.3998 118.36 59.7998 118.83 58.0098 118.15C57.5698 117.98 56.8498 118.53 56.2598 118.74C54.6198 118.47 52.9701 118.2 51.3301 117.93C48.4801 117.22 45.6602 116.46 42.7402 117.81C41.9802 118.16 40.9601 117.95 40.0601 117.99C37.0201 118.25 33.89 119.07 30.96 118.61C27.47 118.06 23.8502 116.99 21.4702 113.86C21.8202 112.12 21.7 110.08 24.25 109.9H24.23Z" fill="#80B6E0"/>
<path d="M78.6099 68.53C80.4699 68.97 81.8702 68.04 83.2402 67C85.2102 67.95 86.6998 69.96 89.2998 69.63C89.5998 69.59 90.2799 70.77 90.3999 71.45C90.8899 74.29 90.2298 76.84 88.0298 78.86C86.1998 78.91 84.4601 78.78 82.8501 80.26C81.0801 81.88 78.4401 81.54 76.3901 81.17C73.2801 80.61 70.5702 80.66 67.4702 81.59C65.0102 82.33 62.0501 81.33 59.3101 81.24C56.4001 81.14 53.5298 80.58 50.5698 81.12C48.9798 81.41 47.2298 80.62 45.5498 80.58C41.3398 80.47 37.1202 81.35 32.9102 80.14C31.9202 79.86 30.6798 80.55 29.5498 80.67C26.8198 80.95 25.47 78.65 23.52 77.49C23.64 74.67 25.1399 74.04 27.6299 73.14C33.0499 71.18 38.7602 71.64 44.1602 70.13C46.5802 69.83 49.1402 70.96 51.4302 69.4C51.6802 69.44 51.8998 69.37 52.0898 69.22C53.6998 69.26 55.3102 69.3 56.9102 69.34C57.7802 69.55 58.66 69.96 59.52 69.92C61.85 69.83 64.1702 69.56 66.4902 69.36C67.8802 68.84 69.2599 68.33 70.6499 67.81C70.7999 67.81 70.9601 67.79 71.1001 67.75C73.3701 70.17 75.9501 69.7 78.6001 68.54L78.6099 68.53Z" fill="#0197D1"/>
<path d="M89.6499 96.4298C88.8999 94.4598 87.8902 93.2398 85.4902 94.4198C84.8302 94.7498 83.7799 94.3298 82.9199 94.2098C80.6699 93.8898 78.4299 93.3598 76.1699 93.2798C75.1199 93.2398 74.0398 94.0498 72.5898 94.6398C72.1798 94.3498 71.4499 93.8398 70.6499 93.2698C70.3399 93.3998 69.9601 93.5098 69.6401 93.7098C67.9101 94.7498 66.3099 96.4898 64.1099 94.5098C63.9299 94.3398 63.4098 94.4898 63.0698 94.5598C60.4098 95.1598 57.7199 95.6698 55.1099 96.4498C53.5199 96.9198 52.1699 97.0098 50.6699 96.1598C49.9399 95.7398 48.9098 95.6698 48.0298 95.7198C45.9498 95.8598 43.8798 96.1598 41.7998 96.3998C39.1298 96.1198 36.46 95.8498 33.79 95.5698C31.73 95.2898 29.6801 94.9698 27.6201 94.7598C24.6401 94.4498 21.6402 94.3098 18.6802 93.9198C17.8502 93.8098 17.09 93.1298 15.77 92.4298C16.58 91.4998 17.0801 90.3998 17.8301 90.1698C21.7701 88.9998 25.6199 87.5498 29.9399 87.9398C32.0499 88.1298 34.3099 87.3798 36.3999 86.7498C37.9799 86.2698 39.4199 86.3898 40.9199 86.7798C42.9399 86.9998 45.0402 87.6698 46.9502 87.3198C49.4202 86.8598 51.7099 86.6098 54.1499 87.3898C55.8999 87.9498 57.7399 87.8798 59.3799 86.7898C60.1399 86.5198 60.8999 86.2498 61.6499 85.9698C62.1499 86.0898 62.7501 86.0698 63.1401 86.3398C65.9601 88.3198 68.6301 87.1598 71.3101 86.0198C75.1101 85.9698 79 86.5298 82.5 84.3898C84.3133 85.7165 86.1698 85.7365 88.0698 84.4498C88.2998 84.3898 88.53 84.3598 88.77 84.3698C90.17 84.6698 91.65 84.7798 92.96 85.3198C95.89 86.5298 96.45 88.7598 95.27 91.7698C94.48 93.7798 92.97 94.7198 91.27 95.6098C90.74 95.8798 90.2102 96.1498 89.6802 96.4198L89.6499 96.4298Z" fill="#A7CC93"/>
<path d="M56.25 118.73C56.84 118.51 57.56 117.97 58 118.14C59.79 118.82 61.38 118.35 63.04 117.73C63.87 117.42 64.9299 116.94 65.6099 117.21C67.7999 118.09 69.87 117.24 71.98 117.18C71.51 119.83 73.7498 120.11 75.3198 120.96C74.8098 121.01 74.2898 121.14 73.7798 121.11C72.2698 121.02 70.8802 121.09 70.4902 122.96C70.1002 124.84 68.47 126.9 71.23 128.35C71.3 131.31 70.8002 134.38 72.9702 136.91C70.0902 135.65 67.17 136.05 64.77 137.72C62.14 139.54 59.9199 140.12 57.4199 137.79C57.0499 137.44 56.5098 137.28 56.0498 137.03C57.5998 131.5 58.8198 125.97 56.0298 120.44C56.0998 119.87 56.1702 119.31 56.2402 118.74L56.25 118.73Z" fill="#F4CE87"/>
<path d="M40.04 117.99C40.94 117.94 41.9602 118.16 42.7202 117.81C45.6402 116.47 48.46 117.23 51.31 117.93C50.56 119.4 49.2302 118.46 48.1802 118.68C45.8702 117.74 43.3299 118.24 41.1899 120.16C42.1499 121.01 43.0998 121.86 44.0498 122.7C43.7598 127.22 43.4702 131.74 43.1802 136.26C41.7602 134.95 40.6702 135.81 39.9702 136.99C38.9002 138.8 37.3799 139.48 35.3999 139.47C33.4299 139.53 31.5399 139.55 29.9399 137.98C29.3699 137.41 28.2899 137.35 27.4399 137.06C26.5799 135.38 27.4098 133.79 27.8398 132.25C29.5298 126.14 31.4902 120.22 39.2402 119.42C39.5502 119.39 39.77 118.49 40.04 118V117.99Z" fill="#80B7E0"/>
<path d="M43.1802 136.26C43.4702 131.74 43.7598 127.22 44.0498 122.7C45.4298 121.93 46.8002 121.16 48.1802 120.38C50.8102 119.7 53.42 120.61 56.04 120.43C58.83 125.96 57.6001 131.49 56.0601 137.02C55.1701 137.83 54.5499 138.88 52.9399 138.68C51.1599 138.46 49.2698 138.51 47.5098 138.85C45.1098 139.32 43.8302 138.44 43.1802 136.25V136.26Z" fill="#70B459"/>
<path d="M72.9702 136.91C70.8002 134.38 71.31 131.31 71.23 128.35C70.43 124.61 70.5299 124.45 73.8999 122.63C74.6699 122.21 75.33 121.59 76.04 121.06C76.33 120.84 76.6299 120.62 76.9199 120.4C78.9999 120.67 81.0899 120.94 83.1699 121.21C85.2699 124.8 84.7301 128.6 83.8901 132.34C83.3101 134.94 81.5698 136.06 78.8598 136.34C77.6998 136.46 76.4702 136.72 75.4702 137.28C74.3902 137.89 73.7402 137.42 72.9702 136.9V136.91Z" fill="#D93A34"/>
<path d="M93.6602 37.43C90.7602 39.86 87.4802 40.05 83.9902 39.1C82.6602 38.74 81.4601 38.31 79.8901 38.85C78.5401 39.32 76.76 38.93 75.27 38.53C72.5 37.78 69.8402 37.71 67.2002 38.92C68.4202 37.19 69.6601 36.36 72.1401 36.94C74.0901 37.4 76.38 36.41 78.04 38.57C80.02 36.76 81.8299 36.21 84.1499 37.8C84.9099 38.32 86.6602 37.42 87.9302 36.88C89.2002 37.15 90.2902 39.15 91.9502 37.37C92.5202 37.39 93.0902 37.41 93.6602 37.44V37.43Z" fill="#51B7DF"/>
<path d="M88.0298 78.86C90.2198 76.84 90.8899 74.29 90.3999 71.45C90.2799 70.77 89.5998 69.59 89.2998 69.63C86.6998 69.96 85.2202 67.95 83.2402 67C83.1102 66.65 82.99 66.29 82.71 65.53C84.46 64.93 86.24 64.32 88.02 63.71C88.03 64 88.0401 64.29 88.0601 64.58C87.7801 66.03 88.4402 67.05 89.4702 67.99C91.3802 69.73 92.7401 71.6 91.3501 74.42C90.9401 75.25 91.29 76.45 91.29 77.72C90.14 78.12 89.09 78.49 88.04 78.86H88.0298Z" fill="#8EC9E7"/>
<path d="M91.2402 95.6198C92.9402 94.7298 94.4502 93.7898 95.2402 91.7798C96.4202 88.7698 95.8502 86.5398 92.9302 85.3298C91.6302 84.7898 90.1402 84.6798 88.7402 84.3798C91.1102 82.2698 92.9102 82.2398 94.6602 84.3498C95.3302 85.1498 95.83 86.0798 96.48 86.8998C97.05 87.6198 97.71 88.2598 98.21 88.8098C97.98 90.1298 97.7898 91.2698 97.5898 92.4098C96.4998 93.4498 95.4002 94.4798 94.2002 95.6198H91.23H91.2402Z" fill="#B7D5A6"/>
<path d="M100.01 114.71C102.5 113.73 104.27 112 105.26 109.34C104 105.68 100.46 106.52 97.5801 105.95C98.1501 105.26 98.7199 104.57 99.3999 103.75C100.89 104.33 102.4 104.72 103.69 105.47C106.15 106.9 107.3 109.59 106.24 112.14C105.79 113.24 104.31 114.1 103.1 114.65C102.23 115.04 101.05 114.72 100 114.72L100.01 114.71Z" fill="#8FBFE4"/>
<path d="M76.9197 120.4C76.6297 120.62 76.3298 120.84 76.0398 121.06C75.7998 121.02 75.5596 120.98 75.3196 120.96C73.7496 120.1 71.5197 119.83 71.9797 117.18C74.2697 116.91 76.5596 116.58 78.8596 116.42C79.5096 116.38 80.1896 116.86 80.8596 117.1C80.8396 117.41 80.8298 117.72 80.8098 118.02L76.9197 120.4Z" fill="#F7F2F2"/>
<path d="M59.3599 86.7999C57.7199 87.8899 55.8799 87.9599 54.1299 87.3999C51.6899 86.6199 49.4102 86.8699 46.9302 87.3299C45.0202 87.6799 42.9199 87.0099 40.8999 86.7899C41.3199 86.5299 41.8201 85.9699 42.1401 86.0599C45.5001 86.9999 48.7598 85.8599 52.0698 85.7399C53.1498 85.6999 54.2498 86.3199 55.5698 86.6999C56.1198 86.3199 56.86 85.8099 58.21 84.8699C58.57 85.4699 58.9601 86.1299 59.3501 86.7899L59.3599 86.7999Z" fill="#BBD8AC"/>
<path d="M88.0601 64.5698C88.0501 64.2798 88.04 63.9898 88.02 63.6998C88.81 62.6698 89.6601 61.6798 90.3901 60.6198C92.4501 57.6298 92.4301 57.6198 90.3701 54.4998C90.1801 54.2098 90.0198 53.8998 89.7798 53.4998C90.3198 53.1298 90.7299 52.8398 91.1499 52.5498C91.9999 54.5898 92.8501 56.6298 93.8101 58.9398C91.4501 60.3998 91.7501 64.3698 88.0601 64.5698Z" fill="#99C5E6"/>
<path d="M91.2402 95.6199H94.21C95.42 94.4799 96.5101 93.4399 97.6001 92.4099C97.2101 94.1299 96.8302 95.8399 96.4502 97.4899C94.2102 97.7399 92.1402 96.0999 90.4102 97.9899C90.1602 97.4699 89.8999 96.9499 89.6499 96.4299C90.1799 96.1599 90.7102 95.8899 91.2402 95.6199Z" fill="#D9E9D1"/>
<path d="M82.48 84.4099C78.98 86.5499 75.09 85.9999 71.29 86.0399C70.2 86.0299 69.1098 86.0199 68.0298 86.0099C70.2298 85.0699 72.2602 83.9599 74.9502 84.9399C76.3002 85.4299 78.19 84.6099 79.79 84.1799C80.78 83.9199 81.6802 83.0799 82.4902 84.4099H82.48Z" fill="#BCD9AD"/>
<path d="M33.7998 95.5798C36.4698 95.8598 39.1401 96.1298 41.8101 96.4098C40.4301 96.9398 39.0899 97.7498 37.6699 97.9398C35.6199 98.2098 33.5102 98.0398 31.4302 98.0498C32.6002 97.6198 33.7599 97.1998 34.8799 96.7898C34.5799 96.4498 34.1898 96.0098 33.7998 95.5698V95.5798Z" fill="#F5F2E2"/>
<path d="M93.6602 37.4299C93.0902 37.4099 92.5202 37.3899 91.9502 37.3599C95.3002 35.8999 100.08 36.6899 101.94 39.1499C102.35 39.6899 102.24 40.6399 102.36 41.3999C100.77 41.0399 100.73 38.1699 98.4199 38.9899C96.8299 38.4699 95.2402 37.9499 93.6602 37.4299Z" fill="#6CC2E4"/>
<path d="M27.4399 137.05C28.2899 137.34 29.3699 137.4 29.9399 137.97C31.5299 139.55 33.4299 139.52 35.3999 139.46C33.9299 140.18 32.47 140.91 30.54 141.86C29.5 140.24 28.4699 138.64 27.4399 137.04V137.05Z" fill="#ABCFEA"/>
<path d="M93.6001 50.9299C96.0101 50.1599 98.4298 49.3799 100.84 48.6099C100.13 49.9599 99.4102 51.3099 98.6602 52.7299C96.7702 52.0599 95.1901 51.4899 93.6001 50.9299Z" fill="#7CC9E7"/>
<path d="M97.5898 105.94C95.3098 107.18 93.0201 108.14 90.3301 107.16C89.3801 106.81 88.2702 106.89 87.2402 106.77C87.2402 106.51 87.2402 106.25 87.2402 105.98C88.5802 105.75 89.9198 105.53 91.2598 105.3C91.9698 105.71 92.6701 106.44 93.3901 106.46C94.7901 106.5 96.1898 106.13 97.5898 105.94Z" fill="#8FBFE4"/>
<path d="M68.0298 86.0097C69.1198 86.0197 70.21 86.0297 71.29 86.0397C68.61 87.1697 65.9501 88.3297 63.1201 86.3597C62.7301 86.0897 62.1299 86.0998 61.6299 85.9898C62.4799 84.6698 63.5799 85.2897 64.6899 85.5397C65.7799 85.7797 66.91 85.8698 68.02 86.0198L68.0298 86.0097Z" fill="#BBD8AC"/>
<path d="M98.4199 38.9799C100.73 38.1599 100.78 41.0299 102.36 41.3899C102.62 42.7099 102.89 44.0299 103.15 45.3499C102.64 45.3699 102.13 45.3799 101.62 45.3999C101.64 42.7099 100.22 40.7499 98.4102 38.9699L98.4199 38.9799Z" fill="#36ADDB"/>
<path d="M76.9199 120.4C78.2199 119.61 79.5101 118.82 80.8101 118.02C81.6001 119.08 82.3799 120.15 83.1699 121.21C81.0899 120.94 78.9999 120.67 76.9199 120.4Z" fill="#EDA5A2"/>
<path d="M56.9199 69.32C55.3099 69.28 53.7001 69.24 52.1001 69.2C51.8401 68.72 51.5798 68.24 51.3198 67.76C52.9198 67.5 54.5199 67.22 56.1299 67.03C56.3699 67 56.6599 67.46 56.9199 67.69C56.9199 68.23 56.9199 68.78 56.9199 69.32Z" fill="#D0E8F5"/>
<path d="M88.04 84.4699C86.14 85.7632 84.2835 85.7432 82.4702 84.4099C84.3302 84.4299 86.18 84.4499 88.04 84.4699Z" fill="#BCD9AD"/>
<path d="M101.63 45.4099C102.14 45.3899 102.65 45.3799 103.16 45.3599C103.3 46.0699 103.44 46.7799 103.61 47.6599C102.67 47.9699 101.75 48.2799 100.82 48.5899C101.09 47.5299 101.36 46.4699 101.63 45.4099Z" fill="#6CC3E4"/>
<path d="M51.4399 69.3899C49.1499 70.9599 46.5899 69.8299 44.1699 70.1199C45.8999 69.2999 49.4199 68.9399 51.4399 69.3899Z" fill="#B9E1F1"/>
<path d="M56.9199 69.3198C56.9199 68.7798 56.9199 68.2298 56.9199 67.6898C59.8399 66.9398 62.7699 66.3098 65.6899 67.6898C65.9599 68.2398 66.2302 68.7898 66.4902 69.3498C64.1702 69.5498 61.85 69.8198 59.52 69.9098C58.66 69.9398 57.7802 69.5298 56.9102 69.3298L56.9199 69.3198Z" fill="#DEF0F8"/>
<path d="M78.6099 68.5299C75.9599 69.6899 73.3799 70.1499 71.1099 67.7399C73.8299 65.8899 76.2199 67.2599 78.6099 68.5299Z" fill="#BFE2F2"/>
<path d="M59.3701 50.25C60.6501 50.52 61.93 50.79 63.21 51.06C60.26 52.92 59.5998 53 56.0098 51.78C57.2798 51.2 58.3201 50.73 59.3701 50.25Z" fill="#F3F9FC"/>
<path d="M66.5 69.3498C66.23 68.7998 65.9602 68.2498 65.7002 67.6898C66.4402 67.4498 67.1702 67.1098 67.9302 66.9998C68.9202 66.8598 70.0702 66.4498 70.6602 67.7998C69.2702 68.3198 67.89 68.8298 66.5 69.3498Z" fill="#EBF6FB"/>
<path d="M65.0001 51.63C66.3001 51.41 67.5902 51.2 68.8902 50.98C67.9502 52.75 66.1901 53.53 64.7901 52.73C64.6901 52.67 64.9298 52.01 65.0098 51.63H65.0001Z" fill="#C5E2F2"/>
<path d="M87.25 105.98C87.25 106.24 87.25 106.5 87.25 106.77C83.51 107.96 79.77 107.97 76.04 106.73C76.59 106.37 77.4799 105.58 77.6299 105.7C78.6099 106.51 79.4999 107.12 80.6699 106.07C82.8899 107.6 85.06 105.29 87.27 105.98H87.25Z" fill="#ABBFBE"/>
<path d="M56.04 120.44C53.42 120.62 50.8002 119.71 48.1802 120.39C48.1802 119.82 48.1802 119.26 48.1802 118.69C49.2302 118.47 50.5601 119.41 51.3101 117.94C52.9501 118.21 54.6002 118.48 56.2402 118.75C56.1702 119.32 56.0998 119.88 56.0298 120.45L56.04 120.44Z" fill="#E3EEE4"/>
<path d="M75.3196 120.96C75.5596 120.99 75.7998 121.02 76.0398 121.06C75.3298 121.59 74.6697 122.21 73.8997 122.63C70.5297 124.45 70.4298 124.61 71.2298 128.35C68.4698 126.9 70.1 124.84 70.49 122.96C70.88 121.09 72.2696 121.02 73.7796 121.11C74.2896 121.14 74.7996 121.02 75.3196 120.96Z" fill="#E26F55"/>
<path d="M3.0802 87.2099C3.0802 68.7699 2.93006 50.3298 3.19006 31.8998C3.25006 27.4998 4.09002 22.8898 5.65002 18.7798C8.05002 12.4898 12.1803 7.13984 18.6803 4.52984C21.1503 3.53984 24.1403 3.70985 26.9103 3.59985C31.0903 3.43985 35.2903 3.45985 39.4703 3.45985C46.4203 3.45985 53.3702 3.52985 60.3302 3.51985C66.3302 3.50985 72.34 3.32985 78.34 3.37985C84.74 3.42985 91.1399 3.57985 97.5299 3.82985C104.14 4.08985 108.02 8.45984 110.11 13.8998C112.02 18.8798 112.57 24.3898 113.67 29.6798C113.8 30.2998 113.83 31.0299 113.66 31.6299C111.45 39.1799 112.86 46.9098 112.61 54.5398C112.35 62.5898 112.67 70.6598 112.79 78.7198C112.87 84.0998 113.11 89.4699 113.17 94.8499C113.24 100.75 113.16 106.65 113.2 112.55C113.26 120.83 113.31 129.11 113.49 137.39C113.62 143.31 112.2 148.62 109.65 154.09C107.04 159.69 102.85 159.91 98.1603 159.87C87.2303 159.79 76.3103 159.5 65.3903 159.28C51.8503 159.01 38.2999 158.74 24.7599 158.44C22.1299 158.38 19.4203 158.49 16.8903 157.92C12.8003 157 8.62016 155.91 6.54016 151.56C4.15016 146.55 2.43989 141.46 2.50989 135.74C2.68989 119.56 2.56994 103.38 2.56994 87.2099C2.73994 87.2099 2.9102 87.2099 3.0802 87.2099ZM91.4801 48.2198C92.5001 44.6598 92.0802 43.9198 88.7902 43.9198C74.0402 43.9198 59.2799 43.9298 44.5299 43.9398C37.8299 43.9398 31.1402 43.9398 24.3702 43.9398V48.2198H91.4703H91.4801ZM45.9103 128.79C41.0603 129.31 43.5099 125.43 42.2799 123.86H32.17V129.48H56.0402V123.53C52.5802 123.76 49.4203 123.97 46.4303 124.17C46.2203 126.05 46.08 127.33 45.92 128.79H45.9103ZM25.2902 115.63C27.3402 115.39 29.1701 114.99 31.0001 114.98C42.2401 114.93 53.4701 114.96 64.7101 114.99C72.8801 115.02 81.0503 115.1 89.2203 115.14C89.7403 115.14 90.3801 115.22 90.7701 114.96C91.2401 114.66 91.8299 113.98 91.7599 113.57C91.6899 113.15 90.8803 112.52 90.4103 112.53C85.1903 112.63 79.9801 112.95 74.7701 112.98C62.3301 113.05 49.8903 113 37.4503 113C33.4003 113 29.3401 113 24.9801 113C25.1101 114.08 25.1902 114.8 25.2902 115.62V115.63ZM63.2999 55.2798C63.7299 58.4998 64.1399 61.5698 64.5499 64.6298H71.36C71.22 61.3698 71.0903 58.4198 70.9503 55.2798H63.2999ZM60.2003 105.48H76.7101V101.33C74.3301 101.47 72.1601 100.58 70.2301 102.52C69.7401 103.01 67.8402 102.99 67.3702 102.48C65.1002 100.03 62.6401 101.44 60.2101 101.5V105.49L60.2003 105.48ZM62.7404 80.4798C63.0304 77.8198 63.3 75.2799 63.59 72.6599H55.5802V80.4798H62.7501H62.7404ZM45.0602 64.8598H50.1603C50.5303 61.4398 50.8601 58.3998 51.2301 54.8998C49.1001 55.1698 47.0102 55.4398 45.0602 55.6998V64.8698V64.8598ZM69.8903 129.59C69.4003 127.46 68.9702 125.6 68.5602 123.81H60.2799V129.59H69.8903ZM75.0602 123.76C74.4502 125.94 73.9801 127.65 73.4801 129.44H83.09C83.26 127.47 83.4102 125.72 83.5802 123.76H75.0602ZM67.5099 80.1299H77.5602C77.7502 77.4599 77.9202 75.1399 78.1002 72.6299H74.1202C73.5869 77.3032 71.8436 79.4898 68.8903 79.1898C68.7503 77.3598 68.69 75.4199 68.4 73.5199C68.34 73.0999 67.4704 72.8098 66.4904 72.1198C66.9004 75.3398 67.1999 77.6698 67.5099 80.1198V80.1299ZM77.5699 88.3698C75.1299 88.2098 72.9801 88.0599 70.7701 87.9099V93.5499H76.9703C77.1703 93.0899 77.2701 92.9699 77.2701 92.8499C77.3601 91.5499 77.4499 90.2398 77.5699 88.3698ZM31.17 63.9298C35.15 65.2298 35.6103 63.8498 34.4303 56.6798H30.2203C30.5603 59.2398 30.87 61.6398 31.17 63.9298ZM57.0201 64.7998C59.1801 64.5898 59.1302 64.5898 59.3702 62.9998C59.7302 60.5198 60.1602 58.0598 60.6002 55.3598H56.3502C56.5802 58.6498 56.8001 61.7198 57.0201 64.7898V64.7998ZM46.1202 73.3799C46.3102 75.4799 46.5399 77.9198 46.7799 80.5398H50.7404C50.8904 77.8998 51.04 75.3299 51.17 73.0999C49.42 73.1999 47.78 73.2899 46.13 73.3799H46.1202ZM36.7799 94.1798V88.7198C34.7199 88.9498 32.8601 89.1598 30.7701 89.3898C31.0601 91.3098 31.2704 92.7098 31.4904 94.1798H36.7799ZM29.9601 79.5699H35.0201C35.7601 75.6599 35.3602 74.4998 33.3702 74.3098C31.5702 74.1398 30.1501 76.3399 29.9601 79.5699ZM30.2003 102.28C30.3703 104.07 30.5 105.41 30.65 106.92C32.67 106.62 34.1403 106.4 35.6403 106.17C35.5603 104.71 35.4903 103.55 35.4103 102.28H30.2003ZM56.13 101.29H53.0699C52.8199 102.88 52.61 104.24 52.34 105.98C54 105.69 55.2203 105.49 56.3903 105.28C56.2903 103.72 56.2102 102.58 56.1202 101.29H56.13ZM74.9103 64.6398C75.7103 64.2998 76.63 64.1198 76.65 63.8498C76.93 60.9098 77.2701 57.9298 76.4801 55.0898L75.4503 55.1198C75.2803 58.0698 75.1103 61.0198 74.9103 64.6298V64.6398ZM44.8302 100.32C45.0202 102.47 44.9801 103.66 45.2701 104.77C45.6101 106.08 46.9702 106.52 47.6002 105.49C48.1802 104.54 48.0204 102.95 47.7404 101.75C47.6304 101.25 46.35 101.03 44.84 100.32H44.8302Z" fill="black"/>
</svg>
