<svg width="163" height="130" viewBox="0 0 163 130" fill="none" xmlns="http://www.w3.org/2000/svg">
<path d="M156.3 82.2401C157.21 78.7701 158 75.7701 160.47 73.5401C162.94 71.3101 163.21 68.0801 161.18 64.9001C159.54 62.3201 157.91 59.6101 156.21 56.6601C156.17 56.5601 156.12 56.2301 156.09 56.0101C156.04 55.6801 155.99 55.3502 155.91 55.0302C154.69 49.8602 152.99 44.5801 147.03 41.8801C146.67 41.7101 146.29 41.4501 145.87 41.1301C148.51 34.3001 149.32 28.0301 148.39 21.6001L151.83 19.6601L150.66 17.5001C148.62 13.7401 145.54 12.1301 142.81 10.7001C142.6 10.5901 142.38 10.4801 142.17 10.3701L145.38 6.53015L143.57 4.9201C140.43 2.12011 137.41 3.11013 135.47 3.88013L135.27 0.350098L132.51 0.820129C132.18 0.880129 131.88 0.900115 131.59 0.930115C130.72 1.01011 129.74 1.09012 128.82 1.75012C126.89 3.13012 124.96 4.57012 123.06 6.00012C121.2 7.39012 119.28 8.83014 117.35 10.2101C113.71 12.8201 112.2 16.5801 110.86 19.9001C110.37 21.1301 109.86 22.4001 109.27 23.5201C105.77 30.2201 107.19 33.2801 111.94 38.0201C112.22 38.3001 112.49 38.6001 112.76 38.9101C113.4 39.6301 114.13 40.4501 115.08 41.1101C116.07 41.8001 117.15 42.2901 118.13 42.7301C118.56 42.9201 118.98 43.1201 119.4 43.3301C119.76 43.5101 120.13 43.6901 120.5 43.8601C120.72 43.9601 120.93 44.0601 121.11 44.1501C116.48 45.8101 114.84 47.2901 111.1 52.1001C110.33 53.0901 109.58 54.1001 108.82 55.1401C108.02 56.2301 107.19 57.3501 106.34 58.4301L106.07 58.7802C105.79 59.1402 105.6 59.3702 105.46 59.5302C102.43 59.6902 100.96 61.6101 99.8501 63.0701C99.6801 63.2901 99.5101 63.5101 99.3301 63.7401C98.9901 64.1601 98.0599 64.5601 97.1599 64.9501C96.3299 65.3101 95.4 65.7102 94.54 66.2802C93.48 66.9902 92.9801 68.0601 92.5701 68.9301C92.4401 69.2101 92.2999 69.5201 92.1299 69.8201L90.46 72.7301L96.1799 74.0801C96.1599 74.1401 96.1499 74.1901 96.1299 74.2501C95.6299 76.0001 94.8899 78.6601 96.6299 81.5901L97.96 83.8201L103.78 80.0601C107.01 82.4401 108.65 82.3501 111.28 80.2001C111.34 81.9501 111.35 83.6101 111.13 85.1601C110.63 88.6201 109.95 92.1401 109.3 95.5501C108.8 98.1301 108.29 100.8 107.85 103.45L107.83 103.6C107.34 106.57 106.78 109.94 108.44 113.54L109.16 115.11L109.72 115.07C108.79 116.75 108.53 118.57 109.01 120.2C109.52 121.93 110.79 123.27 112.6 123.95C116.3 125.35 119.97 126.06 123.49 126.06C126.75 126.06 129.93 125.45 132.96 124.25C135.15 123.38 135.78 121.88 135.96 121.07C136.13 120.28 136.2 118.72 134.67 117.11C134.26 116.68 134.05 116.36 134.48 114.71C134.52 114.56 134.56 114.4 134.59 114.25L135.76 114.46C137.4 117.92 139.69 119.22 141.39 119.69C143.24 120.21 146.17 120.24 149.61 117.47C150.72 116.58 151.78 115.65 152.8 114.76L153.59 114.07C157.74 110.47 158.89 105.97 157.02 100.7C156.95 100.5 156.86 100.3 156.77 100.12C157.39 97.9001 157.05 95.8401 156.75 94.0001C156.58 92.9701 156.44 92.0701 156.45 91.2201C156.48 90.0901 156.02 89.1801 155.67 88.4801C155.59 88.3201 155.51 88.1701 155.45 88.0101L154.93 86.6801C155.48 85.2001 155.87 83.6901 156.26 82.2301L154.33 81.7101L156.26 82.2201L156.3 82.2401Z" fill="white"/>
<path d="M92.0801 60.0599L92.5901 57.1299H81.96C81.6 55.9899 80.93 54.8599 79.26 54.8999C77.38 54.9799 75.5799 55.1999 73.6799 55.4299L73.22 55.4899C72.38 54.8999 71.5299 54.2899 70.6299 53.6399C67.5899 51.4699 64.45 49.2199 61.24 47.0599L61.0701 46.9499C60.6601 46.6699 60.14 46.3199 59.54 46.0399C59.85 45.8799 60.17 45.7299 60.48 45.5799C62.01 44.8399 63.5901 44.0699 65.1001 43.0899C71.1901 39.1599 72.5201 35.0199 69.8301 28.3199C67.8801 23.4499 65.9101 19.2599 63.8301 15.5199C59.8101 8.29993 56.0801 6.5499 47.8401 8.0499C46.9201 8.2199 46.65 8.1899 45.99 7.4899C44.32 5.7499 41.78 4.98993 40.01 4.57993C38.28 4.16993 36.31 4.09989 34.02 4.34989L33.1799 4.43992C28.4699 4.93992 23.13 5.4999 19.49 10.5499C18.61 11.7699 17.71 12.9899 16.79 14.2199C15.35 16.1699 13.8499 18.1799 12.4399 20.2299C10.1999 23.4899 10.6 27.0499 13.47 29.3099C15.31 30.7599 17.1999 32.0499 19.1899 33.4199C19.6799 33.7599 20.19 34.0999 20.7 34.4599C20.6 35.4099 20.49 36.5299 20.47 37.6799L20.45 38.6399C20.37 41.4899 20.3099 43.9399 22.1799 45.6099C24.0499 47.2699 26.93 47.2399 30.97 46.6399C32.59 46.3999 34.2201 46.1399 35.8301 45.8699C34.0801 46.5099 32.4101 47.2299 30.8701 48.3199C26.8701 51.1399 23.3101 54.6199 19.8701 57.9899C17.0901 60.7099 14.4 63.5799 11.76 66.3899C10.64 67.5899 9.50988 68.7899 8.37988 69.9799L6.88989 71.5499L8.56006 73.6899L0.600098 79.1999L9.73999 82.6599L7.32007 88.6399L9.81006 89.4999C13.4601 90.7499 16.0099 89.2599 17.8799 88.1599C18.2399 87.9499 18.5999 87.7399 18.9199 87.5799L21.75 88.8299L24.4199 92.7799C24.3899 92.8299 24.3701 92.8799 24.3401 92.9399C23.7101 94.2099 22.99 95.6599 22.47 97.2199C22.2 98.0399 21.98 98.2899 20.98 98.5399C19.65 98.8599 18.57 99.5299 17.51 100.19C17.13 100.42 16.7401 100.67 16.3201 100.89L13.8601 102.22L15.46 104.52C15.97 105.26 16.4301 105.97 16.8701 106.66C17.9001 108.27 18.88 109.8 20.25 111.06C21.25 111.98 21.3 112.23 21.3 112.82C21.3 114.37 21.6399 115.87 21.9399 117.19L22.04 117.65C22.72 120.72 24.9199 122.65 27.9199 122.81C32.4099 123.06 35.88 121.69 38.22 118.75C39.23 117.48 40.1 116.18 40.79 115.15L40.8601 115.05C40.9001 114.99 40.95 114.92 40.99 114.86L44.8799 113.38C44.4899 116.3 44.1 119.24 43.72 122.18C43.5 123.89 44.27 125.97 45.73 127.58C46.98 128.97 48.5 129.74 50.01 129.74H50.1101C57.3701 129.57 63.3201 129.24 68.8401 128.69C70.8101 128.5 72.36 127.37 72.98 125.68C73.66 123.83 73.1 121.66 71.52 120.02C71.1 119.59 70.67 119.2 70.23 118.82C72.82 106.86 72.9599 96.6499 70.6599 86.8699C71.3599 86.4499 71.8101 85.9299 72.0901 85.4799C72.6901 84.5299 73.19 82.8799 72.2 80.4299C71.81 79.4599 71.43 78.4799 71.05 77.4999L71.8501 77.0499L74.52 80.4999L76.51 78.8799C76.82 78.6299 77.13 78.3799 77.45 78.1299C78.23 77.5099 79.0301 76.8699 79.8101 76.1699C79.8101 76.1699 79.8301 76.1499 79.8401 76.1399C81.0901 77.2399 83.2099 78.4699 85.8799 76.5199C87.3999 75.4199 88.9399 73.3499 87.6599 69.7599C87.3099 68.7599 86.9699 67.7599 86.6499 66.7799C86.9699 66.4999 87.37 66.2299 87.79 65.9299C89.37 64.8099 91.5401 63.2799 92.0901 60.0699L92.0801 60.0599Z" fill="white"/>
<path d="M149.64 88.8201C147.31 89.1101 144.94 89.19 142.67 89.73C136.25 91.25 129.76 90.2301 123.31 90.4001C120.23 90.4801 118.52 88.4301 118.5 85.4401C118.47 80.0001 118.01 74.4901 118.63 69.1201C119.24 63.8501 119.15 58.61 119.31 53.35C119.39 50.61 122.01 47.3801 124.66 46.7401C125.76 46.4701 127.03 46.2201 127.54 47.9001C127.69 48.4001 128.42 48.72 129.22 49.41C129.52 48 129.72 47.0401 129.91 46.1301C132.204 45.8501 133.924 44.9167 135.07 43.3301C137.41 43.6301 140.06 43.6501 142.49 44.4001C143.71 44.7801 144.51 46.4901 145.69 47.8101C147.88 47.3001 148.461 47.4401 149.601 50.0001C150.481 51.9801 151.241 54.1 151.581 56.23C152.231 60.31 152.55 64.4401 153.06 69.0101C146.2 68.4901 139.951 69.5801 133.621 68.3201C130.691 67.7301 127.39 67.6401 124.31 68.6801C124.68 70.3301 124.951 71.53 125.341 73.29C125.591 72.13 125.73 71.52 125.94 70.54C129.28 70.54 132.71 70.6401 136.13 70.5101C139.53 70.3801 142.92 69.9701 146.31 69.7601C147.87 69.6601 149.44 69.7401 151.16 69.7401C150.49 73.4101 149.93 76.6901 149.28 79.9601C148.94 81.6601 147.83 83.1701 149.47 85.0101C150.13 85.7501 149.57 87.5701 149.57 88.9001L149.64 88.8301V88.8201Z" fill="#5EB9B6"/>
<path d="M45.8706 90.67C43.9006 90.23 42.0206 90.95 40.1206 91.1C35.7406 91.44 31.2004 91.94 26.9404 89.31C26.1504 84.91 26.4304 80.41 27.4604 75.86C27.9204 73.85 27.5405 71.66 27.5405 69.31C28.5605 69.09 29.5204 68.89 30.7304 68.63C26.4404 67.52 28.9004 64.93 29.1404 62.85C29.3504 61.05 29.5105 59.25 29.7705 57.45C30.4205 52.93 33.1605 50.53 37.5705 49.77C38.9505 49.53 40.2904 49.03 41.7004 48.63C41.0004 46.83 40.8506 45.05 42.1206 43.41C42.6006 42.89 43.0905 42.38 43.5705 41.86C44.6105 41.59 45.6504 41.32 46.6904 41.04C46.7504 41.15 46.7903 41.3 46.8803 41.37C46.9603 41.44 47.1904 41.48 47.2104 41.45C48.2704 39.68 49.6505 39.96 51.0605 40.89C51.8805 41.43 52.6106 42.1 53.3706 42.72C54.1106 45.18 53.8604 47.35 51.1504 48.87C52.4604 49.69 53.7804 50.11 54.4104 51.01C55.1004 52 55.1404 53.43 55.4704 54.67C56.4504 58.41 57.7205 62.12 56.8005 66.37C54.9505 66.46 53.0306 66.55 51.1106 66.65C51.1006 66.83 51.0805 67.01 51.0705 67.2H57.6804V71.13C56.7404 71.25 55.8705 71.37 55.0005 71.48C54.9805 71.59 54.9704 71.7 54.9504 71.82C55.8404 72 56.7204 72.18 57.6804 72.38C57.8204 75.06 58.7005 77.52 58.0105 80.32C57.5505 82.17 58.4504 84.36 58.7404 86.4C57.8904 86.98 57.0504 87.56 56.2004 88.14C52.4704 87.85 48.9706 88.47 45.8606 90.69L45.8706 90.67Z" fill="#D98FB7"/>
<path d="M56.2107 88.1304C57.0607 87.5504 57.9007 86.9704 58.7507 86.3904C60.0107 85.6404 61.2708 84.8804 62.5308 84.1304L67.7507 84.9904C67.8907 86.9404 68.2908 88.9104 68.1208 90.8204C67.4908 97.8504 66.7608 104.88 65.8608 111.88C65.5608 114.2 66.2907 116.32 66.7507 118.45C64.9407 119.79 62.4707 119.88 61.9307 122.28C61.2907 118.75 59.7006 117.89 56.6306 119.26C55.2506 119.88 53.7608 120.26 52.3208 120.75C51.4308 120.89 50.5407 121 49.6707 121.18C47.3907 121.64 46.3608 120.75 46.8008 118.5C47.3308 115.84 48.0408 113.22 48.6108 110.56C48.8908 109.25 49.0207 107.9 49.2307 106.55C46.2907 106.39 46.2607 110.03 43.7007 109.65C43.1707 109.63 42.6408 109.65 42.1108 109.57C39.7608 109.23 39.7707 109.17 39.9907 106.64C40.2807 103.4 41.8307 101.16 45.2207 100.29C44.4907 99.1403 44.0108 98.2203 43.3708 97.4203C42.6508 96.5203 41.6507 96.4203 41.2307 97.6003C40.4907 99.6803 39.1308 99.8004 37.3308 99.3004C36.2608 99.0004 35.5008 99.3504 35.5208 100.64C35.2508 100.7 34.9807 100.77 34.7207 100.83C33.3607 101.1 32.0006 101.38 30.6406 101.65C28.3706 101.51 26.4007 102.09 24.9707 103.99C23.7007 103.99 22.1608 105.27 21.3408 103.2C22.3108 102.29 23.2807 101.38 24.2507 100.47C24.7407 100.03 25.2307 99.5804 25.7207 99.1404C26.0707 99.0104 26.6207 98.9803 26.7607 98.7203C28.5807 95.4203 31.1508 93.3704 35.0908 93.4004C35.2308 93.4004 35.3808 93.0104 35.5208 92.8104C37.7708 92.5704 40.0307 92.4004 42.2607 92.0604C43.4807 91.8704 44.6608 91.3904 45.8508 91.0504C49.7108 91.5304 52.8807 89.6004 56.1907 88.1204L56.2107 88.1304Z" fill="#80B7E1"/>
<path d="M46.7104 41.0402C45.6704 41.3102 44.6305 41.5802 43.5905 41.8602C43.2905 41.3702 43.0304 40.8502 42.6804 40.4102C42.4104 40.0702 42.0304 39.8202 41.7004 39.5302C39.9404 39.8802 38.0604 39.9502 36.4504 40.6502C33.1704 42.0702 29.8304 41.8702 26.2104 41.7602C25.8504 38.1302 25.8504 34.6602 26.2104 30.9702C24.5404 30.2002 22.4603 29.2502 20.4003 28.2902C20.0503 28.1302 19.6804 27.9402 19.4104 27.6802C15.3804 23.7502 15.5906 24.3102 18.3606 20.3502C20.1406 17.8002 21.9303 15.2602 23.6503 12.6702C25.8003 9.44018 29.0106 8.4902 32.6206 8.3802C34.6106 8.3202 36.6005 8.3302 38.5905 8.3802C42.8705 8.4802 44.2805 10.2602 43.3305 14.3702C43.2205 14.8402 42.9005 15.2702 42.7905 15.4902C44.8005 17.4002 46.5205 19.2802 48.5105 20.8402C50.0605 22.0602 49.9004 23.5502 49.9204 25.1302C49.9304 26.5402 49.3005 27.2702 47.8605 27.5302C45.9905 27.8602 44.1505 28.3802 42.0105 28.8802C42.4105 29.8802 42.5104 30.6902 42.9604 31.1702C44.5704 32.9102 45.3703 34.8602 45.1503 37.2502C45.0603 38.2602 45.6403 38.6902 46.6503 38.4502C46.6703 39.3202 46.6904 40.1902 46.7204 41.0602L46.7104 41.0402Z" fill="#DB763B"/>
<path d="M149.571 88.8803H151.991V98.1803C151.071 98.3103 150.341 98.4203 149.621 98.5303C145.901 97.9903 143.721 100.03 142.141 103.04C141.681 103.92 141.251 104.82 140.811 105.71C140.141 107.14 139.461 108.56 138.681 110.22H135.291V96.5903C131.991 99.5403 132.831 103.22 132.131 106.35C131.401 109.63 131.321 113.06 130.941 116.61C130.501 116.64 129.881 116.89 129.541 116.68C127.211 115.21 124.831 114.22 121.981 113.99C120.621 113.88 119.021 113.46 117.601 112.18C116.301 111 113.711 111.22 111.431 110.77C110.811 103.41 112.731 96.2503 113.961 88.8003C115.051 88.9403 116.321 88.7103 116.751 89.2103C119.341 92.2203 122.991 91.6103 126.191 91.9303C130.531 92.3603 134.951 91.8403 139.321 92.1003C142.591 92.3003 145.441 91.0503 148.421 90.2303C148.921 90.0903 149.241 89.2903 149.641 88.8003L149.571 88.8703V88.8803Z" fill="#EFB445"/>
<path d="M46.7102 41.04C46.6902 40.17 46.6701 39.3 46.6401 38.43C47.7901 37.59 48.9202 36.93 47.7502 35.11C46.7402 33.53 46.2401 31.63 45.4201 29.63C47.2401 29.07 48.6101 28.75 49.9001 28.24C52.1801 27.33 52.9303 25.7101 51.8503 23.5301C51.0003 21.8101 49.8201 20.2301 48.6301 18.7001C47.7401 17.5601 46.5003 16.7 45.6103 15.56C44.6003 14.28 44.9902 12.4201 46.2202 11.7801C50.9902 9.28007 58.2802 12.23 60.2502 17.6C61.8402 21.94 63.4701 26.3001 64.6401 30.7701C66.0401 36.1101 64.5202 39.6601 58.5102 41.0801C56.7702 41.4901 55.0901 42.18 53.3801 42.75C52.6101 42.14 51.8803 41.46 51.0703 40.92C49.6603 39.98 48.2802 39.71 47.2202 41.48C47.2002 41.51 46.9701 41.4801 46.8901 41.4001C46.8001 41.3201 46.7602 41.1801 46.7002 41.0701L46.7102 41.04Z" fill="#DB763B"/>
<path d="M73.7605 70.6003C71.8005 72.5703 69.3405 72.6803 66.7305 73.0903C63.5905 73.5903 63.1305 69.8103 60.5405 70.3303C59.2205 63.4103 58.4505 56.5403 55.0205 49.9003C57.2205 49.9003 58.5106 49.7603 60.1006 50.6703C63.9906 52.9003 67.5205 55.4703 70.4905 58.8203C71.7005 60.1903 72.8105 60.7503 74.4805 59.2503C75.1905 58.6103 76.5504 58.7003 77.7104 58.4303C77.7904 59.5903 77.8304 60.2403 77.8804 60.8903C76.5104 64.1203 75.1505 67.3503 73.7805 70.5903L73.7605 70.6003Z" fill="#9FD1CF"/>
<path d="M104.091 67.3104C104.141 66.4004 104.181 65.4804 104.191 65.3104C106.051 63.6804 107.701 62.6204 108.831 61.1604C110.391 59.1304 111.571 56.8104 112.911 54.6004C113.741 53.2304 114.511 51.8004 116.761 52.4004C116.151 59.5004 115.541 66.6104 114.891 74.1504C112.341 76.7504 110.881 75.3704 107.351 72.1704C106.261 70.5504 105.171 68.9304 104.091 67.3104Z" fill="#E89163"/>
<path d="M15.5303 74.4502C14.9203 74.1002 14.3104 73.7502 13.3604 73.2102C13.0504 71.8302 13.5603 70.7302 14.7503 69.0402C16.8303 66.1002 20.0903 64.3602 21.7503 61.0002C22.6003 59.2702 24.2402 57.0802 27.4202 57.9902C28.1702 63.9702 25.9904 69.8102 25.8604 76.1702C23.8904 75.8702 22.1702 75.6202 20.4502 75.3602C18.8102 75.0602 17.1703 74.7502 15.5303 74.4502Z" fill="#9FD1CF"/>
<path d="M140.81 105.72C141.25 104.83 141.68 103.93 142.14 103.05C143.72 100.04 145.891 98.0102 149.621 98.5402C150.581 99.6002 151.45 100.78 152.54 101.7C153.76 102.74 153.88 104.11 153.51 105.29C152.98 106.95 152.2 108.67 151.08 109.98C149.75 111.54 148.06 112.87 146.32 113.98C144.6 115.07 142.77 114.3 141.17 113.38C139.72 112.55 140.01 111.45 140.55 110.01C141.03 108.73 140.76 107.16 140.82 105.72H140.81Z" fill="#80B7E1"/>
<path d="M30.6503 101.66C32.0103 101.39 33.3704 101.11 34.7304 100.84C35.5004 102.07 36.2205 103.34 37.0805 104.5C37.4905 105.06 38.1704 105.42 38.7304 105.87C38.7304 107.05 38.7304 108.23 38.7304 109.41C38.5004 109.52 38.1005 109.61 38.0705 109.76C37.4905 112.99 35.1703 114.35 32.4203 115.61C29.1603 117.1 27.6405 116.25 26.6005 112.81C25.1205 107.88 27.2503 104.64 30.6603 101.68L30.6503 101.66Z" fill="#FCFCFC"/>
<path d="M125.991 28.1602C127.521 31.7202 125.561 34.2203 123.931 36.5903C122.661 38.4503 118.661 38.2902 116.881 36.6302C115.821 35.6402 114.911 34.4703 113.781 33.5703C112.251 32.3603 111.531 30.7303 112.181 29.0703C113.191 26.4903 114.611 24.0502 116.031 21.6602C116.301 21.2002 117.381 21.2302 118.301 20.9702C118.551 24.1202 118.671 27.0903 120.271 29.8403C122.261 29.2503 124.151 28.7002 125.991 28.1602Z" fill="#FCEEE3"/>
<path d="M15.5306 74.4504C17.1706 74.7504 18.8105 75.0604 20.4505 75.3604C21.5405 75.8804 22.6405 76.3604 23.7105 76.9204C24.4705 77.3204 25.8406 77.8704 25.8106 78.2504C25.6006 80.5204 25.1606 82.7904 24.5506 84.9904C24.4306 85.4104 23.2406 85.5404 22.3106 85.8904C22.1006 84.6504 21.9305 83.6504 21.7205 82.4404C18.5105 83.3304 16.6107 87.1104 12.8607 86.3704C11.3607 83.8704 13.5307 82.7904 14.8607 81.1004C13.2707 80.2204 11.7105 79.4004 10.2005 78.5004C8.8905 77.7204 9.04064 77.2004 10.1006 76.0604C11.6506 74.3904 13.5706 74.4504 15.5406 74.4404L15.5306 74.4504Z" fill="#F6D3B8"/>
<path d="M73.7607 70.6002C75.1307 67.3702 76.4908 64.1403 77.8608 60.9003C80.6508 60.5903 83.4306 60.2702 86.1406 59.9702C87.1506 62.3802 86.3007 63.8802 84.7007 64.6802C82.8207 65.6102 82.0806 66.4703 83.1606 68.5803C83.6306 69.4803 83.2407 70.8303 83.2407 72.4503C81.6307 71.8503 80.3506 71.3802 78.6406 70.7502C78.2806 71.8002 77.8706 73.0202 77.4106 74.3802H74.9707C74.6007 73.2202 74.1908 71.9102 73.7708 70.6002H73.7607Z" fill="#F6D3B8"/>
<path d="M67.7505 84.9901L62.5305 84.1301C61.6305 84.1301 60.7305 84.1301 59.4805 84.1301C59.8005 81.4401 59.9804 79.0301 60.4304 76.6801C60.5304 76.1401 61.5004 75.5301 62.1604 75.3901C63.1604 75.1701 64.2504 75.3301 65.4404 75.3301C66.7504 78.4601 69.5105 81.1501 67.7505 84.9901Z" fill="#9FD1CF"/>
<path d="M153.59 62.8903C156.99 62.6803 156.97 62.6803 157.59 65.1503C157.78 65.8803 158.07 66.6002 158.37 67.3002C159.42 69.7602 159.25 71.0102 157.29 72.7402C156.69 73.2702 155.56 73.7702 154.94 73.5502C154.32 73.3302 153.69 72.2003 153.65 71.4403C153.5 68.5903 153.59 65.7303 153.59 62.9003V62.8903Z" fill="#E89163"/>
<path d="M52.3306 120.76C53.7706 120.27 55.2604 119.89 56.6404 119.27C59.7004 117.89 61.2905 118.76 61.9405 122.29C60.0605 123.09 58.2406 124.13 56.2906 124.66C52.5506 125.66 51.6406 124.67 52.3406 120.77L52.3306 120.76Z" fill="#F6F7F8"/>
<path d="M104.091 67.3101C105.181 68.9301 106.271 70.55 107.351 72.17V74.3301H101.15C101.05 73.2701 100.941 72.1501 100.821 70.9501C100.181 70.1501 97.7707 70.9501 98.8607 68.2401C100.371 67.9701 102.231 67.6401 104.091 67.3101Z" fill="#FCEEE3"/>
<path d="M38.7204 109.4C38.7204 108.22 38.7204 107.04 38.7204 105.86C38.7704 102.16 38.2604 101.33 35.5204 100.64C35.5004 99.3501 36.2605 99 37.3305 99.3C39.1305 99.8 40.4904 99.69 41.2304 97.6C41.6504 96.43 42.6405 96.52 43.3705 97.42C44.0105 98.22 44.4904 99.14 45.2204 100.29C41.8304 101.16 40.2704 103.4 39.9904 106.64C39.7704 109.17 39.7605 109.22 42.1105 109.57C42.6305 109.65 43.1703 109.63 43.7003 109.65C41.1603 111.36 40.6103 111.52 38.7103 109.39L38.7204 109.4Z" fill="#7EB3DD"/>
<path d="M117.04 118.18C116.68 116.14 117.4 115.19 119.26 115.18C120.83 115.17 122.41 115.1 123.98 115.19C126.03 115.31 126.59 115.98 127.18 118.78C123.81 120.04 120.62 118.34 117.04 118.18Z" fill="#80B7E1"/>
<path d="M56.2104 88.1303C52.9104 89.6103 49.7306 91.5303 45.8706 91.0603V90.6803C48.9806 88.4703 52.4804 87.8503 56.2104 88.1303Z" fill="#131A20"/>
<path d="M35.5505 92.82C35.4105 93.03 35.2606 93.41 35.1206 93.41C31.1806 93.38 28.6005 95.43 26.7905 98.73C26.6505 98.98 26.1105 99.0101 25.7505 99.1501C28.0405 93.7101 29.4605 92.79 35.5505 92.82Z" fill="#7EB3DD"/>
<path d="M24.2705 100.49C23.3005 101.4 22.3306 102.31 21.3606 103.22C22.1806 105.29 23.7205 104.02 24.9905 104.01C24.9705 105.74 23.6205 105.76 22.5105 105.69C20.8405 105.58 20.1804 104.34 19.9004 102.3C21.2904 101.73 22.7805 101.11 24.2705 100.5V100.49Z" fill="#7EB3DD"/>
<path d="M41.6904 39.52C42.0204 39.81 42.4004 40.06 42.6704 40.4C43.0204 40.85 43.2806 41.37 43.5806 41.85C43.1006 42.37 42.6104 42.88 42.1304 43.4C41.5904 42.9 41.0505 42.41 40.4805 41.89C40.9005 41.06 41.3004 40.29 41.6904 39.52Z" fill="#BF6734"/>
<path d="M35.5403 100.65C38.2803 101.34 38.7902 102.17 38.7402 105.87C38.1802 105.42 37.5003 105.06 37.0903 104.5C36.2303 103.34 35.5202 102.07 34.7402 100.84C35.0102 100.78 35.2803 100.71 35.5403 100.65Z" fill="#13171A"/>
<path d="M136.5 110.57C137.6 109.07 138.41 108.2 138.95 107.18C139.74 105.67 140.2 103.98 141.04 102.51C143.14 98.8003 145.89 96.1803 150.85 97.7703C151.3 94.7003 151.71 91.8402 152.13 88.9802C152.47 88.9702 152.82 88.9602 153.16 88.9402C153.45 89.6902 154.01 90.4402 153.99 91.1802C153.92 94.1502 155.36 97.0902 154.18 100.1C154.04 100.46 154.52 101.06 154.69 101.55C156.21 105.82 155.32 109.3 151.98 112.2C150.68 113.32 149.4 114.47 148.07 115.54C143.76 119.01 139.58 117.76 137.57 112.26C136.65 112.1 135.63 111.92 134.36 111.7C134.12 110.85 133.86 109.9 133.5 108.62C133.17 109.21 132.9 109.49 132.84 109.81C132.57 111.24 132.45 112.71 132.09 114.12C131.64 115.86 131.49 117.39 132.89 118.86C134.11 120.14 133.65 121.33 132.07 121.96C125.85 124.43 119.61 123.95 113.52 121.64C111 120.68 110.65 117.96 112.38 115.62C113.13 114.61 114.03 113.7 115.35 112.19C113.31 112.34 112.07 112.42 110.73 112.52C109.36 109.56 109.88 106.67 110.34 103.88C111.35 97.7502 112.74 91.6802 113.62 85.5402C114.05 82.5802 113.69 79.5102 113.69 76.1902C112.93 76.3302 111.99 76.2102 111.55 76.6202C107.81 80.1802 107.83 80.2003 103.93 77.0103C102.28 78.0703 100.61 79.1503 98.7903 80.3303C96.9303 77.2003 99.1203 74.8103 99.0203 72.2003C97.6003 71.8603 96.2103 71.5403 94.3003 71.0803C94.9403 69.9703 95.2202 68.8502 95.9302 68.3702C97.6502 67.2302 100.08 66.7902 101.28 65.3102C102.66 63.6102 103.48 61.9203 106.09 62.0203C106.81 62.0503 107.68 60.7703 108.32 59.9603C109.95 57.8903 111.46 55.7102 113.08 53.6302C117.31 48.1902 118.25 47.5703 125.37 45.3903C124.84 42.7003 122.49 42.1102 120.53 41.1102C119.19 40.4202 117.72 39.9202 116.49 39.0602C115.42 38.3202 114.63 37.1902 113.69 36.2502C109.35 31.9302 108.69 30.0002 111.47 24.6802C113.69 20.4402 114.49 15.3102 118.78 12.2402C122.64 9.48023 126.39 6.55027 130.25 3.78027C130.81 3.38027 131.74 3.48027 132.91 3.28027C132.99 4.67027 133.05 5.78027 133.12 7.03027C135.86 7.26027 138.52 3.78027 141.89 6.78027C140.72 8.18027 139.59 9.52024 138.36 11.0002C141.66 13.3702 146.01 14.2002 148.44 18.6802C147.35 19.2902 146.32 19.8703 145.61 20.2703C147.13 28.1203 145.76 35.0102 142.81 41.9302C143.85 42.6702 144.81 43.6203 145.97 44.1503C150.93 46.4003 152.34 50.8902 153.45 55.6002C153.63 56.3502 153.62 57.2102 153.99 57.8502C155.61 60.6802 157.29 63.4902 159.04 66.2402C160.27 68.1802 160.44 70.1702 158.76 71.6802C154.41 75.6002 154.36 81.3402 152.43 86.2402C151.29 89.1302 149.88 91.1103 146.88 91.7103C144.55 92.1703 142.17 92.7202 139.82 92.6902C133.47 92.6202 127.11 92.3902 120.78 91.9302C118.81 91.7902 116.91 90.6803 114.47 89.8403C113.42 96.2703 111.63 102.9 112.11 109.79C118.25 111.73 124.13 113.59 129.98 115.43C131.28 108.85 130.62 101.82 134.65 95.8303C136.87 100.31 135.34 105.12 136.46 110.55L136.5 110.57ZM125.78 47.1602C122.68 48.7602 120.3 50.5103 120.21 54.0903C119.95 64.1403 119.66 74.2002 119.41 84.2502C119.32 88.0802 120.66 89.4402 124.54 89.5402C127.58 89.6202 130.63 89.8302 133.66 89.6302C137.99 89.3402 142.29 88.7003 146.6 88.2703C148.64 88.0703 149.23 87.0402 148.88 85.1602C148.51 85.1802 148.38 85.1702 148.26 85.1902C140.45 86.6602 132.71 85.4502 124.97 84.5502C124.35 84.4802 123.44 83.0703 123.43 82.2803C123.4 79.7803 123.78 77.2803 123.91 74.7803C123.98 73.4903 124.29 71.9703 123.75 70.9503C122.42 68.4303 124.03 67.7003 125.76 67.3903C127.54 67.0703 129.43 67.2502 131.27 67.3702C134.56 67.5902 137.85 68.0402 141.14 68.1702C144.75 68.3102 148.38 68.2003 152.43 68.2003C151.06 61.0003 152.11 53.8502 146.95 48.0602C143.64 50.2502 140.64 52.8402 136.39 51.9402C132.56 51.1402 128.51 50.9003 125.77 47.1503L125.78 47.1602ZM126.07 71.5303C125.87 74.3403 125.83 77.1203 125.44 79.8403C125.11 82.1403 126.04 83.1002 128.15 83.1902C133.79 83.4402 139.43 83.7503 145.07 83.7603C146.05 83.7603 147.64 82.5902 147.9 81.6702C148.91 78.0502 149.51 74.3102 150.25 70.6702C142.22 70.9602 134.46 71.2303 126.08 71.5303H126.07ZM140.94 112.71C142.75 112.83 144.56 113.53 145.52 112.9C148.11 111.2 150.77 109.44 152.22 106.41C153.01 104.75 152.92 103.48 151.81 102.07C148.99 98.5003 146.74 98.4702 143.96 102.13C143.26 103.05 142.64 104.14 142.35 105.24C141.8 107.38 141.51 109.59 140.95 112.7L140.94 112.71ZM112.35 74.5502C114.14 72.5202 115.67 60.9002 115 54.3502C111.75 58.5002 108.7 62.4102 105.42 66.6102C106.98 69.3802 108.7 72.7802 112.35 74.5502ZM119.94 37.8403C122.98 36.0103 126.2 34.0303 125.65 29.1403C123.27 30.0003 121.24 30.7302 119.17 31.4802C118.53 28.0602 117.97 24.9902 117.27 21.2202C115.88 23.3702 114.81 24.8502 113.93 26.4302C112.31 29.3502 112.45 30.6302 114.83 33.1302C116.37 34.7502 118.12 36.1703 119.94 37.8403ZM143.91 46.9102C139.21 42.3702 134.98 45.1502 130.74 47.2902C134.54 50.6402 140.34 50.6702 143.91 46.9102ZM100.03 68.9402C102.74 69.9802 101.56 72.4103 101.71 74.3303C103.49 73.9603 105.03 73.6402 106.95 73.2502C105.72 71.2702 104.7 69.6403 103.62 67.9003C102.26 68.3003 101.15 68.6203 100.03 68.9503V68.9402ZM154.3 63.4202C154.51 66.5302 154.72 69.6402 154.96 73.1602C159.31 69.6002 158.29 68.2002 154.3 63.4202ZM126.63 118.15C123.12 114.96 120.27 114.82 117.93 117.27C119.21 117.57 120.46 117.99 121.74 118.12C123.16 118.27 124.6 118.15 126.63 118.15Z" fill="black"/>
<path d="M56.2402 49.8302C56.9202 46.9902 58.6503 48.3402 59.8303 49.1302C64.2103 52.0802 68.4903 55.2002 72.5403 58.0802C74.8503 57.8102 77.1003 57.4902 79.3503 57.3902C79.5403 57.3902 79.7902 58.9001 79.9802 59.6201H89.6003C88.9703 63.2601 85.3203 63.7102 83.8003 66.2102C84.2703 67.6002 84.7503 69.0902 85.2803 70.5702C85.8103 72.0702 85.8401 73.4101 84.3801 74.4701C82.6901 75.7001 81.7202 74.5502 80.6902 73.4602C80.4202 73.1802 80.0603 72.9901 79.5103 72.6001C79.0403 73.1801 78.6504 73.8002 78.1204 74.2802C77.0904 75.2002 75.9902 76.0401 74.9102 76.9101C74.1702 75.9501 73.4302 74.9902 72.4902 73.7802C71.2402 74.4802 69.7902 75.2902 67.9202 76.3302C68.5702 78.0002 69.1904 79.6702 69.8604 81.3202C70.8204 83.7202 69.9502 85.1302 67.4102 85.1502C65.9602 85.1502 64.4903 84.9102 63.0503 85.0302C62.2203 85.1002 61.3801 85.5802 60.6501 86.0302C59.0101 87.0402 57.5603 88.5302 55.7903 89.1502C49.0303 91.5402 42.1603 93.4302 34.8403 92.8202C33.0503 92.6702 30.4603 92.4002 29.5703 93.3802C27.7503 95.4102 26.8203 98.2502 25.5303 100.75C25.3503 101.09 25.2202 101.45 24.9602 102.03C23.5202 102.23 22.0202 102.43 19.9302 102.72C21.2102 104.08 22.1504 105.07 22.8604 105.82C24.4804 104.39 25.8403 102.82 27.5403 101.81C28.6103 101.17 30.1802 101.38 31.7502 101.58C28.6602 102.54 27.6503 104.5 28.0103 107.45C28.3703 110.42 28.5203 113.41 28.7703 116.47C32.2803 116.82 33.8802 115.25 34.7502 112.85C35.5002 110.76 36.5801 108.5 36.3901 106.42C36.1801 104.26 34.6103 102.24 33.5403 99.9402C35.1303 98.8202 37.0503 98.5702 38.5903 99.7002C41.9803 102.2 41.1602 105.75 40.2002 109.28C44.4602 111.93 46.1803 106.01 50.3003 106.74C50.2603 111.49 47.6602 116.3 49.7202 121.34C54.1302 119.55 58.1202 114.98 63.7402 118.27C66.6902 107.82 64.7303 96.8801 68.0303 86.6801C70.7803 97.7301 70.0002 108.64 67.4402 119.71C68.1402 120.33 68.9802 120.96 69.7002 121.71C71.4402 123.51 70.9803 125.93 68.5703 126.16C62.4103 126.76 56.2103 127.05 50.0203 127.19C48.0403 127.24 45.9302 124.27 46.1602 122.45C46.7202 118.12 47.3101 113.79 47.8801 109.5C45.3901 110.45 42.7203 111.47 39.3303 112.76C38.6503 113.74 37.5302 115.52 36.2302 117.16C34.1402 119.79 31.1803 120.46 28.0303 120.28C26.1103 120.17 24.8802 118.95 24.4602 117.07C24.1402 115.66 23.7803 114.21 23.7803 112.78C23.7803 111.15 23.1202 110.28 21.9202 109.18C20.2702 107.66 19.2002 105.5 17.4902 103.05C18.9602 102.26 20.1803 101.27 21.5503 100.93C23.3103 100.5 24.2403 99.7001 24.8203 97.9701C25.4803 96.0001 26.5303 94.1501 27.2703 92.5401C25.9603 90.5901 24.8301 88.9201 23.4001 86.8001C22.3501 86.3401 20.7002 85.6102 18.9602 84.8402C16.4202 85.5502 14.3703 88.4001 10.6003 87.1001C11.4203 85.0801 12.1702 83.2102 12.9902 81.1902C10.8702 80.3902 8.79016 79.6002 5.91016 78.5102C8.22016 76.9102 10.0601 75.6402 12.1401 74.2002C11.5401 73.4302 10.9502 72.6801 10.1602 71.6801C13.9602 67.6901 17.6603 63.6002 21.5903 59.7602C24.9903 56.4402 28.4303 53.0701 32.2903 50.3501C34.8603 48.5301 38.2002 47.8101 41.4902 46.4801C41.3502 45.7601 41.0802 44.4002 40.7102 42.5102C37.2802 43.0702 33.9403 43.6701 30.5803 44.1601C22.2403 45.3901 22.8302 43.3301 22.9502 37.7401C22.9902 36.0401 23.2203 34.3502 23.3203 33.2502C20.3003 31.1302 17.5502 29.3601 15.0002 27.3501C12.9702 25.7501 13.1502 23.5902 14.4902 21.6502C16.7402 18.3802 19.1803 15.2402 21.5103 12.0102C24.6903 7.60016 29.5603 7.35017 34.2803 6.83017C35.9803 6.65017 37.7902 6.62016 39.4402 7.01016C41.1302 7.41016 43.0502 8.03012 44.1802 9.22012C45.4902 10.5901 46.6203 10.8102 48.2903 10.5102C55.3903 9.22016 58.1001 10.3501 61.6501 16.7401C63.8901 20.7601 65.8003 24.9902 67.5103 29.2602C69.7603 34.8602 68.7902 37.7402 63.7402 41.0002C61.4302 42.4902 58.8201 43.5201 56.4001 44.8601C55.2501 45.5001 54.2402 46.3902 52.6802 47.5202C54.3602 48.5602 55.3403 49.1602 56.3203 49.7602C58.1003 56.3002 59.8902 62.8401 61.6802 69.4201C62.4202 69.9001 63.4103 70.4601 64.2803 71.1601C66.1203 72.6401 69.7403 72.9801 71.0903 71.3501C73.9203 67.9401 76.0401 64.1001 77.1401 59.3501C73.9068 60.8435 71.0503 60.4535 68.5703 58.1801C68.1803 57.8201 67.8902 57.3301 67.4602 57.0501C63.7302 54.6301 59.9802 52.2402 56.2402 49.8402V49.8302ZM42.4702 16.0501C44.6402 9.99014 42.9002 8.54015 36.4202 8.62015C33.9402 8.65015 31.4702 9.33015 28.9802 9.68015C26.7302 10.0001 25.1401 11.2202 23.8801 13.0602C22.1201 15.6602 20.2502 18.1801 18.4302 20.7401C16.5502 23.4001 16.4902 24.3102 19.1802 26.3302C21.5402 28.1002 24.2901 29.3501 27.1401 30.9801C26.2301 34.3301 25.7603 38.0001 27.2803 41.9701C33.3603 39.9601 39.9003 40.9901 45.3403 36.9301C43.9103 34.2601 42.6702 31.9502 41.4302 29.6502C42.1902 27.6202 43.9702 27.5902 45.6802 27.3302C49.9702 26.6902 50.7003 25.1302 48.0203 21.6302C46.4503 19.5802 44.3702 17.9201 42.4602 16.0401L42.4702 16.0501ZM28.6802 69.7702C28.1602 74.6702 27.5402 79.2402 27.2302 83.8402C26.8802 89.1502 27.7603 89.7101 32.5103 90.2301C41.2603 91.1801 49.4603 88.6302 57.3103 85.3102V73.0102C56.1203 73.1102 55.2203 73.1602 54.3303 73.2502C47.1003 74.0102 39.8701 74.8002 32.6401 75.5102C32.1101 75.5602 31.5203 75.0101 30.5603 74.5501C39.7803 73.1301 48.4302 71.8102 57.2202 70.4502C56.2202 68.1502 56.2101 68.0001 54.4001 68.1101C45.9701 68.6101 37.5402 69.1902 28.6702 69.7802L28.6802 69.7702ZM57.1902 65.6201C56.3002 61.2801 55.5903 57.2501 54.5903 53.3001C54.3103 52.1901 53.3604 50.9102 52.3704 50.3802C46.5604 47.2802 40.7102 48.6601 35.1602 51.0501C33.3102 51.8501 31.4802 53.9102 30.7402 55.8202C29.2802 59.6002 28.7303 63.7001 29.3303 68.3601C38.5103 67.4601 47.5202 66.5802 57.2002 65.6402L57.1902 65.6201ZM45.7402 40.6201C48.4302 40.9201 50.5503 41.0001 52.5903 41.4201C56.0503 42.1301 62.4302 39.6902 63.9602 36.6402C64.5702 35.4202 65.0201 33.7001 64.6501 32.4701C63.0901 27.3101 61.5503 22.0901 59.3303 17.1801C57.0503 12.1401 51.6704 10.3701 46.6104 12.4101C45.9604 12.6701 45.6304 13.7401 45.3704 14.1201C47.8204 17.0601 50.2403 19.5102 52.0903 22.3302C53.6303 24.6702 52.7202 26.8702 50.2302 28.2502C48.8802 29.0002 47.4402 29.6002 45.9102 30.3402C47.8202 33.7802 50.4402 37.2001 45.7302 40.6101L45.7402 40.6201ZM25.1602 75.6601C25.8302 69.4401 26.4303 63.8101 27.0403 58.1701C26.7603 58.0501 26.4802 57.9402 26.2102 57.8202C22.0602 62.5202 17.9104 67.2102 13.1204 72.6402C17.5504 73.7502 21.0502 74.6202 25.1702 75.6502L25.1602 75.6601ZM22.8303 84.5902C23.1803 84.6202 23.5301 84.6501 23.8801 84.6801C24.2701 82.6001 24.6603 80.5301 25.0803 78.2401C22.1403 77.2801 19.5501 76.3501 16.9001 75.6001C13.7001 74.6901 13.2902 74.8901 10.4402 77.8501C12.3702 78.7801 14.2203 79.6701 16.3003 80.6701C15.1803 82.2401 14.1702 83.6602 13.1602 85.0802C13.3502 85.3102 13.5502 85.5402 13.7402 85.7802C16.3902 84.1902 19.0502 82.5901 21.9302 80.8501C22.3002 82.4001 22.5503 83.4902 22.8103 84.5802L22.8303 84.5902ZM82.9102 71.4701C82.3202 69.4401 81.8403 67.8001 81.3503 66.1101C82.2703 65.3001 83.1703 64.5401 84.0403 63.7201C84.8403 62.9701 85.5803 62.1602 86.5803 61.1402C80.4103 60.7402 79.1704 61.2201 77.6204 64.3601C74.3504 70.9701 74.3202 71.2101 76.4102 73.6201C77.4568 70.9535 79.6235 70.2368 82.9102 71.4701ZM61.5103 76.4901C61.1703 78.7901 60.8603 80.8302 60.5403 83.0102C62.9203 83.1902 65.2003 83.3502 67.5103 83.5302C66.9703 77.6802 65.5703 75.9901 61.5103 76.4901ZM51.2703 124.12C55.0903 124.63 58.7102 124.03 62.4902 122.72C57.7202 119.11 56.5903 119.24 51.2703 124.12ZM43.2903 45.0302C46.0403 44.5602 48.5102 44.1401 50.9902 43.7201C46.8402 42.1001 45.1703 42.4902 43.2903 45.0302Z" fill="black"/>
</svg>
