<svg width="338" height="250" viewBox="0 0 338 250" fill="none" xmlns="http://www.w3.org/2000/svg">
<path d="M320.03 90.3899C321.1 90.2199 322.17 89.6799 323.32 88.7199C330.41 82.7899 334.97 75.1399 336.89 65.9599C337.3 63.9999 336.71 60.4399 334.56 59.1499C333.66 58.5999 333.6 58.2499 333.67 56.2899C333.83 52.0099 332.87 48.5399 330.66 45.3799C328.92 42.8999 329.09 42.4599 329.84 41.5699C331.12 40.0299 330.59 37.8999 330.21 36.3399C328.26 28.4899 322.96 23.4099 314.47 21.2599C307.78 19.5599 300.51 19.8099 291.6 22.0499C285.96 23.4699 279.58 25.3999 275.29 30.3699C267.56 39.3099 264.16 48.4199 264.91 58.2099C265.01 59.4799 264.5 61.0599 264 62.4299C262.56 66.3499 263.21 69.9299 265.87 72.7699C267.16 74.1499 268.89 75.3999 271.02 76.5099C272 77.0199 273 77.4799 273.99 77.9099C271.08 77.5199 268.14 78.7099 265.14 81.4799C263.79 82.7299 262.53 84.1399 262.46 85.9999C262.39 87.9899 263.7 89.5599 264.94 90.8799C265.24 91.1999 265.55 91.5299 265.85 91.8599C264.57 92.6699 263.35 93.4399 262.13 94.1199C255.82 97.5999 252.04 101.91 250.23 107.69C249.55 109.87 248.77 112.09 248 114.24C246.63 118.13 245.21 122.16 244.26 126.29C244.17 126.7 244.08 127.09 244 127.49C243.43 130.24 243.37 130.53 241.38 130.64C239.34 130.76 237.66 131.71 236.76 133.24C235.87 134.77 235.86 136.66 236.74 138.44C237.37 139.71 237.98 140.99 238.59 142.27C240.13 145.48 241.71 148.74 243.47 151.93C239.12 148.67 233.98 148.45 229.32 148.28C228.99 147.93 228.66 147.57 228.32 147.22C227.08 145.91 225.8 144.56 224.77 143.14C224.36 142.58 223.93 142.04 223.5 141.49C221.59 139.1 220.53 137.63 220.91 135.3C221.34 132.71 220.97 130.1 220.52 127.44C219.32 120.26 217.7 110.81 215.84 101.34C215.39 99.0399 215.6 97.5299 216.61 95.9599C218.18 93.4899 218.69 91.4299 218.19 89.4899C217.84 88.1099 217.01 86.9099 215.63 85.7999C224.06 83.6699 231.16 80.0699 237.13 76.7099C243.67 73.0199 245.44 68.2199 243.04 60.6399C242.65 59.3999 242.26 58.1399 241.88 56.8899L241.83 56.7399C240.41 52.0599 238.94 47.2299 236.79 42.6999C233.74 36.2599 229.92 30.3299 225.95 24.3099C224.05 21.4299 221.03 19.5599 217.44 19.0599C213.93 18.5599 210.2 19.4899 207.24 21.5299L206.42 21.2299C202.07 19.6499 196.89 18.3899 191.47 21.0699C187.3 23.1299 183.82 25.9299 180.33 28.8699C171.56 36.2399 164.1 45.2599 158.18 55.6999C155.62 60.2099 155.94 64.4799 159.11 68.0599C161.22 70.4499 163.32 72.8999 165.39 75.3299C163.96 76.0899 163.03 77.4999 161.87 79.6399C161.19 80.8899 160.97 82.0599 161.22 83.1199C157.96 83.3099 154.93 84.8299 152.19 87.6699C146.43 93.6199 141.4 98.8799 136.8 103.76L136.56 104.02C134.45 106.25 132.28 108.56 130.38 111.11C128.9 113.1 128.38 114.92 128.78 116.7C129.17 118.4 130.35 119.8 132.41 120.97C130.77 122.46 129.13 123.94 127.48 125.42L126.82 126.02C125.09 127.58 123.35 129.15 121.62 130.72C117.83 134.15 116.33 138.97 117.48 143.94C118.47 148.17 120.24 152.17 121.96 156.03L122.64 157.57C124.09 160.87 127.52 162.44 130.97 161.39C132.62 160.89 134.14 160.18 135.62 159.49C136.32 159.16 137.02 158.84 137.73 158.54C137.95 158.45 138.17 158.34 138.4 158.24C138.59 158.15 138.85 158.03 139.01 157.97C140.77 158.25 142.57 158.62 144.34 158.99C144.05 159.68 143.77 160.36 143.52 161.09C143.08 162.39 142.87 165.37 145.04 166.26C146.15 166.71 147.89 166.95 149.44 166.29C150.14 165.99 150.81 165.66 151.47 165.31C151.44 167.56 151.52 170.51 154.34 172.97L156.35 174.72L162.29 166.92C162.29 167.86 162.26 168.81 162.23 169.75C162.21 170.29 162.19 170.83 162.18 171.36C162.15 172.55 162.14 173.75 162.14 174.94C162.12 177.59 162.11 180.34 161.83 182.96C161 190.7 159.06 196.93 155.9 202C155.27 203.01 154.67 204.04 154.03 205.13C151.6 209.29 149.08 213.58 144.85 216.06C144.29 216.39 142.41 217.6 141.62 219.57C140.27 222.96 138.91 226.72 137.34 231.4C136.95 232.57 137.28 233.65 137.51 234.4C137.55 234.53 137.59 234.66 137.62 234.79L137.87 236.12L138.4 236.34C138.33 236.51 138.27 236.68 138.2 236.85L137.36 239.03L139.47 240.02C142.82 241.59 149.61 241.82 153.37 241.82C160.63 241.82 169.85 240.96 174.6 239.04H176.08C180.59 239.04 183.15 237.1 184.39 232.72L184.84 231.13L183.56 230.09C183.28 229.86 182.97 229.62 182.63 229.36C181.87 228.77 181.01 228.09 180.26 227.39C180.1 227.24 179.99 227.13 179.9 227.03C180.14 224.03 179.28 221.35 178.5 218.97C178.07 217.65 177.63 216.28 177.43 214.99C177.42 214.92 177.41 214.86 177.4 214.8C180.59 215.77 183.32 215.17 185.96 214.59L186.62 214.44C193.83 212.88 199.9 209.37 204.38 206.48C217.47 198.05 219.34 190.75 218.76 176.55C218.71 175.38 218.6 174.24 218.46 173.09C219.43 174.7 220.65 175.26 221.6 175.42C222.78 175.63 224.58 175.4 226.44 173.19C226.73 172.84 227.01 172.48 227.27 172.11C227.3 172.14 227.34 172.16 227.37 172.19C228.25 172.88 229.2 173.43 230.04 173.93C230.37 174.12 230.71 174.32 231.03 174.52L233.36 175.96L234.58 173.5C234.72 173.22 234.89 172.94 235.07 172.62C235.58 171.76 236.22 170.68 236.41 169.39C236.68 167.52 236.76 165.68 236.82 163.89C236.82 163.76 236.83 163.62 236.84 163.49C237.22 163.38 237.62 163.26 238.03 163.15C240.89 162.35 244.13 161.44 246.68 158.35L247.07 157.88C248.18 159.5 249.37 161.08 250.68 162.6C254.51 167.04 259.26 168.51 265.22 167.09C265.86 166.94 266.49 166.77 267.13 166.58L267.65 172.51C267.83 174.53 268.17 178.46 271.7 179.91V182.29C271.72 186.1 271.73 189.7 271.65 193.33C271.63 194.16 271.37 195.07 270.96 195.71C269.73 197.67 268.39 199.63 267.07 201.55C266.1 202.96 265.13 204.38 264.19 205.81C261.33 210.17 258.11 214.6 252.9 216.79C250.68 217.73 248.67 219.01 246.73 220.25C246.15 220.62 245.58 220.99 245 221.34C242.96 222.59 242.43 224.11 242.35 225.16C242.27 226.18 242.52 227.72 244.24 229.22C244.89 229.79 245.53 230.38 246.19 230.99C248.15 232.8 250.17 234.68 252.62 236.04C255.74 237.78 259.04 239.16 262.23 240.5C263.76 241.14 265.35 241.81 266.87 242.5C268.44 243.21 270.4 243.86 272.53 243.34C273.83 245.76 276.31 247.17 279.94 247.55L281.36 247.7C288.69 248.47 296.28 249.26 303.78 249.73C304.05 249.75 304.32 249.75 304.58 249.75C306.47 249.75 308.22 249.37 309.96 248.99C310.67 248.84 311.36 248.69 312.02 248.58L313.6 248.33L314.04 246.8C315.9 240.34 312.55 236.44 309.87 233.31L309.58 232.98C309.14 232.46 308.74 231.88 308.4 231.25C307.94 230.4 307.51 229.49 307.01 228.44L306.88 228.18C307.6 227.23 308.41 226.17 309.24 225.13C309.86 224.35 310.55 223.56 311.23 222.79C312.66 221.16 314.14 219.47 315.33 217.51C321.22 207.85 324.59 199.31 325.93 190.64C326.1 189.56 326.27 188.44 326.42 188.22C326.69 188 328.12 187.72 329.49 187.44L331.28 187.09L331.49 185.28C331.55 184.75 331.63 184.24 331.71 183.69C331.9 182.46 332.09 181.19 332.07 179.86C331.89 167.76 329.73 156.15 327.14 143.3C324.03 127.84 318.86 111.81 311.77 95.6499C311.06 94.0399 309.6 92.9999 308.04 92.1299C310.36 91.6799 312.78 91.3599 315.14 91.0599C316.75 90.8499 318.36 90.6399 319.96 90.3899H320.03ZM280.4 81.0099C282.44 82.3099 284.34 83.9399 286.36 85.6799C286.87 86.1199 287.39 86.5699 287.92 87.0099L286.22 87.4899C285.94 87.1799 285.65 86.8799 285.37 86.5699L285.29 86.4799C283.89 84.9599 282.43 83.3799 280.94 81.8799C280.35 81.2899 279.76 80.7599 279.17 80.2999C279.59 80.5299 280.01 80.7699 280.4 81.0199V81.0099Z" fill="white"/>
<path d="M122.31 45.7899L120.35 45.0399C120 44.9099 119.66 44.7699 119.25 44.6099C118.44 44.2899 117.68 43.9899 116.86 43.7299C116.61 43.6499 116.37 43.58 116.12 43.52C115.88 43.46 115.57 43.3699 115.4 43.2999C115.4 43.2899 115.4 43.27 115.4 43.25C115.31 42.7 115.29 42.59 116.43 41.44C119.31 38.55 122.05 35.49 124.7 32.53C125.81 31.29 126.91 30.06 128.03 28.83C130.96 25.61 130.3 21.5699 128.13 19.2299C125.61 16.5199 122.21 13.13 118.2 10.87C108.46 5.37995 98.7701 2.02993 88.6001 0.659932C83.9701 0.0299323 80.7599 1.09994 78.1999 4.10994C76.5899 6.00994 74.9601 7.88999 73.3401 9.77999L73.26 9.86995C69.51 14.22 65.62 18.72 61.98 23.31C57.65 28.78 54.37 35.0799 52.23 42.0399C51.28 45.1199 51.52 47.9799 52.96 50.7899C55.03 54.7999 57.5899 58.4299 60.6799 61.7299C59.3199 61.7799 57.93 62.32 56.75 63.56C55.8 64.56 54.9501 65.6999 54.3101 66.8499C53.8901 67.5999 53.5299 68.37 53.1799 69.14C52.6899 68.96 52.1501 68.81 51.5701 68.76C50.0601 68.63 47.78 68.43 45.99 69.51C43.91 70.77 41.86 72.43 39.71 74.59L37.8401 76.46C31.5401 82.77 25.0301 89.29 18.8301 95.94C15.6101 99.39 12.93 103.24 10.25 107.2C9.4 108.46 9.12989 109.85 8.88989 111.21C5.68989 111.66 3.27994 114.18 1.68994 118.71C0.279937 122.75 -0.729907 127.9 3.85009 132.12C3.91009 132.44 3.93996 133.01 3.95996 133.32L3.99999 133.9C4.07999 134.96 4.0901 136.1 4.1101 137.2C4.1401 139.46 4.16998 141.8 4.72998 144.13C6.57998 151.82 10.11 154.91 16.51 154.48C18.73 154.33 20.8399 153.83 23.1399 153.28C23.7699 153.13 24.4101 152.98 25.0701 152.83C29.1001 155.37 33.7099 154.83 38.1899 154.3L39.3101 154.17C43.4901 153.7 46.9499 152.62 49.9299 150.83C49.8899 154.17 49.86 157.33 50 160.48C50.44 170.64 46.6499 179.12 38.3899 186.41C37.3799 187.31 36.2499 188.18 35.1599 189.02C33.6899 190.15 32.1701 191.33 30.8301 192.62C29.1301 194.27 27.0901 195.53 25.1201 196.74C24.4501 197.15 23.7601 197.58 23.0701 198.03L20.05 200.32C17.02 203.07 16.6301 205.7 18.6201 209.53C22.4101 216.82 27.7901 222.99 34.6201 227.89C35.1301 228.26 35.6399 228.64 36.1599 229.05C38.6499 230.96 41.47 233.13 45.51 233.4C48.88 233.63 52.3199 233.97 55.6999 234.3C59.7199 234.7 63.89 235.11 68.02 235.33C68.37 235.35 68.7101 235.36 69.0601 235.36C72.0801 235.36 75.08 234.69 77.73 234.09C81.19 233.31 83.34 229.57 82.52 225.75C81.96 223.13 80.1201 221.35 77.0601 220.48C74.0101 219.61 70.9499 218.34 67.9299 217.08C67.5599 216.93 67.2001 216.77 66.8301 216.62C67.7401 215.95 68.68 215.19 69.5 214.3C74.74 208.56 78.3899 201.81 81.9199 195.29C82.5899 194.05 83.2599 192.81 83.9399 191.58C85.0099 189.65 85.6901 187.6 86.3601 185.58C86.5801 184.92 86.8 184.26 87.03 183.61C87.73 181.66 88.4001 179.69 89.1001 177.67C89.4501 176.65 89.7999 175.62 90.1499 174.6C92.7999 166.94 94.52 158.84 95.26 150.51C95.31 149.9 95.3499 149.28 95.3799 148.66C95.5099 146.25 95.61 144.34 96.96 142.81C98.03 141.6 98.19 139.74 98 138.52C97.5 135.23 96.9399 131.92 96.3999 128.72L96.3401 128.37C96.0801 126.81 95.8101 125.25 95.5601 123.69C95.1101 120.93 94.29 118.27 93.51 115.68C91.9 110.4 90.5101 105.83 91.8201 100.78C91.9501 100.29 91.9099 99.88 91.8799 99.58C91.6599 92.24 89.5499 86.4599 85.4299 81.9799C85.9699 81.4099 86.4799 80.8 86.8999 80.08C87.9599 78.24 88.99 77.69 90.97 77.89C92.67 78.06 94.2799 77.63 95.6999 77.24C95.9599 77.17 96.22 77.1 96.48 77.03C101.21 75.83 104.76 72.75 107.88 70.03C108.46 69.53 109.04 69.02 109.62 68.53C116.27 62.95 120.29 56.18 121.92 47.84L122.32 45.78L122.31 45.7899ZM66.6499 67.14C68.1599 68.32 69.77 69.45 71.47 70.53L71.22 73.83L66.5701 75.63L65.27 74.24C65.31 74.1 65.3499 73.95 65.3999 73.81C65.8699 72.25 66.3501 70.63 66.6001 68.89C66.6601 68.44 66.6999 67.82 66.6499 67.14Z" fill="white"/>
<path d="M301.35 98.5602C301.5 96.0702 303.43 97.0103 304.61 97.0903C306.12 97.1803 307.589 97.7702 309.419 98.2302C311.059 103.68 312.979 109.36 314.449 115.14C316.289 122.35 318.13 129.55 319.09 136.97C319.71 141.74 320.07 146.55 320.79 151.27C321.56 156.29 321.069 161.25 321.429 166.21C321.589 168.4 322.079 170.58 322.139 172.77C322.179 174.26 321.719 175.76 321.499 177.23C319.579 177.67 318.53 177.56 317.34 175.86C313.95 171.01 309.369 167.22 305.009 163.25C304.769 163.03 304.24 163.14 303.85 163.1L303.929 163.18C303.109 157.78 299.36 153.31 299.06 147.73C298.76 142.06 298.309 136.4 297.919 130.74C296.859 135.11 295.849 139.53 295.719 143.98C295.629 146.84 294.659 149.86 295.929 152.67C296.939 154.89 296.77 157.86 299.85 158.9C300.37 159.08 300.52 160.35 300.81 161.04C299.74 161.6 299.02 161.98 298.3 162.36C295.37 163.47 292.429 164.57 289.499 165.68C287.939 165.89 286.39 166.1 284.83 166.32C284.46 165.1 284.449 163.5 283.649 162.72C280.049 159.2 277.829 154.68 274.689 150.83C272.409 148.05 270.93 144.49 269.62 141.08C267.39 135.3 268.929 130.02 273.199 125.78C276.199 122.8 277.619 119.5 277.409 115.38C278.659 109.88 279.919 104.37 281.239 98.5903C282.269 98.6803 283.739 98.3603 284.499 98.9503C287.689 101.41 291.209 103.45 293.649 106.89C296.209 110.5 298.169 114.29 299.199 118.57V126.2C302.139 122.4 306.72 120.74 306.27 115.52C305.92 111.38 307.369 106.92 303.939 103.38C303.079 101.78 302.21 100.18 301.35 98.5803V98.5602Z" fill="white"/>
<path d="M35.11 93.85C33.78 96.43 32.2398 98.93 31.1798 101.62C29.6298 105.54 28.39 109.58 27.09 113.59C26.45 115.57 25.1799 117.24 25.2999 119.61C25.3999 121.7 24.3398 123.84 23.9298 125.98C23.6998 127.17 23.2298 127.91 21.9698 128.07C17.9798 128.59 13.9899 129.52 10.0099 129.47C8.38988 129.45 5.56988 129.81 4.75988 127.11C4.47988 126.18 4.09997 125.09 4.34997 124.24C5.13997 121.53 6.23975 118.91 7.12975 116.23C7.66975 114.59 8.85988 114.34 10.2599 114.58C11.5299 114.8 12.7799 115.14 13.9999 115.55C15.0999 115.92 16.1098 116.74 17.2198 116.85C19.3198 117.06 21.45 116.91 23.58 116.91C23.23 114.27 20.88 114.45 19.36 113.87C14.35 111.95 13.6999 110.19 16.7999 106.05C17.7199 104.81 18.4398 103.41 19.2198 102.07C22.1398 97.04 26.4298 93.14 30.1598 88.78C32.7598 85.74 35.5199 82.84 38.2299 79.89C39.7799 78.21 40.1299 78.24 41.8099 80.09C42.9299 78.51 43.9898 76.9 45.1598 75.37C47.1498 72.78 50.9198 72.21 53.9198 73.97C54.3598 74.23 54.8199 74.46 55.2999 74.62C55.5299 74.7 55.8198 74.59 56.1298 74.57C56.8198 71.75 57.5098 68.91 58.2198 66.02H62.6598C63.5798 70 62.6299 73.49 59.7399 76.58C60.2399 76.77 60.5798 76.95 60.9398 77.03C63.8398 77.64 64.3598 78.29 63.4098 80.94C62.5598 83.31 61.8499 85.65 62.2999 88.19C62.2199 89.1 62.3699 90.11 62.0299 90.9C59.9899 95.62 57.8298 100.28 55.7098 104.97C53.6398 107.45 53.3999 110.66 52.7399 113.57C51.2999 119.89 51.7398 126.4 51.9398 132.85C51.6398 133.93 51.1299 135.01 51.0699 136.1C50.9299 138.43 51.0299 140.77 51.0199 143.1C50.2999 144.75 49.1599 145.88 47.3299 146.33C42.2299 147.56 37.1099 148.37 31.8199 148.07C29.8199 147.96 28.5098 147.29 27.8898 145.48C27.2698 143.66 26.46 141.8 26.37 139.93C26.15 135.44 25.9498 130.89 26.3998 126.43C26.8498 121.96 27.7999 117.49 29.0399 113.16C30.5899 107.77 32.7099 102.54 34.4999 97.21C34.8599 96.13 34.8699 94.93 35.0399 93.78C37.2899 91.68 38.0398 88.89 38.6298 86.03C37.2098 88.52 35.17 90.74 35.11 93.84V93.85Z" fill="#5EB9B6"/>
<path d="M294.23 85.7001C294.36 85.3401 294.49 84.9701 294.62 84.6201C291.22 83.2201 287.81 81.8602 284.44 80.3902C283.66 80.0502 282.64 79.4601 282.42 78.7601C281.26 75.1201 277.92 74.9501 275.13 73.8601C273.94 73.4001 272.63 73.0402 271.65 72.2802C268.29 69.6902 267.98 67.9102 270.05 63.4002C273.36 63.5602 276.85 63.7301 280.56 63.9201C280.61 63.1201 280.78 62.0901 280.72 61.0701C280.39 55.5401 283.13 51.2001 285.83 46.7001C287.25 44.3301 289.48 43.1101 291.42 41.6801C293.26 40.3301 296.07 40.3901 298.36 39.5601C303.83 37.5901 309.49 37.8601 315.11 38.0701C317.52 38.1601 319.91 39.0201 322.28 39.6601C322.84 39.8101 323.39 40.3901 323.72 40.9201C325.12 43.0901 326.48 45.2901 327.77 47.5401C328.81 49.3601 329.66 51.2201 329.42 53.4701C329.24 55.1801 329.42 56.9202 329.37 58.6402C329.29 61.0902 330.22 62.9201 332.91 64.2501C331.33 67.9801 329.96 71.8401 328.09 75.4401C326.83 77.8601 320.18 83.3501 317.31 84.6301C315.58 85.4001 313.55 85.5701 311.63 85.8101C308.92 86.1501 306.2 86.3002 303.53 86.5302C303.33 88.2702 303.59 89.9901 302.88 91.1001C302.13 92.2901 300.49 92.9301 299.21 93.7601C298.66 94.1201 298.03 94.3502 297.43 94.6402C296.37 93.8502 295.31 93.0702 294.25 92.2802C293.64 90.0902 291.67 87.9101 294.22 85.7001H294.23Z" fill="#BF9577"/>
<path d="M284.84 166.3C286.4 166.09 287.95 165.88 289.51 165.66C289.54 168.32 289.26 171.02 290.39 173.57C290.19 174.29 289.99 175 289.71 176.01C290.93 176.43 292.17 176.87 293.44 177.3C296.11 172.92 298.81 168.83 301.12 164.53C301.9 163.08 302.8 163.19 303.94 163.16L303.86 163.08C305.57 165.21 307.27 167.35 309 169.47C311.57 172.6 314.19 175.69 316.74 178.84C317.8 180.15 318.73 181.58 319.96 183.29C318.92 187.48 317.78 191.98 316.69 196.48C315.4 201.79 312.64 206.48 310.34 211.36C308.97 214.26 306.95 216.81 305.32 219.57C303.03 223.46 299.52 226.62 295.98 229.54C295.37 230.04 294.27 229.94 293.39 230.13C291.27 230.59 289.17 230.81 287.15 231.97C283.81 233.88 280.22 235.37 276.7 236.94C274.52 237.91 273.63 237.38 272.73 234.91C271.94 232.74 270.71 230.65 271.38 227.97H278.1C278.28 229.2 278.47 230.43 278.76 232.37C280.17 230.35 280.78 228.82 280.76 227C280.72 224.08 280.75 221.15 280.75 218.23C280.75 217.43 280.5 216.53 280.79 215.86C282.32 212.35 281.37 209.88 278.3 207.63C277.51 207.05 277.58 204.73 277.87 203.34C278.45 200.57 278.48 197.83 278.42 195.03C278.38 193.09 278.73 191.13 278.92 189.19C278.97 188.67 279.19 188.15 279.13 187.65C278.75 184.18 279.33 180.58 277.78 177.27C277.11 175.85 278.11 175.13 278.86 174.2C280.91 171.62 282.87 168.95 284.86 166.32L284.84 166.3Z" fill="#5EB9B6"/>
<path d="M294.26 92.2801C295.32 93.0701 296.38 93.8501 297.44 94.6401C298.74 95.9501 300.05 97.2501 301.35 98.5601C302.21 100.16 303.08 101.76 303.94 103.36C304.33 105.78 304.65 108.22 305.13 110.63C305.68 113.4 305.95 116.13 304.18 118.57C302.65 120.68 301.21 120.63 299.21 118.55C298.18 114.26 296.22 110.48 293.66 106.87C291.22 103.42 287.7 101.39 284.51 98.9301C283.75 98.3401 282.28 98.6601 281.25 98.5701C279.93 104.36 278.68 109.86 277.42 115.36C276.93 116.5 276.24 117.59 275.99 118.78C275.42 121.43 273.58 123.08 271.64 124.62C271.13 125.03 270.13 124.84 269.43 124.91C268.63 123.25 267.89 121.7 267.15 120.15C267.14 116.15 265.49 112.72 263.69 109.36L262.94 109.63C264.36 113.12 265.78 116.62 267.2 120.11C267.46 122.95 267.75 125.79 267.95 128.64C268.01 129.41 267.97 130.24 267.72 130.96C267.14 132.66 266.29 133.99 264.04 133.72C262.27 133.5 260.45 133.68 258.65 134.44H266.29C266.26 137.99 266.3 141.28 268.01 144.14C269.93 147.36 272.04 150.46 273.98 153.66C274.55 154.61 274.82 155.75 275.23 156.8C274.41 157.62 273.59 158.44 272.77 159.26C270.63 160.03 268.38 160.58 266.38 161.63C263.23 163.27 260.14 161.98 257.26 161.37C255.08 160.91 253.05 158.91 251.36 157.2C249.75 155.57 248.63 153.44 247.39 151.48C247.16 151.12 247.36 150.49 247.36 149.61C249.39 149.61 251.34 149.68 253.28 149.57C253.94 149.53 254.57 149.05 255.22 148.77L255.17 148.83C255.62 148.44 256.5 147.74 256.46 147.69C255.49 146.34 256.83 143.92 254.43 143.27C251.35 143.6 248.27 143.92 245.19 144.28C245.02 144.3 244.89 144.67 244.74 144.88C244.48 144.84 244.04 144.88 243.98 144.75C242.58 141.54 239.83 138.85 240.07 134.59H252.42L252.46 134.1C250.74 133.61 249.02 133.13 247.4 132.67C246.59 126.93 248.54 121.99 250.05 117.07C251.26 113.13 253.25 109.42 254.93 105.63C255.63 104.04 256.45 102.54 258.57 102.54C259.02 102.54 259.63 102.3 259.89 101.96C263.57 97.2901 269.68 94.0601 275.33 93.7801C276.29 93.7301 277.24 93.3801 278.32 93.1401C277.23 90.7101 275.42 91.3901 274 91.4601C271.33 91.5901 269.45 90.3701 267.87 88.4701C266.66 87.0201 266.86 85.4701 268.36 84.3901C271.94 81.7901 275.06 81.7701 277.69 85.4701C279.43 87.9201 281.74 89.9701 283.95 92.3601C286.29 90.2501 289.09 90.5201 291.85 90.6501C292.65 91.1901 293.45 91.7301 294.25 92.2701L294.26 92.2801Z" fill="#016FB3"/>
<path d="M50.2595 197.35C51.0395 194.59 52.1395 191.88 52.5295 189.07C53.0895 185.08 53.0694 181 53.4294 176.97C53.9494 171.15 54.0396 165.31 54.8396 159.5C55.1996 156.88 54.3895 154.1 54.2295 151.39C54.1195 149.42 54.2094 147.43 54.2094 145.49C59.8094 143.1 60.7595 143.33 61.4694 147.18L60.5495 148.89C58.5995 149.72 57.9696 151.41 57.3396 153.41C59.9496 154.03 61.0594 151.67 62.9294 151.29C64.4094 150.76 65.8894 150.23 67.6794 149.6V154.45C66.1594 156.11 67.1895 157.89 67.8195 159.9C68.5895 158.63 69.3496 157.35 70.1196 156.08C71.2296 154.44 72.3294 152.8 73.4394 151.17C76.1294 150.45 77.5794 153.07 79.8994 153.57C82.0194 150.98 81.0695 148.08 80.3095 145.2C84.4995 144.07 88.3195 146.27 92.7395 144.42C91.9795 148.36 91.5294 151.63 90.6994 154.8C89.5894 159.01 88.6195 163.36 86.7495 167.25C84.9395 171.01 84.1096 175.01 82.5996 178.79C80.5596 183.89 77.7794 188.69 75.2194 193.57C73.6094 196.62 71.9195 199.64 70.0695 202.55C68.7295 204.66 67.1195 206.61 65.5495 208.58C64.5095 209.89 62.7696 210.92 62.3296 212.38C61.1296 216.37 57.9094 216.3 54.8994 216.55C52.1594 216.78 49.3795 216.6 46.3195 216.6C46.3195 214.85 46.0096 213.51 47.0896 211.98C47.8096 210.96 47.5595 209.27 47.7395 207.87C49.8095 204.67 50.0695 201.03 50.2495 197.37L50.2595 197.35Z" fill="#80B7E1"/>
<path d="M66.1201 58.0101C61.9901 57.6901 58.6799 54.3302 57.3799 49.5302C55.8099 43.6902 57.92 39.5002 60.56 35.0902C62.85 31.2802 65.8 27.9801 68.06 24.1301C70.22 20.4401 73.4399 17.3301 76.3899 14.1401C78.3799 11.9901 80.6501 10.0801 82.8701 8.16011C85.8301 5.58011 89.4999 5.58015 92.9099 6.39015C101.57 8.43015 109.7 11.9702 117.28 16.5802C119.86 18.1502 122.59 19.8102 124.09 22.8402C125.35 25.3702 125.69 26.3301 123.93 28.4401C122.38 30.3001 120.57 31.9701 118.79 33.6201C117.36 34.9501 115.84 36.2101 114.24 37.3201C113.55 37.8001 112.55 37.8301 111.7 38.0601C110.12 34.1701 107.42 31.3501 103.63 29.5501C103.17 29.3301 102.86 28.8302 102.47 28.4602C101.36 27.4102 100.2 27.3401 98.8799 28.1901C99.0599 31.6501 102.67 34.0301 101.91 37.6601C95.7399 39.0801 90.5599 37.9801 86.3999 33.3001C86.3199 33.2101 86.15 33.2101 86.03 33.1701C85.09 31.9601 84.1499 30.7601 82.9599 29.2301V41.9301C82.6799 46.3401 82.4001 50.7502 82.1001 55.6502C79.0901 53.1602 76.05 51.8702 72.49 52.4002C70.56 51.8102 68.6 50.9102 67.02 53.0902C66.72 54.7302 66.4201 56.3702 66.1201 58.0202V58.0101Z" fill="#EFB445"/>
<path d="M166.639 152.76C166.639 152.63 166.699 152.48 166.659 152.37C165.239 148.91 166.779 146.44 168.879 143.68C172.539 138.87 175.67 133.65 179.26 128.24C186.34 127.49 192.18 123.26 195.85 117.16C199.21 111.57 200.29 104.99 196.07 98.7902C195.54 98.0102 195.49 96.9002 195.07 95.4102C200.64 95.5202 205.219 97.8602 210.419 98.7502C211.109 107.84 213.56 116.72 214.2 126.02C214.82 135.03 214.15 144.07 215.57 153.16C212.21 153.6 209.14 153.95 206.09 154.4C203.15 154.84 200.23 155.41 197.29 155.85C196.25 156.01 195.179 155.91 194.129 155.99C190.219 156.29 186.32 155.73 182.34 156.58C179.72 157.14 176.719 156.06 173.909 155.59C172.189 155.3 170.86 155.36 170.7 157.53C169.88 157.58 169.05 157.63 168.23 157.67L167.909 157.59L167.58 157.64C167.27 156.01 166.969 154.38 166.659 152.75L166.639 152.76Z" fill="#80B7E1"/>
<path d="M55.6998 104.98C57.8198 100.3 59.9799 95.6302 62.0199 90.9102C62.3599 90.1202 62.2199 89.1103 62.2899 88.2003L66.9498 85.9403C72.6998 84.9403 77.2798 86.8402 80.9198 91.3602C82.7198 93.6002 84.13 96.1903 83.59 98.8803C82.84 102.62 82.97 106.68 80.59 110.02C80.45 110.22 80.7199 110.73 80.7999 111.07C82.7399 111.72 84.1898 111.07 85.4298 109.73C87.5298 109.39 88.2098 110.86 88.4598 112.4C89.3498 117.88 90.1398 123.39 90.8898 128.89C91.2398 131.46 91.6398 134.05 91.6298 136.64C91.6298 138.68 91.0298 140.71 90.6498 143.05C86.4298 143.69 82.3098 142.62 78.1798 141.68C77.6198 140.86 77.0599 140.03 76.5099 139.21C76.3299 138.24 75.7499 137.1 76.0599 136.32C76.7499 134.57 76.52 133.13 75.85 131.44C73.33 125.13 74.3298 118.49 74.1398 112.06C75.5298 111.2 76.7999 110.42 78.2499 109.53C76.6899 108.9 75.5198 108.43 73.8798 107.77C73.5198 108.6 72.66 109.71 72.62 110.86C72.46 115.23 72.2698 119.64 72.6298 123.99C73.0098 128.62 73.9999 133.19 74.7899 138.21C71.8199 139.05 68.6298 139.94 65.4498 140.85C63.2498 141.48 61.06 142.12 59.1 142.69C58.13 140.37 57.3399 138.52 56.5699 136.66C53.6699 129.65 52.3499 122.48 54.0299 114.91C54.7499 111.64 55.1598 108.3 55.7098 104.99L55.6998 104.98ZM78.2198 107.97L79.09 107.84C78.25 105.45 80.06 102.67 77.11 100.59C77.48 103.05 77.8498 105.51 78.2198 107.97Z" fill="#DB763B"/>
<path d="M86.0396 33.1601C86.1696 33.2001 86.3294 33.2101 86.4094 33.2901C90.5694 37.9701 95.7494 39.0702 101.919 37.6502C102.679 34.0202 99.0694 31.6401 98.8894 28.1801C100.209 27.3301 101.369 27.4001 102.479 28.4501C102.869 28.8201 103.179 29.3201 103.639 29.5401C107.429 31.3401 110.129 34.1601 111.709 38.0501C112.029 40.4801 112.349 42.9101 112.719 45.7401C113.479 46.0201 114.52 46.6601 115.59 46.7201C117.85 46.8301 118.389 48.2301 117.979 49.9201C117.349 52.5201 116.809 55.3101 115.409 57.5101C110.639 65.0201 103.67 70.1301 95.5596 73.4501C92.6296 74.6501 89.1295 74.3201 85.9595 73.1401C85.8095 74.2501 85.9295 75.4901 85.4595 76.4301C84.8895 77.5601 83.5295 78.3101 83.0195 79.4501C82.3195 81.0201 81.1196 81.0401 79.8096 81.1401C78.1696 80.3001 76.5194 79.4501 74.8794 78.6101C75.1794 76.4301 75.4695 74.2501 75.7795 72.0701C76.0295 70.2801 75.5496 68.6001 74.3696 67.3601C73.1796 66.1101 73.1994 64.9702 74.1394 63.5302C70.8994 62.2202 68.0094 60.8201 66.1494 57.9901C66.4494 56.3501 66.7496 54.7101 67.0496 53.0601C68.8796 52.8501 70.8495 53.8401 72.5195 52.3701C76.0895 51.8401 79.1294 53.1201 82.1294 55.6201C82.4394 50.7201 82.7195 46.3102 82.9895 41.9002C83.2395 41.2602 83.6895 40.6201 83.7095 39.9701C83.7995 37.7601 83.7395 35.5401 83.7395 33.3301C84.7395 33.2501 85.3996 33.2002 86.0496 33.1502L86.0396 33.1601ZM101.33 63.4901L101.25 63.5501C102.05 62.9201 102.849 62.2901 103.699 61.6101C102.739 60.5501 102.08 59.3201 101.06 58.8201C99.1796 57.9001 97.0996 57.4002 95.0496 56.7102C93.6296 58.2168 93.5727 59.9301 94.8794 61.8501C95.1694 62.7001 95.4695 63.5502 95.7595 64.4002C96.3695 65.1702 96.9894 65.9301 97.6394 66.7401C98.9694 65.5701 100.16 64.5301 101.34 63.4901H101.33Z" fill="#F1BA91"/>
<path d="M177.71 49.16C179.26 47.21 180.96 45.3601 182.3 43.2701C182.98 42.2201 183.63 42.0001 184.74 41.9501C189.02 41.7601 193.31 41.5101 197.58 41.1301C198.47 41.0501 199.49 40.46 200.11 39.79C201.33 38.49 202.18 36.8201 203.46 35.5901C204.11 34.9601 205.34 34.9501 206.53 34.5901V37.1C205.46 38.8 204.55 40.52 205.09 42.29C210.82 42.94 216.18 43.5501 221.26 44.1301C221.78 46.0601 222.03 47.4601 222.54 48.7401C223.5 51.1401 223.64 53.4401 222.54 55.8401C221.38 58.3501 220.33 60.93 219.23 63.47C217.67 65.32 216.04 67.13 214.56 69.04C212.47 71.73 210.28 74.2601 207.02 75.6401C206.72 75.7701 206.69 76.51 206.53 76.97C203.85 77.8 201.22 79.04 198.48 79.35C194.56 79.8 190.8 78.92 187.55 76.3C182.52 72.26 178.37 67.68 176.01 61.48C174.81 58.31 176.08 55.61 176.46 52.72C176.62 51.5 177.28 50.3401 177.71 49.1501V49.16ZM202.59 61.8201C200.81 58.5701 197.72 59.09 195.46 59.73C193.16 60.39 189.58 60.0501 189.05 63.7501C190.67 66.1801 193.69 67.3601 194.13 70.5301C197.2 67.8501 201.01 66.0301 202.59 61.8101V61.8201ZM184.4 46.48C185.55 46.82 186.7 47.1701 187.84 47.5101L188.17 47.0201C187.29 46.1701 186.41 45.31 185.41 44.35C184.92 45.37 184.66 45.9301 184.39 46.4901L184.4 46.48Z" fill="#FCEEE3"/>
<path d="M168.21 157.68C169.03 157.63 169.86 157.58 170.68 157.54C176.08 159.12 181.54 160.45 187.22 159.95C191.89 159.54 196.54 158.89 201.2 158.43C202.61 158.29 204.05 158.41 206.1 158.41C205.25 160.77 204.52 162.65 203.91 164.56C203.13 167.01 202.46 169.5 201.74 171.97L201.79 171.91C199.39 173.06 199.86 175.45 199.4 177.44C199.1 178.01 198.8 178.58 198.5 179.16C196.41 181.47 194.06 183.61 192.29 186.14C189.4 190.28 186.93 194.7 184.22 198.97C183.25 200.5 182.19 201.99 181.03 203.39C179.46 205.3 177.51 206.28 174.87 206.29C170.77 206.3 166.86 205.58 162.46 204.23C162.8 202.75 163.11 201.29 163.48 199.85C164.53 195.73 165.65 191.62 166.65 187.48C167.04 185.85 167.1 184.14 167.49 182.5C168.16 179.69 167.52 176.9 167.43 174.11C167.35 171.38 166.89 168.67 166.71 165.94C166.65 165.05 166.59 163.79 167.1 163.31C168.89 161.63 168.1 159.61 168.21 157.71V157.68Z" fill="#016FB3"/>
<path d="M152.27 150.39C152.57 150.92 152.869 151.45 153.179 151.98C153.159 153.68 151.979 154.51 150.699 155.26C147.979 154.98 145.25 154.48 142.53 154.48C140.05 154.48 139.85 152.89 139.58 151.21C139.46 150.43 139.56 149.62 139.56 148.82C139.56 141.65 139.56 134.48 139.56 127.31C139.56 125.09 139.659 122.93 138.399 120.84C137.389 119.17 137.859 118.44 139.929 117.75C141.709 117.15 142.77 115.94 144.07 114.62C149.88 108.72 154.07 101.57 159.52 95.4201C160 94.8701 160.839 94.5901 161.209 94.0001C161.619 93.3301 161.69 92.4501 161.31 91.3301C159.96 92.5501 158.43 93.6301 157.3 95.0201C153.46 99.7701 149.76 104.63 145.99 109.44C144.65 111.15 143.179 112.77 141.949 114.55C139.949 117.46 137.13 116.92 133.77 116.83C134.14 115.49 134.16 114.26 134.76 113.45C136.32 111.35 138.1 109.42 139.84 107.47C142.42 104.58 144.989 101.68 147.659 98.8801C150.539 95.8701 153.47 92.8901 156.53 90.0701C157.28 89.3801 158.629 89.0801 159.719 89.0601C164.589 88.9501 169.459 89.0101 174.729 89.0101C171.689 86.9601 169.039 85.1701 166.379 83.3801C165.279 82.6401 164.589 81.7401 165.389 80.4101C166.149 79.1401 167.48 79.1601 168.56 79.6101C169.73 80.1001 170.89 80.8701 171.75 81.8001C173.61 83.8101 175.73 85.1201 178.49 85.3501C178.97 85.3901 179.41 85.7801 179.99 86.0701C180.48 87.8701 180.569 89.6301 178.449 91.1301C181.509 91.7401 184.2 91.2001 186.84 92.5201C188.86 93.5301 190.5 95.0101 191.77 96.4201C196.6 101.8 197.29 105.16 195.31 111.98C194.51 114.73 192.64 117.11 190.37 119C189.97 119.33 189.169 119.18 188.419 119.27C188.099 117.35 187.909 115.79 189.409 114.35C190.079 113.7 190.3 112.51 190.56 111.53C190.68 111.09 190.4 110.1 190.31 110.1C187.6 110.16 188.55 107.7 187.76 106.46C186.86 105.04 185.899 103.65 185.159 102.15C184.429 100.67 183.68 99.3601 181.8 99.3201L181.86 99.4001C181.82 96.8601 179.82 96.3901 178.02 95.8601C177.88 94.9001 177.769 94.0801 177.649 93.2601C177.479 93.2501 177.309 93.2301 177.129 93.2201C176.839 94.4301 176.55 95.6401 176.26 96.8501C169.72 102.75 163.159 108.62 156.659 114.57C154.319 116.72 152.079 118.99 149.919 121.33C148.689 122.66 147.71 124.23 146.62 125.69C144.39 129.79 145.779 133.37 148.209 136.8C149.339 138.41 150.48 140.02 151.61 141.63C151.55 142.27 151.699 143.03 151.399 143.53C149.899 146.11 150.89 148.28 152.33 150.42L152.25 150.36L152.27 150.39Z" fill="#EFB445"/>
<path d="M146.63 125.72C147.72 124.26 148.7 122.69 149.93 121.36C152.09 119.03 154.33 116.75 156.67 114.6C163.16 108.65 169.73 102.78 176.27 96.8801C178.61 96.6901 179.89 98.8201 181.87 99.4301L181.81 99.3501C183.83 102.75 186.08 105.93 186.92 110.03C187.33 112.02 186.98 113.3 186.07 114.64C182.94 119.22 179.63 123.68 176.5 128.27C172.72 133.81 169.01 139.39 165.4 145.04C164.6 146.29 164.35 147.88 163.84 149.36C160.05 149.7 156.16 150.05 152.28 150.4L152.36 150.46C152.53 147.96 152.75 145.46 152.8 142.96C152.8 142.54 152.04 142.1 151.64 141.67C150.51 140.06 149.37 138.45 148.24 136.84C148.27 136.33 148.52 135.64 148.28 135.33C146.04 132.4 147.05 128.94 146.64 125.73L146.63 125.72Z" fill="#80B7E1"/>
<path d="M198.5 179.14C198.8 178.57 199.1 178 199.4 177.42C201.07 175.96 202.16 174.24 201.79 171.89L201.74 171.95C204.96 168.67 205.63 164.17 207.22 160.14C208.42 157.08 208.2 156.97 211.69 156.98C211.82 157.2 212.08 157.43 212.06 157.64C211.66 161.41 213 164.94 213.45 168.56C214.24 174.99 215.31 181.47 213.95 188.14C213.19 191.83 212.41 195.3 209.35 197.28C203.73 200.9 198.99 206.01 192.31 207.84C191.41 207.01 190.6 206.25 189.79 205.5C188.97 204.68 188.15 203.85 187.32 203.03C185.7 199.03 188.01 196.16 190.29 193.43C193.56 189.53 195.9 185.09 198.2 180.62C198.42 180.19 198.4 179.64 198.49 179.15L198.5 179.14Z" fill="#016FB3"/>
<path d="M68.4901 224.59C61.1201 224.24 53.9001 225.21 46.0201 223.77C47.1701 224.5 47.7302 225.09 48.3702 225.21C50.5402 225.61 52.72 225.95 54.92 226.12C57.78 226.34 60.6201 226.12 63.5201 226.8C65.7001 227.31 68.1701 226.47 70.5101 226.37C72.7201 226.27 74.94 226.35 77.16 226.35C77.88 228.84 75.9402 229.12 74.5902 229.27C70.5702 229.71 66.4501 230.46 62.5001 230.01C55.8301 229.24 48.9301 230.05 42.5101 227.43C42.4435 225.39 43.4602 224.027 45.5602 223.34C43.3702 222.73 41.4901 222.2 39.7301 221.71C38.9301 222.39 38.1901 223.38 37.2501 223.65C36.6501 223.82 35.6501 223.01 34.9901 222.46C32.7801 220.61 30.5401 218.79 28.5301 216.74C27.4201 215.61 26.7601 214.03 25.7101 212.37C27.0801 211.95 27.8801 211.71 28.7801 211.43C28.5801 210.92 28.4902 210.54 28.3002 210.22C27.0302 208.14 25.8 206.04 24.43 204.03C23.44 202.57 23.92 201.58 25.17 200.7C25.79 200.26 26.4402 199.84 27.1002 199.46C28.5002 198.66 29.9101 198.98 30.2101 200.54C30.8801 204.03 33.1202 206.74 34.5502 209.83C35.4902 211.86 37.42 213.35 40.43 212.42C40.21 215.89 42.7501 217.64 45.0201 218.56C47.3101 219.48 50.2302 219.06 52.8402 218.85C54.5902 218.71 56.2801 217.89 58.0201 217.46C58.4801 217.35 59.2201 217.4 59.4901 217.69C61.6201 220.04 64.82 220.37 67.38 221.92C68.64 222.68 68.5501 223.29 68.4901 224.62V224.59Z" fill="white"/>
<path d="M137.17 122.22C137.17 127.63 137.1 132.5 137.2 137.38C137.24 139.31 137.91 141.23 137.86 143.15C137.79 145.73 137.55 148.36 136.9 150.85C136.35 152.94 131.3 155.02 129.18 154.36C128.71 154.21 128.09 153.86 127.96 153.47C127.2 151.18 124.95 149.63 125.08 146.81C125.15 145.26 124.18 143.64 123.59 142.09C121.87 137.53 124.28 134.09 126.88 130.92C129.14 128.17 131.85 125.78 134.45 123.33C135 122.81 135.95 122.71 137.16 122.24L137.17 122.22Z" fill="#EFB445"/>
<path d="M50.2595 197.35C50.0795 201.01 49.8295 204.64 47.7495 207.85C47.1095 208.37 46.5295 209.19 45.8195 209.34C43.6595 209.77 41.4495 210.13 39.2595 210.11C38.2595 210.11 36.8896 209.39 36.3496 208.56C35.0896 206.65 34.1694 204.5 33.2394 202.4C31.9394 199.48 32.6194 197.48 35.4294 195.76C38.9594 193.61 41.7496 190.74 44.0996 187.36C44.9196 186.18 46.1696 185.31 47.0996 184.19C47.8896 183.24 48.4993 182.14 49.3793 180.83H51.6096C51.6696 181.79 51.9495 182.84 51.7595 183.8C50.8595 188.28 50.0395 192.76 50.2695 197.36L50.2595 197.35Z" fill="#80B7E1"/>
<path d="M302.26 231.87C302.09 233.58 302.619 234.49 303.899 235.51C306.389 237.5 308.809 239.77 309.649 243.55C298.809 244 288.29 243.51 277.86 242C277.49 238.06 277.48 238.03 280.31 236.63C284.42 234.61 288.36 232.25 293.05 231.48C294.5 231.24 295.63 230.96 297.11 231.46C298.54 231.95 300.21 231.73 302.26 231.86V231.87Z" fill="#FBECD1"/>
<path d="M7.94981 131.39H22.87C22.95 132.46 23.03 133.46 23.1 134.47C23.4 138.77 23.6899 143.08 23.9999 147.54C20.3099 149.31 16.6499 149.99 12.7699 148.78C10.6899 148.13 8.01983 144.46 7.96983 142.07C7.88983 138.64 7.94981 135.21 7.94981 131.38V131.39Z" fill="#5EB9B6"/>
<path d="M185.11 81.8802C185.62 81.6302 186.13 81.3902 186.64 81.1402C189.31 79.0202 192.03 80.6402 194.43 81.4502C198.17 82.7202 201.66 84.7301 205.26 86.4201C207.7 87.5701 210.13 88.7201 212.57 89.8701C213.76 92.3801 211.69 94.0002 210.91 96.4602C200.84 93.6502 190.88 90.8001 181.22 87.1001C180.52 85.1701 182.04 84.4602 183.05 83.5102C183.69 82.9102 184.41 82.4101 185.1 81.8701L185.11 81.8802Z" fill="#80B7E1"/>
<path d="M74.8499 78.6202C76.4899 79.4602 78.1398 80.3102 79.7798 81.1502C81.0398 82.7902 82.2998 84.4202 83.5498 86.0702C87.5698 91.3802 89.2099 97.4402 88.3699 103.97C88.1099 105.99 86.4497 107.82 85.4197 109.74C84.1797 111.07 82.7298 111.73 80.7898 111.08C80.7098 110.74 80.4399 110.24 80.5799 110.03C82.9599 106.69 82.8299 102.63 83.5799 98.8902C84.1199 96.1902 82.7097 93.6102 80.9097 91.3702C77.2797 86.8502 72.6897 84.9502 66.9397 85.9502C66.2897 85.8802 65.6398 85.8102 64.9898 85.7402C63.9998 80.0802 67.5898 76.6602 73.0498 78.0702C73.6498 78.2302 74.2399 78.4402 74.8399 78.6202H74.8499Z" fill="#5EB9B6"/>
<path d="M270.67 239.37C268.24 238.48 266.57 237.97 264.98 237.27C259.34 234.8 253.77 232.23 249.26 227.84C247.75 226.37 247.23 225.11 249.67 223.38C252.25 221.55 255.05 220.01 257.81 218.44C259.23 217.63 261.17 218.29 262.14 220.03C263.43 222.36 264.44 224.83 265.64 227.21C266.91 229.73 268.34 232.18 269.52 234.74C270.07 235.93 270.18 237.31 270.68 239.37H270.67Z" fill="#FBECD1"/>
<path d="M273.19 205.32C274.76 207.57 275.54 209.75 277.06 210.6C279.21 211.8 279.26 213.32 279.12 215.17C278.91 217.9 278.57 220.62 278.35 223.35C278.16 225.7 277.89 226 275.5 226.14C275.37 226.14 275.23 226.14 275.1 226.14C273.24 226.13 271.11 226.67 269.6 225.94C268.19 225.26 267.45 223.21 266.39 221.78C265.54 220.63 264.62 219.53 263.81 218.35C262.83 216.92 262.73 215.33 263.84 214C266.07 211.34 268.38 208.74 270.82 206.27C271.45 205.63 272.64 205.53 273.19 205.32Z" fill="#5EB9B6"/>
<path d="M160.35 221.33C162.34 221.25 164.07 221.53 165.85 222.85C168.32 224.68 171.259 225.85 173.909 227.45C174.909 228.05 176.01 229.13 175.3 230.38C174.9 231.09 173.609 231.64 172.709 231.66C166.869 231.77 161.019 231.77 155.169 231.66C154.229 231.64 153.229 231.09 152.389 230.57C150.319 229.27 148.33 227.85 146.06 226.31V223.51C148.62 222.477 150.943 222.793 153.03 224.46C154.06 225.16 155.1 225.85 156.03 226.48C157.48 224.75 158.91 223.04 160.34 221.33H160.35Z" fill="#D98FB7"/>
<path d="M160.35 221.33C158.92 223.04 157.49 224.75 156.04 226.48C155.11 225.86 154.08 225.16 153.04 224.46C153.06 223.8 153.34 223 153.07 222.49C151.19 219.04 153.1 216.63 155.1 214.14C156.3 212.64 157.34 211 158.32 209.34C159.64 207.1 160.59 206.23 162.58 207.11C165.92 208.58 169.39 208.59 172.87 208.71C173.55 211.09 171.76 212.28 170.6 213.3C167.35 216.16 163.79 218.68 160.35 221.33Z" fill="#FCEEE3"/>
<path d="M150.7 155.26C151.98 154.51 153.16 153.68 153.18 151.98C154.15 151.72 155.12 151.29 156.1 151.25C158.59 151.14 161.11 151.38 163.59 151.15C165.14 151.01 165.73 152.04 166.64 152.76C166.95 154.39 167.25 156.02 167.56 157.65C167.5 158.82 167.45 159.99 167.39 161.09C164.88 162.9 164.33 160.4 163.21 159.31C161.69 161.66 160.27 164.03 158.65 166.25C158.26 166.79 157.1 167.21 156.48 167.03C155.79 166.83 154.9 165.95 154.81 165.27C154.58 163.46 154.73 161.6 154.73 159.3C152.38 160.51 150.28 161.59 148.03 162.75C146.65 159.05 149.32 157.4 150.71 155.25L150.7 155.26Z" fill="#FCEEE3"/>
<path d="M224.95 154.35C227.08 152.5 229.04 151.65 232.27 152.55C235.28 153.39 238.67 153.05 241.62 154.79C241.76 157.14 240.49 158.08 238.38 158.39C235.86 158.76 233.36 159.23 231 159.64C231.12 162.26 231.23 164.52 231.35 166.96H228.49C227.78 165.73 227.09 164.53 226.11 162.83C225.55 165.3 225.12 167.21 224.62 169.39C223.88 169.43 223.02 169.47 222.2 169.52C220.96 166.29 220.32 163.2 221.68 160.01C222.77 158.12 223.86 156.23 224.95 154.34V154.35Z" fill="#FCEEE3"/>
<path d="M140.88 234.46C141.58 232.47 142.22 230.66 142.89 228.75C147.06 227.8 149.77 229.82 152.2 233.44C161.18 233.1 170.49 232.74 180.21 232.37C180.06 233.61 180.76 234.57 179.13 235.01C177.78 235.38 176.53 236.36 175.19 236.44C168.76 236.84 162.31 237.18 155.87 237.25C150.82 237.31 145.93 236.1 140.88 234.45V234.46Z" fill="#EFD7E5"/>
<path d="M76.5099 139.21C77.0699 140.03 77.6298 140.86 78.1798 141.68C78.4798 142.89 78.78 144.1 79.08 145.31C79.34 146.35 79.5999 147.39 79.9999 149.01C78.0599 148.67 76.7599 148.45 75.0399 148.15C74.5799 149.01 74.0098 150.09 73.4398 151.17C72.3298 152.81 71.23 154.45 70.12 156.08C69.1 155.84 67.4998 156.48 67.6798 154.45V149.6C65.8898 150.24 64.4098 150.77 62.9298 151.29C61.1198 151.5 60.1999 150.82 60.5499 148.89L61.4699 147.18C62.5499 145.87 63.4099 144.23 64.7699 143.34C66.1999 142.41 68.1199 142.26 69.7899 141.68C70.7499 141.35 71.9299 141.07 72.5199 140.36C73.6699 138.96 75.1199 139.35 76.4999 139.21H76.5099Z" fill="#F1BA91"/>
<path d="M272.77 159.26C273.59 158.44 274.41 157.62 275.23 156.8C276.49 156.63 276.97 157.42 277.59 158.38C278.96 160.5 280.14 162.91 282.94 163.49C283.61 165.35 282.82 166.66 281.43 167.61C279.04 169.24 277.63 171.57 276.4 174.18H273.41C273.19 169.12 272.98 164.19 272.76 159.26H272.77Z" fill="white"/>
<path d="M224.949 154.35C223.859 156.24 222.769 158.13 221.679 160.02C220.769 159.98 219.859 159.93 218.479 159.87C218.769 157.27 219.28 154.76 219.26 152.26C219.24 149.87 218.66 147.49 218.31 145.02C221.65 144.54 222.47 147.12 224.07 148.43C226.07 150.08 225.789 152.21 224.959 154.36L224.949 154.35Z" fill="#80B7E1"/>
<path d="M187.33 203.03C188.15 203.85 188.969 204.68 189.799 205.5C189.959 207.08 189.5 208 187.84 208.78C184.88 210.17 181.96 210.43 178.84 210.05C178.14 206.29 181.98 205.17 183.07 202C184.45 202.34 185.89 202.69 187.33 203.04V203.03Z" fill="#FCEEE3"/>
<path d="M172.8 215.27C173.18 218.26 173.55 221.19 173.95 224.29C171.48 225 170.06 223.28 168.39 222.57C167.19 222.06 165.57 221.3 165.24 220.29C164.67 218.55 167.07 218.54 167.92 217.44C169.05 215.96 170.35 214.16 172.8 215.28V215.27Z" fill="#D98FB7"/>
<path d="M244.74 144.88C244.89 144.67 245.019 144.3 245.189 144.28C248.269 143.92 251.349 143.6 254.429 143.27C254.669 145.12 254.919 146.97 255.159 148.82L255.209 148.76C252.209 148.12 249.21 147.54 245.99 149.27C245.48 147.49 245.099 146.18 244.729 144.87L244.74 144.88Z" fill="#80B7E1"/>
<path d="M51.0197 143.1C51.0197 140.77 50.9297 138.43 51.0697 136.1C51.1297 135 51.6396 133.93 51.9396 132.85C52.5796 132.89 53.2296 132.92 53.4696 132.93C54.7896 136.4 56.0197 139.62 57.3497 143.1H51.0197Z" fill="#DB763B"/>
<path d="M294.26 92.2802C293.46 91.7402 292.66 91.2002 291.86 90.6602C292.22 88.8002 291.07 86.2202 294.23 85.7002C291.69 87.9002 293.65 90.0902 294.26 92.2802Z" fill="#97765E"/>
<path d="M298.3 162.35C300.25 162.3 300.08 163.42 299.53 164.67C298.02 168.12 295.31 170.62 292.62 173.11C292.14 173.55 291.139 173.44 290.379 173.58C289.249 171.04 289.53 168.34 289.5 165.67C292.43 164.56 295.37 163.46 298.3 162.35Z" fill="#BF9577"/>
<path d="M94.8699 61.8501C94.8999 61.2101 94.9297 60.5601 94.9597 59.9301C99.2897 59.3501 100.88 60.2701 101.24 63.5401L101.32 63.4801C99.4598 63.7801 97.5997 64.0901 95.7397 64.3901C95.4497 63.5401 95.1499 62.6901 94.8599 61.8401L94.8699 61.8501Z" fill="#E89163"/>
<path d="M184.979 82.22C181.419 81.62 178.699 79.33 175.969 77.3C172.729 74.88 169.789 72.01 166.939 69.12C165.519 67.68 164.549 65.79 163.409 64.09C162.279 62.42 162.319 60.62 163.189 58.91C164.389 56.53 165.889 54.29 166.979 51.87C168.439 48.6 171.01 46.2 173.11 43.43C175.14 40.75 177.219 38.08 179.509 35.62C181.079 33.92 183.02 32.55 184.85 31.11C186.57 29.76 188.319 28.44 190.139 27.23C191.079 26.61 192.139 26.09 193.219 25.79C196.479 24.87 199.629 22.8 203.209 24.68C206.909 23.39 210.619 25.4 214.299 24.7C217.879 24.01 220.029 25.95 221.699 28.66C223.449 31.49 225.219 34.32 226.669 37.3C228.949 41.98 231.01 46.77 233.08 51.55C235.05 56.11 236.279 60.93 237.419 65.75C237.829 67.49 237.489 69.4 237.489 71.38C232.469 74.24 227.1 76.67 221.36 77.89C215.77 79.08 210.359 81.41 204.659 81.39C203.039 78.57 206.469 78.91 206.659 77.36C212.219 74.11 215.89 69.08 219.36 63.87C223.41 60.48 224.359 55.76 224.279 50.93C224.229 47.77 223.419 44.53 222.399 41.5C221.729 39.5 221.069 37.11 218.219 35.85C217.929 37.61 217.689 39.06 217.419 40.66C214.659 40.66 212.019 40.71 209.379 40.64C206.929 40.58 206.919 40.5 206.659 37.5L206.61 37.55C208.46 35.58 208.829 33.01 209.789 30.67C209.579 30.49 209.359 30.31 209.149 30.13C207.459 31.77 205.77 33.4 204.09 35.04C202.52 36.95 200.94 38.87 199.37 40.78C194.12 40.08 188.969 41.19 183.779 41.62C183.619 41.63 183.49 42.01 183.35 42.22C182.66 42.83 181.959 43.44 181.279 44.06C179.679 45.52 178.04 46.96 177.83 49.33C177.36 49.49 176.559 49.53 176.469 49.82C175.539 52.59 174.469 55.35 173.919 58.2C172.929 63.36 176.229 67.06 178.979 70.76C180.639 72.99 182.11 75.5 184.86 76.83C186.59 77.67 186.94 79.43 186.59 81.28C186.06 81.6 185.519 81.91 184.989 82.23L184.979 82.22Z" fill="#030000"/>
<path d="M207.01 24.9702C211.86 20.0702 220.25 20.1902 223.87 25.6902C227.72 31.5302 231.54 37.4702 234.54 43.7702C237.19 49.3602 238.78 55.4602 240.66 61.3902C242.66 67.6902 241.55 71.3502 235.91 74.5302C227.62 79.2002 218.97 83.1702 208.71 84.6202C210.19 85.4302 211.27 86.0302 212.36 86.6302C216.22 88.7802 216.85 90.9402 214.5 94.6202C213.05 96.9002 212.87 99.1802 213.39 101.83C215.08 110.48 216.6 119.17 218.05 127.86C218.44 130.17 218.81 132.63 218.44 134.9C217.73 139.23 220.65 141.73 222.75 144.61C224.37 146.84 226.42 148.77 228.19 150.74C234.28 150.99 240.37 150.9 244.78 156.75C241.95 160.17 237.93 160.32 234.44 161.66C234.3 164.1 234.31 166.59 233.96 169.02C233.79 170.19 232.92 171.26 232.36 172.38C231.21 171.67 229.98 171.04 228.92 170.21C228.23 169.67 227.77 168.82 227.02 167.88C226.1 169.26 225.43 170.51 224.54 171.57C222.77 173.67 221.11 173.41 220.14 170.78C219.51 169.06 219.27 167.19 218.79 165.08H214.68C215.26 169.14 216.12 172.87 216.27 176.63C216.83 190.42 214.9 196.72 203.03 204.36C197.83 207.71 192.33 210.63 186.09 211.98C183.33 212.58 180.84 213.26 177.99 212.35C175.1 211.43 174.47 212.29 174.95 215.36C175.57 219.38 177.92 223.05 177.34 227.35C177.26 227.92 178.01 228.72 178.55 229.22C179.71 230.29 180.98 231.22 181.98 232.03C181.06 235.31 179.48 236.54 176.04 236.53C177.48 235.41 178.36 234.72 179.92 233.49C178.26 233.22 177.11 232.82 175.98 232.87C169.1 233.15 162.22 233.55 155.34 233.88C153.18 233.98 151.08 233.92 149.68 231.81C149.34 231.29 148.63 231.02 148.09 230.64C144.86 228.33 144.2 228.52 142.58 232.05C142.15 232.98 141.44 233.77 140.85 234.63C140.59 234.52 140.32 234.41 140.06 234.31C139.92 233.59 139.5 232.78 139.7 232.17C141.02 228.24 142.39 224.33 143.93 220.48C144.29 219.57 145.22 218.71 146.09 218.2C151.98 214.76 154.63 208.71 158 203.31C161.81 197.2 163.53 190.3 164.3 183.22C164.72 179.32 164.57 175.35 164.67 171.42C164.72 169.31 164.87 167.19 164.73 165.08C164.65 163.94 164.07 162.83 163.54 161.16C160.73 164.84 158.43 167.86 155.98 171.08C152.66 168.19 154.73 164.53 153.59 161.28C151.86 162.21 150.21 163.22 148.45 163.98C147.74 164.29 146.7 164.22 145.98 163.93C145.7 163.82 145.67 162.52 145.89 161.88C146.43 160.3 147.17 158.79 147.87 157.16C144.98 156.57 142.1 155.9 139.18 155.45C138.43 155.34 137.55 155.9 136.76 156.23C134.58 157.15 132.49 158.31 130.24 158.99C127.94 159.69 125.86 158.68 124.92 156.56C123.02 152.25 120.96 147.92 119.9 143.37C119 139.49 120.04 135.5 123.28 132.57C127.3 128.93 131.34 125.3 135.36 121.65C135.74 121.31 136.05 120.89 136.57 120.31C135.61 119.82 134.8 119.42 134.01 119C130.89 117.36 130.27 115.42 132.37 112.6C134.25 110.07 136.44 107.77 138.61 105.47C143.69 100.08 148.82 94.7302 153.97 89.4102C156.68 86.6102 159.85 85.0202 163.91 85.8002C164.91 85.9902 165.98 85.8302 167.08 85.8302C167.13 83.4002 162.12 84.3902 164.06 80.8402C165.99 77.2902 166.45 76.9102 170.33 77.2702C167.28 73.7202 164.18 70.0302 160.99 66.4102C158.31 63.3702 158.57 60.1002 160.36 56.9402C166.02 46.9702 173.13 38.2002 181.95 30.7902C185.3 27.9802 188.65 25.2702 192.59 23.3202C197.09 21.0902 201.33 22.0402 205.58 23.5902C205.59 23.8702 205.6 24.1502 205.61 24.4302C204.96 24.5202 204.3 24.7702 203.68 24.6802C198.39 23.9102 193.9 25.6402 189.52 28.5202C182.18 33.3602 176.6 39.8102 171.65 46.9002C169.24 50.3602 167.11 54.0102 164.68 57.4502C162.74 60.1902 163.18 62.6502 165.05 65.1002C169.28 70.6402 174.42 75.1602 180.33 78.8602C181.32 79.4802 181.95 80.6902 183.05 81.9902C183.69 81.5302 184.91 80.6502 186.13 79.7602C182.88 76.0302 179.68 72.5702 176.72 68.9002C173.81 65.2902 171.99 61.1302 173.15 56.4102C174.16 52.3102 176.05 48.6102 178.65 45.1402C182.98 39.3702 189.01 39.6202 195.04 39.8902C197.36 40.0002 198.77 39.8202 200.33 37.7302C202.73 34.5102 205.88 31.8502 209.2 28.4402C211.52 32.9602 207.41 35.5502 207.59 39.3002C210.61 39.5102 213.7 39.7302 216.8 39.9502C217.11 38.3502 217.43 36.6902 217.74 35.0902C220.46 35.0702 221.2 36.7602 221.9 38.2902C225.15 45.3802 226.73 52.7602 223.13 60.0802C221.29 63.8302 218.47 67.1302 215.83 70.4302C212.67 74.3902 208.82 77.6402 204.31 80.0402C203.55 80.4502 202.84 80.9702 202.29 81.8802C204.62 81.1502 206.92 80.3502 209.27 79.7202C213.72 78.5302 218.24 77.6002 222.64 76.2502C226.4 75.0902 230.09 73.6402 233.7 72.0402C237.31 70.4402 237.47 69.7002 236.7 65.8402C234.98 57.2202 231.69 49.1602 227.87 41.3102C225.79 37.0402 223.28 32.9702 220.91 28.8402C219.26 25.9502 216.97 24.3502 213.39 24.9002C211.47 25.1902 209.47 24.9502 207 24.9502L207.01 24.9702ZM153.89 224.54C151.45 226.6 151.17 222.87 148.94 222.94C148.22 223.41 147.11 224.15 145.71 225.08C147.78 226.36 149.61 227.04 150.8 228.32C153.44 231.16 156.52 231.65 160.11 231.16C161.93 230.91 163.81 231.13 165.67 231.07C168.97 230.97 172.28 230.81 175.58 230.68C175.67 230.3 175.76 229.93 175.84 229.55C171.87 227.23 167.82 225.04 163.97 222.55C161.81 221.16 160.54 221.89 159.33 223.62C158.44 224.9 157.6 226.21 156.33 228.14C155.28 226.62 154.53 225.52 153.78 224.42C154.65 224.6 155.52 224.77 156.33 224.94C157.69 221.58 158.53 220.8 161.89 218.83C165.94 216.45 169.42 213.41 172.82 209.52C170.03 209.39 167.91 209.39 165.82 209.17C163.91 208.97 161.65 207.75 160.24 208.43C158.74 209.15 158.27 211.76 156.97 213.21C154.01 216.53 152.5 220.1 153.89 224.54ZM195.87 95.8702C196.46 97.2702 196.65 97.9002 196.96 98.4502C200.68 105 199.93 112.98 195.39 119.25C192.15 123.72 188 126.69 182.73 128.29C181.04 128.8 179.44 129.35 178.3 131.23C175.15 136.44 171.62 141.41 168.22 146.46C167.41 147.67 167.25 148.76 167.31 150.38C167.5 155.1 170.68 159.86 167.47 164.62C167.26 164.93 167.68 165.62 167.75 166.15C168.92 174.59 169.11 182.99 166.73 191.3C165.61 195.22 164.61 199.17 163.39 203.74C166.58 204.29 169.8 204.69 172.94 205.44C176.23 206.23 178.6 204.97 180.42 202.49C182.83 199.19 185.1 195.78 187.34 192.36C189.73 188.71 191.51 184.5 194.48 181.43C200.51 175.18 201.15 166.8 205.02 159.26C198.95 159.69 193.55 159.96 188.18 160.47C182.83 160.98 177.63 160.21 172.47 158.98C170.8 158.58 169.47 157.8 170.34 154.68C184.93 156.68 199.55 154.71 214.22 152.36C213.9 134.74 213.82 117.01 209.02 99.4802C205.05 98.4002 200.88 97.2602 195.84 95.8802L195.87 95.8702ZM205.72 35.4102C205.49 35.3102 205.26 35.2002 205.03 35.1002C203.58 36.9602 202.21 38.8902 200.64 40.6402C200.02 41.3302 198.98 41.9702 198.09 42.0402C194.94 42.2902 191.76 42.1502 188.61 42.4202C186.48 42.6102 183.82 41.9202 182.45 44.1802C180.42 47.5502 178.64 51.0802 176.95 54.6302C175.67 57.3002 176 60.0602 177.37 62.6602C180.19 68.0102 183.85 72.6902 188.9 76.0802C194.43 79.7902 199.96 79.5902 205.54 75.8302C211.26 71.9702 215.32 66.7002 219.06 61.0602C221.74 57.0102 222.69 52.8402 221.47 47.9702C220.81 45.3302 219.49 44.5202 217.15 44.3502C213.73 44.1002 210.31 43.7802 206.89 43.5302C203.89 43.3102 203.43 42.6902 204.29 39.7902C204.73 38.3202 205.24 36.8602 205.72 35.4002V35.4102ZM162.59 148.68C163.58 146.82 164.25 145.23 165.2 143.83C171.7 134.16 178.27 124.54 184.76 114.86C185.46 113.81 186.38 112.41 186.2 111.34C185.22 105.36 182.59 100.39 176.42 97.5902C167.68 105.8 158.99 113.92 150.35 122.1C148.02 124.31 146.75 127 147.54 130.33C148.32 133.65 148.92 137 151.6 139.54C153.04 140.9 154.07 142.45 153.12 144.8C152.59 146.12 153.02 147.83 153.02 149.43C156.54 149.16 159.55 148.92 162.58 148.68H162.59ZM163.8 89.7002C163.14 91.5002 162.92 93.2102 162.01 94.3902C157.6 100.13 153.14 105.84 148.43 111.34C145.73 114.49 143.6 118.45 139.45 119.29C139.75 121.79 140.24 124.07 140.27 126.36C140.39 134.17 140.32 141.99 140.41 149.8C140.42 150.93 140.65 152.33 141.33 153.12C143.19 155.28 149.41 154.84 151.42 152.96C150.92 150.28 149.95 147.84 150.17 145.52C150.46 142.56 149.41 140.56 147.76 138.35C143.5 132.64 143.07 125.89 148.86 120.48C156.57 113.27 164.37 106.15 172.1 98.9602C173.35 97.8002 174.69 96.6402 175.58 95.2202C177.01 92.9302 178.1 90.4202 179.48 87.7202C179.51 87.7802 179.41 87.2002 179.16 87.1102C174.96 85.7102 171.44 83.2102 167.99 80.5402C167.65 80.2702 166.64 80.8602 165.68 81.1302C168.71 84.5902 173.17 85.5102 175.93 89.7102H163.8V89.7002ZM192.53 207.32C195.68 205.22 198.53 203.33 201.38 201.44C203.03 200.35 204.58 199 206.37 198.24C208.89 197.17 210.4 195.32 211.52 193.02C213.42 189.1 213.91 184.87 213.52 180.63C212.83 173.07 211.86 165.54 210.99 157.86C209.37 157.71 208.55 158.16 208.11 159.8C205.76 168.54 201.66 176.56 197.33 184.42C194.42 189.71 190.77 194.59 187.28 199.93C188.8 202.06 190.46 204.39 192.54 207.31L192.53 207.32ZM136.77 124.1C136.39 124.03 136.01 123.96 135.63 123.9C133.25 126.16 130.65 128.25 128.53 130.73C125.81 133.93 122.75 137.22 124.43 142.06C125.42 144.91 126.39 147.8 127.7 150.51C129.46 154.14 131.26 154.39 134.46 151.88C136.34 150.41 136.72 148.33 136.74 146.21C136.81 138.84 136.77 131.48 136.77 124.11V124.1ZM182.07 85.5802C182.13 85.9902 182.2 86.3902 182.26 86.8002C191.51 89.6902 200.76 92.5902 210.08 95.5002C210.91 93.8102 211.52 92.5602 212.15 91.2702C205.06 86.0502 196.71 84.2602 189.21 80.5902C186.7 82.3402 184.38 83.9602 182.06 85.5802H182.07ZM188.81 117.87C189.25 118.09 189.68 118.31 190.12 118.53C191.65 116 193.51 113.61 194.63 110.91C197.08 105 194.11 100.34 190.15 96.4202C188.27 94.5602 185.65 93.2602 183.13 92.3002C181.33 91.6102 179.02 91.6702 178.96 94.7902C183.41 97.6302 186.56 101.57 188.65 106.39C189.01 107.22 189.19 108.38 189.83 108.8C192.5 110.53 191.77 112.44 190.49 114.55C189.85 115.61 189.36 116.76 188.81 117.87ZM165.61 161.3C167.38 153.67 165.73 151.71 159.05 151.99C157.99 152.03 156.93 151.99 155.89 152.15C155.15 152.26 154.17 152.41 153.78 152.92C151.66 155.65 149.69 158.5 147.66 161.3C147.87 161.49 148.09 161.69 148.3 161.88C150.49 160.66 152.67 159.44 155.19 158.03C155.52 161.39 155.79 164.17 156.07 166.94C156.36 166.99 156.66 167.03 156.95 167.08C158.97 164.11 161 161.14 163.02 158.17C163.4 157.99 163.79 157.81 164.17 157.63C164.65 158.85 165.13 160.07 165.61 161.3ZM160.47 89.7902C158.84 89.2202 157.5 90.4502 156.2 91.8302C150.03 98.3502 143.84 104.84 137.7 111.38C136.58 112.58 135.7 113.99 134.57 115.49C137.06 116.73 138.84 116.16 140.3 114.62C142.01 112.81 143.58 110.86 145.15 108.91C150.29 102.52 155.41 96.1102 160.48 89.7802L160.47 89.7902ZM240.34 154.95C237.03 154.45 233.68 154.11 230.41 153.41C228.06 152.9 227.02 153.98 226.11 155.82C225.18 157.7 224.24 159.62 222.99 161.29C221.3 163.54 221.96 165.24 223.85 167.45C224.42 165.13 224.87 163.29 225.32 161.45C228.76 161.77 228.29 165.28 230.72 167.46C230.34 165.02 230.15 163.38 229.81 161.78C229.23 159.05 229.59 158.47 232.29 158.28C235.17 158.08 237.95 157.58 240.36 154.95H240.34ZM219.59 159.08L220.52 159.36C222.01 156.8 223.5 154.25 225.61 150.6C223.76 149.05 221.89 147.49 219.59 145.56V159.08ZM189.58 207.49C187.47 205.2 186.11 203.72 184.63 202.11C182.64 204.72 180.9 207.01 179.16 209.3C179.37 209.52 179.58 209.74 179.79 209.97C182.76 209.22 185.72 208.47 189.59 207.49H189.58ZM171.86 215.09C169.64 216.95 167.79 218.5 165.79 220.17C168.33 221.44 170.58 222.57 173.44 224C172.84 220.63 172.4 218.11 171.86 215.09Z" fill="black"/>
<path d="M329.06 185C324.23 185.95 324.169 185.94 323.509 190.26C322.059 199.69 318.149 208.17 313.249 216.21C311.619 218.87 309.31 221.11 307.33 223.57C306.1 225.1 304.939 226.67 303.999 227.89C304.909 229.75 305.519 231.12 306.229 232.44C306.639 233.21 307.139 233.95 307.709 234.61C310.369 237.73 313.199 240.77 311.659 246.12C309.299 246.49 306.599 247.4 303.959 247.23C296.029 246.74 288.129 245.89 280.229 245.06C277.179 244.74 274.51 243.67 274.07 239.77C271.93 241.58 269.969 241.13 267.929 240.21C263.229 238.09 258.34 236.33 253.86 233.84C250.91 232.2 248.499 229.58 245.919 227.32C244.309 225.91 244.65 224.51 246.36 223.46C248.84 221.93 251.249 220.21 253.919 219.09C259.639 216.68 263.1 212.1 266.33 207.17C268.56 203.77 270.96 200.47 273.12 197.03C273.77 195.99 274.159 194.61 274.189 193.37C274.309 188.34 274.239 183.31 274.239 177.92C270.829 177.66 270.429 175.02 270.189 172.27C269.939 169.38 269.679 166.49 269.399 163.29C267.689 163.78 266.209 164.28 264.689 164.64C259.959 165.77 256.05 164.93 252.62 160.95C246.55 153.9 243.009 145.5 238.999 137.33C237.989 135.28 238.97 133.28 241.55 133.12C245.96 132.86 245.939 130.18 246.709 126.84C248.149 120.58 250.699 114.58 252.629 108.43C254.409 102.74 258.32 99.0802 263.35 96.3002C265.42 95.1602 267.389 93.8202 269.729 92.3702C268.669 91.2102 267.73 90.1802 266.78 89.1602C264.36 86.5702 264.37 85.6002 266.85 83.3002C271.24 79.2502 274.899 79.3202 279.199 83.6302C281.339 85.7702 283.349 88.0402 285.459 90.3002C286.869 89.9002 288.38 89.4802 290.11 88.9902C290.36 88.0402 290.65 86.9302 290.85 86.1602C287.69 83.5902 284.939 80.9102 281.769 78.8902C278.799 77.0002 275.329 75.9102 272.189 74.2802C270.569 73.4402 268.949 72.3702 267.719 71.0502C265.659 68.8502 265.3 66.2102 266.37 63.2802C266.98 61.6102 267.559 59.7302 267.429 58.0002C266.649 47.7702 270.879 39.3002 277.209 31.9802C280.939 27.6602 286.649 25.8602 292.239 24.4502C299.409 22.6502 306.659 21.8202 313.879 23.6502C320.859 25.4202 325.98 29.5602 327.81 36.9102C328.06 37.9002 328.429 39.3502 327.949 39.9302C325.759 42.5602 327.269 44.8102 328.649 46.7702C330.679 49.6602 331.339 52.7502 331.209 56.1502C331.139 58.1402 331.1 59.9202 333.3 61.2502C334.23 61.8102 334.749 64.1102 334.469 65.4102C332.689 73.9402 328.479 81.1302 321.749 86.7602C321.149 87.2602 320.409 87.7702 319.669 87.8802C315.649 88.5102 311.58 88.8702 307.59 89.6502C305.94 89.9702 304.44 91.1202 302.58 92.0402C302.32 91.0902 302.059 90.1602 301.709 88.8602C299.039 89.4902 295.949 85.1302 292.879 89.5902C294.659 90.9702 296.2 92.1702 297.06 92.8302C299.28 92.8302 300.789 92.7102 302.269 92.8702C303.579 93.0102 304.97 93.2402 306.11 93.8302C307.41 94.5102 309.04 95.4002 309.57 96.6102C316.23 111.8 321.509 127.52 324.769 143.75C327.159 155.64 329.459 167.63 329.649 179.86C329.679 181.52 329.29 183.18 329.08 184.95L329.06 185ZM281.219 65.4902C278.199 65.0402 275.75 64.6302 273.28 64.3302C271.76 64.1502 270.43 64.4102 269.79 66.1702C269.21 67.7802 269.47 69.1402 270.86 70.0102C272.75 71.1802 274.739 72.2002 276.749 73.1502C279.269 74.3502 282.519 74.4202 283.389 78.0102C283.549 78.6802 284.73 79.2102 285.53 79.6102C290.74 82.2502 296.25 84.0402 302.05 84.7702C308.16 85.5402 314.169 85.5402 319.509 81.7002C324.919 77.8102 328.86 72.8702 330.78 66.4402C330.96 65.8502 331.079 64.8102 330.759 64.5602C327.559 62.0102 328.84 58.4602 328.6 55.2902C328.36 52.0602 327.959 49.0102 325.409 46.6002C324.689 45.9202 324.239 44.8302 323.939 43.8402C323.099 41.0402 320.929 40.0002 318.379 39.4802C311.359 38.0502 304.439 38.6202 297.629 40.6902C289.049 43.3002 281.03 52.6002 281.62 61.6302C281.69 62.7702 281.379 63.9402 281.199 65.4602L281.219 65.4902ZM279.07 175.52C279.3 178.52 279.68 180.95 279.62 183.38C279.48 188.99 280.039 194.61 278.969 200.21C278.339 203.5 277.869 206.91 281.419 209.42C282.319 210.06 282.4 212.29 282.35 213.77C282.26 216.38 281.679 218.96 281.499 221.57C281.339 223.95 281.56 226.35 281.37 228.72C281.21 230.66 280.779 232.63 277.969 232.96C277.749 231.37 277.57 230.01 277.35 228.42C275.44 228.55 273.8 228.67 271.61 228.82C272.7 231.81 273.569 234.21 274.429 236.56C274.929 236.46 275.069 236.45 275.189 236.4C281.539 233.67 287.24 229.24 294.55 228.99C294.91 228.98 295.35 228.8 295.62 228.55C299.29 225.16 302.849 221.63 305.399 217.32C307.939 213.04 310.109 208.53 312.489 204.15C315.819 198.03 317.479 191.4 318.469 184.57C318.569 183.89 318.47 182.97 318.06 182.47C313.16 176.3 308.18 170.19 303.07 163.87C299.83 168.95 296.879 173.58 293.879 178.28C292.039 177.75 290.559 177.33 289.129 176.91C288.939 173.33 288.76 170.04 288.57 166.53C282.93 167.47 282.57 173.61 279.06 175.51L279.07 175.52ZM299.57 160.33C296.37 157.96 294.37 154.27 294.61 149.72C294.92 143.96 295.269 138.08 296.669 132.52C299.019 123.15 298.879 114.49 292.429 106.74C289.579 103.31 286.41 100.24 281.8 99.2002C280.64 104.51 279.18 109.5 278.56 114.59C277.93 119.76 276.309 124.05 272.719 128.01C268.829 132.3 268.509 137.58 271.379 142.78C272.849 145.44 274.37 148.08 276.09 150.58C279.51 155.54 283.089 160.4 286.729 165.48C290.749 163.87 295 162.17 299.57 160.34V160.33ZM320.639 177.55C320.859 177.47 321.08 177.38 321.3 177.3C320.84 168.6 320.519 159.88 319.879 151.19C318.679 134.77 314.869 118.84 310.159 103.12C308.869 98.8102 307.329 97.9202 303.129 98.2302C304.429 101.87 306.24 105.56 307.04 109.46C308.21 115.22 307.579 120.75 302.199 124.64C301.189 125.37 299.78 126.54 299.78 127.52C299.72 134.77 299.65 142.05 300.29 149.26C300.55 152.24 303.16 154.99 303.53 157.99C303.87 160.76 305.12 162.21 307.06 163.72C308.83 165.1 310.459 166.68 312.019 168.3C314.949 171.34 317.789 174.46 320.659 177.56L320.639 177.55ZM267.689 86.8402C270.019 89.7702 272.52 91.3202 276.12 90.6302C277.63 90.3402 279.399 90.7202 279.159 92.6602C279.069 93.4402 277.26 94.6602 276.33 94.5902C269.82 94.0702 265.709 98.5502 261.199 100.93C264.389 109.01 267.4 116.6 270.62 124.75C277.84 116.72 277.889 106.6 280.499 97.4602C287.979 96.4302 297.449 106.96 301.159 121.07C302.469 118.73 304.179 117.05 304.269 115.29C304.649 107.64 303.029 100.66 296.479 95.5602C289.349 90.0002 288.73 89.8902 281.54 95.5702C281.45 95.6402 281.149 95.4602 280.889 95.3802C281.419 94.3802 281.939 93.4002 282.379 92.5802C280.139 89.9202 278.12 87.5002 276.08 85.1102C274.35 83.1002 272.72 82.7802 270.55 84.2202C269.5 84.9202 268.659 85.9402 267.699 86.8302L267.689 86.8402ZM248.31 150.51C254.35 163.11 265.49 164.25 274.32 156.02C270.69 149.34 264.46 143.8 265.31 135.41H240.479C241.919 138.58 243.1 141.15 244.11 143.38C248.08 142.95 251.819 142.55 255.659 142.14C256.099 143.32 256.349 144.2 256.729 145.01C258.269 148.3 256.5 150.48 253.04 150.51C251.61 150.52 250.18 150.51 248.3 150.51H248.31ZM258.33 102.43C257.12 104.28 256.259 105.39 255.639 106.62C254.749 108.39 253.909 110.2 253.259 112.06C251.569 116.92 249.769 121.76 248.459 126.73C247.399 130.73 247.469 133.44 253.219 133.23C257.019 133.09 260.82 132.88 264.6 132.51C265.28 132.44 266.189 131.58 266.449 130.89C266.949 129.56 267.509 127.99 267.239 126.69C265.529 118.54 263.09 110.62 258.34 102.42L258.33 102.43ZM277.459 241.41C288.459 242.29 298.299 243.06 308.269 242.94C306.919 238.33 301.999 236.9 300.919 232.61C300.849 232.32 299.969 232.03 299.499 232.07C296.289 232.34 292.979 231.67 289.889 233.22C286.479 234.93 282.97 236.44 279.6 238.22C278.87 238.61 278.529 239.75 277.449 241.42L277.459 241.41ZM277.35 224.84C277.67 221.02 278.049 217.62 278.189 214.22C278.219 213.45 277.519 212.57 276.999 211.86C275.609 209.94 274.14 208.08 272.61 206.08C270 208.92 266.98 212.2 263.8 215.67C265.73 218.83 267.649 221.96 269.629 225.2C272.239 225.08 274.8 224.96 277.36 224.85L277.35 224.84ZM260.08 218.59C256.03 220.96 252.469 223.03 248.499 225.35C254.559 231.88 261.59 235.04 269.86 237.71C266.41 230.96 263.31 224.91 260.08 218.59ZM275.259 157.86C271.509 162.86 274.75 168.09 274.31 174C277.38 170.48 279.82 167.67 282.06 165.1C279.74 162.63 277.549 160.29 275.259 157.85V157.86ZM290.689 165.44V172.3C294.559 170.18 295.85 168.7 299.09 162.54C295.89 163.64 293.269 164.55 290.689 165.44ZM253.35 144.31C250.57 144.51 248.139 144.69 245.379 144.89C245.889 146.13 246.269 147.04 246.479 147.54C249.319 147.37 251.809 147.23 254.419 147.07C254.079 146.2 253.76 145.36 253.35 144.31Z" fill="black"/>
<path d="M52.4798 145.65C48.5098 149.64 44.0699 151.09 39.0499 151.66C34.1199 152.22 29.3698 153.06 25.6398 150.13C22.2398 150.83 19.33 151.76 16.36 151.96C11.09 152.32 8.70979 149.88 7.16979 143.52C6.40979 140.37 6.74987 136.97 6.50987 133.69C6.42987 132.58 6.45989 131.05 5.77989 130.46C2.06989 127.23 2.75993 123.26 4.06993 119.52C5.20993 116.27 7.01984 113.09 10.9698 113.7C11.4498 111.8 11.45 109.9 12.34 108.59C14.91 104.79 17.5598 100.98 20.6798 97.6301C27.4498 90.3701 34.4899 83.3701 41.4999 76.3401C43.2599 74.5801 45.1999 72.9201 47.3099 71.6301C48.3699 70.9901 50.02 71.12 51.37 71.23C52.36 71.32 53.3098 71.96 54.4598 72.42C55.1898 70.84 55.7499 69.39 56.5099 68.05C57.0699 67.05 57.7799 66.1001 58.5799 65.2701C60.0299 63.7501 61.9499 64.0201 63.2999 65.0301C64.0599 65.6001 64.3098 67.3801 64.1498 68.5301C63.8398 70.7201 63.0599 72.85 62.4999 74.91C63.6799 76.17 64.8598 77.4401 65.9198 78.5801C68.0598 77.7501 70.47 76.82 73.62 75.6C73.75 73.84 73.93 71.42 74.09 69.22C65.83 64.23 59.4898 57.9701 55.2098 49.6501C54.0098 47.3201 53.9098 45.1701 54.6398 42.7801C56.6498 36.2401 59.7398 30.2 63.9598 24.87C69.1398 18.33 74.72 12.1 80.12 5.74004C82.3 3.17004 84.8399 2.68006 88.2799 3.14006C98.5599 4.53006 108.08 8.03003 116.99 13.05C120.49 15.02 123.55 17.97 126.31 20.93C127.79 22.52 128.06 25.0901 126.19 27.1401C122.36 31.3301 118.66 35.65 114.66 39.67C113.41 40.92 112.62 41.84 112.94 43.67C113.27 45.61 114.75 45.67 116.12 46.1C117.19 46.44 118.23 46.89 119.47 47.37C117.9 55.41 113.91 61.6801 108.02 66.6301C104.32 69.7301 100.83 73.36 95.87 74.61C94.34 75 92.7298 75.5601 91.2298 75.4001C88.1698 75.0901 86.2199 76.2601 84.7499 78.8301C84.1099 79.9401 83.0398 80.8 81.9298 82.04C87.3098 86.75 89.2198 92.91 89.3998 99.75C89.3998 99.88 89.4498 100.02 89.4198 100.15C87.2198 108.66 91.81 116.12 93.12 124.09C93.93 129.03 94.7999 133.95 95.5599 138.9C95.6699 139.63 95.56 140.65 95.11 141.15C92.74 143.83 93.0699 147.11 92.7899 150.28C92.0799 158.31 90.4499 166.15 87.8099 173.77C86.7699 176.76 85.7698 179.77 84.6998 182.75C83.7798 185.31 83.0699 188 81.7699 190.35C77.5199 198.04 73.6598 206.02 67.6598 212.6C66.2798 214.11 64.4299 215.19 62.7999 216.47C62.9499 216.93 63.0899 217.39 63.2399 217.85C67.6099 219.57 71.8998 221.6 76.3998 222.88C78.5198 223.48 79.73 224.55 80.1 226.27C80.63 228.75 79.3098 231.18 77.2098 231.65C74.2498 232.31 71.1698 232.99 68.1898 232.83C60.6898 232.42 53.2198 231.41 45.7198 230.9C41.6698 230.63 39.01 227.93 36.12 225.85C29.72 221.26 24.5597 215.43 20.8797 208.37C19.3497 205.43 19.57 204.03 22.11 201.86C22.61 201.43 23.1298 201.01 23.6698 200.64C26.6598 198.6 29.86 197.06 32.6 194.4C34.81 192.26 37.6399 190.42 40.0799 188.27C48.4799 180.85 53.0299 171.77 52.5299 160.36C52.3299 155.76 52.4999 151.15 52.4999 145.66L52.4798 145.65ZM54.7399 146.09C55.7299 169.56 54.2398 192.75 46.9798 215.53C51.1198 216.32 54.9899 216.25 58.7999 214.98C59.4799 214.75 60.1399 214.14 60.5699 213.53C64.0699 208.61 67.8198 203.83 70.8898 198.66C74.8398 192.01 78.7198 185.24 81.7298 178.14C84.9498 170.53 87.1898 162.5 89.7198 154.61C90.6198 151.82 91.0999 148.89 91.7899 145.96C88.0199 145.76 84.7799 145.58 81.2499 145.39C81.5799 147.01 82.2199 148.36 81.9999 149.53C81.6999 151.11 80.9098 152.71 79.8998 153.95C79.6598 154.24 77.6999 153.16 76.5499 152.67C75.9699 152.42 75.4198 152.08 74.8998 151.8C71.8098 154.38 71.5598 159.32 66.9698 160.5C64.8298 157.39 67.7699 154.08 66.5599 151.01C63.3299 152.06 60.7998 154.26 57.4198 154.14C55.8198 150.17 60.1898 148.7 60.6398 145.68C58.5898 143.83 56.7798 145.1 54.7298 146.1L54.7399 146.09ZM48.3898 72.7101C46.1698 75.9201 43.7397 78.5201 42.3797 81.5901C38.4497 90.5001 34.68 99.5001 31.37 108.65C28.21 117.38 26.7598 126.53 27.1498 135.86C27.2698 138.73 27.7099 141.62 28.3299 144.42C28.8599 146.81 30.8198 147.65 33.1698 147.74C38.2798 147.94 43.13 146.74 47.84 144.92C48.67 144.6 49.75 143.64 49.84 142.88C50.44 137.38 51.0398 131.86 51.1798 126.34C51.3198 120.92 50.9299 115.43 52.8199 110.26C55.1699 103.82 57.8997 97.5201 60.3797 91.1301C60.9397 89.6901 61.2199 88.1201 61.5099 86.5901C61.7699 85.2101 61.7999 83.79 62.0499 82.41C62.2999 81.04 62.6899 79.7 63.0399 78.24C58.1499 76.39 53.5498 74.6601 48.3898 72.7101ZM65.1398 57.6301C65.2398 52.5901 65.8799 51.11 68.7999 51.06C72.3799 51 76.2397 50.2 79.3797 52.99C79.7997 53.36 80.4998 53.4101 81.1598 53.6401C81.5998 45.0201 82.0298 36.65 82.4598 28.29C82.6698 28 82.89 27.7 83.1 27.41C87.52 34.05 92.9498 38.3101 101.45 36.3301C100.47 34.2801 99.5699 32.53 98.7999 30.74C98.0799 29.06 96.5299 27.47 97.8299 25.23C104.32 27.47 109.61 30.8101 111.87 37.6301C122.04 29.8301 122.88 28.97 124.6 24.35C122.65 22.58 120.69 20.45 118.38 18.81C115.81 16.99 113.03 15.38 110.15 14.13C104.33 11.63 98.4598 9.22006 92.4598 7.20006C89.2398 6.12006 86.0098 6.89004 83.1498 9.12004C77.4098 13.59 73.2998 19.48 68.8998 25.11C66.0798 28.72 63.8498 32.8 60.9798 36.36C55.0898 43.67 57.6598 53.2101 65.1398 57.6301ZM66.84 54.5901C67.35 59.1501 70.3599 60.53 72.9899 61.73C76.7899 63.46 79.7898 66.05 82.6398 68.92C87.2698 73.58 92.41 74.38 98.09 71.06C101.17 69.26 104.32 67.45 107.04 65.17C112.21 60.86 115.84 55.45 117.58 48.3C112.26 48.44 111.54 45.1301 110.94 41.1401C110.01 34.9201 106.55 31.4001 100.32 29.3201C101.33 31.4601 102.31 33.4701 103.23 35.5101C104 37.2101 103.46 38.3101 101.62 38.7801C96.43 40.1101 91.6499 39.6101 87.5499 35.7701C86.7299 35.0001 85.7999 34.36 84.7899 33.56C84.2199 41.51 83.68 49.07 83.12 56.97C80.09 55.65 77.7198 54.01 75.1698 53.66C72.5798 53.3 69.81 54.2001 66.84 54.5801V54.5901ZM79.85 103.17L80.5199 103.15C80.6199 101.26 80.8299 99.36 80.7899 97.47C80.7399 95.67 80.93 93.59 80.12 92.12C77.57 87.48 71.8499 85.2901 66.7499 86.9601C65.3399 87.4201 63.9698 88.8601 63.1898 90.2001C62.1498 91.9901 61.7499 94.15 60.9999 96.12C59.0899 101.17 56.6199 106.07 55.3299 111.27C53.7799 117.54 53.1099 124.04 55.5099 130.43C56.9399 134.23 58.0699 138.15 59.3199 141.97C64.1199 140.51 69 139.03 73.86 137.55C73.65 136.13 73.55 135.08 73.34 134.06C71.68 126.12 71.2398 118.12 72.1998 110.08C72.3498 108.82 73.1499 107.63 73.8199 105.98C75.1199 107.2 75.8598 107.9 76.6398 108.63C78.5398 105.57 74.91 101.96 78.35 98.9001C78.97 100.64 79.42 101.91 79.87 103.18L79.85 103.17ZM24.3299 115.03C21.9899 117.75 21.9699 117.87 20.0499 117.56C17.0599 117.07 14.0698 116.49 11.1398 115.74C9.62976 115.35 8.48997 115.42 7.85997 116.93C6.84997 119.36 5.74992 121.79 5.05992 124.32C4.49992 126.41 5.92987 128.45 8.00987 128.5C13.0899 128.62 18.1298 128.13 22.7098 126.78C26.1998 109.89 31.9399 94.42 40.7899 80.11C40.3199 79.95 40.1698 79.8601 40.1398 79.9001C31.3398 88.5001 23.14 97.62 16.37 107.93C15.05 109.95 15.4898 111.03 17.9098 112.2C19.8898 113.15 21.9199 113.98 24.3299 115.04V115.03ZM74.6798 120.09C75.3498 123.87 76.07 127.44 76.6 131.05C76.88 132.94 76.9298 134.88 76.9498 136.8C76.9698 138.5 78.6699 141.39 80.3299 141.64C83.4199 142.11 86.5599 142.28 89.8099 142.59C92.8799 131.11 88.1698 120.91 87.2198 109.71C82.7598 113.4 80.8698 118.89 74.6798 120.09ZM50.9798 181.49C50.7698 181.42 50.55 181.35 50.34 181.29C49.97 181.77 49.5698 182.24 49.2298 182.75C45.9598 187.61 42.1498 192.03 37.4498 195.48C32.9298 198.8 32.1999 198.29 35.3199 204.72C35.6599 205.43 36.3199 206.02 36.5499 206.75C37.6499 210.18 40.54 209.3 42.86 209.23C44.87 209.17 46.5498 208.26 46.9698 205.79C47.9798 199.82 49.2299 193.89 50.2799 187.93C50.6599 185.81 50.7498 183.64 50.9698 181.49H50.9798ZM22.34 131.33H8.39977C8.39977 133.25 8.36977 134.82 8.39977 136.39C8.43977 138.1 8.2098 139.9 8.6798 141.48C9.2098 143.26 10.05 145.21 11.36 146.45C14.64 149.53 18.9098 149.35 23.2298 146.59C22.9198 141.38 22.6199 136.32 22.3299 131.33H22.34ZM82.4198 110.63C83.2698 109.79 84.2098 109.03 84.9398 108.1C88.0798 104.12 88.41 99.7801 86.87 95.0201C84.61 88.0501 80.8798 82.42 73.8998 79.44C69.2298 77.45 66.12 79.43 65.62 84.91C72.86 83.18 78.24 85.9801 82.37 91.7701C86.82 98.0101 83.2298 104.08 82.4198 110.63ZM78.4698 148.3C78.6498 148.17 78.8199 148.04 78.9999 147.91C77.8299 145.26 76.6598 142.6 75.4198 139.78C73.9398 140.73 72.9898 141.46 71.9398 141.98C70.7598 142.56 69.4999 143 68.2399 143.41C64.3799 144.66 62.69 146.54 61.61 150.83C63.86 149.66 66.1298 148.48 69.1698 146.91C68.9498 150.31 68.78 152.85 68.61 155.4C68.83 155.44 69.0499 155.47 69.2699 155.51C71.1699 152.47 73.0699 149.44 75.0599 146.26C76.5899 147.18 77.5298 147.74 78.4798 148.31L78.4698 148.3ZM43.37 219.03C42.13 217.46 41.2398 216.23 40.2298 215.1C39.6898 214.5 38.9899 213.72 38.2899 213.64C36.0199 213.37 34.7399 211.93 33.7799 210.17C31.9799 206.88 30.3199 203.52 28.5499 200.1C27.5499 200.68 26.5399 201.25 25.5599 201.87C25.3499 202 25.25 202.28 25.1 202.5C27.28 209.1 39.4799 222.4 42.5099 221.17C42.7899 220.49 43.1297 219.65 43.3797 219.04L43.37 219.03ZM44.0799 223.08C51.8999 223.47 59.6898 223.87 67.4698 224.26C67.5598 223.89 67.6398 223.52 67.7298 223.15C65.0898 221.84 62.4899 220.44 59.7899 219.28C58.5399 218.74 57.0698 218.39 55.7298 218.46C52.7498 218.63 49.7799 219.41 46.8199 219.39C44.2499 219.37 43.95 220.57 44.09 223.08H44.0799ZM76.0099 228.09V226.82C73.1299 226.98 70.2598 227.35 67.3998 227.25C59.8998 226.98 52.3199 227.28 45.0699 224.68C43.6699 224.18 42.83 224.92 43.09 226.98C54.01 229.17 64.9599 230.25 76.0099 228.09ZM84.6 74.9501C83.97 73.9701 83.6999 73.32 83.2499 72.87C80.8099 70.46 77.6098 68.8201 75.9098 65.6401C75.8298 65.5001 75.2498 65.62 75.4398 65.62C75.7998 67.57 76.3098 69.4401 76.4698 71.3401C76.6498 73.4201 76.5099 75.53 76.5099 77.99C77.6999 78.73 79.2199 79.66 80.7599 80.61C82.1799 78.51 83.36 76.7801 84.6 74.9501ZM23.0599 204.1C23.9899 211.57 35.73 224.34 40.84 223.96C33.96 218.13 26.8499 212.62 23.0599 204.1ZM60.7899 74.4601C61.4599 71.9101 62.0799 69.51 62.7499 66.97C58.8499 66.83 58.8798 66.9701 57.6998 71.2601C57.0598 73.5901 58.2299 74.0201 60.7899 74.4601ZM52.9198 134.07C52.6898 134.07 52.4498 134.07 52.2198 134.07C52.0598 136.91 51.8898 139.76 51.6998 143.05C53.5998 142.94 54.8899 142.87 56.2899 142.79C55.0399 139.54 53.9798 136.81 52.9198 134.08V134.07ZM45.0399 211.96C44.8999 211.74 44.75 211.52 44.61 211.3C43.9 211.71 43.0999 212.03 42.5399 212.59C42.4099 212.72 43.1198 213.67 43.6998 214.71C44.3098 213.44 44.6699 212.7 45.0299 211.96H45.0399Z" fill="black"/>
<path d="M175.02 236.05C169.62 239.5 146.41 240.5 140.53 237.75C141.89 234.23 142.28 233.79 145.53 234.84C153.68 237.48 161.89 237.16 170.18 235.97C171.22 235.82 172.29 235.83 173.34 235.81C173.79 235.81 174.24 235.93 175.01 236.04L175.02 236.05Z" fill="black"/>
<path d="M194.48 71.06C192.55 69.05 191.01 67.49 189.52 65.88C187.28 63.46 187.65 61.88 190.6 60.43C193.56 58.97 196.69 58.59 199.89 58.91C203.29 59.25 204.1 61.12 202.51 64.07C200.64 67.54 197.38 69.25 194.48 71.06ZM200.69 62C197.05 60.58 193.91 61.71 190.53 62.76C193.4 67.47 195.03 68.57 200.69 62Z" fill="black"/>
<path d="M183.64 47.17C183.89 44.63 184.86 43.47 186.76 44.49C187.62 44.95 188.65 47 188.34 47.41C186.86 49.45 185.43 47.31 183.64 47.17Z" fill="black"/>
<path d="M205.3 46.22C206.43 47.39 207.35 48.09 207.83 49.02C207.97 49.29 206.52 50.84 206.32 50.74C205.32 50.26 204.38 49.5 203.7 48.63C203.55 48.43 204.53 47.36 205.3 46.22Z" fill="black"/>
<path d="M189.709 55.3302C187.796 55.9369 186.776 54.9769 186.649 52.4502C187.609 53.3502 188.569 54.2602 189.709 55.3302Z" fill="black"/>
<path d="M304.659 73.02C306.529 73.63 308.409 74.23 310.669 74.96C309.209 77.44 307.479 77.47 305.909 76.77C304.979 76.36 304.419 75.11 303.689 74.24C304.009 73.83 304.339 73.42 304.659 73.01V73.02Z" fill="black"/>
<path d="M313.57 61.0201C311.51 58.5001 311.48 56.1701 312.25 53.6501C314.91 55.2301 315.39 57.4701 313.57 61.0201Z" fill="black"/>
<path d="M92.5297 59.83C92.4397 56.03 94.1897 54.92 97.3297 56.28C98.8797 56.95 100.5 57.48 102.05 58.16C104.78 59.36 105.16 62.01 102.95 64.17C97.9896 69.02 95.6396 68.5 93.2296 62.01C92.9096 61.16 92.6697 60.28 92.5297 59.84V59.83ZM97.2997 64.13C98.5497 63.39 99.5297 62.81 100.52 62.23C100.47 61.96 100.42 61.69 100.37 61.42C98.8798 61.01 97.3996 60.6 94.9696 59.93C96.0396 61.85 96.5697 62.81 97.3097 64.13H97.2997Z" fill="black"/>
<path d="M102.38 43.3801V46.8301C102.13 46.8301 101.88 46.8301 101.63 46.8301V43.3801C101.88 43.3801 102.13 43.3801 102.38 43.3801Z" fill="black"/>
</svg>
