<svg width="31" height="71" viewBox="0 0 31 71" fill="none" xmlns="http://www.w3.org/2000/svg">
<path d="M29.9002 37.2698C29.7002 33.8398 29.5003 30.2797 29.7203 26.8497C29.9303 23.5797 29.8202 20.3098 29.7002 17.1298C29.6402 15.3998 29.5704 13.6097 29.5704 11.8697C29.5504 6.51975 25.7604 2.12977 20.3604 1.20977C15.9704 0.459774 11.7803 1.31977 7.54033 3.82977C4.94033 5.36977 0.100277 8.23977 0.240277 14.3898C0.260277 15.0798 0.260296 15.7797 0.260296 16.4897C0.260296 19.1997 0.260316 21.9997 1.03032 24.7197C1.76032 27.3097 1.86024 30.0897 1.95024 32.7897C2.00024 34.2797 2.06025 35.8298 2.21025 37.3798C2.52025 40.4398 2.48024 43.6598 2.45024 46.7698C2.44024 48.0098 2.42022 49.2497 2.43022 50.4797C2.45022 53.9097 2.44022 57.3297 2.43022 60.7997V67.1398L3.79033 67.8398C8.41033 70.1998 13.3903 70.4898 18.5003 70.5898H18.6702C21.7502 70.5898 24.5703 68.9798 25.9703 68.0198C27.7303 66.8198 29.1204 64.3697 29.3604 62.0497C29.6304 59.4397 29.7103 56.8198 29.7903 54.2798C29.8503 52.4098 29.9103 50.4697 30.0403 48.5997C30.3203 44.7597 30.1002 40.9498 29.8902 37.2698H29.9002Z" fill="white"/>
<path d="M7.42006 27.55C7.17006 26.41 6.72007 25.2801 6.69007 24.1401C6.60007 20.2701 6.65005 16.3901 6.66005 12.5201C6.66005 9.39007 7.70012 7.94008 10.7401 7.28008C12.8201 6.83008 15.1102 7.06004 17.0302 6.30004C18.5202 5.71004 19.4901 6.16003 20.7101 6.54003C23.4401 7.38003 24.4302 9.80007 24.5702 12.0201C24.8902 16.9701 25.8302 22.0701 23.3502 26.8301C18.0402 27.0701 12.7301 27.32 7.42006 27.56V27.55Z" fill="#D83832"/>
<path d="M22.0103 47.8901C22.8403 47.9501 23.6602 48.0101 24.4802 48.0601C24.3002 52.5401 24.1202 56.9101 23.9302 61.3601C21.2202 63.5401 17.8502 61.7701 14.9502 62.7101C11.9202 63.7001 9.11028 62.3901 6.29028 62.3901V52.4301C7.06028 52.4301 8.26031 52.0901 9.07031 52.5001C10.6003 53.2801 11.4602 52.5901 12.4102 51.6601C13.3002 50.8801 14.2103 50.1301 15.0803 49.3301C15.8903 48.5701 16.6401 48.5301 17.6301 49.0901C19.9301 50.3801 19.9602 50.3201 22.0002 47.8901H22.0103Z" fill="#EEB344"/>
<path d="M19.7402 30.53C21.0602 30.53 22.3802 30.51 23.7002 30.52C23.9302 30.52 24.1504 30.62 24.6104 30.72V45.56C22.0404 45.29 21.9403 45.18 22.0203 43.31C22.0503 42.69 21.9401 42.06 21.8901 41.43C22.0201 40.52 22.1603 39.61 22.3003 38.67C19.7103 36.23 18.8603 36.37 15.5403 39.92C15.2503 39.8 14.9104 39.7 14.6204 39.52C12.3604 38.11 11.2203 38.18 10.0703 39.85C8.87031 41.59 9.79027 42.59 11.2803 43.52C12.8403 44.5 12.7302 45.89 11.7402 47.2C11.1202 48.03 10.2803 48.7 9.54028 49.44C8.46028 49.7 7.3702 49.96 5.9502 50.3C6.1902 46.24 5.28031 42.66 6.57031 39.12C6.83031 38.4 6.5702 37.46 6.4502 36.63C6.2602 35.24 5.99025 33.87 5.76025 32.52C7.24025 32.04 8.41032 31.65 9.58032 31.27C9.83032 31.22 10.0803 31.18 10.3303 31.13C12.8703 31.16 15.4102 31.24 17.9502 31.19C18.5702 31.18 19.1703 30.74 19.7803 30.5L19.7302 30.54L19.7402 30.53Z" fill="#EEB344"/>
<path d="M9.54017 49.43C10.2802 48.69 11.1101 48.02 11.7401 47.19C12.7201 45.88 12.8302 44.49 11.2802 43.51C9.80016 42.58 8.8702 41.58 10.0702 39.84C11.2302 38.17 12.3702 38.1 14.6202 39.51C14.9102 39.69 15.2502 39.78 15.5402 39.91C18.8602 36.36 19.7102 36.22 22.3002 38.66C22.1602 39.61 22.03 40.52 21.89 41.42C21.18 41.98 20.46 42.55 19.88 43C19.62 45.23 22.4601 45.79 22.0001 47.88C19.9501 50.32 19.92 50.37 17.63 49.08C16.63 48.52 15.8902 48.56 15.0802 49.32C14.2202 50.13 13.3 50.88 12.41 51.65C10.5967 51.5433 9.63683 50.8 9.53016 49.42L9.54017 49.43Z" fill="#D83832"/>
<path d="M10.3303 31.1303C10.0803 31.1803 9.83032 31.2203 9.58032 31.2703H5.42017C5.34017 30.0503 5.27019 29.0403 5.19019 27.7603C6.06019 27.6803 6.74017 27.6103 7.42017 27.5503C12.7302 27.3103 18.0403 27.0603 23.3503 26.8203C23.6703 27.6103 23.9903 28.4003 24.3203 29.1903C22.5403 29.7103 21.1402 30.1303 19.7502 30.5403L19.8003 30.5003C17.2703 30.5003 14.7402 30.4603 12.2202 30.5303C11.5902 30.5503 10.9703 30.9203 10.3503 31.1403L10.3303 31.1303Z" fill="#9ED0CE"/>
<path d="M4.92016 65.6199C4.92016 60.4699 4.94016 55.4699 4.92016 50.4699C4.90016 46.0199 5.13018 41.5399 4.69018 37.1299C4.26018 32.7799 4.65017 28.3899 3.43017 24.0399C2.57017 20.9799 2.80022 17.5799 2.73022 14.3299C2.64022 10.0799 5.69029 7.8199 8.81029 5.9699C12.1703 3.9799 15.8502 2.9599 19.9402 3.6599C24.0202 4.3599 27.0603 7.68992 27.0803 11.8699C27.1003 16.8099 27.5602 21.7599 27.2302 26.6699C26.7502 33.9399 28.0903 41.1499 27.5603 48.4099C27.2403 52.8599 27.3401 57.3499 26.8901 61.7899C26.7401 63.2799 25.7703 65.1399 24.5803 65.9499C22.8603 67.1199 20.5803 68.12 18.5703 68.09C13.9103 68 9.16018 67.7799 4.94018 65.6199H4.92016ZM7.61034 26.1799C12.1203 26.1799 16.4202 26.1499 20.7202 26.1899C22.6002 26.2099 23.7703 25.5 23.8403 23.53C23.9503 20.04 24.3202 16.5099 23.9902 13.0499C23.5402 8.27991 20.4703 6.2099 15.6103 6.9099C14.0703 7.1299 12.4403 7.3599 11.0803 8.0399C9.46031 8.8499 7.18016 9.50993 7.17016 11.7599C7.15016 16.6599 7.45034 21.5699 7.61034 26.1799ZM7.01024 61.9699C12.5802 62.0099 18.1302 62.44 23.6902 60.78V48.1799C22.2002 49.3399 20.8303 50.3999 19.5703 51.3899C18.3203 50.6499 17.3901 50.0999 16.4001 49.5099C15.0301 50.7199 13.8703 52.3099 12.3103 52.9799C10.7403 53.6499 8.77025 53.4099 7.02025 53.5599V61.9799L7.01024 61.9699ZM24.1204 31.2699C18.1804 31.7499 12.4904 32.1999 6.87035 32.6599V49.9399C9.09035 48.7399 11.3702 48.0699 11.7402 45.5799C11.1802 43.4899 7.41023 43.9299 8.50023 41.2499C9.18023 39.5999 10.8302 38.3399 11.9602 37.0099C13.6202 37.6599 14.8203 38.1399 15.8603 38.5499C17.8903 37.4599 18.7202 34.1599 21.7002 35.8699C24.4702 37.4599 23.3802 39.7699 22.2402 42.0199C24.3602 40.5699 24.6503 38.58 24.1103 31.28L24.1204 31.2699ZM9.88012 40.6999C13.2401 43.4466 13.6735 46.3499 11.1802 49.4099C10.7702 49.9199 10.5802 50.6199 9.95019 51.9599C13.6202 49.6399 15.5901 44.8599 20.1401 48.7499C21.7501 46.1699 18.7802 45.6199 18.4502 43.7999C19.3202 42.4999 20.2903 41.0499 21.3403 39.4799C20.5503 38.8499 19.9303 38.3599 19.3503 37.8999C18.8403 38.1999 18.4302 38.3099 18.2402 38.5799C16.8602 40.5299 15.3503 41.2199 13.0703 39.7699C12.5503 39.4399 11.3101 40.2499 9.88012 40.6999ZM23.2302 29.0099C23.2202 28.5499 23.2002 28.0799 23.1902 27.6199C17.8502 27.8399 12.5002 28.0299 7.17016 28.3599C6.72016 28.3899 6.33016 29.3399 5.92016 29.8699C6.07016 30.1099 6.22034 30.35 6.36034 30.59C11.9803 30.07 17.6102 29.55 23.2302 29.03V29.0099ZM7.51024 63.9599C7.55024 64.1299 7.59012 64.2999 7.63012 64.4699H14.7803C14.7803 64.2999 14.7803 64.1299 14.7803 63.9599H7.52025H7.51024Z" fill="black"/>
</svg>
