<svg width="114" height="120" viewBox="0 0 114 120" fill="none" xmlns="http://www.w3.org/2000/svg">
<path d="M63.6603 98.29C63.7103 97.96 63.7803 97.52 63.7403 97.01C63.6503 95.71 63.5904 94.41 63.5204 93.11C63.3604 89.9 63.1903 86.59 62.7103 83.32C61.9903 78.43 60.9403 72 59.2203 65.66C58.5603 63.23 57.9903 60.73 57.4303 58.31C55.9903 52.08 54.5004 45.65 51.5504 39.58C50.1504 36.71 48.2803 35.52 45.2103 35.55C43.4803 35.59 41.7303 35.59 39.9103 35.58C40.3003 33.85 40.1404 32.2 40.0204 30.86C39.9304 29.94 39.8503 29.08 39.9403 28.36C40.2303 25.86 40.3303 23.41 40.4303 21.03C40.4403 20.72 40.4503 20.41 40.4703 20.1C40.6003 20.07 40.7405 20.05 40.8705 20.02C42.9605 19.62 45.1204 19.21 46.0304 17.29C46.6204 16.05 47.5703 15.54 49.2303 14.73C49.7803 14.46 50.3405 14.19 50.8705 13.88C52.2705 13.07 53.7403 12.28 55.1603 11.51C56.3603 10.86 57.5604 10.21 58.7504 9.53996L58.8902 9.46C60.1002 8.78 62.9404 7.18999 62.0404 3.00999L61.5604 0.799966L56.0904 1.42997C53.5804 1.71997 50.7303 2.06 47.9903 2.33C47.7603 2.35 47.5203 2.37996 47.2203 2.41996C46.6503 2.48996 46.2604 2.52996 46.0004 2.53996C43.9104 0.309956 41.3304 0.440007 39.5704 0.530007L36.5604 0.669961C32.5304 0.849961 28.3603 1.02998 24.2303 1.49998C23.6003 1.56998 22.9103 1.58996 22.1503 1.60996C19.5503 1.66996 16.0604 1.75998 13.5304 4.68998C13.3504 4.68998 13.1704 4.69 13.0004 4.71C7.62035 5.12 6.02029 6.57997 5.19029 11.8C4.88029 13.74 5.20024 15.33 6.14024 16.55C7.10024 17.79 8.63028 18.51 10.6803 18.7C11.2503 18.75 11.8202 18.79 12.3802 18.82C12.5702 21.33 13.8403 22.75 16.1503 23.05C14.7103 27.43 12.7505 32.44 9.11046 36.38C8.50046 37.04 8.27044 37.78 8.09044 38.37C8.04044 38.54 7.98025 38.74 7.90025 38.94L6.58043 42.35H10.2303C10.5203 42.35 10.7804 42.37 11.0404 42.39C11.7404 42.44 12.5403 42.49 13.4103 42.2C16.0403 41.32 18.3602 40.26 20.3902 39C19.3102 40.01 18.5203 41.42 17.9903 43.26C16.5203 48.39 14.9204 53.54 13.3504 58.56C12.0204 62.82 10.6505 67.23 9.37047 71.59C6.57047 81.14 3.78042 91.17 0.82042 102.26C0.41042 103.79 0.540254 105.3 0.650254 106.64C0.690254 107.19 0.740341 107.76 0.740341 108.26C0.740341 110.35 1.54028 114 6.93028 114.99L8.52037 115.28C12.2004 115.97 16.0105 116.68 19.8705 116.76C24.0105 116.85 28.5403 116.89 33.7003 116.89C38.8603 116.89 43.5502 116.85 48.3802 116.81L53.0504 116.77C54.4204 116.76 55.9404 116.24 57.3504 115.3C58.5204 114.52 59.5604 113.66 60.7604 112.68L60.9403 112.53C61.4003 112.15 61.8803 111.76 62.4103 111.34L63.0704 110.81L63.2804 109.98C63.3704 109.63 63.4604 109.26 63.5604 108.88C64.2904 106.11 65.2903 102.34 63.6603 98.34C63.6603 98.34 63.6603 98.32 63.6603 98.31V98.29ZM25.7604 34.51C25.8804 34.37 26.0005 34.23 26.1205 34.09C26.0605 35.04 26.0003 35.99 25.9403 36.94L24.9203 37.06C23.8703 37.18 22.9405 37.42 22.1205 37.8C23.4805 36.81 24.6904 35.71 25.7704 34.51H25.7604Z" fill="white"/>
<path d="M113.28 54.1301C113.04 51.4901 112.8 48.7801 112.96 46.1801C113.04 44.9101 112.4 43.4201 111.4 42.5501C110.11 41.4201 108.72 40.3001 107.26 39.1201L106.51 38.5101C106.6 38.1001 106.7 37.6501 106.8 37.2001C106.94 36.5401 107.09 35.8801 107.26 35.1601C107.65 33.4801 108.05 31.7401 108.31 29.9501C108.65 27.6801 108.28 25.8301 107.23 24.4501C106.57 23.6001 105.32 22.5301 103.06 22.2701C96.9204 21.5701 90.3303 21.2301 83.7603 23.5101C79.8403 24.8601 78.1703 27.5102 78.4903 31.8402C78.5703 32.9702 78.7004 34.1001 78.8204 35.2201C78.9204 36.1401 79.0204 37.0501 79.1004 37.9701C79.1304 38.3301 79.1004 38.4701 79.1204 38.4701C79.0904 38.5001 78.9604 38.6101 78.6104 38.7501C73.9704 40.6901 71.3603 44.4501 71.2503 49.3301C71.2003 51.6601 71.1602 53.9902 71.1302 56.4002C71.0702 60.2302 71.0102 64.1901 70.8802 68.0701C70.7602 71.5801 70.5802 75.1501 70.4002 78.6001C69.9502 87.4901 69.4803 96.6801 69.9603 105.83C70.1403 109.32 71.0004 113.6 76.0704 115.75C76.3504 115.87 76.6202 115.99 76.9002 116.11C77.8402 116.52 78.9003 116.98 80.0103 117.31C84.4803 118.6 88.9703 119.23 93.7403 119.23C97.0503 119.23 100.53 118.91 104.09 118.28C108.72 117.46 111.28 115.91 111.6 110.11C112.06 101.84 112.4 93.4402 112.74 85.2802L112.97 79.6701C113.06 77.5301 113.12 75.3901 113.19 73.2601C113.29 69.8401 113.4 66.2901 113.62 62.8201C113.81 59.8401 113.54 56.9301 113.29 54.1201L113.28 54.1301Z" fill="white"/>
<path d="M57.3503 108.86C44.7403 112 32.2902 110.2 19.9502 110.62C18.0502 110.68 16.1402 110.17 14.2302 109.97C13.5102 109.9 12.5503 109.68 12.0903 110.03C10.0303 111.62 8.20015 109.26 6.20015 109.79C5.94015 109.86 5.05021 108.82 5.01021 108.25C4.88021 106.33 4.70029 104.33 5.09029 102.47C6.11029 97.6302 7.04016 92.7203 8.71016 88.0903C10.6702 82.6403 11.2203 76.8302 13.5503 71.4902C14.6603 68.9402 14.8403 66.0003 15.6003 63.2703C17.3603 56.9203 19.2302 50.6103 21.0302 44.2703C21.9502 41.0403 22.1001 41.2802 25.4201 40.8002C30.1001 40.1102 34.7601 40.1303 39.4401 40.2003C40.9301 40.2203 42.1601 38.8503 43.9201 39.8903C45.0201 40.5403 46.7201 40.1802 48.3901 40.2902C50.1501 47.7102 52.4702 55.0603 53.5102 62.5803C54.5602 70.2103 56.1702 77.7502 56.7402 85.4902C57.3102 93.2302 57.0103 100.93 57.3603 108.86H57.3503ZM28.9802 67.1202C27.4002 66.8002 25.8203 66.4803 23.8303 66.0703C23.0403 69.5003 21.9202 72.4603 21.7602 75.4603C21.4602 80.7403 25.6403 86.1802 30.8203 88.1702C31.2003 88.3102 31.6902 88.6703 31.7702 89.0103C32.2402 91.0703 33.8203 90.6303 35.1003 90.4403C39.7503 89.7603 43.1403 86.8002 46.0503 83.4902C47.5903 81.7402 49.4702 79.8702 49.7202 76.9802C46.3502 75.8002 43.5202 76.8802 40.9502 78.7202C38.8202 80.2502 36.8803 82.0602 34.8603 83.7402C34.5803 82.9702 33.8803 82.0402 34.1103 81.4802C34.7903 79.8102 33.9302 78.2803 34.0402 76.7103C34.3302 72.4503 32.4002 69.4002 28.9802 67.1102V67.1202Z" fill="#71B45A"/>
<path d="M106.68 111.17C102.14 111.76 97.9302 112.64 93.7002 112.76C88.8102 112.9 83.8803 112.46 78.9903 112.06C77.6503 111.95 76.3703 111.12 74.7403 110.5V106.68C74.7403 102.81 74.7603 98.93 74.7403 95.06C74.7103 91.44 74.9703 87.83 74.8003 84.2C74.7203 82.47 74.1802 80.6 75.3902 78.92C75.6202 78.6 75.2004 77.82 75.1104 77.25C74.9804 76.43 74.5603 75.51 74.8003 74.81C76.0603 71.16 75.3502 67.41 75.4402 63.72C75.5702 58.76 75.4403 53.79 75.5003 48.83C75.5203 47.56 75.4402 45.65 76.1602 45.17C78.0602 43.9 79.4604 41.51 82.1104 41.65C87.2604 41.92 92.4603 40.86 97.5603 42.32C98.1203 42.48 98.7804 42.44 99.3704 42.34C103.48 41.64 105.96 44.35 108.43 46.82C109.01 47.4 109.16 49.01 108.79 49.81C108.09 51.29 108.14 52.45 108.84 53.86C109.18 54.54 108.93 55.52 108.93 56.37C108.93 65.45 109.26 74.55 108.8 83.61C108.54 88.64 108.42 93.67 108.15 98.69C107.92 102.9 107.19 107.08 106.69 111.19L106.68 111.17ZM95.2002 88.07C94.8902 85.93 94.5903 83.79 94.2803 81.65C94.4003 80.95 94.4102 80.21 94.6702 79.55C95.3502 77.8 94.7104 76.59 93.3704 75.58C90.1104 76.4 89.7204 79.08 89.3304 81.6C89.1104 83.03 89.0603 84.39 87.7603 85.31C85.0603 85.86 83.1602 83.63 80.7102 83.29C79.4502 84.3 79.4203 85.56 80.2803 86.73C81.2103 88.01 82.3702 89.12 83.4302 90.3C84.3502 91.43 85.2603 92.56 86.3003 93.85C89.2903 94.15 92.6203 94.73 95.5503 92.95C98.3603 91.25 101.49 89.58 101.64 85.53C98.4902 84.51 97.1002 86.92 95.1802 88.07H95.2002Z" fill="white"/>
<path d="M42.0803 5.26027C42.3903 8.93027 42.6802 12.2403 42.9902 15.9603C41.4802 16.3003 40.1803 16.7102 38.8503 16.8602C36.4503 17.1302 36.1302 17.2503 36.2302 19.7103C36.4002 24.0103 35.6403 28.3403 36.8403 32.6303C37.1803 33.8603 37.0001 35.9803 36.2001 36.6403C34.5801 37.9603 32.3101 38.3703 30.1401 37.8403C29.0401 37.5703 28.6802 36.5303 28.9902 35.5103C30.1902 31.4903 30.2501 27.3702 30.4401 23.2302C30.5601 20.5502 31.1603 17.9003 31.6103 14.8203C31.0203 13.4603 29.3303 13.7503 28.0603 14.0903C26.0203 14.6303 27.0301 16.7503 26.6801 18.0703C25.8701 18.3103 25.2203 18.4902 24.5903 18.6802C24.6703 19.0502 24.6602 19.4202 24.7802 19.4702C26.1002 20.0302 26.8103 20.8002 26.8203 22.4102C26.8303 24.1202 25.9203 24.7202 24.6203 25.2302C24.4303 25.3002 24.3103 25.5903 24.0703 25.8903C25.8403 29.1003 23.6903 31.5703 21.8403 33.6203C20.0703 35.5903 17.8303 37.6603 14.3303 37.1203C14.7803 33.9503 16.8102 31.6803 17.8002 29.0003C18.7602 26.3903 19.3901 23.6602 20.1801 20.9102C19.8201 20.7702 19.5201 20.6402 19.2001 20.5402C16.3535 19.6802 15.2534 17.7669 15.9001 14.8002C15.0401 14.9202 14.3003 14.9503 13.6003 15.1503C9.99029 16.1503 8.25025 14.7003 8.55025 11.0203C8.66025 9.72028 9.17017 9.07026 10.4702 8.88026C11.3902 8.75026 12.2601 8.32027 13.1801 8.20027C14.1301 8.08027 15.1003 8.17024 16.1103 8.17024C17.0703 5.77024 19.2102 5.34025 21.2902 5.31025C28.0602 5.19025 34.8403 5.27028 42.0903 5.27028L42.0803 5.26027Z" fill="white"/>
<path d="M83.1403 40.8802C82.7303 37.0502 82.3604 33.7502 82.0404 30.4402C81.9504 29.4502 84.0504 26.9002 85.2504 26.5402C86.4904 26.1702 87.7704 25.6402 89.0204 25.6802C93.1904 25.8002 97.3704 25.1402 101.55 26.2402C102.92 26.6002 103.19 27.4002 103.67 28.2602C103.88 28.6402 103.88 29.2102 103.81 29.6702C103.37 32.7002 103.05 35.7602 102.36 38.7302C101.8 41.1302 100.34 41.7202 97.9003 41.2002C96.8603 40.9702 95.7703 40.9102 94.7003 40.9002C90.8403 40.8702 86.9702 40.8902 83.1302 40.8902L83.1403 40.8802Z" fill="#71B45A"/>
<path d="M44.2002 5.87024C48.8502 5.31024 53.2603 4.77023 57.6203 4.24023C58.5503 6.55023 57.2102 7.45022 56.0402 8.10022C53.3902 9.56022 50.6501 10.8702 47.8801 12.1102C45.4401 13.2102 44.3002 12.4203 44.2102 9.76025C44.1702 8.68025 44.2102 7.59024 44.2102 5.87024H44.2002Z" fill="white"/>
<path d="M34.8504 83.7501C36.8704 82.0701 38.8003 80.26 40.9403 78.73C43.5103 76.89 46.3403 75.8101 49.7103 76.9901C49.4603 79.8801 47.5804 81.7501 46.0404 83.5001C43.1304 86.8101 39.7404 89.7601 35.0904 90.4501C33.8104 90.6401 32.2204 91.0801 31.7604 89.0201C31.6804 88.6801 31.1904 88.3301 30.8104 88.1801C25.6204 86.1901 21.4503 80.74 21.7503 75.47C21.9203 72.46 23.0304 69.5101 23.8204 66.0801C25.8104 66.4901 27.3903 66.8101 28.9703 67.1301C29.2403 67.7501 29.3404 68.56 29.8004 68.97C33.1304 71.9 33.1503 75.8701 33.2303 79.7701C33.2703 81.8801 32.8303 84.0001 32.6703 86.1301C32.6603 86.2901 33.1803 86.4901 33.4803 86.6901C33.9703 85.6501 34.4104 84.7101 34.8504 83.7601V83.7501Z" fill="#01A35A"/>
<path d="M87.7703 85.3101C89.0703 84.4001 89.1203 83.03 89.3403 81.6C89.7303 79.07 90.1201 76.3901 93.3801 75.5801C94.7101 76.6001 95.3502 77.81 94.6802 79.55C94.4302 80.2 94.4203 80.9401 94.2903 81.6501C92.8903 84.1301 93.9402 86.7001 93.6702 90.0701C94.5302 88.9501 94.8702 88.5101 95.2102 88.0701C97.1302 86.9201 98.5202 84.5201 101.67 85.5301C101.52 89.5801 98.3803 91.2501 95.5803 92.9501C92.6503 94.7201 89.3203 94.15 86.3303 93.85C85.2903 92.56 84.3702 91.43 83.4602 90.3C83.2302 89.21 83.0103 88.1101 82.8403 87.3101C84.6703 86.5701 86.2203 85.9401 87.7803 85.3101H87.7703Z" fill="#71B45A"/>
<path d="M60.8403 109.36C58.9003 110.91 57.5102 112.17 55.9702 113.19C55.1302 113.75 54.0303 114.23 53.0403 114.24C42.0003 114.32 30.9702 114.46 19.9402 114.22C15.7502 114.13 11.5501 113.25 7.40015 112.49C5.18015 112.08 3.25024 111 3.25024 108.23C3.25024 106.44 2.81024 104.54 3.25024 102.87C5.97024 92.63 8.80027 82.42 11.7803 72.26C14.5603 62.78 17.6901 53.4 20.4001 43.91C21.1701 41.2 22.5402 39.84 25.2002 39.54C26.1602 39.43 27.1103 39.32 28.3103 39.19C28.8103 31.13 29.3203 23.0501 29.7703 14.9601C29.7703 14.8701 29.1503 14.75 28.5703 14.57C28.1003 15.92 27.6402 17.22 27.1702 18.56C27.7902 19.58 28.4103 20.6 28.7703 21.2C28.1103 23.6 27.7402 25.6801 26.9402 27.5801C26.1602 29.4401 25.2101 31.3501 23.8901 32.8301C20.8501 36.2301 16.8903 38.3301 12.6003 39.7801C11.9903 39.9901 11.2502 39.81 10.2202 39.81C10.5202 39.03 10.5902 38.41 10.9402 38.04C14.7302 33.95 16.8203 28.99 18.5303 23.79C19.1303 21.95 19.0902 20.73 16.7402 20.56C14.0402 20.37 15.1503 18.1101 14.7603 16.3901C13.4703 16.3201 12.1802 16.3 10.9102 16.18C8.26016 15.93 7.25015 14.67 7.65015 12.16C8.30015 8.10001 8.96018 7.50003 13.1802 7.18003C13.7702 7.13003 14.6902 7.27005 14.9102 6.95005C17.3402 3.42005 21.1902 4.34006 24.5002 3.96006C29.4102 3.41006 34.3703 3.26007 39.3103 3.03007C41.2003 2.94007 43.0703 2.70004 44.5403 4.69004C44.9903 5.30004 46.9602 4.92002 48.2202 4.80002C52.0002 4.43002 55.7803 3.96007 59.5803 3.53007C60.1203 6.00007 58.7303 6.66002 57.5103 7.36002C54.8903 8.84002 52.2104 10.21 49.6104 11.72C47.4904 12.94 45.0603 13.49 43.7603 16.22C43.2103 17.37 40.3303 17.4101 38.0503 18.0901C37.8803 21.1801 37.8502 24.64 37.4502 28.06C37.0702 31.27 38.9503 34.81 35.7903 38.06C39.1803 38.06 42.2303 38.11 45.2703 38.04C47.2703 38 48.2903 38.58 49.3003 40.66C53.2703 48.81 54.4903 57.72 56.8103 66.3C58.3503 71.99 59.3702 77.84 60.2402 83.67C60.9002 88.12 60.9502 92.66 61.2502 97.17C61.2902 97.76 60.9902 98.45 61.2102 98.94C62.9202 102.76 61.5803 106.38 60.8503 109.35L60.8403 109.36ZM23.0403 41.56C20.7203 49.33 18.4802 56.43 16.4902 63.6C13.3902 74.75 10.4003 85.9301 7.51025 97.1401C6.57025 100.78 6.08016 104.54 5.41016 108.08C10.6102 110.6 47.5702 110.4 56.4602 108.08C56.9402 85.2501 53.7703 62.94 47.0803 40.55C39.0403 40.89 31.1203 41.22 23.0403 41.56ZM16.4802 18.48C19.6202 19.79 24.5202 18.88 25.9402 16.92C25.9802 15.98 26.0203 15.03 26.0703 13.85C27.4103 13.52 28.6702 12.96 29.9502 12.94C31.6302 12.91 32.6102 13.88 32.4302 15.74C31.9002 20.98 31.4301 26.2201 30.8901 31.4601C30.7001 33.3201 30.3903 35.1701 30.0603 37.5901C31.9603 37.1501 33.3102 37.06 34.4102 36.49C35.0402 36.16 35.7603 34.9301 35.6003 34.3301C34.4803 30.1201 35.3803 25.93 35.5403 21.76C35.7603 16.2 35.8701 16.21 41.1401 15.56C41.3601 15.53 41.5602 15.36 42.1802 15.04C41.9002 12.18 41.6103 9.16003 41.2703 5.74003C33.1203 6.45003 25.4104 5.27002 17.6204 6.98002C17.2304 10.91 16.8502 14.61 16.4702 18.48H16.4802ZM15.7502 36.41C18.6102 35.58 20.6402 33.4 22.4402 31C23.0802 30.15 24.0803 28.76 23.7903 28.18C22.4103 25.41 24.2303 24.24 26.0203 23.07C25.0136 21.11 23.5602 20.3634 21.6602 20.8301C19.6202 26.2201 17.7102 31.24 15.7502 36.42V36.41ZM44.6501 6.89005C44.9901 8.68005 45.2801 10.16 45.6501 12.11C49.5401 9.74002 53.8003 8.86004 56.7803 5.75004C56.7003 5.49004 56.6103 5.24002 56.5303 4.98002C52.6803 5.60002 48.8401 6.22005 44.6501 6.89005ZM9.53027 9.79001C9.84027 11.4 9.71017 13.51 10.4302 13.85C11.7102 14.47 13.5003 14.0201 15.3503 14.0201C15.2503 12.0001 15.1703 10.62 15.0803 8.86002C13.3203 9.15002 11.8403 9.40007 9.53027 9.78007V9.79001Z" fill="black"/>
<path d="M103.73 39.4702C106.19 41.4702 108.01 42.8902 109.75 44.4202C110.16 44.7802 110.49 45.4903 110.46 46.0203C110.11 51.5903 111.46 57.0902 111.11 62.6702C110.76 68.3002 110.7 73.9403 110.46 79.5803C110.03 89.7203 109.65 99.8602 109.09 109.99C108.86 114.14 107.71 115.12 103.63 115.84C95.9101 117.21 88.2602 117.12 80.6902 114.93C79.4302 114.57 78.2403 113.98 77.0303 113.47C73.5903 112.01 72.6302 109.45 72.4402 105.72C71.7802 93.1602 72.9203 80.6802 73.3603 68.1702C73.5803 61.9202 73.6002 55.6603 73.7402 49.4003C73.8302 45.3503 76.0003 42.5603 79.5603 41.0703C81.3103 40.3403 81.7103 39.3303 81.5803 37.7703C81.4103 35.7303 81.1302 33.7002 80.9802 31.6602C80.7502 28.5502 81.7203 26.8703 84.5703 25.8803C90.5203 23.8203 96.6602 24.0703 102.77 24.7603C105.29 25.0503 106.25 26.7503 105.83 29.5903C105.48 31.9703 104.86 34.3102 104.35 36.6702C104.1 37.8302 103.83 38.9902 103.73 39.4702ZM106.07 46.7003L106.16 46.8002C105.53 44.7902 103.81 43.8403 102.05 43.6803C95.7103 43.1003 89.3402 42.5603 82.9802 42.4903C79.2502 42.4503 76.2702 46.2203 76.2602 49.8703C76.2302 59.3803 76.2103 68.8803 76.0803 78.3903C75.9603 87.7003 75.6902 97.0103 75.5202 106.31C75.4602 109.76 76.3603 110.83 79.8503 111.2C82.7303 111.51 85.6403 111.69 88.5403 111.76C94.3503 111.9 100.11 111.45 105.79 110.16C105.93 109.53 106.1 109.06 106.13 108.59C106.61 101.98 107.26 95.3703 107.49 88.7503C107.85 78.3703 107.95 67.9703 108.1 57.5803C108.14 54.7103 108.07 51.8202 107.78 48.9702C107.7 48.1602 106.66 47.4503 106.06 46.6903L106.07 46.7003ZM95.1601 30.3903C94.7101 34.0003 94.3402 36.9003 93.9502 39.9903H97.0102C97.1602 38.2303 97.1602 36.6503 97.4602 35.1303C97.7402 33.7203 96.8202 31.7903 99.1902 30.6503V40.3803C99.9002 40.1903 100.68 40.1403 100.72 39.9603C101.4 36.3303 102.06 32.7002 102.55 29.0402C102.71 27.8502 101.89 27.1503 100.56 26.9603C95.7703 26.2703 90.9602 25.9903 86.2602 27.2103C85.1202 27.5103 83.6102 29.0102 83.4802 30.1102C83.1002 33.2702 83.3503 36.5003 83.3503 40.0303C85.0103 39.8303 86.0302 39.7003 86.9202 39.5903C87.9202 36.3303 85.9302 32.5202 89.9802 29.8002V39.7503C90.2502 39.8803 90.5303 40.0103 90.8003 40.1303C91.2903 39.5403 92.0602 39.0003 92.1902 38.3403C92.4502 37.0603 92.3801 35.7003 92.4001 34.3803C92.4101 32.8903 92.6202 31.5403 95.1702 30.3903H95.1601Z" fill="black"/>
<path d="M24.8704 64.3398C32.9204 66.2998 33.7002 67.6398 35.6502 82.4498C40.2102 78.9298 44.3003 74.3998 51.2703 76.2098C48.4603 83.8298 43.7003 88.9098 36.2603 91.3998C34.9103 91.8498 33.6702 91.8898 32.7002 90.5798C32.4702 90.2698 32.0702 89.9998 31.6902 89.8798C20.5102 86.4398 18.9903 75.5298 22.9903 67.1398C23.4503 66.1898 24.1802 65.3598 24.8802 64.3398H24.8704ZM25.1702 66.7398C19.8902 76.8298 24.7303 85.3198 31.7703 86.5098C31.7703 82.2998 32.2704 78.0598 31.6104 74.0098C31.0804 70.7398 28.6702 68.1498 25.1702 66.7298V66.7398ZM33.2302 88.5598C39.3602 89.0398 46.2002 83.0798 47.6602 77.1298C40.8402 78.6898 36.6902 83.0798 33.2302 88.5598Z" fill="black"/>
<path d="M96.0003 86.6403C101.13 82.8603 101.46 82.8103 103.75 85.1403C101.12 89.0703 99.0004 93.6003 92.8304 94.0203C96.0404 91.4003 99.9503 89.9302 101.02 85.6702C97.3803 85.8102 96.4402 90.2403 92.8802 90.5003C91.6002 86.1303 94.0904 81.8403 91.8404 77.1303C91.0504 79.1303 90.2902 80.5503 89.9402 82.0603C88.8302 86.8503 88.3202 87.3003 83.1502 87.0303C84.2502 88.8403 84.9702 90.9403 86.4202 92.1403C87.8002 93.2803 89.9502 93.5002 91.8802 94.1602C90.3902 95.9302 88.7102 95.5303 87.1902 94.7603C83.4102 92.8503 80.6003 89.9203 78.9603 86.0203C78.6103 85.2003 78.7003 83.7303 79.2303 83.1303C79.7603 82.5403 81.1904 82.3303 82.0704 82.5603C83.6804 82.9703 85.1703 83.8203 87.0203 84.6203C87.7203 82.4503 88.3204 80.3903 89.0504 78.3803C89.7104 76.5703 90.5003 74.3102 92.7203 74.4802C95.0003 74.6602 94.7804 77.1403 95.0704 78.8403C95.4904 81.3203 95.6903 83.8303 96.0203 86.6403H96.0003Z" fill="black"/>
<path d="M106.07 46.7002C105.2 47.1902 104.32 48.1102 103.46 48.0902C96.1302 47.9102 88.8102 47.5602 81.4902 47.2402C81.3302 47.2402 81.1803 47.0002 81.0103 46.8702C83.6103 45.6602 100.43 45.6202 106.16 46.8002L106.07 46.7002Z" fill="black"/>
</svg>
