<svg width="187" height="99" viewBox="0 0 187 99" fill="none" xmlns="http://www.w3.org/2000/svg">
<path d="M181.29 3.82005C178.44 2.24005 175.41 1.29006 172.75 1.15006C162.78 0.590064 153.02 0.0900105 143.22 0.22001C135.77 0.32001 128.25 1.00001 120.97 1.66001L117.67 1.96006C112.66 2.41006 107.23 3.09004 100.58 4.13004C95.1499 4.97004 91.3097 7.21006 88.8197 10.9601C87.2397 13.3501 85.6898 16.06 83.9398 19.51C77.6598 31.9001 71.8798 45.34 66.2498 60.6L59.9999 77.5801H57.8797H49.64C46.93 77.5801 44.2196 77.57 41.5096 77.56C35.3596 77.54 29 77.5101 22.7 77.5901C17.65 77.6501 12.33 77.9 5.95005 78.36C3.80005 78.51 2.21985 79.2701 1.24985 80.5901C0.22985 81.9801 0.00990874 83.79 0.559909 86.11C0.759909 86.93 1.06001 88.0101 1.66001 89.0201C5.08001 94.8001 10.3199 97.6801 17.2899 97.5801C29.5099 97.4401 41.97 97.49 53.62 97.56C63.63 97.63 73.7899 97.75 83.5999 97.87H84.7401C88.9601 97.93 93.19 97.9801 97.41 98.0301L108.64 98.1501C119.08 98.2701 129.52 98.38 139.96 98.47C141.76 98.49 143.57 98.49 145.38 98.49C148.14 98.49 150.89 98.4801 153.59 98.4601H156.69C157.44 98.4401 159.72 98.4301 161.06 96.7001C161.94 95.5601 162.14 94.0401 161.68 92.2701C161.68 91.9301 162.07 90.9901 162.22 90.6401C162.66 89.6201 163.17 88.57 163.67 87.56C164.52 85.84 165.39 84.07 166.03 82.16C167.51 77.72 168.9 73.19 170.25 68.8C171.21 65.68 172.17 62.55 173.17 59.44C174.31 55.88 175.49 52.3301 176.67 48.7701C178.66 42.7501 180.72 36.5301 182.58 30.3401C183.9 25.9301 184.78 21.3701 185.63 16.9601C185.8 16.0601 185.97 15.1701 186.15 14.2801C187 9.96007 185.14 5.96006 181.29 3.83006V3.82005Z" fill="white"/>
<path d="M153.55 79.18C146.83 79.43 140.12 79.9101 133.4 79.8901C125.35 79.8601 117.25 79.9 109.28 78.99C103.45 78.32 97.6302 79.02 91.9102 78.25C85.4402 77.38 79 77.7501 72.54 77.5201C71.43 77.4801 70.3498 76.93 69.0498 76.56C69.1498 75.52 69.0501 74.5701 69.3501 73.7701C71.8401 67.1501 74.3102 60.52 76.9702 53.97C79.9602 46.62 83.0798 39.32 86.2598 32.04C88.9498 25.89 91.8101 19.81 94.6201 13.72C94.8301 13.26 95.1398 12.6901 95.5498 12.5101C97.6998 11.6001 99.8498 10.6401 102.09 10.0101C104.93 9.21006 107.31 10.1801 108.87 12.3901C110.64 12.3101 112.18 12.18 113.72 12.18C128.21 12.17 142.7 12.2401 157.19 12.1401C161.65 12.1101 166.1 11.6401 170.56 11.3901C171.47 11.3401 172.38 11.3901 173.62 11.3901C172.98 13.8201 172.64 15.96 171.86 17.93C167.93 27.9 165.62 38.3501 162.35 48.5201C160.81 53.3001 159.22 58.0501 157.7 62.8301C157.51 63.4401 157.61 64.14 157.58 64.8C157.29 66.71 156.99 68.6201 156.7 70.5201C156.18 70.7201 155.26 70.8601 155.22 71.1401C154.85 73.3101 154.65 75.5101 154.39 77.7101C154.1 78.2001 153.81 78.7 153.52 79.19L153.55 79.18ZM106.58 21.7101C105.97 20.7501 105.47 19.65 104.7 18.81C102.99 16.93 99.7998 17.4401 98.8398 19.7701C98.2998 21.0701 97.9898 22.5001 97.7798 23.9001C97.5298 25.6101 98.6801 26.6701 100.06 27.2001C101.16 27.6201 102.36 27.3801 103.18 26.1901C104.14 24.8001 105.22 23.49 106.58 21.72V21.7101ZM120.04 20.79C117.95 17.19 115.2 18.7 112.54 19.67C112.18 20.81 111.76 21.9001 111.5 23.0201C111.13 24.6201 111.84 25.7901 113.41 25.7101C115.06 25.6201 116.79 25.2301 118.26 24.5201C118.97 24.1801 119.18 22.79 119.6 21.87C119.76 21.52 119.89 21.16 120.04 20.8V20.79ZM106.46 32.9401C106.19 34.9501 105.84 36.7001 105.78 38.4601C105.76 39.0301 106.41 40.0001 106.92 40.1401C107.65 40.3401 108.98 40.22 109.28 39.74C110.56 37.74 112.24 35.6901 110.82 32.9501H106.45L106.46 32.9401ZM100.34 55.0201C104.19 53.0101 105.07 50.7101 103.67 46.7101C101.53 45.6401 100.77 47.4601 100.06 48.6901C98.9401 50.6301 98.2798 52.7701 100.34 55.0101V55.0201ZM97.6699 33.47C96.7899 32.33 96.03 30.85 94.25 31.54C92.71 32.14 92.9599 33.6601 92.9399 34.9501C92.9199 35.8701 92.7798 36.86 93.0698 37.68C93.2898 38.29 94.0902 39.0001 94.7002 39.0801C95.2102 39.1501 96.1098 38.47 96.3398 37.92C96.9298 36.5 97.2402 34.97 97.6602 33.47H97.6699ZM88.52 45.48C87.14 47.95 86.17 50.0101 86.96 53.0101C88.02 52.6601 89.3202 52.63 89.6602 52.04C90.5302 50.52 90.9801 48.75 91.6401 46.98C90.4601 46.42 89.6598 46.03 88.5298 45.48H88.52Z" fill="#81B7E1"/>
<path d="M153.55 79.1799C153.84 78.6899 154.13 78.19 154.42 77.7C155.19 75.3 155.96 72.9099 156.73 70.5099C157.02 68.5999 157.32 66.6899 157.61 64.7899C157.99 64.7199 158.62 64.77 158.7 64.58C159.95 61.83 161.15 59.0499 162.31 56.2599C163.11 54.3299 163.8 52.3599 164.57 50.4199C167.83 42.1499 170.92 33.8 174.45 25.65C176.58 20.73 177.1 15.44 178.83 10.46C181.49 10.51 180.45 12.6399 180.81 13.9799C178.81 19.8799 177.95 26.0299 176.75 32.1099C175.89 36.4899 174.49 40.77 173.12 45.03C171.02 51.54 168.74 57.98 166.54 64.46C164.44 70.65 162.25 76.8099 160.31 83.0399C159.67 85.1099 159.36 87.2699 158.74 89.3799C157.72 92.8799 155.06 93.3099 152.81 93.3599C147.97 93.4599 143.05 94.33 138.24 92.78C137.27 92.47 136.13 92.7199 135.07 92.7199C118.6 92.7199 102.12 92.7199 85.5699 92.7199C84.8199 90.1799 81.6901 88.0799 84.5801 85.0699C85.8301 84.7699 87.1999 84.3999 88.5899 84.1299C89.3599 83.9799 90.2602 83.7399 90.9302 83.9999C94.4002 85.3599 97.9901 84.68 101.52 84.71C113.48 84.8 125.44 84.7099 137.4 84.7599C142.64 84.7799 147.92 84.28 153.54 85.65V79.1899L153.55 79.1799ZM134.21 90.15C134.03 87.19 133.87 87.0499 131.05 87.1099C128.54 87.1699 128.48 87.24 128.39 90.15H134.21Z" fill="#9FD1CF"/>
<path d="M5.20996 85.0602C9.25996 83.7002 13.0102 83.5302 16.9702 84.5402C19.0902 85.0802 21.4602 84.6102 23.7002 84.7602C25.6302 84.8902 27.55 85.3602 29.48 85.4802C30.63 85.5502 31.1699 85.9602 31.9399 86.8302C32.7099 87.7102 34.3098 88.1602 35.5698 88.2302C37.9198 88.3502 40.3001 87.8202 42.6401 87.9802C45.4301 88.1702 47.72 87.1702 50 85.8502C50.76 85.4102 51.5901 84.7902 52.3901 84.7802C62.3301 84.7102 72.2702 84.7302 82.2202 84.7302V92.7002H78.5898C57.2098 92.7002 35.8302 92.7002 14.4502 92.7002C8.9802 92.7002 6.7002 90.8702 5.2002 85.0602H5.20996Z" fill="#9FD1CF"/>
<path d="M180.82 13.9601C180.45 12.6201 181.49 10.4901 178.84 10.4401C178.98 9.08009 179.67 8.34011 181.61 8.40011C181.34 10.2901 181.08 12.1201 180.82 13.9501V13.9601Z" fill="#95C3C1"/>
<path d="M106.58 21.7101C105.22 23.4801 104.14 24.7901 103.18 26.1801C102.36 27.3701 101.16 27.6101 100.06 27.1901C98.6802 26.6701 97.53 25.6001 97.78 23.8901C97.99 22.4901 98.3 21.0601 98.84 19.7601C99.8 17.4401 102.99 16.9301 104.7 18.8001C105.47 19.6501 105.97 20.7401 106.58 21.7001V21.7101Z" fill="#F3F8FC"/>
<path d="M120.04 20.79C119.89 21.15 119.76 21.51 119.6 21.86C119.18 22.78 118.97 24.17 118.26 24.51C116.79 25.22 115.06 25.61 113.41 25.7C111.84 25.79 111.13 24.61 111.5 23.01C111.76 21.89 112.18 20.81 112.54 19.66C115.2 18.69 117.95 17.18 120.04 20.78V20.79Z" fill="#F3F8FC"/>
<path d="M106.46 32.9402H110.83C112.25 35.6802 110.57 37.7302 109.29 39.7302C108.99 40.2102 107.66 40.3302 106.93 40.1302C106.41 39.9902 105.77 39.0302 105.79 38.4502C105.85 36.6902 106.2 34.9502 106.47 32.9302L106.46 32.9402Z" fill="#F3F8FC"/>
<path d="M100.34 55.0201C98.28 52.7701 98.9402 50.63 100.06 48.7C100.77 47.47 101.54 45.65 103.67 46.72C105.07 50.71 104.19 53.0101 100.34 55.0301V55.0201Z" fill="#F5F9FD"/>
<path d="M97.6699 33.4701C97.2399 34.9701 96.9301 36.5101 96.3501 37.9201C96.1201 38.4701 95.21 39.1501 94.71 39.0801C94.09 39.0001 93.3001 38.2901 93.0801 37.6801C92.7801 36.8601 92.9302 35.8701 92.9502 34.9501C92.9702 33.6601 92.7198 32.1301 94.2598 31.5401C96.0398 30.8501 96.8102 32.3401 97.6802 33.4701H97.6699Z" fill="#FBFDFE"/>
<path d="M88.52 45.48C89.65 46.02 90.4599 46.41 91.6299 46.98C90.9699 48.75 90.5299 50.52 89.6499 52.04C89.3099 52.63 88.0102 52.66 86.9502 53.01C86.1602 50.01 87.1298 47.96 88.5098 45.48H88.52Z" fill="#E0EDF8"/>
<path d="M156.73 70.51C155.96 72.91 155.19 75.3 154.42 77.7C154.67 75.51 154.88 73.31 155.25 71.13C155.3 70.85 156.22 70.71 156.73 70.51Z" fill="#1B2322"/>
<path d="M61.7401 80.0602C64.1201 73.5802 66.3597 67.5102 68.5897 61.4502C73.7197 47.5302 79.4501 33.8601 86.1601 20.6201C87.6001 17.7801 89.14 14.9702 90.89 12.3302C93.24 8.79017 96.9301 7.21018 100.95 6.59018C106.57 5.72018 112.21 4.95015 117.88 4.44015C126.32 3.69015 134.78 2.82012 143.24 2.72012C153.02 2.60012 162.83 3.10017 172.6 3.65017C175.14 3.79017 177.82 4.77017 180.07 6.02017C182.94 7.60017 184.35 10.4301 183.69 13.8001C182.65 19.1101 181.73 24.4702 180.18 29.6302C177.26 39.3802 173.9 48.9901 170.79 58.6801C168.37 66.2301 166.17 73.8501 163.66 81.3701C162.71 84.2301 161.11 86.8801 159.92 89.6601C159.5 90.6401 159 91.8702 159.24 92.8102C159.87 95.2602 158.76 95.9402 156.68 95.9502C151.12 95.9702 145.55 96.0201 139.99 95.9701C125.81 95.8501 111.63 95.6802 97.4501 95.5202C82.8501 95.3602 68.2498 95.1501 53.6498 95.0501C41.5198 94.9701 29.3999 94.9202 17.2699 95.0702C11.2899 95.1402 6.83972 92.8401 3.81972 87.7401C3.41972 87.0701 3.1799 86.2802 2.9999 85.5202C2.2999 82.5902 3.18978 81.0502 6.12978 80.8402C11.6598 80.4402 17.2001 80.1502 22.7401 80.0802C31.7101 79.9702 40.68 80.0702 49.64 80.0802C53.48 80.0802 57.3301 80.0802 61.7401 80.0802V80.0602ZM169.39 48.6701C170.24 47.0301 171.33 45.4601 171.9 43.7301C174.84 34.7201 177.69 25.6701 180.47 16.6101C181.16 14.3401 181.39 11.9602 180.46 9.69015C177.42 19.2902 174.68 28.8801 172.01 38.4901C171.07 41.8901 170.32 45.3302 169.48 48.7602C166.8 56.0202 164.11 63.2701 161.45 70.5401C160.28 73.7401 159.16 76.9601 157.99 80.1701C157.49 81.5201 157.85 82.1701 159.44 82.1101C160.16 80.0101 160.88 77.9302 161.58 75.8302C164.19 67.9502 166.83 60.0801 169.35 52.1701C169.69 51.1101 169.39 49.8602 169.39 48.6902V48.6701ZM152.25 78.2702C158.96 56.2302 165.61 34.3701 172.25 12.5501C146.85 12.8101 121.37 13.0602 96.31 13.3202C85.35 33.4902 77.4998 54.5502 69.6898 76.0902C71.7798 76.3302 73.5901 76.6302 75.4101 76.7102C78.3201 76.8402 81.2501 76.7502 84.1601 76.8802C99.3801 77.5602 114.59 78.4002 129.81 78.9602C137.33 79.2402 144.9 79.8702 152.24 78.2602L152.25 78.2702ZM159.14 86.5501C159.03 86.2201 158.93 85.9002 158.82 85.5702H85.64C84.8534 87.2168 85.1697 89.3702 86.5897 92.0302C87.8997 92.0302 89.3497 92.0302 90.7997 92.0302C110 92.1702 129.21 92.0501 148.39 92.6201C153.86 92.7801 156.47 90.1002 159.13 86.5602L159.14 86.5501ZM5.66982 85.2401C8.11982 89.8401 10.5498 92.1001 15.3598 92.0501C36.0498 91.8001 56.7498 91.9602 77.4398 91.9502C78.8398 91.9502 80.2499 91.7701 81.4999 91.6801C81.3899 89.3601 81.2901 87.3601 81.2001 85.4801C73.3301 85.4801 65.5201 85.5302 57.7001 85.4602C54.4901 85.4302 51.3898 85.4302 48.6498 87.5702C47.7998 88.2402 46.4197 88.3501 45.2597 88.4701C42.2497 88.7701 39.2201 89.0101 36.2001 89.1101C34.2101 89.1701 32.2898 88.9301 30.8598 87.1101C30.3498 86.4601 29.1997 86.0801 28.2997 85.9801C23.5597 85.4301 18.8197 84.8501 14.0697 84.6101C11.4897 84.4801 8.87982 84.9802 5.66982 85.2602V85.2401Z" fill="black"/>
<path d="M94.9199 25.3002C96.4799 22.6002 97.7399 19.6502 99.6899 17.2702C101.11 15.5502 103.7 15.7302 105.58 16.8202C106.62 17.4202 107.95 19.3602 107.66 20.0902C106.72 22.3902 106 25.1202 103.35 26.2602C101.78 26.9302 100.12 27.4102 98.48 27.9002C96.09 28.6202 95.2902 27.9902 94.9102 25.3102L94.9199 25.3002ZM98.2598 24.2502C98.5098 24.4802 98.77 24.7102 99.02 24.9402C100.38 23.5202 103.05 24.1302 103.89 21.1202C102.28 21.0102 100.92 20.9202 99.46 20.8202C99.01 22.1202 98.6298 23.1902 98.2598 24.2502Z" fill="black"/>
<path d="M94.8798 45.0303C95.0898 49.0003 92.5499 51.4402 90.3099 53.9302C89.0199 55.3602 86.09 54.7703 84.39 52.9603C83.01 51.4903 83.0196 49.8802 84.2596 48.3002C87.0196 44.7702 90.5998 43.9503 94.8798 45.0203V45.0303ZM87.14 50.2502C89.65 50.1202 90.7198 49.5702 90.6498 48.3102C90.6298 47.9302 90.1597 47.3402 89.7997 47.2502C87.9097 46.7902 87.9498 48.6903 87.1498 49.5703C87.0398 49.7003 87.1298 50.0202 87.1298 50.2502H87.14Z" fill="black"/>
<path d="M95.4502 56.9601C95.5402 55.3201 95.19 53.9301 95.73 53.2201C97.29 51.1701 97.2802 47.8801 101.2 46.5301C100.13 48.9801 99.3801 50.7001 98.5201 52.6701C101.96 53.2501 102.99 50.7901 104.42 48.7001C103.79 47.8001 103.17 46.9101 102.42 45.8401C102.99 45.4201 103.44 44.8401 103.75 44.9101C104.93 45.1601 106.09 45.5701 107.2 46.0301C107.4 46.1201 107.42 46.7601 107.44 47.1401C107.56 49.6001 102.99 55.3901 100.55 55.8901C99.1498 56.1801 97.7402 56.4801 95.4502 56.9601Z" fill="black"/>
<path d="M109.72 27.9802C108.22 24.2502 109.07 22.0002 113.24 19.4002C112.32 21.4902 111.64 23.0502 110.61 25.3802C113.52 23.6202 117.47 25.8402 118.39 21.0702C116.87 20.8502 115.42 20.6402 113.86 20.4202C115.59 17.9602 117.66 17.1102 119.38 18.2402C121.28 19.4802 121.05 21.1802 120.28 23.1202C119.47 25.1302 118.49 26.4102 116.1 26.6102C113.94 26.7902 111.82 27.5202 109.73 27.9902L109.72 27.9802Z" fill="black"/>
<path d="M112.37 32.9301C112.72 39.3601 108.92 42.4901 102.59 41.3201C100.92 38.3601 102.78 36.4901 104.67 34.5501C106.91 32.2401 109.33 31.1901 112.36 32.9401L112.37 32.9301ZM109.95 34.8101C107.18 34.0801 106.39 35.9701 105.31 38.0201C107.79 38.0701 109.82 38.0201 109.95 34.8101Z" fill="black"/>
<path d="M91.8601 33.6701C94.6601 37.5201 96.1303 37.3102 98.0403 33.0802H94.53C94.53 32.6602 94.4403 32.0201 94.5403 31.9801C95.9603 31.5001 97.4203 30.7802 98.8503 30.8402C99.5303 30.8702 100.59 32.3802 100.7 33.3102C100.88 34.9302 95.9902 39.9901 94.2502 40.1001C93.0202 40.1701 91.1204 40.1602 90.6804 39.4502C90.0704 38.4802 90.4604 36.8101 90.6204 35.4701C90.6904 34.9301 91.3004 34.4501 91.8704 33.6701H91.8601Z" fill="black"/>
<path d="M135.47 90.63C133.19 90.69 131.01 90.98 128.87 90.74C127.06 90.54 126.37 88.03 127.92 87.27C129.53 86.48 131.68 86.5 133.56 86.64C135.44 86.77 135.48 88.42 135.47 90.63Z" fill="black"/>
<path d="M149.44 88.3901C146.97 91.3201 146.92 91.3101 144.31 88.1501C146.38 88.2501 147.91 88.3201 149.44 88.3901Z" fill="black"/>
</svg>
