<svg width="505" height="487" viewBox="0 0 505 487" fill="none" xmlns="http://www.w3.org/2000/svg">
<path d="M503.81 462.14C502.81 460.18 501.66 458.16 499.96 456.68C494.25 451.68 487.46 448.02 479.8 445.8C475.29 444.5 470.55 444.22 465.95 443.95C464.91 443.89 463.86 443.83 462.83 443.76C458.89 443.48 454.91 443.39 451.05 443.3C449.29 443.26 447.53 443.22 445.77 443.16C445 443.13 444.24 443.1 443.47 443.07C438.93 442.86 434.23 442.65 429.44 444.33C423.79 442.68 421.45 440.7 423.35 434.11C424.11 431.47 425.22 428.69 426.94 425.08C432.85 412.68 439.3 399.59 447.53 387.79C450.86 383.02 454.07 378.07 457.21 373.24C459.52 369.68 461.91 366 464.32 362.44C468.38 356.44 473 349.25 476.5 341.45C476.92 340.51 477.11 339.55 477.22 338.97C477.24 338.85 477.26 338.76 477.28 338.69L477.82 336.61L473.7 334.84C472.16 334.18 470.81 333.6 469.45 333C468.77 332.7 468.11 332.37 467.44 332.04L467.31 331.98C466.96 331.81 466.6 331.63 466.25 331.46L459.5 328.23C451.77 324.54 443.79 320.72 435.98 316.9C435.89 316.85 435.56 316.59 434.9 315.36C434.12 313.92 432.67 311.24 429.01 310.8C428.53 310.74 427.89 310.45 427.19 310.13C426.9 310 426.62 309.87 426.33 309.75C425.44 309.37 424.56 308.98 423.65 308.58C422.04 307.86 420.38 307.12 418.67 306.49C416.16 305.56 413.6 304.69 411.09 303.84L410.87 303.76C409.4 303.26 407.93 302.76 406.46 302.24C404.17 301.43 401.85 300.47 399.61 299.53C396.7 298.31 393.71 297.06 390.58 296.08C390.81 295.36 390.94 294.55 391.08 293.7L391.11 293.54C391.45 291.44 391.98 289.83 392.84 288.32C395.13 284.26 395.93 280.43 395.27 276.62C394.83 274.08 394.53 271.45 394.23 268.81C394.07 267.43 393.91 266.04 393.73 264.66C392.37 254.35 389.61 244.38 387.12 235.85C385.41 229.98 383.81 225.27 382.08 221.01C380.3 216.63 378.14 212.47 375.7 207.87C374.96 206.48 374.94 206.19 375.18 205.62C375.57 204.69 375.78 203.76 375.96 202.93C376.1 202.31 376.22 201.78 376.39 201.31C376.77 200.26 377.11 199.78 377.33 199.56C380.03 196.87 380.86 195.03 378.62 191.23C376.79 188.13 374.65 184.81 371.88 180.77C371.01 179.5 370.78 178.54 371.01 177.21C371.71 173.16 372.16 169.58 372.38 166.26C372.63 162.49 372.71 158.68 372.8 154.99V154.66C372.83 153.71 372.85 152.75 372.88 151.8C372.93 149.92 372.99 148.03 373.04 146.15V145.88C373.22 140.32 373.4 134.57 373.34 128.89C373.29 123.95 372.77 120.14 371.72 116.87C369.6 110.31 365.79 104.68 362.11 99.2299C361.3 98.0299 360.49 96.8299 359.7 95.6199C356.34 90.4999 352.67 85.4999 349.12 80.6599L347.72 78.7499C344.27 74.0399 340.7 69.1699 336.89 64.5599C336.51 64.0999 336.12 63.6399 335.73 63.1799C332.89 59.8099 330.43 56.8999 330.1 52.7399C329.98 51.1999 329.5 49.7699 329.08 48.4999C328.79 47.6199 328.49 46.71 328.35 45.89C327.01 37.77 323.66 29.7899 318.13 21.4899C315.83 18.0399 313.33 14.6899 310.92 11.4399L308.99 8.83994C307.78 7.19994 305.95 4.71994 302.34 4.30994L300.95 4.14993L300.09 5.24994C297.91 8.03994 297.57 11.1799 297.28 13.9599L297.2 14.7199C296.98 16.6799 296.84 18.6499 296.69 20.6099C296.46 23.7299 296.23 26.9499 295.66 29.9899C293.52 41.5299 292.61 53.4899 292.95 65.5299C293.05 69.0299 293.3 72.4999 293.71 75.8299L294.12 79.2199C294.85 85.3099 295.61 91.6099 296.69 97.7899L296.99 99.4899C298.82 109.93 300.72 120.73 299.51 131.57C298.34 141.95 297.64 153.04 297.3 166.46C296.93 181.06 296.51 197.61 299.25 213.79C302.01 230.08 305.19 242.31 309.54 253.47C312.36 260.7 315.02 267.05 317.66 272.89C319.37 276.67 321.28 280.4 323.12 284L323.17 284.1C324.08 285.88 324.98 287.65 325.87 289.44C326 289.7 326.1 290.05 326.17 290.45C326.43 291.92 326.66 293.39 326.9 294.91L326.92 295.01L305.07 308.96C304.23 308.63 303.39 308.29 302.55 307.95C299.69 306.79 296.73 305.6 293.7 304.63C289.18 303.19 284.38 302.11 280.45 301.23L280.49 301.17C281.29 300.06 282.05 299.02 282.59 297.81C285.23 291.9 287.93 285.49 289.82 278.67L290.15 277.52C290.61 275.89 291.09 274.21 291.38 272.45C291.53 271.53 291.69 270.62 291.85 269.71L291.88 269.52C292.64 265.1 293.43 260.53 293.57 255.78C293.9 244.56 291.98 234.83 287.69 226.03C282.65 215.68 275.78 206.44 267.27 198.57C265.71 197.12 265.78 196.62 266.21 195.38C266.78 193.76 266.89 192.06 266.99 190.56C267.02 190.17 267.04 189.78 267.07 189.4C267.9 179.82 268.58 168.5 267.27 157.24C266.91 154.12 266.63 150.93 266.36 147.82C265.98 143.47 265.6 138.98 264.96 134.55C264.28 129.9 263.3 124.49 261.08 119.61C258.3 113.51 254.79 106.42 249.75 100.13C244.75 93.8799 239.69 86.9899 234.27 79.0599C229.6 72.2299 225.2 65.0199 220.92 58.0199L220.59 57.4699C219.4 55.5199 218.55 53.5099 218.14 51.6499C217.41 48.3299 216.75 44.9199 216.11 41.5999C215.29 37.3399 214.45 32.9299 213.41 28.6099L213.22 27.8199C212.19 23.4899 211.02 18.5799 207.1 14.9899C204.48 12.5799 202.19 9.63993 200.11 5.98993C198.46 3.09993 196.24 1.26993 193.51 0.549927L192.17 0.189941L191.16 1.13995C189.11 3.06995 188.27 5.07995 188.45 7.63995C188.57 9.38995 188.65 11.1899 188.72 12.9299C188.93 18.1499 189.15 23.5499 190.76 28.8799C190.78 28.9399 190.79 29.1399 190.74 29.3999C190.51 30.5199 190.26 31.6399 189.99 32.8399C189.72 34.0499 189.45 35.2599 189.21 36.4699C188.99 37.5999 188.75 38.7399 188.5 39.8699C187.84 42.9899 187.15 46.2099 186.81 49.4799C186.17 55.53 187.12 61.3899 188.01 65.8199C188.84 69.9199 189.44 74.1799 190.03 78.2999C190.54 81.9099 191.07 85.6399 191.75 89.3099C192.8 94.9599 193.3 101.07 193.31 108.54C193.31 115.66 193.12 122.93 192.94 130C192.86 132.83 192.79 135.66 192.73 138.49C192.72 139.08 192.66 139.7 192.61 140.3C192.49 141.65 192.35 143.17 192.61 144.71C193.27 148.58 191.53 150.35 187.11 153.1C179.82 157.63 174.18 164.49 170.33 173.49C169.73 174.89 169.48 176.62 169.64 178.22C169.85 180.24 170.14 182.59 170.98 184.81C172.09 187.76 173.36 190.88 175.16 193.66C177.45 197.21 180.07 197.31 182.14 196.74C182.41 196.95 182.68 197.15 182.94 197.36C184.38 198.47 185.74 199.53 187.29 200.41C187.29 200.41 187.3 200.41 187.31 200.41C187.31 200.56 187.3 200.76 187.29 200.94C187.28 201.13 187.27 201.32 187.26 201.52C187.25 201.93 187.23 202.35 187.21 202.79C187.12 205.12 187.02 207.53 187.67 209.91C190.16 218.99 194.8 227.23 198.56 233.4C204.06 242.41 209.95 251.38 215.65 260.08C218.47 264.38 221.3 268.69 224.09 273.02L224.2 273.19C225.65 275.44 227.16 277.78 228.19 280.15C229.44 283.04 230.55 286.09 231.63 289.04L231.67 289.15C232.16 290.5 232.65 291.84 233.16 293.18C233.41 293.85 233.39 294.13 233.41 294.14C233.37 294.18 233.12 294.42 232.25 294.68C228.97 295.66 225.17 296.81 221.51 298.2C211.55 301.97 202.12 307.49 192.68 315.07L191.76 315.81C185.14 321.12 178.29 326.61 172.64 333.37L172.19 333.91C167.38 339.66 162.41 345.61 157.68 351.6C147.48 364.54 138.29 376.23 129.08 388.35C121.83 397.89 114.69 407.7 107.77 417.2L104.63 421.51C102.86 423.94 101.12 426.45 99.4199 428.91C97.3299 431.93 95.1702 435.05 92.9502 438.01C89.0402 443.22 84.8202 448.35 80.7402 453.32L79.9199 454.32C79.4099 454.94 78.8302 455.3 78.6802 455.34C76.3802 455.59 73.9798 455.5 71.5298 455.38L69.8701 455.3C62.6601 454.93 55.2098 454.55 47.8398 455.99C45.8098 456.39 43.7202 456.74 41.7002 457.08L41.5801 457.1C35.7901 458.07 29.7999 459.07 23.9199 461.36C17.0599 464.04 10.4399 467.67 3.68994 472.46C2.68994 473.17 2.21008 474.19 1.83008 474.97C1.74008 475.15 1.6598 475.34 1.5498 475.51L0.25 477.67L2.41016 478.95C2.60016 479.06 2.78998 479.19 2.97998 479.32C3.59998 479.74 4.36984 480.27 5.33984 480.53C6.79984 480.93 8.31006 480.94 9.31006 480.91C11.9201 480.84 14.5399 480.73 17.1499 480.62H17.3198C22.2598 480.41 27.3699 480.2 32.3799 480.25C41.1399 480.33 49.8202 480.81 57.9502 481.3C60.8902 481.48 63.8998 481.79 66.8398 482.09C70.0498 482.42 73.3802 482.77 76.7002 482.94C84.4502 483.35 92.3202 483.6 99.9702 483.83L113.39 484.27C122.82 484.59 132.58 484.91 142.19 485.12C152.49 485.34 163.01 485.37 172.34 485.39C188.01 485.43 203.78 485.41 218.6 485.39C229.28 485.37 238.87 485.33 247.93 485.24C250.18 485.22 252.47 485.15 254.67 485.09H254.82C257.76 485 260.79 484.91 263.75 484.93C273.44 485 283.24 485.2 292.71 485.38L294.39 485.41C300.05 485.52 305.71 485.66 311.37 485.79C315.45 485.89 319.53 485.99 323.61 486.08C335.26 486.33 344.99 486.53 354.22 486.69H354.34C355.3 486.69 356.15 486.49 356.9 486.31L357.28 486.22C357.82 486.1 358.36 485.94 358.9 485.79C359.72 485.55 360.43 485.35 361.09 485.29C363.06 485.12 365.08 485 367.07 484.89C369.25 484.76 371.5 484.63 373.72 484.43C374.96 484.32 376.04 483.92 377.11 483.53C377.51 483.38 377.93 483.23 378.36 483.1L381.27 482.19L379.81 479.51C379.38 478.72 379 477.95 378.64 477.21C377.8 475.49 376.92 473.72 375.64 472.22C375.42 471.97 375.2 471.73 374.96 471.5H385.27C395.93 471.53 406.59 471.54 417.25 471.55C423.85 471.55 430.44 471.55 437.04 471.54C444.28 471.54 451.51 471.52 458.75 471.53C469.62 471.53 478.6 471.57 487.01 471.63C488.9 471.64 490.84 471.71 492.8 471.78C494.48 471.84 496.16 471.9 497.83 471.92C497.91 471.92 497.99 471.92 498.07 471.92C501.87 471.92 503.54 470.17 504.19 469.11C505.01 467.8 505.62 465.54 503.92 462.18L503.81 462.14ZM227.68 115.79C227.17 115.74 226.64 115.67 226.1 115.59C225.12 115.45 224.04 115.29 222.91 115.29C222.28 115.29 221.63 115.34 220.97 115.47C220.97 110.12 220.84 104.88 219.48 99.5999C218.08 94.1399 216.51 88.3599 214.63 81.7899C220.42 92.4499 224.79 103.83 227.68 115.8V115.79ZM333.78 107.87L326.9 111.42C326.35 109.47 325.8 107.53 325.26 105.59L324.88 104.23C322.44 95.54 320.13 87.33 317.67 78.89C316.84 76.05 315.81 73.2799 314.81 70.5999C314.39 69.4699 313.97 68.3399 313.56 67.2099C313.37 66.6699 313.25 66.18 313.22 65.67C314.01 67.01 314.81 68.33 315.59 69.64C317.77 73.25 320.02 76.9799 321.84 80.7699C325 87.3799 327.84 94.0199 330.85 101.04C331.82 103.3 332.79 105.58 333.78 107.87ZM163.79 446.74C161.84 446.74 159.9 446.75 157.97 446.78C155.97 446.82 154.24 446.85 152.53 446.1C150.27 445.1 147.53 445.86 145.15 446.64C141.85 447.72 138.54 448.89 135.33 450.02L135.22 450.06C130.99 451.55 126.61 453.09 122.28 454.44C116.15 456.35 110.02 457.02 104.04 456.43C104.9 455.69 105.76 454.94 106.62 454.19L106.7 454.12C109.79 451.43 112.99 448.66 116.27 446.12C125.18 439.2 134.18 432.51 141.81 426.88C145.71 424 149.84 421.04 153.48 418.43L153.57 418.36C158.13 415.08 162.85 411.7 167.44 408.28C170.7 405.85 173.88 403.25 177.01 400.69C178.8 399.22 180.6 397.75 182.41 396.31C184.39 394.74 186.43 393.18 188.4 391.67C189.63 390.73 190.87 389.78 192.1 388.83C195.41 386.27 198.71 383.69 202.01 381.12L205.2 378.64C206.64 377.52 208.08 376.39 209.53 375.25C213.59 372.06 217.79 368.77 222 365.66C222.35 365.42 223.76 365.38 224.44 365.36H224.7C226.62 365.3 228.6 365.29 230.54 365.29C232.99 365.29 235.52 365.28 238.04 365.16C243.99 364.89 249.84 364.54 256.03 364.17L258.34 364.03C252.87 370.34 247.51 376.28 241.35 381.45C227.51 393.07 217.77 405.97 211.57 420.89C208.31 428.74 202.9 435.95 195.5 442.33C193.96 443.65 192.56 445.05 191.33 446.28L191.23 446.37C191.04 446.55 190.86 446.73 190.69 446.91C189.4 446.88 188.15 446.86 186.89 446.83C183.6 446.75 180.49 446.68 177.39 446.67C174.52 446.66 171.64 446.67 168.77 446.7H167.57C166.32 446.72 165.07 446.72 163.82 446.73L163.79 446.74ZM218.31 442.73C222.16 441.53 225.08 439.13 227.89 436.82L228.94 435.96C232.68 432.93 236.62 429.98 240.44 427.13L240.69 426.94C242.27 425.76 243.85 424.58 245.41 423.4L245.68 423.2C246.02 422.95 246.45 422.64 246.86 422.22C250.17 418.76 253.99 415.64 257.69 412.61C259.18 411.4 260.66 410.18 262.12 408.94C264.36 407.04 266.5 405 268.59 403.01C270.43 401.26 272.33 399.45 274.26 397.78C280.5 392.38 286.97 387.03 293.28 381.8L294.13 381.1C295.83 379.7 297.57 378.32 299.25 376.98C301.91 374.87 304.65 372.7 307.27 370.39C300.05 383.56 296.3 397.66 293.09 411.07C290.74 420.87 287.29 430.08 284.21 437.79C283.71 439.03 283.21 440.27 282.67 441.61L282.41 442.26C280.93 442.28 279.45 442.3 277.92 442.33C273.47 442.39 268.87 442.46 264.32 442.58C256.85 442.78 249.38 443 241.92 443.23L241.2 443.25C236.99 443.38 232.78 443.51 228.56 443.63C227.33 443.67 226.11 443.69 224.88 443.72H224.59C222.65 443.77 220.72 443.8 218.78 443.88C218.5 443.88 217.58 443.88 217.47 443.33C217.44 443.16 217.82 442.9 218.33 442.74L218.31 442.73ZM311.95 432.23C313.72 430.1 315.38 427.86 316.99 425.7L317.73 424.7C318.52 423.64 319.31 422.59 320.11 421.53C322.45 418.43 324.87 415.23 327.09 411.92C328.85 409.3 330.48 406.56 332.05 403.91C333.04 402.24 334.03 400.58 335.05 398.94C336.74 396.23 338.52 393.5 340.25 390.86L346.71 380.92C350.12 375.68 353.52 370.43 356.91 365.17C357.1 364.88 357.2 364.8 357.2 364.8C357.22 364.8 357.35 364.77 357.71 364.83C360.73 365.33 363.78 365.73 366.73 366.12L367.07 366.17C368.39 366.34 369.71 366.52 371.03 366.7C371.16 366.72 371.3 366.73 371.44 366.75C371.5 366.75 371.56 366.76 371.62 366.77C375.49 370.37 379.99 368.91 383.01 367.93C387.86 366.35 393.45 364.18 398.21 360.03C399.94 358.52 402 357.21 403.99 355.94C404.8 355.42 405.61 354.9 406.41 354.37C406.59 354.25 406.72 354.19 406.78 354.17C414.2 354.08 422.05 354 430.64 353.95C428.26 355.94 425.9 357.9 423.53 359.85C417.18 365.06 412.68 371.06 410.16 377.67C408.8 381.23 408.16 384.99 407.55 388.63L407.53 388.74C407.41 389.44 407.29 390.13 407.17 390.82C406.49 394.66 405.86 398.57 405.24 402.42C404.57 406.57 403.88 410.85 403.12 415.05C402.49 418.5 401.75 422 401.03 425.39C400.41 428.34 399.76 431.39 399.18 434.44C398.74 436.75 398.6 439.07 398.45 441.32L398.39 442.29C398.33 443.2 398.32 444.07 398.33 444.98L308.16 440.18C308.5 437.48 309.74 434.87 311.94 432.23H311.95Z" fill="white"/>
<path d="M308.31 170.9C308.18 174.18 310.78 175.98 312.47 178.18C314.72 181.1 317.17 183.94 319.94 186.35C323.68 189.61 327.22 193.26 332.19 194.84C334.79 195.67 334.8 195.96 334.23 198.36C333.35 202.04 332.45 205.72 331.68 209.42C331.47 210.44 331.65 211.55 331.65 212.69C333.57 213.37 334.81 213.02 335.45 211.12C336.08 209.21 336.9 207.36 337.38 205.41C337.85 203.47 338 201.45 338.34 199.12C340.81 199.77 343.1 200.23 345.29 200.98C348.85 202.2 351.99 201.17 354.76 199.14C355.83 198.36 356.21 196.64 357.15 194.9C358.07 194.45 359.18 194.93 360.12 196.07C361.79 198.1 363.55 200.06 365.08 202.2C367.36 205.39 369.69 208.59 371.61 212C374.56 217.26 377.37 222.62 378.94 228.52C379.48 230.57 380.46 232.51 380.96 234.57C382.53 241.12 383.73 247.77 385.56 254.24C386.61 257.94 386.56 261.76 387.57 265.43C387.82 266.33 387.57 267.36 387.66 268.33C387.83 269.98 388.12 271.62 388.3 273.27C388.39 274.11 388.53 275.01 388.34 275.8C387.04 281.29 387.9 286.85 387.63 292.37C387.61 292.71 387.5 293.05 387.37 293.66C384.7 293.37 381.93 294.77 379.47 292.61C379.17 292.35 378.53 292.27 378.11 292.37C366.96 295.05 355.63 293.21 344.4 293.72C343.72 293.75 343.02 293.3 342.33 293.29C340.93 293.27 339.15 292.89 338.21 293.58C336.36 294.96 334.47 294.49 332.65 294.39C330.56 294.27 329.65 292.15 330.94 290.53C332.73 288.28 332.56 286.29 331.1 283.97C329.02 280.67 326.86 277.37 325.26 273.83C322.53 267.82 318.75 262.32 316.96 255.83C315.97 252.22 314.08 248.86 312.63 245.37C312.32 244.62 312.16 243.79 312.02 242.99C311.91 242.4 312.18 241.6 311.87 241.22C309.65 238.46 309.89 234.91 308.78 231.79C307.45 228.03 307.02 223.95 306.18 220.02C305.91 218.75 305.56 217.5 305.29 216.23C304.87 214.27 304.39 212.31 304.11 210.33C303.74 207.61 303.68 204.85 303.24 202.14C302.04 194.82 302.78 187.46 302.52 180.12C302.43 177.48 301.89 174.86 301.88 172.23C301.88 170.37 302.42 168.5 302.72 166.65C303.52 166.56 304.11 166.49 304.71 166.43C305.92 167.92 307.14 169.41 308.35 170.89L308.31 170.9Z" fill="#7FB6E0"/>
<path d="M120.7 432.6C119.67 430.29 118.86 429.81 116.89 430.14C114.22 430.6 111.53 430.98 109 431.37C107.99 429.8 108.26 428.83 109.13 427.76C111.09 425.36 112.93 422.86 114.82 420.4C116.2 418.61 117.64 416.86 118.98 415.04C122.73 409.96 126.39 404.83 130.17 399.78C132.96 396.05 135.88 392.42 138.73 388.74C142.72 383.59 146.7 378.44 150.68 373.28C154.25 368.65 157.77 363.98 161.38 359.37C165.69 353.86 169.96 348.32 174.44 342.94C179.43 336.94 184.93 331.4 190.59 326.03C193.17 323.58 195.6 320.81 198.58 318.98C201.93 316.91 204.85 314.3 208.15 312.23C212.67 309.39 217.3 306.73 221.99 304.19C226.02 302 230.23 300.14 234.3 298.02C235.73 297.28 236.91 297.31 238.36 298.02C241.38 299.5 244.76 299.67 248 300.37C254.32 301.73 260.73 300.31 267.05 301.37C268.71 301.65 270.52 301.09 272.46 300.9C272.8 303.16 272.42 304.67 271.5 306.56C269.15 311.36 265.73 315.34 262.51 319.45C260.41 322.12 257.72 324.33 255.3 326.75C252.63 329.41 249.99 332.09 247.31 334.75C245.97 336.08 244.62 337.4 243.2 338.64C237.98 343.24 232.85 347.96 227.46 352.35C221.36 357.32 214.97 361.94 208.78 366.8C200.11 373.6 191.55 380.54 182.86 387.3C177.06 391.81 171.22 396.27 165.62 401.05C162.71 403.54 159.3 405.45 156.14 407.66C154.31 408.94 152.53 410.29 150.75 411.64C146.05 415.24 141.38 418.88 136.65 422.45C134.73 423.89 132.81 425.42 130.67 426.44C128.48 427.49 126.96 429.22 125.19 430.7C123.85 431.82 122.54 432.76 120.7 432.58H120.71L120.7 432.6Z" fill="#9ED0CE"/>
<path d="M320.63 360.62C321.11 360.62 321.89 360.79 322.04 360.56C323.56 358.25 326.29 357.88 328.75 356.51C325.72 355.96 323.05 355.17 320.37 355.06C317.17 354.93 313.94 355.34 310.73 355.58C308.43 355.75 306.14 356.06 303.85 356.26C303.13 356.33 302.4 356.26 301.67 356.27C293.61 356.51 285.53 356.52 277.49 357.08C272.19 357.44 266.9 357.7 261.59 357.74C260.65 357.74 259.71 358.1 258.77 358.12C256.64 358.17 254.5 358.13 252.37 358.11C251.45 358.1 250.48 357.83 249.61 358.03C246.99 358.63 244.43 358.71 241.82 357.96C240.92 357.7 239.92 357.75 238.96 357.74C235.83 357.72 232.69 357.74 229.42 357.74C228.85 356.11 229 355.15 230.51 354.04C234.07 351.42 237.52 348.61 240.75 345.6C243.5 343.04 245.83 340.02 248.47 337.32C249.97 335.79 251.81 334.59 253.33 333.07C257.94 328.47 262.69 323.99 266.95 319.08C269.73 315.88 271.88 312.09 274.07 308.42C275.85 305.44 276.88 304.54 280.01 305.48C285.56 307.14 291.31 308.1 296.64 310.65C299.33 311.93 302.42 312.46 305.25 313.61C309.65 315.4 314.08 317.11 318.52 318.8C319.16 319.05 319.91 319.04 320.6 319.14C321.38 319.43 322.16 319.73 322.94 320.02C326.67 321.44 330.45 322.72 334.11 324.3C340.56 327.09 347.04 329.85 353.27 333.06C356.29 334.62 358.95 337.01 361.5 339.32C364.33 341.9 364.16 342.89 361.89 346.24C359.44 349.86 357.27 353.66 354.78 357.25C351.34 362.21 347.58 366.96 344.2 371.96C341.29 376.27 338.8 380.85 335.99 385.23C331.94 391.56 327.74 397.79 323.68 404.11C322.86 405.39 322.12 406.45 320.39 406.43C314.6 406.38 308.8 406.41 303.03 406.41C301.61 403.48 302.86 400.74 303.47 398.24C305.02 391.81 306.86 385.41 309.16 379.22C311.48 372.98 314.74 367.14 319.43 362.25C319.91 361.74 320.28 361.12 320.69 360.55L320.64 360.6L320.63 360.62Z" fill="#9ED0CE"/>
<path d="M191.22 459.54C192.55 460.72 194.22 460.41 195.74 460.45C201.27 460.58 206.81 460.61 212.34 460.58C215.91 460.56 219.48 460.3 223.05 460.26C226.43 460.23 229.82 460.08 233.17 460.92C234.05 461.14 235.07 460.84 236.03 460.76C237.84 460.61 239.81 459.91 241.41 460.41C244.43 461.36 247.4 460.67 250.37 460.97C252.5 461.19 254.62 461.49 256.75 461.63C257.68 461.69 258.63 461.47 259.57 461.33C260.15 461.25 260.76 460.9 261.3 461C265.17 461.66 269.06 460.75 272.84 461.01C274.03 462.67 273.26 463.82 272.15 464.81C275.07 467.95 279.05 467.64 282.74 468.23C285.55 468.68 288.36 469.09 291.18 469.48C292.13 469.61 293.09 469.68 294.05 469.68C299.66 469.7 305.28 469.4 310.86 469.82C313.47 470.02 315.98 469.85 318.54 469.82C321.82 469.77 325.12 470.6 328.41 471.04C328.89 471.1 329.45 471.29 329.84 471.12C333.14 469.67 336.4 471.52 339.71 471.22C341.32 471.07 342.98 471.72 344.63 471.86C346.07 471.98 347.84 471.93 348.2 470.28C348.6 468.48 346.52 468.65 345.52 468.02C344.96 467.67 344.16 467.54 343.47 467.55C340.43 467.59 338.24 465.46 335.58 464.55C334.61 464.22 333.67 463.66 332.86 463.03C332.49 462.74 332.46 462.03 332.17 461.22C333.58 461.1 334.74 461.01 335.91 460.91C337.87 460.95 339.84 460.98 341.8 461.02C342.29 461.25 342.76 461.66 343.26 461.68C345.18 461.76 347.11 461.71 349.03 461.7C353.47 463.49 357.85 465.4 361.83 468.13C362.1 468.31 362.54 468.24 362.89 468.29C365.18 469.93 367.59 471.43 369.73 473.24C371.46 474.71 372.94 476.51 374.38 478.29C374.72 478.71 374.43 479.64 374.43 480.6C368.54 480.6 362.87 480.6 357.2 480.6C355.36 480.6 353.36 480.97 351.71 480.38C349.79 479.69 348.26 480.38 346.52 480.52C344.29 480.7 342.01 480.16 339.75 479.97C338.79 479.89 337.82 479.9 336.85 479.9C329.94 479.9 323.03 479.95 316.13 479.87C314.24 479.85 312.36 479.43 310.47 479.22C309.87 479.15 309.25 479.12 308.66 479.18C300.89 479.94 293.13 478.89 285.35 479.12C277.48 479.35 269.6 479.17 261.72 479.17C253.84 479.17 245.97 479.13 238.09 479.19C235.31 479.21 232.53 479.51 229.75 479.56C228.5 479.58 227.23 479.14 225.99 479.21C223.13 479.39 220.3 479.2 217.39 479.69C213.35 480.37 209.06 480.24 204.99 479.69C203.13 479.43 201.58 480.26 199.83 479.95C196.45 479.35 193.02 479.93 189.62 479.91C186.23 479.89 182.83 479.85 179.44 479.93C177.91 479.97 176.39 480.34 174.86 480.48C174.3 480.53 173.71 480.4 173.14 480.3C172.56 480.2 171.95 479.84 171.42 479.93C166.43 480.8 161.47 479.58 156.47 479.84C151.27 480.1 146.05 479.9 140.84 479.9C135.63 479.9 130.66 480.03 125.57 479.87C114.88 479.54 104.2 478.93 93.5002 478.7C88.8402 478.6 84.1202 478.68 79.5402 478.22C75.8102 477.85 72.1101 478.04 68.4201 477.71C66.0501 477.5 63.6803 477.21 61.3103 476.98C54.8703 476.35 48.4402 475.66 42.0002 475.14C38.6102 474.87 35.1303 475.27 31.8103 474.7C28.5303 474.14 25.6004 474.64 22.4304 475.34C19.9304 475.89 16.9203 476.35 14.5603 474.36C14.2803 472.57 15.4603 471.88 16.6003 471.18C22.3003 467.65 28.5003 465.59 35.1203 464.59C40.5003 463.78 45.8102 462.21 51.2102 461.84C60.0902 461.23 69.0201 461.31 77.9201 461.11C78.0201 461.11 78.1204 461.23 78.4104 461.42C78.3504 461.88 78.4404 462.51 78.2004 462.97C76.2104 466.75 77.4404 469.13 81.7404 469.71C82.1004 469.76 82.4703 469.75 82.8303 469.77L82.8103 469.74C85.8603 470.46 88.8804 471.55 91.9704 471.81C96.5004 472.19 101.06 472.21 105.62 472.49C114.49 473.05 123.41 472.84 132.31 472.92C132.45 472.92 132.6 472.56 132.75 472.36C131.9 471.87 131.06 471.35 130.19 470.89C128.3 469.9 126.51 468.66 124.16 468.95C123.52 469.03 122.82 468.58 122.15 468.37C119.49 467.85 116.84 467.33 114.18 466.81C113.03 466.32 111.91 465.78 110.74 465.36C108.96 464.72 107.03 464.33 105.94 462.58C105.6 462.04 105.55 461.32 105.3 460.42C109.88 460.48 114.13 459.15 118.5 460.54C119.92 460.99 121.68 460.31 123.28 460.3C130.87 460.24 138.47 460.24 146.06 460.21C153.13 460.21 160.2 460.21 167.27 460.21C172.95 460.23 178.64 460.25 184.32 460.29C185.28 460.29 186.38 460.11 187.17 460.5C188.7 461.27 189.57 460.55 190.5 459.58L190.86 459.56L191.22 459.58V459.54Z" fill="#EEB344"/>
<path d="M322.94 320.02C322.16 319.73 321.38 319.43 320.6 319.14C319.19 318.42 317.81 317.64 316.37 317C314.45 316.14 312.48 315.39 310.06 314.39C310.73 313.4 311.09 312.55 311.72 311.99C314 309.92 316.17 307.85 319.36 306.88C321.49 306.23 323.12 304.06 325.12 302.82C329.21 300.28 333.39 297.9 337.55 295.49C337.94 295.27 338.48 295.2 338.94 295.22C345.43 295.45 351.97 295.29 358.38 296.13C361.76 296.57 365.17 296.98 368.39 296.48C371.53 295.99 374.6 296.13 377.7 295.96C378.04 295.94 378.39 296.11 378.88 296.23C378.76 297.03 378.64 297.79 378.51 298.6C379.22 299 380.03 299.45 380.92 299.94C380.96 300.23 381.12 300.62 381.03 300.92C380.73 301.93 380.55 303.06 379.96 303.87C377.52 307.23 374.9 310.45 372.44 313.8C369.11 318.34 364.92 322.09 361.2 326.28C360.51 327.06 359.41 327.47 358.71 328.24C358.02 329 357.62 330.02 357.08 330.93C360.16 331.92 360.46 331.78 362.39 329.59C363.7 328.1 365.18 326.76 366.62 325.39C370.98 321.26 373.82 315.96 377.55 311.33C379 309.52 380 307.31 380.99 305.18C381.47 304.14 381.46 302.91 382.83 302.47C384.41 301.96 385.89 301.38 387.65 302.11C395.35 305.31 403.08 308.45 410.83 311.51C412.89 312.32 415.21 312.53 417.21 313.46C420.59 315.02 424.46 315.31 427.54 317.68C428.49 318.41 428.62 319.37 428.02 319.64C424.98 321 424.18 324.18 422.3 326.43C419.02 330.36 416.14 334.65 412.14 337.94C411.95 338.09 411.75 338.26 411.63 338.46C408.18 344.44 402.07 347.62 397.19 352.09C395.87 353.3 394.02 353.74 392.48 354.74C389.56 356.64 386.29 358.01 383.16 359.59C382.85 359.75 382.48 359.82 382.19 360C379.25 361.87 376.23 362.95 372.76 361.4C372.25 361.17 371.56 361.39 370.96 361.35C366.43 361.06 361.9 360.76 356.91 360.43C357.25 359.08 357.32 357.76 357.9 356.74C359.82 353.38 361.94 350.14 363.94 346.82C364.43 346.02 364.64 345.04 365.17 344.27C366.25 342.67 365.98 341.36 364.59 340.16C362.57 338.4 360.42 336.76 358.57 334.83C355.64 331.77 351.43 331.16 348.01 328.99C344.69 326.88 340.73 325.74 337 324.31C333.28 322.88 329.5 321.57 325.72 320.3C324.85 320.01 323.86 320.11 322.92 320.03L322.94 320.02Z" fill="#006EB2"/>
<path d="M308.31 170.9C307.1 169.41 305.88 167.92 304.67 166.44C303.05 163.68 302.32 160.74 302.49 157.52C302.81 151.64 302.62 145.7 303.37 139.88C303.88 135.9 303.77 131.97 303.99 128.02C304.08 126.49 304.73 124.95 304.63 123.45C304.4 120.01 303.87 116.59 303.46 113.17C303.15 110.57 303.04 107.92 302.46 105.38C301.39 100.61 302.32 95.5599 300.38 90.9199C300.29 90.7099 300.34 90.4399 300.33 90.1999C300.09 85.8899 299.83 81.5799 299.6 77.2699C299.35 72.5999 299.17 67.9199 298.83 63.2499C298.75 62.1099 298.42 60.7799 297.72 59.9299C296.36 58.2499 296.23 56.3299 295.95 54.3799C295.18 48.9199 297.11 43.8699 299.15 39.1499C300.64 35.7199 301.38 32.1899 302.49 28.7199C303.27 26.2799 303.09 24.0699 302.18 21.4899C301.1 18.4299 301.26 14.8999 301.1 11.5699C301 9.52993 302.51 9.32991 304.28 9.60991C307.73 14.6299 309.65 20.3099 310.5 26.3899C311.04 30.2799 311.61 34.1699 311.89 38.0799C312.13 41.3799 311.96 44.7199 311.97 48.0399C311.04 50.1399 310.97 51.9299 311.95 54.8499V48.0199C312.19 47.7799 312.63 47.5299 312.63 47.2899C312.67 42.0899 312.76 36.8799 312.63 31.6899C312.59 30.0699 311.86 28.4699 311.57 26.8499C311.35 25.5799 311.32 24.2799 311.21 23.1499C312.51 22.2299 313.37 22.6299 313.89 23.5599C315.96 27.2499 318 30.9599 319.97 34.7099C322.79 40.0699 323.58 45.9699 324.33 51.8599C324.85 55.9999 326.24 59.5399 329.51 62.4599C331.7 64.4099 333.34 67.0299 335.05 69.4699C337.92 73.5599 340.58 77.7999 343.44 81.8899C346.65 86.4799 350.03 90.9499 353.26 95.5299C355.49 98.6999 357.64 101.92 359.7 105.2C360.09 105.83 359.89 106.83 359.97 107.66C359.47 108.15 358.97 108.64 358.47 109.13C357.59 109.41 356.56 109.48 355.87 110C352.82 112.3 349.88 114.73 346.89 117.12C345.86 117.08 344.57 117.43 344.7 115.65L344.77 114.87C346.63 112.59 346.98 109.97 346.66 106.71C345.36 107.05 344.33 107.33 343.31 107.6C342.56 107.62 341.82 107.65 341.07 107.67C339.63 107.95 338.89 107.16 338.35 105.97C335.88 100.44 333.52 94.8499 330.85 89.4199C329.3 86.2599 327.44 83.1699 325.99 80.0099C323.63 74.8699 320.75 70.1199 317.73 65.4099C316.38 63.2999 315.07 60.9799 313.15 59.5099C311.99 58.6099 311.18 57.8199 310.85 56.1799C310.43 58.3099 310.48 60.2599 309.66 61.7399C308.67 63.5299 309 64.8599 309.55 66.6099C311.24 71.9099 312.78 77.2699 314.12 82.6699C315.72 89.0999 317.02 95.5999 318.52 102.06C319.16 104.82 320.08 107.51 320.64 110.29C321.11 112.62 321.06 115.05 321.55 117.37C322.73 122.98 323.52 128.61 323.62 134.36C323.7 139.27 324.03 144.19 324.34 149.09C324.48 151.34 324.42 153.76 325.22 155.79C326.56 159.21 325.6 162.62 325.52 165.91C325.37 171.48 324.33 177.05 324.37 182.68C324.37 183.35 324.37 184.01 324.37 184.68C323.03 185.59 321.9 185.73 320.6 184.36C316.67 180.18 312.2 176.48 309.18 171.49C309.02 171.23 308.59 171.13 308.28 170.96L308.31 170.9Z" fill="#F5D2B7"/>
<path d="M395.67 455.84C396.39 455.48 397.35 455.3 397.78 454.73C399.6 452.32 402.4 450.71 403.51 447.69C403.78 446.95 404.5 446.37 405 445.71C405.43 445.16 406.1 444.65 406.23 444.04C406.89 440.79 407.57 437.53 407.94 434.24C408.21 431.8 407.3 429 408.19 426.9C409.79 423.12 410 419.11 411.08 415.27C412.19 411.3 412.46 407.09 413.07 402.99C413.14 402.52 412.9 401.89 413.13 401.56C415.15 398.6 414.3 395.05 415.2 391.85C416.63 386.72 417.66 381.49 418.93 376.31C419.15 375.4 419.52 374.45 420.08 373.72C422.18 371.02 424.3 368.31 426.61 365.79C427.58 364.73 428.91 363.76 430.1 363.11C432.43 361.82 433.24 359.16 435.9 358.03C438.16 357.07 439.66 354.33 441.65 352.22C439.71 350.22 437.72 348.83 434.8 348.99C431.78 349.15 428.73 348.86 425.72 349.06C420.72 349.4 415.74 349.99 410.75 350.42C409.45 350.53 408.14 350.44 406.42 350.44C406.77 349.5 406.81 348.72 407.21 348.4C409.26 346.78 411.45 345.3 412.55 342.78C417.97 339.12 420.38 332.93 424.64 328.28C425.82 327 426.41 325.18 427.25 323.59C427.98 322.22 428.67 320.83 429.56 319.09C430.64 319.38 431.83 319.49 432.81 319.99C436.65 321.94 440.4 324.07 444.23 326.04C448.37 328.17 452.47 330.38 456.74 332.21C461.48 334.24 466.08 336.46 470.63 339.34C469.69 341.91 469.06 344.59 467.79 346.93C464.48 353.05 461.07 359.14 457.38 365.04C454.16 370.19 450.47 375.05 447.03 380.06C443.28 385.52 439.47 390.94 435.91 396.52C433.87 399.71 432.45 403.3 430.47 406.53C426.75 412.59 423.8 419.03 420.78 425.43C419.03 429.14 417.56 433.04 416.76 437.1C416.04 440.76 419.66 446.09 423.16 447.21C426.99 448.44 430.72 449.99 434.5 451.38C436.06 451.95 437.6 452.57 439.2 453C440.97 453.48 441.68 454.64 441.54 456.27C443.01 456.78 444.23 457.2 445.61 457.68V460.03H394.17C394.4 458.86 394.62 457.77 394.83 456.68C395.1 456.41 395.37 456.14 395.64 455.87L395.67 455.84Z" fill="#F5D2B7"/>
<path d="M193.57 9.72981C195.58 9.12981 196.52 9.7998 197.29 11.3798C199.54 16.0098 201.2 20.7298 202.3 25.8298C203.89 33.1698 204.37 40.4998 204.29 47.9298C204.28 49.3398 203.84 50.7398 203.71 52.1498C203.6 53.3498 203.36 54.6498 203.69 55.7498C204.11 57.1898 204.38 58.1098 203.2 59.5398C202.47 60.4198 202.88 62.5798 203.3 63.9998C204.91 69.4598 206.82 74.8298 208.46 80.2898C210.51 87.0998 212.55 93.9298 214.3 100.82C215 103.56 215.15 106.5 215.19 109.35C215.28 117.03 215.94 124.66 216.46 132.31C216.61 134.45 216.76 136.7 216.73 138.91C216.62 147.87 216.77 156.84 216.65 165.8C216.58 171.08 215.97 176.36 216.03 181.64C216.07 185.43 216.84 189.2 217.21 192.99C217.33 194.22 217.05 195.5 217.27 196.7C218.95 205.79 220.21 214.94 219.53 224.19C219.15 229.26 218.81 234.44 216.04 239.01C215.5 239.91 215.24 240.97 214.86 241.91C213.65 242.25 212.83 242.27 212.1 240.98C209.03 235.58 205.7 230.32 202.7 224.89C200.86 221.55 199.43 217.98 197.83 214.5C197.68 214.18 197.82 213.65 197.6 213.47C194.86 211.05 194.59 207.62 193.83 204.4C193.61 203.48 193.44 202.53 193.42 201.58C193.37 198.8 193.45 196.01 193.39 193.22C193.27 186.96 194.73 180.92 195.75 174.81C196.52 170.16 197.17 165.51 197.14 160.76C197.12 158.3 197.85 155.83 198.11 153.36C198.22 152.34 197.72 151.22 197.95 150.25C198.3 148.76 199.03 147.35 199.67 145.74C199.25 144.81 198.15 144.05 198.81 142.4C199.52 140.61 199.14 138.47 199.37 136.55C199.88 132.2 198.39 127.84 199.83 123.5C200.37 121.86 200.26 119.83 199.9 118.09C198.54 111.57 198.6 104.99 198.43 98.3998C198.31 93.6498 198.25 88.6798 196.84 84.2298C195.45 79.8198 196.23 75.2198 194.44 70.8998C193.1 67.6698 192.79 64.0198 191.9 60.5898C191.61 59.4798 190.93 58.4698 190.5 57.3898C188.97 53.4798 190.07 49.6398 190.88 45.7898C192.17 39.6498 193.93 33.5398 194.52 27.3298C194.97 22.5398 193.93 17.6098 193.58 12.7298C193.51 11.7898 193.58 10.8498 193.58 9.73979L193.57 9.72981Z" fill="#FBEDE2"/>
<path d="M253.74 136.03C252.52 130.76 250.34 126.07 245.13 123.69C242.34 122.42 239.34 121.54 236.36 120.77C234.97 120.41 234.39 119.93 234.1 118.5C233.43 115.17 233.43 111.68 231.48 108.62C230.84 107.62 231.29 105.99 230.86 104.79C229.91 102.1 228.79 99.46 227.62 96.85C225.99 93.19 224.44 89.47 222.51 85.96C220.17 81.7 217.58 77.57 214.88 73.52C212.24 69.57 209.35 65.79 206.53 61.97C204.42 59.12 204.94 55.8 205.3 52.76C205.81 48.41 206.02 39.74 205.15 35.06C204.78 33.07 204.98 30.97 204.58 28.99C203.94 25.87 202.99 22.81 202.22 19.72C202.08 19.16 202.2 18.54 202.2 17.84C204.04 17.07 205.11 17.53 205.98 19.32C208.6 24.71 209.97 30.42 210.9 36.29C211.78 41.91 212.83 47.51 213.85 53.12C213.95 53.69 214.2 54.45 214.63 54.71C217.25 56.27 217.74 59.16 219.03 61.53C223.52 69.81 227.89 78.13 233.54 85.75C236.55 89.82 239.28 94.11 242.33 98.19C246.12 103.25 249.64 108.6 252.51 114.21C254.97 119.03 257.06 124.07 258.36 129.48C259.73 135.19 260.41 140.92 261.14 146.7C262.08 154.22 262.25 161.75 262.66 169.29C262.95 174.68 262.26 179.99 262.41 185.35C262.5 188.61 261.48 191.9 260.94 195.31C259.3 195.8 258.1 195.41 256.58 194.58C252.77 192.52 248.99 190.5 245.76 187.59C243.62 185.67 241.51 183.73 239.17 181.6C238.65 182.45 238.24 183.12 237.73 183.94C242.36 190.44 246.5 197.18 248.3 205.33C245.42 206.12 243.14 205.22 241.16 204.14C238.45 202.67 235.92 200.79 233.48 198.88C230.28 196.37 227.2 193.69 224.13 191.01C222.92 189.96 221.9 189.16 220.05 189.67C218.73 190.03 217.77 188.69 218.31 187.31C219.03 185.5 219.12 183.86 218.31 182.11C218.12 181.7 218.12 181.16 218.17 180.69C218.49 177.85 218.86 175.01 219.26 171.75C220.04 171.75 221.3 171.36 222.03 171.82C224.6 173.46 227.38 172.99 230.12 173.05C231.8 173.09 233.48 173.05 235.04 173.05C236.17 174.61 235.25 175.76 234.8 176.94C233.82 179.49 232.53 181.96 232.69 184.82C232.8 186.81 232.78 186.81 235.5 188.33C235.25 187.33 235.03 186.6 234.89 185.85C234.06 181.25 236.17 177.51 238.54 173.9C239.01 173.19 240.02 172.83 240.82 172.36C242.76 171.22 245.23 170.78 246.28 168.31C245.89 168.2 245.54 168.03 245.49 168.1C243.98 170.03 241.94 170.26 239.66 170.17C236.22 170.04 232.77 170.14 229.33 170.13C229.09 170.13 228.82 170.18 228.61 170.1C226.28 169.21 224.03 169.23 221.62 170.03C219.72 170.65 218.75 169.39 219.12 167.41C219.38 166.01 219.57 164.58 219.59 163.16C219.65 159.41 219.56 155.65 219.64 151.9C219.67 150.74 220.08 149.6 220.32 148.45C222.1 146.29 224 144.21 225.63 141.94C226.98 140.06 228.01 137.96 229.18 135.95H231.71C232.09 137.48 232.4 138.74 232.71 140C233.15 141.79 233.6 143.59 234.04 145.38C234.39 145.61 235.03 146.08 235.06 146.04C235.77 145.18 236.71 144.36 237 143.35C237.71 140.92 238.1 138.41 238.63 135.93C239.6 134.03 241.39 134.61 242.95 134.5C245.6 136.48 248.25 138.46 250.91 140.45C250.82 141.34 250.72 142.22 250.6 143.39C253.48 142.27 254.63 144.83 256.44 146.01C258.04 143.09 256.85 138.84 253.74 136L253.76 136.04L253.74 136.03ZM252.18 147.34C252.07 147.36 251.96 147.38 251.85 147.4V154.4C251.96 154.4 252.07 154.39 252.18 154.38V147.34Z" fill="#FBEDE2"/>
<path d="M303.26 362.93C304.05 363.97 306.39 363.3 306.06 365.83C302.92 368.33 299.59 370.99 296.25 373.63C291.95 377.03 287.63 380.41 283.33 383.81C277.72 388.25 272.08 392.66 266.52 397.16C265.02 398.37 263.86 400.02 262.3 401.13C258.58 403.79 255.3 406.97 251.46 409.5C249.26 410.95 247.55 413.13 245.48 414.81C244.22 415.83 242.71 416.54 241.31 417.39C241 417.58 240.7 417.77 240.42 417.99C233.84 423.34 227.43 428.92 220.61 433.94C217.84 435.98 215.83 438.48 213.76 441.02C211.37 443.95 211.86 446.07 215.26 447.48C217.85 448.55 220.3 450.13 223.27 450.04L223.23 450.01C223.46 450.26 223.67 450.67 223.94 450.72C226.71 451.27 229.34 452.54 232.27 452.23C233.48 452.1 234.5 452.34 233.88 454.17C232 454.48 230.05 454.91 228.08 455.09C224.54 455.42 220.98 455.6 217.42 455.85C216.76 456.03 216.04 456.48 215.46 456.33C212.4 455.56 209.45 456.11 206.38 456.39C201.29 456.86 196.11 456.48 190.97 456.42C190.81 456.42 190.65 456.11 190.49 455.94C192.99 451.39 196.83 448.02 200.65 444.66C202.65 442.9 204.57 441.24 206.16 438.94C207.57 436.89 209.48 434.96 211.22 433.07C213.44 430.66 214.54 427.86 215.68 425.05C218.53 418.07 221.97 411.38 226.18 405.18C229.5 400.29 233.12 395.38 237.49 391.47C240.97 388.35 244.29 384.93 248.19 382.18C250.71 380.41 253.7 378.68 254.81 375.33C254.98 374.81 255.56 374.39 256.03 374.01C258.79 371.74 260.32 368.39 263.09 366.08C264.2 365.15 264.68 363.45 265.41 362.08C266.14 360.72 267.07 359.89 268.79 359.85C275.41 359.69 282.03 359.46 288.64 359.13C291.4 358.99 293.79 359.79 296.02 361.3C298.43 361.84 300.84 362.37 303.25 362.91L303.26 362.93Z" fill="#F5D2B7"/>
<path d="M395.67 455.84C395.4 456.11 395.13 456.38 394.86 456.65C394.13 457.4 393.4 458.15 392.68 458.9C391.63 460.01 390.59 461.12 389.13 462.67C392.16 462.36 394.84 462.19 397.48 461.77C399.21 461.49 400.93 462.89 402.62 461.69C405.53 462.98 408.62 461.53 411.61 462.32C412.97 462.68 414.52 462.56 415.95 462.39C427.31 461.02 438.71 462.01 450.09 461.67C451.5 461.63 452.9 461.14 454.31 461.1C456.09 461.05 457.88 461.25 459.66 461.36C460.31 461.4 460.97 461.48 461.88 460.93C460.93 460.37 460.05 459.5 459.03 459.3C454.55 458.43 450.89 455.66 446.69 454.17C443.34 452.99 439.95 451.94 436.61 450.74C435.49 450.34 433.74 450.34 434.39 448.09C436.33 447.85 438.28 447.58 440.3 448.34C441.27 448.7 442.44 448.53 443.51 448.6C447.33 448.87 451.23 447.94 454.99 449.31C455.2 449.39 455.48 449.36 455.71 449.31C462.15 448.19 468.44 450.53 474.87 450.15C476.34 450.06 477.94 451.29 479.41 452.05C481.3 453.02 483.15 454.08 484.97 455.17C489.17 457.67 493.33 460.22 496.89 463.65C497.93 464.65 498.51 465.69 497.88 467.35C495.68 467.46 493.48 467.86 491.23 466.99C490.38 466.66 489.33 466.79 488.37 466.79C484.13 466.77 479.89 466.73 475.65 466.79C471.99 466.85 468.35 466.53 464.68 466.73C460.93 466.93 457.17 466.84 453.42 466.74C451.65 466.69 449.89 466.33 448.12 466.11C447.88 466.08 447.61 465.99 447.4 466.06C444.23 467.24 441.07 465.54 437.9 466.03C430.71 467.13 423.44 466.35 416.26 466.89C411.66 467.23 407.06 467.66 402.47 467.43C396.98 467.15 391.52 467.76 386.05 467.5C382.7 467.34 379.38 467.61 376 466.88C372.6 466.15 369.13 467.26 365.72 467.89C364.78 468.06 363.83 468.14 362.89 468.26C362.53 468.21 362.09 468.28 361.83 468.1C357.86 465.37 353.48 463.47 349.03 461.67C348.55 461.43 348.08 461 347.59 460.98C345.66 460.91 343.73 460.97 341.81 460.98C339.85 460.94 337.88 460.91 335.92 460.87C334.7 460.65 333.44 460.15 332.25 460.27C328.14 460.68 324.56 459.35 321.09 457.37C318.34 455.8 315.4 454.54 312.72 452.86C310.87 451.7 309.17 450.19 307.69 448.57C307.02 447.84 307.06 446.46 306.65 444.89C311.95 445.32 316.72 444.2 321.47 445.6C322.36 445.86 323.39 445.67 324.36 445.68C329 445.68 333.68 445.31 338.28 445.78C344.1 446.38 349.99 446.4 355.75 447.27C359.13 447.78 362.45 447.61 365.78 447.87C371.01 448.29 376.22 448.83 381.45 449.28C382.65 449.38 383.87 449.25 385.08 449.32C389.73 449.58 394.37 449.88 399.08 450.17C399.55 453.19 396.34 453.73 395.67 455.82V455.84Z" fill="#D88EB6"/>
<path d="M353.43 132.35C353.6 133.4 353.62 134.5 353.96 135.49C356.3 142.22 357.04 149.14 357.17 156.25C357.26 160.99 355.52 165.09 354.17 169.37C353.46 171.62 352.09 172.57 349.6 172.38C346.39 172.14 343.15 172.32 339.91 172.88C341.08 172.97 342.25 173.07 343.73 173.19C343.79 174.05 344.09 175.02 343.89 175.86C342.77 180.5 342.93 185.12 343.99 189.72C344.25 190.85 344.74 191.93 345.18 193.19C346.35 192.72 347.3 191.99 348.17 192.08C348.98 192.16 349.66 193.17 350.46 193.66C351.27 194.16 352.25 194.42 352.99 195C353.57 195.46 353.91 196.23 354.33 196.82C352.69 198.86 350.67 198.65 348.82 198.45C345.76 198.11 342.72 197.55 339.68 196.98C338.37 196.74 338.11 195.68 338.15 194.48C338.3 189.63 335.75 186.17 332.29 183.18C331.13 182.01 329.97 180.85 328.82 179.68C328.16 178.46 327.47 177.37 327.1 175.89C326.2 172.26 326.81 168.67 326.62 165.08C326.21 157.54 326.48 149.98 327.32 142.46C327.67 142.43 328.12 142.53 328.36 142.35C332.6 139.17 336.69 135.78 341.06 132.81C343.94 130.85 345.85 127.45 349.61 126.86C350.42 127.73 351.2 128.58 351.98 129.42C351.6 130.82 352.74 131.47 353.43 132.34V132.35ZM338.42 172.41C338.46 172.21 338.49 172.01 338.53 171.81H330.55V172.41H338.42Z" fill="#F5D2B7"/>
<path d="M190.49 455.98C190.65 456.15 190.81 456.46 190.97 456.46C196.11 456.51 201.28 456.9 206.38 456.43C209.45 456.15 212.4 455.6 215.46 456.37C216.04 456.51 216.76 456.06 217.42 455.89C218.02 457.12 219.06 456.56 219.94 456.46C220.99 456.34 222.01 455.97 223.06 455.9C226.75 455.65 230.43 455.8 234.15 455.31C239.02 454.67 244.03 455.16 248.98 455.15C250.45 455.15 251.93 455.12 253.4 455.1C251.97 454.42 250.58 454.18 249.18 453.94C245.92 453.37 242.67 452.76 239.4 452.26C237.17 451.92 234.91 451.77 232.68 451.46C229.52 451.02 226.37 450.51 223.21 450.03L223.25 450.06C222.69 449.33 222.13 448.6 221.02 447.15H225.45C242.02 447.15 258.6 447.19 275.17 447.11C278.01 447.1 280.85 446.6 283.73 446.32C284.59 447.6 284.46 448.58 283.62 449.69C281.82 452.05 280.13 454.49 278.41 456.91C277.52 458.17 276.48 458.84 274.8 458.82C266.09 458.74 257.38 458.92 248.67 458.72C245.13 458.64 241.61 459.06 238.08 458.78C235.71 458.59 233.35 458.2 230.97 458.13C229.07 458.07 227.16 458.35 225.26 458.5C224.19 458.58 223.12 458.77 222.05 458.78C214.91 458.82 207.78 458.82 200.64 458.83C198.19 459.05 195.64 458.16 193.29 459.48C192.59 459.5 191.89 459.52 191.18 459.54L190.82 459.52L190.46 459.54C183.09 459.53 175.72 459.51 168.35 459.54C167.98 459.54 167.61 459.95 167.24 460.17C160.17 460.17 153.1 460.17 146.03 460.17C145.17 459.95 144.31 459.56 143.44 459.55C138.86 459.49 134.28 459.52 128.94 459.52C129.59 458.43 129.8 457.58 130.29 457.35C132.33 456.41 134.46 455.68 136.55 454.83C143.01 452.21 149.58 450.5 156.69 450.71C166.37 451.01 176.07 450.78 185.77 450.78H190C188.95 452.79 188.13 454.37 187.17 456.21C188.63 456.11 189.53 456.04 190.43 455.98H190.49Z" fill="#D88EB6"/>
<path d="M322.74 462.54V465.9C321.68 465.96 320.74 466.05 319.81 466.05C314.96 466.06 310.11 465.99 305.27 466.08C301.37 466.15 297.48 466.47 293.59 466.51C291.48 466.53 289.36 466.2 287.25 466.06C283.19 465.78 279.14 465.52 274.92 465.24C275 464.47 274.88 463.86 275.13 463.59C277.98 460.57 281.14 457.81 283.71 454.58C286.81 450.69 289.49 446.47 292.21 442.29C293.37 440.51 294.31 438.56 295.08 436.58C295.81 434.72 296.2 432.72 296.71 430.78C297.27 428.61 297.82 426.43 298.34 424.25C299.25 420.45 300.18 416.65 301.01 412.83C301.21 411.91 301.04 410.91 301.04 409.7C303.91 409.07 306.41 410.71 309.02 410.68C311.74 410.65 314.45 410.11 317.22 409.78C318.53 412.76 316.79 414.8 315.57 416.51C312.69 420.54 309.35 424.24 306.22 428.1C305.17 429.4 304.19 430.75 303.16 432.07C300.43 435.58 299.82 439.49 300.85 443.74C301.89 448.03 304.49 451.28 308.02 453.63C312.73 456.76 317.69 459.5 322.75 462.54H322.74Z" fill="#FBEDE2"/>
<path d="M114.19 466.77C116.85 467.29 119.5 467.81 122.16 468.33C121.64 471.01 121.31 471.35 119.09 471.12C118.28 471.04 117.45 470.47 116.71 470.6C111.24 471.49 105.85 471.18 100.35 470.53C94.5499 469.84 88.6599 469.96 82.8099 469.72L82.8299 469.75C79.2199 467.61 78.8298 465.83 81.4998 462.18C85.3698 456.9 89.3696 451.72 93.3196 446.51C93.6796 446.03 94.0798 445.59 94.4398 445.11C95.8998 443.17 97.1998 441.3 99.5398 439.98C101.68 438.77 103.11 436.2 104.62 434.06C105.34 433.03 106.04 432.5 107.24 432.62C108.89 432.78 110.54 432.98 112.2 433.11C113.39 433.2 114.59 433.32 115.77 433.24C117.42 433.12 119.06 432.83 120.7 432.61H120.69C120.64 433.51 120.69 434.25 119.66 434.99C114.93 438.4 110.28 441.93 105.75 445.61C101.56 449.03 97.6498 452.77 94.5198 457.1C94.6698 457.51 94.6897 457.87 94.8397 457.93C97.5197 459.02 99.4999 461.2 101.87 462.6C105.57 464.79 109.6 466.84 114.19 466.78V466.77Z" fill="#FBEDE2"/>
<path d="M367.25 117.8C367.48 118.05 367.88 118.29 367.92 118.57C368.89 126.6 368.86 134.68 368.66 142.74C368.55 147.13 367.68 151.51 367.54 155.9C367.49 157.49 367.52 159.05 367.33 160.67C366.87 164.71 366.81 168.8 366.51 172.86C366.39 174.51 366.17 176.18 365.77 177.78C365.3 179.66 365.52 181.47 365.84 183.3C365.81 184 365.79 184.71 365.76 185.41C364.88 185.13 363.89 185.03 363.15 184.54C358.89 181.71 354.68 178.82 350.5 175.87C350.08 175.58 350.02 174.78 349.6 173.77C353.03 174.29 354.08 172.46 355.55 170.11C358.65 165.16 360.3 159.9 359.85 154.3C359.38 148.45 358.84 142.47 356.18 137.02C355.58 135.79 355.18 134.79 356.56 133.6C357.67 132.64 357.12 131.69 355.59 131.57C355.84 131.1 356.08 130.63 356.33 130.16C356.26 129.02 356.19 127.88 356.11 126.53C357.27 126.53 358.5 126.73 359.63 126.49C364.02 125.58 365.31 125.7 363.74 120.32C363.64 119.99 363.69 119.61 363.66 119.25C364.4 117.64 365.83 117.76 367.24 117.8H367.25Z" fill="#F5D2B7"/>
<path d="M250.89 140.45C248.24 138.47 245.59 136.49 242.93 134.5C241.78 133.8 240.64 133.11 238.9 132.06C238.78 133.72 238.69 134.83 238.61 135.93C238.09 138.41 237.69 140.93 236.98 143.35C236.69 144.36 235.74 145.18 235.04 146.04C235.01 146.07 234.38 145.61 234.02 145.38C234.94 140.34 232.21 135.95 231.2 131.03C230.52 132.67 229.84 134.31 229.15 135.95C227.98 137.95 226.95 140.06 225.6 141.94C223.97 144.21 222.07 146.29 220.29 148.45C220.06 148.07 219.63 147.7 219.61 147.31C219.32 141.57 219.15 135.82 218.82 130.08C218.62 126.65 218.2 123.23 217.85 119.51C219.01 119.45 219.92 119.13 220.54 119.43C221.62 119.94 222.48 120.14 223.56 119.47C224.01 119.19 224.76 119.19 225.31 119.31C229.55 120.29 233.8 121.33 237.97 122.45C244.34 124.17 250.15 127.36 252.57 134.33C252.79 134.95 253.33 135.47 253.72 136.03L253.7 135.99C254.02 137.55 254.35 139.11 254.8 141.29C253.04 140.91 251.96 140.68 250.88 140.45H250.89Z" fill="#DA753A"/>
<path d="M190.27 193.98C187.62 192.18 186.04 190.39 185.45 187.97C184.79 185.22 184.53 182.37 183.9 179.61C183.61 178.31 182.87 177.11 182.17 175.51C180.21 177.37 178.65 178.74 180.01 181.19C180.12 181.39 180.31 181.69 180.24 181.84C178.75 185.18 180.75 188.27 181.02 191.63C179.33 192.15 178.27 192.1 177.23 190.24C174.51 185.39 173.55 180.24 173.75 174.79C173.77 174.32 173.71 173.73 173.95 173.39C176.21 170.22 177.32 166.35 180.06 163.49C181.93 161.54 183.6 159.15 185.88 157.89C188.65 156.35 190.93 153.58 194.62 153.5C195.29 158.19 194.64 162.67 193.79 167.13C193.42 169.06 193.16 170.94 193.28 172.93C193.36 174.18 192.84 175.46 192.66 176.74C191.88 182.24 191.12 187.74 190.24 193.99L190.27 193.98Z" fill="#DA753A"/>
<path d="M365.76 185.42C365.79 184.72 365.81 184.01 365.84 183.31C369.24 182.45 369.39 182.49 370.96 185.75C372.05 188.01 373.07 190.31 374.04 192.63C374.31 193.27 374.59 194.08 374.42 194.69C373.71 197.19 372.91 199.68 371.98 202.1C371.22 204.06 369.15 204.35 368.19 202.5C365.94 198.18 362.05 195.28 359.07 191.61C357.25 189.37 354.48 187.84 352 186.19C350.04 184.89 347.88 183.89 345.38 182.52C345.68 179.96 346.03 177.05 346.39 173.97H348.77C349.02 177.2 351.06 179.24 353.75 181.11C357.81 183.94 361.55 187.21 365.51 190.36C366 188.65 364.55 186.95 365.77 185.41L365.76 185.42Z" fill="#80B6E0"/>
<path d="M303.26 362.93C300.85 362.39 298.44 361.86 296.03 361.32C295.54 359.35 296.96 358.84 298.34 358.51C299.26 358.29 300.27 358.46 301.24 358.45C304.39 358.45 307.54 358.51 310.69 358.43C313.89 358.35 317.09 358.12 320.64 357.93V360.61L320.69 360.56C319.37 361.51 317.96 362.36 316.74 363.43C315.26 364.74 314.01 365.17 311.88 364.41C309.18 363.44 306.15 363.38 303.27 362.93H303.26Z" fill="#006EB2"/>
<path d="M328.81 179.68C329.97 180.85 331.13 182.01 332.28 183.18C331.96 184.02 331.32 184.7 332.23 185.74C333.54 187.24 334.64 188.95 335.65 190.68C336.02 191.31 335.85 192.24 335.94 193.22C332.97 193.77 330.66 192.68 328.43 191.3C328.13 191.11 327.93 190.78 327.65 190.56C325.45 188.8 324.36 186.82 324.38 184.62C324.38 183.95 324.38 183.29 324.38 182.62C326.23 182.2 327.78 181.33 328.81 179.68Z" fill="#81B7E0"/>
<path d="M367.25 117.8C365.85 117.76 364.41 117.64 363.67 119.25C361.94 115.86 360.21 112.48 358.48 109.09C358.98 108.6 359.48 108.11 359.98 107.62C362.94 107.05 363.45 109.86 364.56 111.36C365.9 113.18 366.39 115.62 367.25 117.8Z" fill="#F6D8C1"/>
<path d="M356.33 130.16C356.08 130.63 355.84 131.1 355.59 131.57C354.87 131.83 354.15 132.09 353.43 132.35C352.74 131.48 351.6 130.83 351.98 129.43C352.34 129.25 352.71 129.08 353.07 128.9C353.32 129.53 353.57 130.16 353.82 130.77C354.75 130.54 355.54 130.35 356.33 130.15V130.16Z" fill="#C49E83"/>
<path d="M327.31 142.46C326.85 139.66 326.36 136.87 325.93 134.07C325.8 133.24 325.78 132.39 325.8 131.56C325.93 127.36 325.37 123.26 324.4 119.18C324.18 118.27 324.37 117.26 324.37 116.05C327.13 114.74 330.08 113.57 332.8 112C335.51 110.44 338.77 109.94 341.07 107.64C341.82 107.62 342.56 107.59 343.31 107.57C343.96 107.65 344.62 107.72 345.55 107.83C345.27 110.35 345.02 112.59 344.77 114.84C344.75 115.1 344.72 115.36 344.7 115.62C343.11 116.87 343.22 118.76 342.43 120.91C344.23 119.37 345.56 118.23 346.89 117.09C349.87 114.71 352.82 112.28 355.87 109.97C356.56 109.45 357.6 109.38 358.47 109.1C360.2 112.49 361.93 115.87 363.66 119.26C363.68 119.62 363.64 119.99 363.74 120.33C365.3 125.72 364.02 125.59 359.63 126.5C358.49 126.74 357.27 126.54 356.11 126.54C356.19 127.89 356.26 129.03 356.33 130.17C355.54 130.37 354.74 130.56 353.82 130.79C353.58 130.18 353.33 129.55 353.07 128.92C352.71 129.1 352.34 129.27 351.98 129.45C351.2 128.61 350.42 127.76 349.61 126.89C345.85 127.48 343.95 130.88 341.06 132.84C336.68 135.81 332.59 139.2 328.36 142.38C328.12 142.56 327.67 142.46 327.32 142.49L327.31 142.46Z" fill="#BE9476"/>
<path d="M182.51 193.91C180.21 194.87 178.82 194.79 177.2 192.27C175.54 189.7 174.35 186.78 173.26 183.89C172.55 182.01 172.28 179.94 172.07 177.92C171.95 176.78 172.12 175.48 172.57 174.43C175.97 166.49 181.02 159.76 188.38 155.18C192.64 152.53 196 149.94 195.02 144.25C194.7 142.4 195.13 140.43 195.17 138.51C195.39 128.51 195.77 118.51 195.76 108.51C195.76 101.93 195.38 95.3599 194.16 88.8199C192.7 81.0099 191.99 73.0599 190.41 65.2899C189.36 60.0899 188.69 54.9299 189.24 49.7099C189.69 45.4099 190.76 41.1799 191.6 36.9199C192.07 34.5599 192.65 32.2199 193.13 29.8599C193.24 29.2999 193.26 28.6599 193.09 28.1199C191.05 21.3599 191.38 14.3599 190.89 7.4299C190.75 5.4799 191.42 4.22992 192.81 2.91992C195.16 3.53992 196.77 5.2399 197.88 7.1799C199.92 10.7599 202.3 13.9799 205.35 16.7799C208.92 20.0599 209.86 24.7499 210.92 29.1399C212.75 36.7399 213.94 44.4999 215.64 52.1399C216.15 54.4299 217.17 56.7099 218.4 58.7299C222.87 66.0399 227.33 73.3599 232.16 80.4299C237.11 87.6699 242.27 94.7999 247.75 101.65C252.39 107.46 255.74 113.98 258.76 120.61C260.77 125.02 261.74 130.03 262.45 134.88C263.54 142.37 263.88 149.97 264.75 157.5C265.98 168.07 265.46 178.61 264.55 189.16C264.39 190.96 264.41 192.86 263.82 194.53C262.93 197.06 263.54 198.54 265.54 200.39C273.8 208.04 280.46 216.95 285.41 227.11C289.81 236.15 291.33 245.63 291.04 255.69C290.88 261.28 289.78 266.61 288.88 272.03C288.55 274.04 287.93 276.01 287.38 277.98C285.58 284.46 283 290.65 280.27 296.78C279.61 298.25 278.48 299.52 277.13 301.53C277.05 302.46 277.85 303.21 279.58 303.6C284.05 304.6 288.54 305.62 292.9 307.01C297.13 308.36 301.22 310.17 305.31 311.75C313.47 306.54 321.63 301.33 329.61 296.23C329.28 294.14 328.96 292.07 328.6 290.01C328.5 289.43 328.33 288.84 328.07 288.32C325.35 282.83 322.43 277.43 319.9 271.85C317.02 265.5 314.36 259.05 311.83 252.55C306.89 239.9 303.95 226.75 301.68 213.36C299.04 197.78 299.37 182.15 299.76 166.51C300.06 154.94 300.67 143.33 301.96 131.84C303.28 120.07 301.12 108.78 299.13 97.3599C297.87 90.1299 297.06 82.8199 296.17 75.5299C295.76 72.1899 295.52 68.8199 295.43 65.4599C295.1 53.6999 295.96 42.0399 298.1 30.4399C299.04 25.3699 299.08 20.1399 299.66 14.9899C299.98 12.1599 300.12 9.22991 302.04 6.77991C304.48 7.05991 305.75 8.67991 306.96 10.3099C310.03 14.4599 313.18 18.5699 316.04 22.8599C320.81 30.0099 324.45 37.6799 325.88 46.2799C326.25 48.5299 327.42 50.6799 327.6 52.9199C328.05 58.5199 331.66 62.1499 334.95 66.1299C339 71.0399 342.75 76.2099 346.52 81.3399C350.3 86.4899 354.09 91.6299 357.59 96.9699C361.94 103.6 366.86 109.99 369.33 117.62C370.48 121.18 370.79 125.12 370.83 128.89C370.91 136.5 370.57 144.11 370.37 151.71C370.25 156.5 370.2 161.3 369.88 166.08C369.64 169.66 369.15 173.23 368.54 176.77C368.18 178.85 368.66 180.48 369.82 182.17C372.13 185.54 374.39 188.97 376.46 192.49C377.98 195.06 377.67 195.69 375.56 197.78C374.85 198.48 374.37 199.5 374.03 200.46C373.54 201.82 373.43 203.33 372.87 204.65C372.16 206.32 372.69 207.55 373.48 209.05C375.72 213.27 377.96 217.53 379.75 221.95C381.68 226.71 383.27 231.62 384.7 236.55C387.42 245.9 389.96 255.3 391.23 264.98C391.76 269 392.11 273.04 392.79 277.03C393.42 280.72 392.34 284.07 390.64 287.07C389.53 289.05 388.96 291.02 388.62 293.12C388.07 296.52 388.11 296.56 384.64 296.71C384.05 296.74 383.46 296.71 382.84 296.89C390.99 297.86 398.06 301.93 405.61 304.58C409.66 306 413.76 307.31 417.78 308.81C420.35 309.76 422.82 310.97 425.34 312.04C426.44 312.5 427.54 313.14 428.69 313.27C430.81 313.52 431.77 314.87 432.68 316.54C433.21 317.52 433.92 318.67 434.85 319.13C444.92 324.06 455.04 328.87 465.15 333.71C466.24 334.23 467.32 334.79 468.42 335.29C470.38 336.16 472.35 336.99 474.85 338.07C474.74 338.49 474.62 339.53 474.21 340.44C470.94 347.73 466.7 354.45 462.24 361.05C456.57 369.44 451.26 378.07 445.47 386.37C437.22 398.21 430.85 411.05 424.67 424.01C423.22 427.05 421.87 430.2 420.94 433.43C418.6 441.54 421.86 444.76 428.88 446.78C429.31 446.9 429.86 446.85 430.29 446.69C435.33 444.91 440.52 445.49 445.68 445.66C451.34 445.84 457.01 445.85 462.65 446.25C468.17 446.64 473.87 446.68 479.11 448.2C486.13 450.23 492.73 453.66 498.32 458.56C499.72 459.78 500.72 461.58 501.59 463.27C503.5 467.02 501.95 469.43 497.78 469.37C494.17 469.32 490.55 469.1 486.94 469.08C477.51 469.01 468.09 468.99 458.66 468.98C444.83 468.98 430.99 469.01 417.16 469C402.06 469 386.96 468.97 371.86 468.95C370.66 468.95 369.47 468.95 368.01 469.5C369.92 470.91 372.14 472.05 373.65 473.81C375.22 475.64 376.11 478.07 377.53 480.67C376.04 481.13 374.75 481.78 373.41 481.9C369.21 482.28 364.99 482.4 360.79 482.76C359.39 482.88 358.03 483.43 356.64 483.75C355.83 483.93 355 484.17 354.18 484.16C343.98 483.98 333.78 483.77 323.58 483.55C313.84 483.34 304.1 483.07 294.36 482.88C284.14 482.68 273.91 482.47 263.69 482.39C258.4 482.35 253.12 482.66 247.83 482.71C238.06 482.8 228.29 482.84 218.52 482.86C203.1 482.88 187.69 482.9 172.27 482.86C162.24 482.83 152.2 482.8 142.17 482.59C130.25 482.34 118.33 481.9 106.41 481.51C96.5302 481.19 86.6398 480.94 76.7598 480.41C70.4998 480.08 64.2798 479.15 58.0298 478.77C49.4698 478.25 40.9001 477.79 32.3301 477.72C24.6101 477.65 16.9002 478.16 9.18018 478.38C8.10018 478.41 6.97018 478.37 5.93018 478.09C5.10018 477.87 4.39012 477.23 3.62012 476.77C4.09012 475.99 4.37982 474.95 5.06982 474.46C11.2098 470.1 17.5998 466.45 24.7598 463.65C32.4598 460.65 40.4 459.95 48.25 458.41C55.87 456.92 63.6198 457.46 71.3398 457.85C73.8598 457.98 76.4001 458.07 78.8901 457.8C79.9301 457.69 81.07 456.75 81.79 455.88C86.23 450.47 90.6901 445.08 94.8901 439.49C98.9401 434.1 102.61 428.42 106.59 422.97C114.67 411.89 122.71 400.77 131.01 389.85C140.39 377.5 149.98 365.32 159.58 353.14C164.43 346.99 169.46 340.98 174.49 334.97C180.23 328.1 187.25 322.58 194.18 317.02C202.73 310.16 212.03 304.44 222.33 300.54C225.79 299.23 229.35 298.14 232.9 297.08C235.57 296.28 236.4 294.87 235.44 292.3C233.78 287.91 232.29 283.45 230.43 279.15C229.29 276.52 227.7 274.07 226.14 271.65C217.64 258.47 208.82 245.47 200.65 232.09C196.28 224.94 192.28 217.43 190.04 209.25C189.38 206.84 189.64 204.15 189.71 201.59C189.75 200.22 190.06 199.13 188.49 198.23C186.45 197.07 184.65 195.49 182.53 193.92L182.51 193.91ZM400.87 447.61C400.87 445.78 400.78 444.11 400.89 442.45C401.06 439.93 401.17 437.38 401.64 434.9C402.87 428.41 404.4 421.98 405.58 415.48C407.04 407.42 408.2 399.31 409.64 391.25C410.4 386.98 410.97 382.57 412.5 378.56C415.06 371.86 419.55 366.36 425.13 361.78C428.99 358.61 432.82 355.39 436.77 352.1C436.27 351.78 435.98 351.42 435.69 351.42C426.02 351.47 416.35 351.55 406.69 351.67C406.13 351.67 405.51 351.97 405.03 352.29C402.18 354.2 399.15 355.91 396.58 358.15C392.37 361.82 387.4 363.88 382.25 365.56C379.19 366.55 375.9 367.58 373.07 364.68C372.72 364.32 371.96 364.31 371.38 364.23C366.96 363.61 362.53 363.1 358.13 362.37C356.55 362.11 355.64 362.55 354.82 363.83C349.94 371.41 345.02 378.95 340.12 386.51C337.72 390.21 335.28 393.89 332.95 397.63C330.28 401.91 327.85 406.36 325.03 410.54C322.11 414.88 318.87 419.02 315.74 423.22C313.88 425.72 312.03 428.25 310.04 430.64C307.1 434.18 305.37 438.06 305.61 442.55C337.63 444.25 369.3 445.94 400.88 447.62L400.87 447.61ZM331.26 291.97C332.58 293.89 334.51 294.55 336.08 293.39C338.26 291.79 340.37 292.21 342.64 292.45C344.56 292.66 346.49 292.84 348.42 292.87C353.95 292.95 359.48 292.96 365.01 292.96C367.3 292.96 369.72 293.33 371.84 292.72C375.39 291.69 378.71 291.37 382.24 292.72C383.46 293.19 385.02 292.8 386.63 292.8C386.77 291.5 387.3 290.27 386.93 289.42C385.72 286.56 386.6 283.74 386.84 280.97C387.52 273.14 386.71 265.42 385.27 257.78C384.09 251.55 382.6 245.36 381 239.22C379.64 234 378.21 228.77 376.28 223.74C373.21 215.73 368.56 208.54 363.47 201.66C361.78 199.38 359.7 197.39 357.86 195.34C357.04 197.12 356.77 199.12 355.64 199.89C352.62 201.97 349.2 203.23 345.37 202.09C343.33 201.48 341.26 200.98 339.01 200.38C338.86 201.32 338.8 202.04 338.63 202.72C337.89 205.77 337.23 208.84 336.32 211.84C335.9 213.21 332.52 214.87 331.96 214.12C331.21 213.11 331 211.61 330.84 210.28C330.74 209.5 331.21 208.65 331.37 207.82C332.14 203.96 332.89 200.09 333.72 195.82C328.06 195.1 324.14 191.87 320.62 188.22C315.71 183.13 310.1 178.59 307.18 171.81C306.35 169.89 304.89 168.24 303.38 165.97C303.2 167.13 303.03 167.68 303.03 168.23C303.12 175.94 303.18 183.65 303.37 191.36C303.48 195.57 303.58 199.81 304.14 203.98C304.82 209.13 305.88 214.23 306.95 219.32C307.89 223.79 309.03 228.22 310.17 232.64C311.5 237.82 312.62 243.04 314.95 247.95C316.64 251.52 317.37 255.55 319.11 259.08C322.98 266.96 327.14 274.7 331.33 282.42C333.13 285.73 334.07 288.85 331.26 291.97ZM236.09 298.25C234.83 298.91 233.56 299.58 232.29 300.26C225.22 304.08 218.04 307.71 211.11 311.78C204.49 315.67 198.42 320.38 192.84 325.69C188.66 329.67 184.11 333.36 180.45 337.79C170.76 349.5 161.44 361.52 152.04 373.46C144.73 382.75 137.44 392.06 130.26 401.45C125.13 408.16 120.18 415.01 115.15 421.8C113.12 424.54 111.07 427.28 109.03 430.02C109.19 430.24 109.34 430.46 109.5 430.68C111.72 430.23 113.94 429.83 116.14 429.31C118.61 428.73 120.53 429.53 121.96 431.8C124.63 429.72 127.01 427.74 129.51 425.94C139.31 418.86 149.21 411.93 158.94 404.77C165.2 400.17 171.26 395.3 177.36 390.48C182.9 386.1 188.33 381.57 193.88 377.19C201.06 371.53 208.26 365.89 215.55 360.39C223.97 354.04 232.01 347.26 239.75 340.12C244.95 335.32 249.87 330.2 255.05 325.38C260.53 320.28 265.38 314.69 269.35 308.36C270.49 306.55 271.28 304.51 272.4 302.21C259.8 301.79 247.8 302.76 236.06 298.27L236.09 298.25ZM100.82 455.88C100.96 457.74 101.61 458.68 103.45 458.87C110.13 459.57 116.68 458.79 123.02 456.81C130.72 454.41 138.27 451.53 145.93 449.01C147.71 448.42 150.03 447.72 151.52 448.38C154.15 449.54 156.68 449.26 159.28 449.26C165.31 449.26 171.34 449.15 177.37 449.17C181.91 449.18 186.46 449.33 191.68 449.43C193.15 448.02 195.05 446.01 197.13 444.22C204.37 437.99 210.24 430.61 213.88 421.85C220.28 406.45 230.36 393.93 242.95 383.36C250.71 376.85 257.15 369.21 264.09 361.18C255 361.7 246.46 362.26 237.91 362.65C233.48 362.85 229.04 362.71 224.61 362.84C223.22 362.88 221.52 362.88 220.5 363.63C214.79 367.85 209.25 372.29 203.65 376.65C199.29 380.05 194.93 383.45 190.56 386.84C187.33 389.35 184.06 391.8 180.85 394.34C175.87 398.3 171.04 402.46 165.94 406.26C157.48 412.57 148.82 418.59 140.33 424.85C131.73 431.19 123.17 437.57 114.74 444.13C109.93 447.87 105.41 451.99 100.83 455.87L100.82 455.88ZM303.13 404.88C303.98 405.22 304.42 405.54 304.85 405.54C310.12 405.56 315.4 405.6 320.67 405.43C321.4 405.41 322.29 404.47 322.79 403.74C324.29 401.57 325.61 399.27 327.05 397.06C330.72 391.45 334.41 385.86 338.1 380.27C343.13 372.67 348.14 365.06 353.21 357.48C356.46 352.62 359.79 347.82 363.29 342.7C361.19 340.73 359.45 338.9 357.51 337.31C350.57 331.61 342.18 328.63 334.06 325.25C326.82 322.24 319.3 319.89 311.92 317.22C304.34 314.48 296.81 311.58 289.17 309.01C285.1 307.64 280.84 306.81 277.22 305.88C273.71 310.99 270.9 315.82 267.37 320.04C263.45 324.74 258.88 328.89 254.58 333.27C252.57 335.31 250.6 337.39 248.51 339.35C244.49 343.13 240.42 346.87 236.33 350.58C234.19 352.52 231.95 354.36 229.21 356.71C234.91 356.94 239.83 357.38 244.73 357.29C255.62 357.08 266.51 356.64 277.4 356.23C288.72 355.81 300.05 355.46 311.36 354.82C316.82 354.51 322.26 354.16 327.69 355C328.51 355.13 329.27 355.67 330.06 356.03C330.06 356.31 330.06 356.58 330.07 356.86C328.29 357.73 326.41 358.43 324.76 359.49C319.82 362.68 316.02 367.02 313.54 372.3C311.04 377.63 308.74 383.1 306.95 388.71C305.27 393.96 304.38 399.45 303.14 404.87L303.13 404.88ZM106.71 460.8C106.57 461.07 106.43 461.33 106.3 461.6C107.23 462.26 108.06 463.2 109.09 463.55C113.21 464.91 117.36 466.22 121.56 467.3C125.17 468.23 128.95 468.62 132.08 470.89C132.68 471.32 133.07 472.03 133.56 472.61C132.78 473 132 473.7 131.22 473.71C128.56 473.73 125.9 473.44 123.24 473.39C115.76 473.22 108.26 473.36 100.8 472.9C94.1898 472.49 87.5698 471.68 81.0298 470.6C76.1998 469.8 75.0701 467.05 77.0601 462.62C77.1301 462.45 76.9999 462.19 76.8799 461.56C71.0699 461.83 65.2098 462.27 59.3398 462.33C48.7798 462.44 38.5501 464.68 28.3301 466.92C23.4601 467.99 19.3198 470.68 15.3398 473.82C16.8898 474.28 18.4001 474.6 19.8701 474.47C22.4801 474.24 25.0699 473.36 27.6499 473.42C32.9299 473.54 38.21 474.05 43.48 474.51C51.7 475.23 59.9101 476.18 68.1401 476.77C77.3601 477.43 86.5901 477.89 95.8301 478.27C104.62 478.63 113.42 478.79 122.22 478.98C127.41 479.09 132.6 479.11 137.78 479.12C150.66 479.15 163.55 479.2 176.43 479.14C186.76 479.09 197.09 478.86 207.41 478.75C212.81 478.69 218.2 478.76 223.6 478.7C227.67 478.65 231.73 478.43 235.8 478.36C243.24 478.22 250.69 478.11 258.13 478.05C263.38 478.01 268.63 478.09 273.88 478.1C279.02 478.11 284.15 478.06 289.29 478.13C295.52 478.21 301.76 478.35 307.99 478.52C311.7 478.62 315.4 478.93 319.1 479C327.51 479.15 335.91 479.2 344.32 479.3C351.88 479.39 359.44 479.5 367 479.57C369.17 479.59 371.34 479.52 373.63 479.49C369.41 472.01 361.85 469.87 355.63 465.93C349 461.73 341.42 462.09 333.93 461.86C335.45 463.07 337.02 464.12 338.74 464.8C341.18 465.76 343.73 466.45 346.23 467.27C348.21 467.92 349.8 468.88 349.24 472.01C347.5 472.31 345.56 472.84 343.6 472.92C342.08 472.98 340.55 472.37 339.01 472.24C334.57 471.87 330.14 471.49 325.69 471.31C320.07 471.09 314.44 471.14 308.81 470.95C302.56 470.74 296.31 470.43 290.07 470.09C287.22 469.93 284.28 469.92 281.54 469.22C277.99 468.32 273.61 469.2 271.24 464.93C271.67 464.11 272.15 463.19 272.84 461.86C217.24 461.51 161.97 461.16 106.7 460.82L106.71 460.8ZM194.37 9.7399C194.72 15.1099 195.08 20.4799 195.42 25.8599C195.47 26.5599 195.59 27.2999 195.46 27.9699C194.01 35.3099 192.4 42.6099 191.1 49.9699C190.69 52.2799 190.85 54.7599 191.16 57.0999C191.32 58.2899 192.74 59.2899 192.98 60.4999C194.81 69.6799 196.91 78.8399 198.12 88.1099C199.49 98.6499 200.03 109.3 200.9 119.91C201 121.11 200.93 122.33 200.9 123.54C200.83 126.14 200.76 128.75 200.62 131.35C200.48 134.21 200.28 137.06 200.08 139.91C199.81 143.66 200.67 147.53 198.99 151.14C198.94 151.24 198.99 151.38 198.97 151.5C198.74 155.3 198.7 159.13 198.23 162.91C197.28 170.56 196.07 178.17 195.01 185.8C193.66 195.54 193.21 205.04 198.63 214.06C203.54 222.23 207.77 230.8 212.33 239.18C212.76 239.97 213.4 240.64 213.91 241.33C216.77 236.07 218.58 230.69 218.6 224.96C218.62 218.22 219.07 211.29 217.71 204.78C216.15 197.3 215.81 189.79 215.29 182.3C214.8 175.13 215.67 167.86 215.82 160.64C215.95 154.24 216.12 147.83 215.92 141.44C215.61 131.08 215.02 120.72 214.54 110.36C214.47 108.91 214.62 107.41 214.27 106.03C212.08 97.5199 209.85 89.0199 207.49 80.5599C206.03 75.3399 204.24 70.2099 202.78 64.9899C202.27 63.1699 201.71 61.0299 202.19 59.3199C203.4 54.9999 203.64 50.5599 203.49 46.2499C203.23 39.0399 202.45 31.7999 201.29 24.6799C200.4 19.2299 198.16 14.1199 194.37 9.74991V9.7399ZM443.64 351.93C442.59 353 441.89 353.79 441.12 354.5C436.05 359.19 430.85 363.74 425.95 368.6C423.69 370.85 421.5 373.47 420.19 376.33C417.37 382.51 416.67 389.32 415.45 395.95C414.18 402.83 413.11 409.75 411.7 416.61C410.3 423.42 408.76 430.15 408.37 437.16C408.16 440.87 408.37 445.22 404.57 448C404 448.42 404.19 449.87 404.03 450.84C403.91 450.71 403.78 450.59 403.66 450.46C400.77 453.29 397.88 456.12 394.49 459.44C401.13 459.44 406.91 459.45 412.69 459.44C419.41 459.42 426.13 459.28 432.85 459.39C437.63 459.46 441.63 459.19 443.74 457.68C438.77 457 433.81 456.32 428.84 455.63C428.86 455.39 428.89 455.16 428.91 454.92H438.71C433.35 452.12 427.86 450.07 422.45 447.81C420.98 447.2 419.53 446.15 418.51 444.93C416.13 442.06 415.64 438.74 416.48 435.04C418.34 426.82 422.57 419.64 426.18 412.18C432.56 399.01 441.14 387.17 449.14 375C456.6 363.65 464.62 352.68 469.58 339.62C456.47 333.1 443.35 326.58 430.19 320.03C425.09 331.61 416.73 340.44 408 349.7C410.47 349.37 412.34 348.97 414.23 348.88C420.61 348.58 427 348.58 433.36 348.08C437.3 347.77 440.26 349.26 443.63 351.94L443.64 351.93ZM312.31 366.73C310.13 365.51 308.65 365.76 306.75 367.48C302.22 371.6 297.25 375.24 292.52 379.16C285.84 384.69 279.16 390.21 272.61 395.88C268.46 399.47 264.67 403.48 260.49 407.03C255.28 411.45 249.78 415.54 245.04 420.49C244.71 420.84 244.29 421.1 243.91 421.4C238.38 425.59 232.75 429.65 227.36 434.02C224.3 436.51 221.39 439.15 217.56 440.35C215.72 440.92 214.7 442.25 214.99 443.79C215.31 445.51 216.88 446.45 218.85 446.37C222.1 446.24 225.35 446.22 228.6 446.12C240.52 445.77 252.44 445.39 264.36 445.07C270.97 444.9 277.59 444.84 284.08 444.73C284.98 442.51 285.76 440.62 286.52 438.72C290.04 429.87 293.28 420.96 295.5 411.65C299.23 396.05 303.53 380.61 312.3 366.73H312.31ZM230.8 453.91C225.04 451.95 219.87 450.34 214.82 448.41C211.28 447.06 210.43 444.51 212.39 441.2C213.73 438.95 215.34 436.71 217.3 435.02C221.57 431.36 226.11 428.01 230.59 424.6C235.19 421.1 239.92 417.77 244.44 414.17C248.57 410.88 252.44 407.26 256.54 403.94C261.08 400.26 265.8 396.79 270.36 393.14C280.53 385.01 290.66 376.83 300.79 368.66C302.13 367.58 303.42 366.44 304.94 365.16C299.98 363.33 295.49 361.67 290.99 360.03C290.55 359.87 290.03 359.85 289.55 359.88C282.68 360.29 275.81 360.67 268.96 361.22C267.97 361.3 266.81 362.1 266.16 362.91C263.24 366.55 260.53 370.36 257.64 374.03C256.01 376.09 254.32 378.13 252.42 379.93C246.42 385.62 240.19 391.05 234.27 396.83C226.27 404.65 221.1 414.43 217.03 424.61C213.63 433.1 207.92 439.43 201.46 445.42C198.17 448.47 194.97 451.62 191.73 454.73C191.86 455.01 191.99 455.29 192.13 455.57C204.91 456.1 217.6 454.62 230.79 453.91H230.8ZM322.55 185.05C322.96 183.91 323.36 183.28 323.4 182.63C323.98 172.9 325.23 163.2 324.4 153.43C324.26 151.78 323.65 150.16 323.54 148.51C323.13 142.04 323.07 135.55 322.43 129.11C321.78 122.53 320.86 115.96 319.58 109.47C318.13 102.16 316.24 94.9299 314.37 87.7099C312.6 80.8399 310.65 74.0199 308.7 67.1999C308.07 64.9999 307.21 62.9599 308.9 60.7799C309.51 59.9999 309.67 58.7399 309.74 57.6899C310.15 51.4699 310.75 45.2399 310.77 39.0099C310.8 30.3199 309.65 21.7599 305.65 13.8599C304.96 12.4899 303.96 11.2699 303.11 9.97992C302.84 10.0999 302.56 10.2299 302.29 10.3499C302.29 12.4799 302.07 14.6299 302.34 16.7199C302.73 19.6799 304.24 22.6899 303.92 25.5199C303.41 30.0299 301.9 34.4399 300.58 38.8299C299.52 42.3799 297.65 45.7599 297.02 49.3599C296.53 52.1999 296.61 55.6699 297.87 58.1399C299.22 60.7799 299.7 63.2899 299.84 66.0399C300.03 69.7599 299.94 73.4899 300.28 77.1899C301.03 85.4899 301.79 93.7999 302.88 102.06C304.16 111.72 305.83 121.29 304.85 131.15C303.96 140.13 303.82 149.19 303.34 158.22C303.19 161 303.93 163.44 305.72 165.62C308.48 168.98 311.07 172.49 313.91 175.79C316.57 178.88 319.47 181.76 322.55 185.05ZM357.66 359.31C363.79 359.93 369.14 360.51 374.5 361C375.66 361.11 377 361.25 377.99 360.8C382.8 358.6 387.79 356.63 392.23 353.79C399.29 349.28 406.1 344.37 411.32 337.58C414.82 333.03 418.76 328.81 422.44 324.4C424.01 322.52 425.43 320.52 427.15 318.28C423.73 316.94 420.4 315.58 417.03 314.32C411.38 312.21 405.7 310.2 400.05 308.09C395.76 306.48 391.53 304.7 387.23 303.13C384.41 302.1 383.3 302.66 382.01 305.28C381.43 306.46 380.96 307.72 380.22 308.8C377.64 312.56 374.79 316.15 372.37 320C368.82 325.65 364.07 329.96 358.53 333.39C360.14 334.81 361.79 336.22 363.4 337.67C367.76 341.63 367.87 342.52 364.68 347.43C364.42 347.83 364.1 348.21 363.86 348.62C361.83 352.11 359.81 355.6 357.67 359.3L357.66 359.31ZM435.54 448.95C444.46 452.53 452.92 455.9 461.34 459.35C462.08 459.65 462.59 460.53 463.2 461.14C462.31 461.57 461.43 462.34 460.51 462.38C457.54 462.52 454.55 462.33 451.57 462.38C439.53 462.56 427.5 462.81 415.46 462.96C410.03 463.03 404.61 462.85 399.18 462.91C396.29 462.94 393.4 463.3 390.51 463.33C389.83 463.33 389.14 462.63 388.45 462.25C388.8 461.71 389.09 461.11 389.52 460.64C392.25 457.64 395 454.68 398.4 450.99C367.59 449.13 337.77 446.34 307.61 446.02C308.32 447.38 309.05 448.68 310.15 449.39C314.71 452.28 319.35 455.06 324.05 457.71C325.58 458.57 327.36 459.3 329.08 459.46C333.76 459.9 338.49 460.33 343.17 460.15C350.1 459.88 355.96 462.1 361.34 466.26C362.29 467 364 467.02 365.34 466.96C368.1 466.84 370.85 466.22 373.61 466.21C382.26 466.17 390.9 466.31 399.55 466.38C404.09 466.42 408.64 466.63 413.18 466.5C421.73 466.27 430.27 465.66 438.81 465.56C447.7 465.45 456.6 465.75 465.5 465.86C473.91 465.97 482.32 466.03 490.74 466.18C492.9 466.22 495.06 466.48 497.22 466.64C497.31 466.38 497.39 466.12 497.48 465.86C496.59 464.91 495.85 463.75 494.8 463.06C489.98 459.87 485.12 456.74 480.18 453.76C478.36 452.66 476.34 451.51 474.29 451.23C469.28 450.53 464.21 450.3 459.16 449.94C457.25 449.8 455.32 449.84 453.4 449.76C447.61 449.51 441.83 449.25 435.53 448.97L435.54 448.95ZM236.28 182.74C239.58 180.51 239.53 180.57 242.25 183.03C244.75 185.31 247.22 187.68 249.99 189.6C253.09 191.75 256.5 193.44 260.32 195.65C260.87 189.49 261.56 184.12 261.78 178.74C262.23 167.41 261.68 156.1 260.2 144.86C259.43 139.03 258.79 133.08 257.03 127.52C253.61 116.69 247.47 107.2 240.76 98.0799C233.89 88.7499 227.36 79.2099 221.9 68.9499C219.39 64.2299 217.58 59.0699 213.79 55.0699C213.19 54.4399 212.97 53.3499 212.8 52.4299C211.38 44.7499 210.13 37.0299 208.59 29.3699C207.7 24.9199 205.9 20.7799 203.03 17.1699C203.75 21.0299 204.99 24.7799 205.48 28.6199C206.42 36.1199 207.55 43.6899 206.43 51.2599C205.69 56.2599 206.24 60.7299 209.47 64.7199C210.3 65.7499 211.03 66.8499 211.84 67.8899C213.69 70.2599 215.78 72.4799 217.37 75.0099C221.28 81.1899 224.63 87.6399 227.56 94.3899C230.54 101.25 232.91 108.21 234.52 115.44C235.2 118.51 236.45 120.01 239.74 120.67C243.57 121.43 247.88 122.53 250.06 126.05C253.09 130.92 255.45 136.22 257.82 141.46C258.71 143.44 258.54 145.7 256.43 147.63C254.91 146.14 253.52 144.77 251.54 142.84C252.11 145.14 252.82 146.62 252.78 148.09C252.68 152.16 252.79 156.35 251.86 160.27C250.42 166.34 247.28 171.4 240.77 173.5C238.57 174.21 236.02 179.53 236.27 182.73L236.28 182.74ZM325.32 115.05C329.02 113.14 332.84 111.17 337 109.02C332.61 98.9699 328.64 89.1899 324.09 79.6899C321.24 73.7399 317.51 68.2099 314.25 62.4599C313.57 61.2599 312.32 60.0799 313.23 57.9799C314.16 58.9899 314.87 59.6299 315.43 60.3799C323 70.5899 328.5 81.9599 333.8 93.4299C335.95 98.0799 338.08 102.74 340.08 107.09C342.77 106.68 344.94 106.35 347.81 105.92C347.27 109.71 346.84 112.74 346.43 115.66C350.6 112.57 354.8 109.46 359 106.34C356.86 103.11 354.63 99.6999 352.35 96.3099C348.58 90.7099 344.89 85.0499 340.98 79.5399C336.93 73.8399 333.03 67.9499 328.34 62.7999C325.52 59.6999 324.19 56.4799 323.69 52.6099C322.63 44.4299 320.5 36.5799 316.35 29.3699C315.2 27.3799 313.92 25.4599 312.7 23.5099C312.41 25.6799 312.83 27.5299 313.04 29.4099C313.82 36.5099 313.78 43.6299 312.99 50.7299C312.54 54.7999 312.09 58.9099 311.06 62.8499C310.56 64.7699 310.6 66.3199 311.22 68.0399C312.59 71.8799 314.14 75.6799 315.28 79.5899C318.69 91.2699 321.93 102.99 325.34 115.05H325.32ZM354.68 331.53C364.29 321.53 373.51 312.11 380.39 300.7C378.96 299.57 375.7 300.01 377.46 296.61C376.71 296.61 376.24 296.61 375.76 296.61C369.88 296.73 364.01 297.01 358.13 296.91C352.84 296.82 347.55 296.19 342.26 296.02C340.68 295.97 338.94 296.4 337.51 297.09C334.48 298.56 331.6 300.32 328.68 302.01C322.69 305.48 316.66 308.9 311.25 313.98C326.14 320 341.67 323.45 354.68 331.53ZM348.77 128.3C348.55 128.37 348.29 128.4 348.11 128.53C341.74 133.32 335.37 138.11 329.04 142.95C328.53 143.34 328.01 144.04 327.96 144.63C327.67 147.86 327.38 151.11 327.35 154.35C327.3 160.22 327.35 166.09 327.51 171.95C327.59 174.92 327.54 178.06 330.89 179.72C331.5 180.02 331.89 180.75 332.39 181.28C336.27 185.4 339.54 189.83 339.26 195.75C344.24 196.3 348.61 198.75 353.69 196.79C351.54 195.4 349.74 194.24 347.9 193.06C347.21 193.5 346.43 194 345.33 194.7C341.09 188.11 342.68 181.08 342.93 173.97C338.38 173.61 333.85 173.24 329.33 172.88C329.24 172.65 329.14 172.43 329.05 172.2C329.83 171.71 330.6 170.85 331.41 170.81C333.81 170.68 336.23 170.83 338.64 170.93C343.06 171.13 347.48 171.38 351.74 171.6C358.94 159.98 357.32 137.74 348.78 128.28L348.77 128.3ZM230.78 118.13C226.47 98.5199 218.5 80.7699 206.73 64.6599C207.7 68.3699 209.16 71.9099 210.23 75.5699C212.62 83.7499 214.94 91.9599 217.06 100.22C218.38 105.35 218.48 110.62 218.47 115.94C218.45 122.28 219.36 128.62 219.77 134.97C220.03 138.99 220.12 143.03 220.28 147.06C220.52 147.13 220.77 147.21 221.01 147.28C221.78 146.28 222.69 145.36 223.28 144.27C225.42 140.35 227.41 136.35 229.54 132.42C230.03 131.51 230.86 130.77 231.53 129.96C231.81 130.06 232.09 130.16 232.37 130.26C233.36 134.85 234.36 139.43 235.4 144.24C238.3 140.38 236.44 135.11 239.71 130.87C244.53 134.14 249.12 137.25 254.08 140.62C253.4 138.84 252.87 137.29 252.24 135.79C249.93 130.32 246.3 126.17 240.45 124.39C236.67 123.24 232.89 122.1 229.05 121.2C226.99 120.71 224.8 120.59 222.67 120.59C221.22 120.59 220.1 120.47 219.42 118.74C223.02 116.49 226.78 119.11 230.81 118.14L230.78 118.13ZM321.09 463.04C321.19 462.93 321.29 462.83 321.38 462.72C320.54 462.28 319.68 461.89 318.86 461.4C313.92 458.46 308.69 455.98 304.44 451.95C297.83 445.69 298.45 435.81 303.44 429.68C307.35 424.86 311.35 420.11 315.21 415.24C316.03 414.2 316.38 412.79 317.22 410.97H302.22C299.73 420.57 299.21 430.82 294.57 439.83C289.95 448.8 283.78 456.79 276.54 464.17C291.51 466.52 306.08 465 320.65 464.79C319.09 464.23 317.53 463.66 315.97 463.1C316.04 462.86 316.11 462.62 316.19 462.37C317.83 462.59 319.46 462.81 321.1 463.03L321.09 463.04ZM220.14 169.12C221.66 168.93 222.95 168.61 224.22 168.65C229 168.79 233.8 168.79 238.53 169.33C242.01 169.73 244.6 168.38 246.39 165.93C248.05 163.66 249.26 160.9 250.03 158.18C251.47 153.12 251.33 148.04 249.64 142.92C248.28 138.82 244.17 135.5 239.67 136.02C239.38 137.27 239.07 138.64 238.73 140.01C238.27 141.86 238.02 143.82 237.23 145.53C236.75 146.56 235.42 147.19 234.47 148C233.89 147.02 233.04 146.11 232.77 145.05C232.08 142.32 231.64 139.53 231.04 136.44C230.34 136.98 230.01 137.13 229.82 137.39C226.96 141.42 224.1 145.44 221.3 149.51C220.78 150.27 220.19 151.19 220.18 152.05C220.08 157.7 220.13 163.35 220.13 169.12H220.14ZM327.9 141.82C329.65 140.66 331.13 139.84 332.42 138.78C337.36 134.73 342.21 130.58 347.16 126.54C348.07 125.8 349.26 125.39 350.44 124.76C350.97 125.96 351.22 126.63 351.55 127.26C351.88 127.89 352.28 128.47 352.66 129.08C353.11 125.02 353.53 124.64 357.17 125.09C357.77 125.16 358.37 125.35 358.96 125.32C360.43 125.24 361.9 125.06 363.42 124.91C363.26 118.63 360.17 114.27 357.38 109.59C356.58 110.01 356.11 110.15 355.77 110.45C352.21 113.67 348.63 116.87 345.15 120.18C344.08 121.2 343.17 122.22 341.34 121.62C342.7 117.04 344.01 112.61 345.47 107.67C341.22 108.38 338.61 110.91 335.32 111.96C331.82 113.08 328.6 115.09 325.25 116.72C326.13 125.01 326.99 133.25 327.9 141.84V141.82ZM364.41 184.25C364.84 179.8 365.25 175.6 365.66 171.41C365.7 171.05 365.74 170.69 365.76 170.33C366.34 161.44 367.15 152.56 367.43 143.67C367.66 136.5 367.31 129.31 367.07 122.13C367.02 120.69 366.29 119.28 365.65 117.09C365.39 120.47 365.69 123.06 364.89 125.25C363.74 128.39 360.17 126.67 357.5 127.86C358.54 130.42 358.92 132.96 356.81 135.21C356.56 135.47 356.89 136.35 357.05 136.91C357.93 140.02 359.04 143.09 359.71 146.24C361.25 153.57 361.21 160.93 358.07 167.84C356.73 170.78 356.11 174.84 351.11 174.84C355.93 178.25 360.25 181.3 364.41 184.25ZM120.68 469.21C117.73 468.63 114.78 468.1 111.84 467.47C107.32 466.5 103.08 464.88 99.3799 462.01C98.2799 461.16 97.0901 460.37 95.8301 459.76C93.8701 458.81 93.33 457.72 94.29 455.75C94.71 454.89 95.2199 454.02 95.8799 453.35C97.9899 451.22 100.08 449.07 102.37 447.14C105.41 444.59 108.64 442.27 111.74 439.8C114.15 437.88 116.49 435.88 118.7 434.03C115.54 433.83 112.55 433.7 109.58 433.41C108.07 433.26 106.78 433.18 105.66 434.53C103.33 437.36 101.5 440.73 97.8701 442.26C92.4401 449.49 86.9899 456.69 81.6299 463.97C80.9899 464.84 80.8698 466.1 80.5298 467.13C86.0798 469.66 112.89 471.29 120.67 469.2L120.68 469.21ZM189.97 193.34C190.29 191.12 190.55 189.28 190.81 187.44C191.62 181.55 192.62 175.68 193.17 169.77C193.65 164.58 195.44 159.43 193.93 154.08C193.55 154.14 193.16 154.1 192.86 154.26C186.2 157.76 180.81 162.61 177.07 169.18C176.01 171.05 174.65 173.02 174.44 175.05C173.87 180.54 174.91 185.83 178.15 190.49C178.58 191.11 179.27 191.55 180.16 192.37C180.25 191.38 180.37 190.91 180.31 190.47C179.93 187.26 179.41 184.06 179.13 180.84C178.93 178.44 179.44 176.28 182.6 175.41C183.08 176.32 183.73 177.18 184.01 178.15C184.53 180.01 185.02 181.91 185.21 183.82C185.57 187.48 187.1 190.49 189.98 193.35L189.97 193.34ZM283.53 447.82H223.71C223.68 448.15 223.66 448.49 223.63 448.82C234.43 451.15 245.62 451.5 256.27 454.9C255.68 455.41 255.08 455.79 254.46 455.81C248.46 456.02 242.46 456.13 236.47 456.34C230.15 456.56 223.83 456.86 217.5 457.13L217.53 457.9H276.25C278.53 454.74 280.98 451.33 283.52 447.81L283.53 447.82ZM219.69 188.9C221.87 187.5 223.29 189.01 224.87 190.31C229.43 194.07 234.02 197.78 238.66 201.43C241.11 203.36 243.93 204.53 247.53 204.99C244.86 197.02 241.32 190.07 235.78 184.07C236.15 185.47 236.52 186.88 236.88 188.26C233.73 189.49 232.2 188.86 231.97 185.99C231.82 184.12 232.05 182.14 232.52 180.32C233.04 178.31 234.02 176.41 234.82 174.4C229.7 173.87 224.88 173.38 219.68 172.84V188.89L219.69 188.9ZM188.2 451.74C186.09 451.74 184.07 451.73 182.04 451.74C172.42 451.82 162.79 452.17 153.17 451.92C145.2 451.71 138.58 455.7 131.38 457.91C131.23 457.96 131.16 458.28 130.84 458.88H184.27C185.86 455.98 187 453.9 188.19 451.74H188.2ZM372.64 197.77C366.04 192.41 359.76 187.17 353.33 182.13C350.79 180.14 348.23 178.34 347.95 174.67C347.7 174.72 347.45 174.77 347.2 174.82C346.89 177.35 346.58 179.88 346.29 182.19C356.99 186.26 363.72 194.48 370.3 203.31C371.19 201.21 371.83 199.68 372.64 197.78V197.77ZM297.75 359.52C297.72 359.88 297.69 360.24 297.66 360.59C303.21 361.71 308.77 362.83 314.41 363.96C316.16 362.42 317.9 360.89 319.46 359.51H297.75V359.52ZM328.32 182.15C327.37 184.19 326.58 185.89 325.7 187.78C328.3 189.97 330.84 192.54 335.76 192.29C333 188.53 330.62 185.28 328.32 182.14V182.15Z" fill="black"/>
<path d="M333.8 157.57C336.65 158.43 339.49 159.28 342.34 160.14C342.23 160.51 342.13 160.88 342.02 161.26C338.82 161.84 336.29 159.86 333.53 158.77C333.62 158.37 333.71 157.97 333.8 157.57Z" fill="black"/>
<path d="M343.82 156C345.94 153.87 348.52 153.26 351.98 153.77C349.4 156.23 346.68 156.29 343.82 156Z" fill="black"/>
<path d="M237.16 164.27C233.06 165.36 229.42 164.02 227.39 160.81C231.13 160.69 233.85 162.22 237.16 164.27Z" fill="black"/>
<path d="M241.76 152.28C240.4 153.15 239.05 154.02 237.69 154.89L237.17 154.08C238.51 153.19 239.86 152.3 241.2 151.41C241.39 151.7 241.57 151.99 241.76 152.28Z" fill="black"/>
</svg>
