<svg width="96" height="95" viewBox="0 0 96 95" fill="none" xmlns="http://www.w3.org/2000/svg">
<path d="M94.8499 49.6301C95.3799 42.8901 94.5696 37.0601 92.2996 31.3101C87.0196 17.9101 78.6099 9.17012 66.5999 4.58012C61.6099 2.67012 55.7298 0.660082 49.2698 0.980082C48.1198 1.04008 46.8797 1.01009 45.6697 0.990092C43.0797 0.940092 40.4096 0.900099 37.7796 1.5601C25.0696 4.7701 15.4898 11.2901 8.49982 21.5001C1.90982 31.1301 -0.610165 42.1501 1.01983 54.2501C3.56983 73.1401 19.8698 89.9301 38.9398 93.3101C42.3398 93.9101 45.6997 94.2201 48.9197 94.2201C61.9497 94.2201 73.39 89.3001 82.93 79.6101C86.25 76.2401 89.1499 73.0901 91.0599 68.8101C93.7599 62.7501 96.0797 56.2401 94.8397 49.6301H94.8499Z" fill="white"/>
<path d="M41.0598 5.67017C41.5098 8.18017 43.0098 8.29016 44.8298 8.66016C48.5598 9.43016 51.82 8.41016 55.2 7.29016C56.26 6.94016 57.5897 6.86017 58.6497 7.17017C67.0197 9.65017 74.4496 13.7302 80.1296 20.5202C80.8096 21.3302 81.2698 22.5702 81.3098 23.6302C81.4198 26.9302 81.2797 30.2402 81.2297 33.7402C80.6397 33.9302 79.9496 34.1502 78.3196 34.6602C80.8396 34.7902 82.4396 34.8702 84.1296 34.9502C86.1396 38.7402 87.4896 42.9502 90.6296 46.1102C90.6196 48.9802 91.06 51.9502 90.49 54.7102C89.72 58.4202 88.1799 61.9702 86.9299 65.5702C86.5399 66.6902 86.5396 68.0202 84.8396 68.3902C82.8596 68.8202 83.0798 66.7702 82.0798 66.3202C77.2998 66.7902 73.3598 70.6302 68.0398 69.6102C68.3098 72.5602 66.0099 74.3702 64.0999 76.4502C61.9899 78.7602 59.9698 81.1502 57.7898 83.6302C60.3765 84.5302 61.8631 85.8102 62.2498 87.4702C59.9198 87.7402 57.6396 87.9902 55.3596 88.2802C54.0796 88.4402 52.8095 88.6802 51.5295 88.8602C50.8895 88.9502 50.1999 89.1802 49.5999 89.0402C44.6099 87.8702 39.2596 88.3302 34.5696 85.8402C33.9996 85.5302 33.6799 84.7402 32.8899 83.7102C34.8099 83.5602 35.9696 83.4702 37.5496 83.3402C33.9496 79.2002 30.5796 75.2102 27.0496 71.3602C26.3496 70.6002 25.0698 70.3002 23.9998 69.9802C21.0598 69.1102 18.0497 68.4602 15.1497 67.4802C13.3297 66.8702 11.6899 65.9202 10.9299 63.8002C9.00993 58.4502 7.34991 53.0702 7.15991 47.3302C7.10991 45.8802 7.31966 44.8102 8.64966 43.7702C9.61966 43.0102 9.82997 41.3102 10.47 40.0802C11.7 37.6802 13.04 35.3402 14.24 32.9202C14.68 32.0402 15.0296 31.0402 15.1096 30.0602C15.2496 28.4802 15.3196 26.8602 15.1096 25.2902C14.7596 22.5902 15.6495 20.2902 17.5295 18.6102C21.0695 15.4302 24.5295 12.0302 29.0295 10.1602C32.7795 8.61016 36.6298 7.30016 41.0598 5.66016V5.67017ZM37.4397 54.6802C41.4697 54.9602 45.8798 55.3402 50.3098 55.5602C53.7398 55.7302 57.4098 54.7402 60.3098 58.0902C58.1298 55.4102 58.9798 53.0902 60.2898 50.6302C62.7198 46.0502 65.3697 41.5502 66.7097 36.2102H71.45C70.13 35.6502 68.7898 35.4802 67.5198 35.6902C64.7398 36.1502 62.6397 34.8102 60.9197 33.0802C58.3297 30.4802 55.0597 28.9402 52.1697 26.8102C48.9597 24.4402 48.8695 24.5702 48.5095 20.2802C48.5095 20.1802 48.26 20.1102 47.74 19.7802C48.59 23.6902 46.2798 25.2102 43.5598 26.7902C38.9198 29.4802 34.0898 32.0502 31.5798 36.2802C33.5698 42.5302 35.4099 48.3202 37.4299 54.6702L37.4397 54.6802Z" fill="white"/>
<path d="M92.3299 49.7702C93.5699 55.7002 91.4899 61.7401 88.7899 67.7901C86.9899 71.8201 84.1 74.8701 81.16 77.8601C69.6 89.6101 55.46 93.6901 39.39 90.8501C20.59 87.5301 5.80962 70.9901 3.50962 53.9201C2.01962 42.8401 4.04968 32.4401 10.5697 22.9101C17.4497 12.8601 26.8998 6.88012 38.3998 3.98012C41.8898 3.10012 45.7198 3.65011 49.3998 3.47011C55.1498 3.19011 60.4601 4.90011 65.7201 6.91011C77.8001 11.5201 85.3401 20.4401 89.9901 32.2201C92.1301 37.6501 92.8997 43.2001 92.3397 49.7601L92.3299 49.7702ZM67.3797 71.1201C64.7297 67.0901 62.2998 63.1801 59.6498 59.4401C58.3498 57.6101 56.6196 56.4701 54.0096 56.4401C48.6496 56.3801 43.2901 55.8501 37.9501 55.5101C34.5201 60.8401 31.2898 65.8802 28.2298 70.6402C30.9498 74.0302 33.3398 77.0201 35.7298 80.0001C37.0998 81.7101 38.6899 82.8101 41.0799 82.8001C45.2699 82.7901 49.47 83.2001 53.66 83.1001C55.2 83.0601 57.1198 82.4701 58.1698 81.4301C61.4198 78.1801 64.3197 74.6001 67.3797 71.1201ZM26.8397 70.0802C29.8297 64.7202 32.81 59.4801 35.66 54.1701C36.04 53.4601 35.9899 52.3301 35.7499 51.5101C34.5999 47.7401 33.2297 44.0401 32.0897 40.2601C31.3597 37.8501 29.7899 36.4202 27.4999 35.7802C24.3299 34.9002 21.1098 34.1901 17.9198 33.3801C16.1398 32.9301 14.8797 33.3401 14.1097 35.1701C12.9297 37.9601 12.08 41.0901 10.2 43.3201C7.90005 46.0401 7.87991 48.6701 8.55991 51.7001C9.19991 54.5301 9.77962 57.3701 10.5096 60.1701C11.5196 64.0601 13.8898 66.5501 17.9398 67.4701C20.8698 68.1401 23.73 69.1401 26.87 70.0701L26.8397 70.0802ZM68.0897 37.1401C65.4697 42.3401 63.0999 47.1902 60.5799 51.9602C59.6599 53.7102 59.7198 55.0201 60.9198 56.6601C63.4798 60.1601 65.7898 63.8402 68.1898 67.4602C69.2898 69.1102 70.4601 69.6901 72.4701 68.6101C74.5301 67.5101 76.8897 66.9601 79.0697 66.0601C81.2997 65.1501 83.2797 65.1301 85.0897 68.1301C86.9997 62.3301 88.8698 57.4001 90.1698 52.3201C90.7498 50.0501 90.9098 47.4001 88.4598 45.4801C87.4998 44.7301 87.1099 43.2401 86.4999 42.0701C85.3399 39.8701 84.2097 37.6502 83.0497 35.3902C77.8297 36.0002 72.8797 36.5701 68.0897 37.1301V37.1401ZM80.3299 33.4201C80.3299 30.7101 80.2097 28.5402 80.3597 26.3902C80.5697 23.3402 79.6799 21.0001 77.3299 18.8501C73.2799 15.1601 68.88 12.0201 63.91 9.88014C61.53 8.86014 59.1297 6.92013 56.1097 8.06013C54.6397 8.62013 53.1099 9.10016 51.5599 9.34016C49.8899 9.59016 49.35 10.4401 49.37 12.0101C49.42 15.8401 49.3797 19.6601 49.3797 23.2401C53.8097 26.5301 58.0998 29.5902 62.2298 32.8302C64.4598 34.5802 66.8297 35.3201 69.5897 34.9401C73.2297 34.4401 76.8597 33.9001 80.3397 33.4101L80.3299 33.4201ZM40.1698 7.91011C39.9898 7.51011 39.82 7.11016 39.64 6.71016C35.06 8.88016 30.3698 10.8402 25.9398 13.2802C23.3198 14.7302 20.9799 16.7801 18.7499 18.8201C14.9599 22.2901 15.5897 26.8201 16.0697 31.3902C21.0397 32.8102 25.9398 34.2001 30.4598 35.4901C32.8498 33.3601 34.7901 31.3701 36.9901 29.7401C39.2001 28.0901 41.6497 26.7501 44.0497 25.3701C45.6897 24.4201 47.3197 23.4302 47.3797 21.3302C47.4797 17.6602 47.41 13.9901 47.41 10.2301C45 9.46012 42.5898 8.69012 40.1898 7.92012L40.1698 7.91011ZM34.7201 84.3601C42.0701 88.5501 54.2299 89.2602 60.5399 85.6402C52.0099 83.8002 43.3201 84.8301 34.7201 84.3601Z" fill="black"/>
</svg>
