<svg width="83" height="112" viewBox="0 0 83 112" fill="none" xmlns="http://www.w3.org/2000/svg">
<path d="M82.0401 106.92C81.8401 94.09 81.8599 81.0299 81.8799 68.3199C81.9099 46.8899 81.9399 24.7199 80.9199 2.79993L80.8198 0.539948L78.5601 0.419952C77.9601 0.389952 77.4199 0.349946 76.9199 0.319946C75.8799 0.249946 74.98 0.189941 74.02 0.189941C57.03 0.189941 40.0301 0.219939 23.0401 0.249939C18.1301 0.249939 13.2098 0.289946 8.29982 0.319946C7.32982 0.319946 4.71012 0.339944 3.35012 2.37994L2.06984 2.35992L1.99025 3.88995C0.970253 5.04995 1.0098 6.63993 1.0298 7.32993C1.0498 8.19993 1.10016 9.07995 1.14016 10.0099C1.21016 11.4499 1.28978 12.9399 1.25978 14.3599C1.16978 18.5599 1.06021 22.7599 0.950214 26.9599C0.780214 33.1999 0.609804 39.6499 0.529804 46.0499C0.449804 52.5999 0.499824 59.2399 0.549824 65.6599C0.569824 68.6199 0.590117 71.5799 0.600117 74.5499L0.68996 105.11C0.68996 106.91 1.27014 108.44 2.37014 109.51C3.41014 110.53 4.82004 111.08 6.52004 111.08L10.52 111.04C14.07 111 17.6102 110.97 21.1602 110.97C27.1602 110.97 33.1499 110.97 39.1499 110.97C48.2699 110.97 57.4 110.97 66.52 110.97C67.49 110.97 68.3799 110.73 69.0899 110.54C69.2999 110.48 69.52 110.42 69.73 110.38C70.21 110.27 70.7002 110.14 71.1802 110C72.0302 109.77 72.7602 109.56 73.4502 109.51C74.6902 109.41 75.9901 109.43 77.3701 109.45C78.0601 109.46 78.7798 109.47 79.5498 109.47H82.0899L82.0498 106.93L82.0401 106.92Z" fill="white"/>
<path d="M76.72 104.06C72.65 103.52 68.95 105.02 64.99 104.5C61.08 103.99 56.9799 104.89 53.0999 104.28C49.1099 103.66 45.3198 105.1 41.5198 104.67C37.7298 104.24 33.84 105.99 30.18 104.05C26.31 105.22 22.3497 104.38 18.4397 104.53C14.3797 104.68 10.32 104.56 5.94998 104.56V100.59C5.94998 74.4399 6.03966 48.2799 5.87966 22.1299C5.84966 16.8199 4.8799 11.5199 4.3699 6.20987C4.3199 5.70987 4.40996 5.18988 4.42996 4.87988C11.63 4.95988 18.6798 5.06986 25.7298 5.10986C32.7698 5.14986 39.8296 4.80989 46.8396 5.22989C51.0896 5.48989 55.2698 5.18988 59.4798 5.12988C64.1298 5.05988 68.78 5.10986 73.43 5.10986C74.74 5.10986 76.0398 5.10986 77.7498 5.10986V8.34988C77.7498 19.3699 77.9397 30.3899 77.6497 41.3999C77.5497 45.4199 78.3299 49.4699 77.0799 53.5399C76.5199 55.3599 77.4196 57.6199 77.5896 59.6899C77.6396 60.2999 77.5897 60.9599 77.4197 61.5499C76.6997 64.1299 76.6095 66.6599 77.5095 69.2499C77.8395 70.2099 77.7698 71.3299 77.7298 72.3799C77.5498 76.3399 77.5597 80.2899 77.6297 84.2599C77.7297 90.6699 77.08 97.0999 76.72 104.04V104.06ZM11.4798 51.5899C11.0898 51.5599 10.6897 51.5299 10.1297 51.4899C9.37966 57.0899 10.4699 62.2899 13.1199 67.1999C15.0199 67.2999 15.03 69.0199 15.72 70.1799C19.93 77.2599 25.46 82.4399 33.93 84.2299C37.65 85.0199 41.2697 84.6799 44.9197 84.8099C48.6597 84.9399 51.9197 83.5999 55.3797 81.9499C60.0997 79.6999 63.5898 76.2299 66.2498 72.3699C69.7798 67.2499 72.6599 61.4199 72.1399 54.6899C72.0899 54.0099 72.5098 53.2999 72.5398 53.1899C71.6698 52.0499 70.8199 51.3999 70.6399 50.6099C70.1899 48.5899 70.3897 46.3699 69.6897 44.4699C68.3497 40.8299 66.8299 37.1299 63.5999 34.6899C60.8699 32.6399 57.9798 30.7499 54.9998 29.0799C50.6098 26.6299 45.6998 25.9499 40.7498 25.8999C38.2898 25.8799 35.8299 26.3599 33.3699 26.6499C32.7299 26.7199 32.08 26.8499 31.47 27.0499C24.62 29.3499 19.4398 33.6299 16.0398 40.0399C14.0798 43.7199 12.8398 47.6599 11.4798 51.5699V51.5899ZM47.2698 11.2599C48.2098 13.1699 48.8398 14.4399 49.4798 15.7399C50.3198 13.3999 53.9 14.3599 54.43 11.6199C52.11 9.24987 49.9898 12.2199 47.2698 11.2499V11.2599ZM27.6199 91.9099C26.2699 96.5499 26.7499 97.0699 31.1199 96.3599C30.0099 94.9399 29.0599 93.7299 27.6199 91.9099ZM46.1096 98.0199C43.2896 97.0199 41.8196 99.4299 39.7796 99.8799C41.8596 99.7899 44.1496 100.72 46.1096 98.0199ZM62.9798 16.4299C65.8098 16.0799 67.87 16.7099 69.72 15.3999C67.63 14.8599 65.5098 13.8199 62.9798 16.4299ZM58.0799 97.6499C55.9199 98.0299 53.9298 96.7299 52.3098 98.9499C54.2598 99.0999 56.0299 100.01 58.0799 97.6499Z" fill="white"/>
<path d="M11.48 51.5898C12.83 47.6798 14.08 43.7298 16.04 40.0598C19.45 33.6598 24.6202 29.3698 31.4702 27.0698C32.0802 26.8698 32.7301 26.7398 33.3701 26.6698C35.8301 26.3798 38.29 25.8998 40.75 25.9198C45.7 25.9698 50.6 26.6398 55 29.0998C57.98 30.7698 60.8701 32.6498 63.6001 34.7098C66.8301 37.1398 68.3499 40.8498 69.6899 44.4898C70.3899 46.3898 70.1901 48.6098 70.6401 50.6298C70.8201 51.4198 71.67 52.0698 72.54 53.2098C72.51 53.3198 72.0901 54.0298 72.1401 54.7098C72.6601 61.4298 69.78 67.2598 66.25 72.3898C63.59 76.2398 60.0999 79.7198 55.3799 81.9698C51.9099 83.6198 48.6499 84.9698 44.9199 84.8298C41.2599 84.6998 37.6502 85.0398 33.9302 84.2498C25.4502 82.4598 19.9302 77.2798 15.7202 70.1998C15.0302 69.0398 15.0301 67.3098 13.1201 67.2198C12.8301 63.4698 12.5802 59.7198 12.2402 55.9698C12.1002 54.5098 11.7402 53.0598 11.4902 51.6098L11.48 51.5898ZM58.5 40.6898C56.14 43.3398 53.9401 45.7398 51.8301 48.2098C47.6001 53.1798 43.4502 58.2098 39.2202 63.1698C36.6202 66.2198 33.8798 69.1498 31.2598 72.1898C30.1598 73.4698 30.5601 74.6798 32.0601 75.5598C36.3801 78.0798 41.35 78.6798 45.75 77.4498C51.32 75.8898 56.59 73.0298 60.27 67.9898C65.22 61.2198 66.3498 48.5798 58.5098 40.6898H58.5ZM24 68.8998C25.44 67.4398 26.7998 66.3198 27.8198 64.9598C33.5298 57.2998 39.7901 50.1298 46.3901 43.2198C48.5201 40.9898 50.3802 38.4898 52.4102 36.0598C47.1002 33.7298 42.0098 31.3598 36.3398 33.1098C30.8998 34.7798 26.0899 37.6198 23.1099 42.6798C17.8499 51.6498 16.3298 59.2398 24.0098 68.9098L24 68.8998Z" fill="#D93933"/>
<path d="M11.4798 51.5898C11.7398 53.0398 12.0998 54.4898 12.2298 55.9498C12.5798 59.6898 12.8297 63.4498 13.1097 67.1998C10.4597 62.2798 9.35992 57.0797 10.1199 51.4897C10.6899 51.5297 11.08 51.5598 11.47 51.5898H11.4798Z" fill="#0E0E0E"/>
<path d="M47.27 11.2599C49.99 12.2199 52.1102 9.25993 54.4302 11.6299C53.8902 14.3699 50.32 13.4099 49.48 15.7499C48.84 14.4499 48.21 13.1799 47.27 11.2699V11.2599Z" fill="#111111"/>
<path d="M27.6202 91.9099C29.0602 93.7399 30.0102 94.9499 31.1202 96.3599C26.7502 97.0599 26.2702 96.5399 27.6202 91.9099Z" fill="#838383"/>
<path d="M46.1099 98.0199C44.1499 100.72 41.8598 99.7899 39.7798 99.8799C41.8198 99.4199 43.2899 97.0099 46.1099 98.0199Z" fill="#929292"/>
<path d="M58.0801 97.6498C56.0301 100.01 54.2601 99.1098 52.3101 98.9498C53.9301 96.7198 55.9201 98.0198 58.0801 97.6498Z" fill="#2F2F2F"/>
<path d="M58.4999 40.6899C66.3399 48.5799 65.2097 61.2099 60.2597 67.9899C56.5797 73.0199 51.3102 75.89 45.7402 77.45C41.3402 78.68 36.3697 78.0799 32.0497 75.5599C30.5497 74.6899 30.1499 73.4699 31.2499 72.1899C33.8699 69.1499 36.5999 66.22 39.2099 63.17C43.4499 58.21 47.5997 53.1799 51.8197 48.2099C53.9297 45.7299 56.1402 43.3399 58.4902 40.6899H58.4999Z" fill="white"/>
<path d="M24.0001 68.8999C16.3201 59.2299 17.8402 51.6399 23.1002 42.6699C26.0702 37.6099 30.8901 34.7699 36.3301 33.0999C42.0101 31.3599 47.1 33.7299 52.4 36.0499C50.37 38.4799 48.5099 40.9799 46.3799 43.2099C39.7899 50.1199 33.5301 57.2899 27.8101 64.9499C26.7901 66.3199 25.4303 67.4299 23.9903 68.8899L24.0001 68.8999Z" fill="white"/>
<path d="M5.00991 5.25995C5.05991 3.02995 6.62021 2.82995 8.31021 2.81995C13.2202 2.78995 18.1302 2.75994 23.0402 2.74994C40.0302 2.71994 57.0202 2.69994 74.0202 2.68994C75.3202 2.68994 76.6203 2.81995 78.4303 2.91995C80.0503 37.73 79.0102 72.3399 79.5402 106.96C77.1302 106.96 75.1704 106.84 73.2404 107C71.8704 107.11 70.5201 107.61 69.1701 107.93C68.2901 108.13 67.3999 108.46 66.5099 108.47C51.3899 108.5 36.2701 108.47 21.1501 108.47C16.2601 108.47 11.3804 108.54 6.49038 108.58C4.42038 108.6 3.19009 107.31 3.19009 105.1C3.16009 94.9099 3.13025 84.7299 3.10025 74.5399C3.07025 65.0499 2.91993 55.5599 3.02993 46.0799C3.15993 35.5199 3.54991 24.9699 3.75991 14.4099C3.80991 12.0299 3.58993 9.63995 3.52993 7.25995C3.49993 6.15995 3.52027 5.03993 5.12027 5.14993C5.63027 10.4099 6.53023 15.6699 6.58023 20.9299C6.80023 44.0799 6.76997 67.23 6.81997 90.39C6.82997 94.85 6.81997 99.3099 6.81997 103.56H76.59V6.13995C73.87 6.13995 71.37 6.13995 68.86 6.13995C56.69 6.11995 44.51 6.19993 32.34 6.04993C23.23 5.93993 14.1199 5.52994 5.00991 5.24994V5.25995Z" fill="black"/>
<path d="M43.5899 87.15C45.4799 87.59 47.3701 88.02 49.5201 88.52C47.3801 92.54 42.8601 90.43 39.3501 92.96C41.9701 92.62 43.7002 92.4 45.6202 92.16C45.3702 95.94 41.8299 94.65 40.1299 96.37C42.0299 98.55 44.5901 95.77 46.6001 97.3C46.6501 97.51 46.9301 97.96 46.8101 98.22C45.8801 100.18 42.3202 101.82 40.1602 101.15C38.0102 100.49 37.0799 98.92 37.0899 96.61C37.1099 93.08 36.4002 89.37 41.1802 87.26C38.5402 86.68 36.5203 86.19 34.4903 85.79C19.3903 82.84 8.6598 68.81 9.2598 53.8C9.7598 41.42 18.2102 30.02 29.3702 25.73C34.6902 23.68 39.7199 22.01 45.3999 22.66C53.4599 23.58 60.2301 26.69 65.2701 33.38C68.8001 38.06 72.0901 42.8 73.2701 48.62C76.5101 64.68 66.27 83.91 45.48 86.54C44.87 86.62 44.2499 86.67 43.6299 86.74C43.6099 86.88 43.6001 87.02 43.5801 87.16L43.5899 87.15ZM70.5201 56.77C69.8701 47.77 68.5 39.38 60.23 33.4C52.39 27.73 44.1098 26.55 34.7998 27.25C25.5998 27.94 12.04 40.35 12.92 56.77C13.69 71.14 24.9702 84.87 43.1402 84.42C58.6002 84.04 71.3701 68.49 70.5201 56.77Z" fill="black"/>
<path d="M19.6 22.7099C19.03 19.9699 17.0902 19.2499 15.4902 18.1599C14.4302 17.4399 13.1498 16.6599 12.6498 15.5999C12.2298 14.7099 12.3697 12.8599 13.0097 12.3099C14.2097 11.2799 16.1101 10.1299 17.4301 10.4099C19.4701 10.8399 18.9 12.4599 17.35 13.8099C16.44 13.2299 15.5199 12.6399 14.4999 11.9899C13.3199 14.1399 14.4501 14.9599 15.9301 15.8899C18.0001 17.1899 19.9098 18.7399 21.8998 20.1999C22.7798 17.6199 23.81 14.5899 25.1 10.8099C26.46 12.4199 27.1798 13.2599 27.8598 14.0699C28.6198 13.0999 29.4 12.0899 30.54 10.6299C31.55 12.5999 32.0999 13.6599 32.7499 14.9399C33.1799 14.2099 33.56 13.6699 33.83 13.0899C35.41 9.58989 37.5801 8.5899 40.9301 9.8499C42.7201 10.5199 43.8701 14.0399 42.6801 16.0699C41.7001 17.7399 40.5199 19.4999 38.9799 20.5799C37.4299 21.6699 35.55 21.1699 33.81 20.0199C33.22 19.6299 31.7999 20.4999 30.4799 20.8799C30.2599 19.2799 30.0497 17.7699 29.7997 15.9199C28.1897 17.0599 27.4599 20.0899 24.7099 17.9499C23.8899 23.0799 19.4598 24.3399 15.8598 26.3199C15.0998 26.7399 13.3898 25.8799 12.3798 25.2099C11.9498 24.9299 11.8399 23.1999 12.2299 22.8699C13.0099 22.1999 14.2199 21.7399 15.2499 21.7299C16.4999 21.7299 17.7498 22.2799 19.5698 22.7399L19.6 22.7099ZM39.4301 13.2999C37.1601 13.0599 36.4499 14.2999 36.4999 16.0699C36.5099 16.4199 37.5299 17.1099 37.9599 17.0199C40.2399 16.5599 39.6801 14.9099 39.4301 13.2899V13.2999Z" fill="black"/>
<path d="M61.96 13.4C64.78 15.77 70.0498 11.69 72.0498 17.04C68.7298 17.28 65.5 17.52 62.27 17.76C62.27 18.03 62.26 18.29 62.25 18.56C64.87 19.3 68.2002 17.72 70.1802 21.36C66.9102 22.88 63.42 22.7 59.25 22.18C59.25 19.44 59.1798 16.84 59.2798 14.24C59.3398 12.54 59.4602 10.96 61.7002 10.27C64.3902 9.44001 66.9501 8.58002 69.5801 10.16C69.8801 10.34 69.8699 11.06 70.1299 11.97C67.2899 12.11 64.7603 12.23 62.2403 12.35C62.1503 12.7 62.06 13.05 61.96 13.41V13.4Z" fill="black"/>
<path d="M50.7203 15.9C52.5803 17.54 54.4702 19.21 56.9102 21.36C52.3802 22.36 51.2101 18.63 48.4801 17.43C48.3601 17.93 48.3499 18.45 48.1099 18.82C47.6799 19.48 47.1199 20.06 46.6099 20.67C46.0499 20.06 45.0299 19.47 45.0099 18.84C44.9299 16.23 45.1401 13.62 45.2701 10.55C46.6701 10.99 47.5801 11.27 48.7901 11.65C49.3901 11.08 50.3099 10.21 51.3399 9.21997C52.6999 9.79997 54.0099 10.37 55.3399 10.94C55.7999 14.58 51.89 13.8 50.71 15.9H50.7203Z" fill="black"/>
<path d="M31.1803 95.07C32.6403 97.07 35.4403 97.82 33.4303 101.17C31.5203 99.49 29.8199 97.9999 28.0699 96.4599C27.5699 97.7299 27.1503 98.8199 26.7203 99.9099C26.4103 99.8499 26.1001 99.7799 25.7901 99.7199C25.0501 95.8999 25.7703 92.1399 27.2403 88.5599C27.8503 87.0699 31.7203 86.85 32.9903 87.95C34.6703 89.41 34.8499 91.3899 33.3399 93.1799C32.7699 93.8599 31.9903 94.37 31.1803 95.07ZM27.9503 92.2499C29.6503 92.0399 30.9603 91.88 32.7003 91.67C30.0403 88.87 29.6703 88.9099 27.9503 92.2499Z" fill="black"/>
<path d="M62.2 95.3399C61.98 96.3499 62.03 97.1199 61.68 97.4699C61.04 98.0999 60.1999 98.7899 59.3699 98.9099C56.9799 99.2399 53.9096 100.27 52.2996 99.2099C50.2596 97.8699 52.4899 95.1999 53.0999 93.1499C53.4299 92.0499 53.9899 91.03 54.5599 89.7C56.5299 93.03 59.27 89.5399 61.41 91.0499C60.65 95.2099 54.7897 92.4399 53.6897 97.2399C56.6997 96.5699 59.2497 96.0099 62.1897 95.3499L62.2 95.3399Z" fill="black"/>
<path d="M23.2596 88.4C21.8096 88.48 20.3198 88.39 18.9198 88.7C18.0398 88.89 16.69 89.62 16.62 90.22C16.49 91.46 17.35 92.3 18.91 92.22C20.25 92.15 21.6001 92.44 22.9501 92.57C22.9701 92.99 22.9999 93.4 23.0199 93.82C21.2699 94.09 19.5099 94.35 17.5399 94.65C17.2399 96.02 16.92 97.47 16.6 98.92C14.8 95.42 14.9 91.86 15.93 88.42C16.62 86.11 20.2399 85.76 23.2899 87.41C23.2799 87.74 23.2696 88.07 23.2596 88.4Z" fill="black"/>
<path d="M70.4902 85.3799C69.3902 86.0799 68.3699 87.1799 67.1899 87.3999C63.5999 88.0699 59.96 89.4099 56.23 87.6099C60.63 85.4999 65.1502 84.1299 69.9902 84.2999C70.1602 84.6599 70.3302 85.0199 70.4902 85.3799Z" fill="black"/>
<path d="M29.0298 73.53C31.9898 70.04 34.87 66.63 37.77 63.24C43.81 56.21 49.8699 49.2 55.8999 42.17C57.8599 39.89 59.5499 40.06 61.4199 42.57C67.6799 50.97 66.6198 68.79 52.8398 75.62C48.8598 77.59 44.76 78.81 40.23 78.49C36.1 78.19 32.1998 77.56 29.0298 73.53ZM50.6001 52.7C51.9901 53.04 52.7302 53.26 53.4902 53.4C55.0902 53.7 56.7602 53.97 56.9702 56C57.1702 57.97 55.7399 58.92 54.1699 59.33C51.1299 60.12 48.03 60.65 44.96 61.28C44.25 61.43 43.2501 61.32 42.8701 61.75C39.1601 65.97 35.5401 70.28 31.8301 74.65C41.0401 79.45 51.44 77.08 57.46 69.19C63.55 61.21 63.7799 50.85 57.8799 44.52C55.6099 47.07 53.3601 49.6 50.6001 52.7Z" fill="black"/>
<path d="M23.79 70.04C16.6 62.54 16.8099 51.02 22.1899 42.47C26.9499 34.91 33.8198 31.79 42.1498 31.83C45.5098 31.84 48.9598 33.63 52.1498 35.09C53.7098 35.8 52.74 37.29 51.77 38.38C47.54 43.12 43.3201 47.87 39.1801 52.69C35.3801 57.11 31.7101 61.64 27.9101 66.06C26.7201 67.44 25.29 68.6 23.79 70.04ZM40.4301 47.03C41.4001 46.03 42.37 45.04 43.35 44.04C45.57 41.62 47.7998 39.21 50.0698 36.74C43.0798 32.38 31.6799 33.86 26.6899 39.38C18.7899 48.14 18.2798 60.75 23.8198 66.72C25.8698 64.53 27.9097 62.36 30.0097 60.12C28.5197 57.74 27.3698 55.59 29.1098 53.27C31.1298 50.58 33.7299 51.3 36.7299 52.48C37.9799 50.64 39.2101 48.83 40.4301 47.02V47.03Z" fill="black"/>
<path d="M40.4304 47.03C37.8204 48.14 35.2204 49.25 32.4304 50.44C31.6304 48.35 33.2102 47.16 34.4402 46.88C38.9402 45.87 41.1303 42.6 43.1203 38.98C43.3003 38.66 43.6802 38.43 43.9802 38.2C44.0602 38.14 44.2403 38.2 44.8103 38.2C44.3003 40.21 43.8201 42.13 43.3401 44.05C42.3701 45.05 41.4001 46.04 40.4201 47.04L40.4304 47.03Z" fill="black"/>
<path d="M39.6001 38.4299C40.0401 41.2299 38.5898 43.3799 36.7998 44.2699C33.3298 45.9899 30.56 49.1999 25.96 50.0299C26.7 46.9099 27.3599 44.6399 30.3799 44.0399C33.6799 43.3899 36.8499 42.5099 37.8799 38.6499C37.9299 38.4799 38.3 38.3399 38.54 38.2999C38.78 38.2599 39.0501 38.3599 39.6001 38.4399V38.4299Z" fill="black"/>
<path d="M25.9303 52.3599C26.9003 54.5399 26.9603 56.5699 26.1803 58.5499C25.9703 59.0899 24.9801 59.7299 24.4601 59.6499C23.9601 59.5699 23.2201 58.6199 23.2301 58.0499C23.2401 55.9099 23.15 53.5999 25.94 52.3599H25.9303Z" fill="black"/>
</svg>
