<svg width="97" height="134" viewBox="0 0 97 134" fill="none" xmlns="http://www.w3.org/2000/svg">
<path d="M96.1802 80.6598V80.3998C96.1202 77.0098 96.06 73.6098 96.02 70.2198C95.98 66.8498 95.9602 63.4798 95.9302 60.0998C95.8902 54.9298 95.8498 49.5798 95.7598 44.2998C95.6698 38.9698 95.5599 33.6298 95.4399 28.2998C95.2999 21.6898 95.14 14.1898 95.04 7.01981C94.99 3.36981 92.7301 2.18981 90.8501 1.82981C89.6101 1.59981 88.3898 1.56981 87.2598 1.54981C72.0798 1.33981 56.91 1.13984 41.73 0.949837C29.76 0.799837 17.8001 0.659813 5.83008 0.549813C4.59008 0.539813 2.77998 0.669826 1.47998 1.96983C0.169981 3.25983 0.0200195 5.06983 0.0200195 6.31983C0.0200195 10.1298 0.0400586 13.9498 0.0600586 17.7598L0.149902 31.9898C0.199902 40.6098 0.259805 49.2398 0.299805 57.8698C0.379805 76.0298 0.440234 94.1998 0.490234 112.37C0.500234 116.11 0.490234 119.86 0.490234 123.69V131.99L2.79004 132.18C3.58004 132.24 4.33006 132.32 5.06006 132.39H5.16016C6.81016 132.56 8.36021 132.72 9.97021 132.73C17.8702 132.76 25.7602 132.77 33.6602 132.78H34.0698C42.7198 132.78 51.37 132.8 60.02 132.84C66.58 132.87 73.2502 132.97 79.7202 133.07C82.6802 133.11 85.6501 133.16 88.6201 133.2H88.7798C93.6398 133.2 95.4898 130.24 95.5898 127.48C95.6498 125.79 95.72 124.1 95.79 122.4C96.06 115.65 96.3299 108.66 96.3599 101.76C96.3899 94.6998 96.2702 87.5698 96.1602 80.6798L96.1802 80.6598Z" fill="white"/>
<path d="M5.46015 4.79977C9.41015 5.13977 12.8004 5.39978 16.1804 5.73978C18.1904 5.93978 20.5001 5.14978 21.8801 7.64978C22.1301 8.09978 23.6102 7.94978 24.5202 7.95978C30.3702 7.97978 36.22 7.96979 42.07 7.96979C45.6 7.96979 49.1301 7.96979 52.6501 7.96979C56.2801 7.96979 60.0102 7.46978 63.5002 8.14978C67.4902 8.93978 71.2301 7.5598 75.1301 7.8898C78.9601 8.2098 82.8301 7.94978 86.6901 7.95978C90.7801 7.97978 90.8802 7.99979 90.7902 12.2898C90.5802 22.8998 90.4101 33.5098 89.9201 44.0998C89.7901 46.7998 90.22 49.4498 90.01 52.1198C89.72 55.6598 89.4202 59.2598 89.4602 62.7298C89.4902 65.6798 89.1501 68.5998 89.1701 71.5298C89.2701 87.4698 89.2102 103.42 89.2302 119.36C89.2302 121.56 88.7701 123.84 90.6301 125.71C91.0101 126.09 90.6901 127.18 90.6901 127.92C88.6601 128.34 86.7703 128.74 84.8703 129.11C84.4803 129.18 84.0204 129.26 83.6804 129.11C78.5804 126.91 73.3004 130.46 68.2004 128.58C64.9704 129.49 61.83 129.11 58.55 128.51C56.84 128.2 54.8501 129.81 52.9201 128.52C42.1901 129.72 31.4103 128.9 20.6603 129.11C15.7603 129.21 10.8601 129.13 5.71015 129.13C5.62015 127.92 5.4904 126.91 5.4704 125.9C5.4304 124.04 5.49038 122.18 5.45038 120.32C5.31038 113.14 5.09021 105.97 5.02021 98.7898C4.97021 93.6698 5.21034 88.5398 5.16034 83.4198C5.12034 79.5898 4.74036 75.7598 4.68036 71.9198C4.61036 67.3098 4.59003 62.6998 5.34003 58.1098C5.58003 56.6598 4.66015 55.0498 4.71015 53.5198C4.81015 50.2498 5.39011 46.9898 5.42011 43.7298C5.51011 32.1698 5.46015 20.6098 5.46015 9.04977V4.77979V4.79977Z" fill="#EEB344"/>
<path d="M3 129.68C3 123.71 3.01 118.04 3 112.37C2.94 94.1999 2.89006 76.0399 2.81006 57.8699C2.75006 44.4999 2.65008 31.1299 2.58008 17.7599C2.56008 13.9499 2.54004 10.1399 2.54004 6.33988C2.54004 3.88988 3.32982 3.04987 5.81982 3.07987C17.7798 3.18987 29.75 3.3299 41.71 3.4799C56.89 3.6699 72.0602 3.86987 87.2402 4.07987C88.3002 4.08987 89.3702 4.12989 90.4102 4.31989C91.8802 4.58989 92.5301 5.37987 92.5601 7.07987C92.7301 19.5099 93.06 31.9399 93.27 44.3699C93.42 52.9999 93.4298 61.6399 93.5298 70.2699C93.6498 80.7599 93.9401 91.2499 93.8901 101.74C93.8501 110.29 93.4401 118.83 93.1201 127.37C93.0401 129.65 91.4599 130.72 88.6699 130.69C79.1299 130.57 69.5898 130.37 60.0498 130.33C43.3698 130.26 26.68 130.29 10 130.23C7.79 130.23 5.57 129.9 3 129.69V129.68ZM5.99023 5.80988V128.03H90.29C89.66 125.91 88.8 124.23 88.73 122.52C88.51 116.74 88.5001 110.94 88.5601 105.16C88.6501 96.5799 88.9198 88.0099 89.0098 79.4399C89.0998 71.0299 88.9498 62.6099 89.0898 54.1999C89.2798 42.6699 89.6599 31.1399 89.9199 19.6099C89.9999 16.0999 89.9302 12.5799 89.9302 9.01988C88.7402 8.89988 88.0899 8.77989 87.4399 8.77989C69.2899 8.78989 51.1402 8.95988 32.9902 8.73988C28.5702 8.68988 23.69 10.2899 19.71 6.70988C19.38 6.41988 18.6902 6.49989 18.1602 6.46989C14.3502 6.25989 10.54 6.05989 5.97998 5.81989L5.99023 5.80988Z" fill="black"/>
<path d="M68.9102 84.0999C71.5602 81.1899 73.58 78.5499 76.02 76.4099C78.14 74.5499 79.6498 74.9699 80.2598 77.7399C80.9298 80.7399 81.04 83.9799 80.73 87.0499C80.52 89.1499 80.6398 90.69 81.7798 92.57C83.2898 95.06 84.08 97.99 85.23 100.84C83.98 101.68 82.8099 102.46 81.3999 103.41C82.0599 104.26 82.6201 104.9 83.1001 105.6C84.1401 107.13 83.7502 108.29 82.1602 109.19C80.4502 110.15 78.0998 110.18 77.3398 112.7C77.2498 113 74.67 112.54 73.25 112.04C67.33 114.85 61.2699 114.45 55.1699 112.46C53.0399 111.76 51.02 110.93 48.98 112.85C48.48 113.32 47.2599 113.01 45.6299 113.11C46.6499 111.55 47.3201 110.51 48.0601 109.38C46.0401 105.29 43.31 110.55 41.02 108.99C41.03 106.34 43.6499 106.5 45.1699 105.33C44.5999 101.54 40.36 105.16 39.21 101.96C41.09 101.23 42.99 100.48 44.5 99.89C45.67 97.79 46.5 95.84 47.73 94.2C50.53 90.46 52.6499 86.5 53.3999 81.82C53.6299 80.42 54.2398 78.9999 55.0098 77.7999C56.6498 75.2399 58.7501 75.4099 60.0801 78.1099C60.5401 79.0499 60.7799 80.09 61.1699 81.07C61.4999 81.92 61.8901 82.75 62.3101 83.69C64.8401 83.84 67.3102 83.99 68.9302 84.09L68.9102 84.0999ZM68.5498 97.21C67.3898 100.13 66.02 102.31 65.75 104.61C65.48 106.93 66.3099 109.38 66.6499 111.74C74.2199 111.03 78.8299 105.96 79.6699 100.02C79.8299 98.92 79.87 97.3999 79.25 96.6699C76.66 93.6199 77.1801 90.3199 77.8501 86.8599C78.4401 83.8099 78.7298 80.72 77.8198 77.21C74.8698 79.41 72.7002 81.76 71.6602 84.77C70.9802 86.74 69.5802 87.2499 68.4302 86.4899C66.0102 84.8899 64.0098 85.44 61.7598 86.59C61.1898 86.89 60.2799 86.5299 59.4199 86.4699C58.8299 83.9699 58.28 81.6299 57.71 79.2199C57.11 79.5099 56.7299 79.5799 56.6899 79.7299C55.9299 82.7599 54.9598 85.7699 54.5498 88.8499C54.0698 92.4999 50.0802 93.61 49.2202 96.89C49.0902 97.39 48.81 97.8599 48.54 98.3099C46.83 101.2 47.2201 104.15 49.3301 106.39C52.5801 109.83 56.7001 111.78 61.5801 111.58C63.1201 107.76 64.3701 104.22 62.8301 100.23C62.5601 99.5299 63.6 97.8299 64.46 97.3099C65.3 96.7999 66.6998 97.2 68.5498 97.2V97.21Z" fill="black"/>
<path d="M43.8401 61.6199C45.2901 60.4199 46.5401 59.3899 48.3401 57.8999C48.4301 59.2499 48.5604 59.7399 48.4704 60.1899C47.9504 62.7199 48.65 64.4799 50.76 66.2999C54.08 69.1599 55.5703 72.9499 53.3503 77.2999C51.5103 80.9099 49.6303 84.5099 47.5603 87.9899C46.9403 89.0299 45.69 89.8499 44.55 90.4099C42.66 91.3399 41.4502 92.4898 41.0002 94.7198C40.3802 97.8198 35.0801 99.9999 31.3401 98.4899C30.6101 98.1899 30.0704 96.8898 29.8704 95.9698C29.6904 95.1298 30.1 94.1699 30.3 92.9299C26.14 92.6399 22.51 91.4399 20.53 87.4799C18.67 83.7399 18.6804 79.8699 19.9504 75.8399C17.7404 76.4799 15.7304 77.0699 13.6804 77.6599C12.3604 75.1499 12.4005 73.2199 13.9905 71.3999C16.6705 68.3299 19.34 65.2499 22.05 62.2099C22.57 61.6299 23.2404 61.1599 23.9104 60.7299C27.8104 58.2599 29.4602 58.6599 31.9602 62.8399C35.8602 61.4299 39.8803 60.1399 43.8503 61.6399L43.8401 61.6199ZM37.01 82.1499C35.85 81.2599 34.8905 80.7599 34.2405 79.9999C31.9405 77.2899 32.6003 75.5199 36.0603 74.7999C36.4503 74.7199 36.8904 74.4199 37.2004 74.5199C38.3504 74.9099 39.8304 75.1499 40.4704 75.9899C40.9504 76.6199 40.7304 78.4499 40.1204 79.1099C37.9704 81.4599 38.6002 84.0599 39.2502 86.5199C40.0402 89.5399 42.9304 90.5499 44.9304 88.2799C48.1304 84.6399 50.9001 80.5399 50.9001 75.3299C50.9001 74.5699 50.6603 73.7599 50.3503 73.0599C46.1303 63.4999 32.4602 61.4599 25.9602 69.5899C24.0302 71.9999 22.6901 75.0099 21.5901 77.9399C20.4201 81.0599 21.1902 84.2799 22.9602 87.0299C26.1202 91.9299 30.5 91.9699 34.03 87.1999C35.18 85.6399 36.03 83.8599 37.01 82.1599V82.1499ZM16.8103 73.7499C21.4303 70.5899 27.3302 68.5099 27.9202 60.9499C21.6802 63.5999 18.9503 68.4099 16.8103 73.7499ZM36.9104 87.1299C33.8604 89.8299 33.8403 89.8299 33.0203 93.6199C32.8403 94.4499 32.6502 95.9699 32.9202 96.0799C33.9302 96.4999 35.2005 96.7799 36.2405 96.5399C38.6705 95.9899 39.8504 93.3999 38.9104 90.8799C38.4204 89.5799 37.6004 88.3999 36.9104 87.1199V87.1299ZM38.53 76.3099C37.48 76.4399 36.4204 76.5599 35.2204 76.7099C36.4604 80.0299 37.59 78.4499 38.53 76.3099Z" fill="black"/>
<path d="M82.1698 37.4999C62.0298 38.3799 42.3799 38.5299 22.6899 38.3499C22.5399 37.1399 22.36 36.3499 22.37 35.5699C22.38 34.7899 22.5801 34.0199 22.7401 33.0099C23.5401 32.8899 24.2899 32.6799 25.0399 32.6799C42.0199 32.6799 58.9901 32.68 75.9701 32.7C79.3901 32.7 80.5201 33.4899 82.1801 37.5099L82.1698 37.4999ZM24.6 37.3199C27.91 37.3199 30.8099 37.3699 33.7099 37.3199C46.9999 37.0299 60.2897 36.7699 73.5697 36.3099C75.2497 36.2499 77.3898 36.77 79.3998 34.52H24.2699C24.3699 35.34 24.46 36.1 24.6 37.33V37.3199Z" fill="black"/>
<path d="M33.3999 110.27C27.4999 111.56 22.5598 111.41 17.2798 110.48C18.1398 108.17 19.77 107.66 21.46 107.94C25.16 108.55 29.4099 106.06 33.3999 110.27Z" fill="black"/>
<path d="M51.52 58.8599C52.88 59.5999 54.54 60.0599 55.54 61.1299C57.24 62.9499 58.8099 65.0099 59.8599 67.2499C60.4299 68.4599 60.2601 70.4599 59.6201 71.6899C58.9301 73.0099 57.2898 73.8299 55.2598 72.4199C56.3498 71.7499 57.2802 71.1799 58.2402 70.5999C57.5202 65.7399 53.5398 63.2899 51.0498 59.8499C51.2098 59.5299 51.37 59.1999 51.52 58.8799V58.8599Z" fill="black"/>
<path d="M36.5098 45.1199C46.2898 43.2599 56.16 44.0799 66 44.0499C56.22 45.7499 46.3598 45.2899 36.5098 45.1199Z" fill="black"/>
<path d="M80.23 17.1299C82.5 17.3799 83.2299 18.5999 83.8599 20.4199C84.6699 22.7599 84.0101 24.5299 82.5601 26.0999C82.1401 26.5499 80.7801 26.5699 80.1001 26.2499C77.9401 25.2499 78.0098 23.1099 78.0298 21.1499C78.0298 19.3599 78.71 17.8899 80.23 17.1399V17.1299ZM80.7901 24.4299C81.1801 24.4099 81.5702 24.3899 81.9502 24.3699C82.0302 23.4899 82.3699 22.5099 82.0899 21.7699C81.9599 21.4199 80.6203 21.5399 79.2203 21.3699C79.9403 22.7799 80.3601 23.5999 80.7901 24.4199V24.4299Z" fill="black"/>
<path d="M25.0498 29.1898C24.3098 25.0998 23.5598 21.0198 22.8198 16.9298C23.0798 16.8598 23.3401 16.7898 23.6001 16.7198C24.2201 18.8598 24.8398 20.9998 25.5298 23.4098C27.4998 20.6498 25.9499 17.0298 28.9399 15.0598C28.2499 19.8898 27.9 24.7598 26.21 29.3598C25.83 29.3098 25.4401 29.2498 25.0601 29.1998L25.0498 29.1898Z" fill="black"/>
<path d="M69.62 18.4199C72.0733 19.4599 73.7297 22.2099 74.5897 26.6699C73.5497 26.2299 72.6696 25.8599 71.7596 25.4799C71.2796 26.2099 70.8396 26.89 70.0496 28.09C68.8696 24.57 67.8397 21.7199 69.6097 18.4099L69.62 18.4199Z" fill="black"/>
<path d="M50.4402 29.2699C49.5202 27.4899 48.6003 25.7098 47.3103 23.2398C46.9003 25.0398 46.7002 25.9199 46.4402 27.0699C46.0802 26.6099 45.6804 26.3398 45.7004 26.1098C45.8304 24.2698 45.8701 22.3999 46.3201 20.6399C46.4701 20.0399 47.7002 19.4599 48.4802 19.3899C48.9302 19.3499 50.0001 20.5798 49.8801 20.8498C48.6901 23.5998 50.7403 25.5998 51.3303 27.9098C51.4303 28.2998 51.2104 28.7798 51.1404 29.2198C50.9104 29.2398 50.6702 29.2599 50.4402 29.2699Z" fill="black"/>
<path d="M42.8799 49.3298C49.5999 48.2198 56.3599 47.6897 63.1499 48.1197C63.1599 48.5197 63.1702 48.9298 63.1802 49.3298H42.8799Z" fill="black"/>
<path d="M20.4399 120.4C24.7499 118.89 29.0999 117.68 33.6299 119.44C29.4699 122.43 24.9099 120.91 20.4399 120.4Z" fill="black"/>
<path d="M56.5698 26.0399C56.7498 24.1899 56.9301 22.3499 57.1001 20.4999C57.3301 20.4999 57.5598 20.4799 57.7798 20.4699C58.5398 21.7999 59.3001 23.13 60.0601 24.46L60.73 24.4399C60.99 22.4399 61.2498 20.4399 61.5098 18.4399C61.5798 18.4399 61.64 18.4599 61.71 18.4699V27.53C61.46 27.63 61.2102 27.73 60.9502 27.83C60.1102 26.7 59.2599 25.58 58.3799 24.4C57.9199 25.05 57.5502 25.5799 57.1802 26.1099C56.9802 26.0899 56.7698 26.0599 56.5698 26.0399Z" fill="black"/>
<path d="M67.9199 26.7198C66.6099 24.6398 65.2498 24.2099 63.0298 25.8899C63.4498 23.3799 63.8598 20.8599 64.2798 18.3499C67.1998 20.6699 67.4699 23.5698 67.9199 26.7198Z" fill="black"/>
<path d="M39.0198 20.7098C40.4598 20.4198 41.8899 20.1198 43.3299 19.8298C43.4099 20.0998 43.4799 20.3698 43.5599 20.6398C42.4499 21.0898 41.3398 21.5298 39.9598 22.0898C40.6098 22.6198 41.1499 23.0498 41.7899 23.5698C41.0699 24.2398 40.3497 24.8898 39.4197 25.7498C40.5697 26.4198 41.4197 26.9198 43.1497 27.9198C41.0697 28.1698 39.3696 28.8598 38.8196 28.3298C38.0896 27.6498 38.0399 25.9898 38.1199 24.7798C38.2099 23.3798 38.7497 22.0098 39.0897 20.6198L39.0096 20.7098H39.0198Z" fill="black"/>
<path d="M29.55 28.8199C28.31 22.1199 28.7602 20.6899 32.3502 20.1899C31.6402 21.2899 30.19 22.2499 31.82 23.5999C31.94 23.6999 30.6701 25.4799 29.7501 26.9699H32.8302C32.8702 27.1799 32.9101 27.3899 32.9601 27.6099C31.8401 28.0099 30.72 28.41 29.55 28.83V28.8199Z" fill="black"/>
<path d="M19.75 115.41C22.81 113.68 26.1 113.47 29.52 114.54C26.57 116.99 22.99 114.76 19.75 115.41Z" fill="black"/>
<path d="M39.0898 20.6098C37.2498 20.9698 36.47 22.1098 36.48 23.9498C36.48 25.0698 36.3299 26.1898 36.1699 28.1898C34.4699 25.2098 37.21 22.0498 33.54 20.1998C35.79 19.8998 37.4698 19.0999 39.0098 20.7099L39.0898 20.6198V20.6098Z" fill="black"/>
<path d="M76.1499 24.5599C74.7599 22.5499 74.2399 20.4299 74.9399 17.4299C77.2199 19.9999 76.2999 22.3499 76.1499 24.5599Z" fill="black"/>
<path d="M48.25 53.6499H54.1001C52.4501 55.2699 51.79 55.3399 48.25 53.6499Z" fill="black"/>
<path d="M53.9399 20.1299V25.9399C53.8399 25.9399 53.7299 25.9399 53.6299 25.9499V20.2899C53.7299 20.2399 53.8399 20.1899 53.9399 20.1299Z" fill="black"/>
<path d="M70.5298 94.3599C71.5298 94.0499 72.53 93.7299 73.54 93.4199C73.69 93.8499 73.84 94.28 73.98 94.71C72.97 95.09 71.9499 95.4799 70.9399 95.8599C70.7999 95.3599 70.6698 94.8599 70.5298 94.3599Z" fill="black"/>
<path d="M43.6001 70.1699C45.0201 73.2299 43.7799 73.7 40.6699 73.21C41.9499 71.88 42.7801 71.0199 43.6001 70.1699Z" fill="black"/>
<path d="M29.6201 73.0499C30.4001 72.3199 31.18 71.5899 31.96 70.8699C32.24 71.1799 32.5301 71.4899 32.8101 71.7999C32.0201 72.5199 31.2299 73.2399 30.4399 73.9499C30.1599 73.6499 29.8899 73.3499 29.6099 73.0499H29.6201Z" fill="black"/>
</svg>
