<?xml version="1.0" encoding="UTF-8"?>
<svg id="Livello_1" data-name="Livello 1" xmlns="http://www.w3.org/2000/svg" viewBox="0 0 2363.78 860">
  <defs>
    <style>
      .cls-1 {
        fill: #936037;
      }

      .cls-1, .cls-2, .cls-3, .cls-4, .cls-5 {
        stroke-width: 0px;
      }

      .cls-3 {
        fill: #cbbba0;
      }

      .cls-4 {
        fill: #ca9e67;
      }

      .cls-5 {
        fill: #d5ecf1;
      }
    </style>
  </defs>
  <rect class="cls-3" x="1.67" y="693.29" width="2362.11" height="166.71"/>
  <path class="cls-5" d="M1.67,0v690.58h2361.9V0H1.67ZM807.77,438.17h-151.5V164.57h151.5v273.6ZM996.58,438.17h-143.8V163.68h143.8v274.49ZM1487.43,435.14h-148.62v-224.07h148.62v224.07ZM1676.56,438.13h-147.22v-227.07h147.22v227.07Z"/>
  <path class="cls-4" d="M629.01,79.87v387.27h396.6V79.87h-396.6ZM807.77,438.17h-151.5V164.57h151.5v273.6ZM996.58,438.17h-143.8V163.68h143.8v274.49Z"/>
  <path class="cls-1" d="M807.77,163.48v-60.3h-151.5v60.3h151.5ZM852.77,163.68v-60.49h143.8v60.49h-143.8Z"/>
  <path class="cls-4" d="M1305.7,79.87v384.71h402.06V79.87h-402.06ZM1487.9,437.17h-151.5v-226.37h151.5v226.37ZM1676.71,437.17h-143.8v-227.11h143.8v227.11Z"/>
  <g>
    <rect class="cls-1" x="1336.4" y="97.87" width="151.5" height="111.83"/>
    <rect class="cls-1" x="1532.91" y="97.87" width="143.8" height="112.19"/>
  </g>
  <g>
    <path class="cls-2" d="M1689.28,413.45c-.34-25.14-.75-50.27-1.04-75.41-.25-21.72-.5-43.45-.51-65.18-.02-20.81.36-41.62.39-62.43.03-16.76-.19-33.52-.31-50.28-.13-18.26-.28-36.52-.45-54.78,0-.96-.34-1.91-.53-2.87-.51.03-1.02.06-1.52.1v34.73c-.45.09-.89.19-1.34.28-1.4-2.38-3.72-4.66-4.01-7.17-.66-5.63-.17-11.39-.42-17.08-.15-3.37-1.54-6.82-1.06-10.04.64-4.29.1-5.78-4.42-5.75-2.86.02-5.72.59-8.58.55-8.88-.11-17.76-.47-26.65-.56-7.33-.08-14.65.12-21.98.14-8.99.03-17.99-.02-26.98,0-12.43.03-24.86.09-37.29.12-10.02.02-20.04-.04-30.05.02-15.36.09-30.72.32-46.09.37-15.53.05-31.06-.11-46.58.01-1.04,0-2.07,1.59-3.1,2.45,1.01.87,1.98,2.42,3.04,2.5,4.01.28,8.05.07,12.08.05,12.82-.07,25.64-.06,38.46-.24,3.01-.04,4.16.92,3.95,3.98-.23,3.43.03,6.89-.1,10.34-.26,7.27-.64,14.53-.95,21.54-2.94-.29-5.48-.75-8.03-.77-14.28-.09-28.55-.08-42.83-.11-6.03,0-6.95,1.36-4.94,7.09h55.72c0,5.08.15,10.11-.14,15.1-.05.93-1.87,2.5-2.89,2.51-9.37.08-18.73-.15-28.1-.23-7.33-.06-14.67-.14-22,.03-1.04.02-2.06,1.39-3.08,2.14,1.06.68,2.1,1.9,3.18,1.94,6.01.22,12.04.25,18.06.17,10.71-.15,21.41-.51,32.11-.55.87,0,2.5,1.77,2.5,2.72.06,11.81-.17,23.62-.2,35.42,0,2.55-.84,3.66-3.48,3.61-4.47-.09-8.94.04-13.41.06-11.96.04-23.92,0-35.88.21-1.04.02-2.05,1.63-3.07,2.5.92.99,1.76,2.75,2.77,2.85,4.42.44,8.89.48,13.34.51,12.09.09,24.17.16,36.26.1,2.59-.01,3.28,1.11,3.19,3.38-.16,3.88-.33,7.76-.35,11.65-.04,6.37-.07,12.74-.11,19.12,2.87,5.9,3.83,12.06,4.31,18.7.74,10.34-1.47,20.97-2.63,31.21-.96,8.48-1.53,16.96-3.07,25.39-.09.5-.19,1-.29,1.5.9,1.05,1.19,2.4,1.17,4.14-.19,23.46-.43,46.93-.42,70.39,0,11.16.53,22.32.82,33.96-.55.03-1.78.16-3.01.16-15.92,0-31.84,0-47.76-.11-2.65-.02-4.13.64-4.1,3.53.03,2.67,1.2,4.1,3.93,3.95,2.58-.14,5.15-.58,7.73-.56,19.92.1,39.85.28,59.77.42,5.69.04,11.39,0,17.31,0,0,2.16-.2,3.49.07,4.71.17.79,1.03,1.43,1.59,2.14.76-.71,2.25-1.55,2.15-2.13-1.02-6.17,3.11-5.06,6.69-5.02,15.51.17,31.01.34,46.52.37,8.44.01,16.87-.41,25.31-.38,9.45.04,18.9.49,28.35.54,8.29.04,16.59-.3,24.88-.34,10.6-.04,21.2.12,31.79.02,1.21-.01,2.74-.88,3.48-1.84.33-.43-.76-2.18-1.47-3.14-.67-.9-1.63-2.12-2.56-2.21-3.16-.31-2.59-2.39-2.53-4.38.25-8.58.66-17.16.68-25.74.03-20.24-.15-40.48-.21-60.72-.04-12.78.02-25.57,0-38.35-.04-20.51-.12-41.03-.17-61.54-.02-8.43.05-16.86-.02-25.29-.07-7.74-.36-15.48-.39-23.22-.03-8.28.02-16.56.32-24.82.04-1.18,1.73-2.3,2.66-3.45.75,1.19,2.08,2.35,2.14,3.57.21,4.45-.05,8.91-.05,13.37-.02,14.93.04,29.85-.03,44.78-.05,10.92-.35,21.83-.35,32.74,0,18.95.27,37.9.2,56.84-.05,13.81-.5,27.61-.71,41.42-.15,9.61-.17,19.23-.32,28.84-.19,12.33-.53,24.66-.61,36.98-.01,2.08.67,4.28,1.52,6.22.41.93,1.94,1.36,2.97,2.01.61-.96,1.71-1.9,1.74-2.87.15-5.54.1-11.1.02-16.64ZM1489.27,103.31c.66,1.26,1.88,2.52,1.89,3.78.1,18.71.01,37.43.01,56.14,0,35.26.02,70.52.03,105.78,0,5.69,0,11.38,0,17.07-.54,0-1.07,0-1.61,0,0-10.9.06-21.81-.01-32.71-.15-20.11-.31-40.22-.59-60.33-.31-22.71-.73-45.42-1.14-68.13-.11-6-.45-11.99-.42-17.99,0-1.21,1.19-2.41,1.84-3.62ZM1515.73,244.6c-3.86-.47-6.49.45-7.11,4.47-.08.53-1.81.97-2.83,1.13-1.54.24-3.26-.16-4.63.38-1.08.43-1.74,1.88-2.59,2.87,1.13.53,2.22,1.33,3.4,1.53,1.97.32,4.01.26,6.32.37.46,10.3.95,20.47,1.36,30.65.56,13.78,1.03,27.57,1.63,41.36.05,1.06.72,2.08,1.11,3.12.46-.06.92-.12,1.38-.19.26-4.45.51-8.9.77-13.35.36,0,.72-.02,1.09-.03v116.67h-27.94c1.1-.96,1.92-2.06,2.27-1.92,5.24,2.02,5.15-1.52,5.16-4.86,0-8.35-.01-16.7-.09-25.05-.21-21.85-.54-43.7-.66-65.56-.14-24.6-.1-49.2-.14-73.8-.07-39.52-.14-79.05-.19-118.57-.02-11.63-.05-23.25.06-34.88.06-5.85.29-5.87,6.26-5.77,5.01.09,10.02.02,15.4.02v141.41ZM1522.74,215.58c-.33,38.27-.3,76.55-.49,114.83-.12,23.29-.39,46.57-.55,69.85-.07,10.43,0,20.87-.02,31.3,0,.65-.18,1.29-.85,2.04-2.64-2.55-2.09-6-2.08-9.09.07-14.15.41-28.3.54-42.45.08-8.17-.1-16.35-.09-24.52.01-17.32.07-34.64.1-51.96.03-14.36.07-28.72.07-43.07,0-15.91-.04-31.82-.07-47.73-.04-26.58-.09-53.16-.12-79.75-.01-10.38,0-20.75,0-31.38,3.75-.84,5.15.01,5.1,3.5-.59,36.14-1.23,72.29-1.54,108.44ZM1532.46,186.5c-.26-20.73-.6-41.46-.89-62.19-.08-5.64-.02-5.4,5.46-5.29,14.93.31,29.86.34,44.79.54,9.91.13,19.81.45,29.72.53,18.3.13,36.61.13,54.91.22,1.99,0,3.98.23,6.27.37v13.73c-7.56,0-14.99-.1-22.43.02-36.31.56-72.61,1.18-108.92,1.77-1.73.03-3.49-.22-5.17.06-.86.14-1.58,1.14-2.36,1.76.84.59,1.67,1.66,2.53,1.69,11.06.31,22.11.51,33.17.65,26.32.33,52.64.6,78.95.92,7.19.09,14.39.14,21.58.49,1.05.05,2.83,1.57,2.9,2.51.3,4.57.14,9.17.14,14.05-46.2.89-91.96,1.77-137.73,2.65-.16.61-.32,1.21-.48,1.82,1.41.55,2.81,1.54,4.23,1.57,21.55.44,43.1.75,64.65,1.11,20.3.34,40.6.66,60.9,1.07,8.37.17,8.37.27,8.41,8.85,0,2,0,4,0,6.18-1.07.2-1.87.5-2.68.49-13.51-.04-27.03-.21-40.54-.18-22.12.06-44.23.15-66.35.45-8.48.11-16.96.76-25.43,1.31-1.04.07-2.01,1.1-3.01,1.69.77,1.13,1.33,2.55,2.37,3.29.96.68,2.45.84,3.71.86,17.71.3,35.41.52,53.12.79,9.78.15,19.57.48,29.35.52,15.23.07,30.47.04,45.7-.14,2.58-.03,3.82.56,3.8,3.21-.03,3.15,0,6.31.01,9.46.02,2.73-.85,4.13-4.05,4.09-13.67-.18-27.35-.23-41.02-.09-23.47.25-46.95.72-70.42,1.03-8.04.11-16.09.02-25.18.02,0-7.26.08-14.56-.01-21.85ZM1672.55,240.66v193.1c-10.75,0-21.51-.04-32.27,0-15.3.06-30.59.28-45.89.27-18.48-.01-36.97-.18-55.45-.31-5.31-.04-5.09-.09-5.08-5.72.01-10.32-.37-20.64-.39-30.96-.03-11.17.21-22.34.26-33.51.03-5.36.03-10.71.02-16.07-.38-2.04-.59-4.09-.59-6.13,0-7.9.63-15.51,1.66-23.26-1.16-1.14-1.58-2.43-1.58-4.27.03-26.92-.02-53.84-.05-80.76,0-5.71,0-11.42,0-16.76,19.52,0,38.51-.08,57.5.03,16.12.09,32.24.5,48.36.58,9.21.04,18.43,0,27.61-.6,4.72-.31,6.71,1.33,6.58,5.74-.1,3.5-.56,6.99-.89,10.85l.19,7.79ZM1673,113.97c-47.24.58-94.13,1.15-141.27,1.72v-12.49h142.12c-.28,3.6-.54,6.93-.85,10.77ZM1684.77,158.7c-4.2.72-5.29-.97-5.08-4.23.17-2.7.26-5.44-.04-8.12-.44-3.87,1.58-5.36,5.12-6.15v18.5Z"/>
    <path class="cls-2" d="M1417.88,433.73c-4.75.27-9.51.26-14.27.29-3.26.02-6.52.02-9.92.02-.88.31-1.75.57-2.6.77-6.32,1.44-12.79,1.44-19.11,0-1.21-.28-2.38-.63-3.53-1.05-.77.19-1.68.25-2.75.2-6.6-.31-13.24-.36-19.84-.01-2.39.13-4.71,1.71-7.06,2.63,2.28,1.33,4.48,3.61,6.85,3.82,9.97.86,20.01.91,29.99,1.65,3.4.25,6.71,1.7,9.71-1.11.35-.33,1.09-.36,1.65-.36,10.31.06,20.63.09,30.94.25,2.33.04,4.21.37,4.29-3.04.08-3.38-1.26-4.23-4.35-4.06Z"/>
    <path class="cls-2" d="M1350.83,558.91v128.12h69.92c1.74,5.04.8,6.35-3.78,6.39-12.17.11-24.33.33-36.5.42-9.68.07-19.35.01-29.82.01.69,28.64-.8,57.75,1.46,87.67-6.03,1.16-13,3.26-19.84.1-1.65-.76-2.78-4.35-2.81-6.65-.23-19.29-.14-38.59-.15-57.89,0-7.88,0-15.76,0-23.42h-164.2c.82,4.21,1.37,7.72,2.2,11.17,4.58,18.93,6.23,38.23,7.45,57.6.22,3.42.55,6.84.91,10.25.46,4.28-2.65,7.58-6.85,7.71-3.44.1-4-2.23-4.67-4.59-.65-2.32-1.29-4.67-1.68-7.05-1.31-8.2-2.38-16.44-3.79-24.61-1.93-11.13-3.98-22.24-6.2-33.32-.95-4.76-2.49-9.4-3.72-14.11-.62-2.38-1.7-3.32-4.54-3.25-10.1.26-10.11.07-10.11,10.01,0,23.33-.02,46.65,0,69.98,0,7.23-1.37,9.3-8.46,9.67-4.99.26-10.04-.79-14.41-1.2,2.48-30.08.78-59.11,1.67-88.67-8.27,0-15.98,0-23.68,0-11.31,0-22.62,0-33.92-.02-5.9,0-11.8-.2-17.69.05-1.31.06-3.22,1.36-3.72,2.56-5.62,13.39-10.99,26.89-16.5,40.33-4.24,10.37-8.51,20.73-12.96,31.01-.67,1.55-2.42,2.63-4.05,4.06-1.02,1.02-1.95,2.78-3.09,2.94-6.22.86-12.5,1.33-19.2,1.33,12.35-26.9,24.97-53.28,34.12-82.05h-78.09c.82,29.42-.75,58.28,1.49,87.7-2.95,2.19-16.86,3.31-20.02.38-1.63-1.51-2.59-4.53-2.6-6.88-.2-25.49-.2-50.98-.12-76.47.01-3.78-.17-6.34-5.11-4.84-1.66.5-3.78.06-5.51-.5-.85-.28-1.82-1.86-1.75-2.79.06-.85,1.37-2.23,2.23-2.31,3.13-.28,6.29-.11,10.22-.11,0-7.82,0-15.1,0-22.39.02-12.54.03-25.08.08-37.62.03-7.11-.13-7.21-7.35-6.52-2.27.22-5.04,1.16-5.42-2.83-.46-4.77.51-5.77,5.65-5.07,5.07.69,7.51-.6,7.66-4.08.1-2.41-.7-3.95-3.52-3.54-.85.12-1.72.02-2.59.04-7.89.16-8.08-.08-6.47-8.79,2.7.16,5.48.33,8.27.49,2.65.15,4.37-.5,4.45-3.74.27-10.78.68-21.57,1.2-32.34.12-2.43-.82-2.93-2.98-2.95-3.01-.03-6.06-.16-8.98-.78-1.01-.21-1.67-2.04-2.49-3.13,1.07-.58,2.13-1.67,3.2-1.68,11.16-.1,22.32-.06,33.48.02,3.27.02,6.54.27,10.88.47,0-2.6.44-5.32-.21-7.75-.27-1-2.87-1.93-4.42-1.94-12.38-.11-24.76.01-37.15.06-.86,0-1.86.21-2.56-.15-1.16-.59-2.12-1.55-3.17-2.35,1.04-.8,2.07-2.27,3.13-2.29,9.65-.18,19.31-.16,28.96-.1,5.75.04,11.5.35,17.25.4,3.78.03,4.96,2.22,4.98,5.51.03,3.6.12,7.21,0,10.81-.12,3.46-2.03,4.5-5.48,4.02-4.91-.68-9.89-.9-14.97-1.33v129.21c3.61.16,7,.43,10.4.45,15.12.1,30.23.2,45.35.15,6.89-.02,13.78-.5,20.67-.48,2.64,0,3.46-1.2,4.1-3.39,2.53-8.64.3-17.02-1.06-25.51-1.46-9.08-2.65-18.21-3.68-27.34-.3-2.68.37-5.48,1.17-8.31,9.05,8.45,8.39,20.55,11.73,31.01,3.51,11,2.92,22.36-1.09,33.93,1.52-.22,2.3-.38,3.09-.44,2.02-.15,5.33.43,5.82-.5,1.56-2.94,2.65-6.4,2.86-9.73.73-11.29-3.96-21.37-7.8-31.6-2.37-6.33-5.22-12.49-7.28-18.91-.75-2.33.15-5.18.3-7.78-2.58.38-5.25.78-7.93,1.18-.2-.43-.39-.87-.59-1.3,1.79-1.71,3.75-3.29,5.31-5.19.9-1.1,1.94-2.95,1.6-4.06-3.17-10.43-6.77-20.72-9.96-31.15-3.36-10.99-6.63-22.02-9.5-33.14-1.55-6,2.33-10.22,10.05-11.44-.77-4.44-1.72-8.87-2.27-13.35-.45-3.69-.71-7.44-.54-11.14.13-2.82,1.26-5.51,4.9-5.39,3.74.12,7.69-.09,8.77,4.95,1.98,9.29,4.03,18.56,6.09,27.83,2.97,13.33,6.02,26.65,8.92,40,.48,2.21.7,4.59.43,6.81-.18,1.51-1.42,2.9-2.19,4.34-1.24-.89-2.47-1.79-4.26-3.08,0,3.28-.69,6.78.13,9.88,2.09,7.91,4.61,15.73,7.4,23.43,3.02,8.34,6.68,16.44,9.79,24.75,1.81,4.84,5.99,4.04,9.35,3.97,10.02-.23,20.02-1.26,30.04-1.57,9.29-.29,18.6-.06,28.1-.06v-86.79c-4.61.24-9.46.07-14.16.84-4.61.76-6.2,0-6.33-4.64-.05-1.87-.05-3.75-.04-5.62.05-9.77.48-10.31,10.23-10.27,15.83.07,31.66.45,47.49.45,18.26,0,36.53-.35,54.79-.36,28.63-.02,57.25.18,85.88.17,23.29,0,46.58-.44,69.87-.19,11.62.13,10.9.2,10.95,10.73.02,2.96.49,6.84-1.11,8.61-1.29,1.43-5.39.34-8.24.36-3.31.03-6.62.06-9.93.12-.41,0-.81.24-1.2.37ZM1329.47,687.27c0-21.72-.02-42.31.02-62.9,0-4.16-3.02-3.54-5.46-3.52-9.71.08-19.41.41-29.12.45-9.32.04-18.64-.26-27.96-.24-13.06.03-26.12.3-39.18.3-12.48,0-24.96-.26-37.45-.31-10.59-.04-21.17.07-31.76.1-8.01.02-16.02,0-24.4,0,0,7.92-.1,16.37.15,24.81.02.85,1.98,2.14,3.21,2.39,9.57,1.97,19.48,1.82,28.44,7.11,6.69,3.95,9.38,6.68,9.02,14.29-.25,5.22-3.77,7.24-8.55,4.84-.88-.44-1.5-1.38-2.37-1.85-3.05-1.65-6.15-3.19-10.16-5.25,3.35,7.13,6.07,13.06,8.97,18.89.31.62,1.71.96,2.61.98,4.46.09,8.92.07,13.39,0,8.04-.14,16.07-.56,24.1-.49,10.9.09,21.79.75,32.69.76,21.67.03,43.34-.24,65.01-.35,9.39-.05,18.77,0,28.79,0ZM1140.58,596.65l.54,1.5c5.79,0,11.58.09,17.37-.02,11.31-.22,22.62-.72,33.93-.81,11-.08,22,.4,33,.29,14.83-.14,29.65-.75,44.48-.89,10.95-.1,21.9.22,32.85.35,7.86.1,15.71.2,23.57.31,3.01.04,3.82-1.59,3.88-4.39.23-10.35.5-20.71,1.12-31.04.19-3.11-.82-3.64-3.53-3.68-11.14-.16-22.28-.73-33.42-.75-24.09-.03-48.18.19-72.27.31-2.54.01-5.41-.69-7.58.23-8.06,3.4-16.05,7.04-23.77,11.15-16.82,8.96-33.46,18.27-50.17,27.43ZM1363.98,552.81c1.9-8.81,1.17-9.4-7.44-9.34-27.18.2-54.36.16-81.54.16-24.89,0-49.78-.11-74.67-.11-14.8,0-29.6.19-44.4.17-17.85-.02-35.69-.22-53.54-.17-1.16,0-3.11,1.29-3.31,2.26-.49,2.37-.16,4.9-.16,7.02h265.05ZM1133.9,613.31c10.06,0,19.27.06,28.49-.02,12.71-.11,25.42-.44,38.14-.45,7.16,0,14.33.73,21.49.64,10.43-.13,20.85-.92,31.28-1.04,11.24-.13,22.5.13,33.74.31,12.15.19,24.3.49,36.45.68,1.4.02,3.28.12,4.09-.68,1.2-1.18,2.04-3.09,2.2-4.77.07-.69-1.96-2.16-3.13-2.28-2.55-.27-5.16.22-7.75.2-17.24-.11-34.47-.36-51.71-.4-16.52-.04-33.04.24-49.56.15-14.42-.07-28.84-.52-43.26-.69-13.54-.15-27.13.51-40.47-2.33v10.66ZM1112.8,687.42c0-5.25-.18-9.57.06-13.86.18-3.31-1.51-4.51-4.32-4.49-9.35.07-18.69.3-28.04.42-13.44.17-26.8,5.04-40.22.69-.96,5.68-1.93,11.38-2.92,17.23h75.45ZM1133.09,596.51c20.33-15.19,40.7-27.58,62.43-38.29-2.76-.75-5.4-.79-8.03-.74-8.02.15-16.04.38-24.05.51-9.57.15-19.15.17-28.71.48-.89.03-2.46,1.77-2.46,2.72,0,3.86.71,7.72.78,11.59.15,7.58.04,15.16.04,23.74ZM918.63,558.64c-.08,1.46-.2,2.45-.17,3.45.33,9.64.79,19.27.98,28.91.07,3.67.08,7.11,2.91,10.02.62.63.58,2.84-.04,3.58-3.93,4.7-3.35,7.75,2.06,10.38,1.11.54,1.87,1.79,2.79,2.72-1.08.95-2.18,2.73-3.23,2.7-3.67-.09-3.81,1.91-3.79,4.69.13,18.73.15,37.47.23,56.21.03,6.73.06,6.74,6.81,6.09.24-.02.46-.31,1.4-.99v-127.75h-9.96ZM1334.92,558.68c0,1.44-.03,2.57,0,3.7.33,9.77.78,19.54.95,29.31.06,3.42.32,6.49,2.81,9.18.65.7.7,3.24.19,3.54-4.12,2.46-2.17,5.93-2.09,9.15,1.03.3,2,.33,2.65.81,1.46,1.07,2.77,2.35,4.14,3.54-1.57.92-3.28,1.67-4.66,2.81-.99.81-2.2,2.15-2.2,3.26-.06,20.01.04,40.01.1,60.02,0,2.18.63,3.26,3.19,3.49,4.26.39,5.03-1.49,5.02-5.24-.09-28.19-.01-56.38,0-84.57,0-12.91,0-25.81,0-39h-10.12ZM1107.07,662.06c.02-.39.03-.78.05-1.17-.21-.19-.4-.52-.62-.54-2.14-.17-4.28-.28-6.42-.42-15.25-1.03-30.49-1.44-45.62,1.42-3.56.67-6.69-.11-8.88-3.03-2.4-3.21-5.14-6.38-6.6-10.02-3.62-9.1-6.75-18.41-9.79-27.73-2.7-8.3-5.14-16.69-7.46-25.1-1.86-6.74-3.54-13.54-4.97-20.39-1.96-9.38-3.53-18.84-5.47-28.23-.26-1.27-1.56-3.01-2.67-3.26-2.28-.51-4.75-.15-7.67-.15.86,2.34,1.67,4.27,2.29,6.26,5.18,16.58,10.28,33.19,15.5,49.76,5.75,18.24,11.72,36.41,17.36,54.68,3.42,11.07,5.06,12.44,16.51,11.57.43-.03.86-.04,1.3-.08,13.2-1.19,26.39-2.47,39.6-3.51,4.49-.35,9.03-.06,13.55-.06ZM1128.16,558.81h-9.73v87.67c3.06.17,5.44.3,8.1.44.55-29.55,1.09-58.68,1.63-88.12ZM1126.6,694.1c-7.4-1.59-8.05-1.33-8.04,3.9.05,23.43.2,46.86.2,70.28,0,1.31-1.34,2.57-1.68,3.94-.43,1.7-.48,3.5-.7,5.25,2.83.2,5.74.85,8.44.36.9-.16,1.78-3.25,1.79-5.01.12-14.2.01-28.4,0-42.6-.01-12.06,0-24.12,0-36.13ZM1336.89,693.86c0,1.66,0,3.08,0,4.51-.03,24.28-.06,48.57-.09,72.85-.01,7.15,1.06,8.13,7.95,6.88,1.09-.2,2.7-1.05,2.89-1.87.26-1.15-.54-2.57-.98-3.84-.59-1.72-1.6-3.38-1.82-5.14-.28-2.26.11-4.59.11-6.89,0-20.14-.07-40.28-.03-60.43.01-6.83-.36-7.23-8.02-6.07ZM920.46,735.44s-.06,0-.1,0c0,11.92,0,23.84,0,35.76,0,7.17,1.03,8.14,7.94,6.9,1.09-.2,2.71-1.04,2.9-1.86.26-1.15-.46-2.61-.98-3.85-.56-1.33-1.94-2.56-1.96-3.84-.1-8.2.13-16.41.16-24.61.06-15.12.02-30.24.1-45.35.01-3.09-.5-5.45-4.32-5.5-3.86-.06-3.8,2.38-3.78,5.21.09,12.38.04,24.76.04,37.14ZM989.12,771.44c3.77,1.46,5.93.29,7.35-2.5,1.75-3.43,3.53-6.86,5.05-10.4,6.31-14.72,12.52-29.47,18.76-44.22,2.43-5.74,4.91-11.46,7.23-17.25,1.39-3.45.44-4.19-3.24-3.95-4.05.27-4.46,3.24-5.46,6-2.96,8.17-5.88,16.36-9.01,24.47-1.64,4.24-3.75,8.29-5.52,12.48-2.93,6.96-5.69,13.99-8.65,20.94-2.04,4.8-4.28,9.51-6.5,14.41ZM1168.29,776.51c2.81.63,3.93-.14,3.25-2.82-.28-1.1-.49-2.23-.6-3.35-.52-5.66-.78-11.36-1.55-16.98-.95-6.94-2.34-13.82-3.49-20.73-1.98-11.88-3.97-23.75-5.85-35.64-.68-4.33-2.84-4.3-6.41-2.21,9.49,26.31,12.02,53.9,14.65,81.74ZM1052.15,650.33c2.24,3.14,3.97,4.92,7.14,4.5,3.27-.43,6.55-1.24,9.81-1.16,13.63.37,27.24,1.04,40.87,1.5.9.03,1.83-.8,2.75-1.23-.63-.82-1.17-1.75-1.94-2.41-.5-.43-1.32-.64-2.01-.67-5.29-.22-10.59-.48-15.89-.51-13.16-.07-26.32-.02-40.73-.02ZM1156.76,686.88c-.64-7.08-4.76-12.41-8.81-17.72-2.35-3.09-5.48-5.09-9.51-5.08-1.39,0-2.77.54-4.16.84.8,1.07,1.4,2.45,2.45,3.14,5.67,3.72,10.12,8.5,12.46,14.87,1.41,3.85,3.53,5.31,7.57,3.96ZM1014.5,507.52c-.76.15-1.53.3-2.29.44,4.1,24.59,7.74,49.27,15.02,73.25-4.24-24.57-8.49-49.13-12.73-73.7ZM1118.49,671.29c0,4.17.12,8.03-.04,11.89-.13,3.18,1.3,4.33,4.34,4.43,3.23.11,3.98-1.53,3.82-4.29-.1-1.72-.02-3.45,0-5.18.1-6.43-.7-7.17-8.13-6.85ZM1161.81,664.68c.26-.23.52-.47.78-.7-1.02-1.36-1.77-3.52-3.09-3.94-8.09-2.62-16.32-4.84-24.66-7.24-1,3.33-1.2,4.94,2.18,5.34,3.54.42,7.01,1.51,10.47,2.45,4.79,1.3,9.55,2.72,14.32,4.09ZM1144.44,687.13c-.83-5.34-4.83-9.45-9.84-10.33-1.07,12.24-1.44,10.74,9.84,10.33ZM1118.21,653.56c.03.58.06,1.16.09,1.74,1.98.4,3.96,1.04,5.94,1.08.8.02,1.62-1.27,2.43-1.96-1.91-.9-3.76-2.03-5.77-2.57-.69-.19-1.78,1.1-2.69,1.71Z"/>
    <path class="cls-2" d="M1525.16,552.9c14.57,0,28.43.04,42.28-.01,16.65-.07,33.3-.32,49.95-.3,14.88.01,29.76.41,44.63.39,18.79-.03,37.58-.39,56.37-.45,17.48-.05,34.97.11,52.45.2,2.42.01,4.85.21,7.27.13,1.88-.06,3.79-.75,3.92,2.32.13,2.85-1.28,3.49-3.7,3.31-.53-.04-1.09.24-1.18.26,0,10.98.08,21.7-.02,32.42-.13,13.36-.52,26.72-.58,40.08-.08,17.44.02,34.88.18,52.31.01,1.29.86,3.5,1.67,3.68,2.27.49,4.29,1.08,3.38,3.67-.49,1.38-2.5,2.23-4.51,3,0,28.6-1.48,57.56.79,87.44.49-.39-.02.36-.57.4-5.39.41-10.78,1.02-16.17.94-4.47-.06-6.02-3.31-6.03-7.41-.02-17.57-.03-35.14-.04-52.7,0-9.62,0-19.24,0-28.77h-122.63c.88,4.41,1.69,7.87,2.26,11.38,1.98,12.02,4.2,24.02,5.71,36.1,1.31,10.52,1.78,21.15,2.63,31.72.25,3.1-2.53,7.08-5.15,7.32-4.47.41-5.87-.95-6.66-5.77-1.51-9.29-3.15-18.57-4.8-27.83-2.38-13.38-4.73-26.77-7.31-40.11-.71-3.65-2.01-7.23-3.47-10.65-.47-1.1-2.33-2.24-3.58-2.27-13.3-.35-26.6-.57-39.9-.62-3.82-.01-7.64.64-12.26,1.06,0,4.91,0,10.32,0,15.73,0,21.6,0,43.19-.02,64.79,0,5.63-1.19,7.33-6.68,8.24-5.81.96-11.45-.32-16.82-1.44.63-2.75,1.39-4.6,1.42-6.47.29-19.68.48-39.35.67-59.03.06-6.33.07-12.66.1-18.99.01-2.18-.12-3.86-3.21-3.8-9.13.19-18.27.19-27.4.03-4.09-.07-6.47,1.15-8.04,5.33-4.91,13.05-10.27,25.92-15.54,38.83-3.97,9.71-8.02,19.38-12.15,29.02-.91,2.12-1.57,4.99-3.72,4.26-1.8,1.68-2.77,3.39-3.96,3.56-6.24.86-12.52,1.33-20.1,2.06,6.87-14.51,13.75-27.43,19.17-40.93,5.45-13.59,12.64-26.67,15.18-41.82h-50.79c-1.42-5.44-.66-6.32,4.53-6.34,12.13-.05,24.26-.26,36.39-.35,2.37-.02,4.81-.15,7.08.36,4.7,1.07,5.89-1.46,6.79-5.33,1.88-8.03-.58-15.64-1.68-23.4-1.29-9.1-2.6-18.21-3.62-27.35-.3-2.66.38-5.43,1.19-8.24,8.92,8.39,8.4,20.32,11.66,30.67,3.43,10.87,3.06,22.12-.64,33.07,8.37,1.86,11.46-1.03,11.54-9.53.11-11.45-4.22-21.64-8.2-31.98-2.38-6.17-5.08-12.24-7.07-18.54-.73-2.32.17-5.16.33-7.76-2.56.44-5.16.88-7.76,1.33-.25-.41-.5-.81-.75-1.22,1.7-1.7,3.16-3.79,5.15-5,2.47-1.5,2.35-3.05,1.57-5.36-3.83-11.43-7.69-22.85-11.24-34.36-2.91-9.47-5.54-19.04-8.02-28.63-1.58-6.14,2.13-10.49,10.02-11.85-.75-4.3-1.66-8.6-2.21-12.95-.47-3.69-.81-7.44-.68-11.14.1-2.77,1.04-5.51,4.63-5.77,5.61-.41,8.1.82,9.07,5.06,2.47,10.8,4.71,21.66,7.11,32.47,2.56,11.5,5.26,22.97,7.76,34.49.54,2.49.81,5.13.6,7.66-.13,1.48-1.45,2.86-2.24,4.29-1.22-.92-2.45-1.85-3.85-2.9-1.48,3.59-1.16,7.25.37,11.35,2.61,7,4.22,14.37,6.73,21.41,2.98,8.36,6.66,16.46,9.65,24.81,1.66,4.63,5.49,4.21,8.82,4.34,4.99.2,10.02-.37,15.03-.63,2.77-.14,2.51-2.11,2.5-4.04-.08-11.52-.14-23.05-.16-34.57-.02-16.05,0-32.1,0-48.59-4.46,0-9.3-.54-13.96.15-4.9.72-6.42.1-6.54-4.82-.05-2.16-.06-4.33-.04-6.49.08-8.16.37-8.93,8.3-9.03,16.26-.21,32.53.17,48.79.19,12.64.02,25.29-.19,37.93-.22,21.73-.05,43.45-.05,65.18-.06,18.71,0,37.41,0,56.12,0,14.51,0,29.02-.06,43.52.11,1.38.02,3.75,1.34,3.93,2.36.51,2.83-1.99,2.46-3.83,2.46-23.89-.04-47.77-.13-71.66-.11-21.44.02-42.88.21-64.33.22-16.98,0-33.96-.21-50.94-.26-20.72-.06-41.44-.01-62.17-.12-3.27-.02-4.45,1.31-4.09,4.42.19,1.67.23,3.37.35,5.1ZM1560.01,621.14c0,6.91-.07,14.36.12,21.8.02.71,1.6,1.92,2.54,1.99,8.23.7,16.51.87,24.7,1.81,15.68,1.81,31.78,1.21,46.43,8.94,6.28,3.31,9.04,6.58,8.71,14.02-.24,5.34-3.62,7.32-8.52,4.89-1-.5-1.7-1.6-2.7-2.12-2.99-1.55-6.06-2.95-9.1-4.41,2.23,5.89,5.13,10.71,7.18,15.87,1.26,3.17,3.06,3.51,5.9,3.49,16.79-.07,33.58.03,50.37.02,12.33,0,24.66-.13,36.98-.12,8.5.01,17,.19,25.49.28,2.31.02,4.63,0,7.31,0,0-21.76-.03-42.5.02-63.23,0-4.16-3-3.56-5.44-3.54-9.71.08-19.41.4-29.12.44-9.32.04-18.65-.26-27.97-.24-13.06.03-26.12.3-39.18.3-12.48,0-24.97-.25-37.45-.3-10.59-.04-21.18.06-31.76.09-8.01.02-16.02,0-24.51,0ZM1566.49,596.69c.22.5.44,1.01.66,1.51,5.66,0,11.32.07,16.98-.02,12.89-.21,25.77-.57,38.66-.73,15.94-.2,31.89-.29,47.84-.37,9.57-.05,19.15-.01,28.72.06,6.13.04,12.26.31,18.38.3,11.12,0,22.24-.25,33.35-.13,3.38.04,5.03-.64,5.09-4.42.17-10.36.53-20.71,1.1-31.05.15-2.72-.46-3.52-3.19-3.56-11.29-.16-22.57-.75-33.86-.77-24.09-.03-48.18.19-72.26.32-2.54.01-5.4-.65-7.57.27-8.06,3.41-16.06,7.04-23.77,11.15-16.81,8.96-33.43,18.26-50.13,27.42ZM1559.86,613.29c10.06,0,19.28.06,28.5-.01,12.71-.11,25.42-.43,38.14-.43,7.16,0,14.33.74,21.49.65,10.43-.13,20.85-.92,31.28-1.05,11.25-.13,22.51.19,33.77.28,10.88.09,21.75.13,32.63.18,2.54.01,5.22.5,7.55-.2,1.25-.38,2.37-2.75,2.56-4.34.09-.78-2-2.53-3.21-2.63-4.14-.35-8.32-.17-12.49-.19-7.48-.03-14.95-.11-22.43-.08-12.5.05-25,.21-37.5.23-10.05.02-20.1-.11-30.15-.14-12.01-.04-24.02,0-36.03-.08-4.71-.04-9.42-.38-14.14-.51-13.26-.38-26.53-.73-39.98-1.1v9.44ZM1621.42,559.09c-.03-.38-.06-.76-.1-1.13-1.51-.18-3.01-.54-4.52-.52-18.45.27-36.89.66-55.34.85-3.02.03-3.47,1.03-3.31,3.85.56,10.04.76,20.11,1.13,30.16.04,1.15.28,2.29.45,3.71,19.65-14.64,39.89-27.06,61.68-36.91ZM1760.88,558.68c0,1.5-.03,2.63,0,3.76.34,9.92.52,19.84,1.14,29.74.18,2.81,1.73,5.51,2.47,8.31.35,1.31.79,3.65.28,3.95-2.69,1.55-2.24,3.8-2.45,6.27-.33,3.95,3.13,2.99,4.73,4.39.94.83,1.66,1.93,2.47,2.9-1.03.84-2.06,2.4-3.08,2.39-3.41-.03-3.96,1.57-3.93,4.55.2,19.29.27,38.59.28,57.88,0,2.82.26,4.84,3.8,4.71,3.26-.12,4.42-1.53,4.41-4.84-.07-33.53,0-67.06.01-100.59,0-7.72,0-15.43,0-23.42h-10.14ZM1612.57,687.26c-.88-2.06-1.09-3.97-2.14-4.77-4.54-3.42-8.93-7.62-14.12-9.5-10.47-3.8-21.64-4.33-32.78-4.16-2.62.04-3.55,1.13-3.46,3.66.13,3.74.25,7.5.02,11.22-.19,3.02,1.27,3.78,3.83,3.72,3.44-.08,6.89-.16,10.33-.17,12.48-.02,24.95,0,38.32,0ZM1468.54,543.46c.88,2.5,1.7,4.59,2.36,6.73,3.37,10.98,6.59,22,10.05,32.94,4.71,14.91,9.62,29.76,14.38,44.65,3.15,9.87,6.12,19.79,9.28,29.66,2.22,6.91,4.61,8.74,11.63,8.38,6.17-.31,12.34-1,18.46-1.85,1.44-.2,2.7-1.68,4.05-2.57-1.63-.62-3.3-1.84-4.88-1.73-4.15.29-8.26,1.65-12.37,1.61-2.73-.03-6.13-1.02-8.02-2.84-2.92-2.82-5.51-6.44-7-10.2-3.65-9.23-6.7-18.7-9.77-28.14-2.66-8.16-5.14-16.39-7.45-24.66-1.87-6.73-3.55-13.53-4.98-20.36-1.96-9.37-3.53-18.83-5.47-28.21-.26-1.27-1.57-3.02-2.67-3.26-2.28-.51-4.75-.15-7.61-.15ZM1543.7,558.67c.17,3.42.44,6.56.45,9.7.12,23.45.21,46.91.28,70.36.02,7-.01,7.01,6.87,6.27.4-.04.76-.33,1.2-.52.54-28.6,1.08-57.17,1.62-85.81h-10.43ZM1552.55,694.06c-7.52-1.07-8.06-.8-8.05,4.25.07,23.32.21,46.65.2,69.97,0,1.31-.89,2.83-1.78,3.9-1.61,1.9-2.58,4.33-.13,5.32,2.46,1,5.7.77,8.37.12.87-.21,1.41-3.42,1.41-5.27.07-18.83,0-37.66-.03-56.49-.01-7.3,0-14.6,0-21.8ZM1762.82,693.46c0,1.43,0,2.69,0,3.96-.02,24.59-.03,49.19-.06,73.78,0,7.16,1.06,8.15,7.94,6.91,1.1-.2,2.72-1.05,2.91-1.87.26-1.15-.53-2.57-.97-3.85-.59-1.72-1.62-3.37-1.84-5.13-.28-2.26.11-4.6.11-6.9,0-20.45,0-40.89-.03-61.34,0-1.81-.27-3.63-.42-5.56h-7.64ZM1538.66,686.49c0-2.94.02-5.65,0-8.36-.07-8.1-.06-7.82-8.32-7.16-7.44.59-15.08,3.37-22.42-1.54-.78,4.61-1.1,8.89-2.3,12.92-1.17,3.91.25,4.98,3.74,4.97,8.6-.04,17.19-.05,25.79-.13,1.1-.01,2.19-.42,3.52-.69ZM1456.72,771.5c4.28,1.53,6.23-.37,7.64-3.16,1.02-2.03,1.95-4.12,2.81-6.22,3.53-8.6,6.82-17.31,10.56-25.82,4.99-11.35,10.4-22.52,15.45-33.84,1.15-2.59,1.57-5.5,2.36-8.35-7.07-.76-7.54-.44-9.27,5.3-1.44,4.79-2.62,9.71-4.5,14.32-3.01,7.37-6.6,14.51-9.79,21.82-3.83,8.76-7.5,17.58-11.23,26.38-1.32,3.11-2.62,6.23-4.02,9.58ZM1635.81,776.55c2.49.47,3.95.14,3.26-2.73-.26-1.1-.53-2.22-.63-3.35-.51-5.65-.71-11.35-1.49-16.96-1.35-9.61-3.01-19.18-4.61-28.76-1.53-9.18-3.03-18.38-4.8-27.52-.76-3.92-2.16-4.39-6.6-2.94,9.67,26.41,12.18,54.13,14.86,82.26ZM1629.33,664.69c.28-.29.56-.59.84-.88-1.31-1.42-2.38-3.65-3.97-4.14-7.65-2.34-15.34-5.05-23.22-6.05-13.18-1.67-26.51-2.18-39.79-3.03-.98-.06-2.03,1.06-3.05,1.63.91.64,1.78,1.74,2.74,1.83,5.86.57,11.79.59,17.61,1.38,11.95,1.63,23.87,3.48,35.75,5.56,4.44.78,8.73,2.44,13.08,3.7ZM1624.27,686.89c-.77-7.41-5.07-12.81-9.23-18.27-3.35-4.39-8.36-4.58-13.21-5.22-1.13-.15-2.2-.76-3.33-.88-3.64-.37-7.29-.62-10.94-.91-.03.38-.05.75-.08,1.13,2.91.72,5.81,1.43,8.72,2.15,9.8,2.41,16.47,8.63,20.34,17.67,1.55,3.63,3.3,5.51,7.72,4.33ZM1482.17,507.44c-3.32,4.3,8.58,66.81,12.7,73.35-2.17-12.12-4.44-24.45-6.58-36.8-2.11-12.17-4.09-24.37-6.13-36.55ZM1552.54,678.21s.08,0,.11,0c0-1.57.04-3.15-.01-4.72-.07-2.06.52-4.64-3.06-4.22-2.76.32-5.56.35-5.21,4.46.25,2.98.09,6,.06,9-.02,2.48.18,4.67,3.52,4.64,3-.03,5.07-.82,4.62-4.46-.19-1.55-.03-3.14-.03-4.71ZM1520.03,650.53c1.71,2.98,3.53,4.62,6.6,4.29,3.25-.35,6.51-.73,9.72-1.32.85-.16,1.54-1.14,2.31-1.74-.76-.41-1.52-1.16-2.29-1.17-5.21-.1-10.43-.05-16.35-.05ZM1574.64,661.46c0-.39,0-.78.01-1.17h-14.19v1.17h14.18ZM1548.18,658.45c-1.37,1.01-2.42,1.8-3.48,2.58.91.69,1.89,2.04,2.7,1.95,1.73-.19,3.37-1.14,5.05-1.77-1.26-.81-2.52-1.62-4.28-2.75ZM1544.61,651.01c1.16,3.95,4.09,2.47,6.37,2.43.5,0,.98-1.06,1.47-1.64-1.76-.42-3.51-.93-5.29-1.21-.75-.12-1.59.24-2.55.42Z"/>
    <path class="cls-2" d="M887.47,160.43c-5.63.05-11.25.05-16.88.21-5,.14-10,.46-14.99.7-.03.64-.05,1.28-.08,1.92,5.27,2.25,11.06.38,16.54.91,5.61.55,11.26.6,16.9.87-4.61,2.11-7.67,4.43-9.2,7.18,4.55-1.38,9.28-1.61,13.89-.9.72-1.44.47-3.38.33-5.15-.45-5.81-.62-5.8-6.5-5.75Z"/>
    <path class="cls-2" d="M888.94,433.47c-8.03.12-16.07.21-24.1.28-3.64.03-7.28,0-11.01,0v-201.67c1.14-.69,2.24-1.35,3.33-2-.18-.92-.37-1.84-.56-2.76-.86.33-1.86.56-2.87.96-.22-2.27-.49-3.83-.5-5.4-.03-3.91-.06-7.83-.09-11.74-.25-2.4-.26-4.76-.05-7.07-.11-15.89-.21-31.78-.39-47.67-.12-11.08-.5-22.16-.77-33.23-.05-2.26-.18-4.43,3.15-4.37,7.73.14,15.46.19,23.19.24,4.97.03,9.95,0,15.03,0,.47-4.36-2.41-3.73-4.75-3.73-12.07-.02-24.14,0-36.32,0v-11.7c12.52,0,24.67-.06,36.82.05,2.54.02,4.72.16,4.77-3.24.05-3.05-2.16-3-4.19-3-8.99,0-17.98.06-26.96.13-18.64.15-37.28.35-55.92.48-22,.15-44.01.23-66.01.36-7.76.05-15.52.27-23.28.23-9.34-.05-18.69-.19-28.02-.49-8.67-.28-17.33-.98-26-1.12-2.17-.04-5.3.7-6.31,2.2-1.48,2.2-1.89,5.4-1.98,8.2-.5,14.19-.75,28.39-1.07,42.58-.05,2.31,0,4.61,0,6.92-.52,0-1.04,0-1.56,0v-53.3c-.46,0-.93,0-1.39,0-.14,1.07-.39,2.15-.4,3.22-.07,27.34-.17,54.68-.14,82.01.04,29.8.31,59.6.28,89.4-.02,28.74-.29,57.49-.46,86.23-.13,21.79-.29,43.58-.41,65.36-.01,2.65-.03,5.21,4.06,4.98,1.57-.09,3.25,1.46,4.86,2.28,2.21,1.13,4.36,3.14,6.63,3.29,7.27.48,14.59.28,21.9.33,10.87.08,21.74.22,32.62.19,13.07-.04,26.14-.35,39.21-.33,19.48.03,38.96.26,58.44.38,5.99.04,11.98,0,17.99,0,.17,1.5.1,2.26.36,2.89.55,1.36,1.27,2.66,1.91,3.98.6-1.4,1.01-2.92,1.85-4.15.81-1.19,1.98-2.79,3.15-2.94,2.52-.33,5.14.27,7.72.28,13.07.09,26.14.04,39.2.21,3.01.04,3.1-1.59,3.25-3.81.22-3.21-1.46-3.99-4.19-3.95ZM803.3,160.51c-.05.81-2.36,2.1-3.63,2.11-11.38.07-22.75-.1-34.13-.2-24.32-.2-48.65-.37-72.97-.62-8.5-.09-17-.39-25.5-.53-2.06-.03-4.62-.69-4.58,2.84.04,3.12,1.88,3.8,4.57,3.73,13.68-.35,27.37-.73,41.06-.92,13.9-.19,27.81-.15,41.71-.26,9.02-.07,18.04-.25,27.07-.36,7.84-.09,15.68-.08,23.51-.26,2.34-.05,2.92.75,2.87,3.03-.42,20.58-.83,41.17-1.01,61.76-.24,27.94-.25,55.88-.41,83.83-.18,29.93-.51,59.86-.58,89.78-.02,9.57.58,19.15.91,29.22h-142.04c3.04-6.41,5.69-12.79,8.97-18.83-2.21-2.8-4.03-5.92-5.4-9.29-.35.5-.72,1-1.07,1.51-.33-.12-.65-.25-.98-.37,0-2.61,0-5.23,0-7.84-.45-2.11-.73-4.27-.83-6.47-.11-2.56.2-5.22.83-7.87,0-4.66,0-9.33.02-13.99-1.27-3.72-1.97-7.61-1.97-11.43,0-12.4.53-24.93-.29-37.31-.39-5.86.35-11.27,2.05-16.23-.44-53.84-.87-107.23-1.3-160.59h143.29c0,5.04.16,10.31-.17,15.55ZM804.61,138.48h-144.58c0-3.92-.23-7.88.18-11.78.09-.88,2.39-2.18,3.69-2.19,14.41-.12,28.82-.01,43.23,0,25.5.02,51,.08,76.5-.01,5.29-.02,10.58-.49,15.84-1.03.92-.1,1.7-1.6,2.55-2.46-.26-.51-.53-1.02-.79-1.53h-141.19c-.41-6.16-.75-11.26-1.1-16.4,8.27,0,17.04-.02,25.81,0,27.05.08,54.1.22,81.16.25,11.53.01,23.06-.11,34.58-.36,3.19-.07,4.26.9,4.2,4.18-.19,10.59-.07,21.19-.07,31.33ZM809.5,103.35c.68,1.49,1.96,2.98,1.96,4.47.14,25.76.16,51.53.13,77.3-.04,33.09-.16,66.19-.25,99.28,0,.55-.08,1.1-.12,1.64-.45-.06-.9-.12-1.34-.19,0-18.95.16-37.9-.04-56.85-.24-22.42-.79-44.84-1.19-67.26-.32-18.07-.64-36.15-.81-54.23-.01-1.38,1.09-2.78,1.67-4.17ZM836.29,429.69c.03,2.3-.6,3.9-3.28,3.89-8-.01-16,0-25.25,0,1.45-.99,2.37-2.02,2.81-1.85,4.59,1.78,4.91-1.14,4.88-4.33-.14-13.53-.39-27.07-.49-40.6-.16-20.41-.25-40.83-.34-61.24-.12-29.19-.25-58.37-.27-87.56-.02-30.2.1-60.41.12-90.61,0-12.49-.06-24.98-.14-37.46-.04-6.53.27-6.84,6.67-6.73,4.87.09,9.75.02,14.99.02v141.68c-3.76-.76-6.14-.05-6.82,3.72-.13.7-1.87,1.35-2.96,1.57-1.51.31-3.25-.15-4.63.38-1.09.42-1.78,1.85-2.65,2.83,1.12.55,2.19,1.38,3.37,1.58,1.97.34,4.01.27,6.33.39.4,8.55.83,16.99,1.17,25.43.62,15.51,1.17,31.03,1.83,46.54.05,1.07.71,2.1,1.09,3.16.46-.06.92-.13,1.38-.19.28-4.6.55-9.2.83-13.8.36,0,.71-.01,1.07-.02,0,7.88-.06,15.77.01,23.65.13,14.24.43,28.48.49,42.72.03,7.23-.41,14.47-.44,21.71-.04,8.38.11,16.76.22,25.13ZM843.12,215.69c-.33,41.73-.25,83.47-.44,125.2-.11,24.7-.39,49.41-.57,74.11-.05,6.17,0,12.34-.69,18.6-2.88-2.59-2.29-6.04-2.28-9.18.08-14.16.41-28.32.53-42.48.07-8.03-.15-16.05-.14-24.08.02-13.45.13-26.89.16-40.34.04-18.67.05-37.35.05-56.02,0-15.62-.03-31.25-.05-46.87-.02-21.41-.04-42.83-.04-64.24,0-13.83.04-27.66.05-41.5,0-1.7,0-3.4,0-5.33,3.79-.8,5.01.28,4.95,3.68-.6,36.14-1.26,72.29-1.54,108.44Z"/>
    <path class="cls-2" d="M.56,688.11c8.17-.17,563.37-.26,571.54-.23,8.71.03,17.43.29,26.13.17,1.12-.02,2.89-1.53,3.2-2.66,1.57-5.82,2.27-11.63,1.14-17.81-2.19-12-3.74-24.13-5.33-36.23-.34-2.6.29-5.32.48-7.99.37-.23.74-.46,1.11-.69,1.48,1.84,3.74,3.47,4.31,5.55,4.33,15.72,10.64,31.15,8.64,47.98-.43,3.67-1.53,7.27-2.32,10.9,6.74,2.9,11.38-1.2,11.51-9.68.17-11.59-4.19-21.94-8.26-32.4-2.4-6.17-5.06-12.25-7.06-18.54-.71-2.22.18-4.95.34-7.55-2.41.33-5.08.69-7.74,1.05-.21-.42-.41-.85-.62-1.27,1.65-1.63,3.08-3.62,5.01-4.79,2.45-1.48,2.36-3.05,1.59-5.37-3.83-11.43-7.69-22.85-11.24-34.37-2.92-9.47-5.56-19.03-8.03-28.63-1.57-6.1,2.17-10.46,10.03-11.86-.78-4.44-1.73-8.89-2.31-13.38-.46-3.54-.74-7.16-.59-10.72.12-2.77,1.06-5.51,4.64-5.76,5.64-.39,8.09.83,9.06,5.08,2.47,10.8,4.71,21.66,7.11,32.48,2.56,11.5,5.25,22.98,7.76,34.49.51,2.35.87,4.86.63,7.22-.17,1.63-1.48,3.15-2.28,4.71-1.22-.93-2.45-1.86-4.16-3.16,0,3.32-.69,6.86.14,10,2.04,7.78,4.56,15.44,7.27,23.02,2.94,8.22,6.44,16.24,9.45,24.43,1.92,5.21,6.29,4.81,10.28,4.68,14.05-.43,28.1-1.14,42.15-1.73.86-.04,1.73-.04,2.6.02,9.25.59,9.52.59,9.56-8.79.06-14.8-.34-29.61-.45-44.41-.08-10.89-.02-21.78-.02-33.52-4.26.22-9.12.05-13.82.82-4.57.76-6.2-.03-6.33-4.65-.05-1.87-.05-3.75-.04-5.62.06-9.75.5-10.31,10.25-10.26,15.83.07,31.65.44,47.48.45,18.12.01,36.23-.34,54.35-.35,28.77-.02,57.54.13,86.31.18,5.18,0,10.36-.31,15.53-.13,1.29.04,3.45,1.26,3.62,2.22.43,2.46-1.62,2.86-3.69,2.84-13.94-.13-27.89-.31-41.83-.31-25.48,0-50.96.19-76.43.17-27.91-.02-55.83-.18-83.74-.29-5.14-.02-5.37.26-5.04,7.25.03.7.28,1.39.44,2.14h209.24c1.46,3.42,0,4.89-3.33,4.88-15.77-.04-31.54-.19-47.31-.21-11.45-.01-22.93.69-34.34.02-11.63-.69-20.35,6.1-29.92,10.37-12.04,5.37-23.52,12.03-35.07,18.45-6.1,3.39-11.82,7.45-17.55,12.07,1.33,0,2.66.02,3.99,0,21.61-.32,43.22-.61,64.83-.97,9.65-.16,19.29-.55,28.94-.65,7.14-.07,14.28.19,21.43.22,7.56.03,15.12-.12,22.68-.06,7.67.06,15.35.42,23.02.36,3.5-.03,3.57,1.98,3.62,4.46.05,2.7-1.05,3.89-3.86,3.88-11.49-.02-22.98.12-34.48.13-11.5,0-22.99-.02-34.49-.14-11.35-.12-22.7-.45-34.04-.55-14.85-.13-29.7.02-44.54-.26-7.98-.15-15.95-.95-24.3-1.48v9.58c7.94,0,15.43,0,22.92,0,10.12.02,20.24.04,30.37.07,8.75.03,17.49.15,26.24.14,11.72-.01,23.44-.17,35.16-.16,10.15,0,20.3.2,30.45.2,8.55,0,17.11-.1,25.66-.26,4.32-.08,6.71,3.18,4.83,7.1-.35.72-1.81,1.28-2.76,1.29-11.21.12-22.42.19-33.63.14-12.62-.06-25.23-.32-37.85-.36-10.48-.04-20.95.23-31.43.16-13.2-.09-26.39-.45-39.59-.58-9.87-.1-19.75-.02-30.06-.02,0,8.2-.15,16.5.2,24.79.04,1,2.72,2.39,4.35,2.72,8.41,1.7,17.01,2.63,25.3,4.76,10.5,2.71,14.55,7.55,14.35,15.87-.05,2.08-1.06,5.72-2.06,5.88-2.56.4-5.54-.35-8.03-1.39-3.45-1.45-6.6-3.59-10.34-4.59,2.81,6.01,5.38,12.16,8.64,17.93.69,1.22,3.88,1.38,5.93,1.41,12.16.16,24.32.22,36.48.13,12.55-.09,25.1-.47,37.65-.57,7.71-.06,15.42.22,23.13.23,9.29.02,18.59-.08,27.88-.12,3.43-.01,6.86,0,10.27,0,1.94,4.13,1.05,5.61-3.2,5.6-16.79-.03-33.57.06-50.36-.07-8.86-.07-17.72-.74-26.57-.73-13.18.02-26.35.43-39.53.6-6.4.09-12.8.01-19.79.01.78,4.03,1.58,7.75,2.21,11.5,2.01,11.87,4.31,23.71,5.82,35.65,1.38,10.95,1.87,22,2.73,33.02.22,2.85-2.63,6.8-5.03,7.08-4.45.52-6.02-.88-6.8-5.63-1.55-9.43-3.19-18.84-4.86-28.25-2.38-13.38-4.7-26.77-7.3-40.11-.74-3.78-2.25-7.44-3.64-11.06-.33-.87-1.5-1.73-2.44-1.99-1.62-.44-3.38-.63-5.06-.52-9.97.62-9.97.66-9.97,10.69,0,23.33-.02,46.65,0,69.98,0,7.23-1.37,9.31-8.47,9.68-5,.26-10.07-.8-14.19-1.18.17-4.81.36-8.51.42-12.22.3-17.95.6-35.9.83-53.85.09-7.43.02-14.86.02-22.62-7.37,0-14.15.06-20.94-.01-16.49-.17-32.98-.32-49.47-.66-2.94-.06-4.26.9-5.35,3.65-4.62,11.63-9.61,23.11-14.35,34.69-4.68,11.43-9.16,22.94-13.88,34.35-.99,2.39-1.01,6.31-4.29,5.26-1.54,1.68-2.32,3.32-3.39,3.55-4.64.96-9.14,3.47-14.17,1.21-1.42-.64-3.38-.1-5.95-.1,13.2-26.6,25.53-53.2,34.85-81.74-2.87-.45-4.66-.99-6.46-.97-6.13.06-12.26.4-18.39.47-8.05.09-563.12.04-571.16,0-1.13,0-2.44-.03-3.34-.58M624.3,687.47c1.39.18,2.74.52,4.09.5,8.84-.1,17.68-.45,26.52-.4,12.19.07,24.38.44,36.56.62,3.07.05,5.28-.8,4.92-4.71-.3-3.28-.17-6.62.02-9.92.18-3.2-.71-4.78-4.32-4.57-14.21.82-28.43,1.51-42.65,2.1-7.33.3-14.83,3.26-21.96-1.61-1.08,6.12-2.09,11.81-3.18,17.99ZM716.65,596.51c20.33-15.18,40.7-27.58,62.43-38.28-2.76-.74-5.39-.78-8.01-.74-8.02.15-16.03.36-24.05.49-9.57.15-19.14.29-28.71.33-2.49.01-2.81,1.17-2.58,3.29.43,3.85.81,7.72.88,11.58.13,7.44.04,14.88.04,23.33ZM694.18,662.02c0-.56,0-1.13.01-1.69-2.02-.09-4.04-.13-6.06-.28-15.82-1.22-31.58-1.42-47.34,1.26-2.46.42-6.02-1.16-7.94-2.99-2.83-2.71-5.32-6.22-6.76-9.85-3.66-9.23-6.79-18.68-9.87-28.13-2.66-8.16-5.08-16.41-7.37-24.69-1.9-6.88-3.63-13.81-5.1-20.79-1.94-9.23-3.48-18.55-5.39-27.79-.27-1.32-1.47-3.2-2.54-3.44-2.38-.52-4.95-.16-7.88-.16.91,2.41,1.71,4.23,2.3,6.11,5.17,16.58,10.25,33.19,15.47,49.76,5.57,17.69,11.39,35.29,16.83,53.01,4.2,13.67,5.67,14.59,19.95,13.14,14.32-1.45,28.69-2.37,43.04-3.43,2.86-.21,5.75-.03,8.63-.03ZM701.33,558.73c.16,3.33.42,6.33.43,9.33.12,24.04.18,48.08.31,72.11.04,6.7,1.39,7.61,8.05,5.73.53-28.98,1.07-57.99,1.6-87.18h-10.39ZM710.26,735.55s-.05,0-.08,0c0-12.81,0-25.61,0-38.42,0-4-1.45-4.93-5.38-4.09-3.46.74-2.65,3.4-2.64,5.47.03,23.31.2,46.63.19,69.94,0,1.29-1.52,2.51-1.84,3.87-.4,1.7-.3,3.52-.41,5.29,2.84.13,5.78.7,8.48.12.89-.19,1.6-3.34,1.62-5.14.14-12.35.07-24.7.07-37.06ZM616.18,693.47q-8.46-.67-10.47,6.18c-.12.41-.21.84-.36,1.24-2.78,7.48-5.47,14.99-8.39,22.42-1.72,4.37-3.87,8.56-5.69,12.89-2.82,6.69-5.47,13.46-8.31,20.14-2.15,5.04-4.5,10-6.76,14.99l1.3,1.37c1.87-1.04,4.45-1.62,5.47-3.21,2.37-3.7,4.15-7.81,5.88-11.87,5.22-12.23,10.25-24.53,15.44-36.76,3.83-9.01,7.79-17.97,11.88-27.39ZM755.23,776.55c2.84.62,4.18.02,3.31-2.99-.31-1.08-.46-2.22-.56-3.35-.49-5.52-.71-11.08-1.47-16.56-.97-6.93-2.53-13.78-3.54-20.71-1.2-8.23-1.91-16.54-3.19-24.76-.68-4.38-1.88-8.72-3.33-12.92-.35-1.03-2.58-1.41-3.95-2.08-.44,1.16-1.46,2.47-1.21,3.46.74,2.91,2.23,5.62,2.99,8.53,6.13,23.27,9.05,47.05,10.94,71.38ZM716.93,663.49c1.69,1.36,2.6,2.41,3.75,2.98,7.6,3.7,12.98,9.42,15.91,17.34,1.33,3.6,3.26,5.29,7.01,3-2.55-13.49-11.04-25.01-26.67-23.32ZM640.06,651.07c1.07,2.75,3.21,3.99,6.21,3.73,3.71-.32,7.41-1.15,11.11-1.12,11.63.1,23.26.55,34.89.7,1.36.02,2.73-.96,4.1-1.48-1.29-.6-2.56-1.27-3.89-1.78-.5-.19-1.14-.05-1.71-.05-16.84,0-33.68,0-50.71,0ZM601.52,507.51c-.8.16-1.61.32-2.41.48,4.41,24.52,7.74,49.24,15.15,73.17-4.25-24.55-8.49-49.1-12.74-73.65ZM702.08,687.65h8.09c0-4.92.42-9.79-.28-14.49-.19-1.26-3.72-2.16-5.83-2.89-.37-.13-1.87,1.33-1.9,2.09-.18,4.96-.09,9.92-.09,15.3ZM718.37,652.36c-1.26,4.11.04,5.12,2.71,5.57,4.93.84,9.84,1.85,14.71,3.03,4.44,1.08,8.81,2.47,13.59,3.83-1.18-3.47-.96-4.1-7.28-6.31-7.62-2.66-15.66-4.1-23.73-6.12ZM732.29,687.57c-2.11-7.24-7.73-10.41-14.27-13.77v13.77h14.27ZM706.02,650.39c-1.78,1.44-2.81,2.28-3.84,3.11,1.55.87,3.02,2.09,4.68,2.47.95.22,2.21-.93,3.34-1.46-1.22-1.2-2.44-2.41-4.18-4.12Z"/>
    <path class="cls-2" d="M1422.56,83.89c-37.61-.46-74.14-.91-111.08-1.37,0,9.29-.02,19.29,0,29.29.07,38.59.12,77.17.25,115.76.06,17.07.45,34.13.42,51.2-.04,26.43-.38,52.86-.48,79.28-.11,28.07-.07,56.15-.16,84.22-.01,4.15-.33,8.29-.58,12.44-.14,2.33.47,3.19,3.18,3.13,9.98-.19,19.97.02,29.95.04,4.14,0,8.28-.14,12.42-.14,19.88-.03,39.76-.09,59.63-.04,7.13.02,6.66,3.6,6.11,7.94-.31,2.48-1.58,3.37-4.04,3.39-13.63.12-27.26.37-40.89.56-13.89.19-27.79.6-41.67.42-7.81-.1-15.61-1.27-23.42-1.81-1.07-.07-2.48.37-3.26,1.08-2.11,1.93-4.22,1.39-4.8-.78-.73-2.75-2.15-5.24-1.95-8.5.39-6.58-.25-13.23-.8-19.83-.07-.87-2.06-2.21-3.21-2.26-7.3-.33-14.61-.4-21.91-.46-6.15-.05-12.31.08-18.46.08-14.98-.01-29.96-.16-44.94-.06-12.15.08-24.29.63-36.43.64-15.8.02-31.61-.37-47.41-.43-11-.04-22.01.27-33.01.22-11.03-.05-22.06-.44-33.1-.52-9-.06-18,.13-27,.19-2.55.02-3.97.83-3.88,3.8.16,5.47-.05,10.94-.05,16.42,0,3.17-1,5.6-4.25,6.77-.81.29-1.38,1.21-2.13,1.74-1.53,1.08-3.04,2.86-4.67,3-8.4.7-16.84,1.08-25.27,1.36-16,.54-32,1.21-48,1.32-13.64.09-27.28-.54-40.92-.83-1.98-.04-3.95,0-6.05,0-.17-.74-.38-1.28-.42-1.82-1-13.44-1-13.51,12.22-13.78,15.12-.31,30.24-.82,45.35-.61,15.26.21,30.52,1.19,45.77,1.88,4.67.21,9.33.59,14.86.95,0-5.77,0-11.6,0-17.43.03-38.63-.06-77.26.13-115.89.16-31.61.63-63.21.99-94.81.22-20.01.17-40.04.81-60.04.8-25.02,2.14-50.02,3.35-75.02.12-2.46,1.1-4.87,1.52-7.33.41-2.38.75-4.84-3.04-4.51-4.38.39-8.76.84-13.16,1.02-6.88.28-13.77.44-20.66.49-14.09.09-28.18.13-42.28.08-14.53-.05-29.06-.16-43.59-.45-1.26-.02-3.41-1.4-3.56-2.39-.32-2.12.44-4.35,3.4-4.43,3.02-.08,6.04-.25,9.07-.26,9.85-.04,19.71-.16,29.55,0,8.55.14,17.1.74,25.66.88,5.43.09,10.87-.61,16.29-.4,8.92.34,17.87-1.17,26.79.97,5.56,1.34,11.35,1.7,17.92,2.63.23,5.94.55,12.9.75,19.87.59,20.96,1.24,41.92,1.67,62.88.32,15.8.32,31.61.5,47.42.18,15.65.47,31.3.6,46.95.15,18.64.18,37.28.28,55.92.09,16.98.22,33.95.3,50.93.1,20.98.24,41.96.15,62.93-.01,3.27,1.09,4.44,4.11,4.43,13.64-.06,27.28-.15,40.91-.13,8.46.02,16.91.32,25.37.34,12.77.03,25.54-.13,38.31-.11,20.61.05,41.21.28,61.82.24,11.89-.02,23.77-.53,35.66-.64,8.18-.07,16.35.21,24.53.25,8.9.04,17.8.02,26.7-.04,3.7-.02,8.4,1.09,10.77-.74,1.88-1.45,1.13-6.6,1.16-10.11.09-10.04-.04-20.09-.04-30.14,0-16.95.06-33.9.02-50.84-.05-20.41-.22-40.82-.27-61.23-.06-24.17-.16-48.34-.04-72.51.19-40.6.53-81.2.81-121.8.05-6.45,1.58-7.48,7.57-5.48,1.41.47,3.01.53,4.52.48,17.15-.47,34.29-1,51.44-1.52,7.3-.22,14.6-.63,21.9-.7,10.61-.1,21.23.11,31.84.05,4.83-.03,2.52,3.3,3.57,6.32Z"/>
    <path class="cls-2" d="M1711.61,437.71c0,6.17-.02,12.77.01,19.36.02,3.22-1.4,5.16-3.87,7.52-8.41,8.03-18.79,5.16-28.42,6.08-7.4.71-14.89.68-22.33.7-15.6.03-31.21-.18-46.81-.19-9.75,0-19.51.45-29.25.22-9.15-.22-18.28-1.25-27.43-1.59-5.57-.2-11.16.42-16.74.33-7.4-.13-14.8-.76-22.2-.86-6.58-.09-13.17.35-19.76.39-11.31.06-22.63,0-33.94-.04-10.04-.05-20.09-.31-30.13-.15-2.78.04-3.54-1.05-3.87-3.35-1.02-7.14.22-8.68,7.03-8.69,22.69-.03,45.38,0,68.07-.16,10.48-.07,20.96-.66,31.44-.75,4.63-.04,9.27.77,13.91.85,2.8.05,5.6-.72,8.41-.84,13.88-.56,27.75-1.19,41.64-1.48,13.4-.28,26.82-.37,40.22-.15,13.97.22,27.94.82,41.91,1.43,5.95.26,11.89.95,18.67,1.52,0-7.93,0-15.8,0-23.67,0-36.76-.12-73.51.04-110.27.16-36.5.5-72.99.99-109.48.33-24.9.89-49.79,1.68-74.68.52-16.25,1.62-32.48,2.47-48.72.02-.43.01-.88.13-1.29,2.1-7.29,2.11-7.41-5.51-7.27-2.97.05-5.91,1-8.89,1.14-7.02.34-14.04.57-21.07.62-14.09.11-28.18.13-42.28.1-32.39-.09-64.78-.26-97.17-.34-14.4-.03-28.8.19-43.2.1-12.5-.08-24.99-.53-37.49-.63-5.61-.04-11.21.37-16.82.58-2.39.09-4.32-.26-4.35-3.36-.03-3.16,1.89-3.29,4.3-3.29,9.37,0,18.73-.25,28.1-.15,12.41.14,24.82.58,37.23.78,2.97.05,5.95-.45,8.92-.45,10.97,0,21.93.16,32.9.12,8.15-.03,16.3-.48,24.45-.41,12.01.1,24.02.71,36.02.69,10.43-.02,20.85-.77,31.28-.91,10.28-.14,20.57.16,30.86.11,6.39-.03,12.79-.56,19.18-.44,3.26.06,6.48,1.14,9.74,1.64,5.54.85,11.1,1.6,17.57,2.52.08,1.72.25,4.5.34,7.29.43,13.65.92,27.3,1.25,40.96.62,25.84,1.27,51.68,1.67,77.52.32,20.53.27,41.07.4,61.61.11,17.16.3,34.33.35,51.49.05,16.42-.11,32.84-.06,49.26.07,19.84.32,39.68.36,59.52,0,2.62.82,3.6,3.44,3.6,11.94.01,23.87.2,35.81.21,9.34.01,18.67-.22,28.01-.11,1.07.01,2.11,1.55,3.17,2.38-.95,1.01-1.86,2.83-2.86,2.89-5.55.32-11.13.24-16.7.25-12.18,0-24.37-.01-36.55-.02-4.53,0-9.07,0-14.25,0Z"/>
    <path class="cls-2" d="M1.16,432.32c5.44-.32,557.93-.12,563.38-.12,15.48-.02,30.95-.05,46.43-.07,1.87,0,3.76-.06,5.62.13,3.87.4,5.25-1.05,5.21-5.1-.21-21.09-.17-42.19-.19-63.29-.03-31.06,0-62.12-.07-93.18-.04-21.29-.35-42.59-.26-63.88.17-40.89.52-81.78.83-122.67.04-5.6,1.72-6.69,6.9-5.11,1.83.56,3.86.78,5.78.71,15.43-.57,30.85-1.55,46.29-1.81,15.31-.26,30.64.28,45.96.26,8.9-.01,17.8-.63,26.7-.63,12.78,0,25.57.4,38.35.47,4.99.03,9.99-.53,14.98-.52,10.12.02,20.24.36,30.37.33,7.95-.02,15.89-.48,23.84-.56,10.7-.1,21.4-.03,32.38-.03.13,2.81.21,4.47.34,7.1-87.51-.47-174.54-.94-262.22-1.42,0,5.42-.01,12.08,0,18.75.08,32.25.14,64.5.28,96.76.12,26.71.47,53.42.48,80.13,0,26.29-.36,52.57-.47,78.86-.13,29.8-.14,59.6-.24,89.4,0,2.71-.37,5.41-.53,8.12-.12,2.06.47,3,2.97,2.96,10.12-.16,20.25.07,30.37,0,9.14-.07,18.28-.47,27.42-.51,12.02-.05,24.04.17,36.06.18,11.14,0,22.28-.17,33.42-.15,22.99.04,45.97.22,68.96.19,6.75,0,13.5-.7,20.25-.76,5.64-.05,11.28.53,16.91.52,3.67,0,7.33-.69,11.01-.87,3.83-.18,7.68-.11,11.52-.14.14,0,.32-.06.43,0,4.6,2.38,1.99,6.61,2.41,9.99.23,1.87.49,4.36-3.15,4.26-9-.25-18.01-.02-27.01-.13-18.01-.21-36.03-.6-54.04-.77-11.58-.11-23.17.16-34.75.03-10.47-.11-20.93-.72-31.4-.74-9.47-.02-18.94.63-28.41.66-12.78.04-25.55-.29-38.33-.32-4.56-.01-9.12.5-13.68.53-8.19.06-16.39-.03-24.58-.17-1.24-.02-2.47-.92-3.71-.94-1.61-.03-3.22.54-4.85.61-1.47.07-4.02.25-4.26-.35-1.08-2.65-1.85-5.54-2.07-8.39-.58-7.68-.82-15.4-1.2-23.25-14.59,0-28.64-.05-42.68.02-7.24.04-14.47.33-21.71.47-3.24.06-553.51.18-556.73-.08"/>
    <path class="cls-2" d="M1009.64,413.56c-.27-19.37-.68-38.75-.84-58.12-.3-37.81-.55-75.62-.65-113.43-.07-24.95.28-49.9.23-74.85-.04-20.26-.38-40.51-.61-60.77-.02-1.3-.26-2.6-.39-3.89-.51.02-1.02.03-1.53.05v35.09c-5.97-3.07-6.08-7.59-5.49-12.52.98-8.08-2.07-16.09-.54-24.24.15-.81-1.55-2.42-2.7-2.91-1.37-.58-3.08-.43-4.65-.43-9.02.02-18.04.15-27.06.13-11.91-.03-23.82-.23-35.73-.23-8.71,0-17.43.24-26.14.25-1.87,0-3.93-.85-4.15,2.13-.21,2.89,1.45,3.8,4.03,3.73,1.3-.04,2.59,0,3.89.02,12.05.08,24.1.3,36.14.21,13.22-.09,26.45-.32,39.66-.8,3.78-.14,7.55-1.85,11.12.38-.3,3.57-.59,6.9-.95,11.24-17.07,0-33.77-.03-50.46,0-13.4.03-26.81.08-40.21.29-1,.02-1.97,1.38-2.96,2.12,1.06.81,2.01,2.05,3.19,2.35,1.91.48,3.98.43,5.98.44,21.31.14,42.62.25,63.93.35,6.73.03,13.46,0,20.6,0,0,3.77-.3,6.66.07,9.46.49,3.68-1.39,4.52-4.41,4.54-7.78.06-15.56.1-23.34.2-20.61.28-41.22.57-61.83.91-1.72.03-4.47-.45-3.9,2.4.24,1.22,2.67,2.73,4.2,2.84,5.72.43,11.47.36,17.21.42,22.91.25,45.82.46,68.73.79,1.12.02,3.15,1.08,3.18,1.74.27,4.96.15,9.94.15,15.19-1.89,0-3.02-.01-4.15,0-28.38.38-56.75.82-85.13,1.1-4.04.04-5.02,1.74-4.11,6.14,9.93,0,19.84-.03,29.75,0,19.72.08,39.45.26,59.17.27,3.33,0,4.54,1,4.49,4.5-.19,12.78-.02,25.57-.08,38.35-.07,13.76-.26,27.53-.36,41.29-.08,11.85-.19,23.7-.15,35.55.04,12.55.37,25.09.33,37.64-.03,9.32-.46,18.65-.69,27.97-.06,2.34,0,4.69,0,7.29-.13-.03-.25-.06-.37-.09-.02.89-.07,1.77-.13,2.64.32.04.64.08.97.12v72.88c-13.03,0-25.8.05-38.58-.02-10.57-.06-21.15-.31-31.72-.39-6.72-.05-13.45-.11-20.16.22-1.09.05-2.86,2.16-2.87,3.33,0,1.04,1.91,2.84,3.13,2.99,3.66.45,7.4.31,11.1.29,9.62-.06,19.24-.26,28.87-.25,6.41,0,12.81.38,19.22.41,7.17.03,14.34-.22,21.51-.21,6.86,0,13.73.25,20.59.21.95,0,2.36-.87,2.7-1.69.3-.72-.41-2.09-1.02-2.91-.76-1.02-1.8-2.43-2.84-2.53-3.49-.34-2.69-2.71-2.64-4.75.22-8.44.66-16.87.67-25.31.03-20.24-.16-40.48-.21-60.72-.03-12.64.1-25.28.06-37.92-.07-20.93-.21-41.87-.34-62.8-.04-6.84-.21-13.68-.19-20.52.03-8.48.27-16.96.29-25.44.02-8.82-.23-17.64-.09-26.46.02-1.24,1.57-2.46,2.41-3.69.84,1.24,2.39,2.47,2.4,3.72.11,12.51,0,25.02-.1,37.53-.07,9.17-.32,18.35-.27,27.52.07,13.8.5,27.59.48,41.39-.03,20.24-.3,40.48-.52,60.72-.18,16.66-.4,33.33-.7,49.99-.22,12.33-.67,24.65-.83,36.97-.03,2.24.6,4.6,1.48,6.67.43,1,2.15,1.45,3.28,2.15.55-1.02,1.56-2.04,1.59-3.07.13-5.4.04-10.81-.04-16.21ZM1005.07,158.65c-3.59.72-5.22-.31-5.01-3.85.16-2.7.2-5.44-.05-8.12-.34-3.6,1.08-5.66,5.06-6.4v18.37Z"/>
    <path class="cls-2" d="M1341.18,335.93c-.02-3.31-.45-7.09.64-9.97-.22-4.84-.43-9.69-.62-14.53-.07.02-.13.05-.21.07,0-1.94,0-3.84,0-5.73-.56-15.51-.93-31.03-.94-46.56,0-2.36.23-4.64.66-6.84v-63.1c1.65.89,3.41,2.67,5.21,2.71,18.94.38,37.89.57,56.84.65,12.07.05,24.13-.26,36.2-.23,9.77.03,19.55.59,29.31.34,3.21-.08,6.37-1.97,9.55-3.04-.07-.6-.14-1.2-.21-1.79-3.28-1.12-6.55-3.1-9.86-3.19-12.52-.34-25.07-.14-37.6.09-1.19.02-2.44,1.56-3.48,2.57-.83.8-1.39,1.87-2.08,2.82-.78-.92-1.67-1.78-2.32-2.79-.44-.69-.54-1.6-.71-2.13h-81.41v-40.53c2.44.24,4.26.56,6.09.58,6.92.06,13.85.03,20.77.03,17.16,0,34.32-.03,51.48.05,2.83.01,4.4-.8,4.33-3.87-.06-2.45-.96-3.59-3.65-3.59-26.46.07-52.92.04-79.63.04,0-3.33.03-6.91,0-10.48-.03-2.49,1.34-3.1,3.57-3.09,11.09.07,22.18.03,33.27.06,14.12.03,28.23.13,42.35.08,1.24,0,2.96-.55,3.58-1.45.51-.73.13-2.9-.61-3.48-.95-.75-2.65-.76-4.02-.76-20.91,0-41.81.06-62.72.1-5.13,0-10.26,0-15.35,0-.41-5.84-.77-11.01-1.1-15.86,2.01.33,4.11.99,6.2.96,18.97-.32,37.94-.79,56.91-1.14,5.76-.11,11.53.18,17.29-.06,1.28-.05,2.5-1.56,3.75-2.4-1.17-.66-2.33-1.86-3.51-1.88-7.33-.12-14.66.11-21.99.06-9.48-.07-18.97-.18-28.45-.49-8.53-.27-17.06-.64-25.56-1.32-4.13-.33-6.46.66-7.01,4.62-.73,5.21-1.37,10.47-1.53,15.72-.39,12.75-.46,25.5-.71,38.26,0,.53-.43,1.05-.66,1.57-.4-.06-.8-.12-1.21-.18v-53.39c-.48-.02-.95-.04-1.43-.06-.1,1.64-.29,3.27-.29,4.91-.05,20.28-.07,40.55-.09,60.83-.02,14.41-.06,28.81-.03,43.22.04,22.16.2,44.33.17,66.49-.03,20.73-.24,41.45-.35,62.18-.11,19.41-.21,38.81-.27,58.22-.03,10.01-.04,20.02.09,30.03.02,1.68.79,3.34,1.22,5.02.35-.04.7-.07,1.05-.11.48-1.67.97-3.35,1.54-5.34.75.55,1.23.83,1.61,1.2,3.19,3.07,4.61,2.72,5.67-1.45.28-1.11.63-2.24.64-3.37.06-10.84.13-21.69.06-32.53-.12-18.92-.39-37.85-.48-56.77Z"/>
    <path class="cls-2" d="M1878.49,437.28c-11.13,0-22.26-.08-33.39.03-6.38.06-12.75.57-19.12.63-8.71.08-17.42-.05-26.13-.11-3.08-.02-6.18-.32-9.23-.06-2.06.17-3.36.16-3.56-2.31-.2-2.4.84-3.54,3.15-3.55,5.55-.02,11.11.02,16.66.02,15.93.02,31.85.04,47.78.05,15.08,0,30.15-.05,45.23-.03,13.65.02,27.29.06,40.94.24,1.1.01,2.18,1.18,3.27,1.81-1.01,1.34-1.87,3.63-3.07,3.82-3.22.52-6.58.11-9.88.13-8.57.04-17.14.14-25.7.17-8.98.03-17.96,0-26.93,0,0-.28,0-.56,0-.85Z"/>
    <path class="cls-2" d="M1903.59,693.25c-10.36,0-20.71-.07-31.07.02-11.46.1-22.92.47-34.37.48-9.04.01-18.09-.41-27.13-.5-6.44-.06-12.88.15-19.32.15-2.03,0-4.52.56-4.59-2.89-.06-3.22,2.24-2.91,4.17-2.9,13.15.04,26.3.21,39.45.22,5.29,0,10.58-.4,15.87-.42,18.34-.04,36.68.04,55.02.04,13.02,0,26.04-.11,39.05,0,1.03,0,2.91,1.29,2.92,1.99.01,1.91-.3,3.9-3.36,3.84-10.19-.22-20.39-.16-30.58-.2-2.02,0-4.03,0-6.05,0,0,.06,0,.12,0,.18Z"/>
    <path class="cls-2" d="M1383.17,207.99c11.66,0,23.32.03,34.98-.03,2.33-.01,4.42-.13,4.39,3.11-.03,3.32-2.52,3.11-4.59,3.1-22.83-.07-45.66-.21-68.48-.34-.86,0-1.91.18-2.55-.23-1.51-.97-2.82-2.24-4.21-3.4,1.39-.68,2.78-1.94,4.19-1.95,12.09-.16,24.19-.09,36.28-.09,0-.06,0-.12,0-.17Z"/>
    <path class="cls-2" d="M1357.44,162.49c20.28,0,40.55-.03,60.83.07,1.26,0,2.52,1.07,3.78,1.64-1.26.81-2.51,2.31-3.79,2.33-16.07.33-32.15.39-48.23.63-7.19.1-14.38.43-21.57.64-1.15.03-2.66.43-3.38-.14-1.24-.98-2.32-2.49-2.76-3.98-.14-.48,1.9-2.25,3.02-2.33,4.01-.29,8.06-.11,12.09-.11,0,.42,0,.84,0,1.25Z"/>
    <path class="cls-2" d="M1482.39,120.5c-1.75,1.44-2.71,2.91-3.71,2.94-15.79.49-31.59.81-47.38,1.14-2.1.04-4.58.59-4.59-2.86,0-3.48,2.54-2.85,4.6-2.86,9.94-.04,19.88-.22,29.82.03,6.57.16,13.12.97,21.26,1.61Z"/>
    <path class="cls-2" d="M1948.28,431.79h415.08c1.5,6.56-369.72,6.65-375.96,6.57-9.21-.11-18.43.16-27.64.12-2.71-.01-5.63.02-8.04-.97-1.41-.59-2-3.17-3.45-5.72Z"/>
    <path class="cls-2" d="M2363.78,687.43v5.85c-3.8,0-378.48.01-382.16,0-9.3-.04-18.61,0-27.9-.24-1.25-.03-2.45-1.52-3.68-2.34,1-.87,1.96-2.44,3-2.49,8.17-.42,16.35-.6,24.53-.76,5-.1,381.01-.02,386.21-.02Z"/>
    <path class="cls-2" d="M1797.33,550.02c0,1-.08,2.01.01,3.01.65,7.38-3.24,7.61-8.5,5.32-2.24-.98-2.48-3.45-.54-4.94,3.03-2.34,3.1-7.48.38-9.96-.84-.77-1-2.3-1.46-3.48,1.1-.37,2.21-1.11,3.28-1.05,6.02.32,6.66,1.07,6.81,7.24.03,1.29,0,2.58,0,3.87h.03Z"/>
    <path class="cls-2" d="M874,135.39c5.45,0,10.91-.16,16.35.13,1.16.06,2.23,1.74,3.34,2.68-1.15.72-2.3,2.08-3.45,2.07-11.15-.04-22.3-.26-33.45-.57-.88-.02-1.73-1.04-2.6-1.6.88-.64,1.75-1.82,2.65-1.85,5.72-.17,11.44-.09,17.16-.09v-.78Z"/>
    <path class="cls-2" d="M1510.41,336.28c-1.39.1-2.93-.14-4.12.4-1.27.57-2.93,1.75-3.13,2.9-.41,2.31-.36,4.34-3.6,4.01-3.18-.32-3.06-2.65-3-4.78.44-16.67,1.01-33.34,1.44-50.02.24-9.49.28-18.99.47-28.48.03-1.27.39-2.53.6-3.79.47-.02.93-.04,1.4-.06.28,1.24.78,2.48.81,3.72.59,22.52,1.16,45.05,1.64,67.58.13,6.04,0,6.03,6.28,6.8.48.06.92.53,1.37.81-.05.3-.11.6-.16.9Z"/>
    <path class="cls-2" d="M821.2,256.62c.31,4.19.79,8.38.89,12.58.47,19.66.86,39.33,1.2,58.99.1,5.9,0,5.88,5.83,6.35.62.05,1.21.49,1.79,1.6-1.14.14-2.3.48-3.42.39-2.92-.25-4.1.86-4.27,3.88-.06,1.12-1.86,2.14-2.87,3.2-1.14-1.17-3.19-2.29-3.26-3.51-.28-5.58-.05-11.19.09-16.79.52-21.14,1.06-42.28,1.64-63.42.03-1.13.41-2.26.63-3.39.58.04,1.16.07,1.74.11Z"/>
  </g>
</svg>