<?xml version="1.0" encoding="UTF-8"?>
<svg id="Livello_1" data-name="Livello 1" xmlns="http://www.w3.org/2000/svg" viewBox="0 0 2432.08 860">
  <defs>
    <style>
      .cls-1, .cls-2 {
        stroke-width: 0px;
      }

      .cls-2 {
        fill: #b57b14;
      }
    </style>
  </defs>
  <g>
    <rect class="cls-2" x="1.15" y="0" width="168.42" height="860"/>
    <rect class="cls-2" x="169.57" y="45.59" width="248.87" height="729.19"/>
    <g>
      <path class="cls-1" d="M0,860c.03-19.88.05-39.75.09-59.63.07-33.54.22-67.08.21-100.62-.01-30.76-.28-61.52-.29-92.29,0-27.04.22-54.09.27-81.13.02-12.32-.22-24.63-.16-36.95.07-14.42.39-28.84.49-43.26.13-19.17.12-38.35.2-57.52.1-26.78.15-53.55.37-80.33.22-25.95.71-51.9.94-77.86.29-32.44.38-64.88.68-97.32.19-20.66.63-41.31.93-61.97.3-20.61.57-41.22.84-61.84.04-2.97,0-5.93,0-9.08h8.41c1.53,161.08,3.69,322.03,3.7,483.01l.97.02c0-3.25,0-6.51,0-9.76,0-3.45,0-6.89.03-10.34.14-15.06.33-30.11.42-45.17.15-26.74.28-53.49.34-80.23.07-30.77-.05-61.53.08-92.3.14-32.53.43-65.05.72-97.58.31-35.51.6-71.02,1.09-106.52.17-12.58.86-25.16,1.5-37.73.06-1.2,1.43-2.34,2.19-3.51.74,1.12,2.09,2.22,2.14,3.36.69,18.27,1.42,36.55,1.72,54.83.45,27.44.6,54.89.82,82.34.2,24.71.4,49.42.47,74.13.04,15.76-.29,31.51-.24,47.27.08,27.83.36,55.65.5,83.48.09,17.81.03,35.62.13,53.43.05,9.08.45,18.15.47,27.23.02,12.11-.29,24.22-.26,36.33.04,16.53.31,33.06.41,49.59.09,15.76.05,31.51.15,47.27.07,11.72.36,23.43.4,35.14.03,12.47-.19,24.94-.18,37.41,0,14.71.14,29.42.2,44.13.05,14.06.08,28.13.11,42.19.04,15.03.13,30.06.09,45.09-.08,24.31-.3,48.61-.35,72.92-.02,7.92.31,15.85.48,23.77H0Z"/>
      <path class="cls-1" d="M162.56,860c.09-9.28.23-18.56.27-27.84.07-19.87.13-39.74.12-59.61,0-15.5-.21-31-.18-46.5.06-25.64.29-51.27.34-76.91.03-16.38-.2-32.76-.2-49.14,0-14.82.17-29.64.23-44.46.08-18.8.13-37.59.19-56.39.06-22.28.12-44.57.17-66.85.05-25.19.02-50.38.15-75.56.13-24.73.45-49.47.63-74.2.11-15.52.09-31.05.2-46.57.19-27.42.36-54.85.7-82.27.33-26.75.83-53.49,1.28-80.24.35-20.53.76-41.06,1.12-61.59.05-3.05-.13-6.1.06-9.14.06-.9,1.04-1.73,1.6-2.6.63.91,1.79,1.81,1.82,2.73.41,14.96.76,29.93.94,44.9.4,32.71.69,65.42,1.02,98.13.27,26.71.57,53.41.79,80.12.29,36.62.55,73.25.75,109.87.08,15.06-.09,30.11,0,45.17.07,12.69.46,25.38.49,38.06.03,14.05-.29,28.11-.26,42.16.03,17.61.31,35.23.4,52.84.13,25.56.24,51.13.26,76.69.02,23.55-.08,47.1-.13,70.66-.03,13.61-.07,27.23-.08,40.84-.01,11.95-.05,23.89.03,35.84.07,10.57.32,21.13.42,31.7.02,2.2,1.22,2.66,3.05,2.63,13-.19,25.99-.49,38.99-.49,7.03,0,14.06.58,21.09.78,3.56.1,7.13-.11,10.69-.14,9.54-.08,19.08-.17,28.62-.18,12.98-.02,25.96.04,38.94.03,5.86,0,11.73-.19,17.58-.01.97.03,2.52,1.38,2.7,2.33.36,1.87-.05,3.89-.16,6.31-13.66,0-26.93-.04-40.2.01-10.12.04-20.24.29-30.36.31-6.56,0-13.11-.37-19.67-.33-8.09.04-16.17.43-24.26.49-7.66.06-15.32-.14-22.98-.19-6.83-.05-13.66.1-20.48-.14-3.16-.11-3.91,1.43-3.89,4.01.07,9.58.23,19.16.23,28.74,0,10.1-.21,20.21-.15,30.31.03,5.24.45,10.47.69,15.71h-13.55Z"/>
      <path class="cls-1" d="M147.42,860c.12-13.23.26-26.46.35-39.68.21-32.87.39-65.74.61-98.61.08-12.19.33-24.37.34-36.56.01-15.63-.16-31.25-.2-46.88-.06-23.82-.13-47.63-.08-71.45.05-23.4.3-46.8.33-70.2.02-17.26-.22-34.52-.27-51.78-.06-18.3-.09-36.6-.03-54.9.2-54.08.43-108.16.69-162.24.11-23.2.37-46.4.48-69.6.15-29.68.09-59.37.39-89.05.22-21.72.87-43.43,1.38-65.15.04-1.72-.47-3.84,2.56-3.92,3.31-.09,2.74,2.16,2.77,4.05.34,24.45.71,48.9.95,73.34.32,32.15.58,64.3.77,96.44.13,21.44.07,42.87.18,64.31.05,10.25.36,20.5.41,30.75.03,7.86-.23,15.71-.25,23.57-.02,8.52.08,17.05.13,25.57.08,16.24.19,32.48.23,48.72.05,18.26.06,36.52.03,54.78-.03,20.54-.19,41.08-.17,61.61.01,18.8.24,37.59.27,56.39.04,30.49-.03,60.99,0,91.48.01,25.72.1,51.43.12,77.15.02,24.55-.08,49.11,0,73.66.05,15.91.32,31.83.49,47.74.1,10.14.19,20.29.28,30.43h-12.75Z"/>
      <path class="cls-1" d="M422.29,685.16c.04,13.51-.11,27.03-.27,40.54-.21,17.01-.49,34.02-.77,51.03-.02,1.44.04,3.07-.61,4.24-.48.87-2.69,1.88-3.04,1.58-4.06-3.53-8.59-1.55-12.99-1.49-5.76.09-11.53-.22-17.29-.24-7.27-.02-14.54.09-21.81.11-6.72.02-13.44,0-20.5,0v-8.44c22.67,1.09,45.27-1.4,68.37,1.39-.05-1.12-.12-2.47-.17-3.82-.63-15.97-1.35-31.93-1.85-47.9-.4-12.81-.55-25.63-.74-38.44-.03-2.28-1.1-3.01-3.19-3.01-14.34.02-28.69-.01-43.03,0-5.28,0-10.55.2-15.82.03-1.24-.04-2.44-1.2-3.66-1.84,1.11-.52,2.22-1.49,3.34-1.51,16.02-.23,32.05-.33,48.07-.47,3.7-.03,7.42-.37,11.1-.12,2.89.19,3.28-1,3.26-3.46-.13-17.9-.2-35.8-.19-53.7.01-37.38.1-74.75.12-112.13,0-18.56-.25-37.12.03-55.67.07-4.34-1.67-5.75-5.28-5.84-6.11-.15-12.22-.04-18.41-.04,0,13.25,0,25.86,0,38.47,0,15.9.03,31.8-.09,47.7,0,1.24-1.07,2.48-1.64,3.71-1.1-1.31-3.14-2.6-3.16-3.92-.19-12.98-.02-25.96.01-38.95.02-10.86,0-21.72,0-32.58,0-2.92-.14-5.84-.07-8.75.17-6.27-.14-6.54-6.74-4.86v8.79c-9.81,0-19.28.18-28.73-.08-4.31-.12-2.28-3.34-2.26-5.9h28.45c1.2-2.62-.38-3.35-2.75-3.39-7.28-.14-14.56-.32-21.84-.31-3.16,0-4.49-.99-4.33-4.41.14-3.1.81-4.55,4.3-4.41,7.16.3,14.33.12,21.5.33,1.32.04,3.13.6,3.81,1.56,2.24,3.15,5.04,2.78,8.4,2.07.21-3.47.56-6.87.6-10.28.19-17.72.22-35.44.5-53.16.04-2.85-1.1-3.38-3.48-3.35-5.4.07-10.8.02-16.2.02,0-.44,0-.87,0-1.31h23.3v68.48c7.11,0,13.16-.11,19.2.04,3.7.09,4.76-1.57,4.73-5.08-.14-16.69-.1-33.37-.09-50.06.01-24.75.07-49.5.07-74.25,0-29.51-.04-59.03-.11-88.54-.03-14-.24-28-.21-42,.05-23.89.3-47.78.33-71.67.01-10.84-.26-21.69-.51-32.53-.07-3.26.79-5.44,5.4-5.24,0-7.03.12-13.88-.16-20.71-.03-.82-2.17-2.14-3.39-2.22-5.39-.32-10.81-.37-16.22-.35-14.18.05-28.36.19-42.54.28-2.49.02-5,.17-7.46-.11-4.43-.52-1.67-3.74-2.46-6.47,5.65-.26,10.87-.7,16.09-.71,8.68-.01,17.35.28,26.03.38,3.66.05,7.31,0,10.97-.09,4.72-.12,9.43-.4,14.15-.46,4.84-.06,9.01,4.6,9.21,10.59.27,8.34.3,16.68.38,25.03.22,24.85.45,49.7.6,74.55.1,16.94.01,33.88.14,50.82.22,28.84.54,57.67.82,86.51.17,18.07.42,36.13.48,54.2.07,17.92-.09,35.84-.07,53.76.02,13.91.2,27.82.22,41.73l.17,246.32Z"/>
      <path class="cls-1" d="M337.75,42.31c1.07,1.44,2.19,2.95,3.84,5.18-1.12.43-2.73,1.58-4.34,1.58-18.68-.03-37.36-.31-56.04-.37-11.07-.04-22.15.31-33.23.25-13.59-.07-27.17-.4-40.76-.55-7.69-.09-15.37.04-23.06-.08-2.62-.04-5.26-.45-7.85-.92-.72-.13-1.29-1.08-1.93-1.65.57-.62,1.08-1.7,1.74-1.79,3.63-.53,7.3-1.07,10.96-1.14,13.02-.25,26.05-.34,39.08-.44,16.11-.12,32.23-.25,48.34-.26,17.34,0,34.67.13,52.01.2,3.82.02,7.64,0,11.24,0Z"/>
      <path class="cls-1" d="M357.35,459.91c.79,1.82,2.22,3.63,2.27,5.48.39,14.5.51,29,.72,43.51.04,2.9.09,5.81.22,8.71.13,2.94,2.17,2.12,4.03,2.14,3.79.06,7.63.16,11.35.82,1.24.22,2.16,2.21,3.22,3.39-1.2.58-2.38,1.59-3.62,1.66-3.56.19-7.14-.08-10.71,0-2.2.05-4.56-.12-4.69,3.34-.05,1.32-1.33,2.6-2.05,3.9-1.35-1.27-3.65-2.41-3.85-3.85-.6-4.16-.48-8.45-.42-12.68.23-16.41.5-32.83.86-49.24.05-2.28.68-4.55,1.04-6.82.54-.11,1.09-.23,1.63-.34Z"/>
      <path class="cls-1" d="M362.13,398.24c0,9.31.13,18.62-.1,27.93-.05,2.05.56,5.24-3,5.56-1.89.17-5.82-4.44-5.83-6.71-.03-6.48-.06-12.96.06-19.44.15-7.74.29-15.49.82-23.22.13-1.88,1.31-4.36,2.8-5.3,1.55-.98,4.56,2.9,4.58,5.71.03,5.15,0,10.3,0,15.46.22,0,.44,0,.67,0Z"/>
      <path class="cls-1" d="M299.15,444.48c.17-1.94-.03-3.72.59-5.15.42-.96,1.97-1.95,3.06-2,5.54-.25,11.1-.22,16.66-.25,5.03-.03,10.07.03,15.1-.06,3.75-.06,2.76,3,3.09,4.87.36,1.98-.13,4.24-2.88,4.17-11.62-.31-23.24-.74-34.86-1.15-.22,0-.44-.24-.76-.43Z"/>
      <path class="cls-1" d="M292.58,444.84c.32,2.06.63,4.12.96,6.28,13.1-.37,26.04-.78,38.99-1.07,2-.05,4.93-1.13,4.74,2.77-.18,3.56-2.77,2.34-4.71,2.3-11.07-.23-22.15-.46-33.22-.77-2.44-.07-4.89-.43-7.3-.83-.45-.08-1.06-.98-1.09-1.52-.12-2.35-.05-4.72-.05-7.08.56-.02,1.12-.05,1.68-.07Z"/>
    </g>
  </g>
  <g>
    <rect class="cls-2" x="2261.48" y="0" width="168.42" height="860" transform="translate(4691.39 860) rotate(-180)"/>
    <rect class="cls-2" x="2012.61" y="45.59" width="248.87" height="729.19" transform="translate(4274.1 820.37) rotate(-180)"/>
    <g>
      <path class="cls-1" d="M2431.05,860c-.03-19.88-.05-39.75-.09-59.63-.07-33.54-.22-67.08-.21-100.62.01-30.76.28-61.52.29-92.29,0-27.04-.22-54.09-.27-81.13-.02-12.32.22-24.63.16-36.95-.07-14.42-.39-28.84-.49-43.26-.13-19.17-.12-38.35-.2-57.52-.1-26.78-.15-53.55-.37-80.33-.22-25.95-.71-51.9-.94-77.86-.29-32.44-.38-64.88-.68-97.32-.19-20.66-.63-41.31-.93-61.97-.3-20.61-.57-41.22-.84-61.84-.04-2.97,0-5.93,0-9.08h-8.41c-1.53,161.08-3.69,322.03-3.7,483.01l-.97.02c0-3.25,0-6.51,0-9.76,0-3.45,0-6.89-.03-10.34-.14-15.06-.33-30.11-.42-45.17-.15-26.74-.28-53.49-.34-80.23-.07-30.77.05-61.53-.08-92.3-.14-32.53-.43-65.05-.72-97.58-.31-35.51-.6-71.02-1.09-106.52-.17-12.58-.86-25.16-1.5-37.73-.06-1.2-1.43-2.34-2.19-3.51-.74,1.12-2.09,2.22-2.14,3.36-.69,18.27-1.42,36.55-1.72,54.83-.45,27.44-.6,54.89-.82,82.34-.2,24.71-.4,49.42-.47,74.13-.04,15.76.29,31.51.24,47.27-.08,27.83-.36,55.65-.5,83.48-.09,17.81-.03,35.62-.13,53.43-.05,9.08-.45,18.15-.47,27.23-.02,12.11.29,24.22.26,36.33-.04,16.53-.31,33.06-.41,49.59-.09,15.76-.05,31.51-.15,47.27-.07,11.72-.36,23.43-.4,35.14-.03,12.47.19,24.94.18,37.41,0,14.71-.14,29.42-.2,44.13-.05,14.06-.08,28.13-.11,42.19-.04,15.03-.13,30.06-.09,45.09.08,24.31.3,48.61.35,72.92.02,7.92-.31,15.85-.48,23.77h31.08Z"/>
      <path class="cls-1" d="M2268.5,860c-.09-9.28-.23-18.56-.27-27.84-.07-19.87-.13-39.74-.12-59.61,0-15.5.21-31,.18-46.5-.06-25.64-.29-51.27-.34-76.91-.03-16.38.2-32.76.2-49.14,0-14.82-.17-29.64-.23-44.46-.08-18.8-.13-37.59-.19-56.39-.06-22.28-.12-44.57-.17-66.85-.05-25.19-.02-50.38-.15-75.56-.13-24.73-.45-49.47-.63-74.2-.11-15.52-.09-31.05-.2-46.57-.19-27.42-.36-54.85-.7-82.27-.33-26.75-.83-53.49-1.28-80.24-.35-20.53-.76-41.06-1.12-61.59-.05-3.05.13-6.1-.06-9.14-.06-.9-1.04-1.73-1.6-2.6-.63.91-1.79,1.81-1.82,2.73-.41,14.96-.76,29.93-.94,44.9-.4,32.71-.69,65.42-1.02,98.13-.27,26.71-.57,53.41-.79,80.12-.29,36.62-.55,73.25-.75,109.87-.08,15.06.09,30.11,0,45.17-.07,12.69-.46,25.38-.49,38.06-.03,14.05.29,28.11.26,42.16-.03,17.61-.31,35.23-.4,52.84-.13,25.56-.24,51.13-.26,76.69-.02,23.55.08,47.1.13,70.66.03,13.61.07,27.23.08,40.84.01,11.95.05,23.89-.03,35.84-.07,10.57-.32,21.13-.42,31.7-.02,2.2-1.22,2.66-3.05,2.63-13-.19-25.99-.49-38.99-.49-7.03,0-14.06.58-21.09.78-3.56.1-7.13-.11-10.69-.14-9.54-.08-19.08-.17-28.62-.18-12.98-.02-25.96.04-38.94.03-5.86,0-11.73-.19-17.58-.01-.97.03-2.52,1.38-2.7,2.33-.36,1.87.05,3.89.16,6.31,13.66,0,26.93-.04,40.2.01,10.12.04,20.24.29,30.36.31,6.56,0,13.11-.37,19.67-.33,8.09.04,16.17.43,24.26.49,7.66.06,15.32-.14,22.98-.19,6.83-.05,13.66.1,20.48-.14,3.16-.11,3.91,1.43,3.89,4.01-.07,9.58-.23,19.16-.23,28.74,0,10.1.21,20.21.15,30.31-.03,5.24-.45,10.47-.69,15.71,4.52,0,9.03,0,13.55,0Z"/>
      <path class="cls-1" d="M2283.64,860c-.12-13.23-.26-26.46-.35-39.68-.21-32.87-.39-65.74-.61-98.61-.08-12.19-.33-24.37-.34-36.56-.01-15.63.16-31.25.2-46.88.06-23.82.13-47.63.08-71.45-.05-23.4-.3-46.8-.33-70.2-.02-17.26.22-34.52.27-51.78.06-18.3.09-36.6.03-54.9-.2-54.08-.43-108.16-.69-162.24-.11-23.2-.37-46.4-.48-69.6-.15-29.68-.09-59.37-.39-89.05-.22-21.72-.87-43.43-1.38-65.15-.04-1.72.47-3.84-2.56-3.92-3.31-.09-2.74,2.16-2.77,4.05-.34,24.45-.71,48.9-.95,73.34-.32,32.15-.58,64.3-.77,96.44-.13,21.44-.07,42.87-.18,64.31-.05,10.25-.36,20.5-.41,30.75-.03,7.86.23,15.71.25,23.57.02,8.52-.08,17.05-.13,25.57-.08,16.24-.19,32.48-.23,48.72-.05,18.26-.06,36.52-.03,54.78.03,20.54.19,41.08.17,61.61-.01,18.8-.24,37.59-.27,56.39-.04,30.49.03,60.99,0,91.48-.01,25.72-.1,51.43-.12,77.15-.02,24.55.08,49.11,0,73.66-.05,15.91-.32,31.83-.49,47.74-.1,10.14-.19,20.29-.28,30.43,4.25,0,8.5,0,12.75,0Z"/>
      <path class="cls-1" d="M2008.76,685.16c-.04,13.51.11,27.03.27,40.54.21,17.01.49,34.02.77,51.03.02,1.44-.04,3.07.61,4.24.48.87,2.69,1.88,3.04,1.58,4.06-3.53,8.59-1.55,12.99-1.49,5.76.09,11.53-.22,17.29-.24,7.27-.02,14.54.09,21.81.11,6.72.02,13.44,0,20.5,0,0-2.8,0-5.36,0-8.44-22.67,1.09-45.27-1.4-68.37,1.39.05-1.12.12-2.47.17-3.82.63-15.97,1.35-31.93,1.85-47.9.4-12.81.55-25.63.74-38.44.03-2.28,1.1-3.01,3.19-3.01,14.34.02,28.69-.01,43.03,0,5.28,0,10.55.2,15.82.03,1.24-.04,2.44-1.2,3.66-1.84-1.11-.52-2.22-1.49-3.34-1.51-16.02-.23-32.05-.33-48.07-.47-3.7-.03-7.42-.37-11.1-.12-2.89.19-3.28-1-3.26-3.46.13-17.9.2-35.8.19-53.7-.01-37.38-.1-74.75-.12-112.13,0-18.56.25-37.12-.03-55.67-.07-4.34,1.67-5.75,5.28-5.84,6.11-.15,12.22-.04,18.41-.04,0,13.25,0,25.86,0,38.47,0,15.9-.03,31.8.09,47.7,0,1.24,1.07,2.48,1.64,3.71,1.1-1.31,3.14-2.6,3.16-3.92.19-12.98.02-25.96-.01-38.95-.02-10.86,0-21.72,0-32.58,0-2.92.14-5.84.07-8.75-.17-6.27.14-6.54,6.74-4.86v8.79c9.81,0,19.28.18,28.73-.08,4.31-.12,2.28-3.34,2.26-5.9-9.61,0-18.95,0-28.45,0-1.2-2.62.38-3.35,2.75-3.39,7.28-.14,14.56-.32,21.84-.31,3.16,0,4.49-.99,4.33-4.41-.14-3.1-.81-4.55-4.3-4.41-7.16.3-14.33.12-21.5.33-1.32.04-3.13.6-3.81,1.56-2.24,3.15-5.04,2.78-8.4,2.07-.21-3.47-.56-6.87-.6-10.28-.19-17.72-.22-35.44-.5-53.16-.04-2.85,1.1-3.38,3.48-3.35,5.4.07,10.8.02,16.2.02,0-.44,0-.87,0-1.31-7.55,0-15.1,0-23.3,0,0,22.8,0,45.56,0,68.48-7.11,0-13.16-.11-19.2.04-3.7.09-4.76-1.57-4.73-5.08.14-16.69.1-33.37.09-50.06-.01-24.75-.07-49.5-.07-74.25,0-29.51.04-59.03.11-88.54.03-14,.24-28,.21-42-.05-23.89-.3-47.78-.33-71.67-.01-10.84.26-21.69.51-32.53.07-3.26-.79-5.44-5.4-5.24,0-7.03-.12-13.88.16-20.71.03-.82,2.17-2.14,3.39-2.22,5.39-.32,10.81-.37,16.22-.35,14.18.05,28.36.19,42.54.28,2.49.02,5,.17,7.46-.11,4.43-.52,1.67-3.74,2.46-6.47-5.65-.26-10.87-.7-16.09-.71-8.68-.01-17.35.28-26.03.38-3.66.05-7.31,0-10.97-.09-4.72-.12-9.43-.4-14.15-.46-4.84-.06-9.01,4.6-9.21,10.59-.27,8.34-.3,16.68-.38,25.03-.22,24.85-.45,49.7-.6,74.55-.1,16.94-.01,33.88-.14,50.82-.22,28.84-.54,57.67-.82,86.51-.17,18.07-.42,36.13-.48,54.2-.07,17.92.09,35.84.07,53.76-.02,13.91-.2,27.82-.22,41.73l-.17,246.32Z"/>
      <path class="cls-1" d="M2093.3,42.31c-1.07,1.44-2.19,2.95-3.84,5.18,1.12.43,2.73,1.58,4.34,1.58,18.68-.03,37.36-.31,56.04-.37,11.07-.04,22.15.31,33.23.25,13.59-.07,27.17-.4,40.76-.55,7.69-.09,15.37.04,23.06-.08,2.62-.04,5.26-.45,7.85-.92.72-.13,1.29-1.08,1.93-1.65-.57-.62-1.08-1.7-1.74-1.79-3.63-.53-7.3-1.07-10.96-1.14-13.02-.25-26.05-.34-39.08-.44-16.11-.12-32.23-.25-48.34-.26-17.34,0-34.67.13-52.01.2-3.82.02-7.64,0-11.24,0Z"/>
      <path class="cls-1" d="M2073.71,459.91c-.79,1.82-2.22,3.63-2.27,5.48-.39,14.5-.51,29-.72,43.51-.04,2.9-.09,5.81-.22,8.71-.13,2.94-2.17,2.12-4.03,2.14-3.79.06-7.63.16-11.35.82-1.24.22-2.16,2.21-3.22,3.39,1.2.58,2.38,1.59,3.62,1.66,3.56.19,7.14-.08,10.71,0,2.2.05,4.56-.12,4.69,3.34.05,1.32,1.33,2.6,2.05,3.9,1.35-1.27,3.65-2.41,3.85-3.85.6-4.16.48-8.45.42-12.68-.23-16.41-.5-32.83-.86-49.24-.05-2.28-.68-4.55-1.04-6.82-.54-.11-1.09-.23-1.63-.34Z"/>
      <path class="cls-1" d="M2068.92,398.24c0,9.31-.13,18.62.1,27.93.05,2.05-.56,5.24,3,5.56,1.89.17,5.82-4.44,5.83-6.71.03-6.48.06-12.96-.06-19.44-.15-7.74-.29-15.49-.82-23.22-.13-1.88-1.31-4.36-2.8-5.3-1.55-.98-4.56,2.9-4.58,5.71-.03,5.15,0,10.3,0,15.46-.22,0-.44,0-.67,0Z"/>
      <path class="cls-1" d="M2131.9,444.48c-.17-1.94.03-3.72-.59-5.15-.42-.96-1.97-1.95-3.06-2-5.54-.25-11.1-.22-16.66-.25-5.03-.03-10.07.03-15.1-.06-3.75-.06-2.76,3-3.09,4.87-.36,1.98.13,4.24,2.88,4.17,11.62-.31,23.24-.74,34.86-1.15.22,0,.44-.24.76-.43Z"/>
      <path class="cls-1" d="M2138.47,444.84c-.32,2.06-.63,4.12-.96,6.28-13.1-.37-26.04-.78-38.99-1.07-2-.05-4.93-1.13-4.74,2.77.18,3.56,2.77,2.34,4.71,2.3,11.07-.23,22.15-.46,33.22-.77,2.44-.07,4.89-.43,7.3-.83.45-.08,1.06-.98,1.09-1.52.12-2.35.05-4.72.05-7.08-.56-.02-1.12-.05-1.68-.07Z"/>
    </g>
  </g>
</svg>