<svg width="288" height="537" viewBox="0 0 288 537" fill="none" xmlns="http://www.w3.org/2000/svg">
<path d="M284.609 362.01C284.349 361.84 284.09 361.66 283.83 361.49C281.44 359.87 278.469 357.86 274.189 358.86C272.489 359.26 270.53 359.27 268.62 359.29C267.76 359.29 266.9 359.3 266.04 359.34C258.83 359.65 252.309 359.99 245.669 361.16C244.799 361.31 243.86 361.35 242.85 361.38C242.63 360.09 242.41 358.76 242.14 357.45C241.59 354.8 240.399 353.01 238.589 352.13C236.789 351.26 234.67 351.42 232.29 352.61C232.16 352.68 232.019 352.74 231.879 352.8C231.249 353.09 230.46 353.45 229.77 354.13C227.46 356.4 225.149 358.73 222.899 361L221.919 361.99C221.849 360.55 221.79 359.14 221.74 357.73C221.68 355.88 220.91 354.78 220.27 354.19C219.36 353.34 218.12 352.93 216.58 352.96C215.08 353.02 213.85 353.26 212.83 353.72C206.32 356.6 200.01 359.5 195.14 361.74L191.85 364.34L190.93 365.17C190.34 365.5 189.749 365.98 189.259 366.69L188.089 369.9C188.069 370.03 188.06 370.16 188.04 370.29C187.66 373.83 187.349 377.64 187.709 381.48C187.949 384.08 188.599 386.54 189.229 388.92C189.369 389.45 189.51 389.99 189.64 390.51L188.31 391.99C188.06 391.84 187.78 391.66 187.58 391.52C186.38 390.72 184.329 389.35 181.839 389.99L181.27 389.2C175.25 380.9 169.02 372.31 162.39 364.24L161.069 362.63L157.81 364.43L155.569 361.52C156.339 361.27 157.09 361.02 157.85 360.74C158.09 360.65 158.33 360.57 158.6 360.48C159.8 360.07 161.159 359.62 162.279 358.58C168.659 352.69 173.41 345.46 177.22 339.17C178.39 337.24 178.51 335.1 177.56 333.3C176.59 331.47 174.64 330.28 172.31 330.09C172.75 325.98 171.2 322.59 169.41 319.87C172.77 316.01 173.29 313.79 170.75 309.46C167.78 304.38 163.379 305.94 161.009 306.78C160.909 306.82 160.81 306.85 160.7 306.89C157.23 301.99 152.04 302.42 148.2 303.18C147.68 302 147.199 300.89 146.919 299.79C146.159 296.81 144.109 295.34 141.149 295.65C140.699 295.7 140.239 295.73 139.709 295.76C138.169 295.86 136.44 295.97 134.79 296.6C129.97 298.45 126.999 297.58 124.569 293.61C124.079 292.82 123.39 292.39 122.89 292.07C122.82 292.03 122.74 291.98 122.68 291.94C120.1 289.65 119.129 287.23 119.419 283.85C120.119 275.64 120.55 267.09 120.68 258.43C120.75 254.3 120.579 250.14 120.419 246.11C120.299 243.16 120.18 240.1 120.16 237.09C120.04 223.09 118.51 209.44 115.62 196.52C114.78 192.78 113.789 188.85 112.419 183.8C112.279 183.28 112.099 182.8 111.939 182.37C111.789 181.96 111.579 181.42 111.549 181.17C111.599 181.12 111.71 181.03 111.91 180.9C113.29 180.06 113.39 178.51 113.45 177.6C113.6 175.45 113.75 173.31 113.89 171.16C114.08 168.39 114.259 165.62 114.459 162.85C114.609 160.81 114.8 158.77 114.99 156.76L115.06 155.95C123.95 155.48 131.8 155.76 139.04 156.82C139.19 156.84 139.34 156.87 139.56 156.91C141.01 157.18 143.709 157.67 145.959 154.81L147.14 153.31L146 151.78C143.24 148.07 139.35 146.07 135.91 144.31C134.14 143.4 132.31 142.46 130.75 141.35C127.22 138.83 123.559 136.47 120.029 134.19L119.709 133.98C118.729 133.35 117.76 132.72 116.79 132.09L116.85 131.75C117.09 130.4 117.3 129.18 117.5 127.95C118.37 122.56 115.989 118.43 111.129 116.89C107.739 115.82 104.12 115.45 101.02 115.23C99.3395 115.11 97.6695 115.09 95.9395 115.1C97.8795 113.39 99.7393 111.71 101.549 109.95C103.089 108.45 104.65 106.04 104.43 103.76C104.23 101.68 102.219 100.7 100.529 99.8802C100.189 99.7102 99.8593 99.5502 99.5693 99.3902C98.7093 98.9002 97.8293 98.8601 97.2593 98.8301H97.0693C92.6093 98.5501 88.1397 98.2901 83.6797 98.0501C81.2297 97.9201 78.7697 97.8002 76.1797 97.6702L74.3896 97.5801C74.7496 95.9801 75.0995 94.4602 75.4795 92.9802C75.8095 91.7302 76.4196 91.2702 77.7896 91.3102C79.5896 91.3702 81.3997 91.4402 83.1997 91.5102C84.2897 91.5502 85.3797 91.6002 86.4697 91.6402C91.1097 91.7902 97.6393 91.2001 100.819 84.1801L115.229 52.3001L108.31 53.8502C107.22 54.1002 106.36 54.3001 105.5 54.4601C105.13 54.5301 104.769 54.6001 104.379 54.6801C103.339 54.8901 102.27 55.1202 101.33 55.1202C99.1796 55.1202 98.0597 54.0702 97.9897 52.0102C97.8897 48.8502 97.9097 45.6501 97.9297 42.5501V42.3202C97.9297 41.6002 97.9397 40.8902 97.9497 40.1702C98.8797 39.7602 99.7797 39.3501 100.68 38.9601L100.779 38.9102C103.769 37.5802 106.59 36.3202 109.43 35.1302C114.06 33.1802 115.66 30.4902 114.95 25.8402C113.68 17.5002 109.93 10.3502 103.83 4.59015C100.52 1.47015 97.0793 0.0401574 93.2993 0.220157C91.6293 0.300157 89.9495 0.36017 88.2695 0.42017H87.9795C82.7895 0.61017 77.4294 0.800168 72.1494 1.45017C65.5194 2.26017 59.4394 3.58014 54.0894 5.36014C46.8794 7.76014 39.7093 11.1402 32.7993 15.3802C28.7593 17.8602 25.6693 21.2202 23.0693 25.9802C20.4993 30.6802 17.9195 35.4801 15.1895 40.6801C11.8195 47.1001 7.85947 55.7201 7.20947 65.5602C7.04947 67.9302 6.57947 75.1502 12.7095 78.7902C20.0095 83.1202 28.0396 86.5402 36.5996 88.9402C41.4896 90.3102 46.8695 91.6902 53.5195 93.2802C53.6295 93.3102 53.7093 93.3302 53.7793 93.3502C53.7193 94.4902 53.5897 95.6401 53.4497 96.8601C53.0897 96.8601 52.7396 96.8802 52.3896 96.8802C48.2096 96.9602 43.0196 97.0502 39.3496 102.45L38.4297 103.81L42.3394 109.95C41.8994 110.24 41.4593 110.53 41.0293 110.83C38.9993 112.18 36.8994 113.57 34.9194 115.13C33.7494 116.05 33.0795 117.29 32.4795 118.4C32.2895 118.76 32.0894 119.12 31.8794 119.45L30.3897 121.75L32.8193 123.02C33.1393 123.19 33.4596 123.38 33.7896 123.58C34.7296 124.15 35.7996 124.8 37.0996 125.07C38.2596 125.31 39.4096 125.43 40.5796 125.51C39.7496 127.57 38.9696 129.53 38.3296 131.58C34.4296 144.15 31.2596 154.58 28.3696 164.38C25.9896 172.46 23.7296 180.73 21.5596 188.72L20.8193 191.41C19.2393 197.18 17.6095 203.14 16.2295 209.08C14.4795 216.58 13.0097 223.92 11.4097 232.05C9.76967 240.38 8.17932 248.54 6.79932 256.85C6.08932 261.09 5.52949 265.39 4.97949 269.54L4.95947 269.67C4.61947 272.28 4.26965 274.89 3.88965 277.5L3.35938 281.07C2.15938 289.14 0.929649 297.48 0.639649 305.88C0.409649 312.46 3.87942 316.53 10.3994 317.33C13.4894 317.71 16.5797 318.4 19.6397 319.09C20.2197 319.22 20.7894 319.35 21.3594 319.47C21.3594 319.55 21.3594 319.63 21.3594 319.71C21.3194 321.12 21.2895 322.46 21.4395 323.8C22.1995 330.53 21.5297 337.45 20.8897 344.13C20.6797 346.27 20.4693 348.48 20.2993 350.69C19.9493 355.32 19.2493 360.06 18.5693 364.7C18.1993 367.22 17.8197 369.82 17.4897 372.39C17.0997 375.48 16.7494 378.57 16.3994 381.67C16.0294 384.98 15.6395 388.4 15.2095 391.74C14.8795 394.31 14.4794 396.94 14.0894 399.47C13.7294 401.84 13.3493 404.28 13.0293 406.71C12.0993 413.72 11.2397 420.95 10.4697 427.37C9.82973 432.69 9.24973 437.9 8.71973 442.85L8.48975 445C7.84975 450.98 7.19967 457.17 6.65967 463.32C6.28967 467.48 6.04943 471.76 5.91943 476.39C5.87943 477.86 6.00943 479.95 7.66943 481.14C9.32943 482.34 11.3494 481.84 12.9194 481.26C13.2394 481.14 13.6296 481.06 14.0796 481.01L19.3193 480.45C24.5693 479.89 29.9893 479.3 35.3193 478.83C37.9193 478.6 40.5696 478.46 43.3496 478.33L40.0195 482.65C32.3595 481.7 26.0694 483.55 20.8394 488.26C19.1994 489.73 17.6997 491.33 16.2397 492.89C15.6997 493.46 15.1694 494.03 14.6294 494.59C12.0094 497.32 11.3194 500.54 12.6494 503.92L12.7295 504.11C12.5995 506.48 13.7397 508.51 15.9297 509.79C16.5497 510.48 17.2097 511.05 17.9497 511.55C19.3697 512.5 20.7694 513.53 22.1294 514.53C24.2294 516.08 26.3995 517.68 28.7295 519.05L30.3193 519.99C35.1493 522.85 40.1395 525.8 45.9995 527.21C48.5995 527.84 51.2394 528.61 52.8994 529.97C55.1994 531.86 57.7396 532.98 60.8696 533.51C62.9396 533.86 64.9997 533.93 66.9897 533.99L67.9897 534.03C70.9797 534.14 73.9695 534.25 76.9595 534.36L79.1694 535.31L85.0596 536.31L85.6694 536.1C88.0494 535.27 90.5096 535.47 93.3696 535.7C94.0896 535.76 94.7993 535.82 95.5093 535.86L97.9697 536L97.9995 535.56C98.3695 535.73 98.7895 535.89 99.2495 536C102.45 536.74 105.14 535.77 107.56 534.49L112.589 535.71L113.35 534.06C113.5 534.06 113.68 534.06 113.77 534.06C114.51 534.06 115.5 534.04 116.5 533.55L121.129 532.05L121.49 531.4C121.79 531.24 122.09 531.06 122.39 530.88C122.53 530.85 122.679 530.83 122.839 530.8C123.509 530.68 124.35 530.53 125.22 530.13C127.93 528.81 128.66 526.23 129.14 524.52L129.24 524.15C129.73 522.46 129.58 520.94 128.85 519.72L130.819 518.64L127.04 516.4C126.19 515.9 125.409 515.39 124.589 514.87C122.899 513.78 121.299 512.75 119.479 512.02C115.149 510.28 110.78 508.6 106.52 506.98C101.36 505 96.0194 502.96 90.8394 500.82C89.6794 500.34 88.4893 499.95 87.3193 499.57C84.6693 498.7 82.1696 497.88 80.3096 496.09C79.4796 495.29 78.2593 494.7 77.0293 494.51C76.9693 494.51 76.9296 494.49 76.8896 494.48C76.8896 494.36 76.8995 494.18 76.9395 493.92C77.6195 489.51 78.2797 485.1 78.9497 480.69C79.0097 480.27 79.1295 479.82 79.2695 479.28C79.5695 478.12 79.9096 476.83 79.7896 475.35C80.1296 475.42 80.4696 475.49 80.8096 475.58L82.8296 476.11L86.4194 468.44C93.1894 469.74 99.9696 469.5 106.56 469.16C103.74 471.34 100.849 473.59 98.0693 475.9C96.8093 476.94 95.1095 479.88 96.2295 482.03C97.1395 483.77 99.0996 484.52 100.54 485.06L100.669 485.11C101.839 485.56 102.98 485.3 103.75 485.13C103.88 485.1 104.009 485.07 104.129 485.05C111.529 483.76 117.93 481.72 123.7 478.79C127.26 476.99 130.81 475.18 134.31 473.4L134.91 473.09C133.55 477.62 132.149 482.29 130.859 486.91C130.589 487.89 130.059 491.81 132.479 493.07C134.189 493.96 136.28 493.6 137.91 493.19C139.26 492.85 140.16 491.88 140.81 491.18L141.04 490.94C144.52 487.32 147.989 483.7 151.459 480.07C151.379 480.48 151.309 480.89 151.229 481.3C150.869 483.23 150.489 485.22 150.209 487.24C149.849 489.88 150.77 491.35 151.6 492.13C152.43 492.91 153.979 493.72 156.609 493.17C157.899 492.9 159.27 492.29 160.47 491.44C161.7 490.57 162.9 489.67 164.06 488.79C165.54 487.68 167.06 486.53 168.6 485.5C169.5 484.9 170.539 484.37 171.549 483.85C172.619 483.3 173.719 482.73 174.799 482.04C176.219 481.12 177.63 479.91 179.25 478.23C179.53 477.94 179.79 477.65 180.06 477.35C180.24 477.15 180.409 476.96 180.569 476.79C180.569 476.82 180.569 476.85 180.569 476.88C180.799 479.66 181.1 482.47 181.45 485.23C181.59 486.34 181.77 487.44 181.95 488.55C182.19 490 182.43 491.5 182.56 492.95C182.94 497.15 184.38 500.11 187.1 502.28C188.53 503.42 189.999 504.66 191.129 506.08C191.979 507.14 193.42 508.92 196.25 508.63C198.78 508.36 200.38 506.84 200.99 504.11C201.32 502.66 201.669 501.22 202.029 499.73C202.549 497.59 203.08 495.37 203.54 493.15C203.92 491.29 204.229 489.47 204.529 487.57C204.999 487.94 205.46 488.31 205.93 488.67L206.109 488.81C210.149 492 213.96 495 217.72 498.19C220.76 500.78 223.709 501.18 226.729 499.41L227.439 499L227.759 498.25C229.119 495.12 229.289 492.09 228.259 489L228.009 488.24C226.159 482.66 224.24 476.88 222.5 471.18C221.41 467.63 220.37 464.01 219.37 460.51C218.53 457.59 217.7 454.68 216.83 451.78C215.23 446.43 214.96 441.87 216 437.43C217.26 432.04 218.269 426.57 219.009 422.41C219.229 421.18 218.91 420.08 218.64 419.18C218.59 419.02 218.54 418.85 218.5 418.69C218.62 416.37 219.63 414.74 223.83 414.25C231.75 413.33 238.91 409.95 244.99 406.85C251.7 403.44 258.529 398.97 265.879 393.19C274.089 386.73 280.97 379.11 286.31 370.52C288.23 367.43 287.539 363.94 284.629 362.02L284.609 362.01ZM119.33 357.43V357.27C119.33 355.65 119.329 354.04 119.319 352.42L120.879 354.2C121.649 355.08 122.409 355.98 123.169 356.88C124.969 359.02 126.829 361.23 128.919 363.22C131.709 365.87 135.56 366.76 139.75 365.7C141.91 365.16 144.059 364.59 146.169 364.03L147.419 363.7L172.189 396.49C169.389 397.19 166.32 398.06 164.25 401.07L116.93 402.82C119.41 387.72 119.359 372.33 119.319 357.43H119.33ZM130.799 335.9C129.939 336.18 129.199 336.21 128.509 335.97C130.769 334.74 132.92 333.57 135.12 332.44C135.38 332.31 135.699 332.26 135.709 332.25C136.469 332.49 137.19 332.66 137.89 332.77C135.65 333.99 133.28 335.1 130.79 335.9H130.799ZM58.8193 485.99L56.2793 495.83L52.6797 493.31C54.1497 490.66 56.3893 488.35 58.8193 485.99Z" fill="white"/>
<path d="M67.2994 351.95C67.4694 347.28 66.9598 342.76 64.6598 338.56C64.3998 338.08 64.4198 337.38 64.4698 336.79C64.6498 334.79 65.5296 332.6 64.9796 330.84C64.3396 328.8 64.7597 327.18 65.1197 325.32C65.3897 323.94 65.1695 322.47 65.1695 320.78C68.7395 320.95 72.0495 320.08 75.3395 321.37C76.0795 321.66 77.0197 321.44 77.8697 321.44C83.0797 321.44 88.2894 321.44 93.5094 321.44C98.0494 321.45 102.609 321.12 107.529 322.63C107.199 325.64 106.84 328.8 106.5 331.95C106.01 336.54 104.6 340.96 104.38 345.62C104.24 348.79 103.43 351.93 102.94 355.08C102.46 358.23 101.99 361.39 101.54 364.55C101.04 368.07 100.589 371.59 100.049 375.1C99.6394 377.78 99.1095 380.44 98.6295 383.11C97.6695 388.45 96.3797 393.75 95.8697 399.13C95.5197 402.8 93.3396 406.17 94.2496 409.99C92.4296 415.22 92.2297 420.84 90.3697 426.08C89.6297 428.16 89.6198 430.49 89.1598 432.68C88.7498 434.63 88.1698 436.54 87.6998 438.47C86.7298 442.46 85.9197 446.5 84.7897 450.45C83.1897 456.06 81.4195 461.62 79.5695 467.15C79.0895 468.59 77.9498 469.61 76.1798 469.77C71.4698 470.2 66.7295 470.49 62.1495 471.87C61.3695 472.11 60.4595 471.93 59.6095 471.92C54.8195 471.87 50.0995 472.49 45.3995 473.33C44.5795 473.48 43.7095 473.38 42.8595 473.37C38.0695 473.32 33.3695 474.01 28.6495 474.74C23.7195 475.5 18.7099 475.79 13.7399 476.27C13.2899 476.31 12.8294 476.24 12.0294 476.2C12.3394 473.52 11.4895 471.03 12.6495 468.6C12.8395 468.19 12.7794 467.66 12.7994 467.18C13.0494 462.88 13.1797 458.56 13.5597 454.27C13.8797 450.61 14.5198 446.99 14.9498 443.34C15.0798 442.26 14.9799 441.16 14.9899 440.07C15.0499 434.46 15.6097 428.92 17.0397 423.49C17.1597 423.03 17.1598 422.54 17.1598 422.06C17.1698 415.97 18.1796 410.01 19.2696 404.03C19.8496 400.88 19.9297 397.62 20.0397 394.4C20.1297 391.77 20.0398 389.17 21.2198 386.7C21.5598 385.99 21.5194 385.06 21.5094 384.23C21.4594 380.99 22.0997 377.88 22.8297 374.74C23.3697 372.44 23.4996 370.04 23.6896 367.67C23.9896 363.85 24.0396 360.01 24.4796 356.22C24.9696 352 25.7898 347.82 26.4498 343.62C26.5398 343.03 26.5895 342.43 26.6095 341.84C26.8595 334.51 27.0997 327.17 27.3497 319.84C27.3597 319.5 27.4697 319.17 27.6197 318.39C29.7597 318.7 31.8495 318.86 33.8795 319.32C37.4195 320.13 40.9196 321.8 44.4396 321.84C47.1096 321.87 49.7095 322.53 52.3995 322.12C52.5695 322.62 52.6897 322.93 52.7897 323.24C53.8897 326.71 52.5495 329.2 49.0695 330.15C48.2795 330.37 47.3898 330.39 46.7198 330.79C43.6698 332.6 40.5794 334.21 37.0094 334.84C35.9094 335.04 34.3296 335.61 34.7096 337.76C37.7996 339.91 41.6595 340.42 45.6695 341.47C45.4395 342.39 45.4396 343.41 44.9596 344.1C43.3996 346.33 41.6596 348.44 39.9996 350.6C38.7696 352.19 37.6996 353.86 37.5196 356.16C41.1796 356.75 44.0196 355.1 46.7696 353.26C49.5196 351.42 52.1596 349.43 54.9596 347.67C55.8696 347.09 57.1195 347.04 58.1495 346.77C59.8695 350.48 61.4394 353.85 63.0094 357.22C63.2594 358.33 63.3797 359.49 63.8097 360.52C64.0197 361.02 64.8095 361.27 65.3395 361.64C66.0795 363.25 66.8295 364.85 67.5695 366.46C67.8095 366.43 68.0494 366.4 68.2794 366.38C68.4394 364.71 68.6096 363.03 68.7696 361.36C68.7996 360.93 68.8197 360.5 68.8497 360.08C70.6097 356.93 69.1196 354.42 67.2696 351.97L67.2994 351.95Z" fill="#80B7E1"/>
<path d="M48.5195 252.34C47.9595 255.34 49.7692 257.79 48.5092 260.42C48.2492 260.95 48.4495 261.95 48.8095 262.48C50.0795 264.32 49.9096 266.35 49.9096 268.39C49.9096 271.97 49.5794 275.6 51.2094 278.99C51.3594 279.3 51.3393 279.69 51.3593 280.05C51.6093 285.69 51.8193 291.33 52.1093 296.97C52.1893 298.5 52.5097 300.02 52.7197 301.54C52.7497 301.78 52.8593 302.04 52.7993 302.25C51.1693 307.71 53.6897 313.18 52.7397 318.64C52.7197 318.74 52.5996 318.83 52.4296 319.05C47.3596 320 42.3293 318.89 37.3593 317.73C28.9793 315.76 20.6595 313.53 12.3295 311.37C10.8795 311 8.70955 312.15 8.07955 310.3C7.48955 308.56 7.63953 306.48 7.80953 304.58C8.12953 300.92 8.72963 297.28 9.15963 293.63C9.65963 289.38 10.0995 285.12 10.5795 280.87C11.0695 276.5 11.5196 272.12 12.0996 267.76C12.6596 263.53 13.7294 259.34 13.8994 255.11C14.0694 250.87 16.4495 247.07 15.8295 242.7C15.6095 241.17 16.3195 239.45 16.8095 237.89C18.1995 233.47 19.2496 228.93 19.4096 224.34C19.5196 221.16 20.1196 218.13 20.8896 215.15C21.5296 212.68 22.6796 210.37 23.1396 207.79C24.1396 202.22 25.4196 196.7 26.6396 191.18C27.3496 187.96 28.0797 184.73 28.9697 181.55C30.4697 176.22 32.1396 170.94 33.6596 165.62C34.0496 164.26 33.9493 162.76 34.3593 161.42C35.4993 157.74 36.8192 154.11 38.0092 150.44C39.8192 144.83 41.5793 139.2 43.3393 133.58C44.3393 130.36 45.2895 127.13 46.2895 123.86C48.8095 123.66 50.9697 123.89 53.2397 124.37C60.1797 125.81 67.1895 126.91 74.0395 128.75C75.0295 129.02 76.1496 128.79 77.6196 128.79C76.4596 133.63 79.7995 136.28 81.9995 139.42C86.2195 145.44 90.7495 151.26 94.7695 157.41C97.9795 162.32 100.649 167.6 103.499 172.74C103.769 173.22 103.709 173.91 103.709 174.51C103.709 177.87 104.11 181.12 105.58 184.23C106.22 185.58 106.08 187.29 106.66 188.69C108.2 192.41 108.969 196.29 109.609 200.22C110.239 204.06 111.949 207.7 111.729 211.7C111.699 212.18 111.639 212.7 111.769 213.15C112.199 214.66 113.689 215.74 112.799 217.8C112.279 219.01 113.01 220.75 113.18 222.25C113.42 224.38 113.799 226.5 113.859 228.63C113.889 229.9 112.989 231.28 113.259 232.44C114.489 237.82 113.39 243.28 113.99 248.64C114.54 253.54 113.829 258.37 113.899 263.23C113.919 264.95 114.019 266.68 113.899 268.4C113.449 274.71 112.96 281.03 112.43 287.33C112.04 291.95 111.209 296.54 111.669 301.22C111.769 302.22 111.189 303.27 111.019 304.31C110.509 307.47 110.05 310.63 109.56 313.79C109.31 315.38 109.239 317.02 107.709 318.13C107.329 318.41 107.299 319.18 107.089 319.79C100.329 320.85 93.5295 318.55 86.7695 319.94C79.9895 318.39 73.1894 319.51 65.8994 320.18C66.1394 316.69 65.3896 313.51 66.3896 310.33C66.5296 309.88 66.6094 309.4 66.6294 308.93C66.8894 303.78 67.0396 298.61 67.3896 293.47C67.7396 288.36 68.4394 283.26 68.6694 278.15C68.8094 275.19 67.7093 272.07 68.2793 269.24C69.0093 265.61 68.5495 262.05 68.8095 258.48C68.8695 257.64 68.8095 256.79 68.8095 255.46C70.7195 255.17 72.6593 254.87 74.6093 254.59C75.8993 254.4 77.2395 254.4 78.4795 254.05C80.8195 253.39 81.7196 251.54 81.3696 249.13C80.9496 246.18 80.7397 243.21 80.4497 240.24C79.9697 235.26 80.3393 230.22 79.0893 225.27C78.4493 222.76 78.6395 220.05 78.2495 217.46C77.6295 213.37 76.4497 209.33 76.2397 205.22C76.0097 200.65 74.5093 196.38 73.8593 191.93C73.5293 189.73 72.7595 187.59 72.0395 185.46C70.2795 180.21 68.5995 174.91 66.5595 169.77C65.4395 166.96 63.6396 164.42 62.1596 161.75C61.4796 160.52 60.7794 159.31 60.1494 158.05C58.8794 155.52 57.8896 152.83 56.3696 150.47C54.6696 147.83 51.7395 146.32 48.7895 146.43C46.5595 146.51 44.2293 147.63 42.5693 149.86C39.7593 153.64 38.9193 158.01 37.8593 162.36C37.7793 162.67 37.6695 163.24 37.7895 163.3C40.2695 164.65 38.5997 166.45 38.2197 167.97C36.8697 173.34 35.3794 178.68 33.9194 184.02C33.1494 186.86 32.2595 189.67 31.5395 192.52C29.8695 199.15 28.2294 205.78 26.6694 212.44C26.0494 215.08 26.1895 218.03 25.0795 220.4C23.2395 224.3 24.5594 228.74 22.4594 232.51C22.0894 233.17 22.3795 234.17 22.2695 235C22.0595 236.64 21.8095 238.28 21.5195 239.92C21.0795 242.36 20.4394 244.77 20.1494 247.22C19.8994 249.35 21.5095 250.82 23.9995 250.92C26.1795 251.01 28.3595 250.95 30.5395 250.94C34.6095 250.91 38.5993 251.57 42.5893 252.3C44.3393 252.62 46.1893 252.35 48.5293 252.35L48.5195 252.34Z" fill="#01A993"/>
<path d="M174.729 451.03C176.729 450.75 178.919 450.72 180.909 450.08C183.239 449.33 184.559 447.44 185.249 445C185.649 443.6 186.429 442.16 187.419 441.09C189.489 438.85 191.809 436.85 193.659 434.2C193.129 434.44 192.489 434.57 192.079 434.94C190.549 436.36 189.169 437.96 187.579 439.3C186.929 439.84 185.869 439.89 184.829 440.22C183.939 436.9 183.259 433.88 182.859 430.7C182.319 426.45 180.759 422.33 179.729 418.14C178.669 413.83 178.319 409.35 176.539 405.2C176.049 404.07 176.829 402.9 178.149 402.96C179.519 403.03 181.049 403.27 182.179 403.96C187.679 407.31 192.959 411.03 198.529 414.24C201.839 416.15 205.549 417.39 209.109 418.85C210.799 419.54 212.569 420.03 214.429 420.66C213.279 424.76 212.209 428.69 211.069 432.59C209.829 436.84 208.269 441.01 207.279 445.31C205.509 452.94 203.159 460.42 201.799 468.16C201.329 470.85 200.819 474.06 197.259 475.27C199.329 477.53 199.229 479.8 198.579 482.39C197.719 485.8 197.429 489.36 196.809 492.83C196.419 495.01 195.869 497.15 195.439 499.12C193.229 500.62 192.2 498.67 191.22 497.78C190.3 496.94 189.32 494.99 189.7 494.13C190.86 491.52 189.699 489.13 189.229 486.91C188.559 483.74 188.119 480.64 188.049 477.42C187.969 473.76 187.569 470.11 187.289 466.11C185.889 466.41 184.609 466.48 183.529 466.99C182.669 467.4 182.179 468.56 181.329 469C180.429 469.46 179.209 469.29 178.279 469.71C176.569 470.47 174.949 470.84 173.039 469.29C171.409 472.35 169.95 475.12 168.45 477.86C167.48 479.63 165.899 480.88 164.459 482.22C163.069 483.51 161.579 484.72 160.009 485.77C159.219 486.29 158.149 486.39 156.799 486.8C156.779 480.51 158.749 475.03 159.169 469.22C155.399 467.51 156.039 468.12 153.209 470.88C150.239 473.77 147.389 476.8 144.359 479.64C143.599 480.35 142.369 480.57 141.249 481.05C140.439 476.15 143.529 468.31 147.789 463.8C145.079 462.18 144.999 462.04 142.629 463.41C138.989 465.51 135.329 467.62 131.639 469.55C124.859 473.09 118.059 476.83 110.439 478.44C109.069 478.73 107.579 478.48 105.709 478.48C106.039 477.51 106.059 476.56 106.549 476.16C109.609 473.61 112.579 470.97 116.109 469.01C118.229 467.83 119.979 465.98 122.479 463.96C120.909 463.64 119.969 463.16 119.159 463.33C113.639 464.5 108.059 464.77 102.439 464.76C100.199 464.76 97.9495 465.46 95.7195 465.39C92.4095 465.28 89.1092 464.76 85.6292 464.39C85.0392 461.49 86.6591 459.04 87.5491 456.44C87.7791 455.78 88.4494 455.1 88.3494 454.53C87.8994 451.97 89.7793 450.9 91.2093 449.45C93.0093 447.61 94.8692 445.78 96.3792 443.71C98.6492 440.6 100.369 437.04 102.849 434.13C104.499 432.19 104.649 429.83 105.839 427.84C106.189 427.26 106.149 426.38 106.579 425.94C108.739 423.73 109.33 420.83 110.24 418.07C111.32 414.79 112.389 411.5 113.509 408.07C119.689 407.81 125.919 407.59 132.149 407.28C134.149 407.18 136.139 406.67 138.129 406.72C140.069 406.77 141.989 406.43 143.929 406.54C146.099 406.67 148.29 406.57 150.47 406.57H156.649C158.709 406.57 160.769 406.57 162.829 406.57C163.559 406.57 164.289 406.55 165.009 406.57C166.329 406.62 166.869 407.32 166.979 408.63C167.419 413.72 167.83 418.81 168.45 423.88C168.81 426.79 169.469 429.66 170.119 432.53C170.939 436.18 171.879 439.79 172.779 443.42C173.399 445.92 174.019 448.41 174.679 451.06L174.729 451.03Z" fill="white"/>
<path d="M77.5492 249.9C71.2092 251.17 65.1293 250.28 59.1293 250.04C53.9193 249.83 48.6694 249.23 43.4794 248.61C37.5694 247.9 31.7094 248.23 25.8294 248.02C23.3294 247.93 22.4494 247.05 23.0794 244.63C23.7894 241.87 24.0594 239.16 23.7694 236.34C23.7094 235.8 24.0791 235.22 24.2591 234.66C24.5491 233.76 25.1692 232.84 25.1092 231.97C24.7192 226.28 27.2993 221.03 27.4393 215.4C27.4993 213.2 28.3092 211.02 28.8592 208.85C30.3792 202.8 31.9294 196.75 33.4794 190.71C34.8194 185.47 36.1592 180.22 37.5492 174.99C37.9092 173.63 38.7895 172.36 38.9095 171C39.3795 165.77 42.4796 161.27 42.7396 155.95C42.9296 152.13 45.3895 150.39 48.9095 150.59C50.7495 150.69 52.0093 151.66 52.8793 153.11C59.6493 164.38 65.4291 176.04 69.0091 188.83C70.6691 194.76 71.4892 200.82 73.0492 206.75C74.0892 210.73 74.1793 214.97 74.6293 219.1C75.1493 223.83 75.2895 228.63 76.1795 233.28C76.9895 237.49 76.5992 241.66 76.8392 245.84C76.9092 247.12 77.2692 248.38 77.5492 249.91V249.9Z" fill="#01A993"/>
<path d="M56.5093 83.7902V87.9302C52.7893 88.2902 49.5196 87.1502 46.3296 86.2102C40.9696 84.6402 35.6695 82.7802 30.4595 80.7302C26.0495 79.0002 21.8495 76.7502 17.4995 74.8802C14.5495 73.6102 13.8693 71.2302 13.5093 68.3702C12.5393 60.7602 14.8793 53.8402 17.7993 47.0702C19.4593 43.2402 21.5195 39.5702 23.4395 35.8702C25.8095 31.3102 29.0593 27.3002 31.0693 22.5502C32.2293 19.8102 34.9995 18.6002 37.4395 17.3602C42.3995 14.8502 47.4096 12.3802 52.5996 10.4202C55.7296 9.24024 59.1597 8.66023 62.4497 7.85023C65.4197 7.13023 68.4497 6.82021 71.4097 6.11021C74.0397 5.48021 76.8196 5.31024 79.5396 5.20024C83.2896 5.06024 87.0696 5.41021 90.8096 5.11021C97.9396 4.55021 102.58 8.11021 105.89 13.8302C108.05 17.5702 109.959 21.4902 110.799 25.7902C111.029 26.9502 111.08 28.2002 110.89 29.3502C110.78 30.0502 110.19 30.9902 109.58 31.2502C105.27 33.0502 100.94 34.8302 96.5195 36.3202C95.0395 36.8202 93.1996 36.2702 92.0796 37.8702C91.2396 36.9802 90.4795 37.4002 89.7295 38.0102C88.7495 37.7902 87.7793 37.5002 86.7993 37.3502C85.2993 37.1202 85.5793 36.0002 85.5293 35.0202C86.7593 33.5402 87.9895 32.0602 89.2295 30.5802C91.3795 28.0302 93.6595 25.5402 94.1895 21.9402C91.4095 21.8702 92.5694 24.6002 91.1494 25.5302C89.8094 26.4102 88.8893 27.9102 87.7793 29.1302C85.5693 30.6102 83.3497 32.0902 81.1397 33.5702C79.9297 34.2802 78.6895 34.9402 77.5195 35.7102C76.2395 36.5502 74.9293 37.3802 73.8193 38.4202C72.6793 39.4902 71.6097 39.6102 69.8897 38.7402C70.8397 37.0002 71.7696 35.4102 72.5796 33.7602C73.3796 32.1502 74.9293 30.7602 74.2993 28.6702C73.5293 29.5902 73.1393 30.6902 72.5093 31.6202C68.6293 37.3202 63.2495 41.5002 57.9995 45.7902C57.2295 46.5602 56.4497 47.3302 55.6797 48.1002C55.2197 48.3202 54.4696 48.4402 54.3496 48.7902C53.8596 50.1902 53.5495 51.6502 53.1895 53.0602C52.7095 53.1302 52.0596 53.0302 51.8096 53.3002C50.3596 54.8402 48.9593 54.5702 47.0293 54.0102C44.4993 53.2802 41.7293 53.3602 39.0493 53.1802C38.5893 53.1502 38.1094 53.5802 37.6294 53.7902C37.3394 54.0802 37.0493 54.3602 36.7593 54.6502C34.6093 55.4602 34.1996 56.0002 34.8096 57.8602C36.1696 62.0602 38.2596 65.9502 41.8696 68.5502C43.8596 69.9802 45.6295 72.2102 48.5195 72.1002L48.4297 72.0202C49.5197 74.2102 51.6793 73.8402 53.5493 74.1702C53.1293 76.0202 55.3497 75.3302 55.4697 75.6802C55.8897 78.8802 56.2096 81.3202 56.5396 83.7602L56.5093 83.7902Z" fill="#FBECD1"/>
<path d="M84.8295 533.78C83.1895 533.51 81.5594 533.23 79.9194 532.96C78.8794 532.51 77.8393 532.07 76.7993 531.62C76.5693 531.37 76.3793 530.96 76.1093 530.9C74.1393 530.46 72.3193 529.92 71.0693 528.07C70.5393 527.28 69.4295 527.15 68.7695 528.31C67.5295 528.8 66.2793 529.29 64.6093 529.94C64.0793 529.65 63.1795 529.16 62.2895 528.67C60.1095 527.89 57.9392 527.1 55.7592 526.34C55.5492 526.27 55.2895 526.35 55.0595 526.37L55.1093 526.41C52.9093 524.08 49.8692 523.7 47.0092 522.91C44.1892 521.88 41.3193 520.95 38.5493 519.79C36.6993 519.01 34.2394 519.32 33.1494 517.04C31.9594 515.53 31.0593 513.69 28.8193 513.44C26.1793 510.01 22.0393 509.55 18.3593 508.24C15.5393 507.24 14.4594 505.2 15.6694 502.43C15.8994 501.9 16.1894 501.41 16.4594 500.89C18.0994 499.08 18.0893 496.72 18.5493 494.52C18.7993 494.26 19.0195 493.79 19.2895 493.76C23.1595 493.33 25.5395 490.13 28.8295 488.56C31.8495 487.11 34.4993 486.56 37.5893 487.4C38.7493 487.74 39.9094 488.08 41.4194 488.52C40.2094 490.37 39.0793 492 38.0493 493.7C36.6193 496.06 36.8596 497.05 39.0996 498.62C41.0996 500.02 42.7396 499.9 44.9096 498.54C46.0296 497.84 46.7296 496.24 48.4496 496.69C50.6296 496.4 52.1197 497.59 53.4897 499.03C53.9897 500.46 54.4894 501.88 54.9794 503.31C55.0794 503.99 55.1695 504.66 55.3295 505.75C57.5695 504.67 59.5093 503.74 61.8193 502.63C62.9993 505.27 64.1196 507.8 65.3696 510.61C66.2596 509.96 67.4296 509.38 68.1596 508.46C68.6496 507.84 68.9493 506.33 68.5693 505.89C66.9993 504.06 68.2395 502.61 68.8295 501.04C72.6095 499.85 75.8993 501.06 79.2993 502.76C83.1293 504.67 87.2197 506.06 91.1997 507.67C94.8897 508.61 98.5795 509.56 102.269 510.5C105.299 509.68 107.7 510.85 110.31 512.39C112.32 513.57 114.449 514.41 116.169 516.13C116.899 516.85 118.26 517.04 119.37 517.24C120.41 517.42 121.51 517.28 122.06 517.28C123.31 518.34 124.18 519.43 125.31 519.96C127.04 520.78 127.199 522.13 126.799 523.54C126.319 525.21 125.929 527.07 124.089 527.96C122.529 528.68 120.43 528.17 119.39 530.05C118.09 530.47 116.79 530.89 115.49 531.31C115.07 529.49 113.629 530.19 112.589 530.25C110.609 530.36 108.639 530.69 106.669 530.93C104.649 532.06 102.519 532.56 100.189 532.37C99.4394 532.31 98.6594 532.67 97.8994 532.83C97.1294 532.99 95.8196 531.12 95.6396 533.45C92.0196 533.24 88.3895 532.58 84.8295 533.82V533.78Z" fill="#F5CF87"/>
<path d="M192.299 395.77C200.039 395.69 201.61 389.55 204.89 384.52C205.32 384.86 205.93 385.21 206.35 385.72C208.44 388.29 211.369 388.5 213.319 385.86C214.949 383.65 216.569 381.55 216.689 378.31C216.799 375.18 218.55 372.12 219.68 368.72C220.72 368.72 221.91 368.76 223.1 368.72C229.34 368.49 235.599 368.44 241.819 367.92C245.579 367.61 249.239 366.3 253.089 366.54C253.659 366.58 254.239 366.6 255.029 366.64V370.62C258.919 373.25 262.609 375.72 266.279 378.24C268.749 379.93 268.9 381.99 266.5 383.72C261.99 386.98 258.139 391.15 253.069 393.65C252.159 395.86 249.699 395.82 248.089 397.05C246.429 398.32 244.6 399.46 242.68 400.29C239.49 401.66 236.51 403.54 233.08 404.34C232.73 404.42 232.259 404.34 232.049 404.55C229.409 407.14 226.08 406.47 222.91 406.54C222.08 406.56 221.15 406.45 220.43 406.77C218.24 407.77 216.359 407.11 214.319 406.22C209.309 404.03 204.209 402.02 199.129 399.98C197.079 399.16 194.959 398.51 192.939 397.65C192.609 397.51 192.59 396.63 192.33 395.78L192.299 395.77Z" fill="white"/>
<path d="M56.5094 83.7903C56.1894 81.3503 55.8695 78.9102 55.4395 75.7102C55.3195 75.3502 53.0896 76.0403 53.5196 74.2003C52.3496 72.1903 50.2795 72.3502 48.3995 72.0502L48.4898 72.1302C47.6398 71.3702 46.8895 70.4602 45.9395 69.8802C42.6195 67.8602 39.7897 65.2003 38.0597 61.8503C37.0097 59.8003 34.8798 57.4702 36.7398 54.6902C37.0298 54.4002 37.3195 54.1202 37.6095 53.8302C43.2795 54.5602 49.2895 54.3702 53.6095 60.3302C54.0295 58.2802 54.2994 56.9502 54.5694 55.6202C58.1494 54.3602 61.7597 53.4002 65.5797 54.0802C66.5997 56.0102 66.2296 58.6702 68.7696 59.6602C71.7296 65.0802 78.9594 65.7003 83.5494 62.5403C85.2994 61.3403 86.8395 59.7103 88.1695 58.0403C89.2795 56.6503 90.7594 55.1102 89.2994 52.9702C89.0194 52.5602 89.2394 51.8003 89.2794 51.2003C89.4594 48.7203 89.6597 46.2403 89.8497 43.7603C90.1197 44.4503 90.5897 45.1302 90.6197 45.8302C90.7197 48.1702 90.6598 50.5203 90.6598 53.0103C91.7598 53.0803 92.5697 53.1402 93.3697 53.1902C94.0097 57.1302 97.2697 58.6802 100.08 58.9302C101.68 59.0702 103.34 58.5202 104.98 58.3402C105.67 58.2602 106.38 58.3302 107.37 58.3302C107.31 59.3202 107.46 60.2003 107.17 60.8903C104.86 66.3703 102.52 71.8303 100.08 77.2603C98.9897 79.6903 97.6798 82.0303 96.4498 84.3903C95.4898 86.2303 92.8895 87.3202 90.1095 86.5502C87.2495 85.7602 84.5598 85.6702 81.7198 86.5502C80.4998 86.9302 79.0796 86.6902 77.7496 86.6102C75.9496 86.5002 74.6196 87.3203 73.2296 88.3503C70.8196 90.1503 69.6998 92.4102 69.4898 95.4102C69.3698 97.0902 68.4795 98.7203 67.8995 100.48C65.2495 100.21 62.7994 99.8602 60.3394 99.7502C58.6794 99.6702 57.8895 99.0402 57.9195 97.3702C57.9495 95.4402 57.6698 93.4602 57.9898 91.5802C58.4798 88.7402 57.2196 86.3502 56.5196 83.8102L56.5094 83.7903Z" fill="#F1BA91"/>
<path d="M89.5493 444.56C90.6593 440.62 91.6295 437.4 92.4595 434.14C93.3795 430.49 94.6596 426.84 94.8696 423.14C95.1296 418.68 96.7495 414.62 97.4595 410.32C97.7095 408.81 98.0395 407.31 98.2695 405.8C98.8995 401.72 99.4794 397.63 100.089 393.54C100.929 387.93 101.119 382.23 102.629 376.72C102.819 376.04 102.999 375.32 102.979 374.63C102.859 370.8 104.159 367.05 104.129 363.34C104.099 358.74 105.889 354.38 105.259 349.74C105.009 347.93 105.469 345.94 105.979 344.13C106.709 341.52 106.649 338.93 106.729 336.27C106.839 332.74 107.419 329.2 108.189 325.75C108.669 323.62 110.67 324.55 112.54 324.37C113.01 330.14 113.35 335.71 113.93 341.25C115.22 353.54 114.47 365.86 114.58 378.17C114.62 382.56 114.309 386.96 113.279 391.31C112.649 393.95 112.789 396.76 112.439 399.47C111.679 405.43 110.239 411.21 108.439 416.97C106.659 422.66 103.609 427.59 100.779 432.68C99.1993 435.53 96.8996 437.94 95.5396 440.99C95.0596 442.07 93.9995 443.01 92.9795 443.7C92.2095 444.21 91.0996 444.21 89.5396 444.58L89.5493 444.56Z" fill="#80B7E1"/>
<path d="M67.2993 351.95C69.1493 354.4 70.6394 356.91 68.8794 360.06C68.5394 359.96 68.1796 359.74 67.8496 359.78C65.2396 360.11 65.2394 360.13 64.3994 357.67C63.9994 356.5 63.5797 355.34 63.1797 354.18C61.9897 350.28 61.4897 346.15 59.4297 342.81C53.6897 345.64 49.4095 350.54 43.2695 352.24C41.6895 349.6 43.7394 348.41 44.6694 346.95C45.6494 345.41 46.8893 344.02 48.0693 342.61C48.7693 341.77 49.8696 340.9 48.8696 339.87C48.2396 339.23 46.9995 339.08 45.9995 338.92C43.9295 338.59 41.8395 338.4 39.9795 338.18C39.1895 335.91 40.8393 335.77 41.7593 335.33C45.5593 333.54 49.4595 331.95 53.2695 330.17C55.0795 329.32 55.6593 327.69 55.2793 325.68C55.0993 324.75 55.0295 323.78 55.0195 322.83C54.9895 319.2 55.0193 315.57 55.0093 311.94C54.9893 307.51 54.6995 303.09 54.4395 298.67C54.1195 293.26 54.2598 287.78 54.2398 282.32C54.2198 276.93 53.9398 271.53 53.4898 266.16C53.3098 264.05 52.6295 262.04 52.9995 259.83C53.3095 257.97 53.0596 256.02 53.0596 253.64C57.5296 253.91 61.9098 254.18 66.7398 254.48C66.2398 259.73 67.4198 264.73 65.9898 269.71C65.7598 270.49 65.9297 271.4 65.9297 272.24C65.9297 279.66 66.2195 287.1 64.4795 294.41C64.4295 294.64 64.4795 294.89 64.4795 295.13C64.2395 301.49 64.1097 307.85 63.7197 314.2C63.4197 319.18 62.6694 324.13 62.3594 329.11C62.1894 331.81 62.5095 334.4 63.4395 337.15C64.9895 341.78 66.8096 346.49 66.8096 351.55C66.8096 351.69 67.1496 351.82 67.3296 351.96L67.2993 351.95Z" fill="#F1BA91"/>
<path d="M151.74 324.27C153.69 323.26 155.65 322.25 157.62 321.23C155.76 318.19 152.699 316.23 145.919 313.65C145.919 312.88 145.879 312.04 145.939 311.21C145.969 310.75 146.04 310.01 146.31 309.89C148.12 309.07 149.949 307.97 151.859 307.75C153.649 307.54 155.19 308.8 156.12 310.53C157.52 313.15 158.99 315.73 160.43 318.33C160.66 318.74 160.829 319.23 161.149 319.54C165.359 323.62 165.59 328.47 164.18 333.78C163.03 338.12 162.24 342.55 161.12 346.89C160.59 348.94 159.949 351.06 158.859 352.84C157.519 355.04 155.109 355.89 152.609 356.33C147.949 357.16 143.27 357.9 138.66 358.95C137.37 359.24 136.669 359.03 135.799 358.24C132.899 355.63 129.86 353.17 127.06 350.46C125.49 348.94 124.309 347.01 122.919 345.29C121.419 343.43 119.88 341.6 118.45 339.87C117.37 340.06 116.589 340.2 115.589 340.38C114.789 335.12 114 329.99 113.2 324.7C114.86 324.08 117.19 324.79 118.02 322.4C118.12 322.13 119.329 322.25 120.459 322.14C120.459 324.44 120.579 326.59 120.399 328.72C120.329 329.56 119.67 330.44 119.08 331.12C118.36 331.94 117.789 332.94 118.629 333.66C122.229 336.73 125.64 340.42 130.87 340.23C132.79 340.16 134.789 339.29 136.549 338.38C140.119 336.54 143.459 334.28 147.049 332.5C149.169 331.45 149.7 330.01 149.6 327.88C149.56 326.99 150.03 326.08 150.27 325.17C150.76 324.86 151.249 324.55 151.729 324.24L151.74 324.27Z" fill="#016FB3"/>
<path d="M43.7696 101.89C51.5396 101.89 58.6696 101.82 65.7896 101.97C66.8296 101.99 67.8396 103.11 69.2896 103.97C71.1096 102.17 73.9894 102.19 76.5894 102.71C82.2294 103.84 87.8793 103 93.5093 103.37C94.9893 103.47 96.4494 103.87 98.6494 104.25C97.5594 105.74 97.0195 106.77 96.2295 107.53C93.8495 109.8 91.3197 111.91 88.9297 114.17C86.6097 116.37 84.4894 118.77 82.1094 120.9C80.2394 122.58 78.2996 124.45 76.0396 125.34C74.0496 126.13 71.4896 126.12 69.3296 125.7C61.8196 124.25 54.3994 122.32 46.8794 120.9C44.2094 120.39 41.3595 120.82 38.6895 120.82C37.6495 118.91 38.9595 117.94 39.9595 117.38C42.7995 115.8 44.6698 112.85 47.9898 111.91C49.4798 111.49 49.5294 110.12 48.3794 108.73C47.1694 107.26 45.9095 105.83 44.7495 104.31C44.3595 103.79 44.2293 103.07 43.7593 101.88L43.7696 101.89Z" fill="#DB763B"/>
<path d="M111.319 123.14C110.509 127.92 109.45 132.9 108.89 137.93C108.35 142.7 108.36 147.54 108.1 152.34C107.82 157.47 107.51 162.59 107.21 167.82C105.74 168.23 104.76 168.16 104.04 166.55C100.69 159.08 96.4597 152.14 91.3097 145.76C88.0297 141.7 84.9194 137.5 81.7794 133.34C80.0394 131.04 80.1894 128.21 79.7794 125.55C79.7194 125.16 79.9894 124.57 80.2994 124.29C81.7594 122.98 83.1797 121.55 84.8297 120.53C85.9797 119.82 87.4795 119.44 88.8395 119.38C92.4695 119.23 96.0999 119.34 99.7399 119.32C103.73 119.3 107.57 119.79 111.33 123.13L111.319 123.14Z" fill="#DB763B"/>
<path d="M123.299 328.01C123.659 325.98 124.069 324.12 123.519 321.88C122.309 316.93 123.619 315.23 128.639 313.39C128.839 313.32 128.969 313.07 129.399 312.62C128.699 312.39 128.079 311.96 127.589 312.08C124.779 312.76 122.659 314.15 120.859 316.72C119.269 318.99 117.139 321.58 113.479 321.45C113.179 319.71 112.489 318.4 112.999 316.38C114.219 311.6 114.609 306.62 115.339 301.72C113.979 299.54 115.599 297.38 115.389 295.2C115.329 294.52 115.46 293.74 115.74 293.12C116 292.56 116.519 291.86 117.039 291.75C117.429 291.67 118.06 292.38 118.45 292.85C120.64 295.5 122.779 298.2 124.959 300.86C126.439 302.66 128.029 302.9 130.349 302C133.989 300.58 137.879 299.81 142.029 300.56C143.249 303.63 145.049 306.63 144.439 310.26C143.979 312.98 142.799 313.36 140.539 311.55C140.369 311.41 140.119 311.34 139.899 311.3C139.669 311.26 139.419 311.3 139.189 311.3C138.039 313.86 136.599 316.34 135.839 319C135.399 320.55 134.209 322.29 135.559 324.17C136.009 324.79 135.629 326 135.629 326.91C133.383 327.337 132.166 328.567 131.979 330.6C130.979 331.92 129.409 331.63 128.059 332C123.869 333.13 123.419 332.81 123.289 328.38C123.289 328.26 123.289 328.14 123.279 328.02L123.299 328.01ZM133.619 310.68C134.999 309.89 136.459 309.06 137.919 308.22C135.799 307.92 135.059 303.18 132.599 306.06C132.969 307.74 133.269 309.06 133.629 310.68H133.619Z" fill="#F1BA91"/>
<path d="M213.189 376.76C210.059 376.59 210.939 372.98 208.749 371.76C208.469 372.03 208.139 372.6 207.689 372.73C205.799 373.26 205.49 374.54 205.52 376.29C205.57 379.44 203.619 383.85 201.609 387.1C200.879 388.28 200.46 389.63 199.33 390.55C197.75 391.84 196.459 391.32 196.089 389.28C195.919 388.36 195.739 387.44 195.479 386.55C193.959 381.39 193.129 376.2 194.589 370.86C194.759 370.24 194.489 369.46 194.319 368.78C193.639 366.11 193.59 366.03 195.87 364.91C201.08 362.34 206.14 359.4 211.95 358.28C213.32 358.02 214.72 357.87 216.33 357.63C215.27 364.1 214.269 370.17 213.189 376.76Z" fill="white"/>
<path d="M208.779 451.65C211.649 451.8 212.149 452.26 212.839 454.73C214.749 461.57 216.67 468.42 218.68 475.23C219.8 479.03 221.179 482.75 222.279 486.55C222.789 488.31 222.93 490.18 223.22 491.88C221.14 492.75 220.099 491.98 219.009 490.86C215.289 487.04 211.49 483.31 207.71 479.54C207.28 479.11 206.74 478.75 206.45 478.24C205.7 476.91 203.23 477.2 203.41 475.1C203.53 473.71 203.979 472.35 204.149 470.95C204.879 465.12 207.52 459.7 207.79 453.77C207.82 453.13 208.35 452.51 208.77 451.64L208.779 451.65Z" fill="white"/>
<path d="M68.8296 501C68.2396 502.57 66.9993 504.03 68.5693 505.85C68.9493 506.3 68.6497 507.8 68.1597 508.42C67.4297 509.35 66.2596 509.92 65.3696 510.57C64.1196 507.76 62.9893 505.23 61.8193 502.59C59.5093 503.7 57.5696 504.63 55.3296 505.71C55.1696 504.63 55.0795 503.95 54.9795 503.27C56.6095 503.14 58.2397 503.01 59.9897 502.87C59.9897 500.37 60.5994 498.45 61.3994 496.44C62.6394 493.32 62.9895 489.85 63.7295 486.53C64.4495 483.33 65.2397 480.14 65.9097 476.93C66.1197 475.89 66.0296 474.79 66.0596 473.94C68.7296 473.18 71.3196 472.47 73.8896 471.69C75.6996 471.14 77.5296 472.16 77.3496 473.94C77.1996 475.33 77.2197 477.01 75.4697 477.75C75.1197 477.9 74.7794 478.35 74.6694 478.74C74.1294 480.66 73.6495 482.59 73.1895 484.53C72.8095 486.13 72.6396 487.79 72.0996 489.32C71.4196 491.24 70.9295 493.13 70.9395 495.2C70.9395 496.16 70.3097 497.13 69.9497 498.09C69.5897 499.06 69.1996 500.03 68.8296 501Z" fill="#F1BA91"/>
<path d="M179.589 395.88C182.959 393.78 183.019 393.68 186.609 395.63C193.119 399.17 200.009 401.81 206.839 404.63C209.099 405.56 211.119 407.06 212.929 408.12C213.699 409.55 214.45 410.72 214.97 411.97C215.44 413.1 215.659 414.33 216.109 415.95C214.959 415.95 214.339 416.11 213.839 415.93C209.549 414.36 205.289 412.72 201.009 411.12C195.449 409.04 190.89 405.21 185.74 402.41C184.5 401.74 183.209 401.15 181.909 400.6C179.909 399.75 178.739 398.49 179.579 395.87L179.589 395.88Z" fill="#80B7E1"/>
<path d="M48.4395 496.67C46.7095 496.22 46.0094 497.82 44.8994 498.52C42.7294 499.88 41.0894 500.01 39.0894 498.6C36.8494 497.03 36.6096 496.04 38.0396 493.68C39.0696 491.99 40.1997 490.35 41.4097 488.5C39.9097 488.06 38.7396 487.72 37.5796 487.38C41.4596 486.94 43.7597 484.61 45.6397 481.32C47.0797 478.79 49.2295 476.66 51.2295 474.13C53.6495 474.13 56.2995 474.24 58.9395 474.09C60.9095 473.98 62.8497 473.53 65.6597 473.09C64.9897 474.41 64.8396 475.26 64.3696 475.53C57.1596 479.68 52.0598 485.95 47.2398 492.5C46.8298 493.06 46.4596 493.73 46.3296 494.4C46.0296 495.89 46.7695 496.39 48.1895 496.02C48.3095 496.22 48.3997 496.43 48.4497 496.65L48.4395 496.67Z" fill="#F1BA91"/>
<path d="M136.16 151.54C133.7 151.28 131.25 151 128.79 150.75C127.96 150.67 127.109 150.67 126.279 150.59C124.039 150.37 121.799 150.03 119.549 149.93C118.139 149.87 116.71 150.13 115.29 150.28C114.49 150.36 113.69 150.52 112.66 150.67V135.52C114.16 135.26 115.38 135.33 116.87 136.34C122.72 140.31 128.759 144 134.669 147.89C135.549 148.47 136.069 149.59 136.759 150.46C136.559 150.82 136.36 151.18 136.16 151.53V151.54Z" fill="#DB763B"/>
<path d="M170.66 402.26C174.2 402.36 174.319 402.37 174.259 405.12C174.169 409.22 175.08 413.07 176.18 416.99C177.36 421.17 177.83 425.54 178.66 429.81C179.28 433.05 179.98 436.27 180.62 439.5C180.74 440.08 180.8 440.68 180.83 441.27C180.97 444.64 180.53 445.1 176.71 445.64C176.39 443.31 176.09 440.97 175.72 438.64C175.61 437.96 175.32 437.3 175.07 436.65C174.86 436.1 174.32 435.53 174.39 435.04C174.85 431.6 173.2 428.53 172.81 425.24C172.14 419.59 171.32 413.97 170.69 408.32C170.48 406.42 170.66 404.48 170.66 402.26Z" fill="#80B7E1"/>
<path d="M280.549 366.22C279.959 368.27 279.95 370.35 277.5 371.49C276.24 372.08 275.419 373.72 274.509 374.97C272.369 377.88 271.49 378.05 268.35 376.02C266.07 374.55 263.76 373.12 261.52 371.57C260.84 371.1 260.369 370.31 259.669 369.51C263.289 367.69 266.629 366.92 270.049 366.06C273.709 365.14 276.96 364.97 280.54 366.22H280.549Z" fill="#BF9577"/>
<path d="M151.74 324.27C151.25 324.58 150.759 324.89 150.279 325.2C147.789 325.05 145.819 326.54 143.919 327.68C142.419 328.58 141.209 328.88 139.439 328.48C139.179 325.52 138.899 322.59 138.669 319.66C138.629 319.09 138.779 318.51 138.839 317.93C141.486 318.297 143.283 317.813 144.229 316.48C148.399 315.67 151.639 318.17 155.129 319.42C155.879 321.27 154.489 321.93 153.579 322.8C153.009 323.34 152.349 323.79 151.729 324.28L151.74 324.27Z" fill="#F1BA91"/>
<path d="M225.74 365.34C225.97 363.85 225.8 362.74 226.27 362.28C228.74 359.84 231.33 357.52 233.97 355.26C234.98 354.39 236.089 354.81 236.649 355.95C237.099 356.86 237.439 357.91 237.529 358.92C237.669 360.58 237.569 362.26 237.569 364.42C233.749 364.72 230.04 365.01 225.74 365.34Z" fill="white"/>
<path d="M162.779 344.69C162.419 342.66 164.309 341.57 165.259 340.65C167.049 338.94 167.57 337.02 167.91 334.7H172.259C171.959 335.88 171.77 336.86 171.46 337.79C171.15 338.72 170.71 339.61 170.33 340.52C169.95 341.43 169.58 342.34 169.21 343.26C167.396 344.674 165.369 345.154 163.129 344.7C163.019 344.68 162.899 344.7 162.779 344.69Z" fill="#016CB0"/>
<path d="M93.3496 53.1802C92.5496 53.1302 91.7396 53.0702 90.6396 53.0002C90.6396 50.5102 90.6996 48.1602 90.5996 45.8202C90.5696 45.1202 90.0996 44.4402 89.8296 43.7502C89.6496 43.2502 89.4793 42.7502 89.2993 42.2502C90.4593 41.0702 91.6296 39.9002 92.7896 38.7202C93.1896 39.2002 93.5795 39.6902 93.9795 40.1702C93.9995 43.7502 94.0093 47.3402 94.0293 50.9202C93.7993 51.6702 93.5694 52.4302 93.3394 53.1802H93.3496Z" fill="#E9B58E"/>
<path d="M165.99 316.99C162.63 316.83 161.73 315.83 160.47 310.93C162.39 310.56 164.209 308.57 166.169 310.84C167.989 312.95 166.91 315 165.99 316.99Z" fill="#016FB3"/>
<path d="M106.669 530.88C108.639 530.64 110.609 530.32 112.589 530.2C113.629 530.14 115.07 529.45 115.49 531.26C114.15 532.06 112.069 530.83 111.149 532.82C109.829 532.5 108.509 532.18 107.189 531.86C107.009 531.53 106.84 531.2 106.66 530.87L106.669 530.88Z" fill="#9C8456"/>
<path d="M63.1597 354.18C63.5697 355.34 63.9794 356.51 64.3794 357.67C65.2294 360.13 65.2196 360.11 67.8296 359.78C68.1596 359.74 68.5194 359.96 68.8594 360.06C68.8294 360.49 68.8093 360.92 68.7793 361.34C67.6293 361.44 66.4894 361.53 65.3394 361.63C64.8094 361.27 64.0196 361.01 63.8096 360.51C63.3796 359.48 63.2593 358.32 63.0093 357.21C63.0593 356.2 63.0994 355.18 63.1494 354.17L63.1597 354.18Z" fill="#D8A986"/>
<path d="M106.669 530.88L107.2 531.87C104.9 533.16 102.539 534.24 99.7993 533.6C99.1393 533.45 98.5296 533.06 97.8896 532.79C98.6596 532.62 99.4397 532.26 100.18 532.33C102.51 532.52 104.65 532.03 106.66 530.89L106.669 530.88Z" fill="#BC9F68"/>
<path d="M68.7695 528.3C69.4295 527.14 70.5393 527.27 71.0693 528.06C72.3193 529.91 74.1394 530.45 76.1094 530.89C76.3794 530.95 76.5693 531.36 76.7993 531.61C75.3593 531.61 73.9097 531.61 72.4697 531.61C71.2397 530.51 70.0095 529.41 68.7695 528.31V528.3Z" fill="#AA905E"/>
<path d="M92.7994 38.7202C91.6394 39.9002 90.4696 41.0702 89.3096 42.2502C89.0196 41.7602 88.7295 41.2802 88.4395 40.7902C88.1595 39.5502 88.8695 38.7702 89.7095 38.0502C90.4595 37.4402 91.2196 37.0202 92.0596 37.9102C92.3096 38.1802 92.5594 38.4502 92.7994 38.7202Z" fill="#D4A481"/>
<path d="M162.779 344.69C162.899 344.69 163.019 344.69 163.129 344.7C165.369 345.154 167.396 344.674 169.209 343.26C169.079 345.5 167.27 346.2 165.64 346.72C164.21 347.17 163.309 345.98 162.779 344.69Z" fill="#015E99"/>
<path d="M57.9593 45.8201C60.5393 46.6901 62.1693 44.5701 63.9193 43.5301C65.7093 42.4601 67.2596 42.0701 69.4496 42.4701C69.4896 43.0801 69.5295 43.7401 69.5795 44.4001C69.3095 44.6701 69.0492 44.9302 68.7792 45.2002C68.3092 45.8002 67.6593 46.3401 67.3993 47.0201C66.7193 48.8201 66.2194 50.6801 65.7894 52.0501C62.5394 52.4601 59.8493 52.8801 57.1493 53.0801C56.3193 53.1401 55.2393 52.7901 54.6493 52.2301C54.3193 51.9201 54.6692 50.7801 54.8592 50.0401C55.0292 49.3701 55.3793 48.7601 55.6493 48.1201C56.4193 47.3501 57.1996 46.5801 57.9696 45.8101L57.9593 45.8201Z" fill="#F1BA91"/>
<path d="M85.4995 35.0602C84.3895 35.1002 83.2494 35.2901 82.1694 35.1101C81.7394 35.0401 81.4494 34.1301 81.0894 33.6101C83.2994 32.1301 85.5195 30.6502 87.7295 29.1702C88.6695 29.1902 89.2197 29.6101 89.1797 30.6101C87.9497 32.0901 86.7195 33.5701 85.4795 35.0501L85.4995 35.0602Z" fill="#DDAB85"/>
<path d="M68.7497 59.6501C67.9797 57.1301 66.8596 54.6601 67.3796 51.9201C67.8096 49.6801 68.3095 47.4501 68.7795 45.2101C69.0495 44.9401 69.3098 44.6801 69.5798 44.4101C71.5698 41.4201 74.6397 39.5201 77.7097 38.3401C80.8097 37.1401 84.4497 37.3301 87.2697 40.0101C87.5997 40.3301 88.0399 40.5401 88.4299 40.7901C88.7199 41.2801 89.0095 41.7601 89.2995 42.2501C89.4795 42.7501 89.6498 43.2501 89.8298 43.7501C89.6398 46.2301 89.4395 48.7101 89.2595 51.1901C89.2195 51.7901 88.9995 52.5501 89.2795 52.9601C90.7395 55.1001 89.2496 56.6401 88.1496 58.0301C86.8196 59.7101 85.2795 61.3301 83.5295 62.5301C78.9395 65.6901 71.7097 65.0701 68.7497 59.6501ZM85.0598 51.1701C84.8398 50.8801 84.6299 50.5901 84.4099 50.3001C82.6699 50.1301 81.7295 50.8101 82.0095 53.2201C83.1795 52.4301 84.1195 51.8001 85.0495 51.1701H85.0598Z" fill="white"/>
<path d="M23.8898 317.47C19.8098 316.64 15.2998 315.43 10.6998 314.87C5.49982 314.23 2.94951 311.35 3.12951 305.99C3.44951 296.53 4.98972 287.22 6.34972 277.89C7.34972 271.03 8.10963 264.13 9.24963 257.29C10.6296 249.02 12.2297 240.79 13.8497 232.56C15.3597 224.91 16.8795 217.26 18.6495 209.68C20.2395 202.88 22.1196 196.15 23.9596 189.41C26.1696 181.3 28.3894 173.18 30.7594 165.12C33.9794 154.17 37.3196 143.25 40.7096 132.35C41.6196 129.4 42.8898 126.57 44.1598 123.27C41.7698 123.07 39.6397 123.08 37.5997 122.65C36.3197 122.38 35.1696 121.46 33.9596 120.83C34.7696 119.57 35.3298 117.99 36.4498 117.11C39.1798 114.95 42.1694 113.12 45.0494 111.14C45.3394 110.94 45.5798 110.65 45.6598 110.57C44.1798 108.25 42.7398 105.98 41.3898 103.88C45.1098 98.4002 50.5195 99.7402 55.6695 99.2602C55.8895 97.1902 56.1796 95.2202 56.2696 93.2302C56.3296 91.8302 55.4997 91.2001 54.0797 90.8601C48.4497 89.5101 42.8296 88.1102 37.2496 86.5402C29.0696 84.2502 21.2598 80.9901 13.9698 76.6501C9.88984 74.2301 9.41957 69.8202 9.68957 65.7302C10.2496 57.1902 13.4295 49.3602 17.3795 41.8502C19.9595 36.9402 22.5799 32.0602 25.2399 27.1902C27.3899 23.2602 30.0897 19.9801 34.0797 17.5201C40.6697 13.4701 47.5995 10.1601 54.8595 7.74014C60.5195 5.85014 66.4996 4.66016 72.4396 3.94016C79.3696 3.09016 86.3998 3.05016 93.3898 2.73016C96.8398 2.57016 99.5995 4.07017 102.089 6.42017C107.849 11.8502 111.27 18.4802 112.46 26.2302C113.02 29.9002 111.87 31.3901 108.44 32.8301C104.23 34.6001 100.08 36.5001 95.4298 38.5501C95.4298 42.9601 95.3198 47.5402 95.4698 52.1002C95.5798 55.5702 97.8295 57.6302 101.319 57.6302C102.859 57.6302 104.41 57.2101 105.94 56.9301C107.3 56.6801 108.64 56.3401 110.87 55.8401C106.52 65.4601 102.52 74.3102 98.5196 83.1602C96.1496 88.4002 91.6194 89.3401 86.5294 89.1501C83.6294 89.0401 80.7395 88.9102 77.8395 88.8202C75.3295 88.7402 73.6697 89.9201 73.0397 92.3601C72.4197 94.7701 71.9096 97.2002 71.2696 99.9402C75.7296 100.16 79.6296 100.34 83.5196 100.55C87.9796 100.79 92.4395 101.05 96.8995 101.32C97.3795 101.35 97.9295 101.34 98.3195 101.56C99.6295 102.31 101.84 103.07 101.93 104C102.06 105.33 100.89 107.09 99.7897 108.16C96.5497 111.32 93.0698 114.24 89.2198 117.67C93.5298 117.67 97.1897 117.47 100.83 117.73C104.03 117.95 107.319 118.31 110.359 119.28C114.229 120.51 115.659 123.54 115.009 127.56C114.719 129.34 114.4 131.12 114.02 133.29C119.07 136.62 124.299 139.83 129.279 143.39C134.049 146.8 140.22 148.24 143.97 153.28C142.46 155.21 140.88 154.58 139.38 154.36C130.98 153.13 122.549 153.02 114.089 153.51C113.739 153.53 113.39 153.67 112.73 153.83C112.47 156.73 112.17 159.7 111.95 162.67C111.59 167.59 111.28 172.51 110.94 177.43C110.91 177.9 110.879 178.6 110.589 178.77C107.839 180.44 109.43 182.44 109.98 184.46C111.12 188.64 112.21 192.84 113.15 197.07C116.1 210.25 117.52 223.61 117.63 237.12C117.69 244.21 118.27 251.31 118.15 258.4C118.02 266.82 117.61 275.26 116.9 283.65C116.53 287.96 117.94 291.12 121 293.83C121.45 294.23 122.12 294.46 122.42 294.94C125.66 300.22 130.11 301.08 135.66 298.95C137.41 298.28 139.46 298.34 141.39 298.15C143.06 297.98 144.03 298.62 144.49 300.42C144.98 302.36 145.94 304.18 146.71 306.08C151.89 304.88 156.689 304.13 159.529 309.84C162.699 309.25 166.029 306.4 168.569 310.74C170.589 314.19 170.37 315.22 166.19 319.69C168.98 323.42 171.1 327.57 169.04 332.91C170.41 332.75 171.18 332.55 171.94 332.59C175.01 332.76 176.64 335.28 175.06 337.89C170.93 344.71 166.46 351.31 160.56 356.76C159.64 357.61 158.21 357.95 156.97 358.4C155.28 359.02 153.55 359.53 151.39 360.23C153.41 362.85 155.22 365.2 157.12 367.66C158.15 367.09 159.06 366.58 160.44 365.82C167.66 374.61 174.29 383.87 181.02 393.14C184.43 390.51 186.45 395 189.13 394.77C190.24 393.54 191.219 392.45 192.359 391.19C191.629 388 190.5 384.65 190.18 381.23C189.85 377.7 190.119 374.08 190.509 370.54C190.699 368.75 191.339 366.65 194.279 367.01C194.279 371.13 193.94 375.21 194.38 379.19C194.82 383.21 196.04 387.15 196.92 391.13C197.23 391.22 197.54 391.3 197.85 391.39C199.01 389.82 200.259 388.31 201.299 386.67C203.499 383.19 205.38 379.53 205.39 375.29C205.39 373.23 206.86 372.95 208.16 372.49C209.75 371.93 210.65 372.95 211.18 374.33C211.57 375.33 211.909 376.34 212.759 377.34C213.729 371.13 214.7 364.92 215.74 358.25C207.85 358.8 201.59 363.19 194.43 365.36C194.86 364.97 195.23 364.44 195.74 364.21C201.76 361.44 207.79 358.69 213.85 356C214.71 355.62 215.73 355.49 216.68 355.46C218.23 355.4 219.19 356.11 219.24 357.81C219.32 360.46 219.479 363.1 219.609 365.93C220.789 365.82 221.84 365.72 222.88 365.62C222.73 365.43 222.57 365.23 222.42 365.04C225.45 361.99 228.45 358.93 231.52 355.92C232.02 355.43 232.76 355.18 233.4 354.86C236.74 353.19 238.92 354.26 239.69 357.97C240.08 359.84 240.369 361.74 240.759 363.96C242.579 363.86 244.379 363.93 246.109 363.63C252.749 362.47 259.45 362.13 266.16 361.85C269.04 361.73 272.01 361.96 274.77 361.31C278.37 360.47 280.71 362.44 283.25 364.12C285.04 365.3 285.34 367.35 284.18 369.21C278.88 377.73 272.18 385.06 264.33 391.24C257.91 396.29 251.16 400.92 243.85 404.64C237.4 407.92 230.799 410.93 223.529 411.78C218.949 412.31 216.08 414.28 215.98 418.94C216.18 419.96 216.71 421.03 216.54 421.99C215.65 426.97 214.71 431.95 213.56 436.88C212.32 442.21 212.89 447.36 214.43 452.52C216.37 458.98 218.139 465.49 220.109 471.94C221.939 477.93 223.92 483.88 225.89 489.82C226.73 492.37 226.55 494.8 225.47 497.28C223.19 498.61 221.389 498.06 219.339 496.32C214.019 491.8 208.47 487.55 202.74 482.99C202.18 486.33 201.74 489.53 201.1 492.68C200.35 496.34 199.39 499.95 198.56 503.59C198.24 505.03 197.62 506.01 195.99 506.18C194.56 506.33 193.91 505.59 193.08 504.55C191.82 502.98 190.24 501.63 188.66 500.36C186.18 498.38 185.319 495.78 185.049 492.76C184.819 490.14 184.26 487.56 183.93 484.95C183.58 482.21 183.29 479.46 183.06 476.71C182.95 475.44 183.04 474.16 183.04 472.61C180.08 473.13 178.92 475.01 177.44 476.54C176.22 477.81 174.89 479.03 173.42 479.99C171.43 481.28 169.17 482.15 167.2 483.47C164.4 485.34 161.78 487.5 159.02 489.44C158.15 490.05 157.119 490.55 156.089 490.76C153.569 491.29 152.33 490.18 152.68 487.62C153.12 484.39 153.84 481.2 154.37 477.98C154.59 476.63 154.66 475.24 154.19 473.64C149.21 478.85 144.23 484.06 139.24 489.25C138.66 489.85 138.029 490.62 137.299 490.81C136.109 491.11 134.6 491.4 133.63 490.89C133.07 490.6 132.98 488.66 133.27 487.63C135.07 481.17 137.05 474.76 138.98 468.26C133.64 470.98 128.109 473.8 122.569 476.6C116.599 479.62 110.26 481.48 103.7 482.63C102.99 482.75 102.159 483.05 101.549 482.82C100.399 482.38 98.9298 481.86 98.4498 480.92C98.1098 480.27 98.8798 478.52 99.6598 477.88C103.91 474.36 108.33 471.03 112.68 467.64C113.03 467.37 113.35 467.06 113.62 466.39C104.03 466.7 94.4696 467.89 84.9996 465.63C83.7996 468.19 82.6498 470.66 81.4498 473.22C77.5698 472.2 73.8795 472.51 70.0895 474.14C68.3495 474.89 65.9895 474.1 63.9195 474.17C60.4195 474.29 56.9198 474.4 53.4498 474.81C52.2698 474.95 50.8897 475.7 50.1197 476.61C47.4097 479.84 44.3896 482.98 42.5196 486.68C41.1296 489.44 39.9194 492.28 38.2794 494.95C37.9294 495.53 38.5094 496.94 39.0294 497.72C39.8694 498.99 41.1996 499.78 42.7696 499.17C43.9796 498.7 45.0695 497.9 45.6095 496.87C46.2095 495.02 46.4796 492.97 47.4796 491.37C51.3096 485.25 56.5496 480.4 62.2496 476.05C63.2096 475.31 64.5794 475.1 66.5494 474.34C64.2694 483.74 62.1797 492.32 60.2897 500.14C62.1497 503.87 63.7294 507.04 65.5294 510.65C66.7594 509.64 68.1598 508.5 69.6598 507.27C67.5798 504.28 68.1294 501.66 69.7594 499.03C70.3794 498.03 71.0495 496.86 71.0895 495.74C71.3595 489 73.8595 482.78 75.4195 476.35C75.5595 475.77 75.8195 475.22 76.0895 474.68C76.1695 474.52 76.4898 474.47 76.9698 474.24C77.8798 476.43 76.7796 478.39 76.4796 480.38C75.8196 484.79 75.1498 489.2 74.4698 493.6C74.1898 495.39 74.5298 496.7 76.6398 497.04C77.3198 497.15 78.0897 497.48 78.5797 497.96C81.7497 501.01 86.0698 501.63 89.8898 503.2C99.3698 507.11 109.029 510.58 118.549 514.41C120.919 515.37 123.029 517 125.759 518.63C123.389 519.92 122.11 518.79 120.63 518.19C112.12 514.76 103.57 511.44 95.0196 508.11C94.3996 507.87 93.6596 507.93 92.9796 507.86C92.8896 508.1 92.7996 508.34 92.7096 508.58C93.9096 509.19 95.1194 509.79 96.2994 510.43C98.5294 511.62 100.92 512.6 102.92 514.1C105.67 516.16 105.459 517.99 102.819 520.24C101.559 521.32 100.33 522.52 99.3795 523.87C98.1895 525.54 96.5596 526.41 94.7296 526.21C87.7196 525.44 80.8995 523.82 74.8795 519.95C71.8095 517.98 71.7698 516.74 74.6798 514.5C77.2398 512.53 80.0994 510.95 82.7594 509.1C83.5794 508.53 84.4996 507.74 84.7296 506.88C84.8596 506.41 83.7594 505.37 83.0094 504.95C80.9194 503.78 78.7697 502.65 76.5397 501.79C74.0697 500.83 72.2294 502.25 70.5494 503.84C71.4194 505.58 73.3297 507.83 72.8297 508.75C71.7597 510.7 69.4497 511.99 67.5997 513.5C67.2497 513.79 66.7197 513.86 66.3497 514C61.3797 511.79 61.6498 505.6 57.4298 502.75C55.2198 503.44 54.1597 504.9 54.2897 507.29C54.4097 509.7 54.4698 512.12 54.4698 514.54C54.4698 516.5 55.4597 517.31 57.3097 517.56C66.3697 518.8 74.8195 521.98 83.0895 525.76C84.6995 526.49 86.5494 527.01 88.2994 527.04C95.9194 527.15 103.55 527.09 111.17 526.95C112.27 526.93 113.4 526.24 114.43 525.7C117.31 524.21 120.07 522.47 123.04 521.2C123.97 520.8 125.409 521.6 126.609 521.84C126.229 522.91 126.11 524.19 125.43 525.01C122.66 528.37 119.16 530.45 114.73 531.12C107.17 532.26 99.5998 532.68 91.9698 532.45C83.9998 532.21 76.0297 531.93 68.0597 531.63C65.7897 531.54 63.4894 531.52 61.2594 531.15C58.7894 530.74 56.5896 529.89 54.4596 528.15C52.3496 526.41 49.3197 525.56 46.5597 524.89C40.4397 523.42 35.2498 520.1 29.9698 517C26.2498 514.82 22.9197 511.97 19.3097 509.57C16.9197 507.97 15.9198 505.56 14.9498 503.09C13.9598 500.56 14.5598 498.33 16.4098 496.42C18.4198 494.33 20.3496 492.15 22.4996 490.22C27.7096 485.53 33.8497 484.23 41.0997 485.43C43.2497 482.64 45.6598 479.52 48.6398 475.66C43.5898 475.94 39.3295 476.06 35.0895 476.44C27.9895 477.08 20.8994 477.88 13.7994 478.63C13.2094 478.69 12.6094 478.81 12.0494 479.02C9.29943 480.02 8.31953 479.46 8.39953 476.56C8.51953 472.25 8.75951 467.93 9.12951 463.64C9.72951 456.82 10.4696 450.02 11.1896 443.22C11.7396 438.07 12.3198 432.92 12.9298 427.77C13.7498 420.89 14.5799 414.01 15.4899 407.14C16.1499 402.14 17.0295 397.16 17.6695 392.16C18.4995 385.71 19.1396 379.24 19.9596 372.8C20.8796 365.52 22.2294 358.28 22.7794 350.98C23.4694 341.89 24.9498 332.8 23.9098 323.62C23.7098 321.86 23.8795 320.06 23.8795 317.55L23.8898 317.47ZM129.819 313.36C131.579 311.23 133.54 309.15 131.39 306.27C134.41 303.93 134.47 303.87 136.77 306.22C138.87 308.37 140.8 310.66 142.85 312.94C144.27 308.64 144.99 308.11 140.62 300.37C137.34 301.16 133.9 301.8 130.6 302.86C128.11 303.65 126.1 303.42 124.4 301.45C122.6 299.36 120.85 297.22 119.1 295.08C118.45 294.28 117.849 293.44 116.839 292.1C116.529 293.43 116.29 294.08 116.25 294.74C116.11 297.25 116.23 299.78 115.91 302.26C115.24 307.49 114.309 312.68 113.589 317.91C113.469 318.81 113.87 319.79 114.14 321.35C116.96 318.89 119.71 317.75 121.17 314.79C122.61 311.87 125.73 311.54 128.65 311.42C129.97 311.36 130.16 312.36 129.92 313.46C126 315.334 124.146 318.407 124.359 322.68C124.439 324.36 124.36 326.05 124.45 327.73C124.52 329.02 124.76 330.29 124.97 331.96C126.79 331.2 128.219 330.59 130.359 329.7C125.099 328.85 125.16 328.81 126.66 324.33C127.87 320.73 128.79 317.04 129.83 313.38L129.819 313.36ZM12.5597 475.61C13.6397 475.79 14.2494 476.05 14.7994 475.96C17.6594 475.47 20.4697 474.66 23.3497 474.37C34.6397 473.24 45.9396 472.31 57.2296 471.2C63.3496 470.6 69.4494 469.81 75.5494 469C76.9294 468.82 78.4296 468.55 78.9596 466.79C81.0496 459.84 83.2994 452.93 85.2594 445.95C86.4194 441.81 87.1697 437.55 88.0997 433.34C89.8797 425.27 91.8198 417.24 93.4098 409.13C95.1098 400.45 96.5598 391.72 97.9698 382.98C99.2198 375.28 100.24 367.54 101.42 359.82C102.56 352.34 103.83 344.88 104.94 337.39C105.64 332.67 106.14 327.91 106.81 322.57C92.9897 322.16 79.5597 321.76 66.1197 321.35C65.8397 323.62 65.4695 325.64 65.3795 327.67C65.2495 330.78 65.0098 333.94 65.3898 337C65.7998 340.29 67.1195 343.47 67.6095 346.76C68.3995 351.98 68.8698 357.25 69.3898 362.5C69.5598 364.18 69.4396 365.87 67.5196 367.19C62.8096 361.21 61.1395 353.75 57.3195 347.22C54.0195 349.45 51.0297 351.67 47.8497 353.57C45.4897 354.98 42.9797 356.25 40.3697 357.07C37.6597 357.93 36.3995 356.48 37.3195 353.76C37.8095 352.3 38.7295 350.96 39.6095 349.68C41.2995 347.22 43.0994 344.83 45.0494 342.14C40.8394 341.02 36.6595 340.65 33.1695 337.38C34.0795 336.38 34.7397 335.08 35.7897 334.61C39.9497 332.73 44.1896 331.05 48.4596 329.42C52.6096 327.83 53.0298 327.14 51.9498 323.49C43.6998 322.03 35.7494 320.63 28.0094 319.27C28.0094 322.96 28.2596 326.48 27.9596 329.94C27.1796 339.07 26.2096 348.18 25.2096 357.29C24.1496 367.01 23.0195 376.72 21.8595 386.42C20.9595 393.93 19.8997 401.41 19.0397 408.92C18.4797 413.81 18.2696 418.73 17.6896 423.61C17.2096 427.67 16.1997 431.68 15.8097 435.75C14.8597 445.7 14.1397 455.66 13.3297 465.62C13.0597 468.91 12.8097 472.21 12.5397 475.61H12.5597ZM106.7 319.34C107.54 317.48 108.989 315.43 109.359 313.2C110.219 307.98 110.679 302.68 111.089 297.4C112.059 284.8 113.24 272.21 113.71 259.59C114.06 250.11 113.65 240.57 113.16 231.09C112.74 223.05 111.75 215.04 110.95 207.02C110.78 205.29 110.419 203.57 110.029 201.87C109.269 198.62 108.43 195.4 107.62 192.16C107.18 190.41 106.74 188.65 106.25 186.92C105.93 185.78 105.5 184.67 105.13 183.54C104.82 182.57 104.47 181.61 104.27 180.62C103.77 178.08 103.749 175.36 102.799 173C101.499 169.78 99.7397 166.67 97.7897 163.78C91.8497 154.98 85.7498 146.29 79.6598 137.59C77.9298 135.12 76.2497 132.7 77.2897 129.36C66.9197 127.39 56.8695 125.49 46.9195 123.6C45.4895 127.65 43.9895 131.32 42.8795 135.12C39.8195 145.6 36.8898 156.13 33.9698 166.65C31.8798 174.2 29.7598 181.75 27.9298 189.37C26.3198 196.05 25.7699 203.07 23.4899 209.49C20.8699 216.85 20.4198 224.49 18.8898 231.98C17.2698 239.92 15.9394 247.93 14.5694 255.92C13.3294 263.12 11.9995 270.32 11.0895 277.56C10.1995 284.6 9.76957 291.7 9.18957 298.78C8.87957 302.56 8.66978 306.34 8.40978 310.22C11.6398 310.8 14.5094 311.17 17.3194 311.83C26.0194 313.88 34.6898 316.09 43.3898 318.11C46.1898 318.76 49.0798 319 51.9298 318.06C52.1598 296.28 49.8696 274.85 47.4796 252.91C39.5496 252.48 31.8495 252.06 24.1495 251.63C20.3895 251.42 19.3396 250.33 19.7496 246.67C20.2896 241.9 20.7696 237.1 21.7096 232.39C23.6096 222.85 25.6195 213.32 27.9195 203.87C30.6895 192.51 33.8394 181.25 36.7794 169.93C37.3394 167.77 39.2998 165.6 36.9298 163.33C36.7598 163.17 36.8798 162.62 36.9698 162.28C38.0998 158.09 39.1294 153.88 41.7794 150.27C45.9194 144.62 52.7396 144.57 56.7296 150.3C57.3496 151.19 57.8695 152.15 58.3795 153.12C59.8995 156 61.3998 158.89 62.8898 161.78C64.1598 164.24 65.5595 166.65 66.6295 169.2C71.4495 180.7 74.3997 192.73 76.5597 204.98C78.7797 217.57 80.3995 230.23 80.8795 243.01C80.9495 244.93 81.1494 246.86 81.5094 248.75C82.1594 252.15 81.3997 253.84 78.0397 254.56C75.2597 255.16 72.3495 255.2 69.6695 255.47C68.5395 276.66 67.3996 297.81 66.2496 319.35H106.67L106.7 319.34ZM55.2296 55.8001C55.0196 56.4401 54.8597 56.7701 54.8097 57.1201C54.6597 58.2401 55.3195 59.9201 53.6095 60.0501C52.6895 60.1201 51.4899 59.2402 50.7399 58.4802C47.4399 55.1202 43.1596 54.9801 38.9396 54.8301C37.1096 54.7701 36.5198 56.0402 37.1998 57.8502C38.9398 62.5202 41.7797 66.3502 46.1197 68.9102C48.9397 70.5702 51.8496 72.0702 54.7696 73.6702C53.2996 75.5302 51.5294 74.8002 50.0494 74.2002C42.8694 71.2702 36.9995 66.9301 34.3795 59.1801C33.2595 55.8601 34.0896 53.6002 37.5196 53.0702C40.2896 52.6402 43.2394 52.8002 46.0294 53.2502C48.4894 53.6502 50.6995 54.0101 52.8195 51.8701C52.4195 49.1601 54.2197 47.4402 56.3497 45.9102C56.8397 45.5602 57.2994 45.1601 57.7594 44.7701C63.4194 40.1001 69.5198 35.8701 72.8898 28.9901C73.1798 28.4001 74.1295 28.1201 74.8595 27.6501C76.6295 32.3501 71.2797 34.4201 71.3097 38.7101C72.0397 38.3401 72.4797 38.2102 72.8097 37.9402C79.3497 32.5702 87.6698 29.3702 92.4098 21.7902C92.6198 21.4502 93.7096 21.2402 93.9996 21.4702C94.4596 21.8302 94.9194 22.7102 94.7794 23.1902C94.3994 24.4402 93.8295 25.6902 93.0895 26.7602C90.9295 29.8802 88.6495 32.9202 86.4195 35.9802C88.0695 37.7302 90.0497 37.2702 91.8497 36.6702C96.9797 34.9702 102.1 33.2201 107.14 31.2701C110.43 30.0001 110.66 29.2701 109.87 25.7401C108.67 20.3501 106.35 15.4201 102.98 11.1101C100.36 7.75014 96.7597 5.90016 92.3297 5.76016C72.3597 5.12016 53.4895 8.96017 36.1095 19.2002C34.1695 20.3502 32.7095 21.6401 31.6295 23.6101C29.2195 28.0201 26.8197 32.4602 24.0797 36.6702C18.9197 44.5802 15.6496 53.1802 13.9996 62.4402C12.7896 69.2102 14.7594 73.0001 21.0294 75.6801C27.3394 78.3801 33.6097 81.2002 40.0597 83.5002C45.0197 85.2702 50.2295 86.3002 55.8795 87.8102C55.4895 85.0802 55.3197 82.9602 54.8697 80.8902C54.1197 77.3902 54.2794 76.3701 55.7994 75.4301C56.8294 79.8401 57.9096 84.3902 58.9396 88.9402C59.0896 89.5902 58.9798 90.3101 58.9498 90.9901C58.8598 93.1401 58.5898 95.3002 58.7198 97.4402C58.7598 98.1102 59.7796 99.1902 60.4396 99.2602C62.6896 99.4902 64.9697 99.3502 67.5397 99.3502C68.0597 97.2302 68.6095 95.0202 69.1495 92.8102C70.1195 88.8502 72.6398 86.5601 76.6798 86.1501C81.4598 85.6701 86.2697 84.6602 91.0397 86.0302C92.8997 86.5602 94.1094 85.9202 95.0294 84.4702C96.1194 82.7502 97.2195 81.0302 98.0695 79.1902C101.119 72.6002 104.07 65.9602 107.18 59.0702C95.5998 60.1902 93.4296 58.8602 92.4796 50.5002C92.1896 54.9002 89.2996 57.8202 86.7296 60.9702C82.6996 65.9102 72.4797 67.2102 68.0397 60.6602C66.7297 58.7302 65.6895 56.6102 64.3795 54.3202C61.4995 54.7902 58.3096 55.3102 55.2296 55.8202V55.8001ZM85.6695 463.51C86.4695 463.76 87.0095 464.01 87.5695 464.09C97.4895 465.44 107.34 464.5 117.18 463.23C118.96 463 120.719 462.48 122.759 464.39C119.549 466.71 116.38 468.76 113.49 471.14C110.63 473.5 107.15 475.28 104.74 479.38C109.07 478.21 112.8 477.62 116.18 476.19C121.72 473.85 127.04 471.01 132.42 468.31C135.85 466.59 139.17 464.66 142.63 463C144.28 462.21 146.17 461.15 148.1 463.67C143.74 468.99 141.39 475.32 140.66 482.43C144.91 478.52 148.969 474.44 152.859 470.21C154.449 468.48 156.179 467.2 159.109 466.33C160.369 473.47 156.74 479.84 156.79 487.24C159.74 485.02 162.19 483.29 164.5 481.39C165.78 480.33 167.02 479.11 167.9 477.72C170.59 473.46 173.09 469.08 175.69 464.77C176.88 462.8 178.129 460.87 179.359 458.92C176.899 459.54 175 460.77 172.96 461.71C170.67 462.77 168.32 463.78 165.89 464.41C163.59 465.01 162.31 463.49 163.23 461.31C163.81 459.95 164.85 458.69 165.95 457.65C168.2 455.52 170.6 453.54 173 451.57C174.08 450.68 174.3 449.84 173.9 448.44C170.51 436.75 168.03 424.87 166.92 412.73C166.74 410.74 166.36 408.77 166.06 406.72C148.41 407.14 131.04 407.56 113.73 407.97C112.96 410.46 112.17 412.6 111.63 414.8C110 421.43 106.88 427.45 103.67 433.37C101.67 437.06 99.1798 440.52 96.6598 443.89C94.7198 446.48 92.3899 448.78 90.2399 451.22C89.7099 451.82 88.9894 452.39 88.7594 453.1C87.6994 456.41 86.7698 459.76 85.6798 463.53L85.6695 463.51ZM76.8297 249.93C76.0797 240.97 75.4596 232.97 74.7296 224.97C73.7896 214.54 72.0397 204.24 69.6197 194.06C66.7897 182.15 62.2095 170.94 56.1495 160.31C54.8395 158.02 53.5195 155.73 52.0895 153.51C50.8395 151.57 48.8996 150.8 46.7296 151.46C44.8596 152.03 43.9298 153.58 43.7198 155.57C43.5898 156.76 43.3794 157.95 43.0294 159.1C41.5394 164.05 39.7994 168.94 38.5094 173.94C35.7094 184.79 33.2095 195.71 30.4195 206.56C27.3295 218.61 25.3098 230.82 24.2198 243.19C24.0998 244.56 24.0095 245.93 23.8995 247.38C24.9295 247.57 25.5195 247.82 26.0895 247.77C37.3595 246.68 48.4998 248.37 59.6798 249.3C65.1698 249.76 70.7095 249.72 76.8195 249.93H76.8297ZM116.839 345.79C116.679 365.85 117.63 385.77 113.94 405.43C131.46 404.78 148.64 404.15 165.72 403.51C167.85 399.14 172.25 399.4 176.39 397.88C167.01 385.46 157.76 373.23 148.4 360.84C145.39 361.63 142.27 362.48 139.14 363.27C136.01 364.06 132.93 363.58 130.64 361.4C127.78 358.68 125.36 355.51 122.75 352.54C120.78 350.29 118.81 348.04 116.83 345.79H116.839ZM268.68 381.29C267.41 380.19 266.75 379.51 265.98 378.98C262.8 376.78 259.58 374.66 256.41 372.46C253.8 370.65 253.74 369.74 255.92 367.4C256.09 367.22 256.16 366.95 256.25 366.75C243.88 367.62 231.68 368.49 219.58 369.34C218.55 372.87 217.57 376.62 216.33 380.27C215.69 382.15 214.55 383.86 213.65 385.65C212.49 387.93 210.2 387.91 208.27 387.77C207.29 387.7 206.43 386.08 205.38 385.04C204.99 385.64 204.519 386.31 204.089 387.01C202.949 388.85 201.99 390.82 200.67 392.52C198.68 395.1 195.889 396.2 192.509 395.98C192.989 396.56 193.43 396.94 193.94 397.15C198.84 399.18 203.79 401.11 208.67 403.19C213.62 405.3 218.41 407.95 224.13 406.48C225.49 406.13 227.059 406.44 228.339 405.94C232.489 404.33 236.6 402.6 240.64 400.71C246.05 398.18 251.129 395.08 255.839 391.39C259.979 388.14 264.12 384.88 268.69 381.28L268.68 381.29ZM176.31 401.19C179.31 414.75 182.14 427.58 185 440.5C188.6 438.37 190.23 434.36 194.5 433.84C193.12 436.08 191.37 437.94 189.65 439.81C188.27 441.31 186.21 442.62 185.67 444.39C184.16 449.27 180.71 451.88 176.42 453.82C174.3 454.78 173.02 456.09 171.87 458.72C177.55 457.07 181.84 452.24 188.74 451.1C187.28 455.61 183.9 458.06 182.45 461.54C180.98 465.05 177.52 467.45 176.88 471.42C178.8 470.21 180.33 468.65 182.13 467.48C183.36 466.67 185.049 465.8 186.339 466.03C188.139 466.36 188.09 468.39 188.04 469.99C187.88 475.44 188.08 480.84 189.27 486.22C189.83 488.74 189.51 491.45 189.87 494.03C190.04 495.25 190.74 496.51 191.5 497.51C192.25 498.5 193.389 499.21 194.549 500.2C194.979 498.81 195.45 497.69 195.66 496.52C196.59 491.29 197.51 486.05 198.27 480.79C198.44 479.59 197.869 478.29 197.839 477.03C197.819 476.04 197.749 474.55 198.319 474.15C200.029 472.93 200.37 471.34 200.66 469.48C201.03 467.11 201.629 464.76 202.259 462.44C206.059 448.53 209.909 434.62 213.799 420.51C199.849 417.52 189.01 408.51 176.31 401.16V401.19ZM90.7994 443.93C91.0394 444.06 91.2694 444.2 91.5094 444.33C93.3494 441.76 95.1697 439.19 97.0397 436.64C103.95 427.16 108.85 416.75 110.9 405.19C112.72 394.9 114 384.52 113.81 374.02C113.58 361.36 113.41 348.71 113.02 336.06C112.9 332.38 112.1 328.72 111.62 325.11C109.14 325.02 108.86 326.34 108.68 327.92C107.87 335.05 106.94 342.17 106.17 349.31C105.65 354.05 105.48 358.83 104.87 363.56C103.93 370.9 102.72 378.2 101.69 385.53C100.71 392.46 99.9495 399.43 98.8195 406.34C97.9495 411.68 96.6697 416.96 95.5797 422.27C94.9697 425.21 94.4196 428.16 93.7696 431.09C92.8196 435.38 91.7997 439.66 90.8097 443.94L90.7994 443.93ZM113.48 323.89C114.28 329.38 114.99 334.25 115.6 338.4C117.98 340.13 120.31 341.18 121.71 342.96C125.76 348.08 130.29 352.65 135.2 356.96C136.98 358.52 138.34 358.76 140.29 358.33C144.63 357.37 148.97 356.43 153.31 355.47C156.35 354.8 158.58 353.3 159.38 350.03C161.07 343.14 163 336.31 164.56 329.4C164.9 327.9 164.55 325.91 163.79 324.55C161.04 319.61 158.02 314.81 154.99 310.02C154.45 309.17 153.48 308.26 152.56 308.05C149.77 307.43 146.67 309.98 146.1 313.19C149.88 316.06 155.8 315.95 158.42 321.4C156.02 322.77 153.959 323.97 151.859 325.13C150.439 325.91 149.17 326.67 149.64 328.68C150.13 330.77 149.09 332.01 147.23 332.96C144.02 334.59 141.02 336.66 137.75 338.13C134.89 339.41 132.08 342.1 128.66 340.51C125.1 338.85 121.72 336.74 118.47 334.52C117.05 333.55 117.69 332.03 118.68 330.7C120.78 327.89 119.739 324.78 119.839 320.92C117.679 323.13 116.58 325.48 113.48 323.89ZM53.6095 253.99C53.6095 257.14 53.5095 259.89 53.6295 262.63C53.9095 269.34 54.3497 276.04 54.6197 282.75C55.0997 294.27 55.4896 305.8 55.9396 317.32C56.0596 320.3 56.2895 323.28 56.3795 326.26C56.4695 329.17 54.8896 330.93 52.2696 331.99C48.4196 333.55 44.6094 335.2 40.7794 336.81C40.8294 337.06 40.8798 337.31 40.9298 337.56C43.8498 338.02 46.7796 338.47 49.9396 338.96C49.8396 344.83 44.3998 347.27 42.2198 352.45C44.0298 351.5 45.3199 350.93 46.4899 350.18C49.7199 348.1 52.8895 345.9 56.1095 343.81C59.8395 341.39 60.6597 341.74 61.7897 346.16C61.9097 346.63 61.8994 347.13 62.0494 347.59C63.1994 350.98 64.3797 354.35 66.5997 357.32C65.9697 351.77 65.0997 346.31 63.6197 341.01C62.4197 336.71 61.2494 332.55 61.7794 327.99C62.3794 322.84 62.5595 317.64 62.9195 312.46C63.4095 305.48 63.9198 298.5 64.3898 291.51C64.5898 288.52 64.6895 285.53 64.8395 282.53C65.0795 277.84 65.4194 273.16 65.5494 268.46C65.6694 264.17 65.5797 259.87 65.5797 255.22C61.7497 254.82 57.8497 254.42 53.5997 253.98L53.6095 253.99ZM97.9596 104.8C95.8996 104.49 94.4895 104.15 93.0695 104.08C88.6195 103.88 84.1696 103.72 79.7096 103.69C76.2896 103.67 72.8096 102.64 69.4596 104.28C69.0296 104.49 67.9897 104.32 67.7897 103.99C66.7097 102.19 64.9394 102.82 63.5094 102.78C58.1894 102.62 52.8694 102.66 47.5494 102.66C46.8094 102.66 46.0595 102.82 44.8995 102.96C46.4795 104.97 47.7496 106.55 48.9996 108.16C50.6096 110.25 50.2896 111.3 47.9996 112.63C44.7396 114.53 41.6397 116.67 38.6197 120.16C40.9897 120.16 42.5695 119.94 44.0695 120.2C52.4694 121.63 60.8699 123.1 69.2399 124.74C72.6199 125.4 75.6198 125.48 78.1998 122.7C79.9798 120.79 82.0096 119.09 83.9596 117.34C88.4196 113.32 92.8996 109.33 97.9596 104.8ZM80.4098 125.69C80.3198 131.04 83.8895 134.18 86.6695 137.85C93.4295 146.81 100.28 155.74 104.88 166.11C105.16 166.75 105.79 167.24 106.71 168.34C107 161.34 107.21 155.09 107.52 148.84C107.88 141.66 107.88 134.46 110.12 127.47C111.3 123.79 109.94 121.56 105.98 120.98C100.87 120.23 95.6499 120.19 90.4899 119.76C88.1699 119.57 86.2097 120.16 84.5397 121.78C83.0897 123.19 81.6098 124.56 80.4098 125.7V125.69ZM90.1095 48.5302C90.6795 44.4902 88.5898 41.4501 84.9098 39.4301C81.5598 37.5901 78.3894 38.1901 75.5494 40.7101C75.1994 41.0201 74.7197 41.1902 74.3097 41.4402C69.6697 44.3802 67.8494 48.7701 68.0494 54.0501C68.2694 59.8101 74.5895 64.3901 80.1295 62.9601C85.4795 61.5801 90.0095 55.1902 90.1095 48.5102V48.5302ZM20.7496 495.21C21.4196 495.57 21.7996 495.86 22.2296 496C25.6296 497.04 28.1795 499.1 29.9195 502.2C33.9895 509.46 40.5396 513.87 47.6896 517.55C48.7796 518.11 50.0097 518.41 51.8097 519.05C51.5397 516.17 51.4497 514.02 51.1197 511.9C50.4797 507.78 49.7996 503.69 54.2096 501.08C51.5096 498.17 51.1197 498.1 48.3497 499.96C47.7497 500.37 47.1997 500.85 46.5797 501.23C43.3797 503.21 40.7694 503.2 38.2594 501.23C34.6394 498.41 33.4898 495.29 34.6998 491.75C35.0398 490.76 35.2596 489.72 35.5196 488.78C31.3496 486.1 26.4394 488.23 20.7594 495.19L20.7496 495.21ZM210.069 451.68C209.299 452.7 209.069 452.87 209.029 453.08C207.519 460.01 205.989 466.93 204.589 473.88C204.439 474.62 204.88 475.76 205.44 476.33C210.36 481.29 215.369 486.17 220.359 491.06C221.049 491.74 221.77 492.38 222.48 493.05C222.73 492.9 222.98 492.76 223.23 492.61C221.49 486.88 219.739 481.16 218.029 475.42C216.109 468.97 214.27 462.5 212.29 456.07C211.86 454.69 210.979 453.45 210.069 451.69V451.68ZM178.74 398.28C190.94 404.42 201.109 413.25 214.759 415.21C214.929 414.62 215.31 413.96 215.14 413.76C213.32 411.61 213 408.42 209.94 407.06C202.47 403.73 195.1 400.15 187.7 396.65C185.99 395.84 184.329 394.94 182.549 394.04C181.319 395.41 180.29 396.56 178.74 398.29V398.28ZM76.6295 517.43C77.1495 518.02 77.4997 518.76 78.0797 519.02C82.9197 521.21 87.8996 523.04 93.2296 523.57C94.1596 523.66 95.4097 523.18 96.0997 522.53C97.8197 520.92 99.3097 519.06 100.81 517.39C100.76 517.1 100.77 516.95 100.71 516.87C97.0196 512.47 91.4797 512.1 86.5397 510.43C86.2397 510.33 85.7799 510.43 85.4899 510.61C82.3399 512.53 78.8995 514.09 76.6295 517.43ZM114.089 135.51C113.809 135.69 113.529 135.87 113.259 136.04V149.17C116.379 149.41 119.29 149.61 122.19 149.85C126.15 150.18 130.109 150.56 134.069 150.85C134.659 150.89 135.269 150.55 136.509 150.22C128.669 145.08 121.379 140.29 114.089 135.51ZM48.3795 522.12L48.6095 521.55C46.2995 520.28 43.9596 519.07 41.6896 517.73C36.0496 514.39 31.8297 509.57 28.3097 504.18C26.2497 501.02 23.3795 499.35 20.0695 498.09C17.8195 497.23 15.9696 498.63 16.7496 500.92C17.4996 503.12 18.6297 505.6 20.3697 506.98C28.2297 513.22 36.9995 518 46.3195 521.75C46.9495 522 47.6897 522.01 48.3697 522.14L48.3795 522.12ZM173.069 402.33C171.019 402.54 170.08 403.39 170.69 405.63C171.01 406.77 170.929 408.02 171.069 409.21C171.789 415.28 172.309 421.39 173.319 427.41C174.349 433.49 175.88 439.48 177.19 445.5C181.53 444.13 180.599 443.06 180.009 439.45C178.769 431.91 177.08 424.44 175.65 416.93C174.73 412.11 173.94 407.27 173.06 402.33H173.069ZM85.1998 529.27C79.6798 525.3 63.5598 519.53 57.3898 518.96C56.1898 518.85 54.9498 519.22 53.4498 519.4C54.3698 522.25 55.1196 524.58 55.7296 526.47C65.8096 527.43 75.4996 528.35 85.1896 529.26L85.1998 529.27ZM259.839 369.93C264.139 372.75 267.79 375.15 271.73 377.74C274.76 374.02 277.57 370.57 280.37 367.13L279.83 366.21C273.05 364.9 266.69 366.25 259.83 369.93H259.839ZM57.8097 499.95C59.6097 492.95 61.3798 486.11 63.1398 479.27C62.8698 479.15 62.6095 479.03 62.3395 478.91C57.7795 484.01 51.9494 488.05 49.5294 494.15C52.2994 496.09 54.6997 497.77 57.8097 499.95ZM124.2 335.47C126.13 338.13 128.509 339.26 131.569 338.28C136.709 336.62 141.29 333.82 145.73 330.93C145.3 329.15 144.53 328.78 143.08 329.59C140.95 330.77 138.75 330.57 136.47 329.86C135.74 329.63 134.71 329.85 134 330.21C130.75 331.87 127.56 333.65 124.21 335.47H124.2ZM139.27 318.54C139.57 322.07 139.41 325.11 140.85 328.32C145.61 325.82 150.08 323.48 154.54 321.13C154.53 320.81 154.52 320.48 154.5 320.16C151.37 318.85 148.229 317.54 144.799 316.11C144.239 319.82 141.91 319.27 139.27 318.55V318.54ZM237.27 364.39C236.92 361.07 238.04 358.01 235.38 355.35C231.17 357.71 228.02 360.92 225.06 364.33C225.2 364.57 225.34 364.82 225.48 365.06C229.24 364.84 233 364.63 237.27 364.38V364.39ZM68.2594 43.1902C67.2094 42.6902 66.2496 42.5802 64.9596 43.6602C63.4396 44.9302 61.4898 45.7302 59.6398 46.5402C56.8598 47.7602 55.3295 49.7702 55.6695 52.2202C58.8395 51.9402 61.9998 51.6502 64.9098 51.3902C66.1198 48.4502 67.1796 45.8402 68.2696 43.1902H68.2594ZM129.33 326.6C131.62 326.43 133.24 326.31 134.85 326.2C134.48 322.18 134.139 318.46 133.799 314.74C133.579 314.71 133.36 314.69 133.14 314.66C131.92 318.48 130.699 322.31 129.319 326.6H129.33ZM115.339 528.74H89.6695C98.1495 530.05 106.629 530.68 115.339 528.74ZM164.069 317.36C167.369 314.46 167.629 313.39 165.859 311.45C164.259 309.7 163.44 309.79 160.71 312.21C161.76 313.82 162.839 315.47 164.069 317.36ZM172 335.64C170.64 335.23 169.83 334.99 168.74 334.66C168.09 337.5 167.51 340.02 166.94 342.54L167.549 342.78C168.969 340.51 170.379 338.24 172.009 335.64H172ZM86.4698 31.9402C86.2998 31.7502 86.1198 31.5601 85.9498 31.3701C84.4598 32.4701 82.9695 33.5702 81.3795 34.7502C84.9395 36.5102 85.0998 33.3002 86.4698 31.9502V31.9402ZM92.1695 43.0901C92.3795 43.0901 92.5897 43.1101 92.8097 43.1101V38.6902C91.9297 38.9202 91.3096 39.0802 90.4596 39.2902C91.1196 40.7402 91.6395 41.9101 92.1695 43.0801V43.0901Z" fill="black"/>
<path d="M82.1094 79.0802C78.8494 78.9202 76.3095 77.2702 73.9995 75.1402C77.3595 75.0102 79.7794 76.9602 82.1094 79.0802Z" fill="black"/>
<path d="M81.6492 53.7502C80.3992 50.8702 82.2193 49.9802 83.9793 48.9202C85.8593 52.0302 85.4992 52.7902 81.6492 53.7502Z" fill="black"/>
</svg>
