<svg width="216" height="386" viewBox="0 0 216 386" fill="none" xmlns="http://www.w3.org/2000/svg">
<path d="M207.909 63.2298L205.909 63.3598L207.899 63.1698C207.799 61.6998 207.7 60.1798 207.62 58.5998L207.51 56.2598L205.169 56.2198C192.029 55.9898 178.869 56.0998 166.139 56.1998C154.909 56.2898 142.259 56.3998 130.129 56.2198C130.099 55.9598 130.06 55.6998 130.03 55.4498C129.77 53.4898 129.53 51.6498 129.02 49.8098C127.86 45.6098 126.619 41.3598 125.409 37.1798C123.959 32.2098 122.47 27.0698 121.1 21.9998C120.32 19.0998 119.01 16.4998 117.75 13.9898C116.38 11.2598 114.959 8.43977 114.439 5.48977C114.039 3.21977 111.44 2.07977 110.05 1.45977C109.07 1.02977 108.09 0.959776 107.28 0.899776C106.91 0.869776 106.6 0.84977 106.36 0.79977C103.11 0.10977 100.33 1.64979 99.5896 4.53979C99.2796 5.76979 98.4995 6.90977 97.6695 8.10977C96.8795 9.26977 95.9795 10.5798 95.4195 12.1198C92.8595 19.1798 89.8996 27.5598 87.3196 36.2298C85.8396 41.2298 84.6195 46.3798 83.4195 51.4098C83.0295 53.0398 82.6496 54.6698 82.2496 56.2998C78.1396 56.2998 74.0395 56.2998 69.9295 56.2898C60.7395 56.2698 51.2396 56.2498 41.7596 56.4098C38.5596 56.4598 35.2996 56.3898 32.0896 56.3198C23.7696 56.1298 15.1694 55.9398 6.63945 57.9798C2.21945 59.0298 -0.390551 62.3298 0.139449 66.1898C0.279449 67.2498 0.419615 68.3098 0.559615 69.3798C1.21961 74.4098 1.88953 79.6098 3.21953 84.6498C6.01953 95.2498 10.6495 105.18 16.9795 114.16C22.9995 122.69 30.5795 130.94 40.1495 139.39C46.7495 145.22 53.2496 149.53 60.0296 152.58C62.7996 153.83 65.7297 155.03 68.3697 156.12C69.0197 156.39 69.6596 156.65 70.3096 156.92C69.8696 158.45 69.4095 159.97 68.9295 161.55C68.1095 164.24 67.2696 167.03 66.5596 169.83C65.3296 174.69 64.1395 179.63 62.9795 184.41L64.9195 184.88L62.9495 184.52C61.4195 190.84 59.8395 197.37 58.1795 203.75C55.5495 213.84 52.6296 224.06 49.7696 234.01L49.5997 234.59C47.2897 242.64 44.8195 250.77 42.4895 258.4L41.2996 262.31C38.6996 270.82 36.0195 279.62 33.2295 288.21C30.6695 296.09 27.9196 303.9 24.8396 312.57C21.8996 320.84 22.1197 329.26 22.5997 337.17L23.3995 350.44L26.7596 339.99L27.7796 343.93L34.1197 338.12L36.3895 333.7L35.9095 332.61C35.6195 331.95 35.3296 331.29 35.0296 330.63C34.3596 329.13 33.6696 327.58 33.0396 326.05C32.6896 325.19 32.3897 324.26 32.0997 323.34C32.9897 320.56 33.8696 317.78 34.7596 315L35.3296 315.43C36.6896 316.18 37.4995 317.59 38.4695 319.26C38.6595 319.58 38.8396 319.9 39.0296 320.22L39.4996 321.01C41.0496 323.6 42.6496 326.28 44.7596 328.93L49.2195 334.53V327.38C49.2195 326.95 49.2195 326.52 49.2095 326.1C49.1995 325.17 49.1795 324.22 49.2395 323.33C49.2795 323.23 49.3695 323.04 49.4295 322.91C49.5495 322.66 49.6696 322.41 49.7996 322.06L49.8794 321.79C50.0894 320.83 50.2394 319.87 50.3794 318.95C50.6294 317.28 50.8495 315.8 51.4195 314.5H52.1495L52.1294 313.17L52.7496 312.08L52.1197 311.69C52.1997 308.52 53.0796 305.32 54.7896 301.95L54.8995 301.69C55.0295 301.3 55.1596 300.9 55.2896 300.51C56.1096 298.04 56.8196 295.88 58.3396 294.25C59.1696 297.46 59.7795 300.41 60.1895 303.24C60.8495 307.77 61.3196 312.25 61.5896 316.57C61.7396 318.99 61.6995 321.42 61.6695 324.02C61.6495 325.18 61.6395 326.35 61.6395 327.54V330.97L67.5696 329.05L67.9795 327.88C69.6295 323.2 73.1995 319.5 76.6595 315.92L76.9695 315.6L77.3196 315.04C77.4396 314.78 77.5495 314.5 77.6495 314.22C77.6895 314.1 77.7296 313.99 77.7696 313.89C78.0696 313.63 78.4096 313.39 78.7696 313.14C78.9096 313.54 79.0196 314.09 79.0596 314.86C79.2596 319 79.1196 323.8 76.5796 327.96L76.2095 328.57V329.28C76.2095 329.5 76.2095 329.72 76.2095 329.94V330.99L77.5296 332.33L75.4695 348.36L80.9795 335.78L81.9495 336.75L82.6294 331.76C82.7494 330.86 83.3796 330.46 85.0096 329.62C85.2396 329.5 85.4695 329.39 85.6895 329.27L91.2696 324.55L91.4695 324.35C91.7495 324.03 92.0196 323.75 92.2896 323.49L89.0596 340.28L93.9495 337.15C94.6195 336.72 95.2595 336.3 95.8895 335.89L96.0896 335.76C97.7096 334.71 99.2296 333.72 100.77 332.8C101.27 332.5 101.86 332.27 102.57 331.99C102.94 331.84 103.31 331.7 103.75 331.51L106 330.17V330.58L105.74 330.7L106 331.36V335.63L115.879 339.47L117.03 338.14C119.46 335.35 117.849 332.68 117.159 331.54L116.99 331.25C116.22 329.93 115.93 328.68 116.07 327.26L116.1 326.99L115.27 322.02L114.35 320.12L114.25 319.93C113.52 318.77 113.67 317.45 113.97 315.39C116.3 317.4 118.68 319.69 121.23 322.36C121.73 322.88 122.189 323.43 122.689 324.01C123.749 325.25 124.95 326.66 126.59 327.95L130.639 331.14V325.99C130.639 325.39 130.639 324.78 130.629 324.09C130.619 322.6 130.599 321.05 130.669 319.57C130.679 319.33 130.83 318.91 130.97 318.5C131.08 318.19 131.18 317.87 131.28 317.52L131.31 317.4C131.5 316.5 131.41 315.69 131.34 315.03C131.32 314.89 131.29 314.55 131.29 314.36L131.75 313.97L133.49 308.72L133.55 307.96C133.55 307.84 133.56 307.63 133.57 307.42C133.66 307.64 133.779 307.98 133.919 308.48C134.969 312.19 136.099 315.87 137.189 319.45L137.26 319.69C137.65 320.98 138.039 322.25 138.419 323.49L139.909 328.43L144.36 322.06C145.61 320.28 146.92 318.41 148.2 316.51C149.7 314.3 150.05 311.68 149.2 309.14C147.57 304.28 147.93 299.29 148.5 295.04C148.84 292.48 148.92 290.52 148.77 288.68C148.69 287.71 148.83 287.07 149.3 286.52C151.25 288.02 152.9 290.02 154.12 292.34C156.28 296.45 158.3 300.75 160.25 304.91L160.29 305C161.11 306.74 161.93 308.48 162.76 310.21L164.86 314.6L167.169 310.38L167.3 310.21C167.71 309.66 168.47 308.63 168.32 307.27C168.11 305.28 168.62 303.36 169.21 301.15C169.44 300.3 169.66 299.46 169.85 298.6L169.899 298.38C170.179 297.07 170.37 296.37 170.75 295.95L172.78 298.64L173.09 299.81C174.38 304.55 175.76 309.34 177.09 313.99L177.31 314.75C177.5 315.42 177.689 316.09 177.879 316.76L177.939 316.97C178.729 319.79 179.55 322.7 180.61 325.54C181.29 327.36 183.76 329.41 185.98 329.3C187.53 329.18 188.39 328.46 188.84 327.87C189.89 326.5 189.589 324.88 189.409 323.89C189.379 323.71 189.34 323.54 189.33 323.38C189.25 322.5 188.99 321.74 188.75 321.04C188.69 320.85 188.62 320.66 188.56 320.46C188.12 318.97 187.67 317.48 187.23 315.99C186.3 312.87 185.37 309.76 184.47 306.63C183.5 303.25 182.55 299.87 181.6 296.49C180.63 293.02 179.649 289.56 178.659 286.1C177.329 281.47 175.98 276.85 174.62 272.22C173.84 269.56 173.06 266.9 172.29 264.23C171.19 260.43 170.08 256.63 168.98 252.83C166.93 245.74 164.87 238.66 162.79 231.58C161.36 226.73 159.91 221.88 158.46 217.04L158.389 216.82C155.889 208.48 153.309 199.85 150.899 191.34C148.319 182.24 145.85 172.97 143.46 164.01L143.409 163.83C142.529 160.52 141.65 157.21 140.76 153.91C141.3 153.61 141.849 153.31 142.389 153.02C144.809 151.69 147.32 150.32 149.76 148.9C150.72 148.34 151.679 147.79 152.639 147.23C158.739 143.71 165.06 140.06 170.73 135.26C176.87 130.07 182.34 125.31 187.21 119.67C193.77 112.07 198.499 104.6 201.689 96.8398C204.629 89.6898 207.949 81.5798 208.159 72.6298C208.229 69.5098 208.03 66.4398 207.81 63.1898L207.909 63.2298ZM107.5 329.9L106.95 330.16H106.08L107.659 329.2L108.129 328.84C108.259 328.71 108.44 328.54 108.62 328.36C108.31 329.23 108.04 329.64 107.5 329.9Z" fill="white"/>
<path d="M196.28 347.209C197.33 341.449 199.25 336.289 201.57 331.329C201.1 331.909 200.629 332.489 200.149 333.069C199.279 334.129 198.23 335.049 196.87 336.429C196.72 335.229 196.469 334.679 196.629 334.329C197.879 331.659 199.2 329.019 200.51 326.379C202.33 322.699 204.229 319.049 205.979 315.319C208.119 310.739 210.2 306.129 211.31 301.159C211.56 300.029 211.749 298.889 211.969 297.739C209.459 296.519 208.14 298.209 206.81 299.369C205 300.969 203.379 302.799 201.689 304.529C200.629 308.459 197.829 311.189 195.139 313.979C193.959 316.329 193.38 319.079 190.78 320.479C189.85 322.239 189.71 324.449 187.81 325.639C187.11 327.389 186.109 328.879 183.939 330.049C183.499 327.999 183.1 326.309 182.77 324.599C182.37 322.509 182.23 320.349 181.61 318.329C180.71 315.429 179.64 312.559 178.34 309.819C176.92 306.819 176.939 303.329 174.929 300.539C174.049 299.329 173.46 297.909 172.77 296.639C170.53 295.989 169.979 297.469 169.709 299.099C169.539 300.159 169.85 301.319 169.59 302.349C169.04 304.589 168.26 306.609 168.77 309.139C169.24 311.489 168.4 314.079 168.24 316.569C168.19 317.379 168.28 318.289 168.6 319.019C169.48 320.979 168.72 322.229 167.07 323.209C165.26 318.739 163.429 314.279 161.659 309.809C159.139 303.429 156.459 297.139 153.169 291.099C152.219 289.359 151.249 288.879 149.479 289.529C149.239 291.579 148.99 293.549 148.81 295.519C148.73 296.399 148.84 297.289 148.81 298.169C148.77 299.249 148.559 300.329 148.629 301.389C148.789 303.759 149.09 306.129 149.3 308.499C149.39 309.539 149.419 310.589 149.479 311.739C151.929 311.609 153.149 311.889 153.939 314.719C154.909 318.189 156.27 321.439 155.86 325.129C155.81 325.599 155.749 326.189 155.969 326.549C157.509 329.099 155.359 331.159 155.149 333.559C154.419 332.689 153.919 331.789 153.679 330.819C152.399 325.619 153.06 320.299 152.5 314.589C151.46 314.799 149.98 314.689 149.11 315.369C146.65 317.279 144.67 319.679 143.77 322.789C143.08 325.159 142.409 327.539 141.679 329.899C141.379 330.879 140.93 331.809 140.55 332.759C137.38 325.549 137.61 317.719 135.09 310.499H132C131.37 314.109 130.99 317.509 130.82 321.029C130.65 324.539 131.49 327.729 131.78 331.079C131.89 332.289 131.299 333.559 130.949 335.149C127.109 329.589 123.71 324.469 120.1 319.499C118.44 317.209 116.369 315.219 113.159 314.549C112.459 318.069 113.429 321.239 114.219 324.249C115.339 328.559 117.119 332.709 118.719 336.889C119.239 338.239 119.239 339.269 117.879 340.229C113.779 338.629 109.68 337.019 105.34 335.319C107.49 332.349 110.929 330.499 109.679 326.059C105.849 327.489 102.91 330.139 99.4995 331.849C95.9995 333.609 93.7196 337.179 89.5596 338.449C91.6196 333.399 94.2395 328.959 93.9495 323.119C92.6295 323.539 91.4395 323.589 90.7795 324.199C88.0195 326.749 85.3296 329.379 82.7996 332.139C80.0596 335.129 77.5494 338.329 74.8994 341.409C74.4294 341.949 73.7796 342.339 72.8596 343.089C72.9896 342.049 72.9794 341.569 73.1294 341.129C74.8494 335.989 76.7995 330.909 78.2395 325.699C79.0795 322.639 79.1795 319.369 79.4395 316.179C79.4895 315.509 78.9196 314.429 78.3496 314.179C77.8096 313.939 76.6795 314.329 76.1895 314.819C74.9295 316.069 73.7595 317.459 72.7495 318.929C69.8795 323.109 66.7096 327.099 65.5696 332.279C64.9896 334.939 63.6996 337.449 62.5996 340.369C62.1296 339.469 61.6395 338.979 61.7295 338.639C62.4295 336.029 61.5894 333.539 61.3894 330.979C60.9794 325.839 61.5594 320.679 60.6794 315.509C59.8194 310.499 59.6096 305.379 59.1196 300.269C57.3596 300.199 55.7495 299.539 54.9495 301.299C54.2695 302.789 53.6994 304.379 53.3894 305.979C52.5494 310.399 51.9094 314.849 51.1394 319.279C50.5494 322.669 49.7794 325.999 49.4294 329.449C49.1794 331.839 48.6794 334.179 49.3794 336.489C49.8694 338.089 49.0196 338.319 47.8596 338.709C47.4696 338.149 46.8696 337.679 46.8496 337.189C46.7496 334.269 45.5796 331.779 44.2996 329.199C41.9296 324.399 38.8495 320.079 35.9595 315.619C34.9795 314.099 34.0996 314.679 32.5496 315.279C33.3396 318.349 33.9194 321.359 34.8894 324.249C36.3194 328.499 37.9796 332.669 39.6096 336.849C40.5596 339.289 40.6196 339.269 38.2996 340.999C37.4996 339.819 36.7094 338.649 35.9294 337.479C35.0494 336.179 33.6695 336.059 32.9895 337.379C32.1195 339.049 31.4396 340.819 30.7996 342.589C30.1696 344.349 29.6896 346.159 27.5696 346.579C26.9296 341.909 26.3394 337.439 25.6794 332.979C25.2494 330.049 24.7495 327.139 24.2195 324.229C23.7895 321.909 23.2196 319.619 22.7996 317.299C22.5196 315.789 21.6896 316.169 20.8696 316.359C20.5796 317.739 20.2796 318.879 20.0996 320.039C19.7396 322.389 19.3094 324.729 19.1594 327.099C18.8294 332.369 18.6294 337.649 18.4094 342.929C18.3594 344.139 18.0795 345.039 16.7495 345.129C15.4695 343.189 14.0096 341.429 13.0496 339.419C11.9796 337.179 10.4996 336.829 8.56958 337.439C6.86958 340.089 5.26942 342.609 3.65942 345.119C3.44942 344.629 3.31953 344.179 3.26953 343.759C2.01953 346.069 1.00953 348.549 0.0195312 350.999C0.189531 361.449 1.34963 371.859 1.86963 382.289C10.5296 382.469 19.1996 382.659 27.8696 381.679C31.6196 381.249 35.5096 382.219 39.3296 382.259C44.2796 382.319 49.2094 382.109 54.1594 381.709C60.4694 381.199 66.7896 380.729 73.0996 380.229C78.9396 379.769 84.7696 379.469 90.5896 378.699C95.3096 378.069 100.06 377.459 104.81 377.279C110.32 377.069 115.759 376.569 121.209 375.789C125.569 375.169 129.95 374.769 134.33 374.309C137.06 374.019 139.81 373.889 142.52 373.529C147.58 372.869 152.609 371.659 157.669 371.499C164.989 371.259 172.25 370.939 179.54 370.049C184.3 369.469 189.119 369.429 193.929 369.339C194.359 361.919 194.94 354.519 196.28 347.189V347.209Z" fill="#6FB359"/>
<path d="M195.1 314.019C195.1 314.019 195.129 313.989 195.139 313.979C195.139 313.979 195.139 313.969 195.139 313.959L195.09 314.019H195.1Z" fill="#6FB359"/>
<path d="M201.639 304.57C201.639 304.57 201.669 304.54 201.679 304.53C201.679 304.53 201.679 304.52 201.679 304.51L201.629 304.57H201.639Z" fill="#6FB359"/>
<path d="M212.33 291.78C209.79 293.29 207.24 295.22 205.49 297.55C200.52 304.16 195.83 310.99 191.1 317.78C191.1 317.82 191.08 317.87 191.07 317.91C190.87 318.92 190.249 319.65 189.459 320.13C189.429 320.17 189.4 320.22 189.37 320.26C188.55 321.43 187.919 322.74 187.159 323.97C187.069 324.12 186.73 324.11 186.05 324.29C185.97 323.36 185.65 322.45 185.85 321.67C185.93 321.33 186.03 321 186.12 320.66C184.76 320.37 183.59 319.47 183.36 317.91C183.1 316.19 182.83 314.47 182.57 312.75C178.74 306.12 176.939 298.63 171.689 293.07C169.289 293.12 168.329 294.4 167.919 296.42C167.089 300.49 166.169 304.54 165.129 309.3C164.319 307.65 163.769 306.51 163.199 305.38C160.359 299.79 157.599 294.16 154.629 288.64C153.429 286.42 151.669 284.57 148.699 283.31C147.879 284.67 146.509 285.91 146.459 287.21C146.159 295 144.659 302.84 146.939 310.6C147.249 311.66 147.199 313.16 146.669 314.08C144.979 316.95 142.969 319.63 140.899 322.67C140.579 321.51 140.36 320.62 140.09 319.74C138.79 315.48 137.61 311.19 136.09 307.01C135.72 306 134.319 305 133.229 304.77C132.679 304.65 131.45 306.16 131.08 307.14C129.19 312.02 128.289 317.12 128.129 322.35C128.099 323.5 128.23 324.65 128.32 326.44C127.38 325.68 126.86 325.38 126.51 324.95C124.34 322.37 122.32 319.65 120 317.2C118.45 315.56 116.609 314.11 114.679 312.94C113.029 311.95 112.02 312.6 111.56 314.52C111.39 315.21 111.419 315.96 111.429 316.68C111.489 321.82 112.87 326.69 114.53 331.5C115.06 333.03 115.53 334.58 116.25 336.85C113.05 335.62 110.66 334.7 108.36 333.81C109.84 330.87 111.089 328.37 112.449 325.67C111.279 325.24 110.559 324.71 110.229 324.89C104.369 328.07 98.5596 331.34 92.3396 334.8C93.2996 332.1 94.3195 329.69 95.0095 327.19C95.6895 324.71 96.0295 322.14 96.5195 319.58C92.9195 319.28 88.7796 322.14 79.2896 331.21C79.2896 330.42 79.1796 329.83 79.3096 329.31C79.8996 327.03 80.7494 324.79 81.1494 322.48C81.7494 319.05 82.4095 315.57 80.9995 312.12C79.9695 309.61 79.2394 309.38 77.1494 311.23C72.7794 315.11 69.4594 319.83 66.4294 324.78C65.9694 325.53 65.4194 326.22 64.8994 326.93C64.2394 325.38 64.3595 324.06 64.2295 322.76C63.2995 313.55 62.3796 304.34 61.2996 295.14C61.1096 293.48 61.2694 291 58.8994 290.78C56.6394 290.57 55.7995 292.78 54.9395 294.48C52.3495 299.56 50.6495 304.95 49.5195 310.53C48.4195 315.97 47.3294 321.4 46.1294 327.37C44.0694 323.83 42.4494 320.58 40.3894 317.65C38.3294 314.71 35.8394 312.09 33.6294 309.44C31.1027 310.546 29.6927 312.136 29.3994 314.21C28.5194 320.42 30.2095 326.17 32.4595 331.84C32.8195 332.75 33.2096 334.05 32.8296 334.78C32.0096 336.37 30.7095 337.7 29.1995 339.66C26.7895 328.58 26.3095 318.01 22.9695 307.8C20.2795 309.4 19.6496 311.58 19.1096 313.84C18.3696 316.95 17.6096 320.06 16.8596 323.18C16.3696 321.8 15.8095 320.97 15.0295 320.63C15.4295 323.3 15.0695 325.92 14.0095 328.48C14.9195 326.88 15.8596 325.22 16.8096 323.55C16.4696 328.09 16.1295 332.63 15.7395 337.85C14.0995 335.91 12.8995 334.51 11.5095 332.87C11.5395 332.81 11.5796 332.75 11.6096 332.7C11.5096 332.84 11.4196 332.98 11.3196 333.11C9.14958 335.99 6.50954 338.52 4.52954 341.54C3.67954 342.84 2.93953 344.22 2.26953 345.64C2.56953 346.12 3.16949 346.47 4.22949 346.54C6.10949 343.4 7.99956 340.23 10.0496 336.8C12.3096 340.28 14.3794 343.48 16.4294 346.65C19.4194 344.97 19.4395 344.97 19.5195 342.51C19.6495 338.3 19.5894 334.07 19.8994 329.87C20.1994 325.82 20.8596 321.8 21.3596 317.76C21.6496 317.76 21.9395 317.76 22.2295 317.76C23.0495 322.87 23.8695 327.98 24.6895 333.09C25.4895 338.07 26.2896 343.05 27.1096 348.16C32.5196 346.11 31.1996 340.31 34.3496 337.37C35.7196 339.06 37.0195 340.66 38.4395 342.41C39.7995 341.37 40.7296 340.67 41.8496 339.81C40.2296 335.76 38.5094 331.9 37.1494 327.93C35.8294 324.08 34.0696 320.28 33.8696 315.77C34.6396 316.11 34.9296 316.15 35.0496 316.31C39.5896 322.85 44.3595 329.27 45.9595 337.34C46.2495 338.79 46.6994 340.54 48.6394 339.93C50.1894 339.44 50.9996 338.12 50.3096 336.2C49.9296 335.13 49.8995 333.86 50.0195 332.71C50.3495 329.51 50.6696 326.3 51.3096 323.15C52.7096 316.33 54.2896 309.54 55.8596 302.75C56.1196 301.64 56.7096 300.6 57.3396 299.06C59.2896 307.01 61.2095 329.48 60.7395 337.78C60.6595 339.17 60.7395 340.46 62.7495 340.83C66.3295 337.01 66.0194 331.45 68.6594 327.16C71.3494 322.78 74.3596 318.72 78.0396 314.87C78.4996 316.36 78.7495 317.8 78.4495 319.11C77.4795 323.45 76.4095 327.77 75.1895 332.04C74.2595 335.28 72.9695 338.41 71.9895 341.63C71.7495 342.42 72.0494 343.39 72.1394 344.88C80.7094 338.74 84.9396 329.49 93.3396 323.62C92.7996 329.71 89.7895 334.47 88.4895 339.98C89.9095 339.65 91.1595 339.14 92.2495 338.4C97.0495 335.16 101.79 331.84 106.58 328.59C107.3 328.1 108.169 327.83 108.969 327.45C109.129 327.64 109.299 327.83 109.459 328.02C108.299 329.66 107.09 331.26 106 332.94C104.93 334.6 102.65 335.73 103.36 338.73C104.48 337.9 105.31 337.29 106.11 336.7C110.39 338.3 114.65 339.89 119.03 341.52C120.21 339.71 120.359 338.16 119.639 336.46C118.749 334.35 117.8 332.26 117.08 330.09C115.62 325.69 113.83 321.34 114.49 316.27C121.48 321.64 125.57 329.37 130.33 336.64C133.23 334.68 132.859 332.11 132.419 329.84C131.089 322.98 131.32 316.27 133.76 309.61C134.94 314.04 135.91 318.51 136.79 322.99C137.3 325.59 137.589 328.23 138.129 330.82C138.389 332.05 138.52 333.88 140.25 333.64C141.05 333.53 141.9 332.08 142.29 331.07C143.15 328.85 143.639 326.48 144.449 324.24C145.769 320.56 147.65 317.28 151.56 315.07C151.56 315.86 151.53 316.31 151.56 316.76C151.91 321.55 152.199 326.35 152.659 331.13C152.769 332.28 153.279 333.5 153.929 334.47C154.629 335.54 156.07 335.22 156.36 333.94C156.84 331.84 157.49 329.67 157.35 327.57C157.1 323.79 156.619 319.97 155.679 316.31C155.009 313.73 154.54 310.34 150.24 310.92C149.83 303.69 149.57 296.72 150.29 289.09C151.2 290.18 151.75 290.66 152.07 291.26C157.24 300.96 161.269 311.15 165.139 321.41C165.569 322.55 166.28 323.59 166.87 324.68C167.2 324.71 167.53 324.73 167.86 324.76C168.48 323.5 169.85 322.06 169.6 321C168.53 316.43 169.47 311.9 169.5 307.38C169.52 304.08 170.559 300.78 171.149 297.48C172.719 298.96 173.759 300.32 174.379 301.85C176.049 305.98 177.75 310.12 179.04 314.37C180.33 318.61 181.069 323.02 182.179 327.32C182.539 328.72 183.319 330.01 184.229 332.08C185.889 330.18 187.1 329.04 188.02 327.69C193.63 319.56 199.12 311.35 204.76 303.25C206.34 300.98 208.27 298.96 211.03 297.49C211.03 298.22 211.11 298.6 211.02 298.93C209.05 305.92 206.27 312.57 202.79 318.96C200.37 323.41 198.26 328.04 196.1 332.62C195.48 333.94 194.979 335.61 196.469 336.57C197.989 337.55 198.81 336.09 199.78 335.23C200.76 332.82 201.86 330.47 203.04 328.16C203.04 328.16 203.03 328.16 203.02 328.16C203.05 328.11 203.08 328.05 203.11 328C204.19 325.55 205.399 323.17 206.679 320.83C206.229 321.13 205.78 321.44 205.31 321.73C206.97 318.24 208.66 314.75 210.29 311.24C212.83 305.78 215.079 300.23 215.649 294.14C215.939 291.09 214.94 290.14 212.28 291.71L212.33 291.78Z" fill="#030000"/>
<path d="M193.99 368.36C192.8 368.38 191.599 368.41 190.409 368.49C181.759 369.05 173.099 369.66 164.459 370.34C157.959 370.86 151.47 371.45 144.99 372.14C136.35 373.07 127.72 374.14 119.09 375.13C112.86 375.84 106.639 376.59 100.399 377.17C93.3094 377.84 86.1996 378.34 79.0896 378.92C70.8996 379.59 62.7295 380.52 54.5295 380.85C46.0095 381.2 37.4594 380.91 28.9294 381.01C21.4794 381.1 14.0396 381.41 6.5896 381.51C4.9996 381.53 3.40957 381.52 1.80957 381.48C1.88957 382.99 1.95952 384.5 2.00952 386C4.68952 386.01 7.38958 385.94 10.0696 385.89C14.8996 385.79 19.7296 385.46 24.5596 385.41C28.7496 385.36 32.9494 385.71 37.1394 385.62C47.0194 385.4 56.8995 385.06 66.7695 384.68C71.6495 384.49 76.5194 384.13 81.3894 383.83C87.6194 383.45 93.8696 383.31 100.06 382.58C105.05 381.99 109.929 380.45 114.919 379.76C125.789 378.24 136.68 376.71 147.61 375.69C162.13 374.33 176.7 373.39 191.25 372.42C192.09 372.36 192.92 372.35 193.76 372.34C193.83 371.01 193.91 369.68 193.99 368.35V368.36Z" fill="#030000"/>
<path d="M56.9195 292.17C54.4495 294.57 53.6196 297.79 52.5596 300.89C50.6996 304.55 49.5795 308.39 49.6495 312.52C48.0995 315.22 48.1195 318.31 47.4695 321.24C47.2295 321.84 46.8196 322.44 46.7796 323.06C46.6796 324.49 46.7496 325.93 46.7496 327.37C44.5396 324.6 42.8995 321.75 41.2095 318.94C39.9395 316.82 38.8896 314.52 36.5796 313.25C35.6096 312.28 34.6395 311.32 33.6695 310.35C33.5495 310.09 33.2796 309.78 33.3396 309.58C33.9496 307.54 34.5996 305.51 35.2696 303.49C35.9996 301.27 36.7995 299.07 37.4795 296.83C37.7895 295.82 37.8296 294.73 38.0396 293.69C38.2196 292.77 38.2195 291.68 38.7295 290.97C40.2395 288.87 40.6794 286.42 41.3894 284.04C41.9194 282.26 42.6197 280.52 43.1097 278.72C43.8897 275.87 44.4496 272.95 45.2996 270.12C46.1896 267.14 47.2996 264.22 48.3296 261.28C48.4496 260.94 48.8696 260.61 48.8196 260.33C48.2996 257.25 50.5595 254.98 51.2195 252.24C51.7495 250.05 52.4195 247.95 52.6695 245.65C52.9495 242.98 54.0196 240.4 54.7796 237.78C56.6496 231.3 58.8796 224.89 60.2996 218.31C61.4396 213.08 63.1195 208.03 64.4595 202.88C65.1795 200.14 65.7294 197.36 66.3894 194.61C66.5794 193.8 66.8197 193 67.1097 192.23C68.6797 188.1 69.6796 183.86 70.0696 179.44C70.1996 177.98 71.0195 176.59 71.4595 175.15C72.6695 171.19 72.0095 166.8 74.2195 163.05C74.3295 162.86 74.3497 162.59 74.3597 162.35C74.4397 161.15 74.2894 159.89 74.6294 158.77C74.9494 157.68 75.7595 156.74 76.4695 155.52C78.4795 155.98 80.6696 156.4 82.8196 156.97C90.6596 159.06 98.6795 159.6 106.71 159.03C111.66 158.68 116.59 157.65 121.46 156.62C125.04 155.86 128.5 154.56 132.03 153.58C134.93 152.77 135.43 153.19 136.25 156.06C137.87 161.75 139.61 167.41 141.25 173.1C141.67 174.58 141.75 176.16 142.2 177.63C143.93 183.26 145.46 188.93 146.48 194.75C146.82 196.71 147.95 198.51 148.54 200.44C150.42 206.55 152.479 212.62 153.939 218.82C154.609 221.68 155.89 224.36 155.99 227.46C156.08 230.08 157.48 232.66 158.28 235.27C159.6 239.57 161.33 243.8 162.1 248.2C162.97 253.23 165.44 257.76 166.09 262.82C166.26 264.17 166.95 265.47 167.54 266.73C169.85 271.71 170.54 277.13 171.87 282.38C172.94 286.63 174.079 290.86 175.139 295.11C175.369 296.03 175.37 297 175.48 297.94C174.15 296.19 172.829 294.43 171.639 292.86C168.349 293.54 167.97 295.8 167.48 298.04C166.8 301.17 165.559 304.19 165.919 307.51C165.979 308.07 165.32 308.7 165.09 309.11C162.23 303.13 159.509 297.05 156.409 291.15C154.759 288.01 152.38 285.3 149.33 283.42C147.07 284.68 146.14 286.36 146.35 288.85C146.51 290.77 146.35 292.75 146.09 294.67C145.41 299.81 145.219 304.88 146.899 309.9C147.499 311.69 147.27 313.49 146.2 315.08C144.41 317.74 142.539 320.35 140.889 322.73C139.449 317.96 137.859 312.88 136.399 307.76C135.899 306 135.31 304.38 133.2 304.56C131.1 304.74 131.17 306.56 131.11 308.13C130.63 309.58 130.149 311.04 129.669 312.49C128.199 313.74 129.249 315.41 128.939 316.85C128.699 317.71 128.29 318.55 128.25 319.42C128.15 321.59 128.22 323.77 128.22 325.95C126.07 324.25 124.74 322.29 123.12 320.6C120.65 318.01 118.07 315.5 115.35 313.18C113.9 311.94 111.91 312.29 111.76 313.63C111.49 316.15 110.69 318.79 112.21 321.23C112.45 321.72 112.689 322.2 112.939 322.69C113.179 324.14 113.429 325.59 113.669 327.04C113.469 329 113.919 330.76 114.919 332.48C115.579 333.61 116.59 334.91 115.23 336.47C113.08 335.64 110.91 334.79 108.58 333.89V332.13C111.24 330.88 110.96 328.02 112.22 326.02C109.49 324.35 108.999 324.45 106.379 327.03C105.169 327.76 103.96 328.49 102.76 329.22C101.69 329.68 100.56 330.03 99.5696 330.62C97.3196 331.97 95.1395 333.43 92.6795 335.01C93.1895 332.29 93.6096 330.03 94.0296 327.76C94.2796 326.55 94.5296 325.34 94.7696 324.13C97.0396 324.04 95.9395 322.29 96.2095 321.22C96.1495 320.55 96.0796 319.88 96.0096 319.04C93.1896 319.39 91.2995 320.81 89.6595 322.67C87.9695 324.12 86.2696 325.58 84.5796 327.03C82.6796 328.04 80.5595 328.83 80.2095 331.39C79.7295 330.9 79.2396 330.42 78.7596 329.94C78.7596 329.7 78.7596 329.46 78.7596 329.22C81.4996 324.73 81.8397 319.74 81.5997 314.7C81.5097 312.87 81.0495 310.89 79.2095 309.82C78.1195 310.58 76.9796 311.25 76.0096 312.11C75.5396 312.53 75.3997 313.32 75.0997 313.94C71.3297 317.85 67.5195 321.73 65.6595 327.02C65.2195 327.16 64.7795 327.31 64.1795 327.5C64.1795 323.7 64.3594 320.03 64.1294 316.38C63.8494 311.86 63.3595 307.34 62.7095 302.85C62.2095 299.4 61.4496 295.97 60.5396 292.6C59.8896 290.18 58.9895 290.14 56.9295 292.14L56.9195 292.17ZM117.919 242.06C118.529 240.06 117.14 239.56 115.62 239.18C111.83 242.03 111.63 242.53 113.24 244.45C114.71 243.7 116.129 242.97 117.929 242.06H117.919ZM82.3497 229.26C84.8997 230.37 84.6995 227.87 85.7295 227.13C83.7895 226.57 83.0197 227.68 82.3497 229.26Z" fill="#DCEDEB"/>
<path d="M8.90934 60.7197C13.7093 60.8297 17.6495 60.9997 21.5995 60.9997C72.1195 61.0197 122.639 60.9997 173.169 61.0397C176.319 61.0397 179.49 61.7097 182.62 61.5197C184.49 61.4097 186.299 61.3197 188.189 61.3697C192.969 61.4797 197.749 61.3697 202.789 61.9097C203.989 67.6797 204.769 73.4697 202.449 79.3397C201.449 81.8597 201.089 84.6297 200.169 87.1897C198.169 92.7497 196.409 98.4197 193.059 103.39C190.919 106.55 188.999 109.9 186.559 112.82C182.759 117.37 178.859 121.9 174.529 125.92C171.029 129.17 166.829 131.67 162.919 134.47C160.399 136.28 157.689 137.85 155.309 139.83C151.869 142.7 147.679 144.07 143.789 146.03C141.149 147.36 138.429 148.55 135.669 149.6C132.799 150.7 129.849 151.62 126.889 152.49C126.029 152.74 125.04 152.53 123.86 152.53C124.06 151.21 124.199 150.24 124.399 148.95C121.699 149.76 120.989 152.01 119.749 153.99C116.899 154.3 113.989 154.61 110.719 154.96C111.039 153.17 111.25 151.95 111.61 149.9C110.24 151.38 109.169 152.12 108.689 153.13C107.759 155.11 106.329 155.67 104.319 155.52C102.999 155.42 101.649 155.55 100.319 155.49C97.8595 155.38 97.5594 154.91 98.1794 152.38C98.2294 152.16 98.2694 151.93 98.2594 151.7C98.2594 151.6 98.1393 151.5 97.8893 151.11C95.7993 154.38 93.1295 155 89.2895 154.21C84.3795 153.2 79.5193 152.09 74.9093 150.25C67.2693 147.18 59.7994 143.67 52.9894 138.95C44.2094 132.86 36.3595 125.73 29.3295 117.69C24.7495 112.46 20.4493 107.02 17.1693 100.86C14.4293 95.6997 11.8894 90.4197 10.4694 84.7497C9.0594 79.1297 7.68944 73.4497 7.00944 67.7097C6.72944 65.3597 8.29935 62.7897 8.91935 60.7097L8.90934 60.7197ZM17.3395 67.6197C17.3695 67.8397 17.4094 68.0597 17.4394 68.2897C22.3694 68.2897 27.2994 68.2897 32.2394 68.2897C34.6594 68.2897 37.0894 68.3397 39.5094 68.2797C41.8394 68.2197 44.1294 68.6197 46.4994 68.4097C48.8294 68.1997 51.2295 68.9397 53.6095 68.9897C59.1795 69.0897 64.7495 69.1397 70.3195 68.9897C75.8395 68.8497 81.4093 69.6897 86.8893 68.3197C87.4593 68.1797 88.0994 68.2797 88.6994 68.3297C91.1894 68.5497 93.6894 68.7497 96.1794 69.0297C100.679 69.5297 105.159 68.7097 109.689 68.8797C115.669 69.0997 121.739 69.8197 127.699 68.3497C128.149 68.2397 128.669 68.3297 129.139 68.3797C130.789 68.5797 132.43 68.9797 134.08 68.9897C141.1 69.0597 148.139 68.7797 155.149 69.0997C160.079 69.3297 164.979 69.1897 169.899 69.0097C172.339 68.9197 174.759 69.3197 177.219 69.3197C179.299 69.3197 181.359 70.0197 183.479 69.1197C184.099 68.8597 185 68.8597 185.62 69.1097C188.67 70.3397 191.849 69.7697 194.929 69.6397C196.699 69.5597 198.979 69.6197 200.499 67.2397C199.259 66.7997 198.05 65.9197 197.36 66.2197C194.93 67.2797 192.69 65.9897 190.36 66.0697C185.64 66.2297 180.899 66.3297 176.199 66.0597C171.439 65.7797 166.719 67.4097 161.959 66.1697C161.219 65.9797 160.329 66.3997 159.509 66.4897C158.829 66.5597 158.139 66.5997 157.459 66.5597C155.429 66.4397 153.279 65.7797 151.409 66.2497C147.919 67.1097 144.459 66.8097 140.999 66.8397C132.109 66.9197 123.209 66.8997 114.319 66.8397C110.959 66.8197 107.589 66.5697 104.229 66.4897C100.939 66.4097 97.6595 66.3497 94.3695 66.3997C86.4795 66.5197 78.5894 66.7997 70.6894 66.8397C57.2494 66.9197 43.8095 66.7997 30.3595 66.8997C26.0295 66.9297 21.6993 67.3897 17.3793 67.6497L17.3395 67.6197ZM144.37 118.15C146.21 120.32 147.629 118.06 149.559 118.19C149.099 117.1 148.799 116.4 148.489 115.66C147.009 116.56 145.729 117.33 144.379 118.15H144.37ZM45.3793 106.74C47.0293 105.68 48.3393 104.83 49.8893 103.83C46.5993 103 46.0293 103.37 45.3793 106.74Z" fill="#DCEDEB"/>
<path d="M98.7095 15.3797C100.299 15.0197 100.6 15.7397 100.58 16.9297C100.54 19.7197 100.56 22.4996 100.58 25.2896C100.6 28.4896 100.6 28.5096 103.81 29.0396C105.45 29.3096 107.089 29.6796 108.739 29.7296C111.799 29.8096 112.759 28.8096 112.929 25.7196C112.979 24.7496 112.929 23.7797 112.929 22.8097V19.8496C114.769 19.3296 115.489 19.9297 115.889 21.5597C117.009 26.1497 118.369 30.6896 119.439 35.2896C120.869 41.3996 122.109 47.5396 123.429 53.6696C123.579 54.3596 123.78 55.0597 123.82 55.7597C123.99 59.1697 123.66 59.5797 120.27 59.5297C115.09 59.4497 109.909 59.1397 104.729 59.1397C100.049 59.1397 95.3694 59.4597 90.6894 59.5297C87.4994 59.5697 87.3396 59.0797 88.1096 55.9497C89.0396 52.1597 89.1995 48.1297 90.5195 44.4997C92.0295 40.3297 92.4494 35.9697 93.6394 31.7597C94.8694 27.4197 96.1594 23.1396 97.8794 18.9796C98.3194 17.9096 98.4095 16.6997 98.6995 15.3697L98.7095 15.3797Z" fill="#7FB6E0"/>
<path d="M112.2 23.0597H101.429C101.429 19.3997 101.37 15.7097 101.46 12.0197C101.49 10.4897 101.94 8.96966 102 7.42966C102.06 5.75966 102.769 4.96967 104.429 5.03967C104.789 5.04967 105.16 5.03967 105.52 5.03967C110.88 4.96967 111.999 5.95968 112.179 11.3897C112.309 15.1297 112.2 18.8897 112.2 23.0497V23.0597Z" fill="#7FB6E0"/>
<path d="M33.6594 333.61C33.1794 334.58 32.6895 335.54 32.2095 336.51C31.2795 337.36 30.3495 338.21 29.1995 339.27C28.9795 338.42 28.8096 337.65 28.5696 336.9C28.3696 336.28 28.0896 335.68 27.8496 335.07C26.3796 333.81 27.0795 332.14 27.2395 330.73C27.5295 328.17 28.2095 325.65 28.7695 323.12C28.8095 322.95 29.1196 322.84 29.3096 322.7C29.7896 324.13 30.2096 325.6 30.7796 327C31.6896 329.23 32.6994 331.41 33.6694 333.62L33.6594 333.61Z" fill="#DDEDEB"/>
<path d="M111.17 25.3997C111.7 27.0497 111.25 27.5897 109.96 27.5797C107.22 27.5597 104.489 27.5797 101.629 27.5797C101.149 26.2097 101.19 25.3997 102.82 25.3997C105.56 25.3997 108.29 25.3997 111.17 25.3997Z" fill="#7FB6E0"/>
<path d="M137.939 152.7C141.469 165.77 144.879 178.95 148.589 192.04C152.399 205.5 156.529 218.88 160.479 232.31C163.679 243.18 166.809 254.07 169.969 264.95C172.089 272.24 174.249 279.51 176.339 286.81C178.299 293.65 180.179 300.51 182.139 307.34C183.469 311.97 184.869 316.57 186.239 321.19C186.479 322 186.829 322.8 186.909 323.63C187.019 324.85 187.829 326.68 185.859 326.83C184.939 326.9 183.389 325.66 183.019 324.68C181.729 321.22 180.799 317.63 179.769 314.07C178.339 309.11 176.909 304.15 175.559 299.17C174.059 293.63 172.689 288.05 171.169 282.52C169.209 275.38 167.169 268.26 165.139 261.15C162.559 252.14 159.939 243.14 157.339 234.13C155.169 226.61 152.949 219.11 150.849 211.57C148.299 202.43 145.839 193.26 143.359 184.1C140.749 174.48 138.169 164.85 135.539 155.23C135.389 154.69 134.959 154.22 134.539 153.51C125.079 156.73 115.499 159.11 105.599 159.71C95.7795 160.31 86.1393 158.77 76.1293 156.22C62.8793 217.66 44.3195 277.42 25.1195 337.01C24.6395 329.01 24.4894 321.09 27.2194 313.39C30.0994 305.28 32.9693 297.16 35.6293 288.97C38.8393 279.06 41.8593 269.08 44.8993 259.12C47.3193 251.18 49.7394 243.24 52.0194 235.27C54.9594 224.99 57.9095 214.71 60.6095 204.37C63.5495 193.09 66.1394 181.73 68.9894 170.43C70.0794 166.11 71.4894 161.88 72.7094 157.59C72.9094 156.91 72.9094 156.17 73.0194 155.33C68.9894 153.64 64.9794 152.06 61.0494 150.29C53.9394 147.09 47.6194 142.64 41.7994 137.5C33.3394 130.04 25.5394 121.94 19.0194 112.7C12.8494 103.95 8.35928 94.3097 5.62928 83.9897C4.06928 78.0797 3.4295 71.9197 2.6095 65.8397C2.2195 63.0097 4.36937 61.0797 7.21937 60.3997C18.6594 57.6697 30.2694 59.0997 41.7994 58.9097C55.4694 58.6797 69.1395 58.8297 82.8095 58.7997C83.2795 58.7997 83.7594 58.6997 84.2494 58.6397C86.0594 51.3497 87.6094 44.0597 89.7194 36.9397C92.1194 28.8597 94.8894 20.8897 97.7694 12.9697C98.7694 10.2197 101.229 8.17968 101.999 5.14968C102.419 3.50968 104.009 2.85968 105.829 3.23968C106.889 3.45968 108.079 3.32968 109.029 3.74968C110.149 4.23968 111.809 5.0297 111.969 5.9197C113.039 11.9897 117.099 16.7997 118.679 22.6497C121.189 31.9597 124.04 41.1797 126.61 50.4697C127.29 52.9497 127.469 55.5697 127.959 58.6797C153.319 59.1297 179.13 58.2597 205.12 58.7197C205.37 63.7697 205.849 68.1997 205.749 72.6197C205.559 80.8597 202.549 88.4097 199.469 95.9297C196.089 104.16 191.129 111.45 185.409 118.08C180.579 123.68 174.919 128.56 169.209 133.39C162.839 138.78 155.669 142.64 148.589 146.77C145.099 148.81 141.519 150.7 137.919 152.7H137.939ZM9.13929 61.5597C8.73929 63.4897 7.61949 65.9597 7.84949 68.2997C9.44949 84.4297 15.2193 98.9197 25.4093 111.66C36.3393 125.3 48.9493 136.88 64.6793 144.78C72.5693 148.74 80.7194 152 89.4594 153.7C92.3394 154.26 94.6395 154.15 96.5695 151.67C97.3195 150.71 98.5094 150.1 99.5094 149.33C99.7094 149.5 99.9195 149.68 100.12 149.85C99.5395 151.32 98.9593 152.78 98.1393 154.84C100.459 154.84 102.349 154.78 104.229 154.86C106.099 154.94 107.35 154.52 108.12 152.49C108.66 151.09 109.789 149.56 112.329 149.95C111.949 151.49 111.619 152.8 111.189 154.55C114.169 154.1 116.979 153.68 119.669 153.27C120.989 149.89 122.029 148.89 125.229 147.95C125.049 149.27 124.879 150.48 124.679 151.94C125.619 151.82 126.209 151.81 126.769 151.67C133.459 150.05 139.659 147.24 145.839 144.27C154.179 140.25 161.759 135.05 168.839 129.25C174.749 124.41 180.259 118.93 185.189 113.09C189.179 108.36 192.409 102.86 195.309 97.3497C197.649 92.9097 199.119 87.9897 200.739 83.1997C203.049 76.3997 204.07 69.4597 202.12 61.8997C137.98 61.7897 73.8695 61.6797 9.1095 61.5597H9.13929ZM114.399 19.1397L113.649 19.3197C113.649 21.8497 113.8 24.3997 113.61 26.9197C113.41 29.6397 112.669 30.2297 109.949 30.1697C107.579 30.1097 105.209 29.7797 102.839 29.7197C100.629 29.6597 99.8793 28.4997 99.8993 26.4797C99.9293 23.2197 99.8993 19.9597 99.8993 16.6997C94.0393 30.1197 91.4994 44.3597 88.2194 58.6897H123.719C120.919 45.2097 118.429 31.9997 114.389 19.1397H114.399ZM103.569 5.4197C101.679 10.9397 101.949 16.7197 101.589 22.3197H111.669C111.669 18.8497 111.829 15.5997 111.639 12.3797C111.269 6.16969 110.999 5.4597 103.569 5.4197ZM110.739 27.0497C110.789 26.7097 110.829 26.3697 110.879 26.0297H102.139C104.889 27.6697 107.799 27.5197 110.739 27.0497Z" fill="black"/>
<path d="M113.25 245.11C112 244.11 110.82 242.96 111.95 241.72C113.16 240.39 114.87 239.42 116.53 238.66C116.88 238.5 118.38 239.85 118.58 240.69C118.75 241.37 117.97 242.59 117.27 243.11C116.14 243.95 114.74 244.4 113.26 245.11H113.25Z" fill="black"/>
<path d="M86.7195 226.92C86.8095 228.54 83.9596 231.11 82.7796 230.69C82.3196 230.53 81.8095 229.93 81.6995 229.45C81.2995 227.77 84.0596 225.34 85.7296 225.92C86.1996 226.08 86.5096 226.69 86.7296 226.92H86.7195Z" fill="black"/>
<path d="M102.129 212.12C102.329 211.61 102.37 211.24 102.5 211.2C103.64 210.88 104.809 210.62 105.959 210.35C105.999 210.78 106.21 211.48 106.04 211.59C104.92 212.32 103.799 213.42 102.129 212.12Z" fill="black"/>
<path d="M201.929 67.7697C199.249 70.0797 196.299 70.2997 193.479 70.3497C188.849 70.4397 184.21 70.0397 179.57 69.9697C172.39 69.8597 165.21 69.8897 158.02 69.7797C149.58 69.6497 141.139 69.3697 132.699 69.2697C124.099 69.1797 115.499 69.1897 106.899 69.2397C102.219 69.2597 97.5396 69.5497 92.8596 69.5397C83.5396 69.5197 74.2094 69.3397 64.8894 69.2997C58.0794 69.2697 51.2595 69.4697 44.4495 69.3497C35.4195 69.1997 26.3994 68.8497 17.3794 68.5397C16.5994 68.5097 15.8296 68.1597 15.0696 67.4197C15.8296 67.2597 16.5896 66.9797 17.3596 66.9597C29.4296 66.7597 41.4896 66.5897 53.5596 66.4197C60.7996 66.3197 68.0496 66.1997 75.2896 66.1397C83.0196 66.0797 90.7495 66.0697 98.4795 66.0597C112.129 66.0497 125.779 66.0897 139.429 66.0297C147.379 65.9897 155.32 65.7797 163.27 65.6697C169.94 65.5797 176.62 65.4697 183.29 65.4897C186.99 65.4997 190.7 66.0297 194.37 65.7997C196.54 65.6597 198.59 65.0197 200.51 66.4797C200.88 66.7597 201.189 67.0997 201.899 67.7597L201.929 67.7697Z" fill="black"/>
<path d="M150.41 117.62C149.43 118.32 148.71 119.13 147.84 119.37C146.78 119.66 145.59 119.48 144.46 119.49C144.4 119.49 144.28 119.3 144.29 119.21C144.38 118.55 144.29 117.5 144.66 117.3C145.96 116.59 147.4 116.07 148.85 115.71C149.12 115.64 149.66 116.67 150.41 117.63V117.62Z" fill="black"/>
<path d="M50.0296 103.55C50.0996 105.01 46.3294 107.59 45.3894 106.95C44.9494 106.65 44.6395 105.72 44.7395 105.17C45.0295 103.71 47.2597 102.24 48.6197 102.55C49.1997 102.69 49.6696 103.28 50.0196 103.54L50.0296 103.55Z" fill="black"/>
<path d="M165.179 102.73C164.039 103.46 162.889 104.18 161.679 104.95C160.259 102.8 161.519 101.76 162.709 101.11C163.299 100.79 164.389 101.38 165.249 101.55C165.229 101.94 165.199 102.34 165.179 102.73Z" fill="black"/>
<path d="M56.5095 95.2196C57.8095 92.0396 58.3494 91.8297 60.4294 94.1897C59.2294 94.8297 58.1295 95.4297 57.0195 96.0197C56.8495 95.7497 56.6795 95.4896 56.5195 95.2196H56.5095Z" fill="black"/>
<path d="M73.5896 106.51C72.6596 107.15 71.7296 107.79 70.7996 108.44C70.5696 108.11 70.3396 107.79 70.1196 107.46C71.0396 106.8 71.9596 106.15 72.8696 105.49C73.1096 105.83 73.3496 106.17 73.5896 106.51Z" fill="black"/>
<path d="M169.219 109.84C170.049 109.59 170.889 109.34 171.719 109.1C171.849 109.44 171.97 109.78 172.1 110.11C171.28 110.43 170.459 110.76 169.639 111.08C169.499 110.67 169.359 110.26 169.219 109.84Z" fill="black"/>
</svg>
