<svg width="179" height="187" viewBox="0 0 179 187" fill="none" xmlns="http://www.w3.org/2000/svg">
<path d="M43.7598 160.92C44.0498 160.63 44.3298 160.34 44.6198 160.06C45.3598 160.69 46.0799 161.36 46.7799 162.02C48.6899 163.82 50.8298 165.82 53.5998 167.06C53.6798 167.96 53.7599 168.86 53.8399 169.76C52.2999 170.16 50.9198 170.77 49.6698 171.62C48.5298 172.4 47.1099 173.36 46.8399 175.1C46.5899 176.74 47.6199 178.03 47.9599 178.46C49.1499 179.94 50.4698 181.26 51.7498 182.54L51.8399 182.63C52.3399 183.12 52.8298 183.62 53.3098 184.12C53.8298 184.67 54.3498 185.13 54.8698 185.56H178.04C178.46 184.82 178.85 183.54 178.17 181.85L177.86 181.07C175.46 175.1 172.73 168.34 164.31 166.6C163.47 166.43 163.05 166.25 162.52 164.16L162.39 163.66C161.59 160.5 160.77 157.23 159.38 154.14C154.84 144.03 149.06 132.29 140.62 121.81C140.38 121.51 140.05 120.8 139.91 119.78C139.58 117.3 139.29 114.76 139.01 112.26C138.55 108.24 138.08 104.09 137.4 100C135.98 91.5001 134.06 81.4601 130.53 71.5301C130.42 71.2101 130.4 70.4301 130.7 69.2701C133.02 60.4301 134.82 50.8701 132.28 40.8801C132.18 40.5001 132.15 40.2801 132.14 40.1601C132.16 40.1501 132.18 40.1301 132.2 40.1201C133.39 39.3601 133.68 38.1301 133.91 37.1301C133.98 36.8301 134.06 36.5001 134.17 36.1601L136.02 30.6301L129.83 33.5301C129.7 33.0601 129.58 32.6001 129.58 32.3501C131.64 28.0501 129.78 24.8001 128.77 23.0501C124.98 16.4501 119.62 11.9101 113.52 7.07013C103.26 -1.05987 92.0999 0.370108 82.5299 2.83011C81.7599 3.03011 81.1498 3.38013 80.6598 3.67013C80.5498 3.73013 80.4399 3.80011 80.3399 3.86011L78.7998 4.70013C76.7698 5.81013 74.7398 6.92012 72.7198 8.06012C72.3098 8.29012 71.8998 8.52012 71.4798 8.75012C70.0498 9.54012 68.5698 10.3501 67.1798 11.3701C56.9698 18.8101 48.7798 26.4201 42.1198 34.6301C38.7798 38.7501 35.2099 43.1901 31.7099 47.7201C30.9799 48.6601 30.7998 49.7401 30.6698 50.5401C30.6398 50.7501 30.6098 50.9501 30.5498 51.1401L29.8698 53.7201L31.6999 54.0801C31.6099 54.5101 31.5398 55.0101 31.5998 55.5501C31.9598 59.0601 32.2398 62.6401 32.5098 66.1101C32.8298 70.2301 33.1498 74.4801 33.6298 78.6901C34.8498 89.3501 36.4898 98.2801 38.7398 106.43L38.6198 106.36L38.4498 106.27C36.8698 105.4 35.2398 104.5 33.4898 103.77C31.9798 103.14 30.3499 103.15 28.8899 103.78C27.4199 104.42 26.3098 105.62 25.7498 107.15C24.6998 110.01 25.8099 112.52 28.7799 114.03C29.2699 114.28 29.7498 114.52 30.2398 114.76C31.5298 115.4 32.8699 116.07 34.0899 116.79C35.9099 117.86 37.7298 119.01 39.5398 120.16L39.6499 120.23C37.4799 122.58 35.3099 124.93 33.1399 127.28C28.7299 132.05 24.3198 136.82 19.9298 141.61C19.6298 141.94 19.2798 142.27 18.9098 142.63C17.4698 144.03 15.8398 145.61 15.5998 147.79C15.4798 148.9 14.9198 149.36 13.6698 150.29C13.2498 150.6 12.8199 150.93 12.3899 151.3C11.2299 152.32 9.93983 153.29 8.67983 154.24C7.08983 155.44 5.43983 156.68 3.92983 158.11C-0.82017 162.58 -1.13015 165.77 2.57985 171.73C5.36985 176.21 9.45981 179.26 12.7198 181.42C17.2598 184.43 22.0799 183.76 25.9499 179.59L26.3399 179.17C30.1699 175.05 34.1298 170.78 38.0698 166.64C39.8398 164.78 41.6998 162.92 43.5598 161.06L43.7099 160.91L43.7598 160.92Z" fill="white"/>
<path d="M91.7498 17.9703C93.6898 17.7503 95.6198 17.3603 97.5598 17.3703C99.2698 17.3703 100.98 17.8203 102.69 18.0703L102.61 18.0203C105.48 18.9703 108.29 20.1403 111.38 20.1703C113.83 21.4003 116.27 22.6303 118.72 23.8603C118.68 24.4603 118.64 25.0503 118.6 25.7203C117.65 25.9503 116.7 26.1703 115.74 26.4003C115.74 26.6003 115.74 26.8003 115.75 27.0003C116.18 27.0803 116.63 27.2503 117.05 27.2103C118.34 27.1003 119.63 26.7103 120.89 26.8203C121.72 26.8903 122.85 27.4503 123.22 28.1303C124.14 29.8303 124.7 31.7203 125.41 33.5503C123.71 33.9803 122.32 34.3403 120.93 34.6903C118.86 35.8603 116.81 37.0803 114.71 38.1903C113.38 38.9003 113.02 40.0403 112.84 41.3903C112.35 45.0203 113.5 48.4203 115.42 51.2103C117.48 54.2103 118.36 55.6103 122.89 53.3903C124.38 52.6603 125.94 52.0803 127.46 51.4403C128.06 51.4703 128.66 51.5003 129.45 51.5403C129.41 54.1503 129.62 56.6303 129.08 59.3003C128.55 61.9303 128.04 64.5703 127.47 67.2003C126.81 70.2303 125.31 72.7703 123.83 75.3703C122.21 77.9303 120.5 80.4103 117.86 82.0603C116.46 82.9803 115.05 83.9003 113.65 84.8203C113.07 85.0903 112.5 85.5503 111.91 85.6003C110.26 85.7303 108.61 85.6803 106.95 85.7003C104.78 85.6803 102.61 85.6003 100.44 85.6503C96.0298 85.7503 91.6798 85.4903 87.3998 84.2503C85.0598 83.5703 82.6198 83.2703 80.2198 82.7903C77.3198 81.9903 74.7398 80.6503 72.7898 78.2803C70.8798 75.6903 68.9298 73.1303 67.0698 70.5003C66.2498 69.3403 65.6098 68.0503 64.8798 66.8103C64.3698 65.7803 63.8698 64.7603 63.3598 63.7303C63.0698 62.3903 62.9598 60.9803 62.4398 59.7303C61.6598 57.8603 61.7098 56.1303 62.6098 54.3703C63.2498 53.8503 64.0398 53.4403 64.4998 52.7903C66.3598 50.2003 68.0698 47.4903 69.9498 44.9103C72.4598 41.4603 74.8998 37.9403 77.6698 34.7003C81.9798 29.6503 86.5498 24.8103 90.9598 19.8503C91.3898 19.3603 91.5098 18.6003 91.7698 17.9603L91.7498 17.9703ZM105.5 75.5403C105.66 74.2303 105.06 73.3903 103.77 73.3203C101.85 73.2203 99.9098 73.2203 97.9898 73.3203C96.5698 73.3903 96.5398 74.4703 96.5498 75.6103C96.5598 77.4403 98.0098 78.1603 99.0898 79.1803C98.6798 80.7903 100.25 80.5103 100.99 81.2203C102.09 80.0903 103.23 79.0403 104.22 77.8603C104.78 77.2003 105.08 76.3203 105.5 75.5503V75.5403ZM95.4198 44.9803C94.8398 44.4803 94.2698 43.5703 93.6698 43.5503C91.0498 43.4503 88.3898 42.4003 85.8098 43.5003C83.9498 44.3003 81.5798 43.7303 80.1298 45.5903C78.0398 46.6403 75.9398 47.6603 73.8598 48.7403C71.7698 49.8303 70.5298 51.8803 71.4898 53.7203C73.6598 57.8903 75.1198 62.6203 79.4498 65.3303C81.5798 67.8803 83.6998 66.2103 85.8298 65.3303C90.2698 64.8603 93.7198 62.6003 96.4998 59.2703C96.8798 58.8203 96.7098 57.9203 96.7998 57.2203C97.0498 56.0903 97.5898 54.9403 97.4898 53.8403C97.2998 51.7503 96.7898 49.6903 96.3098 47.6403C96.0898 46.6903 95.6498 45.8003 95.3098 44.8803L95.4098 44.9803H95.4198Z" fill="#F6D3B8"/>
<path d="M91.7497 17.9702C91.4897 18.6102 91.3697 19.3802 90.9397 19.8602C86.5297 24.8302 81.9598 29.6602 77.6498 34.7102C74.8898 37.9502 72.4397 41.4702 69.9297 44.9202C68.0497 47.5002 66.3497 50.2102 64.4797 52.8002C64.0097 53.4502 63.2298 53.8602 62.5898 54.3802C61.6698 54.0602 60.7497 53.7502 59.7297 53.4002C59.7697 55.9302 62.1397 58.1502 60.7297 61.0502C60.0097 60.7702 59.2298 60.6902 58.7798 60.2602C56.6198 58.1602 53.8897 57.8702 51.1897 58.0702C48.7197 58.2502 46.0197 58.8502 44.7197 61.2002C42.8697 64.5402 41.8597 68.1402 44.3897 71.7202C45.3097 75.5202 47.4698 78.2902 51.0898 79.8702C52.3598 81.0302 53.5997 82.0702 55.5497 82.1102C57.3897 82.1502 59.2998 82.4402 61.0198 83.0602C63.9698 84.1102 66.2398 82.6702 68.5798 81.4202C68.9298 81.2402 68.9297 80.4102 69.0997 79.8802C69.6297 79.3702 70.1597 78.8602 70.6897 78.3502C71.3797 78.3302 72.0697 78.3003 72.7597 78.2803C74.7097 80.6503 77.2897 81.9902 80.1897 82.7902C81.8497 83.5002 83.4797 84.3402 85.1897 84.8802C87.3097 85.5402 88.0198 86.1702 88.0798 88.2602C88.1098 89.3002 87.9897 90.3402 87.9297 91.3802C83.4197 91.1602 83.3697 91.0802 81.0497 92.4102C76.7897 94.8602 72.5697 97.3902 68.3697 99.9502C67.7997 100.3 67.4698 101.02 67.0198 101.57C65.5398 102.57 64.0497 103.57 62.5697 104.56C60.4797 105.22 58.6197 106.19 57.5097 108.21L57.5798 108.15C57.2198 108.18 56.7698 108.08 56.5198 108.26C54.1698 110.03 51.8897 111.9 49.4897 113.61C48.6897 114.19 47.6097 114.38 46.6597 114.76C45.6597 114.25 44.6597 113.74 43.6597 113.23C43.4097 111.48 43.4797 109.6 42.8597 107.99C40.3197 101.45 39.5897 94.4902 37.9797 87.7302C37.3497 85.0902 37.4197 82.2802 37.1597 79.5502C36.6897 74.6902 36.1497 69.8402 35.7397 64.9802C35.4097 61.1502 35.4998 57.2602 34.8998 53.4802C34.3698 50.1702 34.8998 47.8002 37.5298 45.4302C40.4298 42.8202 42.5797 39.4002 45.2497 36.5202C48.3297 33.2002 51.5297 29.9802 54.8597 26.9202C58.1997 23.8502 61.6997 20.9502 65.2497 18.1202C67.1797 16.5802 69.4997 15.5202 71.3497 13.9002C72.7797 12.6502 74.2997 12.7202 75.7497 13.0102C79.7897 13.8102 83.7998 14.7802 87.7698 15.8902C89.1798 16.2802 90.4197 17.2502 91.7397 17.9602L91.7497 17.9702Z" fill="#BF9577"/>
<path d="M77.9697 125.55C75.9897 127.05 73.9998 128.55 72.0198 130.05C69.8798 131.08 67.7398 132.11 65.6898 133.1C65.2098 135.08 66.4298 135.8 67.6998 136.49C69.4298 139.19 71.1498 141.88 72.8798 144.58C72.7998 145.75 72.7198 146.91 72.6298 148.25C67.2598 147.96 63.4298 143.95 58.4498 143.31C58.9098 143.88 59.4398 144.42 60.0298 144.5C61.3498 144.7 61.9298 145.38 61.9598 146.65C59.8998 149.08 60.0897 152.29 59.0497 155.08C58.5697 156.36 58.4997 157.79 58.2397 159.16C57.8897 159.81 57.5298 160.46 57.0298 161.39C56.3598 161.14 55.5597 160.98 54.9197 160.57C52.1597 158.8 49.4097 157.01 46.7197 155.13C45.4297 154.23 45.7398 153.21 46.6998 152.09C48.8598 149.57 50.9698 147.01 52.9498 144.35C53.5798 143.51 53.7398 142.32 54.2498 140.9C52.0798 141.73 51.0998 142.84 50.0198 144.2C47.1098 147.85 44.6697 151.87 41.0497 155.01C38.6697 157.07 36.9998 159.93 34.8898 162.33C33.2698 164.17 31.4298 165.82 29.7598 167.62C27.8998 169.63 26.1797 171.78 24.2897 173.76C22.5797 175.56 20.8498 177.5 17.9998 177.25C17.0898 177.17 16.0298 177.03 15.3398 176.51C11.7198 173.81 7.99973 171.19 5.22973 167.53C5.15973 167.43 5.03973 167.37 4.97973 167.27C3.36973 164.91 3.25978 164.62 5.33978 162.39C7.13978 160.45 9.17977 158.69 11.2698 157.05C15.6098 153.63 20.0498 150.35 24.5898 146.91C23.7198 146.79 22.8697 146.67 21.7397 146.51C22.3497 142.83 26.2897 141.85 27.3497 138.78H29.9297L29.8497 138.72C30.5097 139.88 31.1798 141.04 31.9998 142.48C33.2098 141.5 34.4297 140.5 35.6597 139.5C37.7997 138.22 40.2698 137.27 42.0198 135.58C45.2398 132.48 48.0498 128.95 51.0198 125.6C52.0598 125.17 53.3797 125.01 54.0997 124.27C56.3597 121.93 58.3898 119.38 60.5098 116.91L60.4197 116.98H64.1498C64.0198 117.86 64.1197 118.58 63.8097 118.97C62.1397 121.04 60.4698 123.15 58.5798 125.01C57.2098 126.36 57.1398 127.33 58.5298 128.38C64.5998 125 70.6798 122.25 77.8298 123.78C77.8798 124.37 77.9197 124.97 77.9697 125.58V125.55Z" fill="#F6D3B8"/>
<path d="M134.61 164.7C134.48 168.52 134.2 172.33 133.9 176.14C133.73 178.26 133.42 180.38 133.16 182.49C133.04 183.48 132.79 184.49 132.64 185.48C134.38 185.48 136.11 185.47 137.85 185.48C144.21 185.5 150.57 185.85 156.94 185.85C158.85 185.85 160.76 185.83 162.68 185.8C163 185.37 163.31 184.93 163.59 184.45C164.33 183.22 164.69 182.32 163.85 180.98C166.94 181.26 169.36 183.55 172.8 182.74C171.8 180.29 170.94 178.01 169.91 175.82C169.63 175.22 168.93 174.74 168.31 174.4C166.57 173.47 164.78 172.64 163.01 171.77C160.61 170.58 158.3 169.14 155.79 168.26C153.73 167.55 151.37 166.87 149.37 169.04C148.99 167.55 149.4 166.52 150.91 166.39C152.2 166.28 153.53 166.46 154.84 166.61C156.23 166.76 157.61 167.01 159 167.22C159.2 166.99 159.41 166.77 159.61 166.54C159.26 165.84 158.96 165.11 158.55 164.45C158.17 163.85 157.5 163.39 157.26 162.76C155.7 158.76 154.25 154.71 152.71 150.7C150.63 145.28 148.86 144.78 143.92 147.97C141.09 149.8 138.27 151.75 135.21 153.11C133.96 153.67 133.42 154.51 133.34 155.31C133.15 157.29 132.87 159.32 133.89 161.29C134.41 162.29 134.66 163.56 134.62 164.69L134.61 164.7ZM150.82 182.2C151.91 182.64 152.88 183.03 154.33 183.61C152.52 184.04 151.02 184.4 148.95 184.89C149.94 183.46 150.53 182.62 150.82 182.19V182.2Z" fill="#F6D3B8"/>
<path d="M106.92 85.7001C108.57 85.6801 110.23 85.7301 111.88 85.6001C112.48 85.5501 113.04 85.0901 113.62 84.8201C114.72 84.6201 115.81 84.4101 116.91 84.2301C118.37 83.9901 117.83 82.9101 117.83 82.0601C120.47 80.4101 122.18 77.9301 123.8 75.3701C124.63 75.4301 125.46 75.4901 126.74 75.5901C128.15 81.8201 129.6 88.1001 131 94.3801C132.22 99.8801 133.51 105.38 134.52 110.92C134.77 112.3 134.03 113.85 133.77 115.2C131.88 115.72 130.73 115.49 129.66 113.87C128.48 112.08 126.62 110.79 125.75 108.67C125.5 108.07 124.42 107.82 123.72 107.41L123.77 107.49C121.2 102.97 117.2 99.8001 113.37 96.4601C112.08 95.3401 110.71 95.1301 109.18 95.0701L109.2 95.0901C108.95 94.2801 109.35 93.4901 108.22 92.7101C106.37 91.4401 104.63 90.6001 102.33 90.6701C100.14 90.7401 99.9097 90.3801 99.7397 88.2101C99.6997 87.6601 99.8297 87.0901 99.8997 86.3501C101.55 86.3501 102.98 86.4301 104.4 86.3201C105.25 86.2601 106.07 85.9001 106.91 85.6801L106.92 85.7001Z" fill="#BF9577"/>
<path d="M118.7 23.8501C116.25 22.6201 113.81 21.3901 111.36 20.1601C108.65 18.5501 105.74 17.7801 102.59 18.0101L102.67 18.0601C101 16.8501 99.0497 16.6501 97.0797 16.5701C95.5097 16.5101 93.9397 16.5601 92.6097 16.5601C88.6597 11.8401 83.0397 12.2601 77.9697 11.0901C77.8097 8.90011 79.5597 8.19012 80.9097 7.03012C83.0197 5.22012 85.7698 5.31011 88.0198 5.18011C91.2498 4.99011 94.5498 3.13011 97.8398 4.90011C106.19 4.85011 111.66 10.0201 117.16 15.3201C119.63 17.7001 121.67 20.3401 123.76 23.0101C124.65 24.1501 124.37 24.8301 124.13 26.2901C122.19 25.4101 120.44 24.6201 118.7 23.8201V23.8501Z" fill="#BF9577"/>
<path d="M127.44 51.4402C125.91 52.0902 124.35 52.6702 122.87 53.3902C118.34 55.6102 117.46 54.2002 115.4 51.2102C113.48 48.4202 112.34 45.0202 112.82 41.3902C113 40.0402 113.35 38.8902 114.69 38.1902C116.79 37.0802 118.84 35.8602 120.91 34.6902C121.88 34.7102 122.84 34.7202 123.81 34.7502C126.45 34.8402 126.49 34.9002 126.48 38.0502C123.5 39.0202 121.97 40.6902 120.86 44.1402C122.03 45.1002 123.19 46.0602 124.54 47.1702C125.98 46.5102 126.87 44.0002 129.42 45.2102C129.66 47.5002 130.21 49.9402 127.44 51.4502V51.4402Z" fill="white"/>
<path d="M51.0298 125.57C48.0498 128.92 45.2498 132.45 42.0298 135.55C40.2798 137.24 37.8097 138.19 35.6697 139.47C33.7297 139.21 31.7997 138.95 29.8597 138.69L29.9398 138.75C29.9098 137.44 29.7897 136.23 30.9097 135.09C35.0797 130.85 39.1597 126.51 43.1797 122.13C44.3597 120.84 45.6598 120.35 47.3098 120.49C48.5598 121.25 49.8098 122.02 51.0598 122.78C51.0498 123.71 51.0398 124.64 51.0298 125.57Z" fill="#D98FB7"/>
<path d="M51.0598 122.78C49.8098 122.02 48.5598 121.25 47.3098 120.49C41.3498 116.86 35.3898 113.23 29.3398 109.54C29.8198 107.55 31.0598 106.73 33.2398 107.69C35.1698 108.53 36.8898 109.82 38.7498 110.82C40.3598 111.69 42.0398 112.43 43.6798 113.23C44.6798 113.74 45.6798 114.25 46.6798 114.76C47.6198 115.45 48.5498 116.15 49.4898 116.84C51.2298 117.85 52.9598 118.85 54.6998 119.86C54.4332 121.687 53.2232 122.66 51.0698 122.78H51.0598Z" fill="#9FD1CF"/>
<path d="M79.4398 151.86C77.9398 150.86 76.4498 149.85 74.9498 148.85C74.7098 147.43 74.4697 146.01 74.2297 144.59C75.5297 143.59 74.9598 142.32 74.7498 141.08C74.1798 137.73 71.6598 136.02 69.1298 134.3C69.3231 132.56 70.2931 131.59 72.0397 131.39C73.0697 132.31 74.1498 133.19 75.1298 134.17C75.8798 134.92 76.9798 135.76 77.0698 136.65C77.3898 139.65 79.5397 140.91 81.7397 142.08C86.1297 144.4 90.5998 146.56 95.0298 148.81C95.4298 149.01 95.7598 149.34 96.1198 149.62C96.1198 150.11 96.0998 150.6 96.0898 151.09C95.3698 151.09 94.6397 151.09 93.9197 151.09C93.0497 151.15 92.1798 151.21 91.1898 151.28C91.9964 152.613 93.1431 153.52 94.6298 154C94.8898 154.51 95.1398 155.03 95.3998 155.54C95.0298 155.75 94.6097 156.2 94.2897 156.14C92.0197 155.74 89.7698 155.23 87.5198 154.75C84.6998 154.14 82.4597 151.89 79.4297 151.87L79.4398 151.86Z" fill="#9FD1CF"/>
<path d="M110.59 98.8503C110.15 98.8203 109.71 98.7803 109.27 98.7503C108.01 98.2403 106.74 97.7203 105.48 97.2103C104.7 96.7603 103.91 96.3203 103.14 95.8403C102.14 95.2203 101.56 94.4103 102.12 92.9903C104.84 92.3703 106.92 94.0903 109.2 95.1003L109.18 95.0803C109.69 95.7603 110.19 96.4403 110.7 97.1203C110.66 97.7003 110.63 98.2803 110.59 98.8603V98.8503Z" fill="#BD7DA0"/>
<path d="M96.0497 155.5L95.7297 155.46L95.4097 155.53C95.1497 155.02 94.8997 154.5 94.6397 153.99C94.3997 153.02 94.1597 152.05 93.9197 151.08C94.6397 151.08 95.3697 151.08 96.0897 151.08C96.3497 152.31 96.5997 153.54 96.8597 154.77L96.0497 155.5Z" fill="#9BCCCA"/>
<path d="M97.5997 150.41C99.2697 150.05 100.32 150.84 101.02 152.25C99.8798 152.81 98.7497 153.37 97.6097 153.93C97.6097 152.76 97.6097 151.59 97.5997 150.42V150.41Z" fill="#0F1313"/>
<path d="M97.5998 150.41C97.5998 151.58 97.5998 152.75 97.6098 153.92C97.3598 154.2 97.1098 154.49 96.8598 154.77C96.5998 153.54 96.3498 152.31 96.0898 151.08C96.0898 150.59 96.1098 150.1 96.1198 149.61C96.6098 149.88 97.1098 150.14 97.5998 150.41Z" fill="#82ABA9"/>
<path d="M51.0898 79.8902C47.4698 78.3102 45.3098 75.5402 44.3898 71.7402C44.4098 69.5702 44.5697 67.3802 44.4097 65.2202C44.2497 62.9902 45.6597 61.6902 47.2297 61.0702C49.0397 60.3602 51.1998 60.0802 53.1298 60.3002C56.7198 60.7002 60.1498 61.9402 63.3198 63.7502C63.8298 64.7802 64.3298 65.8002 64.8398 66.8302C64.8398 67.3102 64.6597 67.8802 64.8597 68.2402C66.4497 71.0402 67.2398 74.3202 69.8298 76.5502C70.2898 76.9502 70.3997 77.7502 70.6797 78.3702C70.1497 78.8802 69.6198 79.3902 69.0898 79.9002C66.6298 80.6202 64.2797 81.6302 61.5497 81.3502C58.8497 81.0702 56.0897 81.5302 53.5497 80.0402C52.9197 79.6702 51.9098 79.9302 51.0798 79.9002L51.0898 79.8902Z" fill="#F6D3B8"/>
<path d="M96.8098 57.2202C96.7198 57.9102 96.8898 58.8202 96.5098 59.2702C93.7198 62.6102 90.2798 64.8702 85.8398 65.3302H79.4598C75.1198 62.6202 73.6698 57.8902 71.4998 53.7202C70.5398 51.8702 71.7698 49.8302 73.8698 48.7402C75.9398 47.6602 78.0498 46.6402 80.1398 45.5902C80.7398 45.5902 81.4198 45.7802 81.9198 45.5502C84.4598 44.3902 87.1198 44.0002 89.8598 44.2202C91.7298 44.3702 93.5798 44.7202 95.4398 44.9802L95.3398 44.8802V49.1802C92.0998 49.1002 90.6898 50.8202 90.0098 53.5202C89.4298 55.8102 90.9498 56.8402 91.8898 57.6902C93.8398 57.5002 95.3398 57.3602 96.8298 57.2202H96.8098Z" fill="white"/>
<path d="M99.0798 79.1701C97.9998 78.1501 96.5598 77.4301 96.5398 75.6001C96.5398 74.4601 96.5598 73.3801 97.9798 73.3101C99.8998 73.2101 101.84 73.2101 103.76 73.3101C105.05 73.3801 105.65 74.2201 105.49 75.5301C104.79 76.1101 104.05 76.6501 103.39 77.2801C102.17 78.4401 100.78 79.1501 99.0798 79.1601V79.1701Z" fill="#E89163"/>
<path d="M67.6997 136.48C67.8097 135.51 67.3297 134.16 69.1297 134.31C71.6597 136.02 74.1797 137.73 74.7497 141.09C74.9597 142.34 75.5297 143.6 74.2297 144.6L72.8897 144.57C71.1597 141.87 69.4397 139.18 67.7097 136.48H67.6997Z" fill="#D98FB7"/>
<path d="M93.9197 151.08C94.1597 152.05 94.3997 153.02 94.6397 153.99C93.153 153.51 92.0064 152.604 91.1997 151.27C92.1897 151.2 93.0597 151.14 93.9297 151.08H93.9197Z" fill="#92BFBD"/>
<path d="M105.48 97.2103C106.74 97.7203 108.01 98.2403 109.27 98.7503C109.51 99.7603 109.74 100.77 110.09 102.24C108.03 102.53 106.1 102.89 104.16 103.07C100.71 103.38 97.2398 103.84 93.7998 103.73C90.7598 103.63 87.7398 102.86 84.7198 102.33C84.1598 102.23 83.6498 101.86 83.1098 101.64C81.5498 101.03 81.0898 100.09 82.0298 98.5703C83.7198 95.8403 85.6498 93.4803 89.6898 93.5003C89.4098 91.1703 89.1398 88.9903 88.8398 86.5803H98.2098C98.6998 89.1403 99.3198 91.8603 99.7098 94.6103C100.05 97.0003 100.1 97.1903 102.58 97.2503C103.55 97.2803 104.52 97.2103 105.49 97.1903L105.48 97.2103Z" fill="#F6D3B8"/>
<path d="M57.5198 108.22C57.5198 108.22 57.5498 108.21 57.5598 108.2C57.5598 108.18 57.5798 108.17 57.5898 108.15L57.5198 108.21V108.22Z" fill="#D98FB7"/>
<path d="M54.6897 119.87C55.9097 119.96 56.8297 119.49 57.7297 118.62C58.4797 117.89 59.5297 117.47 60.4497 116.92C62.3497 114.1 65.5597 113.08 68.6897 110.76C68.7297 111.99 68.9997 112.81 68.7197 113.32C67.5797 115.36 66.2297 117.28 65.0197 119.28C64.3197 120.44 63.7297 121.67 62.7397 123.51C69.9697 123.08 76.3497 121.24 82.9797 121.62C81.5097 123.31 80.2797 125.12 77.9697 125.56C75.9897 127.06 73.9997 128.56 72.0197 130.06C72.0197 130.51 72.0397 130.96 72.0497 131.41C73.0797 132.33 74.1597 133.21 75.1397 134.19C75.8897 134.94 76.9897 135.78 77.0797 136.67C77.3997 139.67 79.5497 140.93 81.7497 142.1C86.1397 144.42 90.6097 146.58 95.0397 148.83C95.4397 149.03 95.7697 149.36 96.1297 149.64C96.6197 149.91 97.1197 150.17 97.6097 150.44C99.2797 150.08 100.33 150.87 101.03 152.28C99.8898 152.84 98.7597 153.4 97.6197 153.96C97.3697 154.24 97.1197 154.53 96.8697 154.81C96.5997 155.05 96.3297 155.29 96.0597 155.54C95.7397 158.23 94.9697 159.03 92.8697 158.22C88.2597 156.43 83.5097 154.87 79.4397 151.91C77.9397 150.91 76.4497 149.9 74.9497 148.9C71.5297 150.74 68.7597 148.18 65.7097 147.52C64.4597 147.25 63.2197 146.97 61.9697 146.69C59.9097 149.12 60.0997 152.33 59.0597 155.12C58.5797 156.4 58.5097 157.83 58.2497 159.2C58.0797 160.49 57.8997 161.77 57.7497 163.06C57.6697 163.77 57.5497 164.49 57.6197 165.19C57.7797 166.71 58.0598 168.22 58.2798 169.74C58.7998 173.37 57.9497 176.97 58.1297 180.64C58.2097 182.32 58.3497 183.98 58.5397 185.64C64.8997 185.67 71.2697 185.7 77.6297 185.7C86.8897 185.7 96.1597 185.65 105.42 185.62C113.84 185.59 122.27 185.55 130.69 185.54C131.25 182.84 132.1 180.18 132.37 177.45C132.75 173.57 134.84 169.52 131.83 165.73C131.53 165.35 131.83 164.54 131.75 163.95C131.57 162.67 131.35 161.39 131.11 160.12C130.82 158.56 131.53 156.75 129.99 155.49C130.71 149.91 128.19 145.15 125.74 140.54C123.3 135.96 120.73 131.48 118.75 125.98C119.66 126.6 120.23 126.76 120.38 127.11C124.11 135.66 130.61 142.94 131.78 152.34C134.41 153.24 135.47 151.36 137 150.45C140.69 148.24 144.48 146.18 148.41 143.96C148.89 142.52 147.99 141.25 147.1 139.97C145.89 138.22 144.41 136.59 143.54 134.69C142.26 131.86 140.61 129.38 138.59 127.03C136.12 124.17 133.96 121.04 131.62 118.07C129.8 115.75 128.11 113.26 125.96 111.29C124.74 110.17 124.02 109.09 123.75 107.58C121.65 107.54 121.25 105.5 120.08 104.38C117.84 102.22 115.75 99.9003 113.44 97.8203C112.84 97.2803 111.64 97.4003 110.71 97.2103C110.67 97.7903 110.64 98.3703 110.6 98.9503C110.86 99.3503 111.18 99.7203 111.37 100.14C112.05 101.7 111.67 102.63 110.12 103.19C108.01 103.94 105.84 104.35 103.63 104.77C99.4297 105.56 95.2597 105.14 91.0797 105.39C88.0197 105.57 85.2297 104.54 82.4597 103.59C81.0797 103.12 79.9597 101.86 78.6397 100.89C79.7997 99.0703 80.8297 97.4703 81.8897 95.8103C80.3397 94.9203 79.3297 95.1703 78.1897 95.8503C75.0597 97.7003 71.8497 99.4303 68.6497 101.17C68.1597 101.43 67.5797 101.52 67.0397 101.68C65.5597 102.68 64.0698 103.68 62.5898 104.67C61.5398 106.75 59.5697 107.54 57.5697 108.3C56.2897 110.51 54.2398 111.91 52.2798 113.43C51.0998 114.34 49.1397 114.77 49.4897 116.95C51.2297 117.96 52.9597 118.96 54.6997 119.97L54.6897 119.87Z" fill="#D98FB7"/>
<path d="M60.5097 116.88C60.5097 116.88 60.4697 116.9 60.4597 116.91C60.4497 116.92 60.4397 116.94 60.4297 116.95L60.5197 116.88H60.5097Z" fill="#D98FB7"/>
<path d="M123.72 107.41C123.72 107.41 123.73 107.46 123.74 107.48C123.75 107.48 123.76 107.48 123.77 107.48L123.72 107.4V107.41Z" fill="#D98FB7"/>
<path d="M14.1397 179.36C17.7497 181.75 21.1397 181.16 24.1597 177.91C28.1897 173.57 32.2197 169.23 36.2997 164.94C38.9297 162.17 41.6698 159.5 44.3998 156.74C48.4498 159.52 51.1697 163.83 55.9497 165.29C56.5697 172.05 57.1097 178.83 57.7997 185.58C58.3397 185.58 58.8897 185.58 59.4297 185.58C59.3697 185.11 59.2997 184.64 59.2497 184.17C58.7097 178.81 59.2497 173.34 58.6197 168C57.7597 160.76 60.1497 154.25 62.0497 147.16C64.6197 147.93 66.9897 148.64 69.3597 149.36C70.0497 149.57 70.8697 150.2 71.3897 150.01C74.5897 148.82 76.4097 151.21 78.7997 152.45C83.1697 154.73 87.7497 156.62 92.2897 158.57C94.2997 159.43 95.7497 159.1 96.9297 156.74C97.8497 154.9 99.8797 153.62 101.83 151.68C100.87 150.95 99.9997 150.02 98.9397 149.52C94.3697 147.35 89.7597 145.26 85.1297 143.23C81.5397 141.66 78.2497 140.05 76.8597 135.8C76.2897 134.05 74.2597 132.76 72.7197 131.08C75.8697 128.74 78.9797 126.51 81.9897 124.14C82.6197 123.65 82.8597 122.66 83.2697 121.9C82.3897 121.47 81.4597 120.6 80.6397 120.7C75.7397 121.29 70.8697 122.09 65.9897 122.85C65.1997 122.97 64.4197 123.24 63.1297 123.58C65.0997 120.54 66.7797 117.94 68.4497 115.34C68.7697 114.83 69.2198 114.31 69.2798 113.76C69.3598 112.99 69.4097 111.91 68.9597 111.48C68.5197 111.05 67.2697 110.92 66.6997 111.24C64.4997 112.48 62.3798 113.88 60.3398 115.37C58.6898 116.58 57.2097 118.01 55.5497 119.45C53.8597 118.3 52.1797 117.17 50.5097 116.04C59.6197 107.88 69.1097 100.58 80.6897 96.1002C80.3497 96.5902 80.0297 97.0902 79.6697 97.5602C77.4997 100.4 77.8897 102.46 81.2697 103.74C84.0697 104.8 87.0497 105.87 89.9897 105.99C96.4697 106.27 103.02 106.4 109.31 104.17C112.8 102.94 113.11 102.28 111.66 98.7103C111.6 98.5503 111.74 98.3202 111.93 97.4802C125.98 111.42 138.31 126.19 148.01 143.24C142.66 146.33 137.8 149.15 132.57 152.17C130.77 141.79 124.32 134.03 120.18 125.22C118.23 125.78 117.67 126.48 118.47 128.01C120.36 131.65 122.28 135.28 123.93 139.03C125.82 143.29 127.76 147.58 129.06 152.04C130.27 156.19 130.75 160.56 131.37 164.86C131.7 167.12 133.25 169.01 132.65 171.6C131.58 176.19 131.08 180.94 130.02 185.51C131.11 185.51 132.21 185.51 133.3 185.51C133.65 181.49 134.29 177.49 134.81 173.48C135.42 168.82 135.99 164.24 134.17 159.62C132.91 156.41 133.57 155.45 136.7 153.57C139.8 151.7 142.83 149.7 145.97 147.9C149.04 146.14 149.63 146.39 151.01 149.67C152.83 154.01 154.57 158.39 156.41 162.73C156.91 163.92 157.63 165.02 158.47 166.57C157.25 166.37 156.27 166.18 155.28 166.04C153.85 165.83 152.4 165.43 150.98 165.51C148.36 165.65 147.39 167.54 148.75 169.8C149.49 171.03 150.57 172.04 151.44 173.19C152.23 174.23 152.95 175.33 153.75 176.47C151.89 179.07 150.11 181.58 148.15 184.32C150.95 186.02 152.83 185.09 154.69 184.27C156.45 183.49 158.16 182.59 159.96 181.89C161.16 181.42 162.53 180.8 163.65 182.9C162.92 183.8 162.21 184.87 161.39 185.85C162.45 185.84 163.5 185.82 164.56 185.81C164.61 185.74 164.66 185.68 164.7 185.62C166.08 183.64 167.14 183.53 169.14 184.38C170.64 185.02 172.41 185.18 174.07 185.22C175.44 185.25 176.49 184.38 175.87 182.84C173.45 176.87 171.25 170.63 163.82 169.1C161.37 168.6 160.65 166.98 160.11 164.83C159.29 161.58 158.48 158.27 157.12 155.23C152.08 144.01 146.47 133.1 138.69 123.44C137.99 122.57 137.6 121.3 137.45 120.17C136.57 113.61 136.04 106.99 134.95 100.47C133.37 90.9702 131.43 81.5402 128.19 72.4202C127.8 71.3202 127.99 69.8702 128.3 68.6902C130.65 59.7402 132.22 50.7602 129.88 41.5502C129.54 40.1902 129.4 39.0102 130.88 38.0702C131.39 37.7402 131.41 36.6602 131.83 35.4302C130.25 36.1702 129.43 36.5502 128.24 37.1102C127.83 34.9802 126.65 32.7502 127.3 31.4302C128.67 28.6602 127.95 26.6502 126.63 24.3502C123.01 18.0302 117.62 13.5402 111.99 9.09022C103.01 1.98022 93.2797 2.71023 83.1797 5.32023C82.6097 5.47023 82.0897 5.83022 81.5697 6.12022C79.0397 7.51022 76.4997 8.89022 73.9797 10.3102C72.1897 11.3202 70.3297 12.2502 68.6797 13.4602C59.5797 20.0902 51.1998 27.5002 44.0898 36.2702C40.5898 40.5902 37.1097 44.9202 33.7097 49.3102C33.2097 49.9602 33.2197 50.9902 32.9897 51.8502C35.4197 52.3202 33.9897 54.2502 34.0997 55.3602C34.8997 63.0502 35.2497 70.7902 36.1297 78.4802C37.3297 89.0202 39.1298 99.4702 42.2798 109.64C42.3898 110 42.1197 110.48 41.9697 111.18C40.8197 110.52 39.9097 109.97 38.9697 109.47C36.8397 108.34 34.7597 107.08 32.5397 106.16C30.6697 105.38 28.7597 106.33 28.1097 108.1C27.4397 109.93 28.3397 111.09 29.9297 111.89C31.7497 112.82 33.6097 113.69 35.3797 114.72C38.0397 116.28 40.6197 117.97 43.1397 119.54C42.8597 120.31 42.8297 120.58 42.6897 120.74C35.7297 128.29 28.7497 135.82 21.7997 143.39C20.4197 144.89 18.3097 146.45 18.1197 148.16C17.7997 151.04 15.6697 151.87 14.0797 153.27C11.3897 155.64 8.28972 157.56 5.67972 160.02C2.08972 163.4 1.40971 165.16 4.72971 170.5C7.07971 174.27 10.4897 177.01 14.1297 179.43L14.1397 179.36ZM163.7 173.32C164.34 173.66 164.89 174.16 165.53 174.48C169.55 176.47 170.14 177.23 171.31 182.36C169.13 181.56 167.19 180.65 165.14 180.17C163.73 179.84 162.07 179.73 160.72 180.15C157.67 181.09 154.74 182.42 151.76 183.59C151.57 183.4 151.39 183.22 151.2 183.03C152.85 180.97 154.49 178.92 156.33 176.63C154.39 173.95 152.51 171.36 150.63 168.77C150.71 168.53 150.78 168.29 150.86 168.05C152.29 168.31 153.84 168.3 155.12 168.88C158.05 170.21 160.86 171.82 163.71 173.33L163.7 173.32ZM73.8097 144.28C71.7997 140.98 69.9397 137.91 67.8197 134.42C73.4397 137.82 74.6097 139.74 73.8097 144.28ZM75.9897 137.01C77.1597 140.45 79.5597 142.28 82.5797 143.74C86.9197 145.83 91.2397 147.96 95.5497 150.1C96.2197 150.43 96.8197 150.93 97.2197 151.84C95.0397 151.02 92.8497 150.21 90.5497 149.35C89.9797 150.35 89.4797 151.23 88.7597 152.48C90.8297 153.5 92.6997 154.43 94.5597 155.35C94.4697 155.58 94.3797 155.82 94.2897 156.05C90.6797 154.74 87.0097 153.58 83.4797 152.08C81.0897 151.06 78.7897 149.72 76.6797 148.22C75.9097 147.67 75.2897 146.15 75.4397 145.2C76.1697 140.57 75.0197 136.89 70.8697 134.37C70.4897 134.14 70.2497 133.69 69.9497 133.34C70.1297 133.04 70.2997 132.75 70.4797 132.45C72.9297 133.11 75.1497 134.57 75.9797 137.02L75.9897 137.01ZM82.1297 99.7103C84.2197 97.1303 86.0097 94.3402 90.3197 93.9102C90.1797 91.6502 90.0397 89.3602 89.8797 86.7902C92.2897 87.0202 94.7397 87.2503 97.6697 87.5303C98.0297 89.5903 98.4997 91.7802 98.7897 94.0002C99.2597 97.6102 99.3197 97.6502 102.86 98.2502C104.59 98.5402 106.29 99.0802 107.96 99.6702C108.42 99.8302 108.68 100.54 109.06 101.03C101.58 104.23 87.7097 103.63 82.1197 99.7202L82.1297 99.7103ZM103.97 94.5702C104.1 94.1902 104.24 93.8102 104.37 93.4402C105.71 94.0102 107.05 94.5803 108.39 95.1503C108.29 95.4103 108.2 95.6702 108.1 95.9202C106.72 95.4702 105.35 95.0202 103.97 94.5702ZM133.39 116.64C130.04 112.73 126.7 108.81 123.32 104.92C119.27 100.25 114.87 95.9302 109.73 92.5002C107.8 91.2102 105.35 90.5702 103.05 90.0002C101.61 89.6402 100.45 89.4602 100.62 87.3802C103.17 87.1402 105.76 86.8902 108.35 86.6602C109.68 86.5402 111.02 86.5502 112.33 86.3502C115.21 85.9102 117.79 85.2202 119.54 82.3502C121.02 79.9302 123.27 77.9702 125.72 75.2102C129.2 89.2102 132.74 102.55 133.38 116.65L133.39 116.64ZM126.41 36.3202C126.11 36.5502 125.82 36.7802 125.52 37.0102C124.26 38.0202 122.73 38.8202 121.78 40.0702C119.23 43.3902 119.55 45.1402 123.02 47.4002C123.72 47.8602 125.08 47.7202 125.95 47.3702C126.73 47.0602 127.25 46.1002 127.89 45.4102C129.28 48.3102 129.23 48.6402 127.07 50.1802C126.87 50.3202 126.67 50.4602 126.46 50.5702C123.82 51.9302 121.13 53.8402 118.07 52.6302C115.56 51.6402 113.25 44.8902 113.84 41.7602C114.52 38.1902 121.35 34.3102 124.74 35.5702C125.31 35.7802 125.85 36.0702 126.4 36.3202H126.41ZM112.66 39.1202C112.04 39.8502 111.54 41.0702 111.67 41.9602C112.24 45.6602 113.15 49.2502 115.24 52.5002C116.65 54.6902 118.41 55.4602 120.75 54.7802C123.27 54.0402 125.71 53.0402 128.48 52.0502C128.62 52.6102 128.89 53.1302 128.87 53.6502C128.43 63.9202 126.17 73.5102 118.1 80.7002C116.54 82.0902 114.54 83.5002 112.57 83.8002C101.4 85.5102 90.2697 85.6402 79.5997 81.1102C75.3097 79.2902 71.5297 76.6602 69.3097 72.4002C67.1497 68.2402 65.1997 63.9702 63.1897 59.7402C62.2897 57.8402 62.3997 56.0402 63.7297 54.3102C68.3797 48.3202 72.8997 42.2202 77.6497 36.3202C82.0297 30.8902 86.6697 25.6602 91.1497 20.3202C92.6497 18.5302 94.2598 17.6302 96.7798 18.0402C102.6 18.9802 108.42 19.7902 113.74 22.5502C115.01 23.2102 116.23 23.9702 117.81 24.8802C114.4 26.4802 111.34 27.8002 109.29 30.5402C109.42 30.7702 109.55 31.0002 109.67 31.2402C110.61 30.6802 111.49 29.9602 112.49 29.5802C114.73 28.7502 116.99 27.9602 119.31 27.3902C120.91 27.0002 122.12 27.9002 122.78 29.3702C123.27 30.4602 123.62 31.6002 124.14 33.0202C119.41 33.5902 115.58 35.6402 112.63 39.1302L112.66 39.1202ZM49.2697 68.1702C50.9597 68.1302 52.0297 69.1502 51.9797 70.7602C51.9197 72.5602 50.0397 74.7402 48.5097 74.7702C46.9297 74.8002 45.3698 72.9702 45.3398 71.0602C45.3198 69.6602 47.2697 68.2202 49.2597 68.1702H49.2697ZM45.7397 66.1802C45.7697 62.5602 47.7497 60.5902 51.5097 61.0302C54.5597 61.3902 57.5097 62.5802 60.4897 63.4302C62.3897 63.9702 62.9097 65.4802 63.4097 67.9302C57.4497 64.6402 51.5897 65.3602 45.7397 66.1802ZM53.0497 67.7102C56.6297 66.9202 58.3397 67.2302 61.4397 69.2302C54.3597 73.6302 55.4397 74.7303 59.3697 80.4003C55.7197 80.3803 52.5997 79.3502 49.5697 77.0102C54.1797 73.2502 54.4897 72.3702 53.0397 67.7102H53.0497ZM59.1197 74.2202C60.4597 73.4502 61.7997 72.4002 63.3197 71.9202C64.0897 71.6802 65.5097 72.1902 66.0597 72.8402C67.4897 74.5302 68.6197 76.4903 69.8697 78.3403C68.6097 78.6603 67.4597 79.4902 66.0497 78.1302C65.3597 77.4702 63.7698 77.7203 62.5898 77.5903C60.7398 77.4003 59.4997 76.5502 59.1197 74.2202ZM83.3197 6.96022C93.5897 3.86022 103.52 4.27023 112.04 11.4702C116.49 15.2202 121 19.1502 123.88 25.5102C114.21 19.0502 104.15 15.9802 93.0997 15.8802C91.0397 12.8402 88.5397 11.8502 79.1697 10.5202C79.7897 8.38021 81.5597 7.49022 83.3097 6.96022H83.3197ZM37.0597 68.5102C36.8097 62.9802 36.2497 57.4602 35.7997 51.9402C35.7397 51.2302 35.4897 50.5402 35.2997 49.7402C46.3597 35.4702 59.1097 22.8302 73.9997 13.1502C79.8997 14.7602 85.2997 16.2402 91.2497 17.8702C80.0697 29.3002 70.9097 41.4402 61.9997 54.1302C61.1897 53.3802 60.4498 52.7002 59.5898 51.9002C59.2998 52.3502 58.9397 52.6602 58.9897 52.8802C59.4097 55.1002 59.8997 57.3102 60.2897 59.1802C57.6397 58.5802 54.9697 57.5802 52.2397 57.4202C45.3797 57.0302 41.5897 61.2002 42.3597 68.0802C43.2897 76.4802 48.0798 81.2502 56.2798 83.1802C59.7098 83.9902 63.4097 84.7002 66.9997 83.2502C69.4697 82.2602 70.1397 81.2603 69.9997 78.4603C74.7697 81.7103 79.8297 84.2903 85.4497 85.8403C88.3097 86.6303 87.2997 89.2602 87.5797 92.1202C85.2497 88.7302 83.1497 90.2102 81.2297 91.3102C76.8397 93.8402 72.4097 96.3202 68.2297 99.1602C61.3497 103.83 54.6497 108.77 47.5497 113.83C45.6697 113.42 44.5697 112.34 43.8697 109.79C40.1597 96.2502 37.6997 82.5502 37.0697 68.5102H37.0597ZM30.4597 108.97C30.4297 108.74 30.4097 108.52 30.3797 108.29C31.2997 108.4 32.3797 108.25 33.1197 108.67C40.0897 112.61 47.0098 116.66 54.0298 120.72C52.5698 122.75 51.2497 121.46 50.1697 120.82C43.5697 116.92 37.0197 112.92 30.4497 108.96L30.4597 108.97ZM43.8697 122.49C45.2997 120.96 46.5997 120.81 48.1097 122.38C48.7297 123.03 49.6097 123.44 50.5697 124.11C49.3997 125.36 48.2697 126.56 47.1297 127.76C46.5597 128.37 45.6597 128.88 45.4497 129.59C43.9597 134.8 38.9597 136.04 35.2497 138.69C33.3497 140.05 31.9897 138.43 30.0197 137.16C34.8497 132.05 39.3797 127.29 43.8597 122.49H43.8697ZM28.2798 139.29C28.7998 139.6 29.2197 139.78 29.5597 140.06C29.9297 140.36 30.2197 140.74 30.8797 141.44C27.5397 143.75 24.5497 145.83 21.5597 147.9C21.4097 147.72 21.2597 147.55 21.1097 147.37C23.4597 144.72 25.8198 142.07 28.2798 139.29ZM16.8197 153.84C21.2797 150.38 25.9297 147.16 30.5697 143.94C33.5097 141.9 36.6997 140.22 39.5697 138.1C42.0397 136.27 44.2697 134.09 46.4997 131.95C49.0797 129.47 50.9497 126.2 54.6697 125.03C55.1597 124.88 55.4097 123.98 55.7997 123.46C57.9497 120.6 60.5497 118.26 64.1697 117.02C62.2397 119.4 60.3197 121.79 58.3697 124.16C57.9897 124.62 57.2397 124.98 57.1697 125.45C57.0297 126.45 57.0197 127.6 57.4097 128.49C57.5397 128.79 59.1797 128.81 59.8597 128.45C64.4697 126 69.1797 123.95 74.5497 124.02C75.2397 124.02 75.9297 124.1 76.9597 124.81C72.8797 127.63 68.7997 130.45 64.3497 133.52C66.5797 137.99 71.2997 141.3 72.1397 147.34C66.4697 145.93 61.9097 142.62 56.3697 141.08C56.2097 144.32 58.8397 144.79 60.6697 145.9C59.3397 150.72 58.0097 155.52 56.5797 160.72C53.1997 158.39 50.0497 156.22 46.4897 153.77C48.8597 151.06 50.8897 148.87 52.7597 146.55C54.1297 144.85 55.2898 142.99 54.2098 140.56C52.2698 140.05 51.2397 141.31 50.2397 142.48C44.6897 149 39.2297 155.6 33.6297 162.08C30.1597 166.09 26.5997 170.03 22.9297 173.86C19.6197 177.31 17.7897 177.34 13.8697 174.31C10.3497 171.59 6.74975 168.92 4.45975 164.21C8.56975 160.74 12.5797 157.13 16.8297 153.83L16.8197 153.84ZM66.4797 52.0602C67.6897 51.8902 68.9097 51.7102 70.2097 51.5302C73.5397 46.3702 78.9597 44.2702 84.6597 43.0202C87.5097 42.3902 90.6098 42.8002 93.5898 42.8602C95.3898 42.9002 96.4097 43.9102 96.6797 45.7602C97.0997 48.7002 97.7497 51.6202 98.0597 54.5702C98.3897 57.6702 97.0997 60.1802 94.6597 62.1202C91.0797 64.9602 87.0297 66.7402 82.4897 67.1402C78.4397 67.4902 76.6397 64.3502 74.7097 61.6102C74.0197 60.6402 73.4997 59.5202 73.0497 58.4202C71.8497 55.4902 70.2198 53.1202 66.4598 53.1802C66.4698 52.8102 66.4897 52.4402 66.4997 52.0702L66.4797 52.0602ZM94.6097 45.6802C92.1497 45.4502 89.4997 44.5902 87.1897 45.1402C82.8897 46.1702 78.7397 47.8802 74.6397 49.5902C72.2197 50.6002 71.7597 52.1502 72.9897 54.5502C74.1897 56.8902 75.7197 59.0602 77.1097 61.3002C79.3097 64.8502 82.7597 65.3902 86.3197 64.4902C89.5697 63.6702 92.6697 62.1902 94.9197 59.4702C95.3897 58.9102 95.6797 58.2002 96.3197 57.0902C91.8797 59.3502 89.0397 57.9902 88.9697 54.1602C88.9197 51.5502 90.7297 48.8102 93.3297 48.3102C95.0297 47.9902 94.8097 47.1802 94.6097 45.6702V45.6802ZM106.76 74.5202C106.81 76.6702 102.52 81.7002 101.01 81.8202C100.37 81.8702 99.4497 81.6302 99.0697 81.1802C97.6997 79.5502 96.4297 77.8102 95.2497 76.0302C94.2697 74.5402 94.9497 73.2602 96.4897 73.0202C99.0597 72.6202 101.71 72.4202 104.29 72.6102C105.28 72.6802 106.18 74.0502 106.75 74.5302L106.76 74.5202ZM99.6897 78.7103C101.6 77.2503 103.21 76.0302 104.82 74.8102C104.7 74.6102 104.59 74.4102 104.47 74.2202H96.5298C97.7898 76.0102 98.6197 77.1802 99.6897 78.7202V78.7103ZM73.5597 43.0902C78.3497 38.0902 84.2097 35.1502 91.3997 34.1202C90.4997 35.6002 90.4697 35.4802 85.7097 36.9402C83.5597 37.6002 81.5197 38.7302 79.5697 39.8702C77.6197 41.0002 75.8397 42.4202 73.9897 43.7102C73.8497 43.5002 73.7097 43.3002 73.5597 43.0902ZM111.13 63.7602C112.06 61.9402 112 59.3202 115.2 58.6202C114.56 61.3302 113.36 62.9302 111.13 63.7602Z" fill="black"/>
<path d="M65.5497 185.99C60.2797 183.65 56.0198 180.05 51.7498 175.52C55.0398 175.06 57.5698 174.6 60.1298 174.38C63.0798 174.12 66.0298 174.38 69.0298 173.78C71.1498 173.35 73.5498 173.78 75.8298 173.67C78.3598 173.54 80.9098 173.7 83.4498 173.61C85.2098 173.54 87.0598 174.13 88.7098 172.96C88.9598 172.79 89.5698 172.76 89.7598 172.94C91.6298 174.75 93.8898 171.89 95.7498 173.48C100.71 172.25 105.8 173.52 110.75 172.83C116.74 172 122.79 172.8 128.7 172.02C133.76 171.36 138.73 171.75 143.76 171.41C144.38 172.54 144.16 173.3 143.35 174.04C140.33 176.76 137.4 179.58 134.3 182.21C132.61 183.65 130.67 184.78 128.84 186.05C121.09 185.9 113.35 185.68 105.6 185.63C99.4297 185.59 93.2597 185.85 87.0997 185.83C81.2197 185.81 75.3398 185.55 69.4598 185.48C68.1598 185.46 66.8598 185.81 65.5598 185.98L65.5497 185.99Z" fill="white"/>
<path d="M63.6598 162.72C72.0098 162.72 80.1198 162.7 88.2298 162.75C89.1398 162.75 90.1398 163.02 90.9298 163.46C92.9798 164.62 95.1698 164.71 97.4498 164.98C105.87 165.97 114.31 165.37 122.73 165.7C124.91 165.78 127.05 166.76 129.38 167.38V168.92C129.14 169.04 128.93 169.22 128.72 169.23C121.02 169.5 113.3 169.46 105.63 170.09C99.5998 170.59 93.5198 170.14 87.5898 170.88C81.5498 171.64 75.5598 171.12 69.5698 171.47C67.8198 171.57 66.5498 171.2 65.9398 169.35C65.6898 168.59 65.1998 167.8 64.5998 167.29C63.1898 166.08 63.1798 164.65 63.6598 162.73V162.72Z" fill="#BF9577"/>
<path d="M66.3498 171.25C65.1498 167.72 61.0798 165.81 62.8598 161.64C63.7198 161.4 64.6398 160.92 65.5598 160.93C73.4098 160.99 81.4598 160.08 89.0498 161.53C98.5798 163.35 108 163.8 117.59 163.71C121.16 163.68 124.75 164.51 128.3 165.13C129.18 165.28 130.26 165.91 130.69 166.65C131.93 168.77 133.74 168.5 135.71 168.44C139.88 168.32 144.06 168.4 148.44 168.4C149.2 170.24 148.87 171.98 147.31 173.46C143.45 177.12 139.74 180.97 135.62 184.31C134.25 185.42 131.83 185.23 129.89 185.64C129.81 185.42 129.72 185.19 129.64 184.97C134.22 180.95 138.79 176.93 143.53 172.77C140 171.72 62.6098 174.49 52.8498 175.94C56.8598 179.09 60.5998 182.04 64.3598 184.99C60.5698 186.59 57.6999 185.06 55.1499 182.41C53.3999 180.59 51.5098 178.88 49.9398 176.91C48.7998 175.49 49.2898 174.93 51.0998 173.7C55.0198 171.04 59.1398 171.97 63.1898 171.48C64.1198 171.37 65.0698 171.34 66.3698 171.25H66.3498ZM63.3898 163.69C65.1098 166.34 66.3998 168.46 67.8598 170.47C68.1998 170.93 69.1399 171.17 69.7799 171.15C75.5499 170.91 81.3199 170.55 87.0899 170.31C94.6899 169.99 102.29 169.79 109.88 169.47C116.18 169.2 122.48 168.83 128.78 168.5C128.8 168.26 128.81 168.01 128.83 167.77C126.02 167.28 123.23 166.5 120.4 166.36C111.99 165.94 103.57 165.8 95.1598 165.46C93.8798 165.41 92.5999 164.86 91.3399 164.49C90.2999 164.19 89.2998 163.54 88.2598 163.51C80.8198 163.33 73.3798 163.25 65.9298 163.18C65.3598 163.18 64.7898 163.41 63.3798 163.71L63.3898 163.69Z" fill="black"/>
</svg>
