<svg width="394" height="392" viewBox="0 0 394 392" fill="none" xmlns="http://www.w3.org/2000/svg">
<path d="M391.55 160.66L390.72 158.65L388.61 159.19C383.65 160.46 378.72 160.07 373.52 159.53C375.52 156.35 376.11 153.61 375.35 151.16C374.56 148.65 372.37 146.7 368.85 145.39C363.7 143.46 358.29 141.72 352.78 140.2C351.17 139.76 349.53 139.6 347.95 139.44C345.88 139.24 343.92 139.05 342.62 138.26C336.12 134.31 332.84 129.52 332.59 123.6C332.46 120.43 332.34 117.7 330.39 116.18C328.44 114.67 325.72 115.25 322.83 115.87C322.64 115.91 322.44 115.95 322.25 115.98C321.9 116.05 321.56 116.11 321.21 116.19C319.73 116.55 317.63 117.24 316.54 119.17C315.73 120.59 315.66 122.34 316.32 124.5C316.88 126.31 317.74 127.94 318.58 129.51C318.62 129.58 318.66 129.66 318.7 129.73C308.85 138.18 305.05 143.49 302.87 148.49C302.33 148.59 301.8 148.67 301.4 148.63C298.68 148.4 295.97 148.12 293.25 147.85C290.1 147.53 286.85 147.2 283.59 146.94L280.43 146.69C280.99 143.29 279.92 140.73 278.75 138.64C274.75 131.45 269.84 124.68 263.81 118.05C264.21 117.98 264.62 117.93 265.01 117.88C269.46 117.37 270.36 114.49 270.5 112.82C270.63 111.21 270.24 108.35 266.12 107.2C263.26 106.4 260.53 105.54 257.99 104.64C256.3 104.03 253.36 102.98 250.41 104.7C248.28 98.6301 241.02 93.1101 234.84 93.4601L233.41 93.5401L232.76 94.8101C232.34 95.6301 232.06 96.4701 231.92 97.3501L230.72 98.3701L231.92 100.18C232.09 101.29 232.44 102.45 233.02 103.79C233.19 104.18 233.4 104.59 233.62 105C233.8 105.34 234.1 105.9 234.17 106.16C233.71 109.12 234.23 111.75 235.75 114.1L207.1 119.67C206.04 116.93 204.88 115.24 201.35 115.56L200.83 115.6C196.86 115.94 192.75 116.29 188.84 118.41C187.52 119.13 186.14 119.22 185.07 118.66C184.07 118.14 183.41 117.07 183.26 115.73C182.99 113.39 182.21 111.49 180.73 109.55C178.46 106.58 176.38 103.45 174.18 100.15L174.1 100.03C173.94 99.7902 173.79 99.5601 173.63 99.3201C175.24 99.0801 176.78 98.8801 178.23 98.8201C178.38 98.8201 179.04 98.9901 180.01 99.7701C183.41 102.49 187.24 103 191.07 101.25C201.69 96.3801 209.69 88.2801 217.43 80.4501L218.91 78.9501C219.84 78.0101 221.05 76.5501 220.87 74.6701C220.67 72.5401 218.76 71.2401 217.94 70.6801C215.44 68.9801 215.36 68.4001 216.06 66.2301C216.81 63.9201 217.83 61.5801 218.84 59.2901C219.3 58.2501 219.75 57.2002 220.19 56.1502L221.46 53.0902C222.96 53.6102 224.49 53.8402 226.09 53.7802L227.37 53.7301L228.07 52.6701C228.15 52.5601 228.24 52.4401 228.35 52.3001C228.75 51.7901 229.3 51.0901 229.59 50.1401C231.55 43.6701 231.85 38.2801 230.53 33.1701C229.01 27.2901 225.52 23.9101 220.13 23.1301C220.48 21.7601 220.57 20.2501 219.81 18.8801C219.02 17.4701 217.53 16.5701 215.25 16.1501C212.67 15.6701 210.09 15.7201 207.59 15.7701C207.43 15.7701 207.27 15.7701 207.11 15.7701C207.25 15.1901 207.28 14.6201 207.21 14.0501C206.91 11.5501 204.78 10.0701 203.22 9.17014C199.05 6.79014 194.66 4.75011 190.42 2.77011L189.88 2.52011C187.54 1.43011 185.6 0.850117 183.76 0.680117C175.55 -0.0598833 167.59 1.73014 159.41 6.14014C150.99 10.6901 143.62 16.8101 136.49 22.7201C133 25.6201 129.63 28.7601 126.31 31.8501C125.31 32.7901 124.3 33.7201 123.28 34.6601C117.48 31.4401 111.78 32.1002 107.11 36.5902C92.3199 50.7902 78.2701 65.0601 68.8701 83.3901C66.0601 88.8701 64.0302 94.6302 62.4302 99.5302C61.4602 102.48 61.51 106.43 67.23 108.47C68.93 109.08 70.7402 109.17 72.2002 109.24C72.7502 109.27 73.2898 109.28 73.8398 109.29C59.6898 131.18 49.8299 153.58 43.8799 177.43C42.5799 171.91 41.1698 165.98 39.7598 160.13C37.7698 151.89 35.5102 142.56 33.2002 133.52C32.8502 132.16 32.1001 131.04 31.6001 130.3C31.4801 130.13 31.3801 129.97 31.3101 129.85L30.52 128.43L28.9102 128.57C28.0902 128.64 27.3401 128.72 26.6401 128.79C25.3501 128.92 24.2302 129.04 23.1802 129.05C20.7802 129.08 18.96 129.82 17.77 131.24C16.96 132.2 16.0998 133.93 16.5498 136.74C16.9298 139.11 17.4102 141.52 17.9502 143.9C18.8902 147.97 19.8601 152.04 20.8701 156.28L21.48 158.85L12.1401 159.69L12.25 162.08C12.25 162.08 12.25 162.14 12.25 162.17L11.3999 162.32L12.2598 165.08C12.2698 166.1 12.3399 167.19 12.6699 168.29C15.2999 177.02 18.0202 185.84 20.6602 194.37L20.79 194.81C22.5 200.34 24.2099 205.87 25.8999 211.41C27.1799 215.6 28.4099 219.88 29.6099 224.04L29.71 224.38C30.06 225.59 30.41 226.79 30.75 227.99C30.36 228.26 29.9799 228.51 29.6099 228.73C29.1299 229.01 28.6401 229.26 28.1201 229.53C27.5701 229.81 27.02 230.1 26.48 230.41C21.67 233.2 21.0698 234.77 22.7598 240.32C23.1598 241.63 23.5702 242.9 24.2402 244.11C25.1602 245.79 26.1698 247.51 27.0498 249.02C28.6998 251.85 30.4198 254.78 31.8198 257.74C34.5398 263.47 37.2401 269.81 40.0601 277.12C41.2401 280.16 42.4499 283.3 41.6099 286.35C41.3499 287.3 41.0898 288.24 40.8398 289.19C39.7998 293.08 38.71 297.1 37.27 300.83C34.2 308.77 30.7999 316.84 26.8999 325.49C22.4099 335.44 17.7998 345.42 13.3398 355.07L13.25 355.27C10.79 360.58 8.3399 365.9 5.8999 371.22C5.0499 373.08 4.2499 374.98 3.3999 377.01C2.9799 378.01 2.54982 379.05 2.06982 380.17L0.589844 383.65H4.37012C5.51012 383.65 6.57986 383.65 7.60986 383.63C9.86986 383.61 11.8298 383.59 13.8198 383.68C16.9398 383.83 19.0398 382.55 20.2598 379.78C22.4998 374.7 24.7598 369.64 27.0298 364.58C30.0598 357.82 33.1902 350.82 36.2002 343.89C39.5902 336.09 42.6998 328.29 45.5498 321.03C46.1198 319.58 46.7001 318.13 47.3101 316.61C50.3101 309.15 53.4102 301.43 54.9702 293.22C55.4802 290.56 55.9199 287.88 56.3599 285.28L56.46 284.65C57.16 284.86 57.8999 285.02 58.6899 285.06C62.8899 285.26 67.0899 285.33 71.1499 285.24C75.0999 285.16 79.0401 285.04 83.0601 284.91C89.5401 284.71 96.21 284.51 102.79 284.51C110.04 284.51 117.75 284.64 125.27 286.08C132.82 287.53 138.25 291.26 141.85 297.5C142.01 297.77 142.16 298.06 142.33 298.38C142.94 299.54 143.63 300.85 144.84 301.83C148.57 304.83 149.61 308.95 150.19 312.97C150.3 313.77 150.2 314.69 150.08 315.76C149.98 316.62 149.87 317.59 149.89 318.58C149.93 321.28 150.02 323.98 150.11 326.77C150.24 330.83 150.38 335.03 150.36 339.14C150.3 353.87 150.07 368.96 149.85 381.94C149.8 384.94 151.28 386.96 154.02 387.61C155.69 388.01 157.16 388.21 158.49 388.22C162.94 388.26 167.4 388.26 171.7 388.25H179.01L179.19 385.94C179.23 385.44 179.28 384.98 179.33 384.51C179.43 383.58 179.52 382.71 179.49 381.78C179.42 379.89 179.37 378 179.32 376.11C179.19 371.19 179.06 366.09 178.57 361.06C177.04 345.45 175.56 332.64 173.92 320.73C173.65 318.74 173.34 316.76 173.04 314.78C171.9 307.36 170.73 299.68 171.32 292.11C171.37 291.51 171.46 290.26 171.68 289.94C174.74 286.27 175.94 283.17 173.03 278.19C171.25 275.14 171.33 271.96 171.42 268.26C171.44 267.57 171.45 266.86 171.46 266.15L206.92 260.89C207.15 262.06 207.38 263.18 207.67 264.32C208.9 269.14 210.14 273.95 211.39 278.76L211.42 278.87C213.83 288.19 216.32 297.82 218.65 307.32C220.46 314.69 222.05 322.26 223.59 329.58L224.52 334C224.71 334.89 224.9 335.78 225.1 336.67L225.12 336.77C226 340.81 226.91 345 227.34 349.09C227.58 351.34 227.5 353.75 227.42 356.09C227.35 358.14 227.28 360.26 227.42 362.39C227.49 363.59 227.45 364.9 227.42 366.17C227.31 370.04 227.18 374.41 230.04 378.39C230.02 378.71 230 379.11 230.04 379.55C230.08 379.9 230.11 380.25 230.15 380.63C230.26 381.76 230.37 382.94 230.62 384.13C231.68 389.38 233.53 390.91 238.84 390.95C244.35 390.99 250.21 391.04 255.97 391.04C261.34 391.04 266.14 391 270.63 390.92C278.36 390.78 286.2 390.47 293.78 390.17L294.26 390.15C296.73 390.05 299.21 389.95 301.68 389.86C308.79 389.59 309.76 388.75 311.08 381.69C311.2 381.07 311.33 380.74 311.42 380.58C313.19 377.43 312.27 374.46 311.27 372.22C308.26 365.49 301.49 362.52 294.42 364.83C292.21 365.55 290.31 365.42 288.25 364.41C284.84 362.73 282.08 361.27 279.63 359.81C279.56 359.65 279.47 359.42 279.4 359.25C279.25 358.87 279.07 358.4 278.83 357.93L277.72 355.76L275.52 356.82C275.34 356.91 275.22 356.94 275.15 356.96C275.06 356.86 274.87 356.61 274.65 356.04L273.86 353.96L271.7 354.5C271.21 354.62 270.9 354.57 270.22 354.06L273.96 348.53L268.54 349.16C268.28 349.19 268.08 349.2 267.9 349.21C267.39 349.24 266.82 349.28 266.19 349.58C264.72 350.29 263.96 350.28 263.74 350.16C263.51 350.04 263.06 349.38 262.81 347.69L262.79 347.53C262.63 346.43 262.4 344.76 261.16 343.69C261.02 343.57 260.92 343.47 260.87 343.41C260.92 343.3 261.01 343.11 261.2 342.82C262.07 341.43 262.19 339.88 262.3 338.46L262.35 337.9C262.44 336.87 262.48 335.86 262.52 334.85C262.57 333.7 262.61 332.52 262.75 331.42C263.32 326.79 263.92 322.16 264.53 317.53C264.91 314.64 265.29 311.75 265.65 308.86C265.94 306.58 266.24 304.14 266.43 301.66L266.57 299.82C267.19 291.65 267.83 283.2 268.36 274.87C268.64 270.46 268.85 265.98 269.05 261.59V261.28C269.15 259.35 269.24 257.41 269.34 255.48L270.06 240.92H352.49V379.66C350.79 380.76 349.65 381.92 350.37 384.59C351.35 388.2 354.63 388.27 356.03 388.29H356.25C359.09 388.36 362 388.35 365.15 388.25C368.39 388.15 370.8 387.94 372.32 386.22C373.82 384.51 373.73 382.16 373.42 379.02C373.4 378.81 373.37 378.61 373.33 378.36C373.31 378.26 373.29 378.17 373.29 378.07L373.26 367.53C373.23 358.11 373.2 348.38 373.23 338.79C373.25 332 373.31 325.21 373.37 318.42V318.16C373.43 311.7 373.49 305.24 373.51 298.79C373.56 283.78 373.56 268.95 373.51 254.73C373.46 241.04 373.37 227.36 373.28 213.68C373.23 206.4 373.19 199.12 373.15 191.84C373.14 189.27 373.14 186.69 373.15 183.99V182.52C373.67 182.52 374.15 182.52 374.64 182.52C375.66 182.51 376.68 182.52 377.71 182.52H377.93C380.41 182.52 382.97 182.52 385.52 182.37C391.85 182 392.88 178.25 393.03 176.66C393.53 171.25 393.8 165.97 391.64 160.71L391.55 160.66ZM219.3 182.29C218.58 182.64 217.85 183 217.13 183.37C213.32 185.32 209.52 187.35 205.85 189.32C202.83 190.94 199.81 192.55 196.78 194.13C195.28 194.91 194.45 195.04 194.02 195.02C187.96 194.7 181.3 194.23 173.06 193.54C171.96 193.45 171.44 192.82 171.49 191.67C171.61 189.1 171.84 186.5 172.08 183.75C172.12 183.27 172.17 182.78 172.21 182.28H219.31L219.3 182.29ZM225.99 144.72C223.86 144.7 221.5 144.89 220.05 146.66C218.63 148.4 218.87 150.71 219.3 152.74L220.71 159.37H197.41C198.95 158.48 200.67 157.7 202.34 156.95C206.56 155.05 211.32 152.9 214.45 148.2C214.66 148.12 214.86 148.03 215.05 147.94L216.36 147.29C218.52 146.21 220.67 145.13 222.84 144.07C227 142.03 231.16 140 235.33 137.96L239.7 135.83C240.21 136.32 240.71 136.81 241.21 137.29C243.24 139.25 245.16 141.11 247.18 142.92C248.41 144.02 250.28 145.4 252.41 144.79C254.75 144.11 255.51 141.47 255.76 140.6C256.51 137.97 256.99 135.36 257.49 132.59C257.52 132.42 257.55 132.26 257.58 132.09C257.71 132.17 257.83 132.26 257.92 132.35L258.66 133.06C260.87 135.19 263.16 137.4 264.67 139.84C266.35 142.56 268.52 144.41 270.83 145.97C266.23 145.63 261.58 145.33 256.96 145.16C249.8 144.9 242.54 144.86 235.52 144.82C232.34 144.8 229.17 144.79 226 144.75L225.99 144.72Z" fill="white"/>
<path d="M189.59 203.29C191.99 202.19 194.11 200.67 196.24 199.14C198.46 197.54 201.02 196.52 203.29 194.93C205.97 193.05 209.14 191.85 212.13 190.41C217.29 187.93 222.32 185.1 227.68 183.16C233.76 180.97 239.59 177.26 246.71 178.64C246.8 178.92 246.92 179.26 247.01 179.61C247.07 179.86 247.09 180.12 247.17 180.58C249.21 181.05 251.01 180.94 252.7 179.21C253.34 178.55 254.76 178.46 255.83 178.46C270.18 178.41 284.54 178.11 298.88 178.57C305.28 178.77 311.64 177.88 318.01 178.44C319.81 178.6 321.59 178.95 323.39 179.17C324.04 179.25 324.82 179.41 325.36 179.15C327.9 177.94 330.37 178.59 332.91 179.09C333.91 179.29 335.16 179.38 335.99 178.95C337.24 178.3 338.17 178.35 339.26 179.1C339.54 179.29 340.07 179.31 340.41 179.2C345.06 177.67 349.64 180.22 354.64 178.99C354.94 183.54 355.4 187.67 355.46 191.81C355.59 199.64 355.5 207.48 355.5 215.32V218.87C351.96 219.23 348.74 219.65 345.51 219.86C342.48 220.06 339.47 219.43 336.38 219.8C333.24 220.18 330.01 219.88 326.82 219.88H298.12C294.93 219.88 291.74 219.88 288.55 219.88C281.38 219.9 274.2 219.93 267.03 219.95C265.57 219.93 264.11 219.88 262.65 219.88C235.71 219.88 208.76 219.9 181.82 219.83C180.4 219.83 178.6 220.79 177.48 218.91C177.41 218.79 176.79 218.81 176.59 218.96C174.43 220.61 172.11 219.73 169.66 219.65C169.75 218.93 169.61 218.21 169.9 217.96C173.39 214.91 176.88 211.85 180.51 208.96C181.9 207.85 183.67 207.24 185.2 206.29C186.71 205.35 188.13 204.28 189.59 203.27V203.29Z" fill="#DDEEEC"/>
<path d="M154.39 195.91C154.91 192.21 154.28 188.51 154.46 184.8C154.55 183.1 154.47 181.4 154.47 179.47H165.44C165.76 182.26 166.12 185.17 166.43 188.1C166.6 189.7 166.75 191.3 166.75 192.9C166.75 194.97 166.6 197.03 166.51 199.1C166.75 204.34 167.15 209.57 167.2 214.81C167.31 225.71 167.23 236.62 167.24 247.53C167.24 251.1 167.28 254.68 167.31 258.25C166.9 264.58 167.33 270.9 167.28 277.23C167.28 280.48 167.28 283.72 167.28 286.97C167.27 294.68 167.21 302.38 167.28 310.09C167.29 311.75 167.85 313.4 168.03 315.07C168.81 322.44 170.39 329.7 170.56 337.18C170.66 341.38 172.1 345.53 172.76 349.73C173.21 352.56 173.43 355.43 173.6 358.3C173.93 363.81 174.08 369.33 174.45 374.84C174.61 377.27 175.1 379.67 175.49 382.41C174.28 382.48 173.53 382.58 172.78 382.55C169.31 382.43 168.14 381.28 168.05 377.85C167.99 375.49 168.04 373.13 167.34 370.77V381.43C163.59 381.86 160.13 382.25 156.8 382.64C155.2 381.06 155.25 379.25 155.26 377.41C155.29 365.98 155.3 354.56 155.24 343.13C155.24 341.47 154.75 339.82 154.52 338.15C154.45 337.63 154.4 337.07 154.5 336.56C156.24 327.77 154.8 318.89 155.27 310.06C153.73 306.16 153.38 301.76 149.97 298.65C148.35 297.17 147.13 295.26 145.74 293.53C141.33 288.07 136.13 283.7 129.17 281.89C127.06 281.34 124.91 280.87 122.74 280.58C119.77 280.18 116.77 279.82 113.77 279.75C108.46 279.62 103.14 279.73 97.8198 279.71C91.2598 279.68 84.75 280.31 78.27 281.28C77.49 281.4 76.6799 281.3 75.8799 281.3C71.7599 281.3 67.64 281.3 63.52 281.3C58.25 281.3 55.0102 279.01 53.1602 274.24C50.5602 267.56 47.8602 260.92 45.1802 254.28C42.3602 247.28 39.24 240.38 36.73 233.26C33.2 223.25 30.1098 213.09 26.8398 202.99C24.4398 195.57 22.0299 188.15 19.6699 180.71C17.9699 175.36 16.3498 169.99 14.5898 164.28C18.4298 163.58 21.9501 162.95 25.5601 162.29C28.1101 170.39 30.6802 178.15 32.9902 185.99C34.8302 192.25 36.1498 198.67 38.0698 204.91C40.8198 213.81 44.05 222.55 46.79 231.45C48.14 235.85 49.9102 240.09 50.9302 244.64C51.8402 248.7 54.04 252.48 55.77 256.34C57.34 259.82 58.7902 263.38 61.1802 266.41C61.8102 267.21 62.6799 267.82 63.4399 268.51C64.6899 268.79 65.9499 269.33 67.1899 269.3C71.8799 269.2 76.5598 269.54 81.2798 268.68C84.8498 268.03 88.6298 268.57 92.3198 268.59C92.9598 268.84 93.59 269.31 94.23 269.31C98.32 269.36 102.41 269.31 106.51 269.31C107.9 269.34 109.28 269.36 110.67 269.39C111.17 269.64 111.67 270.1 112.17 270.11C114.53 270.18 116.9 270.11 119.27 270.11C120.49 270.17 121.74 270.12 122.94 270.31C127.27 271.01 131.61 271.72 135.91 272.56C138.31 273.03 140.7 273.62 143.02 274.4C146.83 275.68 150.53 277.24 153.77 279.72C154.11 279.98 154.6 280.03 155.22 280.24V268.46C155.21 265.59 155.2 262.72 155.19 259.85C153.87 255.91 155.69 251.95 155.03 247.94C154.43 244.27 154.49 240.47 154.56 236.74C154.63 232.83 154.85 228.95 154.53 225.03C154.2 220.95 154.43 216.83 154.41 212.73C154.32 207.13 154.79 201.53 154.38 195.93L154.39 195.91Z" fill="#DDEEEC"/>
<path d="M167.31 258.24C167.29 254.67 167.24 251.09 167.24 247.52C167.24 236.61 167.31 225.71 167.2 214.8C167.15 209.56 166.75 204.33 166.51 199.09C168 199.28 169.74 198.73 170.54 200.81C170.71 201.24 171.81 201.54 172.47 201.52C176.42 201.38 180.23 201.97 184.04 203.05C185.77 203.54 187.73 203.23 189.58 203.28C188.12 204.29 186.7 205.37 185.19 206.3C183.66 207.25 181.89 207.87 180.5 208.97C176.87 211.86 173.38 214.92 169.89 217.97C169.61 218.22 169.74 218.94 169.65 219.66C172.1 219.75 174.42 220.62 176.58 218.97C176.79 218.81 177.4 218.79 177.47 218.92C178.59 220.79 180.39 219.83 181.81 219.84C208.75 219.91 235.7 219.89 262.64 219.89C264.1 219.89 265.56 219.93 267.02 219.96C267.02 220.44 267.02 220.93 267.02 221.41C265.56 221.43 264.1 221.48 262.64 221.48C232.62 221.48 202.61 221.48 172.59 221.48H168.27V235.69C169.02 235.74 169.54 235.85 170.05 235.81C175.78 235.3 181.51 234.68 187.25 234.3C188.9 234.19 190.59 235.03 192.26 234.99C196.33 234.88 200.44 235.67 204.46 234.3C205.41 233.98 206.63 234.04 207.62 234.3C211.78 235.41 215.9 235.43 220.05 234.3C220.79 234.1 221.75 234.03 222.4 234.34C223.81 235.01 225.03 234.84 226.54 234.63C228.83 234.32 231.24 234.89 233.61 234.99C234.37 235.02 235.14 234.62 235.91 234.61C238.78 234.56 241.66 234.55 244.53 234.59C245.3 234.6 246.22 235.19 246.79 234.92C248.62 234.04 250.22 234.34 252.09 234.89C253.68 235.36 255.52 235.06 257.24 234.96C259.71 234.81 262.18 234.52 264.64 234.29C264.35 239.54 264.49 244.85 263.63 250.01C262.93 254.24 263.34 258.42 262.92 262.58C262.31 268.78 261.39 274.95 260.61 281.14C260.58 281.4 260.57 281.67 260.58 281.94C260.75 287.85 259.88 293.67 258.99 299.49C258.89 300.13 258.98 300.81 258.98 301.75C257.9 301.83 256.89 301.98 255.89 301.98C249.08 302.01 242.5 303.66 235.85 304.78C233.3 305.21 230.74 305.63 228.17 305.95C226.65 306.15 225.8 305.52 225.45 303.84C223.46 294.4 221 285.09 218.11 275.88C216.33 270.2 214.18 264.76 210.87 259.79C210.37 259.03 210.44 257.89 210.16 256.53C217.01 255.33 223.48 254.2 229.91 253.08C230.57 252.12 231.22 251.17 232.04 249.97C231.45 249.5 230.87 248.64 230.3 248.65C227.31 248.69 224.36 248.45 221.31 249.23C215.7 250.68 209.91 251.44 204.21 252.56C200.29 253.33 196.39 254.2 192.48 255.03C190.21 255.51 187.97 256.14 185.68 256.46C182.71 256.88 179.7 257.05 176.71 257.33C173.59 257.62 170.46 257.91 167.34 258.2L167.31 258.24Z" fill="#F1BA91"/>
<path d="M167.39 26.1001C168.67 26.3701 169.96 26.6401 171.24 26.9101C173.09 28.2701 175.63 28.6801 176.85 30.9201C178.07 31.9001 179.29 32.8801 180.59 33.9201C180.37 34.8801 180.16 35.8201 179.91 36.8901C180.41 36.8001 180.69 36.8401 180.82 36.7201C182.98 34.6801 185.05 32.5201 187.33 30.6201C188 30.0601 189.29 30.2401 190.29 30.0901C192.75 30.9201 195.28 31.6001 197.66 32.6301C200.32 33.7801 202.14 36.4401 205.26 36.9501C205.74 37.0301 205.83 38.6202 206.38 39.2802C207.03 40.0702 207.94 41.1001 208.79 41.1701C211.12 41.3401 212.51 42.9501 214.24 44.0401C215.34 44.7401 216.45 45.4301 217.55 46.1301C218.32 47.0501 219.77 48.0301 219.69 48.8601C219.59 49.8101 218.06 50.5501 217.29 51.5001C216.48 52.5001 215.59 53.5501 215.16 54.7301C213.96 57.9801 212.81 61.2701 211.98 64.6301C211.15 67.9901 212.3 70.7901 215.17 72.9101C217.31 74.4901 217.26 75.2301 215.23 76.6801C208.28 81.6501 201.33 86.6101 194.34 91.5201C193.12 92.3801 192.19 93.1301 191.9 94.8001C191.34 97.9101 187.23 99.1001 184.92 96.8201C181.59 93.5301 178.48 90.0201 175.18 86.6901C172.77 84.2601 170.21 81.9901 167.4 79.9301C170.32 84.3201 174.92 87.4401 177.18 92.8601C173.79 92.9701 171.01 93.7501 168.41 95.3101C167.25 96.0101 165.89 95.6101 164.88 94.4101C161.59 90.5101 157.82 86.9401 155.05 82.7001C153.25 79.9301 152.88 76.2402 151.97 73.2802C153.59 71.9402 154.88 70.9401 156.09 69.8701C157.63 68.5101 158.74 69.0401 159.94 70.9801V67.9101C159.38 67.5501 158.87 66.9901 158.26 66.8501C155.74 66.2701 153.19 65.8901 150.67 65.3101C148.15 64.7301 146.52 63.3801 146.41 60.4901C146.38 59.6601 145.44 58.8601 144.91 58.0501C144.38 56.6301 143.84 55.2001 143.44 54.1201C144.59 52.2701 145.53 50.7601 146.47 49.2501C146.74 49.0001 147.01 48.7401 147.29 48.4901C147.97 46.3201 149.4 44.0801 149.18 42.0101C148.63 36.9901 152.46 34.8301 155.03 31.9301C156.41 30.3801 158.37 29.0901 160.69 28.8601C161.9 25.4701 164.83 26.2501 167.38 26.1001H167.39ZM195.93 47.6601C195.79 45.6201 193.87 45.5101 192.62 44.8501C190.94 43.9601 190.52 44.3501 189.6 46.8501C187.51 50.4101 184.56 53.6001 184.71 58.1301C183.55 61.1701 183.73 61.3001 185.6 62.8801C187.39 64.3901 189.71 64.3101 191.58 65.3701C194.22 66.8601 197.06 67.0301 199.93 66.7601C201.01 66.6601 202.27 66.1901 203.02 65.4601C204.5 64.0201 205.69 62.2701 207.28 60.3101C205.4 57.8901 203.43 55.2901 201.36 52.7701C201.1 52.4601 200.32 52.5801 199.78 52.5001C198.5 50.8901 197.21 49.2701 195.93 47.6601ZM188.4 78.5201C187.787 75.6068 186.503 74.2634 184.55 74.4901C185.8 75.8001 186.9 76.9501 188.4 78.5201Z" fill="#F1BA91"/>
<path d="M385.81 175.93C382.44 176.25 379.32 176.97 376.29 176.71C373.99 176.51 371.63 177.26 369.33 176.21C368.6 175.88 367.41 176.69 366.42 176.81C365.63 176.9 364.81 176.67 364 176.67C361.26 176.69 358.53 177.4 355.81 176.22C354.91 175.83 353.64 175.82 352.68 176.1C347.47 177.64 342.13 176.94 336.93 176.66C333.96 176.5 331.09 176.88 328.18 176.88C283.91 176.83 239.65 176.85 195.38 176.82C193.85 176.82 192.32 176.26 190.78 176.21C189.8 176.18 188.8 176.85 187.83 176.79C182.32 176.47 176.74 177.69 171.27 176.11C170.29 175.83 169.15 175.99 168.09 176.08C165.76 176.29 163.43 176.86 161.11 176.78C156.75 176.62 152.43 176.37 148.04 176.73C144.74 177 141.36 176.29 137.73 176C137.73 173.25 137.77 170.76 137.72 168.26C137.68 166.4 138.54 165.52 140.37 165.69C142.31 165.87 144.24 166.15 146.18 166.34C147.23 166.44 148.29 166.47 149.34 166.47C162.9 166.47 176.46 166.49 190.02 166.45C191.3 166.45 192.57 166.08 193.85 165.88C194.23 165.82 194.65 165.62 194.98 165.71C200.97 167.35 207.08 166.4 213.12 166.41C249.41 166.52 285.7 166.48 321.99 166.43C324.05 166.43 326.1 166.82 328.22 165.83C329.26 165.34 330.94 166.42 332.33 166.43C346.69 166.48 361.04 166.5 375.4 166.43C377.99 166.42 380.58 165.91 383.18 165.68C385.02 165.52 385.86 166.41 385.82 168.26C385.77 170.65 385.81 173.04 385.81 175.91V175.93Z" fill="#FBECD1"/>
<path d="M264.63 234.32C262.16 234.55 259.7 234.83 257.23 234.99C255.51 235.1 253.67 235.39 252.08 234.92C250.21 234.37 248.61 234.06 246.78 234.95C246.21 235.22 245.29 234.63 244.52 234.62C241.65 234.58 238.77 234.58 235.9 234.64C235.13 234.65 234.36 235.06 233.6 235.02C231.24 234.92 228.83 234.35 226.53 234.66C225.02 234.87 223.8 235.04 222.39 234.37C221.74 234.06 220.78 234.13 220.04 234.33C215.88 235.45 211.77 235.44 207.61 234.33C206.62 234.06 205.4 234 204.45 234.33C200.43 235.69 196.31 234.9 192.25 235.02C190.59 235.07 188.89 234.22 187.24 234.33C181.5 234.71 175.77 235.33 170.04 235.84C169.53 235.89 169.01 235.78 168.26 235.72V221.51H172.58C202.6 221.51 232.61 221.51 262.63 221.51C264.09 221.51 265.55 221.47 267.01 221.44C293.33 221.46 319.65 221.52 345.98 221.46C348.37 221.46 350.72 222.12 353.17 221.57C354.79 221.21 355.51 222.38 355.49 223.99C355.46 227.29 355.49 230.58 355.49 234.27C354.11 234.27 352.95 234.28 351.8 234.27C347.68 234.22 343.6 234.76 339.44 234.36C335.22 233.96 330.94 234.2 326.69 234.3C323.96 234.36 321.21 235.03 318.52 234.8C314.09 234.42 309.61 236.07 305.22 234.35C304.41 234.03 303.36 234.17 302.45 234.3C296.87 235.12 291.29 233.97 285.71 234.3C284.04 234.4 282.38 234.91 280.71 234.98C278.61 235.07 276.49 234.92 274.39 234.82C274.04 234.8 273.57 234.24 273.38 234.34C270.45 235.9 267.53 233.84 264.62 234.34L264.63 234.32Z" fill="#DDEEEC"/>
<path d="M367.53 382.7C363.49 382.25 360.14 381.88 356.47 381.47C356.42 380.45 356.3 379.31 356.3 378.17C356.3 341.77 356.27 305.38 356.32 268.98C356.32 264.34 356.22 259.7 356.28 255.06C356.33 250.28 356.21 245.49 356.34 240.72C356.38 239.14 356.98 237.57 357.46 235.36C356.52 234.51 356.23 232.7 356.25 230.67C356.35 223.37 356.25 216.06 356.31 208.75C356.33 206.28 356.41 203.85 356.92 201.34C357.47 198.62 356.67 195.64 356.7 192.78C356.73 189.97 357.05 187.17 357.3 184.37C357.39 183.35 357.91 182.34 357.85 181.34C357.69 178.54 359.27 178.2 361.39 178.46C363.82 178.75 366.23 179.21 369.06 179.66C369.06 183.15 369.21 186.83 369 190.5C368.89 192.5 369.11 194.47 369.05 196.46C368.99 198.45 368.61 200.42 369.03 202.42C369.19 203.18 369.08 204.01 369.05 204.81C368.73 213.63 369.82 222.5 368.27 231.29C369.4 233.56 369.06 235.93 368.75 238.31C368.56 239.8 368.03 241.39 368.34 242.78C368.95 245.49 367.94 248.17 368.36 250.72C368.95 254.24 368.23 257.63 368.24 261.08C368.27 271.84 368.21 282.6 368.28 293.36C368.29 295.15 368.78 296.94 369 298.74C369.08 299.4 369.22 300.14 369.01 300.72C367.6 304.58 368.37 308.56 368.28 312.48C368.15 318.45 368.18 324.44 368.28 330.41C368.31 332.34 368.77 334.26 369 336.18C369.06 336.7 369.2 337.33 369 337.76C367.63 340.54 368.31 343.48 368.29 346.34C368.2 356.7 368.29 367.06 368.23 377.42C368.23 379.04 367.81 380.66 367.53 382.71V382.7Z" fill="#DDEEEC"/>
<path d="M154.39 195.91C154.81 201.51 154.34 207.11 154.42 212.71C153.1 214.34 151.78 215.96 150.46 217.59C149.85 218.06 149.03 218.4 148.66 219.01C144.43 225.98 139.96 232.83 136.21 240.04C133.54 245.16 131.87 250.79 129.75 256.2C129.42 257.04 129.08 257.87 128.68 258.87C108.99 259.29 89.37 259.07 70.11 254.68C69.6 253.21 70.2803 252.63 71.4503 252.23C74.0503 251.34 76.2604 249.91 77.9904 247.71C78.4704 247.1 79.5001 246.93 80.2301 246.49C81.8201 245.53 83.4403 244.6 84.9503 243.52C86.4303 242.46 87.7201 241.12 89.2301 240.11C90.9301 238.98 92.8302 238.16 94.5802 237.09C96.4602 235.95 98.29 234.71 100.11 233.47C107.09 228.69 114.1 223.94 121.02 219.07C124.02 216.96 126.82 214.56 129.76 212.35C132.72 210.12 135.68 207.9 138.74 205.8C139.85 205.04 141.41 204.91 142.44 204.08C146.23 201.05 150.13 198.22 154.4 195.91H154.39Z" fill="#5EB9B6"/>
<path d="M8.0803 380.15C6.7503 376.96 8.72036 374.69 9.64036 372.46C13.1004 364.1 16.9802 355.9 20.7302 347.66C22.7402 343.24 24.8901 338.89 26.8601 334.46C30.4401 326.4 33.9804 318.33 37.4304 310.22C39.8804 304.46 42.2 298.64 44.51 292.81C45.36 290.68 46.3701 288.51 46.6301 286.28C46.8401 284.45 46.2204 282.45 45.6404 280.63C44.4404 276.86 43.1004 273.13 41.6604 269.44C39.4904 263.87 36.9504 258.45 34.3904 253.04C33.2704 250.67 31.73 248.64 30.57 246.35C29.41 244.06 28.1702 241.8 27.0202 239.5C25.3702 236.19 25.4804 235.74 28.6604 233.64C30.6604 232.32 32.5503 230.59 35.3703 231.19C35.4603 231.65 35.7103 232.1 35.5803 232.37C34.0303 235.56 35.4602 238.46 36.7102 241.17C39.7102 247.65 43.1804 253.91 46.1604 260.4C49.5604 267.77 53.1801 275.16 52.3401 283.67C52.1901 285.2 51.8 286.71 51.57 288.24C50.72 293.83 49.67 299.39 47.57 304.67C44.49 312.39 41.3604 320.09 38.2004 327.78C36.0604 332.98 33.9203 338.19 31.6203 343.32C29.5803 347.84 28.22 352.68 25.3 356.81C24.51 357.93 24.2501 359.4 23.6701 360.68C21.0101 366.6 18.2901 372.5 15.6701 378.45C15.1801 379.57 14.5801 380.16 13.3601 380.15C11.6401 380.13 9.93028 380.15 8.06028 380.15H8.0803Z" fill="#DDEEEC"/>
<path d="M285.71 370.05C287.28 369.96 288.89 369.86 290.7 369.75V375.19H283.97C283.78 374.47 283.61 373.86 283.48 373.35C282.79 373.76 282.11 374.5 281.42 374.51C272.25 374.59 263.06 374.9 253.92 374.37C250.68 374.18 247.4 373.8 244.13 373.81C241.8 373.82 239.47 374.25 237.15 374.55C234.39 374.91 233.62 374.24 233.71 371.5C233.72 371.08 233.64 370.65 233.52 370.25C233.26 369.41 232.56 368.5 232.72 367.77C233.65 363.49 232.31 359.27 232.62 355.01C232.85 351.87 232.99 351.51 236.5 350.38C236.58 349.05 236.67 347.64 236.78 345.94C243.28 345.56 249.67 345.19 256.03 344.81C256.55 346.54 257.09 347.84 257.32 349.2C257.64 351.05 258.44 352.25 260.4 352.53C260.89 352.6 261.53 352.83 261.76 353.2C263.55 356.02 266.81 356.34 269.38 357.83C271.96 359.32 274.47 360.93 276.96 362.54C279.34 364.08 281.75 365.61 283.98 367.35C284.81 368 285.2 369.22 285.69 370.03L285.71 370.05Z" fill="#D98FB7"/>
<path d="M318.75 152.93C321.07 157.02 319.31 161.96 313.05 162.43C304.66 163.07 296.24 163.38 287.83 163.74C284.17 163.9 280.49 163.85 276.82 163.83C276.19 163.83 275.56 163.51 274.93 163.34C274.14 162.95 269.6 161.72 268.78 161.69C266.15 161.61 263.52 161.58 260.89 161.44C258.42 161.31 255.87 161.39 253.5 160.79C251.18 160.21 248.46 161.54 246.5 159.32C246.39 159.19 245.96 159.23 245.73 159.32C241.75 160.91 237.55 158.51 233.52 160.03C232.35 160.47 230.93 160.22 229.63 160.39C228.3 160.56 227.28 160.09 226.2 159.38C226.77 158.74 227.11 158.35 227.7 157.68H224.93C224.18 155.19 223.38 152.7 224.14 149.85C225.99 149.85 228.1 149.35 229.78 149.98C231.77 150.73 233.73 148.5 235.62 150.39C235.99 150.76 237.54 149.69 238.47 149.82C246.19 150.93 253.96 150.32 261.7 150.53C267.48 150.69 273.28 150.8 279.01 151.43C281.34 151.68 283.52 152.46 285.77 151.31C291.88 153.28 298.35 150.94 304.49 152.84C305.58 153.18 306.87 152.9 308.06 152.91C311.64 152.93 315.23 152.95 318.81 152.98L318.73 152.92L318.75 152.93Z" fill="white"/>
<path d="M318.83 152.99C318.18 152.7 317.54 152.19 316.89 152.17C313.98 152.08 311.07 152.13 308.13 152.13C306.6 149.15 308.66 147.32 310.03 145.4C313.41 140.64 318.03 137.08 322.32 133.25C323.93 131.81 326.48 131.32 328.69 130.71C329.28 130.55 330.42 131.36 330.9 132.02C332.05 133.58 333.05 135.28 333.94 137C335.93 140.84 338.44 143.45 343.32 143.5C346.6 143.53 349.95 144.45 353.1 145.77C358.34 147.96 363.66 149.99 369.2 152.18C368.95 153.77 368.86 155.05 368.52 156.26C368.17 157.49 367.56 158.64 367.01 159.97H324.07C323.53 157.52 322.99 155.04 322.42 152.48C320.95 152.67 319.85 152.8 318.75 152.94L318.83 153V152.99Z" fill="#D93933"/>
<path d="M248.69 110.7C250.84 108.62 253.31 108.68 255.95 109.55C257.65 110.11 259.39 110.52 261.22 111.02C261.85 113.34 259.91 113.42 258.57 113.8C256.98 114.26 255.31 114.45 253.69 114.75C252.66 117.37 254.78 117.97 256.17 118.4C259.74 119.51 261.53 122.35 263.42 125.12C263.74 125.59 263.66 126.34 263.77 126.97C261.283 127.37 257.953 126.49 253.78 124.33C252.13 126.58 253.92 129.02 253.39 131.32C252.87 133.58 252.59 135.9 252.16 138.46C250.66 138.79 249.55 138 248.56 136.74C247.02 134.8 245.54 132.79 243.81 131.03C241.5 128.68 240.85 128.87 237.86 130.4C230.09 134.37 222.26 138.23 214.4 142.04C211.85 143.28 211.04 142.68 210.28 139.98C209.18 136.03 207.89 132.13 206.72 128.2C206.46 127.34 206.36 126.43 206.17 125.43C210.3 124.74 214.24 124.1 218.16 123.4C224 122.36 229.84 121.29 235.66 120.18C236.4 120.04 237.19 119.73 237.77 119.27C239.57 117.81 241.29 116.24 243.04 114.71L243.86 113.91C245.56 113.72 247.78 114.4 247.85 111.51C248.13 111.24 248.4 110.97 248.68 110.69L248.69 110.7Z" fill="#F1BA91"/>
<path d="M155.24 268.45V280.23C154.63 280.02 154.13 279.97 153.79 279.71C150.55 277.24 146.85 275.67 143.04 274.39C140.72 273.61 138.33 273.02 135.93 272.55C131.62 271.71 127.29 270.99 122.96 270.3C121.76 270.11 120.51 270.16 119.29 270.1C118.79 269.85 118.29 269.39 117.79 269.38C115.43 269.31 113.06 269.38 110.69 269.38C109.3 269.35 107.92 269.33 106.53 269.3C105.89 269.05 105.26 268.58 104.62 268.57C100.53 268.52 96.4298 268.57 92.3398 268.57C88.6498 268.56 84.8698 268.02 81.2998 268.66C76.5798 269.52 71.9 269.18 67.21 269.28C65.97 269.31 64.71 268.77 63.46 268.49C63.2 267.8 62.8702 267.13 62.6802 266.43C62.3302 265.14 62.0502 263.82 61.6602 262.16C63.2902 262.16 64.4298 261.88 65.3398 262.21C69.0798 263.54 72.9102 262.87 76.7002 262.92C85.0602 263.03 93.42 262.85 101.77 262.98C109.93 263.11 118.17 262.85 126.22 263.93C133.99 264.97 141.97 264.98 149.52 267.65C151.3 268.28 153.32 268.2 155.23 268.45H155.24Z" fill="#FBECD1"/>
<path d="M150.46 217.58C151.78 215.95 153.1 214.33 154.42 212.7C154.44 216.8 154.22 220.92 154.54 225C154.85 228.92 154.64 232.81 154.57 236.71C154.5 240.45 154.44 244.25 155.04 247.91C155.7 251.92 153.88 255.88 155.2 259.82C150.76 259.95 146.29 259.19 141.87 260.47C140.4 260.89 138.71 260.5 137.12 260.55C135.27 260.6 134.62 259.73 134.49 257.92C134.26 254.44 135.19 251.16 136.43 248.09C138.44 243.11 141.01 238.36 143.28 233.49C144.68 230.49 145.91 227.41 147.3 224.41C147.94 223.03 148.86 221.78 149.52 220.4C149.95 219.51 150.15 218.51 150.45 217.57L150.46 217.58Z" fill="#F1BA91"/>
<path d="M217.57 46.1302C216.47 45.4402 215.36 44.7402 214.26 44.0402C212.53 42.9402 211.13 41.3402 208.81 41.1702C207.95 41.1102 207.04 40.0702 206.4 39.2802C205.85 38.6102 205.76 37.0302 205.28 36.9502C202.16 36.4302 200.34 33.7802 197.68 32.6302C195.3 31.6002 192.77 30.9202 190.31 30.0902C190.23 28.6802 190.77 27.6102 191.84 26.6702C194.74 24.1302 197.54 21.4902 200.45 18.9702C200.98 18.5102 202 18.0402 202.52 18.2602C206.11 19.7402 209.99 18.7902 213.61 19.7902C214.59 20.0602 215.54 20.4302 216.56 20.7702C216.64 21.9102 216.71 22.9502 216.78 23.9802C217.84 24.6302 218.82 25.4902 219.96 25.8902C221.99 26.6102 223.81 27.4402 224.5 29.7002C225.35 32.4502 225.96 35.1902 225.12 38.1002C224.7 39.5802 224.78 41.2002 224.37 42.6802C224 44.0102 223.25 45.2302 222.44 46.9902C221.01 46.7402 219.29 46.4302 217.57 46.1302Z" fill="#D98FB7"/>
<path d="M21.2996 134.73C23.5896 134.31 25.7196 133.93 28.0496 133.5C30.3296 142.23 32.5797 150.61 34.6897 159.03C35.2197 161.15 35.3496 163.38 35.6096 165.57C35.8796 167.88 37.1197 169.85 37.3997 172.26C37.9497 176.95 38.7396 181.8 40.5696 186.1C42.7196 191.14 42.6698 196.63 44.7698 201.61C46.0098 204.54 45.2296 205.9 42.6096 206.86C41.0496 207.43 39.8996 206.95 39.6296 205.4C38.8196 200.71 37.0999 196.28 35.8699 191.72C34.5999 187.02 33.6899 182.23 32.3499 177.56C31.0099 172.9 28.78 168.43 27.97 163.7C27.23 159.37 25.3798 155.4 25.0198 150.9C24.6198 146 22.5896 141.24 21.2996 136.42C21.1996 136.05 21.2898 135.63 21.2898 134.72L21.2996 134.73Z" fill="#FBECD1"/>
<path d="M274.51 385.58V377.77C279.26 378.12 284.09 377.01 288.9 378.48C289.93 378.79 291 378.6 291.21 379.99C291.97 379.51 292.67 378.87 293.5 378.61C294.22 378.38 295.09 378.5 295.87 378.61C297.4 378.81 298.92 379.11 300.45 379.35C302.48 379.67 304.51 379.97 306.83 380.32C306.83 380.91 306.86 381.41 306.83 381.9C306.65 384.62 306.45 384.89 303.87 384.92C299.09 384.97 294.3 384.83 289.52 384.97C285.2 385.09 280.89 385.49 276.57 385.72C275.8 385.76 275.03 385.62 274.52 385.58H274.51Z" fill="white"/>
<path d="M229.67 318.82C229.29 317.04 228.87 315.57 228.69 314.06C228.5 312.47 229.32 311.7 230.99 311.56C236.57 311.1 242.14 310.54 247.71 309.98C251.06 309.65 254.41 309.26 258.26 308.84C257.88 311.04 257.79 312.68 257.25 314.17C257.02 314.81 255.85 315.53 255.13 315.5C249.85 315.31 244.88 316.8 239.81 317.87C236.64 318.54 233.33 318.5 229.66 318.81L229.67 318.82Z" fill="white"/>
<path d="M256.73 320.57C256.27 322.49 255.88 324.08 255.53 325.52C250.96 326.2 246.35 326.41 242.06 327.71C239.64 328.44 237.14 328.88 234.75 329.73C233.21 330.28 232.16 329.73 231.87 328.08C231.49 325.94 231.19 323.79 230.83 321.45C231.68 321.31 232.17 321.16 232.66 321.17C238.95 321.26 245.17 320.66 251.39 319.66C253.04 319.39 254.86 320.22 256.73 320.57Z" fill="white"/>
<path d="M239 380.91C239.84 382.57 241.35 381.69 242.51 381.7C252.32 381.78 262.14 381.74 272.19 381.74C272.65 382.88 273.1 384.03 273.69 385.51C272.26 385.6 271.24 385.71 270.23 385.72C261.6 385.73 252.98 385.69 244.35 385.76C242.69 385.77 241.05 386.36 239.39 386.41C238.3 386.44 237.19 385.96 235.99 385.68V381.02H239.13L239 380.91Z" fill="white"/>
<path d="M239.13 381.03C238.76 380.74 238.42 380.28 238.01 380.19C235.17 379.59 235.16 379.61 235.36 376.16C237.39 376.43 239.39 376.86 241.41 376.93C244.86 377.06 248.32 376.86 251.76 376.99C258.57 377.24 265.38 377.62 272.36 377.96V380.95C270.91 380.95 269.49 380.95 268.07 380.95C260.64 380.95 253.2 380.94 245.77 380.95C243.52 380.95 241.26 380.47 239.01 380.91L239.14 381.02L239.13 381.03Z" fill="white"/>
<path d="M248.69 110.7C248.41 110.97 248.14 111.24 247.86 111.52C247.58 111.45 247.3 111.39 247.02 111.32C244.97 110.05 242.92 108.78 240.87 107.51C239.64 106.18 238.32 104.91 237.21 103.49C236.04 102.01 235.08 100.37 234.05 98.8403C236.17 97.0603 238.26 96.9303 240.11 98.6003C242.45 100.72 244.62 103.03 246.81 105.31C248.25 106.8 248.91 108.61 248.7 110.7H248.69Z" fill="#016DB0"/>
<path d="M307.47 377.93C305.79 377.67 304.16 377.43 302.54 377.17C300.51 376.84 298.49 376.45 296.45 376.18C293.67 375.82 291.8 373.42 292.55 370.77C292.75 370.07 293.62 369.22 294.33 369.06C299.06 368 305.7 371.69 307.59 376.32C307.72 376.63 307.54 377.07 307.46 377.93H307.47Z" fill="white"/>
<path d="M224.94 157.7H227.71C227.12 158.37 226.78 158.75 226.21 159.4C227.29 160.1 228.31 160.58 229.64 160.41C230.93 160.24 232.35 160.49 233.53 160.05C237.56 158.53 241.76 160.94 245.74 159.34C245.97 159.25 246.39 159.21 246.51 159.34C248.47 161.56 251.19 160.22 253.51 160.81C255.88 161.41 258.42 161.33 260.9 161.46C263.53 161.6 266.16 161.62 268.79 161.71C269.61 161.74 274.15 162.97 274.94 163.36C267.23 162.89 259.53 162.36 251.81 161.99C246.5 161.74 241.13 162.12 235.88 161.44C232.56 161.01 229.43 161.71 225.76 161.77C225.48 160.41 225.21 159.06 224.94 157.71V157.7Z" fill="#F8F8F8"/>
<path d="M261.96 130.35C266.73 130.05 268.33 131.06 270.19 134.4C271.03 135.92 272.54 137.07 273.76 138.37C274.2 138.84 274.93 139.18 275.11 139.72C275.36 140.47 275.22 141.36 275.24 142.19C274.52 142.13 273.56 142.33 273.12 141.95C270.46 139.64 267.86 137.26 265.38 134.77C264.14 133.53 263.2 131.99 261.96 130.36V130.35Z" fill="#EFEFEF"/>
<path d="M167.39 26.1002C164.84 26.2502 161.91 25.4702 160.7 28.8602C158.38 29.0902 156.42 30.3802 155.04 31.9302C152.47 34.8202 148.64 36.9802 149.19 42.0102C149.42 44.0802 147.98 46.3302 147.3 48.4902C147.35 47.0502 147.3 45.5902 147.48 44.1702C147.92 40.5802 148.46 37.0002 148.95 33.4202C151.35 32.6102 154.23 32.5203 154.74 29.0303C154.82 28.5003 156.38 27.9803 157.32 27.8403C158.72 27.6303 160.32 28.0602 160.81 26.1002C163 23.4702 165.19 25.2402 167.37 26.1202L167.39 26.1002Z" fill="#EBB58D"/>
<path d="M321.31 121.96C323.58 121.56 325.69 121.19 328.13 120.77V128.77C327.23 129.12 326.19 129.53 324.92 130.04C323.98 127.25 320.83 125.81 321.31 121.97V121.96Z" fill="#D93933"/>
<path d="M240.87 107.51C242.92 108.78 244.97 110.05 247.02 111.32C246.15 111.38 245.29 111.45 244.43 111.51C244.24 112.35 244.06 113.13 243.88 113.92C243.61 114.19 243.33 114.46 243.06 114.72C240.57 115.14 239.56 112.76 237.64 111.91V107.68C238.84 107.61 239.86 107.56 240.88 107.5L240.87 107.51Z" fill="#0165A3"/>
<path d="M146.49 49.2401C145.55 50.7501 144.62 52.2501 143.46 54.1101C143.86 55.1901 144.4 56.6201 144.93 58.0401C145.15 59.4201 145.37 60.8001 145.59 62.1801C143.48 60.8601 142.53 58.7101 141.61 56.5501C142.43 54.6401 143.25 52.7301 144.07 50.8201C144.87 49.7501 145.66 48.6701 146.46 47.6001C146.47 48.1501 146.48 48.7001 146.5 49.2501L146.49 49.2401Z" fill="#906F57"/>
<path d="M146.49 49.2401C146.48 48.6901 146.47 48.1401 146.45 47.5901C146.42 46.3401 146.42 45.0901 146.36 43.8401C146.26 41.6501 146.13 39.4601 146 36.8901C147.75 36.3201 147.76 34.0701 148.9 32.5601C148.92 32.8401 148.94 33.1201 148.96 33.4001C148.46 36.9801 147.92 40.5601 147.49 44.1501C147.32 45.5801 147.36 47.03 147.31 48.47C147.04 48.72 146.77 48.98 146.49 49.23V49.2401Z" fill="#A37E63"/>
<path d="M145.59 62.1801C145.37 60.8001 145.15 59.42 144.93 58.04C145.45 58.85 146.4 59.65 146.43 60.48C146.53 63.37 148.16 64.72 150.69 65.3C153.21 65.88 155.76 66.2601 158.28 66.8401C158.89 66.9801 159.4 67.5401 159.96 67.9001C156.73 67.5001 153.45 67.33 150.3 66.61C148.09 66.1 146.34 64.5301 145.6 62.1801H145.59Z" fill="#D1A17E"/>
<path d="M167.28 286.95C167.28 283.7 167.28 280.46 167.28 277.21C169.45 279.19 169.86 281.71 169.66 284.5C169.54 286.11 168.83 286.87 167.28 286.94V286.95Z" fill="#FBECD1"/>
<path d="M148.96 33.41C148.94 33.13 148.92 32.8501 148.9 32.5701C149.87 32.2101 150.84 31.84 151.81 31.48C152.53 28.22 153.77 27.1301 156.97 26.7801C158.27 26.6401 159.54 26.3201 160.83 26.0801C160.34 28.0401 158.74 27.6101 157.34 27.8201C156.4 27.9601 154.84 28.4801 154.76 29.0101C154.24 32.5001 151.37 32.5901 148.97 33.4001L148.96 33.41Z" fill="#BA8F70"/>
<path d="M144.07 50.8203C143.25 52.7303 142.43 54.6403 141.61 56.5503C141.3 55.1503 140.99 53.7403 140.64 52.1303C142 51.6103 143.03 51.2203 144.07 50.8203Z" fill="#574435"/>
<path d="M176.85 30.9202C175.63 28.6702 173.09 28.2702 171.24 26.9102C175.45 27.2002 176.33 27.8202 176.85 30.9202Z" fill="#B28A6C"/>
<path d="M184.72 58.1301C184.57 53.6001 187.52 50.4101 189.61 46.8501C191.72 47.1201 193.83 47.3901 195.94 47.6601C197.22 49.2701 198.51 50.8901 199.79 52.5001C200.72 54.0201 201.57 55.5901 202.6 57.0401C203.61 58.4701 203.07 59.3701 201.95 60.3901C200.41 61.7901 199.01 63.3401 197.14 65.2401C194.45 65.1501 191.35 64.1001 188.22 62.9201C185.85 62.0301 184.67 60.6201 184.72 58.1301Z" fill="white"/>
<path d="M243.88 113.92C244.06 113.13 244.24 112.35 244.43 111.51C245.29 111.45 246.15 111.38 247.02 111.32C247.3 111.39 247.58 111.45 247.86 111.52C247.8 114.42 245.57 113.73 243.87 113.92H243.88Z" fill="#010B11"/>
<path d="M267.62 238.38C267.34 244.01 267.06 249.67 266.78 255.32C266.46 261.77 266.22 268.23 265.81 274.67C265.24 283.59 264.56 292.51 263.88 301.43C263.7 303.79 263.41 306.15 263.11 308.51C262.15 316.03 261.13 323.55 260.21 331.08C259.94 333.25 260 335.46 259.8 337.64C259.68 338.94 259.68 340.43 259.04 341.46C257.99 343.13 257.94 344.23 259.49 345.56C260.06 346.05 260.18 347.17 260.3 348.03C260.95 352.52 263.2 353.77 267.24 351.82C267.55 351.67 267.96 351.72 268.8 351.62C268.03 352.76 267.49 353.56 266.85 354.51C268.42 355.73 269.77 357.53 272.27 356.9C273.07 359.02 274.42 360.09 276.56 359.05C277.11 360.13 277.32 361.35 278.02 361.77C280.97 363.53 284.02 365.12 287.11 366.63C289.68 367.89 292.27 368.13 295.16 367.18C301.12 365.23 306.48 367.7 308.95 373.21C309.83 375.17 310.39 377.22 309.2 379.32C308.88 379.89 308.7 380.55 308.58 381.2C307.48 387.08 307.49 387.11 301.55 387.33C291.22 387.72 280.89 388.21 270.56 388.39C259.99 388.58 249.41 388.51 238.83 388.42C234.62 388.39 233.86 387.63 233.04 383.6C232.75 382.17 232.66 380.7 232.5 379.25C232.43 378.59 232.68 377.73 232.34 377.3C228.73 372.71 230.2 367.29 229.89 362.2C229.62 357.74 230.27 353.21 229.8 348.78C229.26 343.62 228.02 338.52 226.94 333.43C225.05 324.49 223.22 315.54 221.05 306.67C217.52 292.3 213.73 277.99 210.07 263.65C209.62 261.87 209.31 260.05 208.89 258.02C195.63 259.99 182.47 261.94 168.9 263.95C169.19 269.18 167.93 274.38 170.86 279.4C173.05 283.16 172.4 285.11 169.75 288.29C169.03 289.15 168.91 290.64 168.81 291.87C168.04 301.73 170.09 311.33 171.43 321.03C173.27 334.4 174.75 347.83 176.07 361.26C176.74 368.08 176.73 374.96 176.98 381.82C177.02 382.95 176.82 384.08 176.69 385.69C170.36 385.69 164.43 385.72 158.5 385.67C157.19 385.66 155.87 385.43 154.59 385.12C152.97 384.73 152.31 383.72 152.34 381.92C152.58 367.64 152.8 353.36 152.86 339.08C152.89 332.21 152.5 325.34 152.39 318.47C152.36 316.5 152.94 314.47 152.67 312.55C151.97 307.68 150.53 303.12 146.42 299.82C145.34 298.95 144.76 297.45 144.03 296.18C139.93 289.08 133.82 285.11 125.75 283.56C118.13 282.1 110.46 281.95 102.8 281.94C92.2298 281.94 81.6701 282.46 71.1001 282.67C67.0001 282.75 62.9001 282.69 58.8101 282.49C57.4201 282.42 56.05 281.75 54.48 281.29C53.84 285.03 53.2398 288.86 52.5098 292.68C50.6898 302.23 46.7502 311.07 43.2202 320.04C40.2202 327.67 37.1699 335.29 33.8999 342.82C28.6799 354.82 23.24 366.72 17.96 378.7C17.13 380.59 15.9002 381.19 13.9302 381.11C10.9702 380.99 8.00012 381.08 4.37012 381.08C5.82012 377.68 6.92992 374.91 8.16992 372.2C15.1699 356.95 22.2902 341.75 29.1802 326.46C32.8602 318.29 36.3701 310.03 39.6001 301.67C41.4501 296.9 42.66 291.89 44.02 286.94C45.06 283.15 43.7101 279.55 42.3901 276.15C39.8401 269.55 37.1098 262.99 34.0698 256.6C31.8198 251.87 28.9499 247.43 26.4199 242.83C25.8499 241.8 25.4899 240.65 25.1499 239.52C23.7999 235.08 23.95 234.7 27.73 232.5C28.76 231.9 29.8501 231.42 30.8701 230.82C31.7701 230.29 32.6099 229.67 33.6499 228.97C31.8799 222.91 30.1498 216.74 28.2798 210.61C23.8898 196.24 19.3901 181.9 15.0601 167.51C14.5601 165.86 14.8402 163.97 14.7402 161.9C18.2002 161.59 21.2498 161.31 24.5698 161.01C23.0898 154.78 21.7001 149.04 20.3701 143.27C19.8401 140.95 19.38 138.62 19 136.27C18.5 133.14 20.0199 131.52 23.1899 131.48C24.9299 131.46 26.6601 131.2 29.1001 130.99C29.4701 131.65 30.4298 132.78 30.7598 134.07C33.0198 142.91 35.1698 151.78 37.3198 160.65C39.0898 167.96 40.81 175.28 42.54 182.61C42.95 184.36 43.2801 186.12 44.0601 187.92C49.9701 158.52 61.7002 131.7 78.4902 106.7C76.3002 106.7 74.3098 106.78 72.3198 106.67C70.8898 106.6 69.3898 106.51 68.0698 106.04C64.9798 104.94 63.7898 103.31 64.7998 100.23C66.5598 94.8602 68.5198 89.4703 71.0898 84.4503C80.3498 66.3903 94.4001 52.1702 108.83 38.3102C113.43 33.8902 118.56 34.2603 123.57 37.7003C128.47 33.2403 133.11 28.7002 138.08 24.5602C145.21 18.6402 152.37 12.6903 160.59 8.25025C167.74 4.39025 175.35 2.34024 183.52 3.08024C185.32 3.24024 187.15 3.92026 188.81 4.70026C193.25 6.77026 197.71 8.83026 201.96 11.2603C205.51 13.2903 205.58 15.2403 202.54 18.1403C196.71 23.7003 190.66 29.0503 184.93 34.7103C180.55 39.0303 176.17 43.4403 172.49 48.3403C170.64 50.7903 168.37 52.7702 166.5 55.1702C164.25 58.0502 162.59 61.0403 161.5 64.5103C160.41 67.9903 160.65 70.8602 163.34 73.5602C170.75 80.9702 178.03 88.5103 185.41 95.9603C187.45 98.0203 190.63 97.1203 191.39 94.0703C191.86 92.1703 192.88 91.2303 194.38 90.1903C201.54 85.2103 208.59 80.0702 216.04 74.7302C210.21 71.5202 210.45 66.7302 212.11 61.6002C213.09 58.5802 214.06 55.5502 215.22 52.6002C215.91 50.8402 216.99 49.3002 219.94 50.1202C219.2 51.9002 218.53 53.5203 217.86 55.1403C216.44 58.5603 214.8 61.9002 213.66 65.4102C212.52 68.9302 213.36 70.5503 216.51 72.6903C218.7 74.1803 219.02 75.2203 217.12 77.1403C208.91 85.4203 200.87 93.9502 190.01 98.9302C187.03 100.3 184.19 99.8903 181.55 97.7803C180.61 97.0303 179.3 96.2403 178.19 96.2803C175.34 96.3903 172.5 96.9503 169.32 97.3803C172.6 102.2 175.47 106.76 178.73 111.03C179.94 112.61 180.54 114.07 180.76 115.98C181.3 120.67 185.79 122.86 190.02 120.57C193.64 118.61 197.62 118.35 201.56 118C203.77 117.81 203.96 118.21 205.48 122.48C216.84 120.27 228.27 118.05 240.6 115.66C237.09 112.8 236.09 109.95 236.67 106.38C236.85 105.27 235.85 103.94 235.32 102.74C234.34 100.49 233.8 98.2303 234.99 95.9003C240.49 95.5803 247.94 101.5 248.5 107.43C246.92 105.86 245.43 104.21 243.75 102.76C242.01 101.25 240.09 99.9303 238.25 98.5303C237.96 98.7503 237.67 98.9803 237.38 99.2003C237.98 100.54 238.39 102.01 239.22 103.19C240.66 105.24 242.26 107.21 244.01 109C244.56 109.56 245.91 109.73 246.74 109.51C248.12 109.14 249.62 108.56 250.63 107.61C252.74 105.61 254.83 106.12 257.15 106.95C259.88 107.93 262.66 108.79 265.45 109.57C267.07 110.02 268.15 110.84 268.01 112.57C267.85 114.48 266.53 115.15 264.73 115.35C262.8 115.57 260.91 116.04 258.89 116.42C265.86 123.58 271.79 131.23 276.57 139.81C277.9 142.2 278.52 144.34 277.75 147.23C273.69 144.65 269.47 142.77 266.8 138.45C264.95 135.46 262.22 132.96 259.66 130.48C258.6 129.46 256.94 129.05 255.71 128.43C254.91 132.45 254.4 136.22 253.36 139.84C252.49 142.86 251.2 143.1 248.84 140.99C245.98 138.44 243.26 135.71 240.17 132.76C234.03 135.76 227.88 138.76 221.74 141.77C219.13 143.05 216.54 144.35 213.94 145.65C213.47 145.88 212.83 146.03 212.59 146.42C208.72 152.62 201.64 153.91 195.94 157.29C193.35 158.83 190.52 159.97 187.81 161.83H223.79C223.1 158.58 222.42 155.38 221.74 152.18C220.91 148.24 221.84 147.14 225.94 147.19C236.25 147.31 246.56 147.22 256.85 147.6C265.7 147.92 274.54 148.71 283.37 149.41C289.31 149.88 295.23 150.59 301.16 151.1C302.31 151.2 303.51 150.84 304.62 150.7C306.84 144.95 310.88 139.48 321.79 130.33C320.73 128.14 319.38 126.04 318.67 123.74C317.73 120.69 318.73 119.33 321.76 118.6C322.28 118.48 322.8 118.4 323.32 118.28C329.35 117 329.8 117.39 330.06 123.66C330.39 131.48 335.22 136.67 341.29 140.35C344.24 142.14 348.53 141.58 352.09 142.56C357.44 144.03 362.75 145.74 367.95 147.68C374.74 150.22 373.93 154.49 370.88 158.91C370.44 159.54 370.08 160.23 369.28 161.55C376.18 162.23 382.53 163.27 389.2 161.56C391.18 166.36 390.87 171.4 390.41 176.32C390.17 178.89 387.54 179.63 385.25 179.77C381.68 179.98 378.09 179.89 374.5 179.92C373.35 179.93 372.2 179.92 370.54 179.92C370.54 184.13 370.52 187.95 370.54 191.76C370.66 212.72 370.82 233.69 370.9 254.65C370.96 269.33 370.96 284.01 370.9 298.69C370.85 312.03 370.66 325.36 370.62 338.7C370.58 351.8 370.65 364.89 370.69 377.99C370.69 378.38 370.8 378.78 370.83 379.17C371.38 384.89 370.88 385.48 364.96 385.66C362.04 385.75 359.12 385.77 356.2 385.7C354.79 385.67 353.19 385.74 352.67 383.84C352.32 382.55 352.33 382.5 354.88 380.96V238.33H267.58L267.62 238.38ZM62.0698 262.91C62.2898 261.95 62.5102 261 62.6802 260.27C61.7502 258.76 60.9601 257.13 59.8501 255.76C58.7901 254.46 57.4002 253.43 56.1602 252.28C56.6202 254.98 57.5998 257.12 58.5898 259.25C58.8098 259.73 58.91 260.34 59.27 260.65C60.18 261.44 61.1999 262.1 62.1699 262.81C63.5899 267.26 65.0098 268.44 69.5498 268.4C72.8498 268.37 76.1502 267.94 79.4502 267.8C94.8202 267.15 110.12 267.96 125.41 269.59C132.54 270.35 139.48 271.84 146.25 274.18C148.28 274.88 150.22 275.82 152.35 276.71C152.53 274.95 152.73 273.78 152.77 272.6C152.9 268.86 152.86 268.94 149.03 268.17C139.43 266.24 129.78 264.91 119.97 264.72C109 264.51 98.0301 264.22 87.0601 263.87C78.7301 263.61 70.3998 263.22 62.0698 262.89V262.91ZM353.45 179.69C349.63 179.69 345.93 179.69 342.24 179.69C335.94 179.71 329.64 179.79 323.34 179.74C315.16 179.69 306.97 179.51 298.79 179.44C290.58 179.36 282.35 178.96 274.17 179.41C266.24 179.84 258.42 178.56 250.31 181.11C240.02 184.35 230.12 188.28 220.76 193.37C207.08 200.81 193.84 209.06 180.43 217C179.78 217.39 179.34 218.15 178.68 218.88H354.68C354.37 205.73 355.46 193.07 353.45 179.69ZM210.71 257.43C212.25 260.08 213.56 262.05 214.6 264.16C219 273.12 221.11 282.83 223.71 292.38C224.86 296.63 225.92 300.9 227.01 305.13C237.66 303.53 247.82 302.01 258.48 300.41C260.28 279.89 262.08 259.26 263.95 237.97H169.01V257.46C172.76 257.07 176.18 256.93 179.53 256.33C190.74 254.34 201.9 252.15 213.1 250.13C218.41 249.17 223.76 248.37 229.11 247.62C230.58 247.41 232.51 247.68 232.33 249.57C232.19 251.05 231.24 253 230.03 253.72C228.46 254.65 226.28 254.57 224.37 254.92C219.99 255.72 215.6 256.52 210.72 257.42L210.71 257.43ZM168.99 234.27C176.05 234.13 182.91 233.92 189.76 233.89C197.7 233.86 205.63 234.04 213.57 234.03C222.2 234.02 230.83 233.88 239.46 233.82C244.57 233.78 249.68 233.81 254.79 233.75C257.14 233.72 259.49 233.46 261.84 233.48C267.19 233.53 272.53 233.74 277.88 233.81C284.2 233.9 290.52 233.92 296.83 233.94C303.94 233.97 311.04 233.99 318.15 234.01C326.97 234.03 335.79 234.11 344.62 234.06C347.89 234.04 351.16 233.74 354.38 233.57V222.31H168.81C168.81 226.22 168.8 229.79 168.82 233.36C168.82 233.87 169 234.38 168.98 234.28L168.99 234.27ZM138.69 175.53C220.81 176.2 302.68 176.22 384.8 175.53V167.07H138.69V175.54V175.53ZM166.24 381.12C166.36 380.46 166.44 380.2 166.44 379.95C166.41 355.19 166.42 330.42 166.34 305.66C166.28 286.09 166.07 266.52 166.01 246.95C165.98 237.57 166.16 228.18 166.19 218.8C166.22 210.76 166.32 202.71 166.1 194.67C165.96 189.6 166.01 184.45 164.36 179.41C161.32 179.69 158.5 179.95 155.43 180.23C155.43 182.01 155.41 183.46 155.43 184.91C155.48 188.59 155.59 192.27 155.6 195.95C155.61 201.71 155.51 207.47 155.55 213.24C155.59 219.58 155.83 225.92 155.82 232.27C155.82 240 155.55 247.74 155.57 255.47C155.58 262.17 155.94 268.87 155.94 275.57C155.94 283.74 155.61 291.91 155.61 300.08C155.61 306.82 155.99 313.56 156 320.3C156.01 325.97 155.64 331.65 155.63 337.32C155.61 345.1 155.75 352.88 155.86 360.66C155.94 366.74 156.1 372.82 156.15 378.9C156.17 381.21 157.26 381.92 159.41 381.67C161.64 381.41 163.88 381.31 166.24 381.13V381.12ZM367.82 180.13C364.72 179.91 361.88 179.71 358.77 179.49C358.41 182.66 357.86 185.53 357.79 188.41C357.54 199.21 357.19 210.02 357.4 220.81C357.5 225.59 355.76 230.59 358.48 235.23C358.75 235.69 358.18 236.65 357.98 237.37C357.71 238.35 357.19 239.32 357.18 240.3C357.11 245.05 357.17 249.79 357.18 254.54C357.2 265.39 357.23 276.23 357.23 287.08C357.21 312.88 357.17 338.69 357.14 364.49C357.14 370.02 357.14 375.55 357.14 381.09C359.85 381.31 362.22 381.47 364.58 381.69C366.41 381.86 367.3 381.05 367.38 379.23C367.49 376.46 367.76 373.68 367.75 370.91C367.7 354.42 367.54 337.92 367.53 321.43C367.53 314.16 367.93 306.89 367.92 299.62C367.92 290.53 367.61 281.43 367.56 272.34C367.53 266.31 367.76 260.28 367.8 254.25C367.85 246.38 367.84 238.5 367.85 230.63C367.86 222.97 367.88 215.31 367.88 207.65C367.88 202.56 367.84 197.48 367.83 192.39C367.83 188.43 367.83 184.47 367.83 180.13H367.82ZM69.6602 254.82C78.2802 255.97 86.0599 257.44 93.8999 257.96C104.3 258.65 114.76 258.57 125.19 258.89C127.52 258.96 128.61 258.12 129.43 255.8C131.49 249.96 133.48 244 136.43 238.59C140.98 230.24 146.31 222.31 151.28 214.19C151.89 213.19 152.74 212.1 152.79 211.02C152.96 206.72 152.86 202.41 152.86 197.43C125.04 216.62 97.7999 235.42 69.6699 254.82H69.6602ZM152.25 299.65C152.55 297.67 152.79 296.78 152.79 295.9C152.81 292.19 152.75 288.48 152.75 284.77C152.75 280.59 151.56 279.07 147.77 277.22C139.52 273.2 130.48 272.5 121.67 271.29C113.32 270.14 104.79 270.27 96.3301 269.94C91.0701 269.73 85.7998 269.64 80.5298 269.65C76.0298 269.65 71.5198 269.72 67.0298 270.08C63.2498 270.38 61.1901 268.23 59.3101 265.55C58.8601 264.9 58.4999 264.19 58.1299 263.49C53.1099 253.95 49.9201 243.71 46.6201 233.51C43.8501 224.96 40.9798 216.43 38.2998 207.86C36.3198 201.55 34.6 195.17 32.71 188.83C30.17 180.33 27.5799 171.85 24.9399 163.16C21.7699 163.73 18.8499 164.25 15.8599 164.78C17.0499 169.04 17.8901 172.79 19.1401 176.4C27.1601 199.5 33.22 223.25 42.96 245.77C46.96 255.01 50.3699 264.5 54.1099 273.85C56.1199 278.86 59.0298 280.67 64.5898 280.59C67.7698 280.54 70.9701 280.65 74.1401 280.39C87.8901 279.27 101.66 278.2 115.46 279.13C123.09 279.64 130.88 280.02 137.6 284.55C141.93 287.47 145.42 291.23 148.67 295.25C149.65 296.47 150.64 297.68 152.23 299.64L152.25 299.65ZM234.33 373.72C237.49 373.43 239.84 372.98 242.17 373.03C253.85 373.29 265.52 373.68 277.2 374.05C281.92 374.2 282.58 373.77 284.58 368.49C276.44 363.5 268.26 358.32 259.88 353.48C258.08 352.44 257.05 351.35 256.57 349.48C256.24 348.22 255.87 346.97 255.43 345.41C249.33 345.89 243.33 346.37 237.33 346.84C237.5 347.11 237.66 347.37 237.83 347.64C236.86 349.08 235.83 350.48 234.94 351.97C234.36 352.93 233.58 354.03 233.6 355.06C233.73 361.18 234.06 367.29 234.34 373.72H234.33ZM225.56 160.7C256.04 161.23 286.23 161.75 316.07 162.27C317.14 160.65 318.01 159.53 318.67 158.3C319.81 156.16 318.63 153.82 316.4 153.72C308.46 153.36 300.51 153.01 292.56 152.71C288.76 152.56 284.96 152.58 281.16 152.44C266.63 151.89 252.1 151.28 237.57 150.77C233.29 150.62 229.01 150.75 224.69 150.75C225 154.28 225.26 157.24 225.56 160.71V160.7ZM14.21 379.4C17.68 371.71 20.9002 364.2 24.4102 356.84C31.6902 341.56 38.2699 326 44.3599 310.21C47.3699 302.41 49.8402 294.53 51.1602 286.29C51.9402 281.39 51.9101 276.48 49.8301 271.85C45.4901 262.21 41.0601 252.62 36.6201 243.02C35.0801 239.69 33.1 236.49 34.54 232.57C34.58 232.46 34.23 232.2 33.79 231.72C31.41 233.17 29.0098 234.63 26.2998 236.27C29.2498 241.39 32.2898 245.91 34.5698 250.78C38.3698 258.91 41.7699 267.23 45.1499 275.55C46.6899 279.33 48.0099 283.37 46.9199 287.46C45.6799 292.17 44.21 296.88 42.27 301.34C33.71 321.1 24.96 340.78 16.25 360.47C13.6 366.47 10.8602 372.45 7.91016 378.99C10.3402 379.14 12.2302 379.25 14.2002 379.37L14.21 379.4ZM169.91 179.79C169.57 184.01 169.16 187.78 168.99 191.56C168.88 194.05 170.41 195.82 172.85 196.03C179.86 196.62 186.87 197.16 193.89 197.52C195.22 197.59 196.7 196.99 197.93 196.35C204.74 192.81 211.44 189.08 218.27 185.59C222.32 183.52 226.53 181.76 230.84 179.79H169.91ZM368.85 153.64C360.5 149.13 352.21 145.05 343.07 144.24C337.69 143.76 334.86 141.48 332.84 137.04C332.07 135.35 330.98 133.8 330.04 132.19C329.71 132.33 329.39 132.47 329.06 132.61C329.36 136.12 329.67 139.64 330.02 143.8C335.36 145.25 340.68 146.73 346.02 148.14C350.62 149.36 355.3 150.33 359.83 151.76C363.26 152.84 363.46 153.72 362.23 158C360.03 157.09 357.91 156.14 355.74 155.33C348.43 152.6 341.17 149.73 333.77 147.29C329.37 145.84 327.69 143.03 327.79 138.69C327.84 136.51 327.79 134.32 327.79 131.2C318.68 136.17 312.71 142.74 307.58 151.28C312.47 151.46 316.54 151.84 320.59 151.65C322.39 151.57 323.07 152.24 323.48 153.56C324.02 155.3 324.36 157.11 324.86 159.23H366.14C366.99 157.48 367.78 155.83 368.84 153.65L368.85 153.64ZM207.11 126.29C208.68 131.42 210.24 136.53 211.87 141.83C212.93 141.45 213.81 141.24 214.61 140.85C221.71 137.31 228.83 133.81 235.86 130.14C240.95 127.48 241.71 127.48 245.66 131.79C247 133.25 248.2 134.84 249.53 136.32C250.02 136.87 250.71 137.24 251.37 137.73C253.05 133.03 251.37 128.03 253.15 123.5C256.58 124.77 259.48 125.84 263.17 127.21C261.2 122.89 258.84 120.39 255.35 119.02C253.1 118.14 251.76 116.82 252.92 114.09C255.49 113.47 258.02 112.85 261.43 112.02C258.9 111.3 257.37 110.88 255.86 110.44C251.99 109.3 250.85 109.67 248.41 112.87C248.02 113.38 247.65 114.32 247.26 114.33C244.37 114.36 242.81 116.56 240.96 118.15C239.07 119.77 237.05 120.63 234.6 121.07C225.5 122.69 216.43 124.51 207.12 126.3L207.11 126.29ZM152.74 218.32L152.15 218.08C150.84 220.31 149.36 222.45 148.24 224.77C145.27 230.94 142.35 237.13 139.62 243.4C137.99 247.15 136.54 251.01 135.37 254.92C134.4 258.17 135.35 259.44 138.63 259.57C141.38 259.68 144.15 259.3 146.91 259.16C148.72 259.07 151.11 259.67 152.18 258.74C153.13 257.91 152.72 255.41 152.73 253.64C152.76 241.86 152.75 230.09 152.75 218.31L152.74 218.32ZM41.1201 205.98C41.4401 206.08 41.7498 206.17 42.0698 206.27C42.3298 205.4 42.6798 204.55 42.8198 203.66C43.6298 198.65 41.8198 193.96 40.7598 189.23C37.8998 176.49 34.7702 163.82 31.6802 151.14C30.3202 145.56 28.7798 140.03 27.2598 134.26C25.3198 134.76 23.9799 135.1 22.6699 135.43C24.5599 147.82 34.7199 186.56 41.1299 205.98H41.1201ZM171.26 218.94C173.34 219.51 175.01 219 176.61 217.47C178.13 216.02 179.92 214.8 181.72 213.7C190.28 208.46 198.76 203.09 207.51 198.18C215.68 193.59 224.09 189.4 232.52 185.28C236.85 183.16 241.44 181.57 246.37 179.55C233.22 178.51 185.52 203.74 171.27 218.94H171.26ZM153.25 73.5602C154.26 83.4102 161.91 88.5002 166.69 94.9902C169.94 93.7202 172.68 92.6402 175.63 91.4902C170.2 83.9602 162.46 78.1803 158 69.7503C156.16 71.2303 154.53 72.5302 153.25 73.5602ZM169.9 334.9C169.51 334.96 169.12 335.03 168.73 335.09C168.73 338.12 168.71 341.15 168.73 344.19C168.82 355.32 168.84 366.44 169.06 377.57C169.14 381.45 169.96 381.88 174.6 381.06C173.03 365.7 171.46 350.31 169.89 334.91L169.9 334.9ZM275.5 384.91C284.81 384.67 294.04 384.41 303.28 384.22C305.66 384.17 306.21 383 305.77 380.53C300.86 380.91 295.93 377.88 291.63 380.98C286.24 377.55 280.56 378.89 274.87 378.41C275.1 380.8 275.27 382.6 275.5 384.9V384.91ZM228.98 312.87C229.57 314.98 230.02 316.58 230.53 318.43C234.17 317.77 237.51 317.11 240.87 316.58C245.04 315.92 249.21 315.27 253.4 314.82C256.72 314.47 257.02 314.23 256.74 309.87C247.61 310.28 238.54 311.13 228.98 312.87ZM255.77 320.41C247.36 320.99 239.48 321.53 231.15 322.1C231.91 324.61 232.57 326.78 233.19 328.83C240.73 327.37 247.84 326 255.15 324.59C255.29 323.62 255.46 322.47 255.76 320.41H255.77ZM185.1 203.78C179.35 202.92 174.24 202.15 169.17 201.39V215.04C174.48 211.29 179.43 207.79 185.1 203.78ZM236.98 382.49C237.03 383.02 237.13 384.14 237.21 384.95H272.24C272.33 384.57 272.43 384.19 272.52 383.8C271.62 383.36 270.73 382.61 269.8 382.55C266.9 382.38 263.98 382.48 261.07 382.48C253.17 382.48 245.28 382.48 236.97 382.48L236.98 382.49ZM271.69 379.88C271.71 379.47 271.72 379.06 271.74 378.66C259.86 377.54 247.91 378.03 235.88 377.33C236.46 380.44 238.79 379.93 240.62 379.96C250.12 380.14 259.63 380.23 269.13 380.31C269.98 380.31 270.84 380.03 271.69 379.88ZM306.98 377.51C304.29 371.66 300.19 369.36 293.44 370.17C293.55 371.64 293.66 373.13 293.76 374.54C298.35 375.57 302.64 376.54 306.98 377.51ZM180.97 161.94C174.86 159.4 160.54 159.3 156.9 161.94H180.97ZM169.7 48.1303C169.41 48.0003 169.12 47.8702 168.84 47.7402C168.2 45.8502 167.43 44.0003 166.95 42.0703C166.19 39.0103 164.59 37.9403 161.11 38.7603C165.02 42.1103 165.4 46.9203 166.64 52.2703C168.06 50.3503 168.88 49.2302 169.7 48.1202V48.1303ZM153.06 46.3602C150.6 51.9602 151.58 54.6903 156.85 56.3303C154.7 53.2203 155.98 50.5702 157.32 47.9902C155.97 47.4702 154.62 46.9602 153.06 46.3602ZM164.65 54.9003C163.84 53.6003 163.45 52.4902 162.67 51.8702C161.87 51.2202 160.19 50.4403 159.77 50.7803C158.95 51.4603 158.14 53.0303 158.38 53.9503C158.82 55.6203 160.03 57.0802 161.2 59.1202C162.59 57.4102 163.56 56.2203 164.64 54.9003H164.65ZM262.34 131.16C266.36 134.55 268.48 139.18 273.15 141.32C271.4 138.02 269.65 134.72 267.94 131.5C266.17 131.39 264.54 131.3 262.34 131.16ZM320.98 123.03C322.6 125.25 323.95 127.08 325.43 129.11C329.44 127.41 327.09 124.28 327.66 121.38C325.3 121.96 323.38 122.44 320.98 123.03ZM161.14 45.2703C162.58 45.7803 159.74 48.9802 163.08 48.2302C162.55 43.3902 160.97 41.2103 157.96 41.0203C155.07 40.8403 155.12 43.0003 154.41 45.2603H161.14V45.2703ZM289.36 374.5C290.63 370.98 290.62 370.96 287.15 370.1C286.75 370.69 286.36 371.35 285.89 371.96C285.38 372.63 284.81 373.25 284.04 374.15C284.92 374.32 285.4 374.47 285.88 374.49C287.04 374.53 288.21 374.5 289.36 374.5ZM240.97 112.71C241.25 112.44 241.53 112.17 241.81 111.91C240.87 110.9 239.93 109.89 239 108.88C238.69 109.17 238.38 109.47 238.07 109.76C239.04 110.75 240 111.73 240.97 112.72V112.71Z" fill="black"/>
<path d="M198.27 46.8602C200.81 50.2102 203.37 53.5502 205.87 56.9302C206.72 58.0802 207.43 59.3303 208.31 60.7103C206.62 62.6803 205.31 64.7802 203.47 66.1702C202.13 67.1802 200 67.8202 198.35 67.6202C194.85 67.2002 191.35 66.3502 187.98 65.2602C183.69 63.8702 182.56 61.2602 183.85 56.8802C183.89 56.7502 183.9 56.6202 183.95 56.5002C184.67 54.6602 185.93 52.8202 185.95 50.9802C185.96 49.2502 184.65 47.5002 183.51 44.7602C185.46 45.6002 186.6 46.0903 187.75 46.5903C190.91 42.8403 191.42 42.7702 196 45.3902C196.76 45.8802 197.51 46.3702 198.27 46.8702V46.8602ZM192.52 46.7602C188.74 49.0402 187.76 50.3502 186.04 55.2202C184.54 59.4702 185.12 60.9803 189.13 62.6503C190.94 63.4003 192.82 64.0602 194.74 64.4502C195.63 64.6302 196.95 64.3902 197.59 63.8102C199.48 62.1002 201.14 60.1202 202.93 58.1902C199.95 54.0202 197.18 49.6502 192.52 46.7602Z" fill="black"/>
<path d="M219.11 25.5002C224.39 26.0202 226.94 29.2803 228.1 33.7703C229.46 39.0403 228.74 44.2603 227.19 49.3903C226.97 50.1003 226.36 50.7003 225.98 51.2603C220.36 51.4803 217.19 47.2303 213.38 44.5703C206.55 39.8103 200.12 34.4903 192.29 31.3203C192 31.2003 191.85 30.7303 191.35 30.0103C192.29 29.9003 193.07 29.5502 193.53 29.7902C198.07 32.2002 202.68 34.5303 207.02 37.2603C210.92 39.7103 214.5 42.6702 218.24 45.3702C219.29 46.1202 220.42 46.7602 221.78 47.6102C223.92 43.4802 225.02 39.5902 225.08 35.2402C225.14 30.6402 222.87 27.7402 219.11 25.4902V25.5002Z" fill="black"/>
<path d="M216.86 25.1902C215.04 27.6102 213.29 30.0902 211.39 32.4402C210.43 33.6202 209.19 34.5702 207.69 35.3102C208.86 29.8102 214.96 27.3502 216.06 21.7402C212.37 18.6202 207.79 20.7902 203.22 19.3302C204.29 18.7902 204.86 18.2602 205.43 18.2602C208.56 18.2602 211.76 18.0102 214.79 18.5702C218.04 19.1702 218.49 20.6402 217.27 23.7902C217.08 24.2802 216.93 24.7802 216.76 25.2802L216.87 25.1802L216.86 25.1902Z" fill="black"/>
<path d="M198.27 46.8602C197.51 46.3702 196.76 45.8702 196 45.3802C196.58 44.8802 197.3 43.8601 197.72 43.9701C199.47 44.4401 201.2 45.1201 202.8 45.9701C205.23 47.2701 207.54 48.7902 210.05 50.3102C209.69 52.1402 209.16 53.0602 207.21 51.8902C204.27 50.1402 201.26 48.5302 198.28 46.8502L198.27 46.8602Z" fill="black"/>
<path d="M216.76 25.2902C218.42 25.6002 218.35 27.0202 218.2 28.0802C217.77 31.1302 217.2 34.1802 216.49 37.1802C215.8 40.0802 215.7 40.0602 212.62 38.6502C214.04 34.1502 215.45 29.6702 216.86 25.1902L216.75 25.2902H216.76Z" fill="black"/>
<path d="M189.36 78.7603C185.01 77.7303 183.8 76.1703 184.51 72.7703C188.45 73.6403 189 74.2703 189.36 78.7603Z" fill="black"/>
</svg>
