<svg width="123" height="46" viewBox="0 0 123 46" fill="none" xmlns="http://www.w3.org/2000/svg">
<path d="M3.19967 35.75C3.31967 35.83 3.44976 35.9 3.54976 35.98C6.50976 40.38 10.8197 42.95 14.9897 45.21C15.3097 45.38 15.6698 45.58 16.0598 45.78H28.4097V45.76L31.9797 45.74C38.7897 45.7 45.5897 45.65 52.3997 45.62C60.0397 45.59 66.7697 45.58 72.9997 45.6C76.7197 45.61 80.4297 45.65 84.1497 45.69H85.5297L85.4897 45.78H98.2998C98.3998 45.71 98.4897 45.65 98.5897 45.58C102.26 42.77 105.81 39.72 109.23 36.77L109.48 36.56C110.55 35.64 111.63 34.72 112.7 33.8C113.62 33.02 113.66 31.99 113.68 31.53C113.68 31.46 113.68 31.39 113.7 31.3L113.91 29.71L113.29 29.32C115.5 27.41 117.79 25.44 119.98 23.37C121.07 22.34 122.47 20.05 121.89 17.92C121.36 16 119.42 15.06 118 14.38C116.54 13.68 114.53 12.88 112.23 13.02V9.41004L110.49 8.86002C106.84 7.70002 103.38 7.54003 99.9797 8.37003C99.9397 8.12003 99.8898 7.86002 99.8098 7.61002C99.6098 6.94002 98.8098 4.68002 96.9098 3.61002C90.3198 -0.0699792 88.1897 -0.259972 80.5997 2.18003C80.1997 2.31003 79.7897 2.43003 79.3297 2.56003C78.6897 2.75003 78.0498 2.93003 77.4198 3.15003C71.5498 5.23003 65.3697 7.72005 59.6897 11.89C59.3697 11.69 59.0597 11.5 58.7397 11.3C57.0397 10.26 55.2898 9.18003 53.9098 7.90003C46.9598 1.48003 38.6698 0.120035 28.5598 3.75004C25.4998 4.85004 22.2797 6.25005 18.9897 7.92005C17.1697 8.84005 15.4297 9.86004 13.7397 10.85C12.2697 11.71 10.7397 12.61 9.23971 13.39C6.52971 14.8 4.89971 17.85 4.98971 21.37C5.03971 23.53 5.72971 25.53 6.86971 27.06C6.00971 27.11 5.14977 27.17 4.29977 27.25C2.73977 27.39 0.799716 28.54 0.249716 30.22C-0.300284 31.97 0.869755 33.56 1.78976 34.6C2.25976 35.13 2.78968 35.47 3.20968 35.75H3.19967Z" fill="white"/>
<path d="M68.3599 29.9599H61.0699C60.0299 28.9399 59.5899 26.9699 57.2299 27.1599C57.0499 28.0099 56.86 28.8899 56.68 29.7599C55.67 30.0599 54.68 30.3999 53.66 30.6499C53.09 30.7899 52.0899 30.9999 51.9499 30.7699C50.6499 28.6199 48.8799 30.1799 47.3699 30.1499C44.5899 30.0899 41.8299 29.7399 39.0199 30.0399C36.2699 30.3399 33.46 30.0999 30.68 30.0999C27.78 30.0999 24.8699 30.1599 21.9699 30.0599C21.0899 30.0299 20.1699 29.6499 19.3599 29.2499C17.0499 28.1199 14.71 27.0099 12.53 25.6599C11.24 24.8599 9.99993 23.7599 9.12993 22.5199C8.06993 20.9899 9.10992 18.5199 10.8699 17.4899C13.3099 16.0699 15.74 14.6199 18.17 13.1799C18.27 13.1199 18.33 12.9499 18.43 12.9299C22.37 12.3899 25.44 9.7099 29.03 8.4999C34.16 6.7599 39.6799 5.57989 44.8999 8.26989C49.4999 10.6399 54.4299 12.6399 57.7199 16.9799C57.9199 17.2499 58.24 17.5699 58.54 17.6099C61.67 18.0299 63.0099 20.4899 64.5099 22.7699C65.8299 24.7799 67.1899 26.7599 68.4899 28.7899C68.6299 29.0099 68.4199 29.4599 68.3599 29.9399V29.9599ZM34.4799 14.5199C32.1999 14.8999 30.7599 15.1399 28.6999 15.4799C30.9799 16.7199 32.9066 16.3999 34.4799 14.5199Z" fill="#EFB445"/>
<path d="M22.7299 43.2998C18.9199 43.2998 16.3198 40.5398 13.1898 39.0198C11.3198 38.1098 9.75989 36.5298 8.13989 35.1498C7.69989 34.7798 7.5599 34.0598 7.1499 33.2398C10.0999 32.9298 12.7298 33.1098 15.3398 33.0698C22.8398 32.9298 30.3499 33.0498 37.8499 32.9898C39.2499 32.9798 40.6399 32.5598 42.0399 32.3998C42.7399 32.3198 43.5099 32.2298 44.1599 32.4398C47.0899 33.3398 49.9899 33.4099 52.9099 32.4199C53.3399 32.2799 53.8498 32.3198 54.3198 32.3798C55.8298 32.5698 57.3399 32.9898 58.8499 32.9998C72.8899 33.0498 86.9298 33.0298 100.97 33.0298H104.6C105.5 34.9898 104.13 35.8698 103.02 36.5898C98.8099 39.2998 94.4699 41.7798 89.6399 43.2698C84.0999 43.2198 78.5599 43.1398 73.0099 43.1198C66.1399 43.0998 59.2599 43.1099 52.3899 43.1399C42.4999 43.1799 32.6099 43.2598 22.7299 43.3198V43.2998Z" fill="white"/>
<path d="M80.2 25.6999C79.56 26.2199 78.78 26.6499 78.3 27.2899C76.46 29.7699 74.13 30.7699 71.29 29.9899C69.64 27.4599 68.17 24.9699 66.47 22.6399C64.75 20.2899 62.82 18.0899 60.77 15.5699C63.07 14.3999 64.97 13.3699 66.92 12.4699C70.82 10.6799 74.39 8.14994 78.67 7.22994C82.19 6.47994 85.5401 4.56993 89.5601 5.65993C89.8501 8.53993 89.08 11.1899 87.54 13.5799C86.69 14.9099 85.8399 16.1299 85.9399 17.7799L86 17.6899C84.57 19.2499 83.05 20.7399 81.76 22.4099C81.01 23.3799 80.65 24.6399 80.11 25.7699L80.1899 25.6999H80.2Z" fill="#FCEEE3"/>
<path d="M90.3597 28.5798C89.4397 28.5798 88.5198 28.5798 87.0298 28.5798C87.7398 27.0298 88.1498 25.8598 88.7798 24.8198C90.8398 21.4598 93.0797 18.2098 95.0697 14.8098C96.7697 11.9198 100.89 10.5098 104.27 11.8998C104.15 12.5898 104.23 13.4198 103.87 13.9398C101.59 17.1698 99.1997 20.3398 96.8497 23.5198C94.6897 25.1998 92.5197 26.8898 90.3597 28.5698V28.5798Z" fill="#FCEEE3"/>
<path d="M85.9598 17.7801C88.8998 15.3501 90.2398 12.0501 91.1198 8.46006C91.2998 7.71006 91.6099 6.62007 92.1399 6.41007C92.8899 6.11007 94.0599 6.24007 94.7599 6.66007C95.1899 6.92007 95.3199 8.13006 95.1699 8.83006C93.7899 15.2601 90.4099 20.6001 86.0199 25.3801C85.3899 26.0701 84.9798 26.9501 84.3498 27.6401C83.1698 28.9301 82.1898 30.7001 79.8498 29.9401C78.5198 28.4801 80.3398 27.1501 80.1998 25.6901L80.1198 25.7601C83.0098 23.7401 85.3099 21.2901 86.0099 17.6801L85.9498 17.7701L85.9598 17.7801Z" fill="#EFB445"/>
<path d="M101.31 24.3799C102.24 23.7299 103.61 23.2899 104.03 22.4099C105.38 19.5799 107.42 18.6799 110.59 19.4399C110.66 20.2599 110.74 21.1699 110.82 22.0799C110.82 22.3399 110.82 22.5899 110.83 22.8499C108.12 25.0599 105.42 27.2699 102.71 29.4799C101.39 29.7299 100.08 29.9799 98.3599 30.2999V27.2199C100.19 27.1599 101.1 26.15 101.3 24.39L101.31 24.3799Z" fill="#FCEEE3"/>
<path d="M96.8499 23.53C99.1999 20.34 101.59 17.18 103.87 13.95C104.24 13.43 104.15 12.6 104.27 11.91C105.8 12.4 107.72 10.48 109.16 12.94C106.58 16.21 103.93 19.58 101.27 22.95C100.52 23.64 99.7799 24.32 99.0299 25.01C98.2999 24.52 97.5698 24.02 96.8398 23.53H96.8499Z" fill="#E2AA41"/>
<path d="M102.71 29.47C105.42 27.26 108.12 25.05 110.83 22.84C112.06 21.95 113.41 21.19 114.47 20.12C115.48 19.1 116.31 19.3 117.29 19.93C116.91 22.7 114.54 23.9 112.73 25.44C110.78 27.09 108.58 28.4 106.88 30.42C105.32 32.27 103.88 31.83 102.72 29.47H102.71Z" fill="#DEA840"/>
<path d="M96.8499 23.53C97.5799 24.02 98.3099 24.52 99.0399 25.01C98.4199 25.74 97.7999 26.47 97.1799 27.2C95.8999 28.83 94.3098 29.89 92.1898 30.08C91.0598 30.18 90.3899 29.78 90.3599 28.58C92.5199 26.9 94.6899 25.21 96.8499 23.53Z" fill="#DDA740"/>
<path d="M117.29 19.93C116.31 19.29 115.48 19.09 114.47 20.12C113.42 21.18 112.06 21.94 110.83 22.84C110.83 22.58 110.83 22.33 110.82 22.07C111.43 21.58 112.33 21.23 112.61 20.59C113.71 18.1 115.68 18.41 118.08 18.71C117.73 19.26 117.51 19.6 117.29 19.94V19.93Z" fill="#D8A33E"/>
<path d="M34.4797 14.52C32.9064 16.3934 30.9797 16.7134 28.6997 15.48C30.7597 15.14 32.1997 14.9 34.4797 14.52Z" fill="#100D05"/>
<path d="M25.9797 45.21C22.3997 46.1 19.1397 44.6101 16.1897 43.0101C12.1997 40.8501 8.21969 38.4801 5.57969 34.5101C5.13969 33.8501 4.19976 33.5601 3.64976 32.9401C3.14976 32.3801 2.45973 31.4801 2.61973 30.9801C2.79973 30.4101 3.80975 29.8 4.50975 29.74C7.37975 29.48 10.2797 29.4201 13.7497 29.2601C12.5097 28.3701 11.6997 27.58 10.7197 27.12C6.69971 25.26 6.19974 17.7701 10.3797 15.6001C13.6797 13.8801 16.7897 11.8201 20.1097 10.1401C23.1197 8.62007 26.2197 7.24006 29.3897 6.10006C37.6097 3.14006 45.3297 3.38006 52.1897 9.73006C54.4597 11.8301 57.3298 13.2801 59.7998 14.9401C65.4698 10.4301 71.7697 7.80006 78.2397 5.51006C79.2597 5.15006 80.3197 4.89005 81.3597 4.56005C88.2297 2.35005 89.6398 2.42006 95.6798 5.79006C96.4898 6.24006 97.1198 7.37006 97.3998 8.32006C97.6898 9.30006 97.4697 10.4401 97.4697 11.8801C101.48 10.0601 105.44 9.89005 109.73 11.2501V16.2801C112.25 14.9501 114.64 15.55 116.91 16.65C117.89 17.12 119.25 17.7701 119.47 18.6001C119.7 19.4301 118.99 20.8701 118.25 21.5701C115.29 24.3701 112.16 26.9801 109.09 29.6601C109.81 30.1101 110.54 30.57 111.21 30.99C111.15 31.46 111.21 31.8001 111.07 31.9101C106.43 35.8501 101.88 39.92 97.0598 43.61C95.4498 44.84 93.1497 45.26 91.0897 45.77C90.4397 45.93 89.5698 45.1601 88.7998 44.8201C89.2098 44.0301 89.4098 42.8701 90.0598 42.5101C92.3698 41.2301 94.9097 40.35 97.2297 39.08C99.6397 37.76 101.9 36.16 104.22 34.68C104.16 34.38 104.1 34.0801 104.04 33.7801C93.6098 33.7001 83.1797 33.5601 72.7497 33.5401C62.0797 33.5301 51.3997 33.65 40.7297 33.68C30.1097 33.71 19.4998 33.68 8.27977 33.68C11.0498 36.66 13.7097 38.8001 16.8797 40.2501C19.9697 41.6701 23.1097 42.98 26.2197 44.34C26.1397 44.63 26.0697 44.9301 25.9897 45.2201L25.9797 45.21ZM28.2097 16.33C29.6197 14.08 31.2397 13.8201 33.1397 14.1001C35.1497 14.4001 37.2097 14.4701 39.1997 14.8901C42.4797 15.5901 45.9698 16.01 48.9198 17.46C51.8698 18.91 54.0298 18.49 56.8098 16.61C53.5598 14.5 50.4497 12.6901 47.5697 10.5701C41.9397 6.44006 35.7697 7.01006 29.9797 9.23006C23.3997 11.7501 17.2198 15.3201 10.8998 18.5101C9.30976 19.3101 8.88968 21.01 10.0697 22.4C11.0597 23.56 12.3797 24.5101 13.6997 25.3201C15.4397 26.3901 17.2898 27.32 19.1498 28.15C20.4198 28.72 21.7997 29.3501 23.1397 29.3901C27.5897 29.5201 32.0797 28.99 36.4797 29.46C41.5697 30 43.8098 26.5201 47.1398 23.7201C41.1498 19.7101 34.4497 18.91 28.1997 16.34L28.2097 16.33ZM72.1097 29.3C74.1097 29.74 75.5197 28.96 76.8597 27.46C81.1497 22.68 84.8997 17.52 87.7597 11.77C88.6697 9.93004 89.6197 7.85004 88.5797 5.61004C78.7397 6.71004 70.4197 11.2701 62.2197 15.9401C65.4497 20.3101 68.6997 24.69 72.1097 29.3ZM54.2898 23.1401C56.4598 24.7101 58.7298 25.7201 60.0498 27.4501C62.2898 30.3701 64.8598 29.48 67.7998 29.3C64.6198 25.43 63.4797 20.3301 58.4497 18.2901C57.0897 19.8701 55.7698 21.4101 54.2898 23.1401ZM87.8797 28.12C88.0897 28.29 88.2997 28.45 88.5097 28.61C94.7097 24.32 99.4498 18.6501 104.15 11.7601C99.8898 12.1401 96.7297 12.6801 95.1397 16.3801C94.7597 17.2601 94.2097 18.0701 93.6997 18.8801C91.7697 21.9601 89.8197 25.04 87.8797 28.12ZM79.2297 28.93L79.7798 29.62C80.6998 29.12 81.7897 28.8 82.5097 28.09C84.0597 26.58 85.5097 24.9501 86.8297 23.2301C90.0497 19.0101 92.9897 14.64 94.3197 9.37005C94.6997 7.84005 94.4998 7.06005 92.5198 6.84005C90.2998 15.42 85.1297 22.4001 79.2297 28.9401V28.93ZM43.1798 18.9C45.5398 21.34 48.7097 21.0901 49.7097 23.8801C47.5997 25.6001 45.5698 27.2401 43.3098 29.0701C45.7398 30.0301 47.7197 29.8001 49.5997 28.5701C51.0397 27.6301 52.4497 26.62 53.8497 25.65C53.4097 25.11 52.6698 24.2201 52.0198 23.4401C52.6398 22.2801 53.1397 21.3601 53.4897 20.7001C50.2297 20.1301 47.0898 19.5801 43.1798 18.8901V18.9ZM98.7197 29.06C101.99 28.94 108.28 23.7001 110.31 19.2801C108.8 19.7601 107.27 19.8 106.48 20.59C103.79 23.23 101.36 26.14 98.7197 29.06ZM116.1 20.4C115.92 20.2 115.74 20 115.56 19.8C112.07 22.91 108.58 26.01 105.1 29.12C105.31 29.36 105.53 29.6101 105.74 29.8501C109.28 26.8001 113.21 24.2 116.1 20.4ZM100.61 19.8901C100.81 20.1001 101.01 20.31 101.21 20.52C103.29 18.39 105.41 16.3101 107.4 14.1001C107.73 13.7401 107.5 12.8801 107.52 12.2501C106.81 12.4201 105.77 12.3401 105.43 12.7901C103.72 15.0801 102.2 17.5101 100.61 19.8901ZM51.2698 30.0101C53.1398 29.7301 54.6097 29.5101 56.0797 29.2901C54.5397 28.9101 52.7998 26.8001 51.2698 30.0101Z" fill="black"/>
</svg>
