<svg width="547" height="257" viewBox="0 0 547 257" fill="none" xmlns="http://www.w3.org/2000/svg">
<path d="M358.59 129.86C359.17 127.9 359.33 125.67 360.41 124.02C365.53 116.18 370.88 108.5 376.17 100.78C377.81 98.3699 378.79 98.0699 380.79 100.29C383.14 102.91 385.56 102.78 388.23 101.37C391.23 99.7899 394.14 98.0199 397.1 96.3199C395.27 91.9699 394.31 88.0399 395.06 83.6599C396.11 77.4999 399.34 73.1899 404.95 70.7899C411.88 67.8299 419.11 66.6499 426.6 68.4299C430.01 69.2399 432.51 70.6599 433.88 74.5599C435.24 78.4299 438.12 81.7899 440.48 85.2799C448.69 97.4099 457.02 109.45 465.16 121.62C467.48 125.1 469.29 128.92 471.58 133.02C474.01 131.7 476.47 130.27 479.02 129C482.78 127.13 486.52 125.15 490.43 123.64C498.38 120.58 506.58 118.85 515.17 120.34C522.69 121.64 524.18 124.73 519.94 131.13C516.9 135.72 513.48 140.12 508.91 143.39C502.85 147.72 496.77 152.01 490.7 156.33C485.83 159.79 480.99 163.3 476.1 166.73C474.46 167.88 472.72 168.89 470.57 170.25C473.58 171.95 476 173.04 478.1 174.56C484.88 179.46 485.65 186.76 479.99 192.94C475.74 197.58 470.56 200.96 464.55 203C462.73 203.62 460.97 204.42 459.34 205.85C461.73 205.85 464.13 205.91 466.52 205.84C476.38 205.53 486.23 204.64 496.11 205.74C503.28 206.54 510.46 207.24 517.65 207.81C520.68 208.05 522.95 209.43 524.75 211.62C528.25 215.89 531.85 220.12 534.98 224.66C538.42 229.63 541.4 234.93 544.55 240.1C545.03 240.89 545.33 241.78 545.72 242.62C548.87 249.41 542.71 256.38 536.27 256.09C528.11 255.71 519.94 255.55 511.77 255.5C505.72 255.46 499.66 255.82 493.6 255.88C484.37 255.97 475.15 256.01 465.92 255.95C456.3 255.89 446.69 255.63 437.07 255.6C431.68 255.58 426.29 255.9 420.9 255.97C416.55 256.03 412.19 255.93 407.83 255.92C404.16 255.92 400.48 255.97 396.81 255.92C389.01 255.83 381.22 255.66 373.42 255.61C368.96 255.58 364.49 255.8 360.02 255.76C346.71 255.65 333.4 255.38 320.09 255.34C313.94 255.32 307.78 255.78 301.63 255.82C293.62 255.86 285.6 255.65 277.59 255.63C269.02 255.61 260.44 255.69 251.87 255.71C245.4 255.72 238.93 255.67 232.46 255.69C227.34 255.7 222.22 255.82 217.09 255.8C211.42 255.78 205.76 255.59 200.09 255.58C193.75 255.57 187.41 255.73 181.07 255.71C172.74 255.69 164.41 255.54 156.08 255.48C148.02 255.42 139.97 255.41 131.91 255.37C115.78 255.28 99.6601 255.23 83.5301 255.05C68.9401 254.89 54.34 254.59 39.75 254.37C38.69 254.35 37.63 254.42 36.58 254.54C32.54 254.98 31.16 253.94 30.58 249.91C30.54 249.65 30.45 249.37 30.51 249.12C31.75 243.89 30.68 238.28 33.41 233.27C36.37 227.85 38.92 222.21 41.95 216.84C43.76 213.64 45.99 210.64 48.36 207.82C49.36 206.63 51.15 205.67 52.69 205.47C57.52 204.84 62.39 204.48 67.26 204.27C76.85 203.86 86.4401 203.58 96.0301 203.32C103.03 203.13 110.02 203.06 117.02 202.93C117.65 202.92 118.28 202.93 118.87 202.93C120.24 200.54 118.92 198.62 118.54 196.63C117.68 192.11 118 187.59 118.43 183.06C119.07 176.38 119.7 169.77 122.41 163.44C124.26 159.12 124.95 154.3 126.67 149.91C128.34 145.65 130.41 141.48 132.78 137.56C136.14 132.01 139.8 126.63 143.58 121.35C145.79 118.27 148.49 115.53 150.95 112.62C154.66 108.23 158.33 103.8 162.08 99.4499C163.47 97.8499 165.06 96.4199 166.56 94.9099C166.38 94.6399 166.2 94.3699 166.02 94.0999C164.11 94.7399 162.24 95.5399 160.29 95.9699C154.9 97.1799 149.48 98.2899 144.05 99.3299C142.62 99.5999 141.4 99.4299 140.77 101.39C140.22 103.11 137.61 103.48 136.06 102.03C134.51 100.57 132.91 100.43 131.02 100.46C116.85 100.62 102.84 99.1499 88.93 96.4599C86.23 95.9399 83.32 95.8399 80.86 97.5499C73.57 102.63 73.13 100.1 68.12 96.8399C64.68 100.99 60.29 103.96 55.33 106.2C54.36 106.64 53.67 108.07 53.23 109.19C52.76 110.39 52.84 111.79 52.49 113.05C51.04 118.17 46.84 119.41 42.88 115.78C41.15 114.19 39.6101 112.35 38.2101 110.46C37.2601 109.18 36.41 108.92 34.87 109.33C32.6 109.93 30.23 110.41 27.89 110.43C24.39 110.46 22.35 108.69 21.39 105.26C19.81 99.6099 19.65 93.8199 19.82 88.0099C19.96 83.2899 19.2801 78.5099 21.2101 73.8999C21.5801 73.0099 20.68 71.4099 20.05 70.3199C15.89 63.1399 11.2 56.2199 7.55002 48.7899C4.37002 42.3399 1.23003 35.6799 0.720031 28.2799C0.630031 26.9799 1.09004 25.6399 1.29004 24.3799C9.22004 24.9799 14.0801 29.8799 19.0301 34.4899C22.0901 37.3399 24.8 40.5599 28.24 44.2299C29.11 41.4299 29.64 39.6099 30.23 37.8099C32.3 31.5399 34.35 25.2699 38.12 19.7399C38.86 18.6599 39.62 17.5599 40.54 16.6399C43.44 13.7699 45.65 14.6199 47.36 18.2599C50.74 25.4499 50.9401 33.1499 51.7101 40.7799C51.9501 43.1299 52.1501 45.2699 55.4001 45.3799C54.9501 48.0499 51.77 49.6799 53.2 52.4199C53.61 53.2099 54.7801 53.6099 55.8401 54.3599C54.9601 55.8499 52.88 57.3499 54.56 59.6299C58.59 60.4299 59.04 59.4299 58.22 63.9499C61.21 65.5599 65.59 64.6099 67.26 69.2399C70.64 67.3799 73.8 65.7999 76.8 63.9499C88.11 57.0099 99.25 49.7799 110.67 43.0399C122.56 36.0199 134.67 29.3699 146.75 22.6599C159.07 15.8099 171.49 9.12988 183.82 2.28988C187.44 0.279877 189.83 0.379906 193.27 4.06991C194.91 5.82991 196.19 8.28991 196.73 10.6399C197.93 15.9099 198.7 21.2899 199.39 26.6499C199.82 29.9599 198.34 32.4599 195.88 33.5399C193.68 34.5099 192.64 34.0599 192.3 31.6799C191.97 29.3699 192.02 27.0199 191.75 24.6999C191.22 20.2499 190.63 15.7999 189.93 11.3699C189.75 10.2299 189.14 9.13991 188.63 8.06991C187.67 6.06991 186.24 5.38992 184.11 6.45992C181.76 7.63992 179.3 8.59992 176.98 9.82992C162.87 17.2999 148.79 24.8299 134.7 32.3399C132.13 33.7099 129.59 35.1199 126.98 36.4099C125.08 37.3499 124.34 38.3999 124.9 40.7599C125.88 44.8599 126.27 49.0999 126.99 53.2699C127.19 54.3999 127.67 55.4899 128.08 56.7999C129.44 56.5799 130.64 56.5399 131.72 56.1699C142.3 52.5799 152.86 48.8999 163.44 45.3199C172.39 42.2899 181.34 39.2599 190.34 36.3899C196.09 34.5599 201.88 32.8199 207.74 31.4199C211.43 30.5399 215.27 30.1999 219.07 29.9199C221.95 29.7099 222.89 30.8699 223.44 33.8199C225.39 44.1599 223.25 54.3299 222.25 64.5499C221.63 70.9699 220.91 77.3799 220.16 83.7899C219.42 90.0799 218.56 96.3499 217.82 102.63C217.23 107.61 216.48 112.58 216.29 117.58C215.83 129.5 213.57 141.17 211.74 152.91C210.73 159.4 209.45 165.85 208.31 172.32C208.22 172.8 208.3 173.32 208.3 174.63C209.67 173.02 210.46 171.84 211.5 170.95C212.22 170.33 213.29 170.12 214.2 169.73C214.42 170.65 214.73 171.56 214.82 172.49C214.88 173.1 214.61 173.74 214.41 174.77C215.68 174.46 217.01 174.54 217.55 173.93C219.65 171.55 222.52 171.49 225.19 171.28C238.37 170.24 251.56 169.34 264.75 168.52C267.51 168.35 270.4 168.29 273.05 168.91C275.17 169.41 277.02 171.03 279.28 172.33C279.43 171.88 279.73 170.99 280.02 170.1C281.1 166.8 282.98 166.05 285.64 168.1C287.71 169.7 289.64 171.51 291.5 173.35C293.56 175.39 294.57 175.74 297.02 174.2C298.44 173.31 299.77 172.11 300.79 170.78C305.53 164.62 310.21 158.41 314.78 152.12C318.72 146.69 324.18 145.49 330.25 146.66C337.19 148 344.26 149.22 350.88 151.59C357.25 153.87 363.12 157.53 369.2 160.61C371.9 161.98 374.56 163.44 377.27 164.79C379.11 165.71 380.5 164.94 380.88 163.11C381.39 160.7 381.94 158.15 381.64 155.77C381.44 154.2 380.03 152.52 378.71 151.41C373.41 146.91 367.9 142.66 362.55 138.21C361.16 137.05 359.95 135.6 358.88 134.13C357.94 132.83 357.38 131.3 358.63 129.77C360.51 131.54 362.25 133.48 364.28 135.04C377.35 145.09 390.37 155.2 405.28 162.93C411.99 158.07 418.87 153.08 426.06 147.87C423.58 141.66 422.84 134.57 423.51 127.49C423.82 124.19 423.29 122.27 420.64 120.26C416.64 117.22 415.09 112.52 413.94 107.5C410.69 109.47 408.23 108.43 405.96 106.15C403.5 103.68 400.94 101.29 398.24 98.6899C396.37 102.82 392.43 103.87 388.84 105.39C383.93 107.47 380.66 106.3 378.17 101.94C372.74 109.87 367.26 117.92 361.73 125.93C360.78 127.31 359.61 128.55 358.55 129.86H358.59ZM430.3 160.84C429.15 160.93 427.7 160.61 426.9 161.19C423.09 163.95 419.57 162.92 415.98 160.56C416.68 165 420.97 167.32 424.75 165.22C426.77 164.1 428.38 162.26 430.18 160.75C431.13 160.24 432.08 159.74 433.6 158.92C432.18 157.96 431.33 157.39 430.49 156.82L429.74 157.25C429.92 158.45 430.11 159.64 430.29 160.84H430.3ZM34.7701 250.71C36.59 251.26 38.8001 252.49 41.0301 252.51C55.5501 252.62 70.08 252.54 84.6 252.4C108.75 252.16 132.91 251.72 157.06 251.55C179.81 251.39 202.55 251.47 225.3 251.45C245.93 251.43 266.57 251.43 287.2 251.42C311.37 251.4 335.54 251.37 359.72 251.36C368.43 251.36 377.14 251.49 385.85 251.42C393.68 251.36 401.51 251.01 409.34 250.96C414.72 250.92 420.09 251.24 425.47 251.26C433.98 251.3 442.49 251.21 451 251.2C453.88 251.2 456.76 251.34 459.65 251.32C468.36 251.26 477.08 251.13 485.79 251.08C491.83 251.04 497.87 251.11 503.91 251.09C510.85 251.06 517.79 250.96 524.72 250.93C530.23 250.9 535.74 250.93 540.93 250.93C542.69 248.24 542.73 246.11 541.18 243.85C539.84 241.91 538.88 239.7 537.56 237.74C533.75 232.1 529.94 226.45 525.95 220.95C523.43 217.48 520.56 214.25 517.98 211.07C511.68 210.49 505.53 209.79 499.36 209.38C493.32 208.99 487.27 208.77 481.22 208.7C475.05 208.64 468.88 208.9 462.7 208.95C456.74 209 450.77 208.96 444.81 208.96C445.77 209.73 446.76 209.83 447.75 209.97C452.2 210.58 456.67 211.08 461.08 211.88C462.16 212.08 463.06 213.27 464.05 214.01C463.18 215.09 462.51 216.61 461.38 217.13C459.89 217.82 458.05 217.88 456.35 217.92C452.31 218.03 448.24 217.71 444.22 218.02C431.02 219.05 417.87 218.71 404.72 217.2C403.13 217.02 401.4 217.71 399.79 218.18C395.63 219.4 391.51 220.73 387.36 221.98C385.87 222.43 384.22 222.52 382.84 223.18C374.32 227.2 365.28 229.08 355.96 229.07C344.6 229.07 333.23 228.64 321.87 228.12C315.68 227.84 309.53 226.9 303.35 226.4C291.51 225.44 279.67 224.31 267.81 223.75C260.31 223.4 252.76 223.75 245.25 224.13C235.7 224.6 226.38 226.18 217.67 230.51C213.91 232.38 210.02 234.18 205.98 235.25C189.64 239.57 173.15 239.69 156.68 235.92C154.03 235.31 151.43 234.13 149.03 232.79C146.06 231.13 143.44 228.85 140.48 227.17C132.28 222.51 126.53 215.42 120.77 207.74C117.72 207.9 114.43 208.14 111.15 208.22C96.5001 208.59 81.8501 208.82 67.2101 209.29C61.9501 209.46 56.7 210.5 51.44 210.49C48.73 210.49 47.38 211.3 46.1 213.45C41.83 220.6 38 228 35.58 235.94C34.18 240.51 31.9301 245.35 34.7801 250.74L34.7701 250.71ZM217.52 218.95C216.27 205.53 214.38 192.19 216.76 178.71C213.32 178.937 211.25 178.113 210.55 176.24C209.6 176.46 208.66 176.67 207.55 176.93C206.81 181.1 206.11 185.26 205.31 189.39C204.48 193.67 203.88 194.2 199.78 194.84C197.46 195.2 196.2 194.38 195.95 192.01C195.78 190.45 195.84 188.82 196.11 187.28C197.78 177.62 199.68 168.01 201.23 158.33C203.21 145.97 205.02 133.58 206.76 121.19C208.02 112.2 209.04 103.17 210.17 94.1499C210.97 87.7499 211.49 81.2899 212.66 74.9499C214.39 65.6699 216.8 56.5099 218.5 47.2199C219.27 43.0399 219.56 38.6299 217.79 34.3099C216.67 34.4099 215.73 34.3499 214.87 34.5899C202.05 38.1299 189.21 41.5999 176.45 45.3099C169.13 47.4399 161.9 49.8899 154.66 52.3099C148.03 54.5299 141.48 56.9699 134.85 59.1799C132.25 60.0499 131.39 61.5499 131.8 64.2299C132.28 67.3499 132.09 70.5999 132.76 73.6599C134.11 79.8399 135.84 85.9299 137.43 92.0599C137.83 93.6199 138.62 94.7099 140.46 94.5399C149.55 93.6899 158.52 92.2799 166.9 88.4499C169 87.4899 171.04 86.2799 172.89 84.8999C176.25 82.4199 179.33 79.5499 182.74 77.1499C189.06 72.6999 194.21 67.0799 199.3 61.3699C200.73 59.7599 202.16 58.0999 204.88 57.7899C204.58 60.8999 202.86 62.9399 201.14 64.7799C196.02 70.2599 190.58 75.4399 185.49 80.9499C176.63 90.5199 167.67 100.03 159.24 109.98C152.54 117.89 146.4 126.29 140.36 134.72C134.63 142.72 131.99 152.28 127.97 161.15C127.81 161.49 127.91 161.94 127.84 162.33C127.35 165.05 126.87 167.78 126.36 170.5C125.01 177.71 123.29 184.7 124.52 192.35C125.53 198.63 127.55 204.28 131.44 208.8C142.62 221.79 156.57 229.61 174.29 229.07C178.65 228.94 183 228.64 187.35 228.34C198.01 227.59 208.21 225.27 217.53 218.94L217.52 218.95ZM364.22 222.5C364.33 220.03 363.56 219.02 361.79 218.45C353.19 215.71 346.06 210.87 339.77 204.28C335.64 199.95 333.13 195.2 331.92 189.59C331.32 186.82 331.77 184.21 333.64 181.76C336.03 178.64 339.29 177.09 342.77 175.9C349.18 173.72 355.88 172.76 362.59 172.88C370.88 173.03 379.15 173.78 387.43 174.36C389.36 174.49 391.26 174.96 393.18 175.28C392.93 174.47 392.55 174.15 392.1 173.94C384.73 170.45 377.19 167.27 370 163.45C357.25 156.67 344.3 150.59 329.69 149.21C326.59 148.92 323.29 148.41 321.09 151.63C318.12 155.99 315.4 160.57 312.04 164.62C308.57 168.8 306.05 173.77 300.63 176.42C295.21 179.07 292.52 179.25 288.23 175.05C286.77 173.62 285.11 172.41 283.32 170.91C282.25 172.77 281.41 174.22 280.55 175.71C279.93 175.66 279.2 175.83 278.93 175.55C275.17 171.79 270.42 172.44 265.85 172.7C258.47 173.12 251.09 173.58 243.75 174.38C236.8 175.13 229.88 176.25 222.98 177.39C219.86 177.9 219.95 178.09 220.26 181.3C221.14 190.22 221.89 199.16 222.86 208.07C223.19 211.1 224.03 214.08 224.66 217.16C225.64 217.1 226.28 217.09 226.93 217.03C233.75 216.31 240.55 215.28 247.39 214.91C263.95 214.03 280.4 216.1 296.86 217.45C310.66 218.58 324.4 220.54 338.2 221.68C346.74 222.39 355.35 222.26 364.23 222.52L364.22 222.5ZM398.29 180.07L398.25 179.21C397.25 178.98 396.25 178.61 395.23 178.54C386.14 177.87 377.05 176.74 367.97 176.78C360.04 176.82 351.97 176.74 344.31 179.99C337.67 182.81 335.85 186.11 338.32 192.95C340.74 199.64 345.77 204.2 351.02 208.62C357.25 213.86 364.65 215.75 372.51 216.44C374.34 216.6 376.26 217 377.99 216.62C386.46 214.76 394.83 212.6 402.16 207.56C404.11 206.22 407.21 206.03 408.47 204.34C411.31 200.54 415.71 199.29 419.18 196.59C422.86 193.73 427.56 192.1 431.02 189.03C435.64 184.92 441.05 182.07 445.92 178.39C449.87 175.41 454.25 173 458.4 170.29C463.54 166.93 468.58 163.44 473.77 160.16C477.72 157.66 481.91 155.55 485.84 153.02C490.46 150.05 494.96 146.9 499.42 143.7C505.5 139.33 511.61 134.96 515.81 128.56C516.55 127.43 517.08 126.17 517.93 124.53C514.54 123.91 511.84 123.12 509.11 122.98C501.23 122.56 494.05 125.24 487.16 128.66C481.03 131.7 475.14 135.2 469.02 138.26C458.62 143.46 449.1 149.93 439.97 157.1C430.02 164.91 420.17 172.77 408.58 178.33C399.78 182.56 390.75 183.73 381.3 183.65C380.84 183.65 380.38 183.2 379.94 182.97C386.18 181.98 392.23 181.03 398.29 180.07ZM425.33 114.34C429.89 114 430.04 114.36 429.01 118.51C426.76 127.6 427.69 136.59 430.2 145.51C430.73 147.37 431.71 148.47 433.59 148.84C436.33 149.39 438.28 151.01 439.23 153.09C449.31 146.67 459.36 140.27 469.01 134.12C468.13 133.61 466.12 133.14 465.83 132.17C464.35 127.21 460.99 123.46 458.38 119.21C449.88 105.4 441.48 91.5199 433.29 77.5299C431.28 74.0899 428.5 72.3499 424.93 71.5299C418.67 70.0899 412.62 70.9899 406.67 73.2599C401.94 75.0599 399.74 78.7499 398.72 83.3299C396.83 91.7399 401.64 97.4099 406.89 102.95C406.11 98.1399 406.92 93.7999 409.39 89.6499C411.49 86.1399 418.51 81.7699 422.38 83.0199C423.15 83.2699 424.05 83.8499 424.37 84.5299C424.59 84.9899 424.1 86.0499 423.63 86.5499C416.62 93.8999 414.82 102.38 418.2 111.9C419.14 114.56 420.66 116.97 423.27 118.82C424 117.21 424.6 115.91 425.32 114.33L425.33 114.34ZM66.3401 89.8599C67.8201 91.5399 69.11 93.2099 70.62 94.6399C73.46 97.3299 74.17 97.4199 77.45 95.2599C80.79 93.0599 84.3801 92.1699 88.33 92.5199C96.47 93.2199 104.61 94.0999 112.77 94.5199C119.19 94.8499 125.63 94.5899 132.54 94.5899C129.1 83.9999 126.68 73.3499 127.37 61.7199C123.86 63.0299 121.04 64.0499 118.24 65.1299C110.03 68.2999 101.76 71.3499 93.6501 74.7799C91.3201 75.7699 89.33 77.7199 87.41 79.4799C85.58 81.1599 84.01 83.1399 82.39 85.0399C80.58 87.1799 78.19 88.0399 75.63 87.3099C71.89 86.2499 68.9501 87.2799 66.3401 89.8699V89.8599ZM454.72 214.27C453.61 214.01 452.52 213.66 451.4 213.52C443.93 212.6 436.44 211.77 428.98 210.8C428.13 210.69 427.36 209.87 426.56 209.39C427.15 208.79 427.63 207.85 428.34 207.64C430.46 207.01 432.64 206.49 434.84 206.23C445.34 204.97 455.67 202.92 465.58 199.23C470.05 197.57 474.39 195.3 477.29 191.38C482.48 184.35 481.11 179.96 475.42 175.87C473.94 174.8 472.17 174.13 470.55 173.26C468.87 172.36 467.3 172.43 465.73 173.58C463.3 175.36 460.84 177.1 458.38 178.83C450.31 184.51 442.23 190.16 434.17 195.84C425.65 201.84 417.13 207.85 408.53 213.92C423.98 216.28 439.33 215.33 454.73 214.28L454.72 214.27ZM62.2 87.7199C60.93 84.5899 58.86 82.9599 55.62 82.8499C53.54 82.7799 51.65 82.3099 51.11 79.9099C50.56 77.4499 52.41 76.4099 54.04 75.2899C54.25 75.1399 54.52 75.0799 54.76 74.9599C57.78 73.3999 60.81 71.8399 64.25 70.0699C61.7 67.5299 59.0401 67.3199 56.4601 67.1199C54.1101 66.9399 52.2 66.1999 50.82 64.2899C52.4734 62.1165 52.89 59.8465 52.07 57.4799C50.88 57.1899 49.0201 59.3399 48.2701 56.4399C49.34 55.7399 50.38 55.0499 51.56 54.2799C51.21 53.0699 50.9 52.0199 50.58 50.9299C48.42 51.4399 46.63 52.7499 44.13 50.9699C45.67 49.7399 47.03 48.8099 48.19 47.6699C48.94 46.9299 49.97 45.8199 49.87 44.9899C49.3 39.8699 48.45 34.7899 47.63 29.2899C43.81 33.0799 43.78 33.0699 41.23 29.3799C40.99 29.0299 40.53 28.8399 39.94 28.3999C38.47 33.6399 37.08 38.5499 35.66 43.6199C39.17 44.2799 39.46 47.0499 39.55 49.4399C39.7 53.2299 39.4401 57.0599 39.0901 60.8499C38.3201 69.3399 34.78 77.0599 32.2 85.0499C31.63 86.8099 30.78 88.3699 32.19 90.2199C34.45 93.2099 36.48 96.3799 38.47 99.2799C45.28 93.2399 54.84 92.8599 62.19 87.7199H62.2ZM71.43 82.9699C72.76 83.3999 74.12 83.8599 75.5 84.2899C77.61 84.9499 79.39 84.6299 80.68 82.6199C81.17 81.8499 81.91 81.2399 82.4601 80.5099C88.5701 72.3599 96.9 67.4999 106.52 64.8999C112.26 63.3499 117.74 61.3199 122.81 59.0299C121.78 52.8899 120.8 47.0099 119.72 40.5699C108.88 47.2099 98.4201 53.7999 87.7701 60.0699C77.12 66.3399 66.27 72.2799 54.63 78.8499C59.85 80.3699 64.44 81.2299 66.17 86.4199C68.06 85.1899 69.56 84.1999 71.44 82.9699H71.43ZM38.7801 23.9699C38.6701 23.8499 38.56 23.7399 38.45 23.6199C38.11 24.1699 37.71 24.6999 37.44 25.2799C33.84 33.1799 31.11 41.3899 29.23 49.8599C27.64 57.0599 25.79 64.2299 24.77 71.5099C23.86 77.9999 23.84 84.6199 23.61 91.1799C23.48 94.8599 23.53 98.5599 23.81 102.23C24.1 105.96 25.28 106.88 28.91 106.36C31.47 106 33.98 105.29 36.92 104.65C36.51 102.79 36.5201 101.25 35.8401 100.11C34.1801 97.2999 32.34 94.5699 30.31 92.0199C28.89 90.2299 28.07 88.5899 28.86 86.2599C30.29 82.0399 31.72 77.8099 32.82 73.4999C34.02 68.8099 35.15 64.0599 35.73 59.2599C36.15 55.7699 36.4001 51.8899 35.2701 48.6999C34.32 46.0199 34.14 43.7099 34.69 41.2099C35.97 35.4399 37.42 29.7099 38.8 23.9699H38.7801ZM394.93 175.51C396.69 176.13 398.33 176.41 399.61 177.24C401.41 178.41 402.93 178.36 404.74 177.36C407.73 175.71 410.88 174.35 413.85 172.68C416.06 171.44 418.11 169.91 419.72 168.85C417.01 166.6 414.47 164.5 411.83 162.31C410.71 162.9 408.68 163.4 407.58 164.68C405.18 167.48 405.33 167.73 402.46 166.16C396.69 162.98 390.99 159.7 385.07 156.35C386.45 160.46 384.55 163.99 383.09 167.51C387.56 169.76 391.86 171.93 396.33 174.18C395.76 174.71 395.42 175.04 394.92 175.51H394.93ZM13.76 34.4999C13.43 36.3599 13.62 38.1499 12.81 39.0099C12.17 39.6999 10.32 39.2499 8.83002 39.3199C9.77002 41.4199 10.53 43.5199 11.65 45.4199C12.15 46.2699 13.34 46.7299 14.26 47.2999C16.13 48.4399 18.23 49.2999 19.87 50.7099C21.84 52.3999 23.44 54.5299 25.17 56.4399C25.97 53.2099 26.78 49.9199 27.54 46.8499C22.86 42.6599 18.39 38.6599 13.75 34.4999H13.76ZM52.24 104.75C54.92 103.3 57.6501 102.02 60.1501 100.39C61.9801 99.1899 63.68 97.6699 65.1 95.9999C65.64 95.3599 65.66 93.6099 65.16 92.9399C64.61 92.1999 62.88 91.4999 62.18 91.8399C57.75 94.0099 53.47 96.4699 49.2 98.7999C50.31 100.97 51.2 102.7 52.25 104.75H52.24ZM47.92 114.68C48.6 113.45 49.62 112.38 49.72 111.24C49.9 109.1 49.95 106.78 49.32 104.77C48.32 101.58 45.26 101.04 42.16 102.47C39.67 103.61 40.77 105.84 39.7 107.45C42.48 109.69 43.2 113.87 47.92 114.69V114.68ZM12.72 53.5699C15.78 58.5599 18.73 63.3599 21.67 68.1599L22.5 68.0199C22.99 65.8799 23.52 63.7599 23.92 61.6099C24.03 61.0299 23.96 60.1899 23.6 59.7799C21.13 56.9599 18.57 54.2199 16.02 51.4299C14.65 52.3099 13.82 52.8599 12.72 53.5699ZM4.06003 26.4399C3.64003 26.5899 3.22002 26.7399 2.80002 26.8999C3.26002 28.8799 3.73003 30.8499 4.19003 32.8299C7.47003 33.0599 7.88004 38.0899 12.14 37.4899C11.55 31.9499 7.29003 29.5699 4.06003 26.4399ZM44.12 17.5899C41.8 23.5499 41.8001 23.6599 44.1501 28.5699C46.9501 25.4399 47.03 21.1799 44.12 17.5899ZM413.65 103.5C415.21 98.6299 416.67 94.0599 418.27 89.0599C413.33 92.9899 411.96 97.4599 413.65 103.5ZM417.79 158.08C418.53 160.17 420.41 160.54 422.2 160.57C422.99 160.59 424.06 159.72 424.5 158.97C424.72 158.59 423.99 157.33 423.38 156.86C421.5 155.38 420.22 155.72 417.8 158.09L417.79 158.08ZM428.29 153.52H421.94C425.65 156.43 425.78 156.43 428.29 153.52ZM434.93 154.97C433.85 151.67 432.74 151.06 430.14 151.79C431.53 152.72 433.03 153.71 434.93 154.97Z" fill="black"/>
</svg>
