<svg width="232" height="402" viewBox="0 0 232 402" fill="none" xmlns="http://www.w3.org/2000/svg">
<path d="M227.97 81.2999C226.1 75.1399 222.56 72.7799 216.61 73.8199L217.36 72.6499C218.71 70.5499 219.99 68.5599 221.3 66.6199C221.38 66.5599 221.48 66.4999 221.58 66.4299C221.86 66.2499 222.13 66.0599 222.37 65.8599C222.64 65.6399 222.91 65.4299 223.22 65.1899C224.02 64.5699 224.94 63.8699 225.7 62.9399C231.75 55.5099 231.7 46.8199 230.98 40.0699C230.19 32.6199 228.42 30.2299 222.52 29.8699C222.69 28.2799 222.83 26.6399 222.44 24.9899C221.32 20.2499 219.15 16.2399 216 13.0799C210.13 7.19992 208.48 6.11993 202.4 8.93993C202.39 8.86993 202.37 8.78993 202.36 8.71993C201.63 4.45993 199.13 1.94994 194.71 1.03994C184.55 -1.06006 175.6 1.63992 167.33 9.29992C165.12 11.3499 164.71 13.3799 164.76 14.7299C164.79 15.4599 164.95 16.1799 165.24 16.8899C164.43 16.9799 163.62 17.2099 162.8 17.5799C160.32 18.6999 157.78 20.3599 155.03 22.6299C153.44 23.9499 152.72 26.4899 152.84 28.3199C153.08 32.1399 153.55 35.9099 154.21 39.5199C154.67 41.9999 154.45 43.6099 153.44 45.2899C151.38 48.7099 150.88 53.9099 152.17 58.5399C152.99 61.4699 154.43 63.9299 156.32 65.6799L144.26 66.4599L143.73 68.0699C143.55 68.6099 143.42 69.1099 143.3 69.5799C143.19 69.9899 143.05 70.5599 142.95 70.6999C137 78.9399 132.59 88.86 129.48 101.02C127.07 110.42 129.76 113.39 136.49 117.9C137.37 118.49 138.32 118.85 139.27 119.14L134.81 127.75C129.5 138.02 125.9 146.81 123.5 155.42C120.85 164.92 121.96 172.83 126.9 179.6C127.67 180.66 128.28 181.9 128.77 182.98C131.96 189.98 131.92 190.21 126.74 195.61C122.76 199.75 122.67 203.65 123.29 206.2C124.36 210.58 125.72 215.71 127.77 220.52C129.64 224.91 132.59 228.75 136.36 231.72C136.18 231.97 136 232.22 135.82 232.46C134.08 234.87 132.43 237.14 130.89 239.53C129.87 241.11 129.57 243.87 130.74 245.46C131.78 246.88 133.55 247.1 134.84 247.26C135.04 247.28 135.24 247.31 135.43 247.34C135.65 247.37 135.86 247.39 136.06 247.38C136.28 248.12 136.44 248.76 136.43 249.27C136.33 253.65 136 258.12 135.68 262.44L135.64 263.02C135.34 267.06 135.03 271.09 134.71 275.19C134.24 281.19 133.76 287.4 133.35 293.51C133.11 297.09 132.65 300.89 130.93 304.43C127.49 311.52 124.52 316.65 117.57 318.04C115.64 318.43 114.02 320.49 113.64 322.18C113.16 324.29 112.69 326.73 113.17 329.07C113.51 330.72 114.27 332.19 114.95 333.53C115.3 334.22 115.67 334.93 115.93 335.6C116.01 335.81 116.08 336.03 116.14 336.23C116.08 336.28 116.02 336.34 115.95 336.39C115.07 337.14 113.42 338.54 112.72 338.54C111.83 338.54 110.95 338.59 110.08 338.64C107.6 338.78 105.25 338.91 103.06 337.9C100.01 336.5 97.0801 336.37 94.5801 337.53C93.5901 337.99 92.6999 338.63 91.9199 339.44C92.6699 336.27 93.3499 333.01 93.9299 329.68C95.0599 323.23 95.8201 316.65 96.5601 310.25C96.9401 306.92 97.34 303.47 97.79 300.06C98.01 298.39 98.39 296.66 98.76 294.97C98.94 294.16 99.11 293.35 99.28 292.54C99.55 291.17 99.89 289.77 100.21 288.4C100.96 285.24 101.74 281.96 101.94 278.6C102.43 270.33 102.8 261.44 102.21 252.46C102.08 250.48 102.3 248.87 102.99 247.31C103.03 247.45 103.07 247.59 103.11 247.73C103.61 249.44 104.95 253.97 109.39 253.96C113.55 253.95 114.94 249.95 115.69 247.8C116.05 246.76 116.25 245.7 116.4 244.72C118.14 246.13 120.47 247.49 123.93 246.53L125.51 246.09L125.74 244.47C126.72 237.58 124.93 231.5 120.43 226.42L120.33 226.3C117.67 223.29 115.37 220.69 115.04 217.03C114.94 215.93 114.48 215.05 114.11 214.34C113.95 214.04 113.8 213.75 113.73 213.55C113.48 212.8 113.48 212.54 113.49 212.48C114.56 204.5 113.3 196.75 112.07 189.22C111.88 188.06 111.69 186.89 111.51 185.73C109.76 174.48 108.1 165.27 106.3 156.76C103.32 142.74 99.9899 128.93 97.4199 118.46C96.3499 114.12 95.09 109.98 93.74 105.59C93.58 105.07 93.42 104.55 93.26 104.03C94.62 104.06 96.2 103.56 97.7 101.69L99 100.07L81.75 80.0799C82.13 79.8099 82.49 79.5999 82.74 79.5699C86.81 79.0399 90.94 78.8399 95 78.9799C98.95 79.1199 101.68 78.8499 103.59 74.0699C103.86 73.3999 104.13 72.7299 104.43 71.9799C106.89 65.8999 109.42 59.6299 109.49 52.5299C113.8 51.1799 117.07 48.4499 118.99 44.5899C121.26 40.0199 121.3 34.3499 119.09 29.0299C117.12 24.2699 112.85 21.7599 108.21 22.6299C106.17 23.0199 104.31 23.8799 102.5 24.7399C100.81 20.3299 98.1601 16.4499 94.6101 13.1699C88.7601 7.76994 79.79 4.96992 71.78 6.04992C66.67 6.73992 59.53 9.25991 54.47 17.3599C50.39 23.8999 48.14 30.7299 47.78 37.6999C42.79 36.8299 39.42 39.7499 36.78 42.7899C33.31 46.7699 34.86 50.9099 36.01 53.9699C36.14 54.3099 36.2599 54.6499 36.3799 54.9799C38.1399 59.9599 41.91 63.9399 46.72 65.8999C50.1 67.2799 53.66 67.5099 56.96 66.5999C56.89 67.2699 56.5899 68.0199 56.1699 69.0199C55.9399 69.5599 55.71 70.1099 55.52 70.6799C55 70.9199 54.49 71.1499 53.98 71.3799L53.8201 71.4499C51.6101 72.4499 49.53 73.3999 47.48 74.4399C45.19 75.5999 43.9601 76.9699 43.8301 78.5199C43.7001 80.0699 42.72 81.1999 41.49 82.6399C40.71 83.5499 39.8199 84.5899 39.1499 85.8199C38.1599 87.6199 36.9999 89.4199 35.8799 91.1599C35.0099 92.5099 34.0199 94.0499 33.1299 95.5699C31.4699 98.3999 29.7801 101.22 28.0901 104.03L27.97 104.22C23.49 111.69 18.8501 119.41 14.8701 127.36C11.6901 133.7 9.17999 140.42 6.72999 146.98C5.67999 149.78 4.59999 152.68 3.47999 155.49C0.979987 161.78 -0.0499149 168.61 0.330085 176.4C0.350085 176.74 0.360124 177.09 0.370124 177.49C0.420124 179.33 0.469958 181.43 1.44996 183.26L1.53004 183.4C3.95004 187.96 6.46007 192.67 9.81007 196.76C12.7501 200.34 16.0801 203.59 19.3201 206.77C20.3401 207.77 21.3501 208.76 22.3501 209.75C19.6401 220.63 21.8201 223.89 30.3501 227.79C30.3501 228.4 30.3501 229.01 30.3501 229.62C30.3301 232.13 30.3199 234.5 30.3799 236.94C30.6299 247.18 30.92 257.9 31.27 269.7L31.3301 271.76C31.4401 275.77 31.5599 279.92 31.8999 284.02C32.2499 288.28 32.6699 292.82 33.6799 297.32C34.6099 301.5 37.3299 303.79 41.3999 303.86C40.9699 304.18 40.6399 304.52 40.3899 304.84C39.2999 306.24 38.9401 308.15 39.3101 310.52C39.9301 314.46 38.8401 318.25 35.8601 322.42C31.0601 329.17 26.0299 335.94 21.1299 342.54L18.79 345.7C16.38 348.95 12.4701 354.22 15.5701 360.54C15.0101 360.83 14.49 361.13 14 361.42C12.55 362.27 11.19 363.08 9.52003 363.02C7.46003 362.95 5.70008 363.69 4.57008 365.09C3.37008 366.58 3.02009 368.6 3.58009 370.78C5.76009 379.3 9.13003 384.99 14.52 389.21C25.29 397.66 37.7799 399.09 50.6899 399.89C52.2599 399.99 53.76 399.81 55.21 399.63C56.35 399.49 57.5301 399.35 58.6001 399.39C59.5201 399.42 60.5701 399.65 61.5901 399.87C62.8801 400.15 64.3301 400.47 65.8401 400.47H66.1299C72.6599 400.29 80.06 400.08 87.29 399.21C96.16 398.14 102.32 395.09 106.67 389.62C107.97 387.98 108.94 385.11 108.16 383.02C107.61 381.57 106.51 380.41 105.05 379.77C103.53 379.1 101.76 379.07 100.21 379.69C98.42 380.41 96.86 380.2 94.01 378.86C91.34 377.6 88.66 376.35 86.02 375.12L84.5601 374.44L85.3999 370.89L82.3401 370.79C80.3701 370.73 79.49 370.7 78.95 370.48C82.24 366.48 84.87 361.66 87.23 355.3C87.42 358.13 88.6401 360.84 90.8501 363.22C94.9301 367.63 98.7199 371.16 102.43 374.01C107.08 377.59 111.95 380.98 116.66 384.27L116.83 384.39C118.93 385.85 121.02 387.32 123.13 388.81L123.49 389.06C123.67 389.19 123.94 389.37 124.07 389.48C127.1 395.6 132.45 399.25 139.16 399.78C141.48 399.96 143.85 400.22 146.16 400.46C150.72 400.95 155.43 401.45 160.21 401.45C162.61 401.45 164.82 401.33 166.95 401.07L169.24 400.8C177.26 399.84 185.55 398.86 193.53 396.36C195.68 395.69 197.92 393.49 198.61 391.36C199.45 388.77 198.2 386.8 194.88 385.51C194.67 385.43 194.47 385.35 194.28 385.27C192.77 384.6 191.24 383.97 189.7 383.33C186.47 382 183.14 380.62 180.15 378.91C174.48 375.68 168.29 373.03 160.23 370.4C160.31 369.47 160.38 368.51 160.37 367.52C160.35 365.23 160.97 364.46 163.13 364.13C166.74 363.57 169.68 361.65 171.63 358.58C172.32 357.5 173.02 356.42 173.72 355.35C175.46 352.68 177.26 349.93 178.83 347.02C187.78 330.44 193.84 314.77 197.34 299.1C200.57 284.65 204.19 268.44 204.8 252L206.73 256.25L209.18 254.59C214.47 251.02 215.15 246.03 215.75 241.61C215.8 241.22 215.86 240.83 215.91 240.44L226.21 243.64L227.09 241.56C228.8 237.52 227.38 234.68 225.96 232.65C225.24 231.63 224.51 230.62 223.78 229.62C222.75 228.2 221.68 226.74 220.69 225.27C220.38 224.8 220.22 224.49 220.14 224.31C221.33 220.55 220.18 217.35 219.15 214.47C218.99 214.03 218.83 213.59 218.68 213.14C218.47 212.5 218.23 211.86 217.98 211.17C216.75 207.81 215.77 205.15 217.12 202.23C217.9 200.55 218.49 198.73 218.88 196.83C220.38 189.52 222.03 180.98 222.51 172.19C223.47 154.5 220.54 140.57 213.3 128.34C212.07 126.26 210.99 124.1 209.85 121.79C209.73 121.55 209.61 121.31 209.49 121.06C210.14 120.82 210.79 120.56 211.42 120.25C212.23 119.86 213.04 119.47 213.92 119.05C216.78 117.69 219.73 116.28 222.5 114.54C224.79 113.1 226.43 110.78 227 108.16C227.53 105.72 227.12 103.3 225.83 101.33C225.22 100.4 224.45 99.6699 223.65 99.0099C229.15 94.6899 230.45 89.2899 228.02 81.2899L227.97 81.2999ZM138.87 371.67C138.87 371.83 138.87 371.99 138.87 372.14L136.12 374.49C135.21 372.32 134.17 370.26 133.16 368.24C132.5 366.92 131.85 365.62 131.24 364.33C133.01 365.2 134.99 365.24 138.85 365.15C138.98 365.15 139.12 365.15 139.25 365.15C139.11 365.97 138.99 366.8 138.92 367.66C138.81 369.04 138.84 370.44 138.86 371.68L138.87 371.67ZM48.1399 372.84L47.8001 373.31L47.3201 373.07L47.9099 372.71L48.1399 372.84ZM39.5801 220.41C37.2701 220.06 34.8899 219.68 32.4299 219.27C32.0799 219.21 31.4801 219.11 31.3601 217.48C31.3301 217.06 31.3201 216.63 31.3101 216.2C32.3701 216.2 33.44 216.2 34.46 216.24C34.8 216.26 35.03 216.34 35 216.31C36.81 217.84 38.2901 219.16 39.5801 220.42V220.41Z" fill="white"/>
<path d="M146.24 227.72C144.65 227.7 143.36 227.35 141.9 226.34C133.34 220.42 129.86 212.18 130.41 202.09C130.52 200.15 131.37 198.21 133.42 197C136.93 194.93 137.91 191.64 137.12 187.73C136.32 183.81 134.54 180.28 132.46 177.11C128.48 171.05 127.84 164.73 129.68 158.07C132.19 148.97 135.68 140.21 139.73 131.68C142.23 126.42 144.6 121.1 147.08 115.7C146.59 115.32 146.14 114.81 145.57 114.55C144.52 114.06 143.39 113.76 142.32 113.3C138.35 111.58 136.32 108.94 136.61 104.22C136.94 98.7198 137.81 93.4098 139.5 88.1998C140.77 84.2798 141.94 80.3098 143.39 76.4598C145.26 71.4898 146.19 71.2298 150.85 73.7998C151.75 74.2898 152.6 74.8598 153.82 75.5998C154.07 74.7898 154.28 74.1198 154.5 73.3898C156.93 72.7798 159.39 71.9298 161.92 71.6198C162.99 71.4898 164.2 72.4798 165.35 72.9598C167.26 75.3998 169.18 77.8398 171.09 80.2798C171.08 81.0398 171.06 81.7898 171.05 82.5498C170.52 85.0398 172.7 85.6098 174.09 86.4898C177.15 88.4198 180.38 90.0798 183.87 92.0398C185.71 89.4198 187.56 86.7898 189.41 84.1598C190.53 84.3898 191.95 84.2598 192.73 84.8998C196.48 87.9798 199.85 91.3398 197.36 96.8898C197.26 97.1098 197.37 97.4098 197.39 97.6798C196.29 99.3098 195.2 100.94 194.1 102.57C192.91 103.28 191.72 103.99 190.52 104.71C191.68 105.69 192.87 106.52 193.82 107.56C195.03 108.88 196.46 109.09 198.08 108.86C199.44 111.29 200.8 113.73 202.17 116.16C204.33 120.53 206.42 124.93 208.67 129.26C211.66 135.01 214.27 140.88 214.89 147.43C215.41 152.88 216.3 158.33 216.36 163.79C216.41 168.04 215.45 172.31 214.92 176.56C214.68 178.49 214.1 180.43 214.17 182.35C214.35 187.6 211.85 192.16 210.62 197.03C209.37 202.01 207.36 206.8 205.76 211.69C205 214.01 204.18 216.36 203.84 218.76C203.53 221.03 202.03 222.01 200.33 222.55C198.25 223.22 196.01 223.39 193.83 223.69C191.51 224.01 189.17 224.23 186.84 224.46C186.05 224.54 185.17 224.71 184.47 224.46C181.13 223.28 177.68 223.87 174.28 223.7C170.38 223.5 166.49 223.24 162.13 222.98C162.33 221.09 162.48 219.58 162.67 218.07C162.72 217.69 163.09 217.27 162.98 216.98C161.67 213.38 163.14 209.79 163.18 206.21C163.23 201.59 164.46 196.98 165.15 192.37C165.55 189.67 165.87 186.96 166.21 184.25C166.49 182.06 166.63 179.83 167.06 177.67C168.57 170.2 170.47 162.8 171.61 155.27C172.13 151.83 173.37 148.36 172.63 144.77C172.56 142.01 172.49 139.25 172.42 136.5C170.25 138.5 171.21 140.91 170.97 143.14C170.45 145.21 169.49 147.27 169.48 149.34C169.44 156.2 166.8 162.49 165.65 169.1C164.81 173.95 163.53 178.73 163.7 183.78C163.81 187.1 162.89 190.45 162.41 193.78C162.13 195.7 161.46 197.64 161.6 199.53C161.96 204.46 159.37 209.27 161.3 214.29C161.88 215.79 161.61 217.73 161.33 219.41C161.16 220.4 160.32 221.37 159.56 222.14C158.44 223.27 157.14 224.22 155.91 225.24C153.06 227.53 149.67 227.76 146.22 227.75L146.24 227.72ZM158.77 103.29C169.6 100.64 171.36 100.86 177.9 107.23C178.54 106.71 179.19 106.17 180.21 105.33C179.09 105.08 178.4 105.07 177.9 104.77C177.23 104.38 176.64 103.81 176.12 103.22C172.8 99.3798 164.03 99.1098 158.77 103.29Z" fill="#DB763B"/>
<path d="M68.0197 230.87C67.9997 229.38 68.9098 229.25 70.1198 229.26C74.6398 229.31 79.1596 229.37 83.6696 229.25C86.5296 229.17 89.3796 228.79 92.6896 228.5C93.0096 229.93 93.5598 231.39 93.6198 232.87C93.9598 241.3 93.9198 249.77 94.5998 258.17C94.8398 261.17 94.3396 264.03 94.4396 266.96C94.5396 269.88 94.8296 272.86 94.3796 275.71C93.6196 280.55 93.1698 285.43 91.5898 290.18C89.7098 295.81 88.1396 301.53 85.6896 306.95C84.3196 309.98 82.8497 312.97 81.4997 316.01C80.4597 318.36 79.6697 320.83 78.5197 323.13C75.8297 328.52 73.1296 333.92 70.1696 339.16C67.7396 343.46 65.0997 347.65 62.2397 351.68C60.2397 354.5 57.6896 356.92 55.4596 359.58C54.9896 360.14 54.8397 360.95 54.5397 361.65L54.5998 361.58C53.4298 362.35 52.2098 363.04 51.1198 363.9C49.1698 365.44 47.3598 367.17 45.3698 368.65C42.0098 371.16 38.3697 370.68 34.5597 369.67C30.5997 368.61 27.0497 367.05 24.0097 364.21C21.5597 361.92 20.7196 359.14 21.1496 356.06C21.4396 353.95 21.9897 351.89 23.3197 349.95C27.7697 343.42 31.9396 336.7 36.1696 330.02C38.6596 326.08 41.0796 322.1 43.4296 318.07C43.9196 317.23 44.1196 316.13 44.1696 315.14C44.2796 313.03 44.1996 310.91 44.1996 308.83C46.2696 307.23 47.6297 308.9 49.0497 310C50.5197 305.07 50.0297 303.3 46.4897 300.8C45.9197 300.4 45.0698 300.31 44.3298 300.24C41.5998 299.97 40.4797 299.11 40.2497 296.54C39.8797 292.49 39.5996 288.43 39.4396 284.37C39.1096 276.2 39.4097 267.97 38.4897 259.87C37.3297 249.68 38.1998 239.52 37.8598 229.36C37.7598 226.46 38.1797 226.14 40.9897 226.09C44.0297 226.04 47.0697 226.08 50.3197 226.08C50.4597 227.26 50.5696 228.26 50.6896 229.26C50.3896 230.36 50.0897 231.46 49.7897 232.56C48.7397 234.57 48.2097 236.73 48.3197 238.97C48.3497 239.52 49.2497 240.03 49.9897 240.8C52.0397 238.68 53.9297 236.8 55.7397 234.85C56.7897 233.72 57.5797 232.32 58.7197 231.31C59.5197 230.61 60.7297 230.39 61.7497 229.95C63.1097 231.85 64.4798 233.74 65.8398 235.64C66.4698 236.42 67.0997 237.21 67.9697 238.29C69.1097 235.67 69.5097 233.7 68.2497 231.68L68.0197 230.86V230.87Z" fill="#0197D2"/>
<path d="M159.02 238.8C159.39 238.11 159.76 237.42 160.28 236.45C171.93 236.84 183.74 236.64 195.43 233.13C196.13 236.59 196.76 239.87 197.47 243.13C198.22 246.57 198.13 251.15 197.53 254.44C197.02 257.26 197.01 260.16 196.51 262.99C195.63 267.97 195.39 273.01 194.43 278.02C192.99 285.53 191.42 292.99 189.34 300.34C187.34 307.42 185.33 314.54 182.68 321.39C179.69 329.12 176.14 336.64 172.54 344.11C170.29 348.78 167.34 353.11 165.03 357.75C163.65 360.54 161.38 361.21 158.74 361.6C156.05 361.99 155.93 362.09 155.86 364.76C155.82 366.62 155.84 368.48 155.86 370.34C155.87 371.98 155.08 372.78 153.43 372.77C151.17 372.76 148.91 372.84 146.65 372.75C143.69 372.63 142.33 371.34 142.35 368.38C142.35 366.47 142.86 364.57 143.15 362.56C144.82 362.44 146.24 362.35 147.65 362.25C147.65 362.15 147.65 362.05 147.65 361.95C144.25 361.32 140.83 360.79 137.45 360.03C133.68 359.18 131.35 356.7 130.3 353C129.53 350.27 128.58 347.58 128.05 344.8C127.83 343.63 128.27 342.19 128.79 341.05C129.89 338.64 131.07 336.42 133.78 335.07C136.07 333.93 137.64 331.96 137.63 328.73C137.62 324.33 138.54 319.94 139.03 315.54C139.13 314.62 139.08 313.68 139.1 312.75C139.37 300.3 139.62 287.85 139.91 275.4C139.98 272.22 140.18 269.04 140.35 265.87C140.51 262.71 140.71 259.56 140.89 256.4C141.63 256.39 142.38 256.38 143.12 256.37C143.38 256.37 143.79 256.46 143.89 256.33C145.51 254.21 147.24 252.15 148.65 249.89C150.01 247.71 151.03 245.32 152.23 242.95C153.16 242.89 154.06 242.83 154.97 242.77C155.27 243.34 155.58 243.91 155.88 244.48C157.22 246.17 156.76 249.03 159.56 250.16C159.87 247.01 160.86 244.13 159.11 241.33C159.07 240.49 159.04 239.65 159 238.81L159.02 238.8Z" fill="#DB763B"/>
<path d="M87.2899 97.8698C88.6099 101.88 89.9899 105.88 91.2499 109.91C92.6299 114.32 94.0998 118.71 95.1598 123.2C96.4598 128.71 97.3798 134.31 98.4598 139.87C93.7298 141.07 89.0099 142.35 84.2599 143.46C79.5999 144.54 74.9299 145.67 70.0799 145.59C69.2999 145.58 68.5099 145.65 67.7399 145.77C64.6799 146.25 61.6199 146.77 58.5599 147.27C56.5699 147.24 54.2698 147.82 52.6798 147C50.9498 146.11 49.1899 146.79 47.5099 146.14C47.2599 144.11 46.9 142.22 46.85 140.32C46.81 139.05 47.2098 137.77 47.3998 136.49C47.6598 134.7 47.9498 132.91 48.1398 131.11C48.2098 130.48 48.0098 129.82 47.9298 129.17C44.9498 140.55 44.24 152.21 42.62 163.56C39.33 164.58 35.9598 162.82 32.9198 165.51C34.0298 165.51 34.69 165.51 35.34 165.51C40.01 165.56 39.7699 165.63 41.0599 170.02C42.9799 176.55 45.1398 183.02 47.4698 189.42C48.1998 191.43 48.3998 193.14 47.4798 195.01C46.1198 196.1 44.7598 197.2 43.3998 198.29C42.8998 198.37 42.2398 198.27 41.9298 198.55C38.2698 201.89 35.3398 205.72 34.1498 211.13C33.0798 210.78 31.7899 210.73 31.0599 210.07C25.8999 205.35 20.68 200.68 15.85 195.64C13 192.66 10.6398 189.14 8.40978 185.65C6.64978 182.9 5.7798 179.71 5.9298 176.37C6.0998 172.75 5.05982 168.94 7.44982 165.63C7.51982 165.54 7.49986 165.37 7.48986 165.24C6.93986 160.35 9.20995 156.09 10.84 151.79C13.4 145.05 16.3599 138.44 19.5599 131.98C21.7499 127.57 23.9 123.12 26.6 118.93C29.31 114.73 31.1399 109.99 33.5599 105.59C35.4899 102.08 37.73 98.7398 39.84 95.3298C41.27 93.0098 42.94 90.8098 44.09 88.3698C44.91 86.6298 46.04 86.4698 47.85 86.6898C48.72 88.8098 49.61 91.0698 50.6 93.2898C51.04 94.2898 51.6999 95.1999 52.2499 96.1499L52.1798 96.0899C52.3198 99.0999 53.4699 101.72 55.2499 104.1C55.5899 104.64 55.9299 105.18 56.2599 105.72C55.9299 108.19 57.2499 109.76 59.0699 111.32C59.5399 110.66 59.8397 110.24 60.1297 109.83C62.0297 107.55 63.7298 105.03 65.9098 103.06C67.6798 101.46 70.03 100.5 72.12 99.2598C77.23 99.6598 77.2099 99.6598 78.7499 104.66C79.0299 105.58 79.5598 106.42 79.9698 107.29C80.2898 108.65 80.5698 110.02 80.9398 111.37C81.5598 113.62 82.0498 113.82 84.6398 113.12C85.5398 109.62 84.2798 106.49 83.1798 103.34C82.9098 102.41 82.6198 101.49 82.3898 100.55C82.1598 99.6198 81.9999 98.6698 81.7999 97.7298C83.6299 97.7798 85.4499 97.8298 87.2799 97.8798L87.2899 97.8698Z" fill="#0197D2"/>
<path d="M58.5496 147.26C61.6096 146.76 64.6695 146.24 67.7295 145.76C68.4995 145.64 69.2896 145.57 70.0696 145.58C74.9196 145.66 79.5895 144.53 84.2495 143.45C88.9995 142.34 93.7195 141.07 98.4495 139.86C98.7995 141.29 99.1596 142.73 99.5696 144.42C98.2196 144.66 97.2596 144.83 96.2896 145C96.2896 145.15 96.2896 145.3 96.2896 145.45C97.6296 145.51 98.9695 145.57 100.48 145.64C101.12 149.64 101.739 153.68 102.439 157.71C102.699 159.22 103.15 160.69 103.54 162.18C104.58 166.17 105.369 170.19 105.679 174.33C105.939 177.91 106.73 181.46 107.36 185.01C107.76 187.28 108.43 189.51 108.75 191.78C109.38 196.13 109.96 200.5 110.36 204.88C110.62 207.73 110.43 210.56 108.86 213.17C108.16 214.32 107.879 215.73 107.419 217.02C111.099 218.18 111.449 219.51 108.909 222.5C108.709 222.73 108.87 223.27 108.87 223.66C108.02 223.96 107.17 224.25 106.32 224.55C105.67 224.5 105.029 224.46 104.419 224.42C102.959 222.48 105.49 221.76 105.74 219.62C104.03 220.84 102.779 221.89 101.379 222.69C100.079 223.43 98.6895 224.19 97.2495 224.45C89.1895 225.87 81.0395 225.14 72.9295 225.29C72.2695 225.3 71.6095 225.28 70.9495 225.29C68.5595 225.34 66.8095 224.34 65.7595 222.17C65.8195 221.16 65.8795 220.15 65.9395 219.1C70.8695 218.17 74.6494 221.81 79.1294 221.96C79.5694 219.26 77.5896 218.35 76.2996 217.23C71.1496 212.75 65.3696 209.19 59.2796 206.14C59.0396 205.03 58.3594 203.79 58.6394 202.84C59.2694 200.68 58.1495 199.43 57.1695 197.76C55.8695 195.56 53.4695 194.2 52.9895 191.35C52.1795 186.5 49.8496 182.19 47.5496 177.89C46.3496 175.65 45.3495 173.28 44.5095 170.88C44.1495 169.84 43.9095 168.08 44.4795 167.5C47.2995 164.64 46.4996 161.17 46.5796 157.83C46.6196 156.01 46.3896 154.16 48.0996 152.76C49.4896 152.76 50.9394 152.76 52.3994 152.76C54.7894 152.75 57.1896 152.9 59.5496 152.67C63.2796 152.31 66.9795 151.64 70.6995 151.18C73.9195 150.78 77.1195 150.37 79.9895 148.69C85.2795 149.23 90.1996 147.81 95.5196 145.83C94.4596 145.72 93.8195 145.49 93.2495 145.62C90.3895 146.26 87.4595 146.77 84.7195 147.78C83.1695 148.35 81.2496 146.88 80.0896 148.8C76.7496 149.12 73.3996 149.38 70.0596 149.78C66.8696 150.16 63.7096 150.76 60.5296 151.15C56.9296 151.58 53.2394 150.44 49.6594 151.89C48.5594 152.33 47.6194 151.5 47.4094 150.29C47.1994 149.07 47.8496 148.12 49.0296 148.03C51.1296 147.87 53.2496 148.05 55.3496 147.94C56.4196 147.88 57.4696 147.5 58.5296 147.27L58.5496 147.26Z" fill="white"/>
<path d="M162.93 63.6199C161.73 63.6999 161.34 61.7099 159.66 62.5699C158.63 63.0999 157.96 61.9499 157.38 60.9299C155.45 57.5099 155.66 53.7999 155.94 50.1599C156.14 47.5099 158.88 45.3999 162.16 44.8599C157.47 40.1999 157.45 34.3299 157.42 28.4199C157.41 25.8699 162.08 21.1499 164.48 20.5299C165.22 20.3399 166.31 20.7699 167 21.2599C168.14 22.0499 169.08 23.1199 170.53 24.4799C171.51 23.8999 172.87 23.0999 174.53 22.1299C173.34 20.8799 172.34 19.8699 171.38 18.8099C169.84 17.1099 169.9 15.4199 171.08 13.5399C173.22 10.1299 176.68 8.89988 180.18 7.65988C180.79 7.44988 181.41 7.22987 181.96 6.89987C184.43 5.43987 187.08 5.03987 189.9 5.24987C191.97 5.40987 194.02 5.00988 195.65 7.06988C196.98 8.74988 198.49 10.0499 198.21 12.5199C198.1 13.5099 198.89 14.6099 199.24 15.5999C201.43 14.4399 203.4 13.5199 205.25 12.3999C207.24 11.1899 208.63 11.7699 210.26 13.2199C213.45 16.0399 215.89 19.4299 217.74 23.1399C218.92 25.5099 220.14 28.3599 217.36 30.8699C216.79 31.3799 216.8 32.5399 216.55 33.3899C217.32 35.1999 218.95 34.9099 220.33 34.7499C224.39 34.2599 226.33 36.6799 226.12 40.5999C225.91 44.5299 225.57 48.3799 224.56 52.1999C224.14 53.8099 224.49 55.6199 224.49 57.6599C221.69 57.6599 221.63 62.1999 218.13 61.0999C215.94 59.8699 213.75 58.7299 211.2 60.2499C210.91 60.4299 210.42 60.2899 210.03 60.2899C209.53 60.0099 208.65 59.7899 208.59 59.4299C208.39 58.2799 208.48 57.0899 208.5 55.9099C208.52 54.7999 207.81 54.6699 206.96 54.7099C201.51 53.2199 200.76 52.3899 200.45 47.4299C200.48 44.9599 200.57 42.5099 203.03 40.0299C198.54 41.0099 194.87 42.5899 190.93 41.8999L190.99 41.9499C190.45 40.0699 189.9 38.1799 189.36 36.2999C189.89 34.3399 190.56 32.3899 190.86 30.3899C190.94 29.8399 189.92 29.1199 189.41 28.4799C189.01 27.9299 188.68 26.9799 188.18 26.8799C186.27 26.4999 184.68 27.3399 183.18 28.5499C179.15 31.7999 174.88 34.6599 169.93 36.3899C169.11 36.6799 168.23 37.5099 167.88 38.3199C166.91 40.5499 166.21 42.8999 165.41 45.2099C164.95 45.3499 164.14 45.4099 164.08 45.6499C163.15 49.4999 162.13 53.3399 161.52 57.2499C161.24 59.0399 160.94 61.2099 163.01 62.5099C162.98 62.8799 162.95 63.2499 162.92 63.6199H162.93Z" fill="#BF9577"/>
<path d="M57.81 77.7299C58.32 77.4899 59.2 77.3299 59.27 76.9899C59.97 73.8499 60.5301 70.6899 61.1201 67.5999C61.9101 67.4799 62.51 67.3899 63.07 67.2999C61.35 64.7299 59.7099 62.2799 57.9399 59.6399C57.8399 60.5799 57.7499 61.3999 57.6499 62.2299C52.4699 63.1899 48.1 60.7699 46.04 55.6499C45.88 56.7099 45.75 57.5799 45.58 58.6999C44.86 58.5999 43.7999 58.6399 43.7299 58.3999C43.1499 56.3699 39.92 55.5099 41.27 52.5299C42.11 52.3899 43.0499 52.2299 43.9899 52.0699C41.8599 51.5499 39.7399 51.2399 39.3999 48.5199C39.1799 46.7799 41.7699 42.9399 43.7199 42.1199C45.5799 41.3399 47.49 42.0899 49.3 44.2299C49.98 45.0399 50.8 45.7299 51.53 46.4999C52.36 47.3799 52.5 48.2799 51.55 49.1899C50.03 48.9899 48.5099 48.7999 46.9599 48.5999C46.4199 49.4699 45.8699 50.3599 45.4799 50.9899C47.5799 50.5999 49.55 50.2299 51.53 49.8599C52.62 50.6899 53.7199 51.5199 55.4599 52.8399C55.1099 49.8099 54.8199 47.3499 54.4799 44.4399C58.9799 44.1399 63.3599 43.8299 67.7399 43.5899C68.1299 43.5699 68.5499 44.0399 68.9499 44.2799C68.5599 47.8099 72.05 51.2499 74.55 51.3499C77.44 51.4699 80.23 52.4499 83.33 51.6599C88.13 50.4299 90.21 48.5799 90.52 43.4599C90.92 41.9599 91.33 40.4499 91.75 38.8599H97.1999C97.8499 40.5699 98.2399 42.3599 99.1499 43.8199C100.34 45.7399 100.93 48.5199 104.09 48.3699L103.98 48.2999C104.26 49.0099 104.86 49.7699 104.76 50.4199C104.05 54.8499 103.49 59.3499 102.29 63.6599C101.41 66.8099 99.7399 69.7599 98.2099 72.6899C97.7899 73.4899 96.6699 74.1399 95.7299 74.4099C91.9999 75.4899 88.2 76.3899 84.29 76.2099C82.53 76.1299 80.78 75.5899 79.3 75.3099C78.42 76.7299 78.01 78.1799 77.07 78.7799C72.92 81.3899 71.6999 85.1499 72.1599 89.7399C71.4399 90.6799 70.7099 91.6199 69.9799 92.5799C65.6299 88.7999 60.0701 86.2799 56.1201 81.6699C56.7101 80.3099 57.27 79.0399 57.83 77.7599L57.81 77.7299Z" fill="#F6D3B8"/>
<path d="M162.93 63.6199C162.96 63.2499 162.99 62.8799 163.02 62.5099C163.13 61.5299 163.23 60.5499 163.36 59.3899H168.21C168.92 58.0399 169.68 56.9499 170.09 55.7399C171.47 51.7099 171.33 51.4699 167.58 49.0499C166.19 48.1499 165.15 47.0499 165.42 45.2099C166.23 42.9099 166.93 40.5599 167.89 38.3199C168.24 37.5199 169.12 36.6799 169.94 36.3899C174.89 34.6499 179.16 31.7999 183.19 28.5499C184.69 27.3399 186.28 26.4999 188.19 26.8799C188.69 26.9799 189.01 27.9199 189.42 28.4799C189.15 31.0799 188.88 33.6799 188.61 36.2799C188.48 38.5599 188.64 40.7199 191 41.9599L190.94 41.9099C192.19 43.1299 193.35 44.0099 195.36 43.0399C196.52 42.4799 198.11 42.8199 199.81 42.7399C199.62 44.0799 199.34 44.9699 199.44 45.8199C199.5 46.3899 200.11 46.8999 200.47 47.4299C200.78 52.3799 201.53 53.2199 206.98 54.7099C206.69 56.7499 206.79 58.9499 206.02 60.7899C204.61 64.1299 204.02 67.8999 201.31 70.6299C199.45 72.4999 197.58 74.3699 195.72 76.2499L195.79 76.1799C192.93 77.3899 190.08 78.5899 186.75 79.9999C188.16 80.1699 189.04 80.2699 190.36 80.4299C190.02 81.8099 189.72 82.9899 189.43 84.1699C187.58 86.7999 185.73 89.4399 183.89 92.0499C180.4 90.0899 177.17 88.4299 174.11 86.4999C172.71 85.6199 170.54 85.0399 171.07 82.5599C173.93 82.6399 176.81 83.1299 179.46 82.3199C176.75 81.6599 173.93 80.9698 171.12 80.2898C169.21 77.8498 167.29 75.4099 165.38 72.9699C165.09 71.7699 165.07 70.4099 164.45 69.4199C163.3 67.5999 162.96 65.6899 162.97 63.6299L162.93 63.6199ZM198.1 56.1699C197.44 55.1599 196.84 54.2999 196.31 53.3999C194.76 50.7399 193.75 50.1899 190.98 50.7799C189.6 51.0799 188.27 51.6299 186.89 51.9499C183.12 52.8099 180.57 54.8599 179.91 58.8899C180.73 60.5899 182.09 61.2799 184.05 61.1099C185.49 60.9799 187.12 60.6899 188.37 61.1999C191.18 62.3499 193.7 61.8299 196.16 60.7399C196.8 59.2399 197.4 57.8099 198.1 56.1699ZM187.86 69.8499C184.93 69.8499 182.31 69.7599 179.69 69.8799C177.88 69.9599 177.07 71.0299 177.47 72.8099C177.68 73.7599 178.35 74.5999 178.76 75.3999C182.54 74.9099 185.42 73.8199 187.26 72.0399C187.63 71.6799 187.59 70.8999 187.86 69.8399V69.8499Z" fill="#F1BA91"/>
<path d="M130.37 380.01C131 381.51 131.63 383 132.32 384.63C133.39 383.04 135.8 383.36 136.67 381.45C137.82 381.65 139.06 381.63 140.09 382.1C144.61 384.15 148.58 386.96 151.88 391.11C153.08 391.11 154.53 391.09 155.97 391.11C158.2 391.16 160.58 390.78 162.63 391.44C164.5 392.04 165.59 391.48 166.86 390.62C167.127 387.76 168.69 386.323 171.55 386.31C175.38 386.29 179.21 386.25 183.04 386.22C187.17 385.96 190.94 387.25 194.97 389.07C194.84 389.94 195.05 391.33 194.48 391.82C193.24 392.88 191.67 393.98 190.12 394.18C184.6 394.9 179.22 396.33 173.64 396.89C168.36 397.42 163.12 397.1 157.88 397.51C152.84 397.9 148.1 396.3 143.23 395.56C142.47 395.44 141.71 395.08 140.96 395.12C136.48 395.34 133.52 392.52 130.43 389.97C128.96 388.75 129.16 387.58 131.56 386.36C127.13 387 124.9 384.08 122.19 382.41C116.46 378.89 111.8 373.89 106.11 370.22C103.86 368.77 101.95 366.61 100.32 364.45C98.8899 362.54 97.9599 360.22 96.9999 358C96.4199 356.65 96.6399 354.88 94.7799 354.32C94.7799 351.98 94.63 349.63 94.84 347.31C94.94 346.25 95.7699 345.27 96.2599 344.24C96.8499 342.98 97.4299 341.72 98.0599 340.36C103.28 339.82 104.56 340.63 104.9 344.8C105.19 348.16 104.09 351.28 102.82 354.25C102.15 355.81 102.67 356.91 103.4 357.87C105.19 360.22 107.19 362.41 109.13 364.64C110.14 365.8 111.29 366.19 112.87 365.65C115.08 364.89 117.11 365.28 118.75 367.15C121.47 370.26 124.25 373.32 127.02 376.39C128.11 377.6 129.24 378.79 130.35 379.99L130.37 380.01Z" fill="#FBECD1"/>
<path d="M70.4596 35.6598C69.2196 35.9798 68.8696 36.8498 68.9096 38.0298C68.9596 39.4598 68.9196 40.8998 68.9196 42.7398C66.4896 42.7398 64.2697 42.6398 62.0597 42.7698C60.1297 42.8798 58.1997 43.1998 56.2897 43.5098C54.0997 43.8698 53.2096 43.1198 52.9496 40.8398C52.2196 34.5898 53.3096 28.3398 55.6396 22.8498C57.9396 17.4098 61.6496 12.0398 68.1996 10.4098C76.0996 8.4398 83.4197 9.4798 90.0697 14.7298C95.6397 19.1098 98.6697 24.7598 100.06 31.4998C99.4997 33.1498 98.9396 34.7898 98.3796 36.4398C96.1696 37.5598 93.9396 38.6298 91.6596 37.7298C91.2096 36.5998 90.8697 35.7198 90.5197 34.8398C90.2297 34.2598 89.9996 33.6298 89.6296 33.0998C87.6496 30.2198 84.4996 28.2898 81.4296 28.6298C78.2496 28.9798 75.2097 31.1498 72.2497 32.7898C71.3897 33.2698 71.0396 34.6598 70.4596 35.6298V35.6598Z" fill="#F6D3B8"/>
<path d="M14.6697 368.75C14.6697 368.1 14.6697 367.44 14.6697 366.82C15.9197 366.47 17.0296 366.13 18.1396 365.85C20.4396 365.26 22.4997 365.38 24.1497 367.46C26.4897 370.42 30.3497 370.39 33.4197 371.93C34.6497 372.55 36.1098 372.7 37.7698 373.15C37.6998 374.18 37.6198 375.29 37.5298 376.59C38.6098 376.68 40.0099 376.79 41.3699 376.9C42.0899 377.71 41.4597 379.36 43.4497 379.33C44.1797 379.33 44.9299 381.11 45.8699 382.35C46.2099 382.16 47.0198 381.99 47.3398 381.49C48.5198 379.65 49.5199 377.69 50.6099 375.79C52.0799 373.23 54.2397 371.52 57.1997 371.22C61.2297 370.82 65.3098 370.82 69.3298 370.32C73.2998 369.83 75.3399 371.31 76.6099 375.93H80.8098C80.7098 377.05 80.6198 377.95 80.5298 378.89C81.7198 378.69 83.0498 378.46 84.7898 378.16C84.6798 379.44 84.5897 380.36 84.4897 381.5C85.0097 381.44 85.6197 381.36 86.2197 381.3C87.0697 381.21 88.0397 380.85 88.7397 381.13C90.3997 381.79 91.9597 382.73 93.4697 383.69C93.5897 383.77 93.2298 385.22 92.7798 385.46C91.0398 386.39 89.1699 387.08 87.3599 387.86C86.2699 389.5 84.5497 388.31 83.1997 388.8C80.0597 388.8 76.9098 388.8 73.7698 388.8C69.7298 388.97 66.0697 388.31 62.6897 385.66C60.4297 383.89 57.3396 383.59 54.3896 383.93C52.0696 384.2 51.3298 385.65 52.2598 387.97C52.1498 388.76 52.0697 389.53 50.9397 389.5C46.2497 389.41 41.5197 389.96 36.9397 388.31C36.0097 387.97 34.9096 388.09 33.8796 388C31.4396 386.75 29.2999 385.14 27.5999 382.95C27.1399 382.36 26.3398 381.59 25.7498 381.63C23.0398 381.82 22.5598 379.89 21.8398 378.03C21.3798 376.84 20.8598 375.58 20.0598 374.61C18.3698 372.56 16.4697 370.68 14.6597 368.73L14.6697 368.75Z" fill="#80B7E1"/>
<path d="M194.1 102.57C195.2 100.94 196.29 99.3098 197.39 97.6798C199.73 98.2098 198.59 95.8399 199.53 95.0799C201.24 93.6999 200.96 91.5498 200.19 89.9798C198.33 86.2298 195.66 83.1498 191.19 82.2198C190.74 80.5498 190.85 79.2699 192.83 78.4799C193.95 78.0399 194.81 76.9599 195.79 76.1699L195.72 76.2398C196.87 76.4998 198.07 75.6998 199.21 77.2398C199.77 77.9998 202.13 77.6698 203.62 77.4298C204.99 77.2098 206.24 76.3898 207.59 75.9398C208.53 75.6298 209.53 75.5199 210.38 75.3499C211.62 77.2699 209.82 79.8098 212.45 80.9898C213.46 80.3798 214.5 79.5999 215.65 79.0799C218.52 77.7799 221.72 79.0798 222.59 82.0398C223.17 84.0098 223.54 86.0998 223.62 88.1598C223.71 90.5498 222.9 92.6998 221.05 94.4398C219.26 96.1298 217.22 97.6799 216.47 100.53C218.26 101.56 220.1 102.62 221.99 103.7V109.5C217.02 111.8 212.02 114.07 207.05 116.42C205.34 117.23 203.77 116.95 202.19 116.14C200.83 113.71 199.47 111.27 198.1 108.84C197.56 108.16 197.15 107.2 196.44 106.86C194.51 105.96 194.21 104.35 194.11 102.56L194.1 102.57Z" fill="#BF9577"/>
<path d="M54.5298 361.66C56.7698 359.3 59.0797 357 61.2297 354.57C63.5597 351.94 65.8597 349.28 67.9597 346.48C71.5297 341.7 75.3898 337.11 77.7698 331.51C78.5898 329.59 79.8797 327.86 80.9797 326.06C83.2097 322.43 85.2498 318.71 86.5598 314.61C86.9198 313.49 87.0997 311.46 89.4397 312.49C90.3097 316.67 89.3497 320.8 88.4597 324.82C86.6697 332.86 84.7499 340.9 82.3699 348.78C80.5099 354.93 78.2497 361.05 74.1797 366.21C73.5797 366.98 72.6197 367.61 71.6897 367.95C67.3997 369.54 62.8598 370.03 58.3498 370.3C56.1998 370.43 53.9997 369.73 51.7497 369.39C50.8297 367.28 51.4999 365.69 53.1199 364.19C53.8199 363.54 54.1199 362.46 54.6099 361.58L54.5498 361.65L54.5298 361.66Z" fill="#0197D2"/>
<path d="M57.8096 77.7298C57.2496 79.0098 56.6897 80.2798 56.0997 81.6398C60.0397 86.2498 65.5995 88.7697 69.9595 92.5497C70.6995 91.5897 71.4195 90.6498 72.1395 89.7098C73.3895 89.9698 73.7196 89.3998 73.7296 88.2098C73.7396 86.8398 73.1095 85.0798 74.9195 84.3798C76.7495 83.6798 78.7296 84.1597 80.0196 85.4197C82.3396 87.6797 84.3395 90.2898 86.4395 92.7698C87.1895 93.6498 87.9996 94.5198 88.5496 95.5198C89.2696 96.7998 89.0296 97.8098 87.2696 97.8698C85.4396 97.8198 83.6196 97.7697 81.7896 97.7197C80.0596 97.5297 78.2797 96.9897 76.6197 97.2397C75.0497 97.4797 73.5997 98.5397 72.0897 99.2397C69.9997 100.48 67.6495 101.44 65.8795 103.04C63.6995 105.02 61.9997 107.53 60.0997 109.81C59.3097 109.26 58.4096 108.82 57.7696 108.14C57.1196 107.45 56.7296 106.52 56.2296 105.7C55.8896 105.16 55.5496 104.62 55.2196 104.08C55.0896 101.94 53.7495 98.4298 52.1495 96.0698L52.2196 96.1298C51.5796 93.7998 50.9296 91.4798 50.2896 89.1498C49.5796 86.5798 48.7296 84.0297 48.2396 81.4097C48.0496 80.4097 48.3696 78.8497 49.0596 78.2397C51.3596 76.2097 54.0496 74.7598 57.5296 74.5098C57.6296 75.6998 57.7096 76.6998 57.7896 77.6998L57.8096 77.7298Z" fill="white"/>
<path d="M59.2797 206.14C65.3797 209.19 71.1498 212.75 76.2998 217.23C77.5898 218.35 79.5596 219.26 79.1296 221.96C74.6496 221.81 70.8697 218.17 65.9397 219.1C65.8797 220.15 65.8197 221.16 65.7597 222.17C65.1197 225.43 66.8797 228.07 68.0197 230.87L68.2497 231.69C68.1497 232.97 68.0497 234.26 67.9397 235.66H65.8398C64.4798 233.76 63.1097 231.87 61.7497 229.97C61.3597 228.66 60.9597 227.36 60.4497 225.66C59.6297 226.26 58.7296 226.57 58.6296 227.04C57.8296 230.93 54.7098 233.3 52.5998 236.31C52.1698 236.93 50.9997 237.03 49.7797 237.54C49.7797 235.43 49.7797 234 49.7797 232.57C50.0797 231.47 50.3796 230.37 50.6796 229.27C51.4296 227.43 52.3196 225.63 52.9096 223.74C53.5196 221.77 52.2997 220.19 49.7697 219.76C48.6697 219.57 48.0296 219.39 48.1496 218.17C50.4796 213.92 53.9797 210.6 57.0197 206.92C57.7697 206.65 58.5297 206.39 59.2797 206.12V206.14Z" fill="#F6D3B8"/>
<path d="M70.46 35.6599C71.04 34.6899 71.39 33.2999 72.25 32.8199C75.2 31.1799 78.24 29.0099 81.43 28.6599C84.5 28.3199 87.6499 30.2499 89.6299 33.1299C89.9999 33.6599 90.23 34.2899 90.52 34.8699C90.52 37.7299 90.52 40.5899 90.52 43.4499C90.21 48.5699 88.1301 50.4199 83.3301 51.6499C80.2301 52.4499 77.4501 51.4599 74.5501 51.3399C72.0501 51.2399 68.56 47.7998 68.95 44.2698C69.21 43.5198 69.58 42.7898 69.7 42.0198C70.01 39.9098 70.22 37.7799 70.46 35.6599Z" fill="white"/>
<path d="M183.04 386.24C179.21 386.27 175.38 386.31 171.55 386.33C168.683 386.343 167.12 387.78 166.86 390.64C165.59 391.5 164.49 392.06 162.63 391.46C160.59 390.8 158.21 391.17 155.97 391.13C154.53 391.1 153.08 391.13 151.88 391.13C148.59 386.98 144.61 384.17 140.09 382.12C139.06 381.65 137.82 381.67 136.67 381.47C136.38 379.26 138.04 377.88 139.18 376.47C140.58 374.73 143.14 374.79 145.15 376.03C146.01 376.56 146.91 377.04 147.79 377.54C149.82 379.71 151.85 381.89 154.07 384.26C155.44 382.74 158.04 383.27 158.38 380.72C159.32 380.21 160.14 379.77 159.53 378.35C159.09 377.32 159.13 376.09 158.93 374.79C160.63 374.3 161.93 374.27 163.53 375.05C167.54 377 171.76 378.54 175.81 380.41C177.89 381.36 179.71 382.89 181.82 383.74C183.29 384.33 182.87 385.31 183.05 386.25L183.04 386.24Z" fill="#EFB445"/>
<path d="M130.37 380.01C129.26 378.81 128.13 377.62 127.04 376.41C124.27 373.34 121.49 370.28 118.77 367.17C117.13 365.29 115.09 364.9 112.89 365.67C111.3 366.22 110.16 365.83 109.15 364.66C107.21 362.43 105.2 360.24 103.42 357.89C102.69 356.93 102.17 355.83 102.84 354.27C104.11 351.29 105.21 348.18 104.92 344.82C105.26 344.2 105.61 343.58 106.13 342.63C106.78 342.6 107.82 342.42 108.83 342.51C112.79 342.88 112.9 343.67 113.75 347.42C114.52 350.82 113.35 354.7 116.05 357.65L115.97 357.57C116.88 359.69 118.39 359.6 120.12 358.69C123.38 356.96 123.49 357.06 124.98 360.51C127.26 365.77 129.67 370.98 131.97 376.23C132.41 377.24 132.61 378.35 133.03 379.78C131.86 379.88 131.12 379.95 130.38 380.01H130.37Z" fill="#EFB445"/>
<path d="M14.67 368.75C16.48 370.7 18.3801 372.58 20.0701 374.63C20.8701 375.6 21.3801 376.85 21.8501 378.05C22.5701 379.92 23.0501 381.85 25.7601 381.65C26.3501 381.61 27.1502 382.38 27.6102 382.97C29.3102 385.16 31.4499 386.77 33.8899 388.02C37.0099 390.92 41.0801 390.65 44.8401 391.02C48.7501 391.41 52.7301 391.11 56.5501 391.11C57.3101 392.84 56.73 393.85 55.44 394.22C51.47 395.35 47.3501 395.43 43.3101 394.98C39.0801 394.51 34.86 393.67 30.72 392.67C20.57 390.23 12.4401 385.26 9.09014 374.62C8.78014 373.63 8.49999 372.64 8.18999 371.65C7.23999 368.62 7.55004 368.02 10.49 368.03C11.88 368.03 13.27 368.49 14.67 368.74V368.75Z" fill="#016FB3"/>
<path d="M83.2097 388.82C84.5597 388.33 86.2799 389.51 87.3699 387.88C91.3299 388.37 94.7898 386.75 98.2498 385.24C101.04 384.02 101 383.93 104.57 384.1C104.66 385.17 104.76 386.29 104.88 387.64C101.74 389.3 98.8397 391.29 95.6397 392.43C92.0097 393.72 88.1398 394.59 84.3098 395.03C79.0998 395.63 73.8198 395.82 68.5598 395.85C65.5898 395.86 62.6197 395.18 59.6497 394.81C59.3797 390.28 60.0698 391.57 56.0598 389.85C54.7698 389.3 53.5398 388.62 52.2798 388.01C51.3498 385.69 52.0797 384.25 54.4097 383.97C57.3597 383.62 60.4497 383.93 62.7097 385.7C66.0897 388.35 69.7598 389.01 73.7898 388.84C76.4798 389.83 80.5198 389.83 83.2198 388.84L83.2097 388.82Z" fill="#016FB3"/>
<path d="M200.45 230.8V227.99C195.39 230.82 190.09 232.09 184.52 232.5C182.58 232.64 180.65 233.25 178.73 233.23C175.2 233.18 171.7 233.44 168.12 232.65C165.44 232.06 162.44 232.89 159.32 233.1V226.21C160.2 226.28 161.56 225.97 162.05 226.49C163.49 228 165.18 227.67 166.86 227.68C170.97 227.71 175.12 228.01 179.2 227.61C185.67 226.98 192.23 227.23 198.58 225.35C201.77 224.4 204.21 222.75 205.64 219.78C206.24 218.54 206.39 217.07 208.27 217.01C208.62 217 208.89 216.18 209.31 215.91C210.07 215.42 210.92 215.06 211.87 214.58C212.59 215.99 213.21 216.98 213.63 218.05C214.51 220.28 214.49 222.3 212.52 224.13C209.25 227.16 205.82 229.84 201.38 230.91C201.07 230.87 200.77 230.84 200.46 230.8H200.45Z" fill="#DB763B"/>
<path d="M98.3799 36.4597C98.9399 34.8097 99.5001 33.1697 100.06 31.5197C101.25 30.2097 102.37 28.8097 103.66 27.6097C107.13 24.3797 113.88 26.0098 115.36 30.9098C116.7 35.3498 117.19 39.3097 114.88 43.4897C113.07 46.7597 110.68 48.7197 106.76 48.3297C105.84 48.2397 104.9 48.2898 103.97 48.2798L104.08 48.3498C103.42 47.5698 102.84 46.7098 102.09 46.0298C100.07 44.2098 98.9499 42.0998 99.1699 39.2798C99.2399 38.3598 98.6601 37.3898 98.3701 36.4498L98.3799 36.4597Z" fill="white"/>
<path d="M159.02 238.8C159.06 239.64 159.089 240.48 159.129 241.32C159.039 242.31 158.94 243.31 158.84 244.34C157.7 244.39 156.799 244.43 155.889 244.47C155.589 243.9 155.279 243.33 154.979 242.76C154.299 241.98 154.539 240.1 152.919 240.55C152.169 240.76 151.56 241.88 151.11 242.72C149.85 245.08 148.72 247.51 147.49 250.02C146.53 249.95 145.66 249.88 144.76 249.81C144.72 248.96 144.689 248.31 144.659 247.65C144.649 246.56 144.64 245.46 144.62 244.37C145.78 242.92 145.7 241.35 145.12 239.41C143.64 240.61 141.42 240 140.58 242.05C140.34 241.99 140.109 242 139.879 242.1C138.419 242.38 136.95 242.66 134.81 243.07C135.3 241.67 135.42 240.81 135.86 240.16C138.26 236.64 140.659 233.13 143.229 229.74C143.919 228.83 145.209 228.39 146.229 227.73C149.679 227.75 153.059 227.51 155.919 225.22C156.719 225.3 157.389 225.37 157.459 226.49C157.649 229.57 157.93 232.64 158.26 235.71C158.37 236.76 158.75 237.78 159 238.81L159.02 238.8Z" fill="#F1BA91"/>
<path d="M106.32 224.56C107.17 224.26 108.02 223.97 108.87 223.67C109.97 223.39 111.08 223.11 112.19 222.83C115.86 228.71 122.72 232.68 122.33 240.76C120.77 241.67 119.64 241.26 118.41 240.16C116.01 238.01 113.44 236.05 110.24 233.44C110.67 237.56 111.01 240.73 111.37 244.2C109.96 244.31 108.84 244.4 107.82 244.48C107.56 244.11 107.31 243.92 107.27 243.69C106.97 241.91 106.81 240.09 106.38 238.34C106.14 237.37 105.45 236.52 104.7 235.13C103.01 237.82 101.66 239.95 100.37 242C98.6099 242.16 97.6697 241.5 97.6497 239.81C97.6297 238.35 97.6996 236.89 97.6296 235.43C97.5096 233.11 97.3099 230.79 97.1099 228.01C99.6199 226.2 103.79 227.36 106.32 224.56Z" fill="#F6D3B8"/>
<path d="M57.03 206.93C53.98 210.61 50.4899 213.94 48.1599 218.18C45.8199 218.72 44.2901 217.06 42.5601 216.04C40.4901 214.81 38.54 213.4 36.21 211.85C36.28 207.96 38.7201 204.85 41.0801 201.71C41.9101 200.61 43.5699 200.07 43.3999 198.29C44.7599 197.2 46.12 196.1 47.48 195.01C50.59 194.97 53.42 195.38 54.28 199.09C54.33 199.31 54.6901 199.44 54.8201 199.66C56.2101 201.89 57.36 204.19 57.02 206.94L57.03 206.93Z" fill="white"/>
<path d="M122.39 339.32C120.53 336.39 118.7 333.48 117.43 330.2C116.76 328.46 116.92 327.1 117.29 325.36C117.74 323.25 118.93 322.88 120.6 322.17C124.84 320.37 128.51 317.76 130.97 313.65C131.71 312.41 132.54 310.37 135.06 311.9C134.96 314.31 134.85 316.81 134.55 319.42C134.11 323.3 133.11 327.08 132.83 330.93C132.7 332.72 131.36 333.97 130.67 334.15C128.38 334.75 127.24 336.51 125.78 337.93C124.75 338.93 123.74 339.55 122.3 339.27L122.37 339.33L122.39 339.32Z" fill="#DB763B"/>
<path d="M200.45 230.8C200.76 230.84 201.06 230.87 201.37 230.91C201.13 232.55 202.14 232.72 203.28 232.35C206.73 231.22 209.75 229.31 212.47 226.95C215.08 224.69 216.33 224.78 218.04 227.41C219.58 229.78 221.24 232.08 222.79 234.45C223.24 235.15 223.5 235.97 223.94 236.96C219.11 237.97 216.05 235.01 212.31 233.33C208.31 235.34 210.92 239.39 209.9 242.37C208.033 242.67 206.41 241.537 205.03 238.97C204.55 240.05 204.31 241.13 203.67 241.86C203.11 242.5 202.1 242.74 201.2 243.2C200.14 240.31 199.18 237.82 198.32 235.29C197.55 233.04 198.14 231.89 200.45 230.81V230.8Z" fill="#F1BA91"/>
<path d="M210.04 60.29C210.43 60.29 210.92 60.4199 211.21 60.2499C213.76 58.7299 215.95 59.87 218.14 61.1C217.63 68.74 210.39 74.44 202.03 73.51C202.29 72.52 202.54 71.5799 202.79 70.6499C203.99 68.5899 205.3 66.5799 206.35 64.4399C207.22 62.6699 208.22 61.15 210.04 60.29Z" fill="#F1BA91"/>
<path d="M122.32 339.26C122.86 339.9 123.759 340.48 123.889 341.2C124.459 344.36 124.8 347.57 125.25 350.93C123.71 351.99 122.01 351.07 120.86 350.01C118.61 347.94 115.69 346.13 116.01 342.29C118.03 341.11 119.409 338.55 122.389 339.32L122.32 339.26Z" fill="#DB763B"/>
<path d="M158.36 380.71C158.02 383.26 155.42 382.73 154.05 384.25C151.83 381.88 149.8 379.7 147.77 377.53C147.83 376.88 147.899 376.23 147.969 375.49C150.959 375.13 153.97 374.78 157.08 374.41C157.51 376.55 157.93 378.64 158.36 380.73V380.71Z" fill="white"/>
<path d="M116.04 357.65C115.78 355.12 115.52 352.6 115.2 349.51C116.48 349.79 118.22 349.74 118.43 350.29C119.32 352.6 123.61 351.08 123.11 354.81C120.73 355.57 119.19 358.61 115.97 357.57L116.05 357.65H116.04Z" fill="white"/>
<path d="M139.89 242.09C140.12 242 140.35 241.98 140.59 242.04C142.86 241.21 143.19 243.75 144.63 244.36C144.64 245.45 144.65 246.55 144.67 247.64C143.7 247.49 143.17 247.87 143.16 248.88C143.16 251.37 143.15 253.87 143.14 256.36C142.4 256.37 141.65 256.38 140.91 256.39C140.83 252.88 140.82 249.36 140.65 245.85C140.59 244.58 140.16 243.33 139.9 242.07L139.89 242.09Z" fill="#CB6D36"/>
<path d="M171 143.12C171.25 140.9 170.28 138.48 172.45 136.48C172.52 139.24 172.59 142 172.66 144.75C172.11 144.2 171.55 143.66 171 143.11V143.12Z" fill="#331C0E"/>
<path d="M51.5295 49.8499C49.5495 50.2199 47.5795 50.5899 45.4795 50.9799C45.8695 50.3499 46.4195 49.4698 46.9595 48.5898C48.5195 48.7898 50.0396 48.9898 51.5496 49.1798C51.4496 49.3998 51.4395 49.6098 51.5195 49.8398L51.5295 49.8499Z" fill="#EBCAB0"/>
<path d="M194.1 102.57C194.2 104.37 194.5 105.97 196.43 106.87C197.14 107.2 197.55 108.17 198.09 108.85C196.47 109.08 195.04 108.87 193.83 107.55C192.87 106.51 191.69 105.69 190.53 104.7C191.73 103.99 192.92 103.28 194.11 102.56L194.1 102.57Z" fill="#0B0604"/>
<path d="M83.1895 103.33C84.2895 106.49 85.5494 109.61 84.6494 113.11C82.0594 113.81 81.5695 113.61 80.9495 111.36C80.5795 110.01 80.2995 108.64 79.9795 107.28C80.0795 106 80.1796 104.73 80.2896 103.32H83.1995L83.1895 103.33Z" fill="white"/>
<path d="M165.42 45.22C165.15 47.06 166.18 48.16 167.58 49.06C171.33 51.48 171.47 51.71 170.09 55.75C169.68 56.96 168.92 58.05 168.21 59.4H163.36C163.23 60.56 163.13 61.54 163.02 62.52C160.95 61.22 161.25 59.05 161.53 57.26C162.14 53.36 163.15 49.51 164.09 45.66C164.15 45.42 164.96 45.36 165.42 45.22Z" fill="white"/>
<path d="M200.46 47.4298C200.1 46.8998 199.5 46.3898 199.43 45.8198C199.33 44.9798 199.62 44.0898 199.8 42.7398C198.1 42.8198 196.51 42.4798 195.35 43.0398C193.35 43.9998 192.18 43.1198 190.93 41.9098C194.87 42.5998 198.53 41.0198 203.03 40.0398C200.58 42.5198 200.48 44.9698 200.45 47.4398L200.46 47.4298Z" fill="#FEFDFD"/>
<path d="M188.6 36.2798C188.85 36.3498 189.1 36.3498 189.36 36.2998C189.9 38.1798 190.45 40.0698 190.99 41.9498C188.63 40.7098 188.47 38.5598 188.6 36.2698V36.2798Z" fill="#F9F9F9"/>
<path d="M198.1 56.1699C197.4 57.8199 196.8 59.2399 196.16 60.7399C193.69 61.8199 191.18 62.3399 188.37 61.1999C187.12 60.6899 185.49 60.9799 184.05 61.1099C182.1 61.2799 180.73 60.5899 179.91 58.8899C180.57 54.8599 183.12 52.8099 186.89 51.9499C188.27 51.6399 189.6 51.0799 190.98 50.7799C193.74 50.1899 194.75 50.7399 196.31 53.3999C196.84 54.2999 197.44 55.1599 198.1 56.1699Z" fill="white"/>
<path d="M187.86 69.8498C187.59 70.9098 187.63 71.6898 187.26 72.0498C185.42 73.8298 182.54 74.9198 178.76 75.4098C178.35 74.6098 177.68 73.7698 177.47 72.8198C177.07 71.0398 177.87 69.9698 179.69 69.8898C182.31 69.7698 184.93 69.8598 187.86 69.8598V69.8498Z" fill="#E89163"/>
<path d="M144.62 244.37C143.18 243.76 142.85 241.21 140.58 242.05C141.42 240 143.64 240.61 145.12 239.41C145.7 241.35 145.77 242.92 144.62 244.37Z" fill="#120A05"/>
<path d="M137.83 244.38C136.82 244.64 136.3 244.94 135.83 244.87C134.75 244.7 133.27 244.67 132.77 243.98C132.29 243.33 132.49 241.69 133.01 240.88C135.09 237.66 137.4 234.6 139.87 231.14C135.43 228.25 132.1 224.27 130.09 219.53C128.19 215.07 126.89 210.32 125.74 205.6C124.98 202.47 126.25 199.75 128.56 197.33C134.5 191.15 134.64 189.79 131.06 181.94C130.46 180.62 129.79 179.29 128.94 178.12C123.97 171.3 123.78 163.8 125.93 156.08C128.57 146.6 132.53 137.62 137.05 128.89C138.99 125.14 140.93 121.4 142.91 117.58C141 116.93 139.23 116.7 137.91 115.81C131.57 111.55 129.92 109.45 131.93 101.62C134.63 91.0799 138.58 81.0599 145.01 72.1499C145.57 71.3699 145.669 70.2599 146.139 68.8399C150.999 68.5299 155.98 68.2099 161.34 67.8599C161.04 67.2299 160.8 65.6499 159.96 65.2099C153.85 61.9899 152.45 51.7899 155.6 46.5699C157.1 44.0899 157.18 41.7599 156.68 39.0599C156.02 35.4599 155.58 31.7999 155.34 28.1499C155.26 26.9499 155.769 25.2599 156.629 24.5399C158.829 22.7199 161.25 21.0199 163.84 19.8399C166.53 18.6199 169 19.6599 170.6 22.1899C172.06 21.7199 172.6 21.0399 171.47 19.8999C171.01 19.4399 170.389 19.1399 169.879 18.7299C166.779 16.2599 166.34 13.6299 169.03 11.1299C176.14 4.53992 184.34 1.43992 194.21 3.47992C197.59 4.17992 199.35 5.87993 199.91 9.13993C200.11 10.2899 200.45 11.4099 200.73 12.5599C208.16 8.73991 208.24 8.81991 214.25 14.8399C217.28 17.8699 219.08 21.5499 220.03 25.5599C220.51 27.5799 219.93 29.8399 219.82 32.3099C219.47 32.1199 219.679 32.3299 219.879 32.3299C226.819 32.1999 227.78 33.3099 228.52 40.3299C229.31 47.7299 228.83 55.1499 223.78 61.3499C222.97 62.3499 221.81 63.0799 220.8 63.9199C220.31 64.3199 219.65 64.5999 219.32 65.0999C217.5 67.7999 215.76 70.5499 213.72 73.6899C213.86 74.1899 214.18 75.3099 214.53 76.5299C214.94 76.5499 215.319 76.6499 215.649 76.5699C221.219 75.1499 223.95 76.5499 225.6 81.9999C227.67 88.7999 227.1 93.7299 220.79 97.9599C220.37 98.2399 220.08 98.6999 219.72 99.0899C221.14 100.33 222.79 101.27 223.71 102.68C225.7 105.72 224.599 110.24 221.139 112.41C217.709 114.56 213.94 116.2 210.29 117.99C209 118.62 207.59 119.03 205.95 119.64C207.72 123.06 209.25 126.43 211.12 129.59C218.91 142.75 220.8 157.01 219.98 172.03C219.53 180.28 218.049 188.28 216.399 196.3C216.059 197.96 215.53 199.62 214.82 201.16C212.71 205.74 214.9 209.82 216.28 213.92C217.38 217.2 218.92 220.26 217.61 223.89C217.35 224.61 218.04 225.85 218.58 226.66C220.27 229.18 222.129 231.6 223.879 234.09C225.129 235.87 225.95 237.77 224.76 240.59C221.26 239.51 217.83 238.44 213.94 237.23C212.63 242.46 213.57 248.59 207.75 252.52C206.48 249.73 205.32 247.16 203.85 243.91C203.22 245.39 202.36 246.49 202.36 247.58C202.31 264.93 198.62 281.76 194.87 298.55C191.15 315.19 184.69 330.85 176.6 345.82C174.47 349.76 171.89 353.44 169.49 357.23C167.91 359.72 165.53 361.21 162.72 361.65C159.18 362.2 157.81 364.15 157.84 367.54C157.86 369.1 157.65 370.66 157.55 372.17C165.13 374.55 172.199 377.26 178.889 381.08C183.429 383.67 188.44 385.42 193.25 387.55C194.68 388.18 196.84 388.63 196.21 390.59C195.76 391.98 194.17 393.54 192.76 393.98C184.26 396.63 175.439 397.53 166.629 398.59C157.429 399.7 148.4 398 139.34 397.29C133.67 396.84 128.92 393.76 126.24 388.27C125.93 387.64 125.16 387.2 124.54 386.76C117.66 381.87 110.63 377.18 103.94 372.04C99.8795 368.92 96.1595 365.29 92.6695 361.53C89.9695 358.61 88.8195 355 90.3895 350.88C91.0395 349.19 90.9596 347.23 91.4596 345.46C92.9896 340.05 96.9296 337.81 102.04 340.15C105.66 341.81 109.25 341.03 112.76 341.02C114.75 341.02 116.819 338.87 118.629 337.41C119.019 337.1 118.63 335.53 118.29 334.66C117.47 332.59 116.089 330.67 115.649 328.54C115.269 326.7 115.68 324.61 116.11 322.71C116.31 321.83 117.29 320.62 118.1 320.46C126.49 318.78 129.9 312.32 133.22 305.49C135.07 301.67 135.609 297.76 135.879 293.65C136.569 283.48 137.42 273.33 138.17 263.17C138.51 258.55 138.86 253.93 138.97 249.3C139.01 247.78 138.31 246.25 137.86 244.35L137.83 244.38ZM198.83 51.3799L198.93 51.4899C198.7 48.9299 198.46 46.3799 198.21 43.6599C197.04 43.7899 195.88 43.9499 194.71 44.0599C190.54 44.4299 187.78 42.1199 187.68 37.9299C187.62 35.4299 187.93 32.9099 188.11 30.3999C188.18 29.4599 188.33 28.5299 188.44 27.5999C188.14 27.3799 187.85 27.1699 187.55 26.9499C185.97 27.9899 184.37 28.9899 182.82 30.0699C178.76 32.9099 175.04 36.4199 169.28 36.5499C168.25 39.8499 167.21 43.1999 166.22 46.3799C172.5 51.3699 172.57 51.5899 170.29 57.2999C169.45 59.4132 167.38 60.3266 164.08 60.0399C163.07 66.7699 167.76 76.8299 173.61 80.0099C174.9 80.7099 176.63 80.9999 178.12 80.8899C180.46 80.7199 182.8 80.1699 185.09 79.5699C197.26 76.3899 205.08 66.5199 205.69 56.3299C203.27 54.5899 201.04 52.9899 198.82 51.3799H198.83ZM163.18 222.85C173.64 222.89 183.81 223.13 193.96 222.88C200.81 222.71 202.36 221.07 203.83 214.55C203.95 214.04 204.219 213.57 204.379 213.06C206.069 207.93 207.73 202.78 209.44 197.66C211.95 190.14 213.65 182.42 214.77 174.59C216.22 164.47 215.89 154.36 213.53 144.39C211.87 137.4 208.72 131 205.3 124.73C202.61 119.81 199.95 114.87 197.28 109.94C196.58 110.98 196.4 111.85 196.43 112.7C196.71 121.29 197.07 129.87 197.32 138.46C197.4 141.09 197.36 143.75 197.11 146.37C196.86 149.04 194.609 151.39 192.639 151.14C189.779 150.78 190.59 148.24 190.12 146.47C190.09 146.34 190.1 146.21 190.09 146.07C189.88 139.85 189.7 133.64 189.46 127.42C189.2 120.56 188.84 113.7 188.62 106.84C188.57 105.33 188.93 103.81 189.11 102.29L190.27 102.38C192.48 117.87 191.219 133.64 193.639 149.19C194.409 147.91 195.089 146.59 195.129 145.25C195.249 140.66 195.33 136.06 195.07 131.48C194.64 123.96 194.8 116.23 193.01 109.01C191.8 104.13 193.05 101.06 195.52 97.5999C196.19 96.6599 196.94 95.5399 197.01 94.4599C197.1 92.9999 197.03 91.1499 196.22 90.0799C194.67 88.0299 192.56 86.4199 190.45 84.4099C188.61 86.9599 187.07 89.0799 185.56 91.2099C184.43 92.7999 183.22 93.0299 181.52 91.8899C179.55 90.5699 177.41 89.4899 175.33 88.3299C165.76 83.0399 156.19 77.7599 146.28 72.2899C144.89 75.7899 143.499 78.9299 142.379 82.1499C141.079 85.8999 139.7 89.6599 138.91 93.5299C138.08 97.6599 137.71 101.92 137.54 106.14C137.49 107.51 138.36 109.3 139.41 110.24C141.06 111.71 143.13 112.79 145.16 113.73C148.27 115.17 148.36 115.08 146.92 118.3C145.25 122.04 143.5 125.75 141.79 129.47C137.54 138.73 133.49 148.04 130.62 157.86C128.62 164.71 129.75 170.81 133.34 176.84C135.28 180.1 136.809 183.72 137.879 187.36C139.039 191.28 138.21 195.08 134.51 197.54C131.61 199.47 130.66 202.18 131 205.4C131.88 213.88 135.42 220.87 142.74 225.63C143.38 226.05 144.2 226.71 144.81 226.6C148.17 225.99 151.61 225.49 154.8 224.32C156.74 223.61 158.79 222.08 159.83 220.34C160.72 218.84 160.33 216.53 160.37 214.58C160.43 211.55 160.13 208.49 160.43 205.48C161.15 198.24 162.519 191.05 162.879 183.81C163.189 177.54 164.35 171.5 165.55 165.4C166.96 158.2 168.15 150.96 169.52 143.75C170.23 140.02 171.06 136.3 171.99 132.62C172.23 131.69 173.08 130.91 173.66 130.06C173.86 130.18 174.06 130.3 174.26 130.42C173.96 134.58 173.65 138.74 173.35 142.91C173.74 142.98 174.13 143.06 174.51 143.13C175.41 140.1 176.31 137.06 177.43 133.33C177.72 134.56 178.1 135.2 177.96 135.69C176.98 138.95 175.92 142.18 174.82 145.4C174.4 146.62 173.59 147.74 173.34 148.99C172.45 153.4 171.7 157.83 170.95 162.27C169.5 170.88 168.18 179.52 166.62 188.11C164.58 199.28 163.34 210.52 163.17 222.85H163.18ZM141.58 256.94C141.3 264.14 141.07 270.87 140.77 277.6C140 294.92 139.17 312.24 138.42 329.56C138.29 332.65 136.95 334.74 134.21 336.15C130.28 338.17 128.709 341.18 129.389 345.53C129.749 347.87 130.42 350.17 131.07 352.46C132.19 356.4 134.86 358.78 138.83 359.59C142.7 360.38 146.58 361.33 150.5 361.59C157.29 362.04 162.96 360.59 166.6 353.55C174.16 338.94 181.21 324.12 186.11 308.43C192.27 288.69 196.32 268.51 196.93 247.73C197.07 243.06 196.049 238.72 194.649 234.38C183.279 236.99 172.01 237.89 160.37 237.53C160.32 238.56 160.19 239.45 160.26 240.33C160.46 242.93 160.85 245.53 160.92 248.13C160.94 248.98 160.4 250.36 159.77 250.6C158.42 251.12 157.39 250.46 156.8 248.87C156.1 247 154.939 245.3 153.649 242.93C151.659 246.52 150.17 249.45 148.46 252.24C146.99 254.65 145.77 257.58 141.59 256.93L141.58 256.94ZM219.37 61.0999C220.89 59.0799 222.99 57.4799 223.4 55.5199C224.37 50.8999 224.74 46.1199 224.99 41.3799C225.25 36.3899 224.47 35.7499 219.42 35.4099C215.57 35.1399 214.56 33.8699 216.6 30.8199C218.51 27.9699 217.89 25.4999 216.56 23.0999C215.09 20.4599 213.31 17.9199 211.27 15.7099C208 12.1699 206.36 12.1699 202.49 14.8999C199.02 17.3399 197.3 16.5899 196.86 12.4499C196.41 8.22992 194.31 6.2799 190.09 6.1099C184.4 5.8799 179.52 8.5099 174.82 11.0499C170.72 13.2599 170.66 16.0999 173.83 19.3799C175.23 20.8299 175.85 22.1299 174.08 23.7399C172.02 25.6199 170.13 25.8799 168.69 24.1499C167.45 22.6699 165.959 20.9399 164.149 22.0899C161.179 23.9599 158.029 26.0999 158.389 30.4099C158.609 33.0399 158.8 35.6799 159.29 38.2699C159.8 40.9299 161.35 42.9199 164.17 44.1299C164.39 43.2799 164.52 42.6599 164.7 42.0599C165.87 37.9699 168.019 34.9799 172.379 33.5099C175.429 32.4799 178.17 30.4999 181 28.8599C182.02 28.2699 182.93 27.4699 183.86 26.7199C185.53 25.3699 187.29 24.5099 189.26 26.0099C191.08 27.3899 191.86 29.2299 191.46 31.5899C191.17 33.2799 191.01 35.0099 191.03 36.7199C191.07 41.1099 192.22 41.9399 196.34 40.7499C197.61 40.3799 198.859 39.8199 200.149 39.6799C201.319 39.5499 202.54 39.8899 203.82 40.0299C203.61 40.8299 203.63 41.1999 203.46 41.3199C201 43.1399 201.6 45.8399 201.54 48.2799C201.45 51.7099 204.07 52.5499 206.73 53.2799C208.46 53.7499 209.42 54.7999 209.16 56.7699C209.05 57.6199 209.24 58.4999 209.3 59.4299C214.38 58.0999 215.54 58.2999 219.4 61.1299L219.37 61.0999ZM209.44 76.2499C205.26 77.6299 201.4 80.7099 197.01 77.0199C195.19 78.1899 193.42 79.3299 191.85 80.3299C194.71 82.6499 197.36 84.3799 199.45 86.6199C201.92 89.2699 202.32 92.5199 200.3 95.7699C198.99 97.8799 197.69 100.01 196.25 102.02C194.99 103.78 194.97 104.91 197 106.23C198.35 107.11 199.28 108.71 200.2 110.12C201.48 112.08 202.58 114.16 203.86 116.39C205.89 115.75 207.71 115.36 209.36 114.61C212.47 113.19 215.48 111.54 218.55 110.03C219.99 109.32 221.48 108.81 221.46 106.74C221.43 104.71 220.24 103.61 218.67 102.75C215.21 100.84 215.02 100.07 217.33 96.8199C217.94 95.9599 218.6 95.1099 219.35 94.3599C223.07 90.6499 223.75 86.4399 221.32 81.8299C220.22 79.7299 218.09 79.0599 215.98 80.1299C212.566 81.8632 210.516 80.7866 209.83 76.8999C209.81 76.7799 209.7 76.6699 209.46 76.2499H209.44ZM130.41 388.31C132.77 391.03 135.35 393.02 138.47 393.71C144.14 394.96 149.869 396.18 155.639 396.68C166.099 397.6 176.42 395.9 186.66 393.86C189.35 393.32 192.12 393.03 194.09 390.76C191.89 388.61 189.31 387.37 185.92 387.3C180.64 387.19 175.35 387.24 170.08 387.45C169.24 387.48 167.74 388.75 167.76 389.42C167.82 392.45 166.04 392.55 163.86 392.4C159.53 392.11 155.2 391.85 151.77 391.63C147.74 388.55 144.31 385.73 140.66 383.24C139.2 382.25 137.42 381.75 135.77 383.79C134.36 385.53 132.31 386.74 130.41 388.3V388.31ZM98.6097 340.96C98.3797 341.84 98.3796 342.57 98.0396 343.07C95.0996 347.44 94.6195 351.36 97.4095 356.51C100.05 361.39 103.02 365.86 107.08 369.31C114.07 375.24 121.61 380.52 129.52 386.54C130.35 385.68 131.03 384.96 132.03 383.92C127.06 378.29 122.53 373.18 118.04 368.03C116.78 366.59 115.35 365.81 113.49 366.55C111.06 367.53 109.48 366.48 108.01 364.66C106.35 362.61 104.66 360.57 102.8 358.71C101.2 357.11 100.8 355.63 101.72 353.46C102.63 351.3 103.23 348.94 103.56 346.6C104.2 342.06 103.72 341.61 98.6097 340.95V340.96ZM182.37 385.35C175.33 380.38 167.81 378.13 160.06 374.63C160.19 376.36 160.26 377.35 160.34 378.33C160.55 380.92 159.18 382.58 157.03 383.62C154.91 384.65 152.969 385.13 151.139 382.64C149.679 380.66 147.609 379.1 145.649 377.54C142.749 375.24 141.51 375.45 139.08 378.35C138.59 378.93 138.18 379.58 138.06 379.74C140.93 381.45 143.73 383.01 146.41 384.76C148.81 386.33 150.85 388.85 153.45 389.63C157.16 390.75 161.22 390.67 165.08 391.1C166.41 386.54 166.4 386.5 171.22 386.08C174.7 385.78 178.189 385.62 182.379 385.35H182.37ZM106.49 343.51C105.54 347.61 104.53 351.54 103.79 355.52C103.64 356.34 104.309 357.48 104.899 358.24C106.349 360.12 108.1 361.77 109.5 363.68C110.42 364.94 111.54 365.2 112.53 364.42C115.18 362.31 117.08 363.93 118.71 365.64C122.52 369.63 126.13 373.82 129.85 377.91C130.5 378.63 131.28 379.23 131.99 379.89C132.14 379.77 132.3 379.66 132.45 379.54C129.27 372.28 126.08 365.02 122.73 357.38C120.91 359.59 119.229 360.83 116.639 359.63C114.109 358.46 114.07 356.16 113.68 353.99C113.38 352.3 113.22 350.6 112.98 348.9C112.5 345.367 110.336 343.57 106.49 343.51ZM145.399 238.5C145.709 238.8 146.01 239.1 146.32 239.4C145.93 243.02 145.529 246.64 145.139 250.26C145.479 250.33 145.82 250.41 146.17 250.48C147.57 247.67 148.97 244.85 150.37 242.04C151.96 238.85 153.62 238.73 155.8 241.67C156.55 242.69 157.249 243.74 158.379 245.37C157.879 238.56 157.42 232.44 156.98 226.51C154.52 227.17 152.66 227.93 150.74 228.13C146.85 228.53 143.76 229.84 141.67 233.43C139.9 236.47 137.64 239.23 135.6 242.11C135.78 242.22 135.969 242.34 136.149 242.45C139.229 241.13 142.319 239.81 145.399 238.49V238.5ZM134.77 311.96C134.4 311.83 134.04 311.7 133.67 311.57C133.1 312.4 132.54 313.24 131.97 314.06C129.27 317.92 126.03 321.12 121.54 322.89C117.85 324.35 116.76 326.72 118.43 330.23C119.83 333.18 121.61 335.95 123.08 338.55C125.65 336.6 127.96 334.91 130.18 333.11C130.95 332.48 131.91 331.61 132.05 330.73C133.06 324.49 133.89 318.22 134.78 311.96H134.77ZM125.83 355.89C127.15 364.15 132.45 370.77 135.05 378.71C137.33 376.76 139.369 375.03 141.399 373.29C141.399 371.47 141.29 369.65 141.43 367.85C141.57 366.11 141.96 364.39 142.26 362.59C131.04 362.72 133.37 363.74 125.84 355.89H125.83ZM204.889 236.81C205.189 236.84 205.48 236.86 205.78 236.89C206.54 239.07 207.3 241.24 208.06 243.42C208.38 243.39 208.7 243.36 209.02 243.34C209.15 241.04 209.339 238.73 209.399 236.43C209.479 233.33 211.52 231.37 214.58 233.5C216.76 235.02 219.58 235.62 222.11 236.63C222.2 236.43 222.28 236.22 222.37 236.02C220.07 232.72 217.76 229.42 215.36 225.98C214.42 226.75 213.87 227.32 213.21 227.72C208.96 230.3 205.39 234.9 198.67 231.99C199.85 235.9 200.83 239.16 201.81 242.43C202.08 242.39 202.34 242.36 202.61 242.32C203.37 240.49 204.139 238.66 204.899 236.83L204.889 236.81ZM199.57 226.2C196.73 226.69 194.19 227.36 191.61 227.53C183.85 228.03 176.08 228.33 168.32 228.72C165.28 228.87 162.24 229.08 159.74 226.21C159.84 228.1 159.94 229.98 160.05 232.02C163.41 232.02 166.43 231.88 169.43 232.05C177.76 232.53 186.02 232.11 194.07 229.83C196.04 229.27 198.43 228.84 199.57 226.2ZM155.26 363.4H144.04C143.48 366.03 142.18 368.59 144.35 370.93C145.4 372.06 152.69 372.69 153.92 371.6C156.37 369.43 154.71 366.48 155.27 363.4H155.26ZM203.129 72.8099C208.429 73.3099 215.11 68.8899 216.8 64.0499C217.53 61.9599 216.77 61.0399 214.95 60.5599C212.87 60.0199 209.1 61.5099 208.04 63.4199C206.33 66.4999 204.769 69.6599 203.129 72.8099ZM210.84 215.51C207.77 218.99 204.76 222.4 201.67 225.9V230.61C204.69 228.54 207.35 226.92 209.78 225.01C214.3 221.46 214.33 220.71 210.83 215.51H210.84ZM184.26 90.6099C186.02 87.5399 187.71 84.5999 189.71 81.1299C183.23 82.0899 177.79 84.1299 171.94 83.9099C175.82 86.0199 179.7 88.1299 184.27 90.6099H184.26ZM162.74 46.5799C159.79 45.8499 158.81 46.3799 157.28 49.4099C155.47 52.9999 156.69 58.6799 159.84 61.4599C160.79 56.6199 161.74 51.7399 162.74 46.5799ZM154.32 74.0699C160 77.2199 164.53 80.5999 170.1 82.1999C168.2 79.0199 166.12 76.0799 163.94 73.2199C163.62 72.7999 162.76 72.5399 162.21 72.6199C159.89 72.9599 157.6 73.4499 154.33 74.0699H154.32ZM123.94 350.21C122.71 346.74 124.489 342.52 121.129 339.68C119.579 340.9 118.179 342.01 116.639 343.22C118.219 346.59 120.57 348.84 123.93 350.21H123.94ZM156.41 375.3C153.85 375.6 151.56 375.86 148.5 376.22C150.78 378.7 152.67 380.75 154.49 382.72C156.703 381.72 157.343 379.247 156.41 375.3ZM116.149 350.23C116.599 353.01 116.939 355.1 117.379 357.82C119.299 356.12 120.58 354.98 121.93 353.78C120.07 352.64 118.529 351.69 116.149 350.23ZM163.53 54.9199C165.43 56.0299 166.77 56.8099 168.69 57.9299C169.14 55.3699 169.44 53.6199 169.8 51.5999C167.64 52.7499 166.13 53.5499 163.54 54.9199H163.53ZM143.32 241.76C139.84 243.96 143.3 245.48 142.91 247.07C143.03 245.54 143.15 244.02 143.32 241.76Z" fill="black"/>
<path d="M106.96 50.9899C107.33 59.0199 104.09 66.05 101.27 73.16C99.9697 76.43 98.6397 76.6199 95.0897 76.4999C90.8697 76.3499 86.5996 76.5599 82.4196 77.1099C80.8196 77.3199 79.3898 78.89 78.1098 79.7C84.0898 86.63 89.9196 93.39 95.7496 100.15C93.4496 103.03 91.5697 100.62 89.5597 100.41C91.4297 106.78 93.4596 112.87 94.9896 119.08C98.1096 131.78 101.14 144.51 103.85 157.3C105.88 166.85 107.54 176.48 109.04 186.13C110.38 194.74 112.2 203.34 111.01 212.16C110.91 212.87 111.13 213.66 111.36 214.36C111.69 215.36 112.46 216.28 112.55 217.27C112.95 221.8 115.75 224.91 118.55 228.09C122.62 232.69 124.12 238.04 123.26 244.14C119.08 245.31 117.49 241.7 114.56 240.13C114.43 241.07 114.34 241.9 114.2 242.72C113.94 244.15 113.81 245.64 113.34 247C112.64 249 111.8 251.48 109.39 251.48C107 251.48 106.13 249.11 105.51 247.03C105 245.3 104.58 243.54 104.04 241.51C100.92 244.87 99.4096 248 99.7096 252.64C100.28 261.21 99.9496 269.87 99.4396 278.46C99.1696 283.03 97.7397 287.52 96.8297 292.05C96.3197 294.61 95.6597 297.15 95.3197 299.74C94.0197 309.58 93.1896 319.49 91.4796 329.25C90.1196 337.03 88.2096 344.8 85.6496 352.27C83.3996 358.83 80.4497 365.28 75.5997 370.52C76.7797 372.28 78.9963 373.213 82.2496 373.32C82.0796 374.04 81.9196 374.7 81.6496 375.87C85.3496 377.6 89.1396 379.37 92.9296 381.15C95.5596 382.39 98.1195 383.25 101.13 382.04C102.96 381.31 105.13 382.12 105.81 383.93C106.23 385.05 105.55 387.03 104.71 388.09C100.22 393.74 93.7696 395.93 86.9896 396.75C80.0596 397.58 73.0497 397.79 66.0597 397.99C63.6097 398.06 61.1496 397.01 58.6896 396.92C56.0896 396.83 53.4398 397.58 50.8498 397.42C38.5098 396.65 26.3197 395.31 16.0697 387.27C10.4497 382.86 7.70966 376.82 6.00966 370.19C5.32966 367.51 6.6496 365.44 9.4496 365.54C13.2896 365.68 15.5197 362.88 18.5197 362.05C18.5997 361.38 18.7596 361.03 18.6496 360.87C15.0896 355.63 17.6897 351.41 20.7997 347.21C26.5397 339.47 32.3096 331.74 37.8996 323.89C40.7796 319.84 42.6097 315.43 41.7797 310.15C41.2797 306.99 42.4496 305.42 44.9096 305.2C46.1296 305.09 47.4197 305.85 48.5097 306.17C47.9897 301.72 47.0696 300.93 42.4496 301.34C39.1296 301.64 36.9098 300.4 36.1098 296.79C35.1698 292.55 34.7395 288.17 34.3795 283.82C33.9895 279.11 33.8997 274.36 33.7597 269.63C33.4297 258.71 33.1298 247.8 32.8698 236.88C32.7898 233.37 32.8598 229.86 32.8598 226.17C23.7098 222.2 22.0795 220.31 25.1295 209C20.6995 204.49 15.8296 200.15 11.7396 195.17C8.50964 191.24 6.05956 186.61 3.65956 182.08C2.78956 180.45 2.92974 178.23 2.83974 176.27C2.50974 169.46 3.27971 162.8 5.80971 156.41C9.51971 147.07 12.6198 137.43 17.1098 128.48C22.5498 117.62 29.1397 107.33 35.2897 96.83C37.2297 93.51 39.4897 90.38 41.3397 87.02C42.8897 84.21 46.0097 82.38 46.3197 78.73C46.3897 77.97 47.6998 77.13 48.6098 76.67C51.4098 75.25 54.2996 74 57.6496 72.45C57.9996 69.85 60.9597 66.95 58.5097 63.35C51.0797 67 41.7196 62.5699 38.7396 54.1499C37.6096 50.9599 35.8496 47.6599 38.6596 44.4299C41.1696 41.5499 43.9596 39.1899 48.2296 40.3599C48.7396 40.4999 49.2797 40.4899 49.8097 40.5299C49.9097 40.5299 50.0096 40.4099 50.2296 40.2699C50.1096 32.4799 52.4497 25.3299 56.5897 18.6899C65.5697 4.29995 83.8796 6.66996 92.9196 15.01C96.9196 18.7 99.5897 23.14 101.01 28.17C103.69 27.06 106.1 25.59 108.69 25.1C112.38 24.4 115.34 26.4899 116.8 29.9999C120.35 38.5799 117.28 47.95 107.99 50.38C107.74 50.44 107.54 50.6499 106.98 50.9999L106.96 50.9899ZM71.1496 91.51C73.2196 93.14 75.2795 94.79 77.3795 96.38C77.8695 96.75 78.5097 97.1999 79.0597 97.1699C81.9597 97.0199 84.8497 96.7299 87.7597 96.4799C84.1897 91.7899 80.9297 86.73 75.3297 83.4C75.0597 84.93 74.6496 86.0899 74.6796 87.2499C74.7396 89.8499 73.4597 91.1599 71.0397 91.6099C70.5197 85.6599 71.9495 80.4699 76.6395 77.2999C71.6695 74.3199 66.8797 71.45 62.0397 68.54C60.4197 72.75 61.3096 78 56.2296 81.33C61.5896 85 66.3595 88.26 71.1295 91.52L71.1496 91.51ZM45.1596 308.91C45.0796 309.58 44.8596 310.14 44.9696 310.62C46.2296 315.75 43.9497 319.9 41.3297 323.96C40.0397 325.96 38.7196 327.94 37.4296 329.94C32.8196 337.04 28.1396 344.09 23.6496 351.27C20.7196 355.95 21.7497 360.62 25.7897 364.37C29.0797 367.42 33.1597 368.46 37.2697 369.34C39.0497 369.72 41.1896 369.41 42.9296 368.77C47.6796 367 50.7497 363.04 54.0797 359.47C63.6997 349.15 70.6496 337.05 76.7096 324.48C81.2196 315.12 85.0498 305.42 88.8698 295.75C91.4998 289.09 92.9897 282.04 93.5197 274.91C94.5697 260.64 93.3498 246.4 92.6198 232.15C92.5798 231.28 92.1697 230.44 92.0197 229.91H69.2897C69.3097 233.16 70.5296 236.07 68.4896 239.05C64.1596 237.64 63.7996 232.56 60.9696 230.63C57.8296 233.95 54.9197 237.18 51.7897 240.18C51.1197 240.82 49.3596 241.15 48.6596 240.72C47.9096 240.25 47.7197 238.74 47.4997 237.64C47.3797 237.04 47.7298 236.36 47.8598 235.71C48.4098 232.79 48.9597 229.87 49.5297 226.86H38.6796C38.6796 234.98 38.5096 242.89 38.7196 250.78C39.0196 261.63 39.5597 272.47 40.0897 283.32C40.2897 287.43 40.6795 291.53 41.1295 295.61C41.3295 297.42 41.5396 299.25 44.2396 299.41C47.8496 299.62 50.3096 301.98 50.7196 305.53C50.8996 307.06 50.8396 309.19 49.9296 310.15C48.4496 311.72 47.2395 309.45 45.8895 308.87C45.7795 308.82 45.6295 308.87 45.1395 308.9L45.1596 308.91ZM46.8698 86.63C46.2498 87.31 45.7196 87.73 45.3996 88.28C39.7596 97.86 34.1297 107.44 28.5297 117.04C27.8697 118.18 27.3597 119.41 26.7697 120.6C22.4997 129.22 18.0397 137.76 14.0297 146.49C10.7697 153.58 8.30964 161 7.23964 168.8C6.41964 174.79 6.41961 180.49 9.95961 186C14.9196 193.71 21.4297 199.88 28.0397 206.02C29.8097 207.67 31.6797 209.21 33.0297 210.4C34.3197 207.89 35.5095 205.65 36.6295 203.36C38.5695 199.4 41.9197 196.87 45.5197 194.61C47.2497 193.52 47.5397 192.48 46.7897 190.38C44.3697 183.66 42.3196 176.81 40.1796 169.99C39.0096 166.26 37.4396 165.35 33.6996 166.53C32.7096 166.84 31.7996 167.44 30.9096 167.99C29.0496 169.14 27.2198 170.34 25.3698 171.52C25.1598 171.35 24.9496 171.18 24.7396 171C25.3696 169.95 25.7796 168.6 26.6796 167.91C31.0596 164.57 35.7296 161.87 41.9696 163.48C43.1796 148.28 45.2895 133.85 48.6395 119.59C49.3395 128.28 47.3996 136.92 48.1696 145.79C50.2096 144.48 51.8296 143.43 53.4496 142.38C53.6496 142.61 53.8397 142.84 54.0397 143.08C53.4997 144.17 52.9497 145.27 51.9997 147.18C67.6197 143.91 83.0397 144.02 97.5597 139.03C97.5597 138.27 97.6497 137.85 97.5497 137.49C94.3097 125.52 91.0997 113.54 87.7797 101.59C86.8297 98.18 86.6897 98.2099 82.5997 98.7499C82.9497 99.6199 83.3397 100.42 83.5997 101.26C84.5197 104.28 85.4697 107.29 86.2597 110.34C86.8497 112.62 86.1597 114.26 83.5197 114.61C82.5297 114.74 81.5596 115.04 80.4096 115.31C79.5096 111.28 78.7897 107.52 77.7797 103.85C77.4797 102.77 76.4397 101.79 75.5297 101.01C73.5997 99.35 71.5898 99.6799 69.8698 101.37C66.9498 104.24 64.0797 107.17 61.2697 110.15C59.2097 112.33 57.8896 112.28 56.4196 109.74C56.1596 109.29 56.0297 108.76 55.8297 108.27C52.9097 101.19 49.9795 94.1 46.8895 86.63H46.8698ZM67.4796 223.51C68.4896 223.78 69.2497 224.15 70.0197 224.17C77.0497 224.33 84.0898 224.58 91.1198 224.49C93.6898 224.46 96.4197 224 98.7797 223.03C105.03 220.46 109.89 212.47 109.43 205.75C109.11 201.13 108.54 196.51 107.82 191.93C106.58 183.96 105.22 176.01 103.77 168.08C102.44 160.83 100.93 153.62 99.4496 146.12C82.3996 150.23 65.5997 153.58 47.8097 153.81C47.6697 156.14 47.4296 158.46 47.4096 160.79C47.3996 163.06 47.3197 165.17 46.0197 167.24C45.3897 168.24 45.2998 170.21 45.8698 171.23C50.9198 180.2 52.4397 190.88 59.2997 198.97C59.8997 199.68 60.5096 201.15 60.1796 201.76C58.7296 204.45 60.6897 205.25 62.3197 206.36C67.2397 209.71 72.2496 212.92 76.9996 216.49C78.9696 217.97 81.5197 219.34 81.7597 222.65C76.1097 223.83 71.6498 220.17 66.3498 219.25C66.7498 220.75 67.0796 221.99 67.4796 223.51ZM96.6596 39.85C92.5096 39.45 92.4997 39.4399 91.8097 43.3699C91.3497 46.0299 90.6496 48.7399 88.4096 50.3399C83.9696 53.5199 78.9596 53.3199 73.9096 51.9999C70.0696 50.9999 68.4596 48.1299 67.7396 44.4299C63.5796 44.7299 59.5397 45.0299 55.3297 45.3299C55.7997 47.7899 56.1598 49.86 56.5998 51.91C60.0098 67.7299 75.1696 79.2399 93.7196 74.0599C95.9796 73.4299 97.2197 72.0699 98.2597 70.0599C101.55 63.7399 103.1 57.0199 103.4 49.8699C98.7996 48.1199 97.9596 43.77 96.6596 39.85ZM93.0797 36.9299C96.6897 36.9599 99.8495 33.4899 98.8795 30.1099C96.0695 20.3699 90.0897 13.4599 80.0897 11.0599C73.4497 9.46994 66.9698 10.2199 61.8498 15.7699C55.9598 22.1499 53.8797 29.8299 53.7697 38.2199C53.7497 39.7199 54.2296 41.22 54.4396 42.45C59.2396 42.23 63.5197 42.04 67.8097 41.85C68.0097 40.99 68.1996 40.49 68.2296 39.98C68.5896 34.14 70.8595 31.16 76.3795 29.32C77.3795 28.99 78.3898 28.6899 79.3698 28.2999C82.9398 26.8699 86.6797 27.5799 89.0397 30.5199C90.5697 32.4399 91.6997 34.6799 93.0897 36.9299H93.0797ZM51.3996 367.52C52.6996 368.37 53.4496 369.28 54.1496 369.25C58.7496 369.02 63.3496 368.75 67.9096 368.14C70.2396 367.83 72.5996 366.91 73.9096 364.67C75.6296 361.73 77.5597 358.85 78.7797 355.7C83.5097 343.4 86.5496 330.62 88.6696 317.62C88.8696 316.41 88.9097 315.17 89.0297 313.94C88.7397 313.83 88.4496 313.73 88.1596 313.62C79.7996 333.99 66.7495 351.16 51.3895 367.52H51.3996ZM75.4696 374.65C71.7096 370.49 71.6598 370.48 66.3498 371.37C65.0498 371.59 63.7096 372.05 62.4396 371.92C56.4496 371.33 52.1897 373.57 49.7797 379.16C49.3197 380.22 48.6597 381.19 48.0897 382.21C49.1097 383.35 49.9597 384.31 51.0397 385.52C51.6297 383 53.1497 382.21 55.0097 382.51C57.4497 382.91 60.1296 383.16 62.1996 384.36C69.6996 388.67 77.6896 388.23 85.7196 387.2C88.1396 386.89 90.4297 385.58 92.7897 384.73C92.7697 384.35 92.7596 383.97 92.7396 383.59C90.6596 383.12 88.5896 382.56 86.4896 382.22C85.4096 382.05 84.2696 382.26 83.1596 382.3V379.27C81.6696 379.73 80.3895 380.12 78.3895 380.74C79.0995 378.93 79.4596 378.02 80.1796 376.19C77.9396 376.87 76.3797 377.34 74.8397 377.81C74.5264 376.77 74.7363 375.717 75.4696 374.65ZM89.7697 39.8099C89.7697 35.3299 89.0997 33.5599 86.7997 31.7199C84.2497 29.6799 81.6697 29.5199 78.5397 30.6199C73.5697 32.3599 70.1197 35.0299 70.2597 42.3699C70.3697 48.0999 72.5097 50.5699 78.0797 50.8699C87.1697 51.3699 89.7597 48.92 89.7697 39.82V39.8099ZM59.1696 109.09C64.0396 104.1 67.2497 98.3899 74.5097 97.4399C72.9097 96.0599 71.6797 94.8599 70.3197 93.8599C66.1597 90.7999 61.8897 87.91 57.7897 84.78C55.0197 82.67 55.0497 82.0899 56.2897 78.7199C56.6397 77.7599 56.6298 76.6699 56.8698 75.0599C54.6898 76.1399 53.3095 76.8899 51.8795 77.5299C49.4795 78.5999 48.5097 80.02 49.5197 82.82C51.9397 89.5 54.0398 96.3 56.3698 103.02C57.0398 104.96 58.0796 106.77 59.1796 109.11L59.1696 109.09ZM67.5697 235.15C66.0997 228.8 64.7296 222.85 63.1696 216.13C68.4396 217.81 73.0896 219.28 77.7496 220.76C77.8496 220.49 77.9397 220.21 78.0397 219.94C72.9097 214.78 66.7997 210.92 60.5697 207.28C59.9297 206.91 58.2497 207.23 57.7997 207.81C55.0197 211.36 51.1398 214.13 49.6098 218.65C54.2798 220.52 54.5597 221.34 53.0097 225.79C51.8797 229.04 50.3697 232.28 50.7697 236.29C54.7897 232.95 57.1996 228.95 58.9496 224.06C63.2296 227 62.9597 232.57 67.5797 235.16L67.5697 235.15ZM50.9896 389.47C51.0996 389.14 51.2097 388.81 51.3197 388.48C51.0097 388.07 50.7698 387.55 50.3698 387.28C48.2598 385.86 47.2695 382.83 44.1295 382.89C44.2295 380.21 42.5397 379.74 40.2697 380.18V377.63C38.9197 377.44 37.6898 377.27 36.3498 377.08C36.5198 375.85 36.6497 374.91 36.7797 373.98C35.2197 373.51 33.9196 373.22 32.6996 372.72C29.7696 371.53 26.3098 370.87 24.1198 368.86C21.3898 366.35 19.1396 365.94 15.9896 367.72C17.8396 369.94 20.3698 371.86 21.3498 374.39C23.3098 379.45 28.0395 381.57 31.3895 385.11C32.4595 386.24 34.3096 386.9 35.9096 387.19C40.9096 388.1 45.9697 388.72 51.0097 389.46L50.9896 389.47ZM115.89 35.7999C115.6 34.7699 115.19 33.39 114.83 32.01C113.5 26.89 107.7 24.7399 103.07 29.5499C98.1597 34.6499 98.2796 41.28 103.69 46.2C105.97 48.27 107.93 48.4799 110.43 46.7799C114.14 44.2499 115.39 40.4299 115.89 35.7999ZM55.6596 392.89C55.6296 392.67 55.5897 392.44 55.5597 392.22C54.7197 392.1 53.8897 391.9 53.0497 391.88C50.2697 391.83 47.4796 392.01 44.7096 391.8C39.2796 391.4 34.0796 390.69 29.9396 386.24C28.2696 384.44 26.3698 381.91 23.1198 382.11C22.7398 382.13 22.1596 381.3 21.9096 380.76C21.3496 379.56 20.9396 378.29 20.4796 377.05C19.0796 373.36 15.9596 371.26 12.9196 369.18C12.0996 368.62 10.3597 368.56 9.57973 369.08C8.97973 369.48 8.81955 371.28 9.14955 372.22C11.0496 377.61 13.4496 382.61 18.4196 386.1C28.5396 393.19 40.0997 393.97 51.8197 394.13C53.0997 394.15 54.3896 393.32 55.6696 392.88L55.6596 392.89ZM46.8197 217.25C48.5697 215.02 50.1097 212.87 51.8297 210.89C57.3797 204.54 56.9997 206.29 53.0797 198.83C52.8397 198.37 52.6898 197.83 52.3698 197.43C51.1698 195.92 48.8396 195.41 47.4796 196.58C42.8796 200.56 39.1498 205.21 36.8598 211.01C40.2798 213.15 43.4797 215.15 46.8197 217.24V217.25ZM60.3698 395.04C67.6798 394.77 74.6297 394.48 81.5797 394.25C88.1597 394.03 94.2096 391.74 100.17 389.27C101.81 388.59 103.93 387.74 103.9 384.77C102.78 384.87 101.61 384.63 100.85 385.09C97.0097 387.44 92.6996 387.99 88.4296 388.93C78.9896 391.01 69.8398 391.02 61.1098 386.23C58.2898 384.68 55.3997 384.45 52.2497 385.7C53.5497 387.68 55.0597 388.81 57.3397 389.28C60.3397 389.91 60.7298 390.79 60.3598 395.04H60.3698ZM109.39 233.61C109.78 233.38 110.18 233.15 110.57 232.91C114.14 235.49 117.71 238.07 121.36 240.71C121.84 232.91 115.14 229.45 111.56 224.02C107.05 225.59 102.54 227.16 97.9796 228.75C98.3096 232.93 98.6296 236.95 98.9496 240.98C99.2196 241.04 99.4897 241.09 99.7597 241.15C101.28 238.79 102.8 236.43 104.43 233.9C108.73 237.11 107.15 242.31 109.4 246.41C111.48 241.84 109.11 237.69 109.4 233.61H109.39ZM51.5497 222.82C50.4197 221.12 49.4996 219.96 47.7396 220.92C45.3696 222.23 43.7796 221.1 42.1596 219.45C40.3996 217.66 38.5198 215.99 36.5998 214.38C36.0898 213.95 35.2697 213.76 34.5697 213.73C32.7597 213.64 30.9397 213.7 28.8297 213.7C28.8297 214.78 28.7398 216.22 28.8498 217.65C28.9998 219.66 29.8597 221.36 31.9997 221.72C37.7197 222.68 43.4596 223.54 49.2196 224.27C49.9096 224.36 50.7397 223.34 51.5397 222.82H51.5497ZM98.0697 140.65C81.6497 146.29 64.8296 147.08 48.4296 150.16C65.4096 150.08 82.0496 147.61 98.6996 143.55C98.4796 142.54 98.3197 141.81 98.0697 140.64V140.65ZM41.5797 377.02C43.9397 377.68 45.5197 378.12 47.0897 378.55C48.6897 376.34 50.2097 374.24 51.8397 371.99C50.3797 371.2 49.1397 370.54 47.8397 369.83C46.0297 370.93 44.3196 371.97 42.1796 373.27C43.2296 373.8 43.8198 374.1 44.6098 374.49C43.4198 375.48 42.7797 376.02 41.5897 377.01L41.5797 377.02ZM56.6198 61.4999C56.2398 57.9099 53.7397 54.79 50.7597 54.13C48.8797 53.71 46.7598 55.4799 47.6098 56.8999C48.4498 58.2999 49.8197 59.6199 51.2597 60.3399C52.8497 61.1299 54.4398 63.1099 56.6198 61.4999ZM83.0597 113.32C84.5797 109.7 82.5396 102.31 79.1596 98.57C80.7096 103.62 80.8997 108.45 83.0597 113.32ZM42.4396 44.5599C45.5996 46.2399 48.6596 47.86 51.7196 49.48C51.0696 47.94 50.0897 46.6599 49.0497 45.4299C46.4397 42.3499 45.7596 42.2899 42.4396 44.5499V44.5599ZM49.3795 49.9899C46.5695 51.6099 44.4397 52.8399 41.9997 54.2399C42.8897 55.2999 43.6198 56.1599 44.1198 56.7499C45.7398 54.6699 47.2395 52.75 49.3795 49.98V49.9899ZM40.7897 46.5499C40.5497 46.8899 40.3097 47.2199 40.0697 47.5599C40.8697 48.7799 41.6797 50.0099 42.7697 51.6799C43.9597 50.4099 44.7596 49.5599 45.9496 48.2799C43.8196 47.5699 42.2997 47.0599 40.7797 46.5499H40.7897ZM104.65 224.05C109.9 221.17 110.08 220.8 108.19 217.73C107.12 219.64 106.06 221.54 104.65 224.05Z" fill="black"/>
<path d="M186.15 105.8C186.15 110.13 186.21 114.46 186.14 118.78C185.99 127.91 185.87 137.04 185.56 146.16C185.45 149.46 185.01 152.83 181.04 154.24C179.47 152.37 179.67 150.23 179.66 148.17C179.63 138.58 179.64 128.98 179.64 119.39C179.64 115.84 179.64 112.29 179.64 109.06C178 107.97 176.39 107.26 175.26 106.09C171.01 101.68 166.12 101.61 161.06 104.05C158.12 105.47 155.49 107.53 152.71 109.29C151.55 110.03 150.38 110.75 149.21 111.48C148.96 111.25 148.7 111.02 148.45 110.79C148.97 109.86 149.32 108.76 150.05 108.03C154.65 103.43 160.06 100.24 166.6 99.41C171.23 98.82 175.22 100.34 178.36 104.01C179.23 103.5 179.97 103.07 181.02 102.46C183.75 118.59 180.76 134.55 182.85 150.55C183.19 148.91 183.84 147.26 183.82 145.62C183.73 138.13 183.37 130.64 183.25 123.15C183.18 118.4 183.28 113.64 183.51 108.89C183.57 107.73 184.45 106.62 184.95 105.48L186.15 105.8Z" fill="black"/>
<path d="M198.83 51.3798C198.75 53.4932 199.103 55.1732 199.889 56.4198C199.119 57.4198 197.94 58.3098 197.7 59.3898C197.19 61.7198 195.56 62.4198 193.7 62.3898C189.75 62.3398 185.79 62.1098 181.86 61.6698C179.69 61.4198 178.95 59.8298 179.42 57.5698C179.99 54.7898 181.43 52.6698 184.21 51.8298C186.72 51.0798 189.289 50.4398 191.879 50.0098C194.359 49.5998 196.78 50.0198 198.93 51.4898L198.83 51.3798ZM189 51.8398C188.42 53.9498 188.19 55.6498 187.45 57.0998C187.08 57.8198 185.68 58.5398 184.94 58.3698C184.28 58.2298 183.77 56.9098 183.43 56.0298C183.2 55.4398 183.389 54.6898 183.389 54.0098C183.069 53.9598 182.74 53.9198 182.42 53.8698C181.98 55.8198 181.54 57.7798 181.03 60.0498C184.56 60.3698 187.41 60.6698 190.27 60.8798C191.04 60.9398 191.86 60.5298 192.59 60.6698C194.33 61.0098 195.02 60.0298 195.46 58.6698C197.84 51.3798 196.729 51.2198 190.379 51.5398C189.869 51.5698 189.38 51.7598 188.98 51.8498L189 51.8398Z" fill="black"/>
<path d="M177.67 76.1698C177.59 75.6198 177.589 74.9798 177.409 74.3898C176.129 70.1998 176.57 69.4298 181.02 69.1098C183.75 68.9098 186.739 67.1698 189.159 69.9998C187.669 74.3298 182.71 77.0398 177.67 76.1698ZM187.08 70.7898C183.57 70.3398 180.76 69.7698 178.18 71.6898C179.6 74.1398 180.86 74.0398 187.08 70.7898Z" fill="black"/>
<path d="M170.5 63.42C173.55 61.72 173.62 61.75 175.43 65.71C173.57 66.9367 171.927 66.1733 170.5 63.42Z" fill="black"/>
<path d="M82.8796 64.9C79.3196 65.97 77.4998 63.7499 75.0698 60.8599C78.9798 60.7999 80.7096 63.3 82.8796 64.9Z" fill="black"/>
<path d="M92.2795 54.6599C93.9995 53.4199 95.7195 52.1699 97.4395 50.9299C97.6895 51.2799 97.9495 51.6299 98.1995 51.9699C96.5295 53.2099 94.8594 54.46 93.1794 55.7C92.8794 55.35 92.5795 54.9999 92.2695 54.6499L92.2795 54.6599Z" fill="black"/>
</svg>
