<svg width="354" height="144" viewBox="0 0 354 144" fill="none" xmlns="http://www.w3.org/2000/svg">
<path d="M334.87 49.9998C333.72 40.4598 328.22 33.3198 322.99 27.5898C315.86 19.7798 308.63 13.8898 300.86 9.59982C295.49 6.62982 289.27 4.92982 281.84 4.40982C278.01 4.13982 274.73 5.90982 273.07 9.12982C271.69 11.7998 271.79 14.5998 273.3 17.0298C271.79 19.2398 271.96 21.6998 272.09 23.5898C272.16 24.5598 272.22 25.3998 272.08 26.0798C271.78 27.5398 271.6 29.0098 271.46 30.5098C266.66 24.4498 260.97 18.1498 253.72 13.3598C247.29 9.1198 240.78 6.26983 233.82 4.66983C230.92 3.99983 227.93 3.50982 226.01 5.34982C224.1 7.18982 224.48 10.1898 225.04 13.1098C225.16 13.7198 225.31 14.5598 225.82 15.3498C226.01 15.6398 225.99 15.9698 225.82 17.0398C225.75 17.4498 225.69 17.8598 225.65 18.2698C225.33 21.6898 225.17 25.1398 225.02 28.5298L224.96 29.8998C224.45 29.2798 223.95 28.6398 223.45 28.0198C221.07 25.0198 218.61 21.9198 215.3 19.4398C213.04 17.7498 211.02 16.0198 209.29 14.3098C203.19 8.27981 195.56 5.48983 188.17 2.78983C187.3 2.46983 186.44 2.1598 185.57 1.8298C183.52 1.0698 181.48 1.21983 179.83 2.25983C178.03 3.38983 176.92 5.38983 176.69 7.88983C176.59 8.94983 176.71 9.94981 176.81 10.8398C176.87 11.4098 176.94 11.9398 176.93 12.4198C176.93 13.4398 176.74 14.5198 176.59 15.3398C176.47 15.9398 176.3 16.5898 176.13 17.2198C175.82 18.3998 175.46 19.7498 175.37 21.1498C175.29 22.4398 175.26 23.7398 175.26 25.0598C173.79 23.5198 172.34 22.0598 170.77 20.7198C163.7 14.7098 156.54 10.1798 148.87 6.88983C143.92 4.76983 139.01 4.10981 133.83 4.89981C129.12 5.61981 127.84 6.48982 127.76 11.2498C127.76 11.5798 127.75 11.9298 127.74 12.3298C127.64 15.9798 127.17 19.6498 126.68 23.5298C126.67 23.6298 126.65 23.7398 126.64 23.8398C126.12 23.3398 125.6 22.8298 125.04 22.2798C123.49 20.7398 121.88 19.1598 120.05 17.7798C111.67 11.4998 104.33 6.93981 96.95 3.42981C92.17 1.15981 87.4496 0.639805 81.8396 0.549805C79.4796 0.549805 78.17 1.47982 77.47 2.27982C76.5 3.37982 76.1096 4.90981 76.3596 6.58981C76.9196 10.3098 76.6597 14.1998 76.4197 17.9798C76.2597 20.3698 76.0997 22.8398 76.1297 25.3298C76.1497 26.5598 76.1497 27.7898 76.1497 29.0198C74.5297 27.6098 72.8496 26.1798 71.0896 24.8398L70.9197 24.7098C66.4297 21.2898 61.7797 17.7598 56.9597 14.5998C50.3297 10.2498 44.12 7.37981 37.97 5.83981C35.18 5.13981 33.5199 5.91983 32.6199 6.69983C31.2899 7.85983 30.7398 9.6698 30.9998 12.0798C31.1898 13.8498 31.4 15.8498 31.2 17.6398C30.31 25.7198 30.0599 34.4898 30.4099 44.4298C30.4399 45.1598 30.4798 45.8898 30.5198 46.6098C30.5998 48.0698 30.6797 49.5698 30.6297 50.9898C30.5497 53.1498 30.4096 55.3598 30.2796 57.5498C30.1096 60.2898 29.9299 63.1098 29.8699 65.9198C29.8199 68.2298 29.8699 70.5598 29.9099 72.8198C29.9699 75.8698 30.0296 79.0298 29.8396 82.0698C29.6996 84.2798 29.84 86.4498 29.99 88.5498C30.2 91.5698 30.4197 94.6998 29.6297 97.5398C29.4697 98.1298 29.5098 98.6298 29.5398 98.9298V101.76L32.1497 101.64C34.2497 101.54 36.3497 101.45 38.4597 101.36C40.8097 101.26 43.1698 101.16 45.5198 101.09C48.0998 101.01 50.7499 101 53.3299 101C56.4199 101 59.6198 101 62.8098 100.85C68.6198 100.59 74.4396 100.21 80.0696 99.8398L80.6897 99.7998C83.0497 99.6498 85.4098 99.4898 87.7698 99.3498L94.3098 98.9398C99.5398 98.6098 105.47 98.2398 111.25 97.9298L114.43 97.7598C122.49 97.3198 130.82 96.8698 139.02 96.5898C145.57 96.3698 152.25 96.2298 158.7 96.0998H158.82C162.96 96.0098 167.11 95.9298 171.25 95.8198C174.18 95.7498 177.11 95.6398 180.04 95.5398L180.54 95.5198C184.82 95.3698 189.25 95.2098 193.59 95.1498C201.08 95.0398 208.87 95.0698 215.75 95.0998H218.96C226.92 95.1398 237.4 95.1898 247.92 95.3098C253.69 95.3798 259.47 95.4698 265.24 95.5698C271.43 95.6698 277.63 95.7698 283.82 95.8398C288.58 95.8898 293.34 95.9098 298.1 95.9298H298.44C303.36 95.9498 308.27 95.9698 313.18 96.0298C315.59 96.0598 318.1 96.1698 320.31 96.2698C322.15 96.3498 324 96.4398 325.84 96.4798H326.34C326.54 96.4998 326.73 96.5098 326.92 96.5098C327.71 96.5198 328.49 96.5298 329.28 96.5398L333.55 96.5998L333.45 93.7098C333.35 90.9698 333.25 88.2298 333.18 85.4898C333.02 78.8198 332.93 71.6298 332.91 62.8798C332.91 62.6198 333.07 62.1398 333.22 61.6698C333.4 61.1298 333.6 60.5098 333.7 59.8198C333.83 58.9898 334 58.1498 334.17 57.3098C334.65 54.9398 335.15 52.4898 334.85 49.9698L334.87 49.9998Z" fill="white"/>
<path d="M38.1899 40.1199C38.9299 43.9099 36.9599 47.5399 37.8999 51.4899C38.5599 54.2899 37.65 57.4499 37.48 60.4499C37.45 60.9099 37.7 61.3798 37.71 61.8498C37.77 65.5498 37.8098 69.2399 37.8198 72.9399C37.8198 73.5199 37.5401 74.1099 37.5801 74.6699C37.7301 76.5599 38.1801 78.4499 38.1401 80.3399C38.0801 83.6799 37.0999 87.1299 37.6699 90.3299C38.1799 93.2099 38.1501 96.0499 38.1201 98.8899C40.5601 98.7799 43.0002 98.6899 45.4502 98.6099C51.2002 98.4299 56.97 98.6199 62.71 98.3699C71.02 97.9999 79.3301 97.3799 87.6401 96.8699C95.4701 96.3899 103.3 95.8699 111.13 95.4499C120.4 94.9499 129.67 94.4199 138.95 94.1099C149.7 93.7399 160.45 93.6199 171.2 93.3399C178.66 93.1499 186.11 92.7799 193.57 92.6699C202.04 92.5499 210.51 92.5999 218.98 92.6299C228.64 92.6599 238.3 92.7199 247.96 92.8299C259.93 92.9699 271.89 93.2299 283.86 93.3599C293.65 93.4699 303.44 93.4299 313.23 93.5499C317.64 93.5999 322.04 93.9299 326.45 94.0199C326.5 93.3399 326.56 92.6599 326.66 91.9799C327.42 86.6099 326.16 81.2899 326.93 75.9799C327.03 75.2999 327.02 74.3799 326.65 73.8899C323.83 70.1099 324.51 65.5199 324.24 61.3899C323.78 54.5799 321.64 48.5799 318.15 42.9399C313.94 36.1399 308.66 30.2499 302.27 25.4299C297.36 21.7299 291.84 19.2799 285.9 17.6299C283.63 16.9999 281.49 16.8799 279.01 17.1599C279.25 20.5599 279.57 23.7399 279.66 26.9299C279.75 30.1199 279.62 33.3099 279.58 36.7999C278.02 36.3699 277.02 36.0899 276.04 35.8099C274.75 36.8599 273.54 37.8399 272.33 38.8199C272.58 39.2999 272.83 39.7899 273.07 40.2699C273.82 40.2599 274.57 40.2399 275.31 40.2299C275.34 40.1199 275.36 39.9899 275.41 39.8899C275.91 38.9399 275.32 37.0599 277.32 37.3799C278.82 37.6199 279.98 38.3999 279.68 40.2499C279.64 40.4799 279.66 40.7299 279.66 40.9699C279.66 41.6899 279.66 42.4199 279.65 43.1399C279.65 43.6299 279.64 44.1099 279.63 44.5999C279.41 47.3199 279.37 50.0799 278.93 52.7599C278.52 55.2699 276.7 56.7699 274.17 57.7699C272.68 55.7199 271.24 53.7199 269.78 51.7299C269.45 51.2799 269.06 50.5199 268.67 50.4999C265.57 50.3399 265.94 48.0799 265.84 46.0699C265.1 44.5299 264.37 42.9999 263.65 41.4999C264.77 40.7399 265.71 40.0899 266.65 39.4499C266.36 38.9699 266.07 38.4999 265.78 38.0199C264.82 38.5899 263.87 39.1599 262.91 39.7299C260.09 32.5999 254.81 28.1099 249.27 24.1699C243.71 20.2299 237.41 17.4999 230.24 16.0799C230.24 17.9399 229.95 19.3299 230.29 20.5499C231.49 24.8399 230.72 29.1799 230.96 33.4899C231.03 34.6899 230.96 35.9199 231.24 37.0699C232.48 42.1899 231.39 41.8299 227.32 43.7999H227.23C228.79 45.7699 230.06 43.9399 231.52 43.3799C231.96 45.2899 231.31 46.8099 230.24 48.2199C230.36 49.6599 228.09 50.0999 228.79 51.8899C229.27 53.1299 229.38 54.5099 229.76 56.3199C228.5 56.0199 227.57 56.0699 227.3 55.6799C226.23 54.1199 225.13 52.4899 224.5 50.7299C224.13 49.7099 224.05 48.8099 223 48.1299C222.5 47.7999 222.46 46.7499 222.21 46.0299C221.97 45.7899 221.73 45.5499 221.48 45.3099C220.82 43.9899 220.16 42.6699 219.36 41.0599C220.13 40.7399 220.83 40.4499 221.54 40.1599C221.07 39.6799 220.6 39.2099 220.12 38.7299C218.47 39.7999 217.28 39.3299 216.28 37.7299C215.59 36.6199 214.86 35.4799 213.9 34.6099C210.34 31.3999 206.94 27.9299 203 25.2699C198.39 22.1599 193.33 19.6599 188.34 17.1699C186.88 16.4399 185.07 15.5299 182.86 16.7399C182.67 19.0299 182.29 21.4999 182.29 23.9699C182.29 26.3399 182.72 28.7099 182.94 31.0799C183.18 33.6899 183.47 36.2999 183.61 38.9099C183.69 40.4799 183.59 42.0999 181.47 42.4099C181.49 42.6399 181.5 42.8799 181.5 43.1099C182.97 44.3899 181.5 45.3099 180.87 45.8599C179.97 46.6499 178.64 46.9499 177.28 47.5499C176.39 46.4399 174.54 45.9499 174.98 43.8499C175.45 42.8699 175.92 41.8999 176.39 40.9199C174.7 42.0499 173.75 41.1299 172.57 39.8599C169.9 36.9799 168.03 33.5299 164.98 30.8399C161.41 27.6999 157.92 24.6499 153.59 22.6399C151.98 21.8899 150.45 20.9699 148.83 20.2499C145.26 18.6599 141.71 16.9699 138.04 15.6599C136.26 15.0299 134.22 15.1899 132.55 17.1899C132.95 24.6399 133.37 32.3099 133.8 40.2299C130.69 39.5599 130.01 42.5899 127.8 44.1799C126.56 43.1599 125.29 42.1399 124.06 41.0899C122 39.3399 120.93 36.8099 119.28 34.7299C114.61 28.8599 108.4 25.2999 102.19 21.5699C100.58 20.5999 98.91 19.8999 97.25 19.1199C95.28 18.1899 93.4902 16.8199 91.4702 16.0399C88.9602 15.0799 86.3298 14.1399 83.2998 15.1599C83.2998 21.1099 83.4 27.0199 83.27 32.9199C83.16 37.9299 82.77 42.9299 82.5 47.9399C79.54 47.7399 77.95 46.5799 76.77 43.9499C71.9 36.8899 65.8498 30.9699 58.7598 26.2199C53.2498 22.5199 47.2302 19.7699 40.7202 18.1999C40.5402 18.1599 40.4298 17.8499 40.2798 17.6699C39.1298 17.7099 37.9798 17.7399 36.5698 17.7799C36.9298 19.6699 37.3899 21.0499 37.4399 22.4399C37.6299 28.3299 37.0502 34.2499 38.2002 40.0899L38.1899 40.1199ZM126.27 45.0999C127.96 44.7299 129.45 44.3999 131.01 44.0499C130.84 44.5199 130.69 44.9299 130.53 45.3499C130.55 45.5799 130.5 45.8599 130.6 46.0499C131.18 47.1199 130.97 48.2299 130.07 48.7699C128.94 49.4399 128.11 48.6099 127.62 47.5399C125.62 47.4299 126.33 46.0699 126.26 45.0999H126.27ZM52.73 66.9799C55.82 65.7799 58.6598 64.5799 61.5698 63.5799C63.0998 63.0599 64.7301 62.1599 66.3701 63.4199C66.4501 63.4799 66.6002 63.4899 66.7202 63.4799C71.4402 62.9799 76.2402 64.2799 80.9302 62.8799C81.4902 62.7099 82.1402 62.7599 82.7402 62.7999C85.9902 62.9899 89.25 63.2398 92.5 63.4098C93.07 63.4398 93.6502 63.1599 94.2202 63.1499C96.3502 63.1099 98.4901 63.1299 100.62 63.1199C101.41 63.1199 102.2 63.1498 102.99 63.0998C103.46 63.0698 103.92 62.7899 104.38 62.8199C106.91 62.9599 109.44 63.1799 111.97 63.3199C112.79 63.3699 113.61 63.2599 114.43 63.2599C116.91 63.2399 119.4 63.1899 121.88 63.2299C123.07 63.2499 124.27 63.5499 125.46 63.4999C129.55 63.3199 133.64 62.9499 137.74 62.8399C139.38 62.7999 141.1 63.6099 142.68 63.3699C146.73 62.7399 150.74 63.3299 154.73 63.2499C159.02 63.1599 163.27 62.4199 167.55 63.4499C168.47 63.6699 169.48 63.5699 170.45 63.5199C175.4 63.3099 180.34 62.9199 185.28 62.8799C188.5 62.8499 191.73 63.4099 194.95 63.4999C198.24 63.5899 201.55 63.7298 204.8 62.9098C205.21 62.8098 205.71 63.1499 206.18 63.1699C208.08 63.2299 209.98 63.2599 211.88 63.2699C212.67 63.2699 213.46 63.1999 214.25 63.2299C214.72 63.2499 215.2 63.5599 215.64 63.4999C222.46 62.6799 229.26 63.8499 236.09 63.5899C243.41 63.3099 250.75 63.5699 258.08 63.4999C259.98 63.4799 261.86 62.9999 263.76 62.8999C265.32 62.8199 266.89 62.9699 268.45 63.0299C269.97 63.0899 271.5 63.1699 273.02 63.2599C274.16 63.3299 275.3 63.5099 276.44 63.5199C280.98 63.5499 285.52 63.5699 290.06 63.5099C291.1 63.4999 292.13 63.1699 293.59 62.9199C294.04 64.5599 294.7 66.2098 294.89 67.9098C295.12 70.0698 294.96 72.2699 294.96 74.4499C294.96 75.7399 294.31 76.3699 293.03 76.6199C290.23 77.1699 287.49 78.0299 284.67 78.4299C282.15 78.7899 279.57 78.6499 277.02 78.8299C275 78.9699 272.99 79.2799 270.98 79.4299C270.29 79.4799 269.58 79.2699 268.87 79.1999C267.44 79.0599 265.99 78.6898 264.59 78.8498C257.48 79.6498 250.33 79.8199 243.22 79.4299C238.32 79.1699 233.48 79.6799 228.6 79.5599C223.63 79.4399 218.66 79.5799 213.69 79.4999C211.79 79.4699 209.9 79.0999 208 78.9399C207.43 78.8899 206.84 79.0999 206.26 79.1099C203.53 79.1099 200.8 79.1099 198.08 79.0599C197.25 79.0499 196.31 78.6299 195.6 78.8799C193.7 79.5699 191.93 79.7899 190.04 78.8799C189.58 78.6599 188.87 78.9099 188.28 79.0299C187.7 79.1399 186.97 79.6599 186.59 79.4599C183.73 77.9099 180.95 79.7599 178.14 79.4899C176.36 79.3199 174.6 78.9699 172.82 78.8799C171.39 78.8099 169.95 78.9798 168.52 79.0998C167.46 79.1898 166.36 79.6399 165.35 79.4799C161.67 78.8699 158.03 79.5299 154.37 79.5099C150.61 79.4899 146.8 79.9198 143.11 79.4098C139.84 78.9598 136.54 80.0699 133.34 78.8699C132.84 78.6799 132.16 78.9799 131.57 78.9799C129.22 79.0099 126.87 79.0299 124.52 79.0199C123.93 79.0199 123.28 78.6999 122.76 78.8599C118.36 80.1699 113.86 79.5399 109.44 79.3799C106.85 79.2799 104.35 78.9999 101.71 79.3999C99.47 79.7399 97.09 79.1299 94.77 79.0899C93.01 79.0599 91.24 79.3299 89.48 79.3099C88.44 79.2999 87.4101 78.8499 86.3701 78.8299C81.9601 78.7799 77.5501 78.8998 73.1401 78.7898C68.5201 78.6798 63.88 79.3799 59.29 78.1799C58.19 77.8899 56.9 78.1699 55.73 78.3899C53.4 78.8299 52.81 78.5399 52.75 76.3299C52.67 73.1999 52.73 70.0599 52.73 67.0099V66.9799Z" fill="#DCEDEB"/>
<path d="M278.34 14.7699V10.7799C280.09 10.3499 281.53 9.15988 283.49 10.3199C284.39 10.8499 285.86 10.4999 287.07 10.4199C292.15 10.0999 296.66 11.8699 301.03 14.1399C306.76 17.1199 311.37 21.6099 315.87 26.0699C319.55 29.7199 322.81 33.9099 325.09 38.6999C325.65 39.8699 326.26 41.0099 326.97 42.0899C328.62 44.5999 328.14 47.2298 327.44 50.0998C326.47 50.7698 325.55 50.4099 324.94 49.3399C324.23 48.0999 323.73 46.7499 323.06 45.4899C320.36 40.4799 317.67 35.4299 313.45 31.4799C308.63 26.9699 303.86 22.2999 297.77 19.4999C291.72 16.7199 285.51 14.3499 278.35 14.7599L278.34 14.7699Z" fill="#E79062"/>
<path d="M76.7499 43.9799C71.8799 36.9199 65.8301 30.9999 58.7401 26.2499C53.2301 22.5499 47.2101 19.7999 40.7001 18.2299C40.5201 18.1899 40.4096 17.8799 40.2596 17.6999C38.9796 17.3299 37.7099 16.9699 36.2499 16.5499C36.0799 15.8799 35.8698 14.9699 35.6298 14.0799C34.8098 11.0099 35.8099 9.92993 38.7899 10.7599C43.2399 11.9999 47.4598 13.7899 51.3798 16.2799C54.5698 18.3099 57.9197 20.0999 61.0497 22.2199C64.6397 24.6499 68.36 26.9199 71.41 30.1099C72.78 31.5399 74.6301 32.5099 76.2001 33.7699C78.3801 35.5099 80.5099 37.2699 78.9799 40.6199C78.6199 41.4099 78.93 42.4999 78.93 43.6899C78.1 43.8099 77.4199 43.8999 76.7499 43.9999V43.9799Z" fill="#E79062"/>
<path d="M128.92 38.5899C127.69 38.7599 126.9 38.9999 125.9 37.6299C123.56 34.4299 120.85 31.4899 118.16 28.5499C116.8 27.0699 115.27 25.6999 113.64 24.5299C110.71 22.4199 107.7 20.3899 104.62 18.5199C102.97 17.5199 101.66 15.5199 99.25 16.2099C97.02 13.8699 93.9899 13.7999 91.1099 13.2099C90.3499 13.0599 89.7698 12.1399 89.0098 11.8999C87.9298 11.5699 86.7001 11.2599 85.6401 11.4699C82.2901 12.1299 81.8401 11.8599 81.8301 8.44991C81.8301 7.74991 81.8301 7.04989 81.8301 6.26989C88.4001 5.43989 94.14 6.53989 99.48 10.1099C103.98 13.1099 108.77 15.6599 113.37 18.5299C114.98 19.5399 116.46 20.7999 117.85 22.0999C121.14 25.2199 124.58 28.2099 127.47 31.7099C129.07 33.6399 129.39 35.9699 128.93 38.5699L128.92 38.5899Z" fill="#E79062"/>
<path d="M272.32 38.8299C272.57 39.3099 272.82 39.7999 273.06 40.2799C273.3 40.7599 273.54 41.2299 273.79 41.7099C273.84 42.4299 273.89 43.1499 273.95 43.8699C273.86 45.0099 273.78 46.1499 273.69 47.2499C270.42 48.1999 269.82 45.6599 268.68 43.8899C268 42.4099 267.32 40.9399 266.64 39.4599C266.35 38.9899 266.06 38.5099 265.77 38.0399C263.49 32.8699 259.31 29.2899 255.13 25.7899C252.79 23.8299 250.15 22.1099 247.4 20.7899C242.76 18.5699 237.92 16.7599 233.16 14.7899C232.21 14.3999 231.21 14.1099 230.38 13.8199V9.61987C231.7 9.80987 232.89 9.79987 233.96 10.1499C238.43 11.6299 242.98 12.9799 247.28 14.8699C250.16 16.1299 252.81 18.0499 255.33 19.9799C257.93 21.9699 260.6 24.0599 262.61 26.5999C265.47 30.2199 269.22 33.1799 271.07 37.5899C271.28 38.0899 271.9 38.4099 272.32 38.8199V38.8299Z" fill="#E79062"/>
<path d="M221.52 40.19C221.05 39.72 220.58 39.24 220.1 38.77C219.96 38.07 220.06 37.17 219.65 36.71C216.79 33.52 213.45 30.83 210.3 27.94C207.29 25.18 203.6 23.5 200.51 20.85C198.01 18.71 194.56 17.61 191.43 16.3C187.77 14.77 184 13.51 180.14 12.08V7.76002C181.59 7.51002 182.82 7.31001 184.19 8.31001C185.18 9.04001 186.62 9.12002 187.77 9.67002C191.28 11.34 194.68 13.23 198.24 14.76C201.09 15.98 203.92 17.14 206.29 19.18C209.04 21.55 212.32 23.26 214.57 26.27C215.54 27.57 217.2 28.32 218.35 29.52C221.11 32.39 223.74 35.4 226.47 38.31C228.05 39.99 226.99 42.01 227.31 43.84H227.22C226.06 43.84 224.9 43.84 223.73 43.84C223 42.62 222.26 41.4 221.53 40.19H221.52Z" fill="#E79062"/>
<path d="M177.56 38.5199C176.25 39.0099 175.01 38.9899 174.36 37.7099C172.04 33.0999 167.76 30.1799 164.57 26.3099C163.08 24.4999 160.61 23.4499 158.5 22.2099C156.81 21.2199 154.86 20.6299 153.23 19.5499C148.24 16.2399 142.82 14.6699 136.84 14.7699C132.59 14.8499 132.58 14.7699 132.92 9.72988C139 9.89988 145.15 8.77987 150.82 12.5299C153.95 14.5999 157.59 15.8999 160.75 17.9299C163.56 19.7299 166.14 21.9399 168.6 24.1999C171.07 26.4599 173.3 28.9899 175.58 31.4499C177.36 33.3599 178.48 35.5199 177.53 38.5299L177.56 38.5199Z" fill="#E79062"/>
<path d="M181.46 42.44C181.48 42.67 181.49 42.91 181.49 43.14C180.45 42.7 179.42 42.2699 178.31 41.7999C177.79 42.6399 177.26 43.49 176.78 44.26C176.1 44.12 175.53 44 174.96 43.89C175.43 42.91 175.9 41.9399 176.37 40.9599C176.97 40.7699 177.7 40.2799 178.14 40.4599C179.31 40.9599 180.36 41.7599 181.45 42.4299L181.46 42.44Z" fill="#A6CCE9"/>
<path d="M293.58 62.8899C294.03 64.5299 294.69 66.1799 294.88 67.8799C295.11 70.0399 294.95 72.2399 294.95 74.4199C294.95 75.7099 294.3 76.3399 293.02 76.5899C290.22 77.1399 287.48 77.9999 284.66 78.3999C282.14 78.7599 279.56 78.6199 277.01 78.7999C274.99 78.9399 272.98 79.2499 270.96 79.3999C270.27 79.4499 269.56 79.2399 268.85 79.1699C267.42 79.0299 265.97 78.6599 264.57 78.8199C257.46 79.6199 250.31 79.7899 243.2 79.3999C238.3 79.1399 233.46 79.6499 228.58 79.5299C223.61 79.4099 218.64 79.5499 213.67 79.4699C211.77 79.4399 209.88 79.0699 207.98 78.9099C207.41 78.8599 206.82 79.0699 206.24 79.0799C203.51 79.0799 200.78 79.0799 198.06 79.0299C197.23 79.0199 196.29 78.5999 195.58 78.8499C193.68 79.5399 191.91 79.7599 190.02 78.8499C189.56 78.6299 188.85 78.8799 188.26 78.9999C187.68 79.1099 186.95 79.6299 186.57 79.4299C183.71 77.8799 180.93 79.7299 178.12 79.4599C176.34 79.2899 174.58 78.9399 172.8 78.8499C171.37 78.7799 169.93 78.9499 168.5 79.0699C167.44 79.1599 166.34 79.6099 165.33 79.4499C161.65 78.8399 158.01 79.4999 154.35 79.4799C150.59 79.4599 146.78 79.8899 143.09 79.3799C139.82 78.9299 136.52 80.0399 133.32 78.8399C132.82 78.6499 132.14 78.9499 131.55 78.9499C129.2 78.9799 126.85 78.9999 124.5 78.9899C123.91 78.9899 123.26 78.6699 122.74 78.8299C118.34 80.1399 113.84 79.5099 109.42 79.3499C106.83 79.2499 104.33 78.9699 101.69 79.3699C99.45 79.7099 97.0701 79.0999 94.7501 79.0599C92.9901 79.0299 91.2201 79.2999 89.4601 79.2799C88.4201 79.2699 87.3902 78.8199 86.3502 78.7999C81.9402 78.7499 77.5302 78.8699 73.1202 78.7599C68.5002 78.6499 63.8601 79.3499 59.2701 78.1499C58.1701 77.8599 56.8801 78.1399 55.7101 78.3599C53.3801 78.7999 52.7901 78.5099 52.7301 76.2999C52.6501 73.1699 52.7101 70.0299 52.7101 66.9799C55.8001 65.7799 58.6399 64.5799 61.5499 63.5799C63.0799 63.0599 64.7102 62.1599 66.3502 63.4199C66.4302 63.4799 66.5803 63.4899 66.7003 63.4799C71.4203 62.9799 76.2203 64.2799 80.9103 62.8799C81.4703 62.7099 82.1203 62.7599 82.7203 62.7999C85.9703 62.9899 89.2301 63.2299 92.4801 63.4099C93.0501 63.4399 93.6303 63.1599 94.2003 63.1499C96.3303 63.1099 98.4702 63.1299 100.6 63.1199C101.39 63.1199 102.18 63.1499 102.97 63.0999C103.44 63.0699 103.9 62.7899 104.36 62.8199C106.89 62.9599 109.42 63.1799 111.95 63.3199C112.77 63.3699 113.59 63.2599 114.41 63.2599C116.89 63.2399 119.38 63.1899 121.86 63.2299C123.05 63.2499 124.25 63.5499 125.44 63.4999C129.53 63.3199 133.62 62.9499 137.72 62.8399C139.36 62.7999 141.08 63.6099 142.66 63.3699C146.71 62.7399 150.72 63.3299 154.71 63.2499C159 63.1599 163.25 62.4199 167.53 63.4499C168.45 63.6699 169.46 63.5699 170.43 63.5199C175.38 63.3099 180.32 62.9199 185.26 62.8799C188.48 62.8499 191.71 63.4099 194.93 63.4999C198.22 63.5899 201.53 63.7299 204.78 62.9099C205.19 62.8099 205.69 63.1499 206.16 63.1699C208.06 63.2299 209.96 63.2599 211.86 63.2699C212.65 63.2699 213.44 63.1999 214.23 63.2299C214.7 63.2499 215.18 63.5599 215.62 63.4999C222.44 62.6799 229.24 63.8499 236.07 63.5899C243.39 63.3099 250.73 63.5699 258.06 63.4999C259.96 63.4799 261.84 62.9999 263.74 62.8999C265.3 62.8199 266.87 62.9699 268.43 63.0299C269.95 63.0899 271.48 63.1599 273 63.2599C274.14 63.3299 275.28 63.5099 276.42 63.5199C280.96 63.5499 285.5 63.5699 290.04 63.5099C291.08 63.4999 292.11 63.1699 293.57 62.9199L293.58 62.8899Z" fill="#80B6E0"/>
<path d="M268.67 43.9C269.82 45.67 270.42 48.21 273.68 47.26C273.76 46.16 273.85 45.02 273.94 43.88C275.88 43.77 277.58 45.44 279.61 44.61C279.39 47.33 279.35 50.09 278.91 52.77C278.5 55.28 276.68 56.78 274.15 57.78C272.66 55.73 271.22 53.73 269.76 51.74C269.43 51.29 269.04 50.53 268.65 50.51C265.55 50.35 265.92 48.09 265.82 46.08C266.77 45.35 267.71 44.62 268.66 43.89L268.67 43.9Z" fill="#80B7E0"/>
<path d="M230.22 48.2499C230.34 49.6899 228.07 50.1299 228.77 51.9199C229.25 53.1599 229.36 54.5399 229.74 56.3499C228.48 56.0499 227.55 56.0999 227.28 55.7099C226.21 54.1499 225.11 52.5199 224.48 50.7599C224.11 49.7399 224.03 48.8399 222.99 48.1599C222.49 47.8299 222.45 46.7799 222.2 46.0599C224.03 47.1999 224.44 44.3899 225.41 44.5999C226.86 45.2499 227.91 45.5299 228.71 46.1399C229.37 46.6399 229.73 47.5299 230.22 48.2499Z" fill="#80B7E0"/>
<path d="M174.96 43.8898C175.53 44.0098 176.09 44.1198 176.78 44.2598C177.26 43.4898 177.79 42.6398 178.31 41.7998C179.42 42.2698 180.46 42.6998 181.49 43.1398C182.96 44.4198 181.49 45.3398 180.86 45.8898C179.96 46.6798 178.63 46.9798 177.27 47.5798C176.38 46.4698 174.53 45.9798 174.97 43.8798L174.96 43.8898Z" fill="#92C1E3"/>
<path d="M230.22 48.2499C229.73 47.5299 229.37 46.6399 228.71 46.1399C227.91 45.5299 226.86 45.2499 225.41 44.5999C224.44 44.3899 224.03 47.1999 222.2 46.0599C221.96 45.8199 221.72 45.5799 221.47 45.3399C222.22 44.8399 222.97 44.3399 223.72 43.8499C224.88 43.8499 226.04 43.8499 227.21 43.8499C228.77 45.8099 230.04 43.9899 231.5 43.4199C231.94 45.3299 231.29 46.8499 230.22 48.2599V48.2499Z" fill="#8DBEE2"/>
<path d="M268.67 43.9C267.72 44.63 266.78 45.36 265.83 46.09C265.09 44.55 264.36 43.02 263.64 41.52C264.76 40.75 265.7 40.11 266.64 39.47C267.32 40.95 268 42.42 268.68 43.9H268.67Z" fill="#8BBDE3"/>
<path d="M223.72 43.8499C222.97 44.3499 222.22 44.8499 221.47 45.3399C220.81 44.0199 220.15 42.6999 219.35 41.0899C220.12 40.7699 220.82 40.4799 221.53 40.1899C222.26 41.4099 223 42.6299 223.73 43.8399L223.72 43.8499Z" fill="#A2CAE7"/>
<path d="M275.31 40.25C275.34 40.14 275.36 40.01 275.41 39.91C275.91 38.96 275.32 37.08 277.32 37.4C278.82 37.64 279.98 38.42 279.68 40.27C279.64 40.5 279.66 40.75 279.66 40.99C278.91 40.88 278.12 40.58 277.42 40.72C276.58 40.88 275.83 41.33 275.32 40.26L275.31 40.25Z" fill="#C1DBF0"/>
<path d="M275.31 40.25C275.82 41.33 276.57 40.88 277.41 40.71C278.11 40.58 278.9 40.88 279.65 40.98C279.65 41.7 279.65 42.43 279.64 43.15C277.69 42.67 275.74 42.19 273.79 41.71C273.55 41.23 273.31 40.76 273.06 40.28C273.81 40.27 274.56 40.25 275.3 40.24L275.31 40.25Z" fill="#A3CAE8"/>
<path d="M273.79 41.72C275.74 42.2 277.69 42.68 279.64 43.16C279.64 43.65 279.63 44.13 279.62 44.62C277.59 45.45 275.88 43.77 273.95 43.89C273.9 43.17 273.85 42.45 273.79 41.73V41.72Z" fill="#8BBDE3"/>
<path d="M127.63 47.5398C125.63 47.4298 126.34 46.0698 126.27 45.0998C127.96 44.7298 129.45 44.3998 131.01 44.0498C130.84 44.5198 130.69 44.9298 130.53 45.3498C129.56 46.0798 128.59 46.8098 127.62 47.5398H127.63Z" fill="#ACCFEB"/>
<path d="M127.63 47.5399C128.6 46.8099 129.57 46.0799 130.54 45.3499C130.56 45.5799 130.51 45.8598 130.61 46.0498C131.19 47.1198 130.98 48.2298 130.08 48.7698C128.95 49.4398 128.12 48.6199 127.63 47.5399Z" fill="#8FBFE2"/>
<path d="M54.4102 78.96C55.8602 78.89 57.31 78.6899 58.75 78.7499C63.68 78.9599 68.5998 79.3999 73.5298 79.4899C80.1198 79.6199 86.7098 79.46 93.2998 79.51C98.4798 79.55 103.66 79.8099 108.85 79.7999C113.61 79.7999 118.37 79.4499 123.13 79.4799C129.2 79.5199 135.27 79.9299 141.33 79.9099C151.37 79.8799 161.41 79.5 171.45 79.51C181.22 79.51 190.99 79.8799 200.76 79.9899C206.6 80.0599 212.43 79.95 218.27 79.89C225.01 79.82 231.74 79.63 238.48 79.64C245.52 79.65 252.56 79.9599 259.61 79.9199C265.94 79.8799 272.28 79.5999 278.61 79.2899C281.77 79.1399 284.91 78.7 288.06 78.38C288.06 78.01 288.06 77.64 288.06 77.27C278.67 75.22 268.95 76.5599 259.49 75.4299C260.12 72.2099 260.63 69.5599 261.24 66.4399H290.57C290.47 68.2299 290.36 70.3699 290.25 72.4999C290.04 76.3799 290.33 76.6599 294.7 76.6199C296.22 73.4399 295.53 70.08 295.13 66.78C294.94 65.28 294.6 63.6099 293.73 62.4699C293.38 61.9999 291.46 62.82 290.24 62.88C288.67 62.96 287.09 62.85 285.52 62.83C284.44 62.82 283.36 62.8099 282.28 62.8099C274.56 62.8299 266.84 62.8899 259.11 62.8599C252.85 62.8399 246.59 62.63 240.33 62.63C229.71 62.63 219.1 62.75 208.48 62.76C196.46 62.76 184.44 62.7399 172.42 62.6599C168.58 62.6399 164.74 62.3299 160.91 62.2999C153.5 62.2399 146.08 62.2999 138.67 62.2999C136.5 62.2999 134.33 62.23 132.16 62.28C127.3 62.39 122.44 62.6 117.57 62.7C115.8 62.74 114.03 62.5899 112.25 62.5399C109.42 62.4599 106.59 62.29 103.77 62.34C98.28 62.45 92.7898 62.76 87.2998 62.84C81.8098 62.92 76.3201 62.8799 70.8301 62.7899C65.6801 62.7099 60.5201 62.4799 55.3701 62.3599C54.3401 62.3399 53.3101 62.57 52.1401 62.7C52.1401 67.66 52.1501 72.25 52.1401 76.84C52.1401 78.41 52.9499 79.0099 54.4199 78.9399L54.4102 78.96ZM252.72 66.8699H255.71V75.57C253.76 76.1 252.65 75.8099 252.71 73.5399C252.77 71.3999 252.72 69.2499 252.72 66.8599V66.8699ZM218.66 66.4799C228.73 66.2599 238.69 66.3499 249.07 66.4799C248.81 69.5899 248.58 72.2999 248.31 75.5999C240.75 75.5999 233.43 75.5899 226.11 75.5999C224.43 75.5999 222.74 75.6499 221.07 75.7999C219.77 75.9099 218.78 75.5099 218.71 74.1899C218.58 71.8199 218.67 69.43 218.67 66.46L218.66 66.4799ZM211.35 66.3599C212.56 66.4499 213.59 66.5299 214.59 66.5999C215.1 74.0199 214.73 75.0999 211.35 75.7299V66.3599ZM173.64 66.77C184.78 66.43 196.07 66.5599 207.77 66.4099C207.62 69.5499 207.49 72.26 207.35 75.32C196.08 76.39 185.04 75.35 173.64 75.82V66.76V66.77ZM170.9 67.1199C170.62 70.1299 170.37 72.8599 170.1 75.7499H166.26C166.09 72.5999 165.94 69.8599 165.77 66.6099C167.41 66.7699 168.98 66.9299 170.9 67.1199ZM133.41 66.71H161.04V75.6099H133.41V66.71ZM128.89 67.28V75.83H125.71C125.61 73.66 125.49 71.6399 125.43 69.6199C125.33 66.3399 125.63 66.14 128.88 67.28H128.89ZM94.54 66.65C96.39 66.54 98.2699 66.7899 100.13 66.7899C105.12 66.7899 110.12 66.74 115.11 66.71C117.34 66.7 119.56 66.71 121.79 66.71V75.6699H92.5898C92.5898 73.3099 92.6201 71.0499 92.5801 68.7999C92.5501 67.4199 93.3998 66.71 94.5298 66.64L94.54 66.65ZM89.7002 67.1899V75.9899C88.2002 75.8899 87.1599 75.8099 86.1499 75.7399C85.8599 72.6699 85.5898 69.8399 85.2798 66.6599C86.9298 66.8599 88.2702 67.0199 89.7002 67.1899ZM57.0498 66.51H82.5498C82.2798 69.64 82.04 72.5399 81.75 75.9099H57.04V66.51H57.0498Z" fill="#832465"/>
<path d="M32.0399 99.1698C34.2899 99.0698 36.5296 98.9699 38.7796 98.8699C38.5696 72.2699 38.3597 45.4299 38.1497 18.2699C40.8397 19.0999 43.7098 19.7899 46.4398 20.8499C58.8598 25.6999 68.5099 33.9599 75.8899 44.9799C76.4799 45.8499 77.2597 46.7299 78.1697 47.2199C79.3597 47.8599 81.37 48.8298 81.93 48.3598C82.93 47.5098 83.5599 45.6999 83.5799 44.2799C83.6999 35.4099 83.5999 26.5299 83.5799 17.6499C83.5799 16.9299 83.7397 16.2099 83.8397 15.3899C88.1497 14.9499 91.7697 17.0299 95.3397 18.7799C99.8397 20.9799 104.1 23.6999 108.41 26.2799C113.86 29.5399 117.89 34.1499 121.63 39.2399C123.32 41.5299 123.91 44.2099 125.55 46.3699C126.43 47.5399 127.48 48.7299 128.73 49.4599C129.91 50.1499 131.6 49.4599 131.35 48.0699C130.87 45.3899 132.7 43.6199 133.65 41.7499C134.63 39.8299 134.49 38.0599 134.44 36.3099C134.31 31.2699 133.81 26.2399 133.45 21.1999C133.36 19.8799 133.24 18.5599 133.14 17.1999C135.1 15.8399 137.13 15.8899 139.3 16.6899C149.53 20.4999 159.29 25.1799 166.61 33.5399C169.73 37.0999 173.16 40.5899 174.66 45.3799C175.02 46.5299 176.15 47.5998 177.19 48.3298C177.76 48.7298 179.29 48.6999 179.69 48.2499C182.4 45.1899 184.43 42.1099 183.87 37.3899C183.06 30.4999 183.34 23.4799 183.15 16.1799C187.23 16.8899 190.37 18.9299 193.55 20.7199C199.73 24.2099 205.74 27.9999 210.98 32.8699C214.6 36.2399 217.72 40.0099 220.08 44.3799C221.92 47.7999 223.75 51.2299 225.64 54.6199C226.34 55.8799 227.12 57.3299 228.98 56.5899C230.69 55.9099 230.41 54.1499 229.93 53.1399C228.66 50.4799 231.43 49.0999 231.53 46.9299C231.58 45.7699 232.22 44.6099 232.18 43.4699C232.04 39.6399 231.58 35.8299 231.48 31.9999C231.35 27.0999 231.45 22.1999 231.45 16.9899C233.09 17.4899 235.02 17.9499 236.87 18.6399C245.67 21.9199 253.35 27.0099 258.9 34.5399C261.77 38.4299 263.3 43.3298 265.24 47.8598C265.87 49.3298 265.98 50.8999 268.03 51.1199C268.47 51.1699 268.88 51.8799 269.23 52.3299C270.83 54.3599 272.4 56.3999 274 58.4499C279.42 56.1799 280.42 51.8799 280.4 47.1399C280.34 37.3599 280.17 27.5699 280.04 17.4699C284.14 17.3199 288.08 18.8899 291.89 20.5299C302.7 25.1699 310.61 33.1499 317.12 42.7399C321.3 48.8999 323.3 55.6599 323.69 63.0599C323.88 66.7099 323.76 70.5599 325.99 73.8399C326.24 74.2099 326.3 74.7699 326.29 75.2399C326.2 80.6199 326.05 85.9999 325.97 91.3899C325.96 92.2599 325.95 93.1299 325.93 93.9999C326.28 93.9999 326.63 94.0299 326.99 94.0299C328.32 94.0499 329.65 94.0699 330.98 94.0899C330.88 91.2499 330.77 88.4099 330.7 85.5699C330.51 78.0199 330.45 70.4598 330.43 62.9098C330.43 61.7598 331.07 60.6299 331.25 59.4599C331.72 56.3999 332.75 53.2499 332.39 50.2799C331.38 41.9199 326.65 35.2899 321.14 29.2499C314.86 22.3599 307.88 16.3199 299.65 11.7599C294.02 8.64987 287.95 7.31987 281.67 6.87987C279.06 6.69987 276.59 7.72986 275.29 10.2499C273.97 12.7999 274.56 15.1599 276.62 17.1299C273.14 19.7399 275.17 23.4398 274.54 26.5498C273.88 29.7798 273.82 33.1199 273.43 37.1399C266.96 28.5299 260.77 20.9699 252.35 15.4199C246.41 11.4999 240.15 8.65985 233.27 7.07985C227.38 5.71985 226.38 6.70986 227.51 12.6199C227.6 13.0899 227.7 13.5999 227.94 13.9899C228.88 15.4699 228.28 16.9399 228.14 18.4799C227.77 22.3999 227.63 26.3398 227.44 30.2698C227.37 31.8798 227.82 33.5899 226.18 35.0499C225.59 34.4099 225.11 33.9199 224.65 33.3999C221.09 29.3599 218.2 24.7199 213.8 21.4199C211.61 19.7799 209.48 17.9999 207.53 16.0699C201.13 9.74987 192.78 7.16986 184.69 4.15986C181.73 3.05986 179.47 4.90985 179.18 8.10985C179.05 9.52985 179.44 10.9799 179.44 12.4099C179.44 13.5399 179.27 14.6898 179.05 15.7998C178.69 17.6398 178 19.4498 177.88 21.2998C177.68 24.4098 177.83 27.5398 177.83 31.3598C174.58 28.0498 172.08 25.0898 169.17 22.6098C162.74 17.1398 155.76 12.5499 147.91 9.16987C143.35 7.20987 138.94 6.63987 134.23 7.34987C129.93 7.99987 130.38 8.08987 130.27 12.3799C130.13 17.8199 129.19 23.2399 128.54 29.1499C127.24 27.8699 126.25 26.8699 125.23 25.8999C123.04 23.8299 120.99 21.5599 118.59 19.7599C111.45 14.4099 104.05 9.52987 95.9197 5.66987C91.3097 3.47987 86.6899 3.10986 81.8499 3.02986C79.7299 2.99986 78.5699 4.16987 78.8699 6.19987C79.8299 12.5799 78.5897 18.9198 78.6697 25.2698C78.6997 27.9798 78.6697 30.6799 78.6697 33.3899C78.3197 33.4399 77.9797 33.4898 77.6297 33.5498C74.9697 31.2998 72.3897 28.9199 69.6097 26.8099C65.0197 23.3199 60.4197 19.8199 55.6097 16.6599C49.9797 12.9599 43.9899 9.88985 37.3899 8.23985C34.4699 7.50985 33.1896 8.77985 33.5096 11.7998C33.7196 13.8198 33.9298 15.8999 33.7098 17.8999C32.7498 26.6899 32.62 35.4998 32.93 44.3298C33.01 46.5798 33.2297 48.8299 33.1497 51.0799C32.9697 56.0499 32.4999 61.0098 32.3899 65.9798C32.2699 71.3998 32.6999 76.8398 32.3499 82.2298C32.0099 87.5698 33.5296 92.9198 32.0496 98.2198C31.9896 98.4398 32.0496 98.6999 32.0496 98.9399C32.0496 99.0099 32.0496 99.0799 32.0496 99.1499L32.0399 99.1698ZM294.49 12.2899C301.38 14.4399 306.7 18.9199 311.95 23.5699C317.8 28.7499 322.16 35.0798 325.92 41.8298C327.44 44.5598 327.5 47.5999 326.51 50.9299C321.82 38.7999 314.32 29.4099 304.08 22.2499C297.23 17.4599 289.57 14.7499 281.19 14.1799C279.883 14.0932 279.17 13.1032 279.05 11.2099C284.28 10.3599 289.39 10.6799 294.48 12.2699L294.49 12.2899ZM231.26 10.2399C240.5 12.7799 249.27 15.6699 256.52 22.2399C262.27 27.4499 267.32 33.1098 271.53 39.5798C272.89 41.6798 273.46 43.9799 272.72 47.2399C271.67 46.1399 270.71 45.4299 270.15 44.4899C268.92 42.4199 267.91 40.2198 266.8 38.0798C262.03 28.8898 254.52 22.7799 245.06 18.8999C240.93 17.1999 236.8 15.5299 232.64 13.9099C231 13.2699 230.28 12.3499 231.26 10.2499V10.2399ZM181.49 7.61986C188.86 11.0999 196.26 13.7899 202.77 17.8799C210.25 22.5699 217 28.4398 222.67 35.3598C223.43 36.2898 224.26 37.1499 225.09 38.0199C226.55 39.5499 227.18 41.2498 226.02 43.8298C225.21 42.9898 224.37 42.3999 223.91 41.5899C219.86 34.3999 213.71 29.2999 207.25 24.4499C199.89 18.9299 191.77 14.9799 182.99 12.2899C180.44 11.5099 180.45 11.4599 181.48 7.61986H181.49ZM153.6 14.7799C159.77 18.1499 165.34 22.2899 170.37 27.1499C172.41 29.1199 174.18 31.4199 175.81 33.7399C176.69 34.9899 177.02 36.6199 177.61 38.0899C177.34 38.2499 177.06 38.3999 176.79 38.5599C176.24 38.0499 175.65 37.5799 175.16 37.0199C171.83 33.2099 168.85 29.0099 165.09 25.6799C161.92 22.8699 157.91 20.9799 154.17 18.8399C149.33 16.0699 144.15 14.1699 138.53 13.7499C137.22 13.6499 135.89 13.8999 134.07 14.0199C133.81 12.8399 133.59 11.8298 133.36 10.8298C140.95 8.85985 147.32 11.3599 153.6 14.7799ZM93.3499 8.07985C103.95 12.9098 113.47 19.3799 122.03 27.2499C123.79 28.8699 125.39 30.6899 126.94 32.5299C128.42 34.2699 128.57 36.3399 128.03 38.1399C124.25 34.0699 120.77 29.3398 116.34 25.7998C111.45 21.8898 106.42 18.0699 100.52 15.3799C96.8498 13.7099 92.8896 13.0299 89.2996 11.1799C87.6696 10.3399 85.38 10.8099 82.72 10.6399C82.58 9.46988 82.43 8.20986 82.24 6.65986C86.24 6.34986 89.8697 6.49985 93.3397 8.07985H93.3499ZM48.2796 15.6399C57.9796 20.7599 66.86 27.0499 75.22 34.1699C78.11 36.6299 79.2497 39.0598 77.9197 43.0798C67.7397 28.8598 54.4996 19.5299 36.7996 15.7399C36.6596 14.4899 36.4996 13.0199 36.2996 11.2099C41.0296 11.6099 44.6396 13.7099 48.2796 15.6299V15.6399Z" fill="#832465"/>
<path d="M0.990332 131.97C0.800332 137.5 1.34019 141.19 7.35019 142.41C15.7102 144.11 24.7799 143.83 33.2599 143.6C49.1299 143.16 64.9101 141.32 80.7501 140.4C97.9601 139.4 115.26 139.87 132.49 139.57C168.69 138.95 204.87 137.55 241.05 136.25C259.15 135.6 277.25 134.98 295.35 134.49C304.25 134.25 313.16 134.04 322.06 133.88C329.57 133.74 337.7 134.53 345.13 133.26C348.81 132.63 350.91 131.31 351.76 127.62C352.5 124.41 352.58 121 352.64 117.64C352.26 117.69 351.87 117.77 351.49 117.9C351.18 118.01 350.66 117.5 350.23 117.28C348.77 117.28 347.3 117.26 345.84 117.25C344.64 117.01 343.43 116.77 342.23 116.53C337.38 116.53 332.52 116.53 327.67 116.52C323.31 116.27 318.95 116.03 314.59 115.78C310.32 115.37 306.06 114.95 301.79 114.54C301.19 114.48 300.59 114.41 299.99 114.41C296.99 114.4 293.99 114.49 291 114.38C288.62 114.29 286.25 113.93 283.88 113.72C283.16 113.66 282.41 113.56 281.7 113.69C279.13 114.15 276.6 113.99 274.01 113.73C271.49 113.48 268.92 113.76 266.38 113.65C264.49 113.57 262.61 113.1 260.71 113.03C258.8 112.97 256.88 113.17 254.97 113.3C254.27 113.35 253.48 113.8 252.89 113.6C249.22 112.31 245.46 113.28 241.76 112.95C239.87 112.78 237.98 112.5 236.09 112.3C235.61 112.25 235.12 112.24 234.64 112.28C232.15 112.49 229.66 112.85 227.16 112.94C218.24 113.24 209.32 113.34 200.41 113.73C195.17 113.96 189.94 114.91 184.72 114.85C182.85 114.83 181.04 115.04 179.22 115.18C174.22 115.55 169.24 116.11 164.25 116.59C159.02 117.09 153.91 118.17 149.11 120.28C144.56 122.28 139.73 122.54 134.94 123.14C132.69 123.42 130.44 123.68 128.19 123.93C126.3 124.14 124.41 124.33 122.53 124.53C121.04 124.55 119.54 124.48 118.06 124.61C113.59 125 109.13 125.52 104.65 125.9C102.87 126.05 101.06 125.98 99.2701 126.01C96.6001 126.25 93.9299 126.49 91.2599 126.72C85.4299 127.69 79.6101 128.69 73.7701 129.62C73.1001 129.73 72.3703 129.46 71.6803 129.35C70.8603 129.23 69.9503 128.8 69.2403 129.02C65.2103 130.27 61.1099 129.56 57.0499 129.64C51.7399 129.73 46.42 129.64 41.11 129.64H32.3302C28.3202 129.21 24.3001 128.75 20.2901 128.36C19.4001 128.27 18.4802 128.51 17.5802 128.45C13.5202 128.17 9.47002 127.9 5.42002 127.5C4.02002 127.36 2.62031 127.2 1.22031 127.03C1.12031 128.71 1.04008 130.37 0.980078 132L0.990332 131.97Z" fill="#F0B990"/>
<path d="M1.33008 125.35C1.77008 125.33 2.22016 125.31 2.66016 125.3C7.58016 125.23 12.44 125.72 17.25 126.72C17.48 126.77 17.7302 126.75 17.9702 126.76C23.0002 127.01 28.0398 127.26 33.0698 127.51C35.2698 127.51 37.4702 127.51 39.6602 127.51C43.5902 127.75 47.56 126.92 51.48 128.11C52.37 128.38 53.5198 127.62 54.5698 127.53C55.8898 127.41 57.2298 127.53 58.5498 127.48C65.2598 127.25 71.9902 127.18 78.6802 126.69C82.5502 126.4 86.36 125.38 90.21 124.75C91.27 124.58 92.3599 124.65 93.4399 124.6L97.8398 123.87C102.58 123.62 107.42 123.87 112.03 122.95C115.22 122.31 118.08 123.06 121.09 123.11C121.23 122.92 121.36 122.59 121.52 122.58C124.61 122.26 127.69 121.94 130.79 121.68C136.96 121.17 143.04 120.3 148.88 118.05C150.84 117.29 153.01 117.07 155.08 116.58C157.12 116.09 159.14 115.53 161.18 115.08C163.49 114.57 165.8 113.96 168.15 113.73C172.2 113.33 176.28 113.15 180.35 112.96C186.6 112.68 192.91 112.91 199.08 112.1C205.12 111.31 211.16 112.15 217.11 111.41C226.28 110.26 235.44 111.09 244.6 110.81C246 110.77 247.45 111.48 248.81 111.32C252.16 110.92 255.53 111.86 258.77 111.27C260.18 111.01 261.42 111.65 262.46 111.37C265 110.68 267.37 111.55 269.81 111.51C271.02 111.49 272.23 111.48 273.44 111.51C283.57 111.75 293.72 111.66 303.81 112.38C308.37 112.71 312.93 112.77 317.48 112.99C320.3 113.22 323.11 113.53 325.94 113.66C328.69 113.78 331.44 113.7 334.2 113.71C336.16 113.95 338.11 114.19 340.07 114.43C342.72 114.69 345.48 113.69 348.02 115.15C349.58 115.15 351.13 115.13 352.69 115.12C352.7 114.51 352.72 113.91 352.75 113.31C352.99 107.86 353.03 102.41 353.04 96.9497C352.8 96.9497 352.55 96.9497 352.31 96.9497C351.46 96.9497 350.56 97.1198 349.77 96.8998C346.77 96.0698 343.72 96.2097 340.68 96.2597C339.4 96.2797 338.12 96.8197 336.84 96.7997C335.19 96.7797 333.54 96.2298 331.89 96.2798C329.15 96.3498 326.42 96.8398 323.68 96.8998C322.04 96.9298 320.4 96.3497 318.74 96.2597C311.53 95.8497 304.3 96.7297 297.06 95.6297C292.82 94.9897 288.39 95.5097 284.05 95.5097C277.14 95.5097 270.22 95.2797 263.33 95.5697C256.39 95.8597 249.47 94.5797 242.54 95.4797C242.2 95.5197 241.83 95.3898 241.48 95.3398C240.07 95.1498 238.66 94.7997 237.24 94.7997C221.72 94.7597 206.21 94.7497 190.69 94.7997C188.32 94.7997 185.95 95.2597 183.57 95.4297C182.88 95.4797 182.17 95.2397 181.47 95.1397C180.89 95.0497 180.3 94.8498 179.74 94.8998C177.97 95.0498 176.2 95.4697 174.43 95.4797C164.49 95.5397 154.55 95.4397 144.61 95.5397C140.78 95.5797 136.95 95.9997 133.13 96.2597C132.78 96.2797 132.45 96.5297 132.1 96.5397C129.61 96.5597 127.13 96.5597 124.64 96.5397C123.82 96.5397 123 96.3497 122.19 96.4197C120.77 96.5297 119.37 96.8997 117.95 96.9397C114.92 97.0297 111.88 96.8397 108.86 97.0397C103.98 97.3697 99.1098 98.3597 94.2598 98.2297C90.8198 98.1397 87.43 98.5197 84.02 98.5697C79.99 98.6197 75.9902 99.5698 71.9502 99.8398C65.8302 100.25 59.6998 99.9697 53.5498 100.44C42.7398 101.27 31.8502 101.12 20.9902 101.32C16.7502 101.4 12.49 101.14 8.27002 101.39C5.95002 101.52 3.63984 101.51 1.33984 101.46C2.37984 109.27 1.79982 117.5 1.31982 125.37L1.33008 125.35Z" fill="#F5D2B7"/>
<path d="M327.67 116.52C329.61 115.82 331.55 115.14 333.48 114.41C333.77 114.3 333.96 113.94 334.2 113.7C336.16 113.94 338.11 114.18 340.07 114.42C340.79 115.12 341.52 115.83 342.24 116.53C337.39 116.53 332.53 116.53 327.68 116.52H327.67Z" fill="#FAECE2"/>
<path d="M352.66 116.24C352.66 115.86 352.67 115.48 352.68 115.1C351.12 115.11 349.57 115.13 348.01 115.13C347.28 115.83 346.56 116.54 345.83 117.24C347.29 117.24 348.76 117.26 350.22 117.27C351.03 116.82 351.84 116.48 352.65 116.23L352.66 116.24Z" fill="#F8E2D1"/>
<path d="M39.6602 127.51C40.1502 128.21 40.6301 128.91 41.1201 129.61C38.1901 129.61 35.2698 129.61 32.3398 129.61C32.5798 128.91 32.8298 128.21 33.0698 127.51C35.2698 127.51 37.4702 127.51 39.6602 127.51Z" fill="#F9E8DB"/>
<path d="M97.8501 123.87C98.3301 124.57 98.81 125.28 99.29 125.98C96.62 126.22 93.9498 126.46 91.2798 126.69C91.9998 125.99 92.7202 125.3 93.4502 124.6C94.9202 124.36 96.3901 124.11 97.8501 123.87Z" fill="#FBEEE5"/>
<path d="M1.43994 102.33H17.46C14.75 109.32 14.9 115.98 14.23 122.52C13.96 125.11 13.6298 125.24 11.0698 125C7.84982 124.7 4.62014 124.43 1.39014 124.16C1.31014 125.45 1.23992 126.72 1.16992 127.98C6.49992 128.52 11.8302 129.03 17.1602 129.46C18.9002 129.6 20.5498 129.6 21.8398 130.96C24.7698 129.15 27.92 130.38 30.96 130.36C36.88 130.31 42.8 130.51 48.73 130.59C52.8 130.65 56.8699 130.77 60.9399 130.68C64.1499 130.6 67.3598 130.2 70.5698 130.01C73.7998 129.82 77.1198 130.13 80.2598 129.51C89.4598 127.69 98.7698 127.08 108.07 126.35C112.36 126.02 116.68 126.04 120.97 125.67C126.24 125.22 131.49 124.61 136.73 123.9C140.54 123.38 144.59 123.22 148.06 121.77C154.36 119.13 160.91 117.92 167.54 116.88C169.56 116.56 171.64 116.62 173.69 116.48C183.55 115.84 193.4 115.13 203.26 114.59C207.96 114.33 212.68 114.47 217.39 114.33C223.86 114.13 230.34 113.6 236.81 113.64C246.43 113.69 256.05 114.13 265.68 114.36C271.19 114.49 276.71 114.42 282.22 114.64C289.17 114.92 296.1 115.41 303.04 115.78C309.85 116.15 316.67 116.45 323.48 116.85C330.77 117.28 338.06 117.85 345.36 118.26C347.78 118.4 350.2 118.51 352.62 118.63C352.65 117.15 352.67 115.67 352.71 114.22C345.67 113.89 338.64 113.41 331.69 112.45C330.8 107.4 329.98 102.8 329.09 97.7098C330.35 97.5098 331.71 97.1098 333.06 97.1198C337.58 97.1598 342.1 97.3598 346.62 97.4898C348.75 97.5498 350.89 97.6098 353.02 97.6698C353.02 96.5798 353.02 95.4998 353.02 94.4098C344.34 94.2998 335.65 94.1898 326.97 94.0398C322.38 93.9598 317.8 93.6098 313.22 93.5498C303.43 93.4298 293.64 93.4698 283.85 93.3598C271.88 93.2198 259.92 92.9698 247.95 92.8298C238.29 92.7098 228.63 92.6598 218.97 92.6298C210.5 92.5998 202.03 92.5498 193.56 92.6698C186.1 92.7798 178.64 93.1499 171.19 93.3399C160.44 93.6199 149.68 93.7398 138.94 94.1098C129.66 94.4298 120.39 94.9498 111.12 95.4498C103.29 95.8698 95.4599 96.3898 87.6299 96.8698C79.3199 97.3798 71.0202 97.9998 62.7002 98.3698C56.9502 98.6198 51.1899 98.4298 45.4399 98.6098C34.3599 98.9598 23.29 99.7198 12.21 99.8098C8.49996 99.8398 4.79008 99.8398 1.08008 99.8298C1.22008 100.66 1.34018 101.49 1.43018 102.33H1.43994ZM325.44 97.4798C326.35 102.36 327.24 107.13 328.2 112.25H322.1C321.85 107.4 321.61 102.74 321.36 97.8298C322.59 97.7198 323.75 97.6198 325.44 97.4798ZM282.02 96.5899C294.54 96.7599 306.59 96.9198 318.76 97.0798C318.45 102.47 318.17 107.25 317.89 112.17C305.3 111.59 293.23 111.03 280.87 110.46C279.88 105.67 282.6 101.49 282.02 96.5798V96.5899ZM274.12 96.6698C275.88 96.5898 277.81 96.4898 280.41 96.3698C279.16 101.4 278.03 105.88 276.96 110.21C275.05 110.89 274.27 110.27 274.22 108.74C274.14 106.24 274.15 103.73 274.13 101.22C274.12 99.7998 274.13 98.3798 274.13 96.6698H274.12ZM269.69 96.4598V110.23H227.8C227.51 104.98 227.27 100.45 227 95.6398C241.18 95.9098 255.2 96.1798 269.69 96.4598ZM221.5 96.8898C221.53 96.5598 222.29 96.2998 222.84 95.9098C223.08 100.23 223.37 104.25 223.46 108.27C223.47 108.83 222.56 109.41 222.07 109.98C221.58 109.44 220.65 108.88 220.67 108.35C220.82 104.52 221.13 100.7 221.49 96.8798L221.5 96.8898ZM219.7 96.0098C219.05 100.7 218.39 105.41 217.69 110.42C204.14 111.01 190.85 111.58 177.49 112.16C175.58 106.91 176.55 101.69 176.12 96.0098H219.71H219.7ZM174.31 96.1698V112.62H170.85V97.2198C166.7 101.76 168.51 107.56 167.23 112.77C166.8 112.89 166.36 113.06 165.89 113.14C157.84 114.54 149.95 116.46 142.22 119.19C139.03 120.32 135.37 120.11 131.83 120.53C128.25 113.35 128.33 105.67 127.35 97.8598C143.23 95.7398 158.87 96.2998 174.3 96.1698H174.31ZM122.26 97.5299C123.79 97.1099 124.63 97.4598 124.82 99.2898C125.48 105.87 126.27 112.43 126.96 119.01C127.18 121.15 126.45 121.55 122.98 121.43C122.33 119.52 121.75 100.6 122.27 97.5398L122.26 97.5299ZM119.35 97.5398V121.29C105.54 122.62 92.0901 123.91 78.1401 125.26C77.1801 117.3 76.1801 108.99 75.1201 100.12C89.9701 99.2598 104.56 98.4098 119.36 97.5498L119.35 97.5398ZM68.7002 100.74C69.9902 100.66 71.0301 100.6 72.0601 100.54C72.2301 107.92 72.3501 115.11 72.5801 122.29C72.6901 125.84 72.7798 125.84 69.3398 126.35C68.7898 126.43 68.2301 126.5 67.6201 126.59C67.9801 117.88 68.3402 109.41 68.7002 100.74ZM23.48 122.2C23.74 115.69 24.13 109.19 24.48 102.18C38.57 101.66 52.6199 101.14 66.3599 100.63C65.9899 109.4 65.63 117.87 65.25 126.78C63.81 126.78 62.0498 126.81 60.2998 126.78C49.1998 126.57 38.0902 126.39 26.9902 126.1C23.5502 126.01 23.34 125.74 23.48 122.2ZM18.4302 105.68C18.5602 103.09 18.9 102.81 22.46 102.46C22.12 110.03 21.7802 117.54 21.4302 125.25H17.5298C17.8398 118.58 18.1199 112.13 18.4399 105.68H18.4302Z" fill="#401130"/>
</svg>
