<svg width="240" height="226" viewBox="0 0 240 226" fill="none" xmlns="http://www.w3.org/2000/svg">
<path d="M238.79 179.62C238.31 174.82 235.699 171.72 233.389 168.99L231.859 170.28L233.379 168.98C232.659 168.13 231.92 167.25 231.28 166.35L236.099 158.15C236.309 157.8 236.54 157.45 236.78 157.08C237.45 156.05 238.209 154.89 238.619 153.51C239.159 151.7 238.769 149.36 237.689 147.95C236.039 145.8 232.349 146.65 232.199 146.69C230.549 147.08 229.08 147.91 227.91 148.59C224.83 150.34 221.769 152.13 218.609 153.98L217.099 154.86L216.349 153.41C215.969 152.69 215.609 151.95 215.249 151.22L215.189 151.1C214.299 149.29 213.38 147.42 212.28 145.63C210.98 143.5 209.439 143.1 208.329 143.11C207.239 143.15 205.689 143.69 204.489 146.04C204.189 146.63 204.009 147.2 203.839 147.71C203.769 147.92 203.709 148.13 203.629 148.33C201.289 154.44 201.05 160.75 200.81 166.85C200.77 167.95 200.73 169.05 200.67 170.14C200.6 171.6 200.229 172.5 199.199 173.71C195.929 177.57 193.059 181.09 190.439 184.47C189.109 186.18 187.87 187.95 186.67 189.69C186.72 189.59 186.769 189.49 186.829 189.38C187.529 188.06 187.739 186.22 187.369 184.59C187.019 183.02 186.669 181.45 186.329 179.88C184.209 170.23 182.009 160.25 178.349 150.75C176.789 146.7 175.099 142.65 173.469 138.72C173.209 138.1 172.959 137.49 172.699 136.87H173.9L174.199 130.28C174.869 129.01 175.089 127.44 174.879 125.41C174.949 125.12 174.97 124.82 174.93 124.51C174.79 123.32 174.91 122.11 175.05 120.7C175.23 118.92 175.43 116.91 175.02 114.81L174.93 114.33C175.11 110.5 175.329 106.01 175.589 101.5C176.029 94 176.519 86.3999 176.999 79.0499V78.89C177.569 70.31 178.139 61.4399 178.629 52.7099C178.809 49.5099 178.769 46.3 178.729 43.17C178.699 40.97 178.679 38.6999 178.729 36.4899C178.739 36.2299 179.119 35.52 179.349 35.09C179.469 34.86 179.599 34.6299 179.709 34.3999C180.019 33.7899 180.459 33.11 180.889 32.45C181.969 30.8 183.19 28.92 183.27 26.72C183.55 18.92 181.849 12.62 178.069 7.46996C174.639 2.79996 169.16 0.199954 163.4 0.499955C158.21 0.769955 153.679 3.27995 150.819 7.42995C150.339 7.46995 149.809 7.47997 149.249 7.47997C146.639 7.50997 142.7 7.55994 140.65 12.0199L140.05 13.32L140.869 14.4899C140.469 14.7599 140.07 15.05 139.67 15.35C139.34 15.39 139.019 15.4299 138.719 15.4899C135.389 16.0999 132.569 17.68 130.339 20.19C129.729 20.09 129.119 19.99 128.489 19.88C126.009 19.46 123.659 19.06 121.209 18.91C117.499 18.7 113.819 18.93 110.709 19.2C103.329 19.82 96.6995 22.3099 90.9995 26.6099C81.4795 33.7899 76.2794 43.6999 72.0794 53.3299C68.3994 61.7699 67.8095 71.1299 70.2595 81.9299C72.0495 89.8299 76.4695 96.6 83.7495 102.63C84.5595 103.31 85.4695 103.58 86.2195 103.8C86.4095 103.86 86.5995 103.91 86.7795 103.98L87.8495 104.58C93.0895 107.83 98.4095 107.03 103.139 106.25C95.0595 109.19 87.5795 114.25 79.2395 122.38C74.4695 127.03 69.4795 131.6 64.6595 136.02C63.0195 137.52 61.3895 139.01 59.7695 140.51C59.0795 139.97 58.3894 139.42 57.6894 138.85C54.7394 136.5 51.6895 134.07 48.5495 131.73C43.3895 127.89 37.4195 125.59 32.2695 123.85C30.5095 123.26 29.0295 123.34 27.8495 124.1C26.6795 124.85 25.9995 126.15 25.8095 127.95C25.4495 131.51 28.6395 136.85 32.0095 138.35C32.4395 138.54 32.8695 138.73 33.2995 138.91L33.4394 138.97C35.3894 139.82 37.4095 140.69 39.0895 141.81C41.1595 143.19 43.1495 144.83 44.9095 146.29L44.9895 146.36C45.2295 146.55 45.4594 146.75 45.6894 146.93L44.5095 150.41C42.8295 155.39 41.2395 160.1 39.5895 164.8C39.3895 165.37 38.9795 166 38.5495 166.4C37.3995 167.48 36.1695 168.54 34.9095 169.63C33.4195 170.92 31.8795 172.26 30.4195 173.67C23.9495 179.89 17.2594 186.43 9.95945 193.66C7.33945 196.26 5.03954 198.74 2.92954 201.25C-0.0504615 204.8 -0.550457 209.03 1.55954 212.86C3.68954 216.72 6.57951 219.9 10.1495 222.41H29.7995C30.0295 222.25 30.2895 222.09 30.4895 221.97L30.5794 221.92C30.7194 221.83 30.8695 221.74 30.9995 221.66C31.7295 221.19 32.4895 220.75 33.2395 220.32C34.2495 219.73 35.2994 219.13 36.3194 218.43C38.8594 216.71 41.3395 214.95 43.9695 213.1L45.4295 212.07C45.5995 212.27 45.7795 212.47 45.9895 212.66C47.1595 213.73 48.3595 214.77 49.5995 215.85C51.4095 217.42 53.2695 219.05 54.9895 220.72C56.1095 221.81 57.2895 222.37 58.5095 222.42H58.9494C60.5894 222.31 61.7995 221.29 62.7595 220.29C64.6495 218.32 66.5495 216.36 68.4895 214.36C68.5195 214.47 68.5394 214.57 68.5694 214.68C69.2294 217.28 69.8695 219.85 70.4895 222.42H155.41C155.56 221.59 155.699 220.75 155.849 219.92C156.069 219.73 156.289 219.55 156.509 219.36C156.609 220.4 156.669 221.42 156.699 222.42H201.749C201.749 222.42 201.78 222.34 201.79 222.31C202.31 220.23 202.759 218.14 203.199 216.12C204.009 212.4 204.84 208.55 206.06 204.98C208.03 199.21 210.39 193.47 212.67 187.92C213.3 186.38 213.93 184.84 214.56 183.3C215.37 183.68 216.27 183.97 217.27 183.91C222.02 183.64 226.609 183.23 231.479 182.8C233.149 182.65 234.84 182.51 236.54 182.36L239.069 182.15L238.819 179.62H238.79ZM135.939 103.21C135.809 103.03 135.72 102.82 135.67 102.63C135.85 102.84 136.02 103.06 136.15 103.28L135.939 103.21ZM147.259 107.49C147.329 107.34 147.399 107.19 147.469 107.04C147.489 107.23 147.51 107.42 147.53 107.61L147.259 107.49Z" fill="white"/>
<path d="M66.3795 152.47C67.5995 153.29 68.7396 154.2 70.4296 153.97C71.1396 153.87 71.9895 154.29 72.6995 154.64C74.6395 155.6 74.6995 156.01 73.7095 157.84C73.2895 158.62 73.1095 159.54 72.8195 160.4C73.3495 160.93 73.8696 161.45 74.3996 161.98C75.2296 161.93 76.0596 161.89 76.9196 161.84C77.6096 160.48 78.2895 159.15 78.9595 157.83C79.1395 157.86 79.3195 157.89 79.4995 157.92C79.2295 160.1 78.9695 162.28 78.7095 164.33C80.7295 165.5 82.5895 166.58 84.4495 167.66C85.2195 168.04 85.9495 168.53 86.7595 168.79C88.1895 169.25 89.6595 169.58 91.1195 169.97C92.5495 169.79 93.7595 170.19 94.7295 171.28C96.4495 171.56 98.2095 171.68 99.8695 172.15C101.99 172.75 102.43 174.57 101.27 177.15C101.33 178.28 100.84 179.04 99.7495 179.4C98.7995 180.62 97.8395 180.62 96.2595 180.25C92.7095 179.41 88.9896 179.35 85.4196 178.59C82.8196 178.03 79.6895 178.37 78.2395 175.05C77.6895 173.78 76.2595 174.18 75.2595 174.52C74.9395 178.6 74.6695 182.41 74.3195 186.21C74.1795 187.72 73.7696 189.21 73.6696 190.73C73.5496 192.65 73.1795 194.73 73.7195 196.49C74.4895 199.01 74.1795 201.48 74.3395 203.96C74.3895 204.67 74.4495 205.38 74.5795 206.08C75.3995 210.49 76.7195 214.87 75.0995 219.39C74.9495 219.82 74.9795 220.38 75.0995 220.83C75.2295 221.37 75.3695 221.91 75.4995 222.46C79.0595 222.48 82.6295 222.51 86.1895 222.52C92.5695 222.54 98.9595 222.51 105.34 222.52C112.19 222.53 119.04 222.61 125.89 222.6C133.7 222.58 141.519 222.42 149.329 222.46C150.689 217.25 151.56 211.91 152.86 206.68C153.29 204.97 154.069 202.88 153.459 201.5C152.229 198.69 153.33 196.21 154.1 193.97C155.92 188.71 155.849 183.27 156.459 177.9C156.789 174.96 156.249 171.97 155.939 168.99C155.549 165.31 154.72 161.82 153.63 158.34C152.74 155.5 151.76 152.68 150.56 149.08C151.69 150.32 152.519 150.87 152.829 151.64C153.959 154.44 155.03 157.28 155.9 160.17C156.81 163.19 158.009 166.09 158.079 169.39C158.149 172.54 158.97 175.68 159.41 178.83C159.51 179.54 159.48 180.29 159.4 181.01C159.21 182.77 158.959 184.52 158.709 186.27C158.499 187.78 158.12 189.29 158.05 190.81C157.9 193.98 156.5 197.09 157.73 200.8C159.02 200.35 160.27 199.87 161.54 199.48C163.88 198.76 166.309 198.27 168.569 197.37C172.349 195.88 176 194.07 179.76 192.53C182.18 191.54 182.82 190.24 181.03 188.52C179.84 187.38 179.29 186.31 179.02 184.74C178.46 181.4 177.49 178.12 176.93 174.78C175.66 167.15 173.71 159.71 171.39 152.34C169.33 145.79 166.62 139.53 163.73 133.33C162.55 130.8 161.419 128.22 159.939 125.87C157.979 122.77 155.69 119.87 153.54 116.89C150.21 113.85 146.809 110.9 142.579 109.13C142.159 108.96 141.7 108.9 141.26 108.78C140.82 109.05 140.37 109.31 139.93 109.58C139.61 110.54 139.29 111.49 138.97 112.45C139.42 113.27 139.95 114.05 140.3 114.91C140.78 116.09 140.69 117.2 139.64 118.13C138.22 119.38 136.849 120.69 135.459 121.97C134.099 123.45 132.939 125.11 132.579 127.09C132.169 129.42 132.17 131.82 131.77 134.16C131.15 137.86 130.43 141.54 129.62 145.2C128.48 150.34 126.9 155.34 124.48 160.03C122.19 164.45 118.91 167.9 114.27 169.96C111.91 171 110.67 170.46 109.17 168.18C107.13 165.08 107.16 161.41 106.53 158.06C105.41 152.13 105.37 145.99 104.89 139.94C104.63 136.73 104.47 133.52 104.1 130.33C104.02 129.68 103.3 128.9 102.67 128.56C101.47 127.91 100.11 127.57 98.8395 127.04C96.7695 126.18 96.6195 125.68 97.0895 123.58C97.5095 121.72 98.6095 120.41 99.9695 119.23C101.14 118.2 101.84 117.07 100.85 115.59C98.6895 114.89 96.8395 115.61 95.2195 116.9C91.0395 120.22 86.8596 123.52 82.8096 126.99C80.5896 128.89 78.7396 131.24 76.5296 133.16C72.2796 136.86 67.8496 140.36 63.5596 144.02C61.2996 145.95 61.4195 146.34 63.4895 148.62C64.5695 149.81 66.3195 150.56 66.3695 152.52L66.3795 152.47Z" fill="white"/>
<path d="M66.3895 152.51C66.3895 152.51 66.3895 152.48 66.3895 152.47C66.3595 152.45 66.3396 152.44 66.3096 152.42L66.3895 152.51Z" fill="white"/>
<path d="M134.03 96.45C132.38 95.88 130.73 95.32 128.93 94.7C126.71 96.18 125.839 98.32 125.869 101.3C125.899 104.46 124.9 107.62 124.67 110.8C124.54 112.67 124.329 114.44 125.459 116.51C126.509 118.44 125.76 121.39 125.65 123.88C125.64 124.2 124.769 124.66 124.239 124.77C120.159 125.55 116.14 126.9 111.77 126.07C111.47 125.52 110.769 124.84 110.859 124.29C111.509 120.24 109.089 116.29 110.489 112.23C110.589 111.93 110.609 111.47 110.459 111.24C108.529 108.38 109.479 105.18 109.259 102.04C111.249 101 113.179 99.98 115.119 98.97C115.089 98.71 115.07 98.46 115.04 98.2C114.21 98.16 113.189 97.78 112.579 98.13C108.929 100.2 104.759 100.64 100.889 102.02C99.3695 102.56 97.5395 102.17 95.8695 102.3C94.5995 102.4 93.2895 102.96 92.0895 102.75C88.0995 102.07 87.7795 101.75 84.8495 97.84C82.7895 95.08 80.7695 92.29 78.6795 89.55C76.1895 86.28 74.9395 82.62 74.2495 78.56C73.6695 75.2 73.4794 71.87 73.6894 68.53C73.8394 65.96 74.6895 63.43 74.9995 60.86C75.2395 58.87 76.3995 58.55 78.0095 58.63C79.7095 59.89 81.3994 61.15 82.9494 62.3C87.0494 60.7 89.6895 58.02 91.5395 54.32C92.9995 51.4 92.9195 49.1 90.5495 47.07C88.8095 45.58 87.0195 44.15 85.2495 42.69C83.9995 40.85 84.7695 39.33 86.0395 37.93C90.5395 32.97 95.4994 28.64 101.949 26.37C104.529 25.46 107.209 25.02 109.959 25.19C112.599 26.66 115.429 27.4 118.459 27.45C119.059 27.45 119.649 27.95 120.239 28.22C119.269 29.72 118.299 31.22 117.329 32.72C117.509 32.88 117.689 33.05 117.869 33.21C119.399 31.77 120.939 30.34 122.469 28.9L123.819 28.84C128.759 29.38 132.51 32.2 136.15 35.24C134.6 35.56 132.97 35.73 131.78 37.77C134.01 37.42 135.819 37.14 137.629 36.86C140.499 39.25 141.46 41.89 140.54 44.82C139.15 44.86 138.379 45.61 137.849 47.01H141.219C143.159 49.41 142.72 52.48 143.55 55.19C142.74 55.86 141.919 56.53 141.109 57.21C141.219 57.43 141.32 57.66 141.43 57.88H144.18C144.13 59.21 145.41 60.49 144.18 61.9C143.87 62.26 144.109 63.16 144.199 63.79C144.409 65.42 144.73 67.03 144.92 68.66C145.16 70.71 146.469 72.13 148.599 72.51C148.119 72.76 147.65 73.04 147.15 73.25C145.78 73.83 145.419 74.71 145.999 75.79C149.689 75.68 153.13 75.58 156.56 75.48C157.01 76.03 157.42 76.62 157.92 77.11C159.24 78.41 159.279 80.56 158.459 81.34C157.219 82.51 157.9 83.59 157.65 84.66C157.52 85.2 157.48 85.76 157.41 86.3C155.69 88.79 153.139 90.31 150.739 92C149.009 92.67 147.199 93.2 145.579 94.07C144.049 94.89 143.629 93.45 143.129 93.11C141.319 93.59 139.84 93.9 138.43 94.4C138.08 94.53 137.949 95.27 137.719 95.73C137.459 95.74 137.209 95.76 136.949 95.77C135.999 96.01 135.039 96.25 134.089 96.48L134.03 96.45ZM117.259 65.87L117.189 65.92C119.369 65.92 121.539 65.96 123.719 65.92C125.949 65.88 129.309 64.84 130.489 63.95C130.199 63.64 129.899 63.32 129.589 63C130.079 62.03 130.57 61.05 131.06 60.08C132.77 59.4 135.199 60.06 135.949 57.35C134.889 57.26 133.849 57.17 132.439 57.05C132.679 55.62 132.889 54.41 133.099 53.15C131.879 51.57 130.349 50.62 128.229 50.64C123.999 50.69 119.76 50.5 115.54 50.71C113.22 50.82 110.83 51.29 109.3 53.46C108.56 55.43 107.829 57.4 107.089 59.36C107.089 59.57 107.109 59.78 107.109 60C105.809 62.74 105.989 64.17 107.849 66.02C110.919 67.12 114.019 66.85 117.119 66.18C117.189 66.17 117.219 65.97 117.259 65.86V65.87ZM100.479 79.75C97.0995 81.1 96.6094 82.68 98.9394 85.04C100.579 86.71 102.369 88.24 104.089 89.83C104.519 90.36 104.949 90.88 105.479 91.54C109.419 88.99 111.419 85.44 112.219 81.11C112.709 80.04 113.21 78.96 113.79 77.69C110.17 75.75 107.13 76.32 104.16 78.26C102.93 78.76 101.699 79.26 100.479 79.76V79.75ZM93.7695 71.82C91.7595 70.64 89.7395 69.46 87.7295 68.28C87.5895 68.52 87.4495 68.76 87.3095 69C89.0895 70.61 90.6195 72.65 93.7795 71.82H93.7695Z" fill="#9F623E"/>
<path d="M148.55 72.4801C146.42 72.1001 145.11 70.6901 144.87 68.6301C144.68 67.0001 144.37 65.3901 144.15 63.7601C144.07 63.1201 143.82 62.2201 144.13 61.8701C145.37 60.4601 144.09 59.1701 144.13 57.8501C143.92 56.9501 143.71 56.0601 143.5 55.1601C142.68 52.4501 143.11 49.3701 141.17 46.9801C140.94 46.2501 140.72 45.5201 140.49 44.7901C141.41 41.8601 140.449 39.2201 137.579 36.8301C137.089 36.2901 136.589 35.7501 136.099 35.2101C132.459 32.1701 128.71 29.3501 123.77 28.8101C124.32 28.1201 124.87 27.4301 125.53 26.6101C125.42 26.4001 125.149 25.9201 124.959 25.5701C123.999 25.9601 123.159 26.3101 122.319 26.6501C120.919 26.4201 119.239 27.3101 118.199 25.6301C118.859 25.2401 119.5 24.8501 120.14 24.4701C120.87 24.2301 121.599 24.0001 122.329 23.7601C122.929 23.5601 123.579 23.0901 124.109 23.1901C127.169 23.7801 130.21 24.5101 133.25 25.1901C135.17 24.5501 136.42 23.3001 137.4 21.4801C139.22 18.0901 142.599 16.2901 145.709 14.3701C148.619 12.5701 151.73 11.0101 154.92 9.77006C157.44 8.79006 160.199 8.43007 162.849 7.82007C164.129 7.53007 165.409 7.28006 166.699 7.02006C168.829 6.01006 170.45 6.73007 171.79 8.47007C173.69 10.1901 174.7 12.6301 175.24 14.8601C176.1 18.3601 176.949 21.9001 176.319 25.7701C175.869 28.5501 175.929 31.6201 176.079 34.5701C176.269 38.4701 175.84 42.3001 174.87 46.1401C174.19 48.8301 174.559 51.7801 174.479 54.6101C174.469 55.0801 174.73 55.7101 174.51 55.9901C172.84 58.1601 173.859 60.7601 173.349 63.1201C172.569 66.7501 172.739 70.5901 172.449 74.3301C172.249 76.9401 172.33 79.6401 171.66 82.1301C170.83 85.1801 170.509 88.2301 170.099 91.3101C169.909 92.7101 170.25 93.7901 170.4 95.0101C170.23 97.3301 170.62 99.5401 171.75 101.59C172.47 103.66 172.29 105.64 171.93 107.83C171.54 110.21 172.05 112.81 172.53 115.25C173.16 118.46 172.04 121.59 172.41 124.77C172.42 124.88 172.28 125 172.29 125.1C172.73 128.27 172.22 130.7 168.28 130.96C167.73 131 167.249 132.14 166.719 132.78C164.809 132.7 163.659 131.33 163.209 130C161.499 124.91 158.829 120.5 154.959 116.81C154.479 116 154.1 115.11 153.49 114.4C151.17 111.7 150.2 108.63 150.74 105.12C151.02 103.25 151.4 101.4 151.67 99.5301C151.81 98.6201 151.999 97.6501 151.839 96.7601C151.559 95.1401 151.04 93.5601 150.63 91.9601C153.03 90.2601 155.58 88.7501 157.3 86.2601C160.35 85.6501 160.91 82.8101 162.75 80.4601C161.19 78.4401 159.71 76.4701 158.15 74.5501C157.66 73.9401 156.979 73.6601 156.479 74.6501C153.579 74.8101 151.07 73.5201 148.5 72.4701L148.55 72.4801Z" fill="#78423B"/>
<path d="M162.339 220.73C162.469 221.45 162.62 222.14 162.8 222.83C163.47 222.85 164.14 222.87 164.81 222.88C169.02 222.94 173.22 222.75 177.43 222.77C182.91 222.78 188.379 222.83 193.859 222.86C194.949 221.56 195.999 220.21 197.069 218.89C197.209 218.72 197.22 218.45 197.25 218.21C197.5 216.69 197.68 215.15 198 213.65C198.93 209.38 199.709 205.07 200.959 200.89C202.139 196.96 203.799 193.18 205.349 189.37C205.789 188.28 206.869 187.43 207.199 186.33C208.539 181.88 210.92 177.94 212.62 174.05C213.58 174.36 214.329 174.76 215.099 174.79C215.769 174.82 216.48 174.21 217.12 174.29C219.34 174.59 221.53 175.14 223.75 175.47C226.42 175.86 229.12 176.13 231.79 176.44C232.42 174.94 232.29 173.89 231.27 172.94C229.67 171.47 228.15 169.9 226.53 168.45C224.56 166.69 224.569 165.87 226.219 163.79C228.209 161.28 230.06 158.64 231.81 155.95C232.24 155.29 232.04 154.22 232.16 152.97C225.38 154.03 221.18 158.75 215.74 162.14C214.87 160.23 214.03 158.5 213.29 156.72C212.44 154.67 211.779 152.54 210.829 150.54C210.549 149.95 209.569 149.7 208.709 149.17C205.329 158.17 205.01 166.99 206.78 175.72C205.39 176.44 203.91 176.73 203.24 177.63C198.89 183.42 194.63 189.28 190.53 195.25C187.51 199.64 184.8 204.26 181.9 208.74C179.87 211.88 177.75 214.95 175.66 218.08C174.21 217.59 173.099 217.21 171.719 216.74C175.479 211.29 178.99 206.08 182.64 200.97C183.44 199.84 183.7 198.92 183.03 197.53C178.83 197.5 175.48 200.11 171.68 201.2C167.73 202.34 163.79 203.5 159.55 204.74C159.59 205.2 159.579 206 159.729 206.78C160.589 211.43 161.539 216.06 162.359 220.72L162.339 220.73Z" fill="#9F623E"/>
<path d="M53.4195 148.27C53.1595 152.71 52.9195 156.85 52.6495 161.45C58.1095 158.59 63.2995 155.78 69.6095 157.06C70.8495 159.12 68.9595 160.11 67.7595 161.11C65.6595 162.85 63.2796 164.25 61.1796 165.99C60.0796 166.91 59.3296 168.25 58.2996 169.55C62.5796 172.74 65.7895 176.53 66.4095 182.95C63.2995 181.27 61.0396 179.75 58.5596 178.8C56.0896 177.85 53.4095 177.48 50.4695 176.77C48.6595 177.92 47.5495 180 46.6295 182.45C45.1395 186.45 43.4295 190.37 40.6995 193.77C39.5995 195.14 39.0395 196.92 38.0995 198.43C35.9595 201.91 33.6295 205.27 31.5795 208.8C30.0595 211.43 28.9595 214.31 27.4595 216.95C26.6695 218.34 25.5495 219.61 24.3495 220.67C22.2595 222.52 19.7295 221.37 17.9495 220.47C14.3695 218.64 10.8795 216.42 8.25951 213.24C7.28951 212.07 6.40954 210.65 6.03954 209.21C5.55954 207.34 5.85954 205.38 7.28954 203.81C9.81954 201.04 12.3195 198.26 14.8595 195.51C15.9695 194.31 17.2296 193.23 18.3096 192.01C21.4296 188.47 25.1195 185.56 28.5395 182.36C32.3295 178.8 36.3795 175.67 40.5095 172.57C41.9095 171.52 43.2395 170.19 43.1195 167.91C43.0495 166.49 43.9195 165 44.4195 163.56C45.8895 159.32 47.3695 155.09 48.8895 150.86C49.7395 148.5 50.1395 148.27 53.3795 148.26L53.4195 148.27Z" fill="#9F623E"/>
<path d="M40.1595 201.87C40.2295 200.66 39.6194 199.2 41.4394 198.64C41.6494 198.58 41.7494 198.04 41.8294 197.71C42.6194 194.61 45.3594 192.61 46.1994 189.36C46.8894 186.69 49.1294 184.42 50.9394 181.59C53.4594 180.57 55.4394 183.24 57.9494 183.89C59.9494 184.41 61.7094 185.86 63.6994 186.34C65.3394 186.74 67.4695 187.68 68.6095 185.01C68.9695 184.17 70.1995 183.92 70.6795 185.25C70.9795 186.08 71.4595 187.2 71.1395 187.83C69.6595 190.77 69.6895 193.9 70.0495 196.93C70.5495 201.23 68.5995 204.39 66.1795 207.53C63.8295 210.58 61.6195 213.74 59.0495 217.26C56.6295 216.14 54.0995 214.71 52.3595 212.25C50.7295 209.93 47.2295 209.13 47.1795 205.65H44.5495C43.0095 204.48 42.6495 201.94 40.1595 201.88V201.87Z" fill="white"/>
<path d="M113.59 157.48C113.23 159.6 113.91 161.31 115.72 162.59C119.21 161.22 119.65 157.65 120.72 154.83C122.8 149.37 124.55 143.73 125.83 138.03C126.84 133.54 126.69 128.81 127.5 124.26C128.43 118.99 128.02 113.72 128.16 108.45C128.18 107.63 127.95 106.68 129.22 106.56L128.8 105.37C128.83 104.52 128.9 103.68 128.88 102.83C128.86 101.87 129.38 101.56 130.23 101.57C130.75 102.53 131.28 103.48 131.8 104.44C132.55 105.19 133.3 105.94 134.05 106.69C133.95 106.89 133.85 107.08 133.75 107.28C132.72 107.14 131.68 107 130.59 106.86C130.77 107.32 130.93 107.74 131.09 108.16C131.32 112.82 131.61 117.48 131.78 122.15C131.98 127.77 131.1 133.26 129.66 138.69C128.36 143.56 127.47 148.57 125.9 153.34C124.85 156.54 123.069 159.54 121.319 162.45C119.869 164.86 113.98 167.67 110.85 167.68C110.57 166.05 110.33 164.34 109.96 162.65C109.53 160.7 109.11 158.73 108.46 156.85C107.56 154.24 106.96 151.64 107.02 148.85C107.05 147.46 106.669 146.04 106.319 144.68C105.999 143.42 106.83 142.35 106.55 140.97C106.19 139.2 106.769 137.23 106.939 135.35C106.999 134.63 107.23 133.85 107.03 133.21C105.64 128.71 106.65 124.12 106.36 119.58C106.27 118.12 106.57 116.31 108.12 116.25C109.82 116.18 109.89 118.04 109.99 119.47C110.46 126.13 110.609 132.84 111.569 139.44C112.109 143.17 111.97 146.84 112.16 150.54C112.22 151.65 113.27 156.74 113.67 157.56L113.6 157.48H113.59Z" fill="#EFB445"/>
<path d="M113.66 157.55C113.41 155.56 113.13 153.56 112.91 151.57C112.83 150.85 112.76 150.09 112.91 149.4C113.59 146.14 112.75 142.9 112.79 139.64C112.84 136.58 112.18 133.51 111.81 130.17C116.5 129.89 120.55 127.74 125.24 128.69C125.17 129.54 125.15 130.34 125.02 131.12C124.91 131.81 124.42 132.55 124.56 133.15C125.91 139.02 122.709 143.98 121.359 149.29C120.679 151.98 119.55 154.57 118.56 157.18C117.72 159.42 117.36 159.59 114.67 159.5C114.29 158.8 113.929 158.14 113.569 157.48L113.64 157.56L113.66 157.55Z" fill="white"/>
<path d="M101.27 177.13C101.33 178.26 100.84 179.02 99.7495 179.38C96.2995 179.45 92.9595 178.8 89.6195 177.98C87.5795 177.48 85.4196 177.27 83.3096 177.22C80.4196 177.16 79.2695 175.03 78.0895 173.05C76.6695 170.66 75.5496 168.1 74.2896 165.61C74.5696 165.09 74.8595 164.56 75.1395 164.04C75.9995 164.34 76.8895 164.58 77.7195 164.94C79.9395 165.91 81.7695 167.83 84.4495 167.64C85.2195 168.02 85.9495 168.51 86.7595 168.77C88.1895 169.23 89.6595 169.56 91.1195 169.95C92.5195 171.39 93.8995 172.85 96.1495 172.79C97.4895 173.51 98.7595 174.46 100.189 174.88C101.669 175.31 101.09 176.31 101.26 177.14L101.27 177.13Z" fill="#9FD0CE"/>
<path d="M85.2194 42.6699C86.9894 44.1299 88.7795 45.5599 90.5195 47.0499C92.8895 49.0799 92.9695 51.3799 91.5095 54.2999C89.6595 58.0099 87.0195 60.6799 82.9195 62.2799C81.3795 61.1299 79.6795 59.8699 77.9795 58.6099C77.6695 57.2299 78.3295 56.4899 79.5595 55.9699C82.3295 54.7999 82.3095 54.7699 82.1695 51.5199C81.0695 51.4199 79.9294 51.3199 78.6994 51.1999C78.8094 47.6599 81.1894 45.4099 82.7194 42.6599H85.2094L85.2194 42.6699Z" fill="white"/>
<path d="M71.3295 164.82C71.8695 165.45 72.3195 166.2 72.9695 166.7C75.1695 168.4 75.5495 170.4 74.6395 173.01C73.5295 176.18 72.7796 179.47 71.8096 182.95C71.0596 182.86 70.3195 183.4 69.9095 181.84C68.7095 177.32 66.6195 173.19 63.9795 169.32C63.6295 168.81 63.4295 167.95 63.5895 167.37C64.4095 164.32 67.7395 162.89 70.5295 164.28C70.8395 164.44 71.1095 164.67 71.3995 164.87L71.3495 164.82H71.3295Z" fill="white"/>
<path d="M54.6895 142.06C53.6095 145.34 51.4396 146.05 48.8096 144.02C46.3696 142.14 44.0796 140.04 41.5496 138.3C39.3196 136.78 36.9295 134.77 34.4595 134.51C30.7395 134.13 31.3895 131.65 30.6495 129.63C32.7895 128.51 34.6495 129.43 36.2595 130.19C41.6395 132.75 47.0495 135.32 51.2795 139.75C52.2095 140.73 53.5595 141.31 54.6895 142.05V142.06Z" fill="#9FD1CF"/>
<path d="M40.1595 201.87C42.6495 201.93 43.0196 204.47 44.5496 205.64V207.84C40.8096 210.43 37.0695 212.91 33.4595 215.56C32.3595 216.36 31.4295 216.68 29.8695 216.05C30.1995 215.06 30.3595 214.02 30.8495 213.18C32.6995 210.02 34.6495 206.91 36.5795 203.8C37.3895 202.49 38.4895 201.65 40.1495 201.88L40.1595 201.87Z" fill="#9F623E"/>
<path d="M138.969 112.41C139.419 113.23 139.95 114.01 140.3 114.87C140.78 116.05 140.69 117.16 139.64 118.09C138.22 119.34 136.849 120.65 135.459 121.93C134.539 121.86 133.61 121.78 132.4 121.69C133.33 119.18 133.26 116.95 132.65 114.58C132.33 113.36 133.12 111.86 133.49 110.1C135.47 110.93 137.229 111.67 138.979 112.41H138.969Z" fill="#9F623E"/>
<path d="M66.3095 152.42V154.48C64.8595 154.55 63.4295 154.61 61.9995 154.68C61.2995 153.7 60.6095 152.71 59.9095 151.73C58.8795 150.75 57.9895 149.55 56.7995 148.86C55.3195 148 55.2595 146.92 55.6195 145.36C58.2195 144.59 59.7195 146.51 61.3695 147.88C63.1195 149.33 64.7195 150.95 66.3895 152.5L66.3095 152.41V152.42Z" fill="#9FD1CF"/>
<path d="M75.1395 164.04C74.8595 164.56 74.5696 165.09 74.2896 165.61C73.2996 165.34 72.3095 165.08 71.3295 164.81L71.3795 164.86C71.0395 163.68 70.6995 162.5 70.2795 161.05C70.8095 160.51 71.5295 159.7 72.8195 160.38C73.3495 160.91 73.8695 161.43 74.3995 161.96C74.6495 162.65 74.8895 163.34 75.1395 164.04Z" fill="#81A9A7"/>
<path d="M59.0095 156.04C57.6895 156.36 56.3694 156.67 54.9694 157.01C54.4494 155.18 54.3694 153.85 56.0794 153.08C57.3094 153.16 58.5395 153.24 60.2595 153.35C59.7295 154.49 59.3695 155.27 59.0095 156.04Z" fill="#E2E2E2"/>
<path d="M142.62 105.2C142.17 106.38 141.71 107.57 141.26 108.75C140.82 109.02 140.37 109.28 139.93 109.55C138.38 109.34 136.84 109.13 135.29 108.93C137.04 108.46 138.779 108 140.959 107.41C140.019 106.68 139.489 106.27 138.969 105.86C139.729 105.38 140.48 104.91 141.24 104.43C141.11 105.74 141.689 105.79 142.609 105.19L142.62 105.2Z" fill="#C39338"/>
<path d="M104.779 121.4V124.62H101.66C101.36 122.44 102.399 121.367 104.779 121.4Z" fill="#9F623E"/>
<path d="M138.969 105.86C139.499 106.27 140.029 106.68 140.959 107.41C138.779 107.99 137.03 108.46 135.29 108.93C135.08 108.95 134.879 108.9 134.719 108.76C134.299 107.35 135.51 106.79 136.17 105.94C137.11 105.91 138.04 105.89 138.98 105.86H138.969Z" fill="#DFA840"/>
<path d="M136.17 105.94C135.51 106.79 134.299 107.35 134.719 108.76C133.509 108.56 132.309 108.35 131.099 108.15C130.939 107.73 130.779 107.31 130.599 106.85C131.689 107 132.72 107.13 133.76 107.27C133.86 107.07 133.96 106.88 134.06 106.68C133.31 105.93 132.56 105.18 131.81 104.43C133.26 104.93 134.72 105.43 136.17 105.93V105.94Z" fill="#D19D3C"/>
<path d="M59.0095 156.04C59.3695 155.27 59.7295 154.49 60.2595 153.35C58.5395 153.24 57.3095 153.16 56.0795 153.08C57.3495 152.63 58.6295 152.18 59.8995 151.73C60.5995 152.71 61.2895 153.7 61.9895 154.68C60.9995 155.13 59.9995 155.58 59.0095 156.04Z" fill="#686868"/>
<path d="M128.819 100.8C129.349 98.4299 130.999 97.7399 133.199 97.8999C133.469 98.1099 133.73 98.3199 134 98.5299C133.02 99.2899 132.049 100.04 131.069 100.8C130.319 99.2699 129.569 100.9 128.819 100.8Z" fill="#AE8432"/>
<path d="M134 98.53C133.73 98.32 133.469 98.11 133.199 97.9C133.479 97.42 133.75 96.94 134.03 96.45C134.98 96.21 135.94 95.98 136.89 95.74C134.86 97.75 134.88 97.82 137.42 98.96C137.51 99 137.56 99.15 137.62 99.24C136.41 99 135.2 98.76 133.99 98.53H134Z" fill="#C69539"/>
<path d="M128.819 100.8C129.569 100.9 130.319 99.2799 131.069 100.8C130.789 101.06 130.51 101.31 130.24 101.57C129.39 101.57 128.87 101.88 128.89 102.83C128.9 103.68 128.84 104.52 128.81 105.37C127.73 103.643 127.736 102.12 128.829 100.8H128.819Z" fill="#D19D3C"/>
<path d="M94.7295 171.26C95.2095 171.77 95.6795 172.28 96.1595 172.79C93.9095 172.85 92.5295 171.39 91.1295 169.95C92.5595 169.77 93.7695 170.17 94.7395 171.26H94.7295Z" fill="#0D1111"/>
<path d="M131.06 60.0801C130.57 61.0501 130.08 62.0301 129.59 63.0001C128.48 63.5301 127.56 64.2501 126.26 64.6201C124.03 65.2601 121.86 65.0301 119.67 65.2201C118.83 65.3001 118.02 65.6701 117.2 65.9101L117.27 65.8601C114.13 65.9101 111 65.9701 107.86 66.0201C106 64.1601 105.83 62.7401 107.12 60.0001C107.71 60.0601 108.3 60.1201 108.62 60.1601C109.49 61.5201 110.26 62.7301 111.02 63.9101C116.13 61.2701 116.4 59.9901 112.68 57.1301C111.19 58.6901 109.41 59.7501 107.1 59.3701C107.84 57.4001 108.57 55.4301 109.31 53.4701C111.04 53.2501 112.83 53.2401 114.49 52.7801C119.58 51.3601 124.74 52.4701 129.85 52.1401C131.15 52.0601 131.9 52.8601 131.79 54.1601C131.62 56.1401 131.32 58.1101 131.07 60.0801H131.06Z" fill="white"/>
<path d="M112.219 81.0999C111.419 85.4399 109.42 88.9899 105.48 91.5299C104.95 90.8799 104.519 90.3499 104.089 89.8199C104.299 88.0199 102.67 87.4399 101.74 86.4699C99.8195 84.4499 99.0795 82.3199 100.48 79.7399C101.71 79.2399 102.94 78.7399 104.16 78.2399C106.76 77.9799 109.35 77.72 112.05 77.45C112.12 79 112.169 80.0499 112.209 81.0899L112.219 81.0999Z" fill="#E89163"/>
<path d="M137.629 99.25C137.559 99.15 137.52 99.01 137.43 98.97C134.88 97.82 134.87 97.75 136.9 95.75C137.16 95.74 137.41 95.72 137.67 95.71C138.38 96.47 138.97 97.7 139.81 97.9C141.94 98.39 142.3 100.29 143.06 101.67C143.53 102.51 142.809 104.01 142.619 105.21C141.689 105.8 141.119 105.75 141.249 104.45C141.509 101.7 139.169 100.76 137.629 99.26V99.25Z" fill="#D19D3C"/>
<path d="M156.54 74.66C156.54 74.92 156.52 75.18 156.51 75.45C153.08 75.55 149.64 75.65 145.95 75.76C145.37 74.68 145.74 73.8 147.1 73.22C147.6 73.01 148.07 72.73 148.55 72.48C151.12 73.53 153.63 74.82 156.53 74.66H156.54Z" fill="#0F0907"/>
<path d="M143.52 55.1599C143.73 56.0599 143.94 56.9499 144.15 57.8499H141.4C141.29 57.6299 141.189 57.3999 141.079 57.1799C141.889 56.5099 142.7 55.8399 143.52 55.1599Z" fill="#140B0A"/>
<path d="M152.74 205.8C153.07 203.94 153.74 202.12 152.53 199.98C151.85 198.77 152.83 196.48 153.35 194.77C157.68 180.45 156.41 166.44 151.3 152.58C150.94 151.61 149.31 150.35 151.53 149.1C154.32 153.24 155.89 157.83 157.23 162.54C160.09 172.62 160.1 182.81 158.36 193.02C156.88 201.68 155.07 210.27 153.47 218.91C153.25 220.1 153.04 221.3 152.83 222.49C151.67 222.46 150.51 222.43 149.34 222.42C149.21 222.42 149.08 222.42 148.95 222.42C149.28 221.24 149.6 220.05 149.9 218.87C150.99 214.55 151.95 210.19 152.73 205.8H152.74ZM3.72954 211.66C2.04954 208.61 2.60951 205.49 4.81951 202.86C6.98951 200.28 9.29951 197.81 11.6995 195.44C18.4695 188.74 25.2696 182.08 32.1396 175.47C34.7496 172.96 37.5996 170.7 40.2496 168.23C40.9896 167.54 41.6095 166.58 41.9495 165.62C44.1395 159.37 46.2396 153.1 48.6196 146.08C46.2896 144.23 43.5295 141.76 40.4795 139.73C38.1995 138.21 35.5596 137.19 33.0296 136.06C30.6996 135.03 28.0396 130.75 28.2996 128.2C28.4996 126.21 29.4295 125.52 31.4695 126.21C36.9695 128.07 42.3596 130.24 47.0596 133.73C51.5096 137.04 55.7996 140.56 59.9096 143.78C66.9096 137.29 74.0996 130.87 80.9996 124.15C88.3696 116.97 96.3395 110.87 106.32 107.81C106.77 107.67 107.18 107.41 107.73 107.15C107.77 106.44 107.87 105.72 107.83 105.01C107.8 104.43 107.59 103.85 107.42 103.09C101.3 103.66 95.1695 106.14 89.1895 102.44C114.56 102.05 132.4 88.25 148.4 70.07C146.28 70.07 144.72 70.27 143.25 70C142.32 69.83 141.53 68.94 140.68 68.37C141.25 67.67 141.7 66.8 142.41 66.29C144.09 65.08 144.27 65.14 150.07 65.86C150.42 63.7 150.78 61.52 151.12 59.45C147.84 56.35 143.75 60.37 140.53 57.7C142.48 53.08 146.62 53.69 150.28 53.66C150.78 48.62 149.81 47.28 145.43 46.98C143.63 46.86 141.81 47.13 140 47.2C139.1 47.23 138.2 47.2 136.61 47.2C139.72 42.57 144.29 44.7 147.7 43.56C146.63 37.49 143.259 36.13 136.439 37.57C134.969 37.88 133.49 38.17 131.84 38.05C133.26 33.69 137.53 34.37 140.98 32.73C137.66 29.25 133.73 27.09 129.24 26.4C127.79 26.18 125.94 27.67 124.46 28.67C122.88 29.73 121.56 31.18 120.06 32.38C119.16 33.1 118.14 33.68 116.53 34.75C116.29 29.69 120.37 28.39 122.63 25.28C116.11 23.65 111.19 26.08 106.86 30.61C106.65 30.27 106.44 29.94 106.23 29.6C107.45 28.29 108.66 26.97 110.34 25.16C99.2095 27.03 90.9295 32.1 84.8295 41.1C87.1095 43.08 89.2296 44.82 91.2396 46.68C94.5396 49.72 94.7296 51.94 92.1296 55.53C91.1396 56.9 90.2296 58.33 89.1596 59.63C86.3296 63.05 82.8496 63.46 79.2696 60.89C78.4996 60.33 77.6996 59.8 76.9096 59.27C76.8396 59.22 76.6895 59.3 76.2195 59.38C74.4895 64.58 73.2795 69.96 74.1895 75.66C75.3595 83.02 78.4295 89.38 83.7195 94.72C85.5095 96.52 86.8095 98.81 88.3295 100.87C88.1295 101.13 87.9295 101.38 87.7195 101.64C86.9295 101.33 85.9996 101.2 85.3796 100.69C79.1796 95.56 74.5296 89.27 72.7396 81.36C70.6696 72.25 70.6196 63.01 74.4096 54.31C78.6596 44.55 83.7596 35.21 92.5396 28.59C97.9796 24.49 104.18 22.24 110.95 21.67C114.32 21.39 117.73 21.19 121.1 21.39C124.46 21.59 127.78 22.32 131.41 22.86C133.26 20.35 135.8 18.55 139.21 17.93C145.2 16.84 148.84 20.31 151.92 24.51C155.22 29.01 157.51 34.04 158.45 39.68C159.19 34.58 161.47 29.44 157.65 24.52C156.48 23.02 155.34 21.5 154.26 19.93C152.92 17.98 150.95 17.14 148.76 16.83C146.31 16.48 144.51 15.26 142.97 13.05C144.95 8.75 149.15 10.5 152.37 9.70002C157.45 1.03002 170.03 0.660003 176.1 8.93C179.99 14.23 181.04 20.36 180.81 26.61C180.73 28.86 178.63 31.03 177.51 33.26C177 34.27 176.29 35.35 176.26 36.41C176.13 41.79 176.46 47.19 176.16 52.55C175.26 68.82 174.07 85.07 173.12 101.33C172.48 112.28 172.07 123.25 171.55 134.35H169C171.36 140.11 173.81 145.82 176.05 151.63C180.23 162.47 182.44 173.84 184.97 185.12C185.19 186.09 185.11 187.34 184.66 188.19C182.85 191.59 182.99 192.18 186.86 193.82C188.69 191.25 190.47 188.54 192.45 185.99C195.26 182.37 198.18 178.82 201.14 175.32C202.41 173.82 203.09 172.41 203.2 170.26C203.55 163.19 203.4 156 205.99 149.21C206.25 148.53 206.41 147.81 206.74 147.17C207.75 145.21 209.01 145.03 210.17 146.93C211.66 149.37 212.84 152 214.15 154.55C214.8 155.81 215.46 157.07 216.11 158.34C220.65 155.7 224.89 153.2 229.16 150.76C230.31 150.1 231.52 149.42 232.79 149.12C233.73 148.9 235.3 148.91 235.73 149.47C236.34 150.27 236.55 151.79 236.25 152.79C235.81 154.25 234.76 155.53 233.97 156.89C232.08 160.11 230.18 163.33 228.37 166.42C230.98 170.91 235.72 173.78 236.33 179.87C229.77 180.42 223.46 181.05 217.13 181.41C215.98 181.48 214.78 180.48 213.26 179.82C210.09 187.79 206.55 195.85 203.7 204.16C201.76 209.83 200.83 215.85 199.37 221.69C199.27 222.1 199.08 222.5 198.86 222.89C197.08 222.89 195.29 222.89 193.51 222.87C195.14 220.79 196.33 218.37 196.89 215.5C198.66 206.48 201.31 197.73 205.09 189.34C207.46 184.09 209.84 178.84 212.21 173.61C219.18 174.51 225.8 175.37 233.28 176.35C230.73 173.62 228.69 171.29 226.49 169.11C224.41 167.06 224.24 165.94 225.92 163.52C227.84 160.74 229.7 157.93 231.55 155.1C231.88 154.6 232.02 153.98 232.45 152.89C226.95 154.93 222.729 157.87 218.689 161.04C215.999 163.15 215.45 163.15 214.09 159.93C213.25 157.93 212.6 155.86 211.73 153.87C211.11 152.46 210.26 151.16 209.39 149.59C205.41 158.24 206 166.78 207.05 175.12C205.84 176.14 204.69 176.82 203.91 177.81C201.45 180.94 198.99 184.08 196.79 187.39C190.7 196.54 184.75 205.78 178.72 214.97C178.19 215.77 177.61 216.58 176.9 217.22C175.84 218.17 172.73 218.13 172.31 217.01C171.99 216.15 172.64 214.91 172.93 213.86C173.02 213.54 173.38 213.3 173.59 213C177.2 207.88 180.81 202.76 184.43 197.64C181.36 198.01 178.64 198.85 176 199.9C170.87 201.95 165.87 204.38 159.64 204.27C161.02 210.74 162.1 216.88 163.73 222.87C162.22 222.84 160.71 222.79 159.21 222.73C159.1 216.2 157.23 209.77 158.06 203.14C158.33 200.98 159.45 200.07 160.92 199.48C167.02 197 173.18 194.69 179.34 192.36C181.3 191.62 182.17 190.22 180.88 189.31C177.89 187.18 178.28 183.9 177.82 181.11C175.48 166.86 172.07 152.92 166.27 139.68C162.68 131.48 158.52 123.52 152.41 116.83C149.9 114.08 147.14 111.62 143.54 110.11C141.8 109.38 140.89 109.63 139.66 111.02C139.98 111.65 140.33 112.37 140.72 113.07C141.81 115.06 141.89 117.07 140.34 118.77C138.8 120.45 137.17 122.16 135.28 123.39C133.49 124.56 132.95 126.07 132.84 127.93C132.14 139.34 129.75 150.32 124.78 160.68C122.63 165.15 119.19 168.19 114.89 170.42C112.12 171.86 109.53 170.98 108.57 167.98C107.73 165.35 107.17 162.61 106.8 159.87C106.22 155.58 105.86 151.26 105.47 146.95C104.99 141.68 104.65 136.4 104.06 131.14C103.98 130.4 102.89 129.46 102.06 129.16C95.1896 126.66 94.6596 124.93 99.2896 119.2C100.19 118.09 101.35 117.19 102.38 116.18C103.11 115.47 103.82 114.75 104.54 114.03C104.41 113.82 104.28 113.61 104.15 113.4C103.56 113.54 102.93 113.59 102.38 113.83C94.8596 117.12 88.7396 122.36 82.7496 127.81C76.0896 133.88 69.3395 139.86 62.3395 146.13C64.1495 148.16 66.0696 150.42 68.1496 152.55C68.7796 153.19 69.7696 153.63 70.6696 153.82C75.1896 154.78 75.4996 155.29 73.6396 159.45C76.7796 163.79 81.6796 165.43 86.3096 167.33C90.3096 168.98 94.4996 170.22 98.6596 171.42C101.81 172.33 102.66 173.06 102.46 175.6C102.22 178.62 100.23 180.82 97.4395 180.65C94.4495 180.46 91.4796 179.9 88.5096 179.47C87.3196 179.29 86.1395 178.98 84.9495 178.77C81.4762 178.163 78.5429 176.363 76.1496 173.37C75.7596 176.15 75.3496 178.39 75.1496 180.65C74.1496 191.89 74.0595 203.1 76.3295 214.23C76.5395 215.28 76.5996 216.44 76.4096 217.48C76.0796 219.19 76.0296 220.82 76.1496 222.41C75.1196 222.41 74.0896 222.4 73.0496 222.39C72.0296 218.09 70.9096 213.8 69.8096 209.36C66.7696 212.51 63.8495 215.51 60.9495 218.53C59.6395 219.89 58.4895 220.62 56.7295 218.9C53.8295 216.07 50.6596 213.51 47.6696 210.78C47.0696 210.23 46.7095 209.42 46.0895 208.51C41.9895 211.39 38.4896 213.91 34.9196 216.33C33.2196 217.48 31.3796 218.42 29.6496 219.52C28.7596 220.09 27.6495 220.65 27.2095 221.51C25.4395 224.95 22.4195 225.29 19.4395 224.28C12.7295 222.01 7.22956 217.94 3.74956 211.63L3.72954 211.66ZM103.99 120.76C102.87 121.77 102.17 122.41 101.27 123.23C102.25 123.8 102.92 124.19 103.99 124.82V120.76ZM83.6096 42.89C82.0396 45.52 80.6996 47.75 78.9296 50.72C81.4396 50.55 83.3195 50.48 83.4795 52.58C83.6995 55.59 81.4696 56.79 78.7796 57.45C79.3496 58.06 79.6596 58.42 79.9996 58.75C82.8596 61.55 84.5295 61.59 87.2095 58.57C88.7995 56.78 90.2296 54.79 91.3796 52.7C91.8596 51.83 91.9196 50.09 91.3696 49.38C89.3096 46.76 86.7596 44.61 83.6196 42.89H83.6096ZM133.03 110.22C133.27 114.45 133.469 117.98 133.689 121.98C135.869 119.71 137.87 117.62 140.35 115.03C137.63 113.25 135.48 111.84 133.03 110.22ZM136.3 105.98C137.4 105.78 138.36 104.83 139.04 104.42C139.14 102.4 136.75 99.6 135.45 99.71C133.97 99.84 133.12 100.76 133.11 102.35C133.1 104.17 134.72 106.26 136.29 105.98H136.3ZM142.07 101.32C141.66 104.73 140.47 107.07 137.2 108.17C139.95 108.34 142.3 107.6 143.11 104.99C143.43 103.97 142.46 102.55 142.07 101.31V101.32ZM153.93 95.1C153.94 94.65 153.79 94.2 153.66 93.48C152.84 93.89 152.24 94.2 152.3 94.17C152.04 99.63 151.81 104.59 151.57 109.71C150.83 109.49 150.22 109.41 150.2 109.28C149.75 104.88 149.349 100.47 148.939 95.97C147.019 96.48 144.91 97.03 142.97 97.54C144.13 99.75 145.67 101.5 145.83 103.36C145.97 105.07 144.62 106.91 143.92 108.72C146.82 110.04 149.96 111.46 153.41 113.02C153.59 106.86 153.77 100.98 153.93 95.1ZM155.85 85.04C156.19 84.59 155.64 82.99 155.02 82.41C154.11 81.57 152.78 81.19 151.06 80.32C150.96 82.1 150.6 83.37 150.92 84.44C151.16 85.24 152.23 86.25 152.99 86.3C153.95 86.37 155.28 85.79 155.85 85.03V85.04ZM173.66 37.16C171.14 37.3 170.05 37.89 169.99 40.38C169.64 53.62 169.43 66.88 168.46 80.09C167.36 94.97 165.51 109.8 164.02 124.66C163.94 125.44 164.01 126.38 164.38 127.03C165.79 129.45 167.36 131.78 168.87 134.14C168.87 129.52 168.71 124.89 168.89 120.28C169.27 110.76 169.83 101.25 170.33 91.73C170.55 87.63 170.79 83.53 171.06 79.43C171.58 71.49 172.17 63.56 172.67 55.62C173.05 49.5 173.34 43.38 173.67 37.16H173.66ZM170.189 29.17C170.519 29.12 170.85 29.06 171.18 29.01L169.75 24.04C169.9 25.75 170.039 27.46 170.189 29.18V29.17ZM166.04 8.08C172.57 13.74 173.56 21.12 172.89 29.32C175.25 27.97 176.18 25.96 176.31 23.54C176.41 21.62 176.48 19.67 176.34 17.76C176.07 14.22 174.379 11.36 171.689 9.08C170.109 7.75 168.37 7.15 166.05 8.08H166.04ZM159.86 13.17C164.38 15.05 166.64 18.44 168.32 22.36C168.53 22.86 169.15 23.18 169.63 23.57C168.96 21.36 168.45 19.09 167.57 16.97C165.83 12.77 165.25 12.55 159.87 13.17H159.86ZM161.6 85.19C160.73 86.87 159.3 88.24 158.23 89.82C157.59 90.76 156.74 91.8 156.68 92.84C156.29 99.76 156.06 106.7 155.83 113.63C155.8 114.44 155.759 115.45 156.189 116.04C157.989 118.5 159.97 120.84 162.03 123.4C162.34 122.72 162.59 122.41 162.61 122.08C162.97 116.56 163.39 111.05 163.61 105.52C163.96 96.97 164.2 88.42 164.42 79.88C164.7 69.25 165.05 58.61 165.08 47.98C165.08 44.47 167.299 40.56 163.689 37.69C167.719 29.57 165.44 20.05 158.41 17.75C158.99 18.69 159.23 19.07 159.45 19.46C161.52 23.09 164.05 26.68 163.47 31.1C162.89 35.49 161.78 39.81 160.91 44.16C160.75 44.97 160.46 45.81 160.56 46.59C161.89 56.15 160.84 65.57 159.03 74.95C162.52 78.43 163.43 81.64 161.58 85.22L161.6 85.19ZM153.49 53.51C156.08 55.8 154.48 58.19 154.06 60.5C153.29 64.72 152.159 68.88 151.189 73.05H154.54C155.21 66.74 155.95 60.54 156.48 54.33C156.65 52.35 155.34 52.72 153.5 53.51H153.49ZM153.56 47.42C154.08 46.31 154.369 45.29 154.439 44.25C154.849 38.17 152.85 32.78 150.03 27.47C147.77 23.2 140.75 20.29 136.18 25.12C146.09 29.31 149.4 38.61 153.55 47.42H153.56ZM144.24 80.42C149.41 77.94 154 78.55 158.35 82.09C158.12 77.44 156.5 75.64 152.93 75.58C149.57 75.53 146.79 77 144.24 80.41V80.42ZM142.09 84C143.28 85.38 144.99 86.51 145.3 87.94C145.65 89.57 144.76 91.46 144.36 93.44C147.66 92.66 150.69 91.67 153.23 88.63C148.6 88.78 146.03 86.88 145.63 82.46C144.17 83.1 143 83.61 142.09 84.01V84ZM130.54 91.93C131.63 92.51 132.44 93.04 133.33 93.4C136.58 94.72 140.81 93.82 142.6 91.39C143.47 90.2 144.22 88.84 143.03 87.44C141.98 86.2 140.699 85.24 138.939 86.06C138.089 86.45 137.28 86.96 136.52 87.51C134.58 88.91 132.67 90.35 130.55 91.93H130.54ZM109.64 102.5C110.33 109.89 111.03 117.43 111.77 125.45C116.06 125.9 119.96 125.29 123.79 124.19C124.37 124.02 125.2 123.32 125.22 122.83C125.31 120.8 125.77 118.41 124.89 116.82C123.81 114.88 124.02 113.23 124.19 111.34C124.66 106.22 125.06 101.1 125.53 95.45C119.91 97.94 114.91 100.15 109.63 102.49L109.64 102.5ZM124.44 128.63C120.33 129.3 116.44 129.93 112.39 130.59C112.39 131.5 112.33 132.44 112.4 133.38C112.81 138.43 113.22 143.48 113.7 148.52C114 151.63 114.37 154.74 114.82 157.83C114.92 158.53 115.47 159.16 116.17 160.51C120.83 149.84 125.26 139.94 124.44 128.64V128.63ZM106.95 122.7C107.1 127.41 107.44 132.15 107.11 136.84C106.37 147.41 108.95 157.41 111.79 167.62C120.07 164.56 124.13 158.23 126.27 150.42C127.8 144.85 129.36 139.25 130.32 133.56C131.16 128.59 131.4 123.48 131.45 118.43C131.48 115.34 130.67 112.23 130.19 109.14C130.1 108.56 129.81 108.01 129.62 107.44C128.77 110.5 128.31 113.48 128.38 116.45C128.6 126.57 127.12 136.48 124.35 146.15C122.9 151.22 120.7 156.09 118.58 160.93C118.17 161.86 116.53 162.75 115.48 162.72C114.69 162.69 113.5 161.27 113.27 160.29C112.49 156.89 111.8 153.42 111.53 149.95C110.75 140.08 110.21 130.19 109.52 120.31C109.44 119.21 109.08 118.13 108.75 116.6C106.82 119.16 106.85 119.36 106.95 122.7ZM43.6296 206.95C42.3996 205.26 41.2995 203.74 39.6995 201.55C36.5395 206.53 33.7196 210.96 30.8996 215.4C31.0596 215.52 31.2196 215.64 31.3796 215.76C35.3596 212.9 39.3496 210.03 43.6296 206.95ZM71.7396 166.42C70.3696 165.5 69.5195 164.4 69.8495 162.7C67.7195 164.4 65.5896 166.09 63.8996 167.43C66.0296 172.17 67.9196 176.19 69.6396 180.27C70.5596 182.44 70.3195 184.53 68.4495 186.23C66.6295 187.88 64.5896 187.5 62.6696 186.67C58.9696 185.08 55.3496 183.31 51.5096 181.54C48.0496 187.65 44.3496 194.2 40.6296 200.77C43.1896 201.93 43.9395 205.71 47.2295 205.27C49.9795 210.32 54.0096 213.71 58.7596 216.48C60.6996 213.98 62.5496 211.6 64.3996 209.22C67.4496 205.3 70.4695 201.36 69.4495 195.89C69.4295 195.78 69.5096 195.65 69.5196 195.54C69.9496 187.91 71.6096 180.5 73.9096 173.27C74.8896 170.18 74.2396 168.11 71.7396 166.42ZM69.9996 162.58C74.8296 163.87 77.0296 167.65 78.6196 171.92C79.6396 174.67 81.3595 176.36 84.3395 176.74C87.4395 177.13 90.5296 177.6 93.6296 178.04C95.1796 178.26 96.7196 178.7 98.2696 178.69C100.16 178.67 100.63 177.51 100.06 175.85C94.6496 176.05 89.7695 174.68 84.8495 173.18C85.0595 172.52 85.1595 172.1 85.1895 172.1C88.1295 172.58 91.0696 173.09 94.0096 173.6C86.5996 169.56 77.8995 167.92 72.3295 160.47C71.5295 161.2 70.7596 161.89 69.9996 162.58ZM55.7696 145.77C56.7396 149.05 60.7396 149.96 62.1596 152.97C62.4896 153.67 64.1296 153.75 65.1696 154.11C65.3396 153.75 65.4996 153.39 65.6696 153.04C62.6496 150.35 59.6295 147.67 56.6095 144.98C56.3295 145.24 56.0596 145.51 55.7796 145.77H55.7696ZM55.1396 156.19L55.6895 156.67C56.9495 156.14 58.2096 155.61 60.1396 154.8C59.2596 154.05 58.6596 153.53 57.6796 152.69C56.6896 154.06 55.9096 155.12 55.1396 156.18V156.19ZM48.9495 142.8C51.2595 144.66 51.2196 144.71 54.0496 142.78C47.3796 137.07 40.4396 131.91 31.4896 129.38C31.7796 131.48 31.9696 133.06 34.0196 133.64C39.8496 135.3 44.3695 139.11 48.9595 142.79L48.9495 142.8ZM6.98955 209.48C9.92955 215.27 15.0296 218.31 20.7696 220.57C22.2896 221.17 23.6596 220.72 24.6396 219.41C25.4996 218.25 26.3396 217.07 27.0596 215.82C28.7296 212.89 30.2795 209.89 31.9595 206.97C37.2495 197.79 43.5395 189.17 47.3495 179.14C48.0195 177.37 49.6595 175.38 51.7095 175.94C55.4695 176.96 59.0396 178.67 62.6796 180.12C63.5996 180.49 64.4896 180.95 65.3896 181.37C64.2996 177.54 63.1096 173.97 59.7496 171.88C57.8596 170.71 57.3595 169.43 58.9395 167.85C61.1195 165.66 63.4596 163.62 65.7696 161.56C67.0596 160.41 68.4196 159.33 70.0296 157.99C63.1496 156.17 58.1495 159.9 52.6095 162.11V148.45C50.4095 148.65 49.9095 150.52 49.3195 151.97C47.8695 155.53 46.6896 159.2 45.4296 162.84C44.8496 164.53 44.0095 166.22 43.8595 167.95C43.6195 170.64 42.2996 172.33 40.1796 173.77C37.7796 175.39 35.3796 177.06 33.2596 179.01C27.1696 184.64 21.1296 190.34 15.2496 196.2C12.3696 199.08 9.89956 202.37 7.24956 205.49C6.17956 206.75 6.24956 208.03 6.99956 209.5L6.98955 209.48ZM129.68 50.24C124.14 50.11 118.59 50.35 113.05 50.64C110.47 50.78 108.57 52.13 107.86 54.85C107.25 57.17 106.29 59.4 105.79 61.73C104.96 65.58 106.36 67.36 110.26 67.17C115.64 66.91 121.02 66.4 126.38 65.86C128.19 65.68 129.96 65.05 131.9 64.59C130.32 61.89 130.54 61.24 132.93 60.39C134.57 59.81 136.62 59.81 136.92 57.09C135.82 56.79 134.72 56.5 133.39 56.14C133.62 51.98 132.79 50.31 129.7 50.24H129.68ZM128.37 52.77C131.06 52.91 131.69 53.86 130.96 56.54C130.93 56.66 130.87 56.76 130.84 56.88C128.71 63.72 127.11 64.74 119.67 64.68C116.43 64.65 113.2 65.23 109.96 65.27C107.3 65.31 106.77 64.53 107.11 62.02C107.16 61.66 107.23 61.31 107.35 60.97C109.75 53.81 108.56 54.08 116.12 53.34C118.75 53.08 121.38 52.85 124.02 52.61C124.02 52.66 124.03 52.71 124.04 52.76C125.49 52.76 126.94 52.7 128.38 52.77H128.37ZM98.6796 79.27C96.5796 80.21 96.1396 83 97.7396 84.85C99.4696 86.86 101.45 88.65 103.39 90.47C105.34 92.3 106.97 92.36 108.59 90.24C110.11 88.25 111.4 86 112.34 83.67C113.21 81.53 114.55 79.3 113.39 76.45C107.99 75.2 103.3 77.21 98.6995 79.26L98.6796 79.27ZM105.93 90.51C103.65 87.42 101.63 84.69 99.1396 81.31C103.57 79.79 107.33 78.51 111.55 77.07C112.11 82.88 108.99 86.33 105.93 90.51ZM82.5196 150.26C80.8096 153.41 79.0296 156.53 77.5496 159.78C77.2696 160.4 78.2095 161.59 78.7095 162.81C80.4895 158.21 82.0096 154.27 83.6696 149.95C82.9396 150.14 82.5896 150.12 82.5096 150.26H82.5196ZM87.6196 67.85C87.1296 67.9 86.7195 68.64 86.0995 69.23C88.8195 71.11 90.6796 74.05 94.7596 72.7C93.1096 70.36 89.1896 67.69 87.6196 67.85ZM112.91 56.61C110.82 56.58 108.4 58.96 108.44 60.99C108.48 63.21 109.69 64.47 111.72 64.4C114.21 64.33 116.02 62.42 115.96 59.95C115.91 57.97 114.69 56.64 112.91 56.61Z" fill="black"/>
<path d="M96.8495 222.88C95.4095 222.08 93.7895 221.49 92.5795 220.43C89.1395 217.45 85.8296 214.3 82.5496 211.14C81.9796 210.59 81.7795 209.64 81.1995 208.44C84.9495 208.44 88.0895 208.54 91.2195 208.41C93.8195 208.3 96.4996 209.04 99.0396 207.79C99.4296 207.6 100.129 208.08 100.689 208.18C101.389 208.3 102.17 208.58 102.8 208.4C107.66 207.01 112.62 207.92 117.52 207.74C121.75 207.59 126 207.76 130.24 207.68C131.64 207.65 133.03 207.27 134.43 207.07C134.9 207 135.399 206.92 135.859 207C140.939 207.83 145.999 206.67 151.089 206.91C154.399 207.07 157.749 206.51 161.079 206.26C162.239 206.17 163.58 206.3 163.68 207.55C163.76 208.53 163.18 209.92 162.42 210.55C158.34 213.96 154.149 217.23 149.939 220.47C147.619 222.26 144.81 222.72 141.99 223.06C141.07 222.87 140.16 222.52 139.24 222.51C134.7 222.48 130.16 222.53 125.63 222.58C122.15 222.62 118.669 222.75 115.189 222.74C112.839 222.74 110.49 222.46 108.14 222.48C104.38 222.53 100.62 222.73 96.8695 222.87L96.8495 222.88Z" fill="white"/>
<path d="M96.4095 206.99C95.7595 204.52 95.1996 202.38 94.5596 199.94C95.6896 199.85 96.6095 199.7 97.5195 199.73C105.21 199.95 112.909 200 120.579 200.51C125.999 200.87 131.36 202.01 136.77 202.5C138.84 202.69 140.969 201.91 143.089 201.76C146.909 201.49 150.74 201.25 154.56 201.22C156.41 201.21 157.059 202.41 157.199 205.53C155.779 205.53 154.369 205.48 152.959 205.53C149.019 205.69 145.1 205.35 141.13 206.1C138.97 206.51 136.529 206.27 134.219 206.25C132.889 206.24 131.559 206.21 130.229 206.25C126.289 206.37 122.35 206.04 118.4 206.87C116.2 207.33 113.769 206.65 111.449 206.65C108.939 206.65 106.42 206.9 103.91 206.96C101.5 207.02 99.0896 206.97 96.4196 206.97L96.4095 206.99Z" fill="#E89163"/>
<path d="M96.8495 222.88C100.609 222.74 104.36 222.54 108.12 222.49C110.47 222.46 112.82 222.74 115.17 222.75C118.65 222.75 122.129 222.62 125.609 222.59C130.149 222.54 134.689 222.49 139.219 222.52C140.139 222.52 141.059 222.88 141.969 223.07C140.759 223.53 139.549 223.98 138.339 224.44C137.409 224.34 136.45 224.34 135.54 224.14C131.04 223.15 126.6 224.23 122.13 224.4C120.89 224.45 119.429 225.49 118.439 224.31C117.099 222.73 116.489 225.42 115.109 224.58C113.919 223.86 112.23 223.86 110.74 223.76C109.38 223.67 107.579 223.34 106.719 224.04C105.169 225.31 104.12 223.76 102.91 224.01C102.05 224.19 100.959 224.61 101.969 225.89C99.5195 226.15 98.4295 224.09 96.8495 222.88Z" fill="#0F0F0F"/>
<path d="M95.6895 206.75C94.8095 204.66 94.2796 203.44 93.7996 202.21C92.6696 199.34 93.6595 197.38 96.7195 197.13C100.209 196.85 103.729 196.91 107.229 196.99C116.789 197.19 126.2 198.79 135.63 200.24C137.94 200.59 140.41 199.89 142.81 199.67C145.44 199.43 148.059 199.14 150.689 198.95C154.899 198.64 158.1 199.89 158.88 204.95H167.37C167.49 205.21 167.599 205.46 167.719 205.72C166.269 207.23 164.939 208.86 163.359 210.23C158.449 214.48 153.469 218.65 148.479 222.82C145.079 225.65 141.089 225.78 136.729 224.74C137.579 224.34 138.39 223.7 139.27 223.57C146.34 222.58 151.56 218.25 156.79 213.96C159.08 212.08 161.32 210.13 163.42 207.75C154.32 206.6 145.389 207.98 136.449 207.85C127.539 207.72 118.609 208.29 109.689 208.51C100.739 208.73 91.7996 208.9 82.1696 209.1C87.9996 215.65 94.1696 220.71 101.04 225.28C98.4696 226.27 96.4695 225.9 93.8695 223.45C89.8395 219.65 86.0295 215.63 82.1595 211.67C80.9095 210.39 79.7696 208.99 78.4196 207.46C79.0996 206.37 79.7995 205.85 81.4795 206.02C85.9595 206.48 90.4796 206.52 95.6796 206.76L95.6895 206.75ZM97.0795 206.64C117.109 206.02 136.849 205.4 156.699 204.79C156.439 202.58 155.07 201.85 153.41 201.78C150.64 201.68 147.739 201.3 145.109 201.93C139.069 203.36 133.15 202.51 127.14 202.02C118 201.26 108.84 200.82 99.6796 200.29C98.4296 200.22 97.1695 200.41 95.7095 200.49C96.1895 202.65 96.5795 204.39 97.0795 206.64Z" fill="black"/>
</svg>
