<svg width="130" height="219" viewBox="0 0 130 219" fill="none" xmlns="http://www.w3.org/2000/svg">
<path d="M129.55 143.08L127.55 143.1L129.55 143.05V142.82C129.49 140.77 129.43 138.73 129.39 136.68C129.35 134.54 129.3 132.39 129.25 130.24L129.23 129.5C129.08 122.67 128.92 115.62 128.86 108.68C128.83 105.49 128.91 102.26 128.98 99.12C129.04 96.19 129.11 93.16 129.1 90.15C129.06 80.8 128.91 71.3301 128.75 62.1701V61.7301C128.49 46.5701 128.27 33.83 127.98 20.9C127.89 17.03 127.72 13.11 127.55 9.25005C127.47 7.51005 127.4 5.77004 127.33 4.03004L127.24 1.64005L0.560059 0.790039L0.73999 3.47005C0.77999 4.14005 0.830005 4.73005 0.880005 5.27005C0.960005 6.17005 1.01001 6.88004 1.01001 7.53004C0.95001 12.91 0.870049 18.29 0.800049 23.67V23.9C0.660049 33.62 0.519971 43.6801 0.469971 53.5701C0.429971 60.4801 0.480029 67.48 0.530029 74.24C0.570029 80.15 0.619976 86.26 0.599976 92.27C0.579976 99.02 0.509951 105.83 0.449951 112.41V112.53C0.369951 119.75 0.300039 127.21 0.290039 134.56C0.290039 141.5 0.360054 148.55 0.430054 155.37V155.49C0.490054 161.27 0.559946 167.24 0.569946 173.11C0.599946 185.77 0.540024 198.88 0.400024 212.07C0.360024 215.51 2.32998 216.92 3.97998 217.49L4.43005 217.65C5.73005 218.11 7.20995 218.63 8.81995 218.7C13.3399 218.89 17.8 218.9 22.35 218.9H34.39C39.6 218.92 44.8701 218.93 50.1801 218.93C59.8501 218.93 67.62 218.91 74.63 218.86C84.19 218.79 93.9101 218.63 103.31 218.47H103.42C109.22 218.37 115.03 218.27 120.83 218.19C126.26 218.12 127.89 216.75 128.73 211.56C128.95 210.19 128.87 208.83 128.8 207.62L128.77 207.08C128.73 206.24 128.64 205.4 128.55 204.54C128.42 203.29 128.29 202.01 128.33 200.83C128.44 197.53 128.61 194.2 128.78 190.95C128.95 187.73 129.12 184.41 129.23 181.12C129.33 178.26 129.33 175.39 129.34 172.61C129.34 170.54 129.35 168.48 129.39 166.41C129.42 164.87 129.5 163.29 129.57 161.77C129.68 159.63 129.78 157.41 129.77 155.19C129.75 151.13 129.64 147.03 129.53 143.05L129.55 143.08Z" fill="white"/>
<path d="M5.37 210.66V206.79C5.37 190.67 5.38997 174.55 5.33997 158.44C5.33997 156.2 4.9 153.87 4.88 151.72C4.85 148.22 5.74001 144.71 4.64001 141.2C6.15001 136.48 5.07995 131.63 5.31995 126.85C5.38995 125.48 4.68996 124.07 4.70996 122.69C4.73996 120.81 5.31006 118.95 5.31006 117.07C5.31006 115.32 4.77994 113.57 4.68994 111.81C4.57994 109.67 4.94994 107.55 4.93994 105.39C4.90994 99.5201 5.32005 93.6501 5.30005 87.7901C5.30005 85.6201 4.99005 83.4701 5.30005 81.2701C5.48005 80.0301 4.99001 78.7001 4.89001 77.4001C4.76001 75.7301 4.31999 73.9401 4.73999 72.4001C5.52999 69.5401 5.26999 66.9001 4.85999 64.0101C4.60999 62.2401 4.43003 60.1801 4.66003 58.2901C5.26003 53.3001 5.62003 48.2901 5.28003 43.2901C5.12003 40.9701 4.69006 38.7201 5.31006 36.3901C5.50006 35.6601 5.06999 34.7801 4.98999 33.9601C4.84999 32.5401 4.35999 30.9901 4.73999 29.7101C5.34999 27.6801 5.81003 25.8301 4.66003 23.9001C5.61003 20.2701 3.61001 16.5001 5.26001 12.8401C5.69001 11.8901 5.17003 10.5001 5.03003 9.32013C4.92003 8.43013 4.72002 7.56012 4.52002 6.47012C8.40002 6.17012 11.94 5.69013 15.47 5.71013C17.16 5.71013 18.73 6.39013 20.55 5.71013C21.95 5.19013 23.63 5.81013 25.22 5.77013C26.89 5.72013 28.59 5.39012 30.29 5.62012C34.88 6.23012 39.4701 5.46012 44.0601 5.59012C48.9101 5.73012 53.76 5.62012 58.61 5.62012H87.34C92.07 5.62012 96.8 5.67013 101.52 5.60013C104.38 5.56013 107.24 5.27012 110.1 5.26012C112.18 5.25012 114.27 5.64012 116.35 5.58012C118.71 5.51012 121.06 5.12012 123.43 4.87012C124.15 6.24012 125.48 7.44012 123.96 9.01012C124.67 13.2301 123.66 17.4501 123.88 21.6801C124.1 26.0301 123.99 30.4001 123.9 34.7601C123.86 36.4001 123.44 38.0301 123.24 39.6701C123.17 40.2701 123.12 40.8901 123.22 41.4801C123.91 45.8301 122.99 50.1801 123.17 54.5301C123.34 58.8901 123.21 63.2501 123.21 67.6201C123.21 71.9901 123.08 76.5901 123.26 81.0701C123.37 83.9701 122.85 86.8401 123.15 89.7601C123.45 92.6401 123.22 95.5701 123.22 98.4801C123.22 101.51 123.17 104.54 123.24 107.57C123.3 109.98 122.81 112.37 123.18 114.81C123.54 117.19 123.03 119.61 123.13 122.04C123.26 125.11 122.6 128.21 122.54 131.3C122.51 133.29 123.05 135.29 123.17 137.29C123.24 138.46 122.96 139.65 122.87 140.83C122.75 142.61 122.25 144.49 122.65 146.15C123.26 148.66 122.65 151.12 122.87 153.44C123.2 156.77 121.14 160.15 123.15 163.39C123.42 163.83 123.24 164.58 123.2 165.18C123.06 167.54 122.78 169.9 122.78 172.26C122.78 174.58 123.04 176.91 123.22 179.23C123.36 181.04 122.81 182.8 123.15 184.66C123.47 186.42 123.22 188.28 123.22 190.1C123.22 192.04 123.13 193.98 123.25 195.92C123.37 197.92 123.7 199.91 123.92 201.91C123.96 202.27 123.98 202.64 123.94 203C123.6 205.69 123.24 208.38 122.86 211.34C119.87 211.34 116.74 211.54 113.65 211.25C112.15 211.11 110.54 212.08 109.35 211.29C107.81 210.26 106.66 211.07 105.33 211.37C104.75 211.5 104.08 211.54 103.52 211.37C99.27 210.03 94.91 210.72 90.61 210.7C63.7 210.63 36.78 210.66 9.85999 210.66H5.37ZM16.08 190.89C16.3 192.41 15.99 194.4 16.85 195.36C19 197.78 21.77 199.78 25.33 198.97C29.21 198.09 33.13 197.5 36.65 195.18C39.1 193.57 41.03 191.76 42.29 189.22C44.07 185.65 43.4 182.85 39.87 181.06C37.49 179.85 34.75 178.88 31.99 179.61C30.92 179.89 30.4 179.78 29.49 179.25C26.55 177.54 21.97 178.74 19.63 181.4C17.22 184.14 16.08 187.24 16.08 190.89ZM108.67 159.69C108.67 158.66 108.67 158.41 108.67 158.17C108.67 155.82 109.3 153.19 105.71 152.71C105.19 152.64 104.66 151.74 104.35 151.11C102.36 147.1 97.36 146.48 93.74 148.25C92.59 148.82 91.28 149.07 90.11 149.61C87.63 150.76 85.12 152.21 84.76 155.14C84.38 158.26 85.2 161.3 87.51 163.7C91.36 167.7 95.91 169.78 101.62 169.29C103.83 169.1 105.24 168.21 106.7 166.67C108.87 164.36 108.73 161.67 108.67 159.7V159.69ZM27.16 130.63C31.85 131.33 35.1199 128.94 37.1899 125.27C39.2099 121.68 39.68 117.53 37.87 113.65C37.17 112.16 35.88 110.53 33.87 110.34C25 109.49 20.22 113.84 17.83 122.14C17.47 123.4 17.55 124.84 18.61 126.21C20.84 129.09 23.21 131.34 27.17 130.63H27.16Z" fill="white"/>
<path d="M16.08 190.89C16.08 187.24 17.22 184.14 19.63 181.4C21.97 178.74 26.55 177.54 29.49 179.25C30.4 179.78 30.92 179.89 31.99 179.61C34.75 178.88 37.49 179.85 39.87 181.06C43.4 182.85 44.07 185.65 42.29 189.22C41.02 191.76 39.1 193.57 36.65 195.18C33.13 197.5 29.2 198.09 25.33 198.97C21.77 199.78 19 197.78 16.85 195.36C16 194.4 16.3 192.41 16.08 190.89Z" fill="#DB763B"/>
<path d="M108.67 159.69C108.74 161.66 108.88 164.35 106.7 166.66C105.24 168.21 103.82 169.09 101.62 169.28C95.91 169.77 91.36 167.69 87.51 163.69C85.2 161.29 84.38 158.25 84.76 155.13C85.11 152.21 87.62 150.76 90.11 149.6C91.28 149.06 92.59 148.81 93.74 148.24C97.36 146.47 102.36 147.09 104.35 151.1C104.66 151.72 105.19 152.63 105.71 152.7C109.3 153.18 108.68 155.81 108.67 158.16C108.67 158.4 108.67 158.64 108.67 159.68V159.69Z" fill="#EFB445"/>
<path d="M27.16 130.63C23.2 131.34 20.8399 129.09 18.5999 126.21C17.5399 124.84 17.4499 123.4 17.8199 122.14C20.2099 113.84 24.9899 109.49 33.8599 110.34C35.8799 110.53 37.1699 112.16 37.8599 113.65C39.6699 117.53 39.2 121.68 37.18 125.27C35.11 128.94 31.84 131.33 27.15 130.63H27.16Z" fill="#71B45A"/>
<path d="M3.24003 3.33006C43.86 3.60006 84.14 3.87005 124.84 4.15005C125.06 9.75005 125.36 15.3601 125.49 20.9701C125.79 34.5701 126.03 48.1801 126.25 61.7801C126.41 71.2401 126.57 80.7101 126.6 90.1701C126.62 96.3501 126.31 102.53 126.36 108.71C126.44 118.05 126.69 127.39 126.89 136.74C127.02 142.91 127.26 149.08 127.29 155.25C127.31 158.97 126.98 162.68 126.91 166.4C126.81 171.29 126.91 176.19 126.75 181.07C126.53 187.64 126.07 194.2 125.85 200.77C125.78 202.92 126.17 205.08 126.28 207.24C126.35 208.55 126.48 209.9 126.27 211.18C125.6 215.27 124.99 215.65 120.8 215.71C105.41 215.92 90.02 216.27 74.62 216.38C57.2 216.5 39.78 216.44 22.36 216.43C17.88 216.43 13.4001 216.41 8.93009 216.23C7.54009 216.17 6.1501 215.63 4.8101 215.16C3.4301 214.68 2.88006 213.77 2.90006 212.13C3.04006 199.13 3.10998 186.14 3.06998 173.14C3.03998 160.29 2.78008 147.44 2.79008 134.59C2.79008 120.49 3.07001 106.4 3.10001 92.3C3.13001 79.4 2.89 66.5001 2.96 53.6001C3.04 38.2601 3.33005 22.9201 3.51005 7.58006C3.52005 6.39006 3.36003 5.21007 3.24003 3.32007V3.33006ZM123.58 5.87006C119.01 5.87006 114.83 5.85006 110.64 5.87006C99.6901 5.92006 88.7301 5.99005 77.7801 6.04005C67.2301 6.08005 56.67 6.07006 46.12 6.14006C36.13 6.20006 26.1301 6.30007 16.1401 6.46007C12.6201 6.52007 9.10001 6.80007 5.85001 6.96007V210.41H122.87C121.45 142.27 122.34 74.1301 123.58 5.87006Z" fill="black"/>
<path d="M39.62 70.45C37.2 70.55 35.31 69.54 33.55 68.31C32.04 67.26 30.86 67.36 29.89 68.92C28.68 70.87 27.14 72.71 26.42 74.83C24.89 79.38 23.73 84.06 22.58 88.73C22.35 89.69 22.84 90.82 23.04 92.1C26.29 91.23 28.0699 89.02 29.6999 86.64C30.8599 84.95 31.8599 83.12 33.1999 81.6C34.1499 80.52 36.26 78.86 36.64 79.13C38.2 80.25 40.13 81.89 40.39 83.57C41.03 87.72 40.87 92 40.92 96.22C40.92 96.95 40.44 98.23 40.02 98.31C39.24 98.45 38.13 98.1 37.52 97.55C36.38 96.51 35.51 95.18 34.35 93.74C32.69 94.95 31.21 96.11 29.64 97.16C23.65 101.15 15.75 97.61 15.51 90.49C15.17 80.28 17.96 70.9 24.61 62.89C26.07 61.14 27.6899 60.7 30.0699 61.33C33.1999 62.17 35.8301 63.52 38.0601 65.82C39.3001 67.1 40.08 68.44 39.61 70.44L39.62 70.45Z" fill="black"/>
<path d="M85.3001 95.8402C84.2501 96.6502 83.56 97.3102 82.76 97.7802C79.73 99.5502 75.97 97.9102 75.62 94.4602C75.09 89.2902 74.9601 84.2302 78.4201 79.5902C79.9801 77.5002 80.6401 74.8902 83.5601 73.9502C84.1601 73.7502 84.5 72.0802 84.58 71.0602C84.76 68.6502 84.72 66.2302 84.76 63.8102C84.77 63.0902 84.66 62.3502 84.77 61.6402C84.97 60.3902 84.82 58.6602 86.76 58.8102C88.38 58.9302 88.77 60.2702 88.87 61.7202C89.37 69.5202 89.9001 77.3202 90.4301 85.1202C90.4901 86.0602 90.5401 87.0302 90.8001 87.9302C91.8001 91.5002 91.91 95.0802 90.84 98.6302C90.61 99.4002 89.8401 100.54 89.2801 100.57C88.5301 100.6 87.55 99.8602 87.02 99.1802C86.32 98.2802 85.95 97.1202 85.32 95.8402H85.3001ZM83.33 83.5201C83.03 83.4801 82.7201 83.4302 82.4201 83.3902C80.5001 86.1602 80.03 90.0002 81.89 92.5602C82.44 89.1402 82.89 86.3402 83.34 83.5302L83.33 83.5201Z" fill="black"/>
<path d="M43.3001 119.72C43.0501 127.02 35.6301 135.2 28.4001 135.15C25.5801 135.13 22.5501 133.79 20.0101 132.34C17.9001 131.14 16.06 129.11 14.71 127.04C13.75 125.56 13.16 123.3 13.5 121.6C15.49 111.45 21.1701 106.94 30.5501 105.53C35.0601 104.85 40.56 110.16 41.82 113.8C42.48 115.71 42.8201 117.74 43.3001 119.71V119.72ZM26.71 130.22C34.32 130.01 39.22 124.32 37.96 116.31C37.43 112.95 34.3401 110.57 31.0501 110.89C25.2101 111.46 21.84 114.59 19.6 119.52C17.13 124.96 20.75 130.39 26.71 130.22Z" fill="black"/>
<path d="M81.77 158.59C82.22 150.74 86.45 148.42 93.29 145.8C96.27 144.66 99.57 143.68 102.74 145.7C103.01 145.87 103.44 145.78 103.8 145.8C108.87 146.15 112 148.71 112.97 153.82C114.08 159.65 112.24 164.6 108.12 168.92C104.39 172.84 99.96 174.05 95 172.64C89.61 171.11 85.13 168.06 82.74 162.71C82.17 161.44 82.08 159.96 81.77 158.58V158.59ZM107.05 152.72C105.07 153.95 104.29 152.59 103.36 151.24C101.82 149.01 99.61 147.5 96.9 148.23C93.92 149.03 90.98 150.22 88.27 151.71C85.88 153.02 85.05 155.34 85.7 158.2C86.88 163.36 92.92 168.02 99.01 168.8C103.13 169.32 106.86 167.14 107.9 162.24C108.55 159.18 108.37 156.02 107.05 152.73V152.72Z" fill="black"/>
<path d="M101.38 113.17C96.34 113.65 91.45 114.27 86.54 114.55C76.78 115.11 67.02 115.53 57.25 115.93C54.98 116.02 52.68 115.91 50.42 115.65C48.65 115.44 47.51 114.05 47.65 112.39C47.8 110.62 49.54 110.45 51.02 110.36C62.81 109.61 74.59 108.87 86.38 108.13C89.87 107.91 93.36 107.62 96.86 107.45C101.46 107.22 101.87 107.72 101.37 113.17H101.38Z" fill="black"/>
<path d="M19.2901 54.69C23.2501 53.51 26.2001 52.58 29.1801 51.76C30.9101 51.28 32.69 50.88 34.47 50.64C35.8 50.46 37.37 50.5 37.59 52.28C37.79 53.88 37.43 55.48 35.59 56.06C33.18 56.82 30.75 57.5 28.32 58.2C25.2 59.09 22.08 60.02 18.94 60.83C16.68 61.41 15.7501 60.88 15.4301 58.53C15.1301 56.27 15.0001 53.94 15.1801 51.68C16.0601 40.39 17.0601 29.12 18.0301 17.84C18.1901 16.03 18.3101 14.17 20.2601 13.24C22.2501 13.54 22.4501 15.18 22.3901 16.55C22.1501 21.46 21.73 26.35 21.33 31.25C20.71 38.72 20.0401 46.19 19.3001 54.7L19.2901 54.69Z" fill="black"/>
<path d="M12.83 190.15C13.3 185.29 15.49 179.68 21.96 176.68C22.82 176.28 23.81 175.79 24.7 175.86C27.74 176.08 30.7601 176.84 33.7901 176.81C37.2801 176.77 39.6901 178.84 42.2801 180.46C46.1701 182.9 46.7701 187.55 43.5201 191.47C37.8401 198.31 30.5301 202 21.4201 201.11C15.8401 200.56 12.71 197.05 12.83 190.16V190.15ZM17.0201 190.31C16.8901 195.9 20.56 199.08 25.82 198.19C27.7 197.87 29.64 197.51 31.39 196.78C35.62 195.01 39.7001 193 41.7701 188.43C42.9101 185.93 42.8001 184.47 40.6601 182.73C38.1201 180.67 35.26 179.81 31.96 180.41C31.14 180.56 30.16 180.28 29.35 179.95C25.37 178.35 21.6501 179.34 19.3101 182.91C17.7901 185.22 16.4801 187.69 17.0301 190.31H17.0201Z" fill="black"/>
<path d="M23.72 158.29C23.33 155.79 24.1801 154.73 26.3101 154.5C34.3401 153.64 42.3501 152.56 50.3901 151.87C57.9601 151.22 65.5701 150.94 73.1601 150.53C76.3701 150.35 79.52 150.57 82.88 151.87C81.05 154.24 78.87 154.43 76.75 154.62C71.26 155.12 65.76 155.54 60.26 155.99C49.45 156.87 38.64 157.78 27.82 158.61C26.45 158.71 25.05 158.41 23.71 158.3L23.72 158.29Z" fill="black"/>
<path d="M94.4499 48.62C95.6799 48.49 96.9699 48.38 98.2399 48.2C100.06 47.94 101.6 48.76 101.92 50.31C102.11 51.21 101 52.77 100.06 53.41C99.07 54.08 97.5299 54.35 96.3199 54.18C94.5499 53.93 92.7199 53.38 91.1899 52.48C90.0699 51.82 88.9599 50.54 88.5799 49.31C86.8399 43.64 88.11 38.31 91.16 33.39C92.75 30.83 95.2599 30.4 97.9499 31.98C101.53 34.08 102.54 35.38 101.52 37.55C100.73 39.23 99.3 40.62 98.06 42.06C97.69 42.49 97.04 42.68 96.5 42.96C93.69 44.38 93.4999 44.83 94.4499 48.63V48.62Z" fill="black"/>
<path d="M108.45 86.2101C108.45 83.2901 108.64 80.9001 108.4 78.5501C108.14 76.0801 105.03 75.1901 102.66 76.8301C101.89 77.3601 101.37 78.2301 100.68 78.9001C99.7 79.8501 98.67 80.7501 97.37 81.9301C97.16 77.4001 101.3 72.6101 105.05 72.4401C106.01 72.4001 106.98 72.4401 107.94 72.5401C110.44 72.8101 111.22 73.7201 111.69 76.1501C112.31 79.2801 111.77 82.3201 111.32 85.3801C111.2 86.1701 111.07 87.1201 111.39 87.7801C113.15 91.3601 112.21 94.4701 109.47 96.8701C107.34 98.7301 104.85 100.36 102.24 101.44C98.42 103.02 96.01 100.93 97.27 97.1001C98.34 93.8401 100.14 90.7801 101.87 87.7801C103.13 85.6001 105.47 85.7401 108.46 86.2201L108.45 86.2101ZM99.0799 98.6601C102.26 98.5101 104.48 97.4201 106.38 95.7101C107.76 94.4601 107.25 93.2001 106.15 91.9501C105.04 90.6801 103.9 90.5601 102.75 91.7101C100.97 93.4901 99.4999 95.4801 99.0799 98.6701V98.6601Z" fill="black"/>
<path d="M64.78 52.73C64.51 46.97 66.3299 41.55 63.9599 36.45C61.5799 36.46 60.82 38.11 60.17 39.61C58.87 42.59 57.79 45.67 56.56 48.68C55.91 50.28 55.63 52.23 53.27 52.74C52.95 52.18 52.44 51.71 52.41 51.2C52.13 46.86 51.9099 42.52 51.7299 38.18C51.6699 36.68 51.8999 35.29 54.0699 35.02C54.3599 36.89 54.6299 38.61 54.9899 40.9C56.4399 38.23 57.62 36.06 58.8 33.87C59.03 33.44 59.1799 32.97 59.4499 32.58C60.9499 30.38 63.06 29.33 64.92 29.82C66.55 30.25 68.8 33.11 68.76 35.14C68.68 39.46 68.54 43.79 68.18 48.09C68.03 49.83 67.46 51.65 64.78 52.74V52.73Z" fill="black"/>
<path d="M50.16 185.27C51.9 184.7 53.32 183.91 54.79 183.8C60.55 183.36 66.32 183.1 72.09 182.83C80.12 182.45 88.1499 182.04 96.1899 181.79C99.1699 181.7 102.17 181.98 105.15 182.23C105.86 182.29 106.53 182.87 107.38 183.29C105.8 186.17 103.1 185.49 101.11 185.6C92.59 186.07 84.04 186.15 75.5 186.39C70.22 186.54 64.93 186.71 59.65 186.92C58 186.99 56.36 187.3 54.71 187.35C53.2 187.4 51.53 187.66 50.17 185.27H50.16Z" fill="black"/>
<path d="M77.74 159.89C76.14 162.06 74.12 162.59 71.89 162.83C60.51 164.03 49.14 165.36 37.75 166.45C34.23 166.79 30.66 166.5 26.95 166.5C27.03 164.5 28.1799 164.16 29.5699 163.95C35.0599 163.11 40.53 162.11 46.03 161.39C54.39 160.29 62.77 159.35 71.15 158.4C73.36 158.15 75.71 157.59 77.74 159.89Z" fill="black"/>
<path d="M103.08 192.81C101.07 193.43 99.09 194.45 97.05 194.6C90.59 195.07 84.11 195.27 77.63 195.48C72.1 195.66 66.57 195.79 61.03 195.8C58.33 195.8 55.62 195.51 52.92 195.35C52.79 195.07 52.66 194.79 52.54 194.51C53.13 193.99 53.6501 193.12 54.3101 193C57.2601 192.46 60.24 191.97 63.23 191.78C66.47 191.58 69.75 191.89 72.99 191.7C80.33 191.28 87.66 190.66 95 190.21C96.92 190.09 98.87 190.17 100.78 190.37C101.6 190.46 102.35 191.09 103.14 191.48C103.12 191.92 103.1 192.37 103.08 192.81Z" fill="black"/>
<path d="M46.4499 76.54C48.7099 76.7 49.03 77.94 49.03 79.56C49.01 82.59 49.0799 85.61 49.1099 88.64C49.1099 89.37 48.9499 90.18 49.2199 90.8C49.5699 91.58 50.17 92.48 50.89 92.78C51.28 92.94 52.5599 92.11 52.7299 91.51C53.7399 88.06 54.7099 84.58 55.3599 81.05C55.6699 79.4 55.7199 77.96 58.2299 77.6C60.0999 83.81 60.49 89.95 59.28 96.7C58.11 95.95 57.3499 95.46 56.5899 94.98C56.3599 95.04 56.08 95.03 55.92 95.17C51.84 98.6 47.27 97.16 46.16 91.9C45.67 89.57 45.6599 87.11 45.7199 84.71C45.7799 82.08 46.1799 79.45 46.4499 76.54Z" fill="black"/>
<path d="M74.56 45.2701C74.05 48.6201 74.48 49.4401 77.51 50.2201C79.21 50.6601 80.98 50.82 82.78 51.11C82.86 53.3 81.49 54.29 80.14 54.86C76.26 56.49 71.26 53.5101 70.92 49.2901C70.44 43.2001 72.7699 37.9801 76.5899 33.3601C77.6399 32.0901 78.96 31.8801 80.49 32.6101C82.1 33.3801 82.86 34.5701 82.77 36.3401C82.54 40.9501 79.48 44.2701 74.55 45.2601L74.56 45.2701ZM79.02 36.9201C77.3067 37.7134 76.5333 39.0667 76.6999 40.9801C77.7099 39.2201 78.37 38.0701 79.02 36.9201Z" fill="black"/>
<path d="M102.03 178.45C100.45 178.76 98.88 179.31 97.29 179.34C90.3 179.49 83.2999 179.27 76.3199 179.6C70.3099 179.88 64.34 180.75 58.34 181.29C56.73 181.43 55.1 181.31 53.22 181.31C53.75 179 55.48 178.82 56.87 178.64C65.13 177.63 73.3901 176.5 81.6801 175.92C87.3001 175.52 92.97 175.89 98.62 176.06C99.81 176.09 100.97 176.72 102.15 177.08C102.11 177.54 102.07 177.99 102.02 178.45H102.03Z" fill="black"/>
<path d="M46.2901 123.32C62.0501 120.86 77.72 118.34 94.26 118.42C93.13 120.96 91.7101 120.93 90.2801 121.09C82.4001 121.98 74.52 122.93 66.64 123.86C60.67 124.56 54.71 125.28 48.74 125.97C47.28 126.14 45.9901 126.03 46.2901 123.32Z" fill="black"/>
<path d="M38.26 46.78C38.79 42.75 39.13 39.26 39.78 35.82C39.93 35.05 41.07 34.16 41.92 33.94C42.36 33.83 43.48 34.94 43.73 35.69C45.54 41.15 45.07 46.59 43.21 51.94C42.62 53.65 40.85 53.82 39.97 52.1C39.06 50.33 38.72 48.27 38.26 46.77V46.78Z" fill="black"/>
<path d="M53.8199 131.75C57.8599 131.25 61.8801 130.63 65.9301 130.27C73.3801 129.6 80.8501 129.06 88.3101 128.53C89.7501 128.43 91.22 128.56 92.64 128.78C93.07 128.84 93.6701 129.55 93.6801 129.97C93.6801 130.36 93.09 130.93 92.63 131.14C92.11 131.37 91.44 131.31 90.84 131.34C83.11 131.64 75.38 131.88 67.66 132.26C63.69 132.45 59.73 132.92 55.77 133.19C55.08 133.24 54.37 132.93 53.66 132.78C53.71 132.44 53.7699 132.09 53.8199 131.75Z" fill="black"/>
<path d="M70.0501 79.1401C70.6901 81.2301 71.66 82.7101 71.42 83.9701C70.7 87.7701 72.1 91.8001 70.61 95.9001C67.63 94.3701 67.21 92.0201 67.21 89.8701C67.21 86.4601 66.6401 82.7801 70.0501 79.1401Z" fill="black"/>
<path d="M42.08 16.49C42.48 14.85 42.5501 13.7 43.0601 12.8C43.3801 12.23 44.4 11.63 45.01 11.72C46.54 11.94 47.1 13.09 46.9 14.63C46.59 16.99 45.24 18.9799 44.02 18.5099C43.15 18.1799 42.58 17.04 42.08 16.49Z" fill="black"/>
<path d="M73.63 67.25C71.36 64.32 71.5899 63.14 74.5699 61.27C75.4099 63.36 74.91 65.12 73.63 67.25Z" fill="black"/>
</svg>
