<?xml version="1.0" encoding="UTF-8"?>
<!-- Created with Inkscape (http://www.inkscape.org/) -->
<svg width="210mm" height="297mm" version="1.1" viewBox="0 0 210 297" xmlns="http://www.w3.org/2000/svg">
 <g transform="matrix(.48808 0 0 .33921 .76326 3.2693)" stroke-width="0px">
  <rect class="cls-2" x="1.15" width="168.42" height="860" fill="#b57b14"/>
  <rect class="cls-2" x="169.57" y="45.59" width="248.87" height="729.19" fill="#b57b14"/>
  <path class="cls-1" d="m0 860c0.03-19.88 0.05-39.75 0.09-59.63 0.07-33.54 0.22-67.08 0.21-100.62-0.01-30.76-0.28-61.52-0.29-92.29 0-27.04 0.22-54.09 0.27-81.13 0.02-12.32-0.22-24.63-0.16-36.95 0.07-14.42 0.39-28.84 0.49-43.26 0.13-19.17 0.12-38.35 0.2-57.52 0.1-26.78 0.15-53.55 0.37-80.33 0.22-25.95 0.71-51.9 0.94-77.86 0.29-32.44 0.38-64.88 0.68-97.32 0.19-20.66 0.63-41.31 0.93-61.97 0.3-20.61 0.57-41.22 0.84-61.84 0.04-2.97 0-5.93 0-9.08h8.41c1.53 161.08 3.69 322.03 3.7 483.01l0.97 0.02v-9.76c0-3.45 0-6.89 0.03-10.34 0.14-15.06 0.33-30.11 0.42-45.17 0.15-26.74 0.28-53.49 0.34-80.23 0.07-30.77-0.05-61.53 0.08-92.3 0.14-32.53 0.43-65.05 0.72-97.58 0.31-35.51 0.6-71.02 1.09-106.52 0.17-12.58 0.86-25.16 1.5-37.73 0.06-1.2 1.43-2.34 2.19-3.51 0.74 1.12 2.09 2.22 2.14 3.36 0.69 18.27 1.42 36.55 1.72 54.83 0.45 27.44 0.6 54.89 0.82 82.34 0.2 24.71 0.4 49.42 0.47 74.13 0.04 15.76-0.29 31.51-0.24 47.27 0.08 27.83 0.36 55.65 0.5 83.48 0.09 17.81 0.03 35.62 0.13 53.43 0.05 9.08 0.45 18.15 0.47 27.23 0.02 12.11-0.29 24.22-0.26 36.33 0.04 16.53 0.31 33.06 0.41 49.59 0.09 15.76 0.05 31.51 0.15 47.27 0.07 11.72 0.36 23.43 0.4 35.14 0.03 12.47-0.19 24.94-0.18 37.41 0 14.71 0.14 29.42 0.2 44.13 0.05 14.06 0.08 28.13 0.11 42.19 0.04 15.03 0.13 30.06 0.09 45.09-0.08 24.31-0.3 48.61-0.35 72.92-0.02 7.92 0.31 15.85 0.48 23.77z"/>
  <path class="cls-1" d="m162.56 860c0.09-9.28 0.23-18.56 0.27-27.84 0.07-19.87 0.13-39.74 0.12-59.61 0-15.5-0.21-31-0.18-46.5 0.06-25.64 0.29-51.27 0.34-76.91 0.03-16.38-0.2-32.76-0.2-49.14 0-14.82 0.17-29.64 0.23-44.46 0.08-18.8 0.13-37.59 0.19-56.39 0.06-22.28 0.12-44.57 0.17-66.85 0.05-25.19 0.02-50.38 0.15-75.56 0.13-24.73 0.45-49.47 0.63-74.2 0.11-15.52 0.09-31.05 0.2-46.57 0.19-27.42 0.36-54.85 0.7-82.27 0.33-26.75 0.83-53.49 1.28-80.24 0.35-20.53 0.76-41.06 1.12-61.59 0.05-3.05-0.13-6.1 0.06-9.14 0.06-0.9 1.04-1.73 1.6-2.6 0.63 0.91 1.79 1.81 1.82 2.73 0.41 14.96 0.76 29.93 0.94 44.9 0.4 32.71 0.69 65.42 1.02 98.13 0.27 26.71 0.57 53.41 0.79 80.12 0.29 36.62 0.55 73.25 0.75 109.87 0.08 15.06-0.09 30.11 0 45.17 0.07 12.69 0.46 25.38 0.49 38.06 0.03 14.05-0.29 28.11-0.26 42.16 0.03 17.61 0.31 35.23 0.4 52.84 0.13 25.56 0.24 51.13 0.26 76.69 0.02 23.55-0.08 47.1-0.13 70.66-0.03 13.61-0.07 27.23-0.08 40.84-0.01 11.95-0.05 23.89 0.03 35.84 0.07 10.57 0.32 21.13 0.42 31.7 0.02 2.2 1.22 2.66 3.05 2.63 13-0.19 25.99-0.49 38.99-0.49 7.03 0 14.06 0.58 21.09 0.78 3.56 0.1 7.13-0.11 10.69-0.14 9.54-0.08 19.08-0.17 28.62-0.18 12.98-0.02 25.96 0.04 38.94 0.03 5.86 0 11.73-0.19 17.58-0.01 0.97 0.03 2.52 1.38 2.7 2.33 0.36 1.87-0.05 3.89-0.16 6.31-13.66 0-26.93-0.04-40.2 0.01-10.12 0.04-20.24 0.29-30.36 0.31-6.56 0-13.11-0.37-19.67-0.33-8.09 0.04-16.17 0.43-24.26 0.49-7.66 0.06-15.32-0.14-22.98-0.19-6.83-0.05-13.66 0.1-20.48-0.14-3.16-0.11-3.91 1.43-3.89 4.01 0.07 9.58 0.23 19.16 0.23 28.74 0 10.1-0.21 20.21-0.15 30.31 0.03 5.24 0.45 10.47 0.69 15.71h-13.55z"/>
  <path class="cls-1" d="m147.42 860c0.12-13.23 0.26-26.46 0.35-39.68 0.21-32.87 0.39-65.74 0.61-98.61 0.08-12.19 0.33-24.37 0.34-36.56 0.01-15.63-0.16-31.25-0.2-46.88-0.06-23.82-0.13-47.63-0.08-71.45 0.05-23.4 0.3-46.8 0.33-70.2 0.02-17.26-0.22-34.52-0.27-51.78-0.06-18.3-0.09-36.6-0.03-54.9 0.2-54.08 0.43-108.16 0.69-162.24 0.11-23.2 0.37-46.4 0.48-69.6 0.15-29.68 0.09-59.37 0.39-89.05 0.22-21.72 0.87-43.43 1.38-65.15 0.04-1.72-0.47-3.84 2.56-3.92 3.31-0.09 2.74 2.16 2.77 4.05 0.34 24.45 0.71 48.9 0.95 73.34 0.32 32.15 0.58 64.3 0.77 96.44 0.13 21.44 0.07 42.87 0.18 64.31 0.05 10.25 0.36 20.5 0.41 30.75 0.03 7.86-0.23 15.71-0.25 23.57-0.02 8.52 0.08 17.05 0.13 25.57 0.08 16.24 0.19 32.48 0.23 48.72 0.05 18.26 0.06 36.52 0.03 54.78-0.03 20.54-0.19 41.08-0.17 61.61 0.01 18.8 0.24 37.59 0.27 56.39 0.04 30.49-0.03 60.99 0 91.48 0.01 25.72 0.1 51.43 0.12 77.15 0.02 24.55-0.08 49.11 0 73.66 0.05 15.91 0.32 31.83 0.49 47.74 0.1 10.14 0.19 20.29 0.28 30.43h-12.75z"/>
  <path class="cls-1" d="m422.29 685.16c0.04 13.51-0.11 27.03-0.27 40.54-0.21 17.01-0.49 34.02-0.77 51.03-0.02 1.44 0.04 3.07-0.61 4.24-0.48 0.87-2.69 1.88-3.04 1.58-4.06-3.53-8.59-1.55-12.99-1.49-5.76 0.09-11.53-0.22-17.29-0.24-7.27-0.02-14.54 0.09-21.81 0.11-6.72 0.02-13.44 0-20.5 0v-8.44c22.67 1.09 45.27-1.4 68.37 1.39-0.05-1.12-0.12-2.47-0.17-3.82-0.63-15.97-1.35-31.93-1.85-47.9-0.4-12.81-0.55-25.63-0.74-38.44-0.03-2.28-1.1-3.01-3.19-3.01-14.34 0.02-28.69-0.01-43.03 0-5.28 0-10.55 0.2-15.82 0.03-1.24-0.04-2.44-1.2-3.66-1.84 1.11-0.52 2.22-1.49 3.34-1.51 16.02-0.23 32.05-0.33 48.07-0.47 3.7-0.03 7.42-0.37 11.1-0.12 2.89 0.19 3.28-1 3.26-3.46-0.13-17.9-0.2-35.8-0.19-53.7 0.01-37.38 0.1-74.75 0.12-112.13 0-18.56-0.25-37.12 0.03-55.67 0.07-4.34-1.67-5.75-5.28-5.84-6.11-0.15-12.22-0.04-18.41-0.04v38.47c0 15.9 0.03 31.8-0.09 47.7 0 1.24-1.07 2.48-1.64 3.71-1.1-1.31-3.14-2.6-3.16-3.92-0.19-12.98-0.02-25.96 0.01-38.95 0.02-10.86 0-21.72 0-32.58 0-2.92-0.14-5.84-0.07-8.75 0.17-6.27-0.14-6.54-6.74-4.86v8.79c-9.81 0-19.28 0.18-28.73-0.08-4.31-0.12-2.28-3.34-2.26-5.9h28.45c1.2-2.62-0.38-3.35-2.75-3.39-7.28-0.14-14.56-0.32-21.84-0.31-3.16 0-4.49-0.99-4.33-4.41 0.14-3.1 0.81-4.55 4.3-4.41 7.16 0.3 14.33 0.12 21.5 0.33 1.32 0.04 3.13 0.6 3.81 1.56 2.24 3.15 5.04 2.78 8.4 2.07 0.21-3.47 0.56-6.87 0.6-10.28 0.19-17.72 0.22-35.44 0.5-53.16 0.04-2.85-1.1-3.38-3.48-3.35-5.4 0.07-10.8 0.02-16.2 0.02v-1.31h23.3v68.48c7.11 0 13.16-0.11 19.2 0.04 3.7 0.09 4.76-1.57 4.73-5.08-0.14-16.69-0.1-33.37-0.09-50.06 0.01-24.75 0.07-49.5 0.07-74.25 0-29.51-0.04-59.03-0.11-88.54-0.03-14-0.24-28-0.21-42 0.05-23.89 0.3-47.78 0.33-71.67 0.01-10.84-0.26-21.69-0.51-32.53-0.07-3.26 0.79-5.44 5.4-5.24 0-7.03 0.12-13.88-0.16-20.71-0.03-0.82-2.17-2.14-3.39-2.22-5.39-0.32-10.81-0.37-16.22-0.35-14.18 0.05-28.36 0.19-42.54 0.28-2.49 0.02-5 0.17-7.46-0.11-4.43-0.52-1.67-3.74-2.46-6.47 5.65-0.26 10.87-0.7 16.09-0.71 8.68-0.01 17.35 0.28 26.03 0.38 3.66 0.05 7.31 0 10.97-0.09 4.72-0.12 9.43-0.4 14.15-0.46 4.84-0.06 9.01 4.6 9.21 10.59 0.27 8.34 0.3 16.68 0.38 25.03 0.22 24.85 0.45 49.7 0.6 74.55 0.1 16.94 0.01 33.88 0.14 50.82 0.22 28.84 0.54 57.67 0.82 86.51 0.17 18.07 0.42 36.13 0.48 54.2 0.07 17.92-0.09 35.84-0.07 53.76 0.02 13.91 0.2 27.82 0.22 41.73l0.17 246.32z"/>
  <path class="cls-1" d="m337.75 42.31c1.07 1.44 2.19 2.95 3.84 5.18-1.12 0.43-2.73 1.58-4.34 1.58-18.68-0.03-37.36-0.31-56.04-0.37-11.07-0.04-22.15 0.31-33.23 0.25-13.59-0.07-27.17-0.4-40.76-0.55-7.69-0.09-15.37 0.04-23.06-0.08-2.62-0.04-5.26-0.45-7.85-0.92-0.72-0.13-1.29-1.08-1.93-1.65 0.57-0.62 1.08-1.7 1.74-1.79 3.63-0.53 7.3-1.07 10.96-1.14 13.02-0.25 26.05-0.34 39.08-0.44 16.11-0.12 32.23-0.25 48.34-0.26 17.34 0 34.67 0.13 52.01 0.2 3.82 0.02 7.64 0 11.24 0z"/>
  <path class="cls-1" d="m357.35 459.91c0.79 1.82 2.22 3.63 2.27 5.48 0.39 14.5 0.51 29 0.72 43.51 0.04 2.9 0.09 5.81 0.22 8.71 0.13 2.94 2.17 2.12 4.03 2.14 3.79 0.06 7.63 0.16 11.35 0.82 1.24 0.22 2.16 2.21 3.22 3.39-1.2 0.58-2.38 1.59-3.62 1.66-3.56 0.19-7.14-0.08-10.71 0-2.2 0.05-4.56-0.12-4.69 3.34-0.05 1.32-1.33 2.6-2.05 3.9-1.35-1.27-3.65-2.41-3.85-3.85-0.6-4.16-0.48-8.45-0.42-12.68 0.23-16.41 0.5-32.83 0.86-49.24 0.05-2.28 0.68-4.55 1.04-6.82 0.54-0.11 1.09-0.23 1.63-0.34z"/>
  <path class="cls-1" d="m362.13 398.24c0 9.31 0.13 18.62-0.1 27.93-0.05 2.05 0.56 5.24-3 5.56-1.89 0.17-5.82-4.44-5.83-6.71-0.03-6.48-0.06-12.96 0.06-19.44 0.15-7.74 0.29-15.49 0.82-23.22 0.13-1.88 1.31-4.36 2.8-5.3 1.55-0.98 4.56 2.9 4.58 5.71 0.03 5.15 0 10.3 0 15.46h0.67z"/>
  <path class="cls-1" d="m299.15 444.48c0.17-1.94-0.03-3.72 0.59-5.15 0.42-0.96 1.97-1.95 3.06-2 5.54-0.25 11.1-0.22 16.66-0.25 5.03-0.03 10.07 0.03 15.1-0.06 3.75-0.06 2.76 3 3.09 4.87 0.36 1.98-0.13 4.24-2.88 4.17-11.62-0.31-23.24-0.74-34.86-1.15-0.22 0-0.44-0.24-0.76-0.43z"/>
  <path class="cls-1" d="m292.58 444.84c0.32 2.06 0.63 4.12 0.96 6.28 13.1-0.37 26.04-0.78 38.99-1.07 2-0.05 4.93-1.13 4.74 2.77-0.18 3.56-2.77 2.34-4.71 2.3-11.07-0.23-22.15-0.46-33.22-0.77-2.44-0.07-4.89-0.43-7.3-0.83-0.45-0.08-1.06-0.98-1.09-1.52-0.12-2.35-0.05-4.72-0.05-7.08 0.56-0.02 1.12-0.05 1.68-0.07z"/>
 </g>
</svg>
