<svg width="84" height="156" viewBox="0 0 84 156" fill="none" xmlns="http://www.w3.org/2000/svg">
<path d="M83.4005 44.4902C83.3805 41.5602 83.3405 38.6302 83.3005 35.6602C83.2305 30.4402 83.1505 25.0502 83.2205 19.7702L83.2405 18.2402C83.3205 13.2902 83.4105 8.18017 81.7305 2.87017L81.2605 1.37017L79.7004 1.15017C70.1704 -0.199827 60.5605 -0.00982307 51.2705 0.170177C48.2705 0.230177 45.1705 0.290172 42.1305 0.290172C33.4205 0.310172 24.5705 0.640176 16.0005 0.950176L15.3905 0.97018C11.7605 1.10018 8.11049 1.24018 4.44049 1.35018L2.59051 1.41018L2.10046 3.19018C1.95046 3.75018 1.7605 4.28017 1.5805 4.80017C1.1305 6.10017 0.67047 7.45019 0.67047 8.95019C0.69047 21.2602 0.670511 33.5702 0.650511 45.8902C0.600511 80.8702 0.540487 117.04 1.50049 152.77L1.5805 155.88L4.60046 155.13C5.29046 154.96 5.89047 154.78 6.42047 154.61C7.02047 154.43 7.6305 154.26 8.0805 154.23C11.5605 154.29 15.1005 154.4 18.5305 154.5H18.8005C22.1805 154.61 26.0004 154.73 29.7004 154.79C35.4004 154.89 41.1005 154.97 46.8005 155.04C55.8905 155.16 65.2905 155.29 74.6205 155.51H74.8905C79.1305 155.51 80.7505 152.95 81.3605 150.79C81.8605 149.03 82.1504 147.1 82.2004 145.21C82.3204 140.42 82.3805 135.61 82.4305 130.97L82.9305 93.0702C82.9305 92.3902 82.9505 91.7202 82.9705 91.0402C82.9905 90.0202 83.0105 89.0102 83.0205 87.9902C83.0205 85.9302 83.0305 83.8702 83.0305 81.8102V81.1702C83.0305 77.6902 83.0404 74.2002 83.0704 70.7202C83.0904 68.3602 83.1404 65.9902 83.1904 63.6302V63.5002C83.2304 61.4702 83.2705 59.4302 83.3005 57.4002C83.3505 53.2702 83.3905 48.8602 83.3705 44.4602L83.4005 44.4902Z" fill="white"/>
<path d="M78.0905 7.19024C77.0405 13.2502 77.8505 19.1402 77.4605 24.9902C77.2105 28.6602 77.6205 32.3002 77.5305 35.9502C77.4505 39.7002 77.5905 43.4602 77.4805 47.2102C77.4205 49.3402 77.0405 51.4702 76.8405 53.6002C76.7905 54.1902 76.8606 54.8003 76.9306 55.3903C77.1006 56.8003 77.4805 58.2102 77.4805 59.6202C77.5205 74.8802 77.4505 90.1402 77.5405 105.41C77.5705 110.57 78.0405 115.72 78.2205 120.88C78.3205 123.83 78.5006 126.81 78.1806 129.72C77.5306 135.68 78.7905 141.62 78.0805 147.77C77.6105 147.87 77.0605 148.09 76.5105 148.1C60.8105 148.36 45.1105 148.62 29.4005 148.84C24.8005 148.9 20.1905 148.79 15.5905 148.87C12.6205 148.92 9.65051 149.18 6.25051 149.37C6.41051 145.5 5.73051 141.6 6.69051 137.68C6.92051 136.76 6.9305 135.78 6.9305 134.82C6.9505 128.64 6.91053 122.46 6.96053 116.29C6.98053 114.3 7.29048 112.32 7.29048 110.34C7.29048 108.31 6.76051 106.24 7.00051 104.25C7.53051 99.8102 6.79053 95.4102 6.96053 90.9902C7.10053 87.2802 7.53051 83.5902 7.63051 79.8802C7.70051 77.4202 7.70053 74.8902 7.21053 72.4902C6.57053 69.3402 7.88048 66.3302 7.54048 63.3702C7.05048 59.0602 7.95053 54.8402 7.65053 50.5902C7.47053 48.0902 7.13049 45.6102 6.98049 43.1102C6.87049 41.2602 6.86048 39.3902 6.97048 37.5402C7.09048 35.4002 7.92051 33.1502 7.50051 31.1502C6.64051 27.0402 8.9705 22.9002 7.0605 18.8702C6.8605 18.4402 7.28053 17.7502 7.34053 17.1702C7.46053 15.9802 7.99048 14.5702 7.54048 13.6502C6.42048 11.4002 7.23049 9.47022 8.05049 7.05022H19.7805C23.6605 7.05022 27.5405 6.96022 31.4105 7.08022C35.3605 7.20022 39.3205 7.43023 43.2505 7.81023C47.1605 8.19023 51.0004 7.23023 54.9404 7.68023C58.7704 8.12023 62.7106 8.04023 66.5506 7.68023C70.3706 7.31023 74.1505 6.92025 78.0805 7.20025L78.0905 7.19024Z" fill="#80B6E0"/>
<path d="M4.03044 152.71C2.74044 104.64 3.29042 56.7903 3.20042 8.95031C3.20042 7.33031 4.03039 5.72031 4.54039 3.85031C17.2004 3.47031 29.6704 2.8103 42.1404 2.7803C54.5504 2.7503 67.0204 1.8703 79.3504 3.6203C81.0604 9.0603 80.7904 14.3803 80.7204 19.7303C80.6204 27.9903 80.8504 36.2503 80.9104 44.5003C80.9404 48.8003 80.8904 53.1003 80.8404 57.4003C80.7904 61.8403 80.6504 66.2803 80.6204 70.7303C80.5704 76.4903 80.5904 82.2503 80.5704 88.0103C80.5704 89.6903 80.5104 91.3803 80.4904 93.0603C80.3404 104.09 80.2005 115.12 80.0505 126.15C79.9705 132.49 79.9204 138.83 79.7604 145.17C79.7204 146.83 79.4704 148.53 79.0204 150.13C78.4404 152.17 77.1804 153.09 74.7504 153.03C59.7704 152.68 44.7805 152.57 29.8005 152.31C22.5705 152.18 15.3504 151.87 8.1204 151.74C7.0104 151.72 5.9004 152.25 4.0504 152.72L4.03044 152.71ZM7.88041 7.9003C7.88041 11.5903 7.85041 15.3403 7.88041 19.1003C7.95041 28.0503 8.1104 37.0003 8.1204 45.9503C8.1204 50.2703 7.73042 54.5803 7.76042 58.9003C7.81042 66.2103 8.1504 73.5203 8.1804 80.8303C8.2104 87.7903 7.97042 94.7403 7.89042 101.7C7.81042 109.16 7.86043 116.61 7.71043 124.07C7.60043 129.37 7.21044 134.65 7.03044 139.95C6.93044 142.9 7.01042 145.86 7.01042 148.49C30.6404 148.15 53.9304 147.82 77.4004 147.49C77.1204 100.7 76.8504 54.3003 76.5804 7.93029H7.88041V7.9003Z" fill="black"/>
<path d="M56.8904 35.9202C54.5904 30.4302 55.4804 25.0302 54.3904 19.7702C52.6004 20.3902 51.0704 20.9202 49.2604 21.5502C49.1404 25.5202 49.2004 29.5402 50.8004 33.3902C50.9804 33.8302 51.4204 34.4102 51.2804 34.7002C50.7804 35.7202 50.0903 36.6502 49.4703 37.6102C48.7203 36.9902 47.8704 36.4602 47.2504 35.7202C46.9204 35.3302 47.0004 34.6002 46.7804 33.3902C46.0604 35.0202 45.7303 36.1702 45.0903 37.1102C44.4603 38.0402 43.4304 39.4802 42.7304 39.4002C41.6804 39.2702 40.4504 38.1902 39.8804 37.1902C39.0704 35.7702 38.4404 34.0602 38.3704 32.4502C38.2604 29.4602 38.3104 26.4002 38.8504 23.4702C39.5104 19.8102 40.7903 19.5702 43.5703 22.1102C43.8103 22.3302 44.0904 22.5102 44.7604 23.0202C44.8304 18.3202 44.8104 13.9502 46.3104 9.86021C48.7004 9.72021 48.3603 11.2602 48.4503 12.5502C48.5203 13.7202 48.6504 14.8902 48.7604 16.0902C50.6904 16.3802 52.3203 16.6202 53.9503 16.8702C54.6803 15.1502 53.3604 12.8402 55.9104 11.3902C56.2504 12.7202 56.5504 13.8902 56.9004 15.2702C58.4904 15.2002 60.1203 15.1302 61.7103 15.0602C62.1703 16.7802 60.7438 18.3202 57.4304 19.6802C57.6404 22.3202 58.1004 25.0502 58.0004 27.7702C57.9004 30.2402 60.0504 32.9202 56.8904 35.9302V35.9202ZM41.0304 31.7502C41.4904 32.9802 41.9304 34.1402 42.3604 35.3102C42.6004 35.2602 42.8303 35.2102 43.0703 35.1602C43.4003 33.5502 43.7404 31.9502 44.1404 30.0102C42.8504 30.7302 42.0504 31.1802 41.0304 31.7502Z" fill="black"/>
<path d="M14.6505 16.2702C14.8305 17.7502 15.0105 19.2303 15.2805 21.3803C17.0005 19.8803 18.2904 18.7603 19.8304 17.4103C18.0904 16.1103 16.6504 15.0403 15.2204 13.9703C18.4204 12.7903 19.8605 15.2202 21.8005 16.0802C22.5605 19.5002 19.3705 20.5102 18.2705 23.0302C20.3205 25.7202 22.4605 28.5202 24.7405 31.4902C25.9005 28.0902 23.3204 24.8102 25.5704 21.4002C27.6204 24.0902 27.4105 27.1903 28.3605 29.8803C29.7305 33.7703 26.4304 34.7103 24.1904 37.0403C21.5504 33.7503 18.9905 30.5502 16.4205 27.3402C16.2005 27.4102 15.9805 27.4902 15.7605 27.5602C16.0205 30.9102 16.2705 34.2602 16.5305 37.6202C16.2605 37.7002 15.9804 37.7803 15.7104 37.8503C15.3804 37.2303 14.8105 36.6203 14.7505 35.9803C14.5705 33.7103 14.5805 31.4203 14.4905 29.1303C14.4405 27.8503 14.6005 26.5302 12.7805 26.0802C12.3705 25.9802 11.9105 24.6203 12.0605 23.9703C12.6605 21.4003 13.4804 18.8903 14.2304 16.3503C14.3704 16.3203 14.5105 16.2802 14.6505 16.2502V16.2702Z" fill="black"/>
<path d="M58.7103 96.7502C57.6903 98.2202 56.3803 98.7702 54.4703 98.8202C44.9703 99.0802 35.4804 99.5402 25.9904 99.9002C24.0904 99.9702 22.1704 99.9102 20.2704 99.9102C20.1304 99.6702 19.9803 99.4302 19.8403 99.2002C20.4903 98.6102 21.0804 97.5902 21.8004 97.4802C28.4604 96.5402 35.1303 95.6602 41.8203 94.9502C45.7703 94.5302 49.7603 94.3702 53.7303 94.2302C56.9003 94.1202 57.3403 94.4202 58.7003 96.7502H58.7103Z" fill="black"/>
<path d="M63.8405 85.8702C62.7205 86.2802 61.6205 87.0002 60.4905 87.0602C53.2805 87.4602 46.0705 87.6702 38.8605 88.0202C33.4605 88.2802 28.0705 88.6902 22.6805 88.9802C20.9505 89.0702 19.2004 88.9902 17.4604 88.9902C17.3904 88.6802 17.3105 88.3702 17.2405 88.0602C18.2305 87.7202 19.2004 87.1802 20.2104 87.0802C31.8704 86.0102 43.5304 84.9902 55.2004 83.9902C58.0204 83.7502 60.9105 83.1202 63.5205 84.7802C63.6305 85.1402 63.7305 85.5002 63.8405 85.8602V85.8702Z" fill="black"/>
<path d="M64.6204 29.8303C64.7504 33.5503 65.5704 34.8404 69.4004 37.3204C68.5304 38.6204 68.4404 40.7004 66.2404 40.6304C64.0504 40.5504 62.7504 39.1103 62.1604 37.0803C60.8604 32.6403 60.3603 28.1404 61.8503 23.6604C62.7803 20.8704 64.3004 19.9604 66.6304 20.3804C68.9804 20.8104 70.1604 22.1804 70.2504 24.5904C70.3504 27.4004 69.2004 29.1004 66.6804 29.7004C66.0204 29.8604 65.3003 29.7904 64.6103 29.8204L64.6204 29.8303Z" fill="black"/>
<path d="M18.2805 48.7604C19.2505 48.4904 20.2204 47.9904 21.1904 47.9904C33.3104 48.0104 45.4204 47.1604 57.7104 47.2104C57.8404 50.1404 56.7705 51.0804 54.5305 51.0204C47.2905 50.8304 40.0505 50.7104 32.8105 50.4904C28.0105 50.3504 23.2205 50.0804 18.4205 49.8704C18.3705 49.5004 18.3305 49.1204 18.2805 48.7504V48.7604Z" fill="black"/>
<path d="M36.7505 26.9003C35.6705 25.9503 34.9306 25.3003 33.8106 24.3103V32.3303C35.0806 31.6703 36.0406 31.1703 37.0406 30.6603C38.3906 32.9903 36.9606 34.4803 35.5406 35.7003C34.4506 36.6403 32.9906 36.6203 32.1506 35.1303C31.6306 34.2103 31.0506 33.1603 31.0206 32.1503C30.9406 29.5103 31.0206 26.8403 31.2706 24.2103C31.4206 22.7103 31.7406 20.5403 33.7906 21.0303C35.1106 21.3503 36.2106 23.0203 37.1406 24.2903C37.4606 24.7303 36.9405 25.7703 36.7405 26.9003H36.7505Z" fill="black"/>
<path d="M18.5704 69.2804C19.8004 66.7204 21.6504 65.9104 23.9504 65.7604C26.3304 65.6004 28.7105 65.3604 31.0905 65.1604C32.7005 65.0304 34.2805 65.5804 34.3505 67.1804C34.3905 68.0704 33.0605 69.4804 32.0505 69.8304C30.5305 70.3704 28.7305 70.4804 27.1005 70.2704C24.3205 69.9204 21.3405 71.2204 18.5605 69.2704L18.5704 69.2804Z" fill="black"/>
<path d="M19.8105 116.75C24.9305 112.9 39.3205 112.26 43.5905 115.51C39.5605 117.55 35.4805 116.36 31.6405 116.68C27.7205 117 23.7505 116.75 19.8105 116.75Z" fill="black"/>
<path d="M52.6204 72.8204C53.2104 72.1104 53.4704 71.5004 53.7904 71.4604C57.4204 71.0404 61.0603 70.6604 64.7003 70.3904C65.1203 70.3604 65.9603 71.0204 65.9603 71.3704C65.9603 71.9504 65.5604 72.6404 65.1304 73.0804C64.6504 73.5804 63.9003 74.2304 63.3303 74.1704C59.8903 73.8004 56.3204 74.1504 52.6104 72.8204H52.6204Z" fill="black"/>
<path d="M35.3405 126.01C33.8405 127.59 32.6104 128.35 30.7004 127.16C31.6904 124.86 33.3505 125.72 35.3405 126.01Z" fill="black"/>
<path d="M27.6606 13.7502C25.4906 11.5402 26.0105 10.4103 28.2105 9.51025C28.0605 10.6603 27.9106 11.8102 27.6606 13.7502Z" fill="black"/>
</svg>
