<svg width="37" height="93" viewBox="0 0 37 93" fill="none" xmlns="http://www.w3.org/2000/svg">
<path d="M36.2499 18.8196C35.8799 17.5796 34.7499 15.9896 31.4699 15.4196C29.6999 15.1096 27.94 14.9195 26.1 14.7195C27.14 10.9095 27.3599 7.32959 26.7799 3.81959L26.55 2.44959L25.2699 1.91956C21.9399 0.529561 18.4699 0.419553 14.9599 1.59955C13.3899 2.11955 9.97996 4.18958 10.05 6.93958C10.06 7.55958 10.0299 8.22958 9.99991 8.93958C9.91991 10.6496 9.8198 12.6496 10.3898 14.6996C9.5998 14.6996 8.80993 14.6996 8.01993 14.7296C6.24993 14.7796 4.67 15.4895 3.59 16.7195C2.49 17.9695 1.98983 19.6496 2.16983 21.4596C2.23983 22.1796 2.1199 23.0696 1.9899 23.8496C1.8899 24.4596 1.74 25.1096 1.59 25.7496C1.3 26.9896 0.96986 28.3896 0.94986 29.8696C0.86986 37.2396 0.870026 44.6996 0.870026 51.9196C0.870026 55.1996 0.870016 58.4696 0.860016 61.7496C0.860016 63.9696 0.829967 66.1996 0.809967 68.4396C0.769967 72.6696 0.729957 77.0396 0.799957 81.3496C0.879957 86.5396 4.52983 90.5096 9.66983 91.0096C13.0098 91.3296 16.4499 91.5996 19.4699 91.8396L21.9098 92.0296C22.5698 92.0796 23.1599 92.1096 23.7099 92.1096C27.9499 92.1096 30.2099 90.4996 32.0399 86.1796C32.7799 84.4396 33.23 82.3896 33.31 80.4096C33.46 76.8296 33.4498 73.2096 33.4398 69.7196V63.1096C33.4398 51.8696 33.44 40.2496 33.37 28.8096C33.37 28.5096 33.37 28.2196 33.36 27.9296C33.32 25.7996 33.3499 24.8196 34.4899 23.7396C36.6699 21.6896 36.5199 19.7896 36.2299 18.8396L36.2499 18.8196Z" fill="white"/>
<path d="M13.61 82.5891C13.01 82.3391 12.43 81.909 11.82 81.879C9.89995 81.789 7.98 81.849 6.12 81.849C3.55 76.449 5.73995 70.879 4.81995 65.329C5.56995 65.249 6.15986 65.089 6.71986 65.149C10.4699 65.529 14.0999 64.759 17.5599 63.569C19.3299 62.969 20.7299 61.309 22.2999 60.139C24.0699 59.119 26.3199 55.779 26.7599 53.499C29.7099 53.959 29.68 53.949 29.07 56.679C28.87 57.599 28.86 58.569 28.86 59.509C28.84 63.469 28.95 67.429 28.82 71.379C28.7 74.919 28.3399 78.459 28.0399 81.989C27.9999 82.419 27.6699 82.829 27.4799 83.249C26.2099 83.249 24.9498 83.249 23.6798 83.249C23.1098 83.019 22.5499 82.6091 21.9699 82.5891C19.1599 82.5091 16.3399 82.5391 13.5299 82.5291L13.62 82.579L13.61 82.5891Z" fill="#80B7E1"/>
<path d="M7.00006 42.7091C6.52006 42.3091 5.63995 41.9291 5.63995 41.5191C5.53995 36.9291 5.40995 32.3291 5.63995 27.7491C5.79995 24.4591 7.49004 23.1491 10.98 22.9891C12.45 22.9191 13.94 22.9391 15.39 23.1291C19.97 23.7091 24.5301 22.3591 29.3401 23.1891V49.6291C28.4401 48.9491 27.67 48.6591 27.45 48.1391C26.39 45.6391 25.5599 42.9791 23.3899 41.1791C20.7099 38.9591 17.6601 38.2591 14.3001 39.5891C11.8701 40.6291 9.44007 41.6691 7.01007 42.6991L7.00006 42.7091Z" fill="#80B7E1"/>
<path d="M6.99997 42.7092C9.42997 41.6692 11.86 40.6291 14.29 39.5991C16.26 39.8791 18.2899 39.9592 20.1899 40.5092C22.5799 41.1992 24.36 42.9391 25.06 45.2891C25.86 47.9591 26.21 50.7592 26.75 53.5092C26.31 55.7792 24.07 59.1192 22.29 60.1492C20.05 60.7592 17.83 61.4592 15.56 61.9492C12.73 62.5592 9.96992 62.6291 7.44992 60.7291C5.08992 58.9491 4.84986 57.1092 6.87986 54.7592C7.18986 54.3992 7.44995 54.0092 7.72995 53.6292C8.21995 53.3292 8.70992 53.0191 9.19992 52.7191C9.91992 51.8091 10.6401 50.8991 11.3601 49.9991C13.7701 48.6591 16.5801 47.7091 17.3601 44.2391C13.9901 43.7791 11.28 44.9691 8.48996 45.5991C5.92996 45.2791 5.86998 45.1591 7.00998 42.7291L6.99997 42.7092ZM11.6001 58.7991C12.4101 58.9391 13.2199 59.3192 13.8999 59.1492C15.4899 58.7592 17.01 58.0991 18.57 57.5591C21.27 56.6191 22.1199 54.1791 22.9199 51.8491C23.1499 51.1891 22.59 49.8292 21.99 49.4492C21.36 49.0592 20.1601 49.2991 19.3501 49.6191C18.7701 49.8491 18.4199 50.6592 17.9499 51.1992C16.9299 52.3692 16.0801 54.2092 14.8301 54.5292C12.6701 55.0892 11.9801 56.3591 11.6001 58.7891V58.7991Z" fill="#D93933"/>
<path d="M23.6699 83.2593C24.9399 83.2593 26.2 83.2593 27.47 83.2593C27.75 84.3193 28.0301 85.3793 28.3101 86.4293C24.1101 88.3993 19.99 87.5292 15.98 87.5992C13.99 87.6392 11.98 87.1893 9.98999 86.9193C7.92999 86.6393 6.7999 85.3193 6.3999 82.5793H13.6101L13.52 82.5293C14.12 82.7793 14.7101 83.2393 15.3101 83.2493C18.1001 83.3193 20.8799 83.2493 23.6699 83.2493V83.2593Z" fill="#9FD1CF"/>
<path d="M32.3501 18.8091C32.7001 20.9191 31.7199 21.5291 29.9099 21.5191C21.9399 21.4891 13.96 21.5091 5.72998 21.5091C5.66998 20.5791 5.63007 19.7991 5.57007 18.8091H32.3501Z" fill="#9FD1CF"/>
<path d="M17.1201 14.2993H14.05C13.05 12.8193 14.11 12.4393 14.74 11.6193C15.12 11.1193 14.4001 9.77926 14.1101 8.54926C15.5201 8.46926 16.5601 8.39929 17.6001 8.33929C16.1501 7.67929 15.07 6.93924 16 4.96924H22.8301V14.1493C22.1401 14.2093 21.5299 14.2493 20.9299 14.2993C19.6599 14.2993 18.3899 14.2993 17.1299 14.2993H17.1201Z" fill="white"/>
<path d="M8.48002 45.5692C11.27 44.9392 13.9801 43.7492 17.3501 44.2092C16.5701 47.6792 13.7601 48.6291 11.3501 49.9691C10.6401 49.1491 9.93995 48.3291 9.15995 47.4191C7.48995 49.4491 9.67998 51.0091 9.18998 52.6891C8.69998 52.9891 8.21001 53.2991 7.72001 53.5991C5.14001 53.4291 5.60008 51.5191 5.55008 49.8591C5.50008 48.2891 5.62002 46.9191 7.73002 46.8691C7.99002 46.8691 8.23001 46.0191 8.47001 45.5591L8.48002 45.5692Z" fill="white"/>
<path d="M17.1201 14.2993C18.3901 14.2993 19.6599 14.2993 20.9199 14.2993C20.8699 15.3493 20.81 16.4093 20.75 17.6593H16.45C16.69 16.4493 16.9001 15.3693 17.1101 14.2993H17.1201Z" fill="#9FD1CF"/>
<path d="M11.6001 58.7993C11.9801 56.3793 12.6701 55.1093 14.8301 54.5393C16.0701 54.2093 16.93 52.3693 17.95 51.2093C18.42 50.6693 18.7701 49.8593 19.3501 49.6293C20.1601 49.3093 21.36 49.0693 21.99 49.4593C22.6 49.8293 23.1499 51.1993 22.9199 51.8593C22.1199 54.1893 21.2701 56.6193 18.5701 57.5693C17.0201 58.1093 15.4899 58.7693 13.8999 59.1593C13.2199 59.3293 12.4001 58.9493 11.6001 58.8093V58.7993Z" fill="white"/>
<path d="M14.5601 17.2094C11.6001 13.8594 12.6401 10.1593 12.5601 6.87934C12.5401 5.89934 14.46 4.39931 15.76 3.96931C18.52 3.04931 21.4401 3.02932 24.3101 4.22932C25.0301 8.58932 24.31 12.7393 22.78 16.8593C25.82 17.2293 28.45 17.4393 31.04 17.8793C33.99 18.3893 34.83 19.9794 32.79 21.8994C30.53 24.0294 30.8699 26.2893 30.8899 28.8093C30.9599 41.7393 30.95 54.6793 30.95 67.6093C30.95 71.8393 30.9901 76.0693 30.8201 80.2893C30.7501 81.9393 30.39 83.6693 29.75 85.1793C28.1 89.0693 26.5201 89.8694 22.1201 89.5194C18.0501 89.1994 13.9799 88.8893 9.91992 88.4993C6.13992 88.1393 3.37006 85.2593 3.31006 81.2893C3.21006 74.7693 3.35012 68.2493 3.37012 61.7393C3.40012 51.1193 3.34996 40.4994 3.45996 29.8894C3.47996 28.0094 4.16997 26.1393 4.46997 24.2493C4.62997 23.2493 4.76992 22.2093 4.66992 21.2193C4.44992 19.0093 5.80011 17.2993 8.11011 17.2293C10.2601 17.1593 12.4101 17.2193 14.5601 17.2193V17.2094ZM9.31006 47.0294C10.2801 47.5894 11.2501 48.1594 12.3001 48.7694C13.5901 47.6594 14.8899 46.5293 16.1899 45.4093C13.5699 45.2493 10.9799 44.5893 9.38989 47.1093C6.3099 47.6793 5.73001 49.2094 7.51001 53.0794C7.91001 52.3294 8.31009 51.4393 8.09009 50.7493C7.56009 49.1193 8.04006 47.9794 9.31006 47.0294ZM5.81006 65.9893C6.47006 71.0893 4.44995 76.1193 6.69995 81.0093C13.43 81.5093 20.09 82.0094 26.98 82.5194C28.59 73.1294 27.87 63.8993 28.02 54.5593C23.6 64.2793 15.1001 65.7893 5.81006 65.9893ZM6.67993 42.0693C11.0399 39.1993 15.09 37.7693 19.79 38.5393C25.05 39.3993 26.62 43.6093 28.74 47.6093V23.8593C22.46 23.8593 16.36 23.8094 10.26 23.8894C8.16001 23.9194 6.78998 25.2693 6.72998 27.3193C6.58998 32.0693 6.67993 36.8293 6.67993 42.0693ZM6.51001 44.8793C11 45.0093 14.52 41.1693 18.45 43.9793C17.78 46.4593 17.76 46.4394 16.04 47.8994C13.38 50.1594 10.7001 52.3893 8.12012 54.7393C5.57012 57.0593 5.82011 58.3893 8.61011 60.3493C10.2501 61.4993 11.92 61.8193 13.75 61.4393C15.75 61.0193 17.71 60.4193 19.7 59.9393C22.42 59.2893 23.9399 57.3893 25.1499 55.0393C26.7299 51.9693 25.4 49.1193 24.52 46.2993C23.6 43.3493 21.6001 41.4793 18.3701 40.8793C13.9701 40.0593 10.36 41.3894 6.5 44.8894L6.51001 44.8793ZM27.3301 85.1893C20.7501 83.4693 14.0699 83.7193 7.37989 83.4293C8.58989 85.4893 9.77998 87.0893 12.48 86.4793C13.68 86.2093 15.0601 86.7394 16.3601 86.8294C20.1001 87.1094 23.8801 87.7393 27.3301 85.1793V85.1893ZM14.8201 13.2993H22.3301V5.40931C19.8001 5.57931 17.62 5.71931 14.73 5.90931C16.77 6.90931 18.0699 7.53932 20.1499 8.54932C18.0899 10.3893 16.5801 11.7293 14.8201 13.2993ZM6.56006 20.6394C14.5601 20.6394 22.5601 20.6393 30.5601 20.6193C31.0001 20.6193 31.4399 20.3094 31.8899 20.1494C25.3399 18.8394 8.41007 19.1394 6.57007 20.6394H6.56006ZM16.71 15.8593C18.03 16.7293 18.45 17.2193 18.79 17.1793C19.2 17.1193 19.5499 16.6093 19.9299 16.2893C19.5299 15.8593 19.2 15.2093 18.72 15.0693C18.31 14.9493 17.74 15.4293 16.71 15.8593Z" fill="black"/>
<path d="M22.5801 47.2993C24.7101 50.6693 24.0501 53.8193 20.5701 56.9993C16.9801 60.2793 12.6699 60.8493 9.65991 58.4393C11.8699 54.6793 19.4701 48.1193 22.5801 47.2993ZM12.76 56.9393C16.2 57.9093 18.9401 57.1193 20.8401 54.4293C21.9301 52.8893 22.8801 51.1493 21.1001 48.9093C18.5001 51.9193 16.95 55.7793 12.76 56.9393Z" fill="black"/>
</svg>
