<svg width="181" height="534" viewBox="0 0 181 534" fill="none" xmlns="http://www.w3.org/2000/svg">
<path d="M177.33 521.54C174.88 520.32 172.37 519.2 169.91 518.11C168.04 517.28 165.93 516.34 163.95 515.39C156.53 511.83 149.07 508.19 141.86 504.67L134.64 501.15L135.12 497.13L133.7 496.31C130.16 494.26 127.78 496.28 126.59 497.49C126.82 495.54 126.44 492.98 122.74 491.8L120.76 491.17L120.16 492.29C120.14 491.9 120.12 491.51 120.1 491.12C119.99 488.82 119.88 486.45 119.55 484.08C119.29 482.26 119.24 480.91 119.69 479.42C120.83 475.69 122.27 470.77 123.2 465.7C123.78 462.58 124.37 459.47 124.97 456.35C127.21 444.71 129.52 432.68 130.59 420.58C131.2 413.63 131.9 406.58 132.59 399.69C133.5 390.5 134.45 380.99 135.19 371.62C136.15 359.42 136.62 348.5 136.62 338.23V336.29C136.64 327.07 136.65 317.54 134.56 308.16C134 305.65 134.13 304.65 135.13 303.73C137.97 301.1 137.24 297.4 136.93 295.82C136.67 294.49 136.39 293.16 136.12 291.83C135.34 288.09 134.54 284.21 134.11 280.42C133.63 276.21 133.42 271.88 133.22 267.7C133.16 266.51 133.11 265.32 133.04 264.13C136.93 262.8 140.32 260.82 143.85 257.83C149.65 252.92 151.61 247.03 149.84 239.82C149.09 236.79 148.34 233.76 147.58 230.73L147.5 230.42C145.66 223.06 143.75 215.45 142.06 207.91C140.34 200.23 138.72 192.72 137.88 185.2C137.13 178.45 136.68 171.54 136.23 164.79C135.95 160.48 135.65 156.01 135.28 151.62C134.59 143.42 133.73 136.07 130.19 129.14C127.69 124.24 123.2 121.79 118.47 122.73C117.19 122.98 115.96 123.41 114.88 123.78C114.25 124 113.62 124.22 112.99 124.4C112.19 124.63 111.38 124.84 110.51 125.06L109.58 121.54L105.86 120.76L106.58 108.66C111.28 106.14 115.93 103.08 118.96 98.2202C120.22 96.2102 122.02 95.2802 124.52 94.4402C131.59 92.0502 136.98 87.3702 140.53 80.5302C142.55 76.6302 142.25 72.2602 139.65 67.8802C137.99 65.0902 135.59 64.4203 133.66 64.3903L134.8 54.2102C135.17 54.0402 135.55 53.8703 135.93 53.7003C137.98 52.7803 140.11 51.8302 142.23 50.7102C144.17 49.6802 145.31 48.4202 145.72 46.8402C146.14 45.2402 145.74 43.5302 144.5 41.6202C143.97 40.8002 143.07 39.6602 141.83 38.9002C140.23 37.9202 138.61 36.9902 136.91 36.0302L137.51 35.5202C138.33 34.8302 139.15 34.1402 139.97 33.4602C142.09 31.7002 144.29 29.8802 146.35 27.9102C147.53 26.7802 149.19 24.1402 148.58 21.8602C148.24 20.6002 147.45 19.5603 146.34 18.9503C144.99 18.2003 143.25 18.1002 141.43 18.6602C139.61 19.2202 137.78 19.8002 135.96 20.3702C134.4 20.8602 132.84 21.3502 131.27 21.8402C131.29 21.7102 131.31 21.5702 131.34 21.4402L131.38 21.1902C131.92 17.9002 132.43 14.7902 132.75 11.6202L132.81 11.0002C133.12 8.13024 133.58 3.79024 129.3 1.03024L128.08 0.240234L126.79 0.910248C121.86 3.47025 119.18 7.83025 116.89 11.8503C114.8 6.70025 111.44 4.66024 106.33 5.43024C102.31 6.04024 98.4099 7.26026 94.6399 8.45026L94.47 8.50024C88.12 10.5002 86.7897 11.8603 87.8997 17.2903C82.0997 17.8703 77.7698 19.9302 71.8098 24.7502C66.8398 28.7702 64.5197 33.7702 64.8997 39.5902C65.1297 43.0602 64.9 44.8303 62.93 46.1703C61.6 47.0703 61.2799 48.7102 61.1199 49.5002C60.4799 52.7102 59.8796 55.9203 59.2596 59.2003L58.8997 61.0802C56.0397 62.5502 53.7298 65.0003 52.4798 67.9503C51.0798 71.2403 51.0998 74.9002 52.5198 78.2502C54.6698 83.3102 58.0196 87.1103 63.0696 90.2003C65.7896 91.8669 68.1132 94.0802 70.0398 96.8402L70.3797 97.3302C71.3897 98.7902 72.6498 100.6 74.4998 101.59C79.2598 104.16 80.9096 107.75 79.8596 113.24C79.7196 113.98 79.6198 114.72 79.5398 115.43C74.2198 115.9 73.0997 120.42 72.3997 123.23C72.3597 123.41 72.3098 123.58 72.2698 123.75C61.0598 118.8 55.03 127.79 52.97 130.87C51.3 133.36 50.2598 136.15 49.2498 138.85L49.0696 139.33C47.4996 143.54 45.9597 147.76 44.4197 151.98L44.3499 152.17C41.7499 159.32 39.0598 166.71 36.2298 173.9C34.6598 177.89 32.6796 181.86 30.7796 185.7C29.7996 187.67 28.7899 189.7 27.8299 191.74C26.8599 193.81 25.9097 195.9 24.9597 197.99C23.2697 201.72 21.5199 205.58 19.6399 209.26C17.1999 214.03 14.6299 218.81 12.1399 223.43L12.0696 223.56C10.0896 227.25 8.03961 231.06 6.06961 234.84C4.64961 237.57 3.31977 240.63 1.97977 244.22C-0.600231 251.18 0.989594 255.69 7.29959 259.32C13.3696 262.81 21.24 266.16 29.99 262.89C28.36 268.45 28.4997 273.99 28.8597 278.71C29.0297 280.88 29.9098 283.31 31.2698 285.37C34.5698 290.35 39.05 293.41 44.93 294.67C44.93 294.71 44.9297 294.76 44.9197 294.8C44.7697 296.51 44.6299 298.13 44.3899 299.73C43.6199 304.89 45.0399 307.87 49.0999 309.4C48.8499 310.63 48.5796 311.86 48.3196 313.08C47.3596 317.53 46.37 322.13 45.99 326.78C45.13 337.09 44.7697 347.19 44.9397 356.8C45.1397 368.87 45.79 379.84 46.93 390.36C48.07 400.93 49.8 411.59 51.47 421.91L52.3997 427.67C54.6297 441.54 56.9296 455.87 61.0496 469.68C61.7096 471.89 62.4596 474 63.2596 476.24L63.2996 476.36C63.3896 476.61 63.4796 476.86 63.5696 477.11C55.9996 480.9 56.5098 488.01 57.4798 494.22C56.8798 494.4 56.3 494.58 55.72 494.76C55.59 494.8 55.4496 494.83 55.2796 494.87C54.4996 495.05 53.31 495.32 52.49 496.35C51.21 497.95 50.0897 498.45 47.1297 496.94L41.2498 493.93L43.6599 500.07C43.8799 500.64 43.9297 500.95 43.9397 501.09C43.7497 501.22 43.3098 501.42 42.9998 501.56C42.6698 501.71 42.3398 501.86 42.0398 502.02C36.7298 504.84 31.3199 507.65 26.0799 510.37L25.7 510.57C22.96 511.99 20.22 513.41 17.49 514.84L16.5999 515.3C15.0899 516.08 13.5298 516.88 12.0598 517.93C9.78985 519.56 7.67957 521.31 5.77957 523.15C4.68957 524.21 3.58957 526.22 3.77957 528.14C3.97957 530.24 6.15987 531.34 7.32987 531.93C8.39987 532.47 9.50955 532.37 10.2596 532.3L16.0598 531.94C24.1198 531.45 32.4498 530.94 40.7498 530.39C42.4998 530.27 44.2598 530.09 45.9598 529.92C47.7498 529.74 49.5999 529.55 51.4099 529.44C52.4799 529.38 53.41 529.17 54.2 528.82L53.7596 531.65L56.4998 531.82C57.4498 531.88 58.33 531.95 59.18 532.02C60.94 532.16 62.6099 532.3 64.3499 532.27C66.2099 532.23 68.0797 532.12 69.9597 532.01C72.7697 531.85 75.6697 531.67 78.4597 531.8C82.2397 531.96 85.1896 530.58 87.5896 529.2C88.1296 528.89 88.6399 528.55 89.1399 528.19C90.3299 530.15 92.2597 532.22 95.6697 532.23C100.48 532.25 105.39 532.19 109.72 532.14C112.07 532.11 114.43 532.09 116.78 532.07C118.31 532.06 120.73 531.57 121.84 528.81C121.82 529.32 121.86 529.88 121.97 530.49L122.29 532.28L124.09 532.52C124.68 532.6 125.28 532.7 125.89 532.81C127.44 533.08 129.04 533.35 130.76 533.35H133.75C141.24 533.35 147.37 533.26 153.02 533.07C158.03 532.9 163.1 532.59 168.02 532.29C170.43 532.14 172.83 532 175.24 531.87C178.73 531.68 180.98 529.53 180.85 526.53C180.76 524.47 178.98 522.37 177.3 521.54H177.33ZM122.37 526.68C122.37 526.62 122.38 526.56 122.39 526.5L122.41 526.32C122.47 526.31 122.52 526.3 122.58 526.29C122.51 526.41 122.44 526.54 122.37 526.67V526.68Z" fill="white"/>
<path d="M105.69 133.61C106.49 133.09 107.28 132.55 108.09 132.05C111.46 129.94 115 128.68 119.12 128.74C122.05 128.79 123.91 129.78 124.98 132.39C126.56 136.24 127.88 140.13 128.15 144.37C128.35 147.6 129.15 150.79 129.51 154.01C129.74 156.11 129.62 158.24 129.7 160.36C129.96 167.34 129.78 174.38 130.61 181.29C131.57 189.27 132.52 197.26 134.21 205.17C135.21 209.83 135.86 214.63 136.9 219.31C138.39 226 140.4 232.58 141.73 239.3C142.43 242.86 142.38 246.61 142.26 250.26C142.18 252.61 139.73 253.5 138.1 254.65C135.73 256.31 133.3 258.23 129.94 257.85C128.36 248.44 128.09 239.15 128.02 229.81C127.98 224.88 127.06 219.95 126.57 215.01C126.47 213.96 126.51 212.89 126.51 211.82C126.51 208.15 126.73 204.45 125.13 200.98C124.92 200.53 124.95 199.95 124.92 199.43C124.65 194.18 124.8 188.86 124 183.68C123.18 178.4 123.56 173.15 123.29 167.9C123.17 165.56 122.94 163.2 122.43 160.92C122.2 159.91 121.16 159.07 120.58 158.29C118.71 158.73 118.51 159.81 118.52 161.1C118.54 166.15 118.02 171.27 118.72 176.22C119.14 179.22 119.56 182.05 119.5 185.13C119.42 189.12 120.35 193.13 120.94 197.12C121.67 202 122.5 206.86 123.27 211.73C123.31 211.99 123.3 212.26 123.31 212.53C123.58 217.92 123.81 223.31 124.12 228.69C124.31 231.89 123.9 235.2 124.39 238.25C124.9 241.44 124.24 244.64 125 247.65C125.86 251.07 125.2 254.52 125.79 257.84C126.77 263.37 125.94 268.94 126.64 274.4C127.15 278.35 127.03 282.27 127.35 286.19C127.6 289.28 128.38 292.33 128.82 295.41C128.98 296.57 128.85 297.77 128.85 298.83C126.52 300.86 123.99 299.78 121.56 299.83C119.12 299.88 116.68 300.19 114.1 300.4C113.1 298 112.28 295.82 111.3 293.73C110.61 292.27 109.61 291.6 108.36 293.44C109.04 294.8 109.87 296.13 110.4 297.57C111.09 299.45 110.4 300.63 108.4 301C106.29 301.39 104.37 301.99 101.93 301.33C99.5002 300.67 96.5599 301.71 93.8799 302.21C91.2799 302.69 90.6198 302.3 89.7598 299.83C89.0798 297.87 88.1699 295.97 87.1299 294.17C86.7599 293.53 85.7298 293.26 84.8398 292.73C82.8898 296.6 87.69 298.87 86.25 302.59C82.39 302.91 78.3701 303.25 74.3901 303.58C73.2901 299.88 72.3098 296.56 71.3198 293.24C69.0865 293.953 68.2032 295.227 68.6699 297.06C69.0499 298.56 69.45 300.06 69.77 301.57C70.09 303.11 69.1402 304.51 67.6802 304.14C61.9502 302.67 56.1101 303.93 49.8301 303.19C49.9901 300.58 49.9901 297.99 50.3501 295.44C50.8401 292.06 49.2599 289.54 45.9599 289.07C39.4699 288.14 35.1899 283.45 35.4599 276.84C35.7199 270.41 36 263.97 37.29 257.7C37.96 254.45 39.0898 251.24 39.7598 247.94C40.1398 246.04 40.6998 244.17 41.0298 242.26C41.9098 237.14 42.3099 231.9 43.6699 226.92C44.6899 223.17 44.73 219.25 46.29 215.59C47.39 213.02 47.8399 210.09 48.1099 207.27C48.4699 203.63 49.8099 200.3 50.7099 196.82C52.6599 189.31 54.3701 181.73 56.3701 174.23C57.7601 169.03 59.4799 163.91 61.1099 158.57C58.4299 159.28 58.6302 161.6 57.9702 163.24C56.8702 165.99 56.0702 168.87 55.2002 171.72C53.9502 175.8 52.75 179.9 51.54 183.99C50.18 188.57 49.32 193.27 47.77 197.83C45.86 203.45 44.4598 209.26 43.0898 215.05C41.5098 221.73 39.6702 228.41 38.9302 235.2C38.3602 240.43 37.0398 245.37 35.7798 250.4C35.4098 251.9 35.5199 253.52 35.3999 255.31C33.3899 255.4 31.4102 255.42 29.4502 255.6C27.7702 255.75 26.1099 256.28 24.4399 256.27C22.6399 256.27 20.7998 256 19.0498 255.54C16.4198 254.86 13.7198 254.21 11.3198 253C7.99981 251.33 6.92016 247.55 8.68016 243.94C12.0002 237.1 14.8699 230.02 18.4199 223.34C20.6799 219.09 21.7201 213.99 25.6401 210.65C25.6801 208 27.6601 206.22 28.6601 203.99C30.9901 198.78 33.9401 193.82 35.8901 188.48C38.1101 182.44 41.3098 176.78 42.7998 170.45C43.1798 168.87 44.3399 167.48 44.9199 165.93C47.6599 158.68 50.5499 151.5 52.4599 143.93C53.7299 138.88 55.73 133.9 59.04 129.69C61.13 127.04 63.7998 126.61 68.0698 127.56C70.1898 128.03 72.18 129.1 74.02 129.81C74.76 131.14 75.4298 132.34 76.0898 133.55C76.1598 133.82 76.22 134.09 76.29 134.37C76.08 135.79 76.1998 137.04 77.8598 137.54L87.8799 137.7C91.8999 138.21 95.5599 136.4 99.4199 135.83C101.53 135.52 104.2 135.77 105.75 133.52L105.68 133.57L105.69 133.61Z" fill="#016FB3"/>
<path d="M81.7498 500.28C80.7998 499.45 79.9599 498.43 78.8899 497.82C75.3399 495.81 71.6199 494.29 67.3699 494.76C66.2199 494.89 65.0397 494.78 63.4797 494.78C63.4797 492.43 63.5497 490.34 63.4597 488.26C63.3397 485.19 64.4199 482.84 67.3899 481.72C70.2999 480.62 73.0199 480.97 75.4099 483.17C77.5699 485.16 79.6298 487.33 82.0598 488.94C86.0198 491.58 88.2 492 90.22 485.92C91.05 483.43 91.1096 480.78 89.3196 478.17C88.3196 481.56 90.0797 485.13 87.9197 488.14C84.3297 489.17 81.9197 487.82 79.9197 484.74C78.9797 483.29 77.1697 482.38 75.7097 481.3C73.2397 479.47 73.19 478.77 75.47 476.81C76.27 476.12 76.96 475.29 77.74 474.57C79.69 472.77 81.7398 471.16 85.0798 471.76C82.1298 469.8 82.1597 469.85 79.9597 471.52C78.2497 472.81 76.4398 473.97 74.5198 475.3C71.7198 470.14 70.3199 465.03 69.1199 459.89C68.3599 456.62 68.6296 452.98 67.3196 449.98C65.6996 446.27 66.0995 442.36 65.0095 438.66C64.4195 436.68 63.7496 434.68 63.5896 432.65C62.9996 425.5 60.7996 418.68 59.5896 411.67C58.5496 405.65 57.9496 399.56 57.1096 393.51C56.3596 388.11 55.4595 382.72 54.7795 377.31C54.3495 373.94 54.2397 370.52 53.9197 367.14C53.4197 361.68 52.6899 356.23 52.3899 350.76C52.1299 345.99 52.4296 341.19 52.2996 336.42C52.1596 331.56 51.7296 326.71 51.5496 321.85C51.3996 317.78 52.0998 313.8 53.0598 309.86C53.2698 308.98 53.17 308.03 53.24 306.57C58.75 307.04 64.1797 306.05 69.7097 307.25C72.6297 307.88 75.9196 307.95 78.8196 307.28C82.6596 306.4 86.4397 306.94 90.2297 306.6C94.7697 306.19 99.2898 305.61 103.83 305.15C104.44 305.09 105.08 305.31 105.71 305.4C106.74 305.54 107.78 305.85 108.8 305.79C111.8 305.63 114.99 304.55 117.73 305.27C121 306.13 123.52 304.67 126.38 304.35C127.41 304.23 128.54 304.93 129.95 305.35C128.52 308.57 129.77 311.6 129.72 314.65C129.66 317.7 129.77 320.76 129.7 323.82C129.46 333.86 129.31 343.9 128.87 353.93C128.58 360.46 127.87 366.98 127.31 373.49C126.81 379.35 126.37 385.22 125.69 391.06C125.06 396.48 124.09 401.85 123.38 407.26C122.98 410.37 122.92 413.53 122.5 416.63C121.88 421.26 121.12 425.87 120.37 430.48C119.52 435.73 118.66 440.97 117.72 446.2C117.22 449 116.64 451.79 115.94 454.54C114.48 460.29 112.91 466.01 111.4 471.75C110.91 473.61 110.47 475.49 109.9 477.83C110.99 479.65 112.39 481.85 113.63 484.12C114.11 485 114.48 486.06 114.52 487.06C114.64 489.84 114.54 492.64 114.57 495.43C114.58 497.01 113.97 497.91 112.27 497.99C108.62 498.16 105.27 499.92 101.48 499.71C99.7197 499.61 97.8896 500.86 95.8396 501.59C95.3096 498.91 95.1399 496.79 95.8899 494.57C96.2499 493.49 96.1897 492.24 96.2097 491.06C96.2497 488.14 96.3097 485.21 96.2097 482.29C95.9997 476.1 96.0696 469.88 95.3396 463.75C94.2096 454.22 95.2696 444.67 94.5496 435.18C92.9996 414.65 94.2199 394.11 93.8899 373.58C93.7899 367 94.15 360.4 94.7 353.84C95.14 348.68 96.3997 343.59 96.9197 338.43C97.2797 334.88 97.1097 331.26 96.9397 327.68C96.8997 326.79 95.9297 325.95 95.2097 324.81C93.6097 326.7 93.1295 328.58 93.0295 330.64C92.7895 335.63 92.9596 340.69 92.1096 345.58C91.3296 350.08 91.7297 354.52 91.4397 358.97C89.7697 384.27 90.6999 409.6 90.8499 434.9C90.8999 443.72 90.7799 452.63 91.5999 461.41C92.4199 470.19 93.2398 478.94 93.0198 487.76C92.8898 493.02 92.5397 498.27 92.2297 503.52C92.0897 505.79 90.3199 506.76 88.3499 505.57C87.2999 504.93 86.5196 503.86 85.6096 502.99C84.7796 502.21 84.2695 500.91 82.7595 501.24C82.4395 500.92 82.1198 500.6 81.8098 500.29L81.7498 500.28Z" fill="#BF9577"/>
<path d="M119.38 75.33C120.29 75.39 121.21 75.45 122.15 75.52C123.49 78.7 121.83 81.52 120.79 84.15C118.44 90.1 114.87 95.4 109.88 99.49C107.76 101.24 105.52 102.92 102.51 103.47C100.21 103.89 98.0404 105.35 95.9504 106.58C94.2104 107.6 93.07 107.16 91.34 106.23C86.91 103.84 82.5703 101.47 78.6003 98.28C74.8703 95.27 72.7699 91.51 71.5099 87.16C70.3899 83.27 69.9103 79.28 71.6603 75.96C76.0703 76.04 80.1201 76.13 84.1701 76.16C84.4201 76.16 84.6701 75.7101 84.9201 75.4801C86.7501 75.3401 88.2004 74.52 88.7204 72.74C89.5404 69.93 91.0001 67.2501 90.6501 64.1701C92.3801 63.7301 90.3104 61.13 92.4904 60.93C92.5404 60.93 92.6402 60.52 92.5802 60.47C90.1002 58.55 91.7601 55.9101 91.4601 53.6301C91.2401 51.9701 91.3503 50.3101 89.8703 49.1401C87.2003 47.2101 84.3401 45.8 80.9401 45.86C80.1801 45.61 79.4303 45.21 78.6603 45.15C77.1403 45.04 75.6002 45.12 73.7502 45.12C74.3902 42.47 74.9404 40.1901 75.4904 37.9101L75.4303 38C76.3003 37.24 77.2502 36.56 78.0402 35.72C80.9202 32.66 84.1999 30.43 88.5099 29.84C90.0299 29.63 91.4701 28.8901 92.9401 28.3901C95.8501 28.8801 99.15 27.23 102.05 29.84C99.98 32.13 98.2102 34.18 98.5402 37.28C98.8402 40.03 99.7699 41.0201 102.28 40.0101C104.65 39.0501 106.8 37.55 109.05 36.28C109.8 36.34 110.55 36.41 111.3 36.47C111.3 36.99 111.48 37.64 111.24 38.02C109.66 40.58 111.24 42.26 112.89 43.78C114.12 44.91 115.61 45.75 116.98 46.71C116.93 47.45 116.87 48.1901 116.84 48.6701C114.8 49.1101 113.12 49.47 111.44 49.84C110.42 49.86 109.39 49.9201 108.37 49.8901C106.63 49.8301 105.76 50.6601 105.7 52.3801C103.51 53.3501 103.89 55.56 103.4 57.3C102.45 60.64 100.08 62.0701 96.61 61.2601C95.77 61.0601 94.8504 61.2301 93.9704 61.2301C93.9604 61.3501 93.9403 61.46 93.9303 61.58C96.5703 62.28 99.2201 62.98 101.98 63.71C101.32 66.25 100.71 68.3401 100.23 70.4501C99.4401 73.9101 101.25 77.1 104.8 77.66C108.86 78.3 112.89 77.3 116.84 76.27C117.69 75.96 118.54 75.64 119.39 75.33H119.38Z" fill="#F6D3B8"/>
<path d="M109.04 36.2801C106.79 37.5501 104.64 39.0501 102.27 40.0101C99.7601 41.0201 98.8198 40.0301 98.5298 37.2801C98.1998 34.1801 99.9701 32.1201 102.04 29.8401C99.1501 27.2301 95.8502 28.8801 92.9302 28.3901C88.5002 28.0001 84.4199 29.3701 80.8799 31.7101C78.6199 33.2001 76.03 34.8701 75.42 38.0101L75.48 37.9201C73.57 39.8301 72.8403 42.2201 72.9703 44.9801H69.48C69.36 44.7001 69.0801 44.3401 69.1001 44.0001C69.2401 40.3701 68.7899 36.8201 70.3999 33.1701C71.4099 30.8901 73.2502 29.8901 74.6802 28.5401C77.1802 26.1801 80.2903 24.2401 83.4703 22.9101C86.5603 21.6101 89.98 20.5701 93.69 21.6301C94.11 18.6601 90.4903 16.7101 91.7403 13.1701C96.1903 11.9101 100.83 10.3001 105.61 9.33011C109.99 8.44011 112.57 10.3501 114.03 14.7201C114.68 16.6701 115.15 18.6801 115.77 20.8901C116.11 20.4601 116.63 20.0101 116.86 19.4401C117.15 18.7301 117.02 17.8401 117.37 17.1801C119.47 13.2801 121.65 9.39013 125.01 6.41013C125.86 5.66013 127.19 5.46012 128.66 4.87012C128.66 9.29012 128.91 13.1201 128.59 16.8901C128.29 20.4101 127.38 23.8901 126.65 27.8101C129.13 26.5201 131.22 25.3401 133.39 24.3201C134.42 23.8401 135.56 23.5701 136.68 23.3201C138.82 22.8401 140.98 22.3901 143.14 22.0201C144.32 21.8201 145.22 22.3501 145.58 23.5401C145.94 24.7501 144.94 24.9501 144.21 25.5101C140.08 28.7001 136.02 31.9801 131.98 35.2801C131.09 36.0101 130.38 36.9701 129.6 37.8201C132.82 39.4801 135.89 41.0001 138.88 42.6601C139.59 43.0501 140.17 43.8401 140.57 44.5801C141.28 45.8901 140.71 47.0901 139.41 47.4201C136.39 48.2001 133.46 49.1101 130.65 50.5201C129.63 51.0301 128.08 50.5601 126.77 50.4501C125.35 50.3301 123.94 50.1001 122.52 49.9201C122.22 49.8801 121.92 49.8501 121.62 49.8101C121.6 48.8801 122.18 47.7001 120.57 47.4401C119.36 47.2401 118.16 46.9601 116.96 46.7201C115.59 45.7501 114.1 44.9101 112.87 43.7901C111.21 42.2701 109.65 40.5901 111.22 38.0301C111.46 37.6501 111.27 37.0001 111.28 36.4801C112.02 35.4701 112.76 34.4701 113.5 33.4601L112.92 32.9501C111.62 34.0601 110.32 35.1701 109.02 36.2901L109.04 36.2801Z" fill="#BF9577"/>
<path d="M132.4 510.54C134.5 507.95 135.55 507.69 138.22 509.08C141.76 510.92 145.23 512.89 148.8 514.68C151.24 515.9 153.8 516.88 156.29 518.01C157.13 518.39 158.1 518.7 158.69 519.34C161.09 521.93 164.53 522.2 167.52 523.41C169.01 524.01 169.78 524.62 169.35 526.68C166.56 526.68 163.67 526.62 160.79 526.69C151.81 526.92 142.84 527.21 133.86 527.47C132.56 527.51 131.26 527.47 129.62 527.47C129.93 526.09 130.14 525.13 130.36 524.11C128.35 521.75 125.46 523.12 122.49 522.39C122.79 521.65 122.88 520.78 123.36 520.35C125.66 518.29 128.08 516.38 130.41 514.35C130.83 513.99 131.02 513.36 131.46 512.6C129.11 513.24 122.38 518.93 120.51 521.61C110.72 521.37 100.97 521.12 90.9703 520.87C90.8803 520.56 90.5802 520.06 90.6402 519.62C90.9702 517.08 91.6502 514.6 90.7002 511.98C90.4502 511.3 91.1701 509.66 91.8301 509.38C94.0301 508.45 94.1899 506.43 94.8799 504.74C97.9799 503.68 100.98 502.41 104.1 501.67C107.63 500.83 111.31 500.75 114.61 498.9C115.27 498.53 116.7 499.05 117.53 499.56C122.3 502.49 127 505.51 131.67 508.58C132.1 508.86 132.12 509.74 132.41 510.54H132.4Z" fill="#9F623E"/>
<path d="M81.75 500.28C82.07 500.6 82.3902 500.92 82.7002 501.23C84.2702 504.07 86.7099 506.01 89.3799 507.7C89.4899 507.77 89.5498 507.9 89.5298 507.88V520.88C76.1698 519.9 62.9001 519.89 49.5801 521.25C49.6901 522.07 49.7899 522.9 49.9199 523.88C47.2599 524.29 44.7202 524.84 42.1602 525.03C36.9102 525.41 31.5799 525.19 26.3999 525.99C21.9099 526.68 17.4602 526.53 12.9902 526.65C12.3502 526.67 11.7202 526.56 10.6802 526.48C11.0402 525.58 11.1298 524.59 11.5498 524.41C17.1298 522.08 22.11 518.44 28.04 516.83C29.37 516.47 30.4702 515.34 31.7402 514.68C35.0602 512.97 38.37 511.24 41.77 509.69C42.88 509.19 44.2402 509.23 45.7402 508.99C45.9502 512.48 43.3399 513.38 41.6299 515C42.2232 516.513 43.3868 517.63 45.1201 518.35C44.5001 517.37 43.4901 516.48 43.6401 515.88C43.9101 514.84 44.7501 513.82 45.6001 513.08C48.8101 510.27 52.0399 507.48 55.3999 504.86C58.4799 502.45 61.6002 500.04 64.9502 498.04C70.0602 494.99 74.9699 496.56 79.6699 499.41C80.2999 499.79 81.04 499.99 81.73 500.27L81.75 500.28Z" fill="#9F623E"/>
<path d="M90.6499 64.1601C90.9999 67.2401 89.5502 69.9201 88.7202 72.7301C88.2002 74.5101 86.7499 75.3401 84.9199 75.4701C83.8599 75.4901 82.9599 75.0301 81.7099 75.2701C78.1899 75.9401 74.92 74.0501 71.5 73.4301C70.39 73.2301 69.36 72.6101 68.27 72.2401C65.17 71.1901 64.26 70.3401 64.31 67.1801C64.4 61.8001 64.6601 56.4101 65.1401 51.0501C65.2901 49.3601 66.3699 47.7601 67.1299 45.8401H80.9199C84.3199 45.7701 87.1801 47.1901 89.8501 49.1201C90.1101 54.1301 90.3801 59.1401 90.6401 64.1501L90.6499 64.1601Z" fill="white"/>
<path d="M121.63 49.8101C121.93 49.8501 122.23 49.8801 122.53 49.9201C124.36 51.2401 126.1 52.74 128.06 53.83C129.31 54.52 129.67 55.2901 129.71 56.5901C129.86 61.5901 128.6 66.28 126.72 70.83C126.48 71.4 125.78 71.8101 125.25 72.2301C123.49 73.6201 121.57 74.7201 119.39 75.3401C118.54 75.6501 117.69 75.9701 116.84 76.2801C112.38 76.2801 107.91 76.2801 103.3 76.2801C103.01 74.4801 102.58 73.1001 102.62 71.7301C102.68 69.8101 103.06 67.9001 103.37 65.9901C104.12 61.4501 104.92 56.9201 105.7 52.3901C105.75 50.6701 106.62 49.8401 108.37 49.9001C109.39 49.9301 110.41 49.8701 111.44 49.8501C114.84 49.8401 118.24 49.8301 121.64 49.8201L121.63 49.8101ZM113.3 64.3801C115.94 66.6901 117.08 65.0201 118.48 63.8701C116.38 61.4001 115.36 64.0901 113.3 64.3801Z" fill="white"/>
<path d="M82.5799 122.38C82.5999 121.72 82.3699 120.92 82.6599 120.42C84.9999 116.4 84.0197 112 84.2097 107.74C84.2297 107.22 84.2596 106.71 84.2796 106.18C85.9596 105.04 87.4099 105.96 88.6399 106.72C91.5299 108.51 94.6196 108.34 97.7796 108.14C99.3296 108.04 100.88 108.12 102.21 108.12C101.79 113.92 101.4 119.35 101 124.77C101.11 126.41 99.9198 126.92 98.7298 127.56C95.8598 129.1 93.0796 130.78 91.3396 133.69C90.3196 133.6 89.3098 133.5 89.0598 133.48C87.9698 132.13 87.3097 131.31 86.6497 130.5C85.2897 127.79 83.9296 125.08 82.5696 122.37L82.5799 122.38Z" fill="#F6D3B8"/>
<path d="M121.95 88.71C121.85 88.33 121.68 88.06 121.74 87.84C122.72 83.61 123.7 79.37 124.77 75.15C124.95 74.45 125.5 73.81 125.99 73.24C126.79 72.31 127.86 71.57 128.51 70.55C130.29 67.77 133.35 67.28 135.53 69.74C136.96 71.36 137.52 73.13 137.29 75.63C136.73 81.62 132.31 84.05 128.19 86.85C126.44 88.04 124.74 89.86 121.95 88.71Z" fill="#F6D3B8"/>
<path d="M58.8398 527.35C58.9398 522.87 60.5302 521.11 64.2402 521.1C70.5202 521.09 76.7898 521.03 83.0698 521.16C84.7098 521.2 86.33 521.87 87.96 522.26C88.67 523.69 87.78 524.81 86.77 525.19C84.5 526.06 82.4798 527.62 79.8198 527.51C76.1098 527.36 72.3899 527.43 68.6699 527.5C67.3799 527.52 66.0898 528.01 64.8198 527.98C62.9198 527.93 61.0198 527.6 58.8398 527.35Z" fill="#9F623E"/>
<path d="M69.8599 75.3201C69.7099 78.6901 70.44 82.26 68.48 85.93C67.5 85.65 66.33 85.54 65.4 85C61.44 82.68 58.4699 79.66 56.8599 75.08C55.6499 71.63 56.9099 68.98 58.1099 66.21C58.9199 64.34 60.8001 65.17 62.5401 65.11C62.8701 67.65 61.9701 70.51 64.0401 72.27C65.5501 73.55 67.6102 74.1801 69.8502 75.3201H69.8599Z" fill="#F6D3B8"/>
<path d="M82.5801 122.38C83.9401 125.09 85.3002 127.8 86.6602 130.51C86.9102 131.69 87.1601 132.88 87.5601 134.74C83.5401 133.69 79.9401 134.58 76.3101 134.4C76.2401 134.13 76.1799 133.86 76.1099 133.58C77.3399 130.19 76.9898 126.67 77.0298 123.17C77.0298 122.51 76.8298 121.76 77.0898 121.22C77.4298 120.49 78.0202 119.64 78.7002 119.37C79.1902 119.18 80.1299 119.74 80.6699 120.19C81.3999 120.8 81.9498 121.63 82.5698 122.37L82.5801 122.38Z" fill="#DDEEEC"/>
<path d="M91.3398 133.7C93.0798 130.79 95.86 129.11 98.73 127.57C99.92 126.93 101.12 126.42 101 124.78C102.7 124.49 104.41 124.2 106.05 123.92C107.32 127.46 108.16 130.63 105.69 133.62L105.76 133.57C102.14 134.1 98.5302 134.66 94.9102 135.16C93.4802 135.36 92.0298 135.43 91.3398 133.72V133.7Z" fill="#DDEEEC"/>
<path d="M117.4 526.68C110.02 526.68 102.86 526.74 95.7002 526.65C92.6602 526.61 91.9801 525.72 91.6201 522.06C92.3901 522.01 93.2402 521.72 93.9102 521.95C97.6602 523.22 101.52 522.37 105.3 522.74C109.05 523.1 112.77 523.79 116.51 524.29C117.89 524.48 117.8 525.3 117.4 526.69V526.68Z" fill="#9F623E"/>
<path d="M124.44 530.04C123.74 526.18 127.09 526.41 128.94 524.34C126.12 524.16 123.58 523.36 121.45 523.98C116.64 525.4 112.08 524.17 107.42 523.7C105.32 523.49 103.2 523.49 101.08 523.36C98.3401 523.2 95.5999 523 92.8599 522.82C93.5499 525.66 93.5401 525.85 96.5801 525.89C102.94 525.97 109.3 525.8 115.67 525.8C117.04 525.8 118.41 526.09 119.89 526.26C119.66 528.65 118.67 529.55 116.77 529.57C109.74 529.62 102.71 529.75 95.6802 529.73C92.5302 529.72 91.3101 527.2 90.0401 524.43C88.6801 525.4 87.5799 526.32 86.3399 527.03C83.9499 528.4 81.5799 529.43 78.5699 529.3C73.8299 529.09 69.0598 529.67 64.2998 529.77C61.9598 529.82 59.6202 529.51 56.6602 529.33C57.0502 526.84 57.36 524.88 57.69 522.78H54.2998C55.0798 525.57 54.0098 526.79 51.2798 526.95C47.7198 527.16 44.1701 527.67 40.6001 527.91C30.5501 528.58 20.5 529.18 10.44 529.79C9.77997 529.83 9.01001 529.98 8.48001 529.71C7.62001 529.28 6.35007 528.59 6.29007 527.91C6.20007 526.96 6.81007 525.66 7.54007 524.96C9.41007 523.16 11.4301 521.49 13.5401 519.98C15.1301 518.84 16.9202 517.98 18.6602 517.07C26.8502 512.79 35.0703 508.58 43.2403 504.25C44.9303 503.35 47.5101 502.99 46.0201 499.19C49.9701 501.21 52.4202 500.5 54.4702 497.94C54.8602 497.45 55.8 497.4 56.5 497.18C57.72 496.79 58.9501 496.43 60.3301 496.01C59.1401 488.76 57.7103 481.62 66.7403 478.53C65.6003 475.22 64.4102 472.15 63.4702 469C59.3302 455.15 57.0701 440.9 54.7901 426.67C52.8401 414.51 50.76 402.36 49.44 390.12C48.25 379.06 47.6602 367.91 47.4702 356.79C47.3002 346.87 47.6901 336.9 48.5201 327.02C49.0601 320.51 50.8201 314.11 52.0401 307.65C47.4701 306.7 46.2099 304.78 46.8999 300.13C47.2599 297.7 47.41 295.24 47.67 292.62C41.22 291.8 36.6202 288.87 33.3902 284.01C32.3402 282.42 31.5302 280.41 31.3902 278.53C30.9902 273.38 30.9801 268.21 32.5601 263.17C32.9801 261.82 33.0101 260.36 33.2901 258.47C24.4001 264.15 16.3299 261.62 8.58987 257.17C3.25987 254.11 2.26015 250.79 4.37015 245.11C5.52015 242.01 6.81011 238.94 8.33011 236.01C12.7901 227.44 17.5202 219.01 21.9102 210.41C24.8502 204.65 27.3799 198.68 30.1299 192.82C32.9499 186.82 36.1699 180.98 38.5899 174.83C43.0999 163.39 47.13 151.75 51.44 140.23C52.46 137.51 53.4699 134.68 55.0699 132.3C59.5299 125.65 64.87 122.04 73.69 127.33C75.69 123.68 74.4301 117.1 81.7901 118C81.9701 116.58 82.0699 115.14 82.3399 113.73C83.5599 107.36 81.59 102.58 75.71 99.4101C74.28 98.6401 73.2203 97.0201 72.2403 95.6101C68.9403 90.8901 68.9702 90.8801 64.3902 88.0701C60.1102 85.4501 56.8699 82.0801 54.8399 77.2801C52.2399 71.1701 55.6799 64.9301 61.1299 62.8301C61.9499 58.5201 62.7399 54.2501 63.5899 49.9901C63.7099 49.3701 63.9001 48.5401 64.3501 48.2401C67.5901 46.0301 67.6299 42.8001 67.3999 39.4301C67.0499 34.0901 69.2599 30.0401 73.3799 26.7001C79.6099 21.6601 83.7101 19.8301 90.5401 19.6301C90.6501 19.4201 90.8999 19.1801 90.8599 19.0101C89.2799 12.8601 89.25 12.7701 95.21 10.8901C98.98 9.70014 102.8 8.49013 106.69 7.91013C110.86 7.28013 113.03 8.95012 114.6 12.9001C115.19 14.3701 115.7 15.8601 116.37 17.6601C119.8 12.3101 121.95 6.25014 127.93 3.14014C131.14 5.21014 130.53 8.46012 130.24 11.3701C129.79 15.8201 128.94 20.2401 128.19 25.1601C129.29 24.9301 130.1 24.8201 130.87 24.5801C134.63 23.4201 138.38 22.2201 142.14 21.0601C143.84 20.5401 145.67 20.7901 146.13 22.5201C146.4 23.5401 145.49 25.2601 144.59 26.1201C141.81 28.7601 138.79 31.1501 135.86 33.6301C134.78 34.5401 133.71 35.4601 132.53 36.4601C135.36 38.0801 137.96 39.4901 140.48 41.0401C141.23 41.5001 141.88 42.2401 142.36 42.9901C143.97 45.4701 143.64 47.1301 141.02 48.5201C138.13 50.0501 135.09 51.3101 132.43 52.5401C131.88 57.4901 131.35 62.1701 130.82 66.9701C130.8 66.9601 131.05 67.2401 131.22 67.2101C133.69 66.6601 135.96 66.6401 137.46 69.1801C139.41 72.4701 140.04 76.0001 138.27 79.4101C135.11 85.5001 130.25 89.8701 123.68 92.1001C120.88 93.0501 118.49 94.2301 116.8 96.9201C113.86 101.63 109.23 104.48 104.12 107.13C103.82 112.23 103.51 117.45 103.19 122.79C104.95 123.16 106.21 123.42 107.51 123.7C107.88 125.09 108.21 126.33 108.68 128.11C110.46 127.66 112.06 127.29 113.64 126.84C115.41 126.33 117.12 125.57 118.92 125.22C122.59 124.49 125.93 126.42 127.92 130.31C131.37 137.07 132.13 144.48 132.75 151.87C133.7 163.08 134.1 174.34 135.35 185.52C136.21 193.24 137.87 200.9 139.57 208.5C141.97 219.2 144.75 229.81 147.36 240.46C148.9 246.72 147.26 251.67 142.19 255.96C138.75 258.87 135.18 261.04 130.38 262.36C130.74 268.41 130.86 274.61 131.56 280.75C132.16 285.99 133.4 291.16 134.42 296.35C134.82 298.39 135 300.44 133.37 301.94C131.19 303.96 131.54 306.4 132.06 308.75C134.23 318.5 134.06 328.42 134.06 338.27C134.06 349.34 133.5 360.43 132.64 371.47C131.36 387.8 129.48 404.09 128.05 420.41C126.72 435.56 123.45 450.39 120.69 465.3C119.85 469.84 118.6 474.32 117.25 478.74C116.64 480.73 116.74 482.48 117.02 484.48C117.53 488.12 117.49 491.84 117.8 495.52C117.89 496.6 118.36 497.65 118.65 498.72C118.95 498.7 119.25 498.68 119.55 498.66C120.32 497.22 121.09 495.78 121.93 494.23C125 495.21 124.08 497.21 123.6 499.36C124.69 499.73 125.88 500.12 127.06 500.52C128.62 499.25 129.61 496.91 132.39 498.51C132.26 499.62 132.11 500.86 131.9 502.66C142.14 507.64 152.46 512.71 162.82 517.69C167.24 519.81 171.79 521.65 176.18 523.83C177.17 524.32 178.3 525.68 178.34 526.69C178.42 528.52 176.9 529.32 175.09 529.42C167.7 529.82 160.31 530.37 152.92 530.62C145.53 530.87 138.14 530.92 130.75 530.9C128.57 530.9 126.4 530.36 124.41 530.09L124.44 530.04ZM127.81 298.79C127.81 297.62 127.87 296.72 127.81 295.83C127.15 287.12 126.44 278.41 125.8 269.69C125.28 262.56 124.85 255.43 124.36 248.29C124.07 244.07 123.66 239.85 123.44 235.62C123.05 228.09 123.01 220.53 122.34 213.02C121.79 206.83 120.38 200.72 119.63 194.54C118.88 188.37 118.85 182.16 117.94 175.97C117.19 170.9 117.68 165.63 117.78 160.45C117.8 159.28 118.5 158.12 118.91 156.88C121.44 157.6 123.03 158.59 123.25 160.93C123.52 163.82 123.79 166.72 123.98 169.62C124.41 176.22 124.78 182.82 125.21 189.42C125.43 192.85 125.54 196.3 126.05 199.69C128.04 213.05 128.64 226.51 129.09 239.99C129.28 245.77 129.93 251.54 130.37 257.25C130.87 257.29 131.03 257.35 131.13 257.3C132.19 256.77 133.24 256.21 134.3 255.68C141.61 252.06 143.01 249.35 141.59 241.45C141.45 240.67 141.12 239.93 140.93 239.16C138.9 230.8 136.55 222.51 134.95 214.07C132.59 201.71 130.2 189.34 129.61 176.7C129.21 167.97 128.82 159.23 127.94 150.54C127.4 145.17 126.24 139.82 124.8 134.61C123.59 130.25 120.4 128.19 116.77 129.34C113.57 130.35 110.69 132.36 107.63 133.86C105.89 134.71 104.14 135.6 102.3 136.15C100.16 136.79 97.8602 136.91 95.7202 137.57C89.5802 139.45 83.4201 138.41 77.2701 137.82C76.4801 137.74 75.3802 136.78 75.1402 136.01C74.5202 134.06 74.3101 131.99 74.0201 130.41C71.88 129.68 70.19 129.05 68.46 128.54C65.38 127.62 62.2999 127.4 60.1099 130.26C58.5199 132.33 56.9198 134.55 56.0098 136.97C52.9298 145.14 50.2198 153.44 47.2598 161.65C44.8098 168.46 42.4401 175.32 39.6201 181.99C33.1401 197.3 25.49 212.06 17.92 226.86C15.04 232.48 12.37 238.21 9.77005 243.97C7.80005 248.34 8.62989 250.47 12.8599 252.6C17.7199 255.05 22.8603 255.77 28.2403 254.92C30.2603 254.6 32.3101 254.45 34.3701 254.22C35.5101 249.17 36.7701 244.05 37.8101 238.87C39.4801 230.57 40.78 222.2 42.67 213.95C44.2 207.26 46.32 200.71 48.25 194.11C51.55 182.81 54.8401 171.5 58.2901 160.24C58.7801 158.66 60.1401 157.34 61.1001 155.9C61.4201 156.06 61.7401 156.23 62.0601 156.39C61.7901 157.91 61.6202 159.47 61.2202 160.96C60.2602 164.53 59.1 168.05 58.17 171.62C55.85 180.59 53.8698 189.65 51.2998 198.54C48.0398 209.82 45.6302 221.26 43.6602 232.82C42.5902 239.07 41.4602 245.33 39.9102 251.47C37.8702 259.55 36.38 267.64 36.19 276.02C36.05 282.25 39.0399 286.44 45.8199 288.2C50.7799 289.49 51.1199 289.76 51.0699 294.81C51.0699 295.72 50.6602 296.62 50.6402 297.53C50.5802 299.27 50.67 301.01 50.69 302.95H68.8101C68.4801 301.01 68.2101 299.23 67.8701 297.47C67.2201 294.11 67.29 293.95 70.96 291.83C73.9 294.66 73.1702 298.99 75.2002 302.57C78.6102 302.27 82.1598 301.96 86.0298 301.63C85.0298 299.24 84.0499 297.48 83.6099 295.59C83.3999 294.7 83.9101 293.21 84.6201 292.62C85.8501 291.6 87.2002 292.22 87.8902 293.61C88.8902 295.62 89.65 297.75 90.71 299.73C91.14 300.52 92.1298 301.64 92.7798 301.59C98.4798 301.13 104.17 300.45 109.65 299.85C110.49 296.63 104.78 293.74 109.76 290.66C112.33 292.36 112.76 295.11 113.82 297.47C114.39 298.74 114.94 299.89 116.64 299.74C120.17 299.43 123.7 299.15 127.82 298.82L127.81 298.79ZM96.25 500.27C98.62 499.7 100.64 499.13 102.7 498.74C105.82 498.14 108.98 497.76 112.07 497.07C112.76 496.92 113.73 495.94 113.78 495.28C114.09 491.21 114.56 487.16 111.86 483.43C109.63 480.37 108.46 476.95 110.23 473C111.19 470.85 111.53 468.42 112.08 466.09C115.8 450.38 119.46 434.67 121.29 418.59C122.47 408.2 123.97 397.84 125.01 387.43C126.05 377.02 126.75 366.58 127.51 356.15C128.11 347.83 128.77 339.51 129.03 331.18C129.29 322.73 129.09 314.26 129.09 305.79C103.71 305.88 78.8899 309.3 54.3799 307.19C51.8699 314.52 51.9702 321.42 52.3902 328.28C53.2802 342.82 54.12 357.36 55.46 371.86C56.54 383.56 57.9399 395.25 59.8799 406.83C62.4699 422.33 65.7002 437.71 68.6802 453.14C69.3102 456.38 69.9201 459.64 70.8301 462.8C71.9101 466.54 73.3002 470.19 74.6802 474.24C76.4902 472.85 77.7 471.85 78.98 470.94C81.95 468.84 84.8499 469.02 87.0699 471.7C90.4199 475.75 91.9702 480.48 91.2202 485.72C90.4402 491.19 86.43 492.92 81.75 489.93C80.55 489.16 79.61 488 78.48 487.11C76.51 485.57 74.63 483.81 72.44 482.69C69.26 481.06 64.9399 483.18 64.3799 486.66C63.9999 489.01 64.4 491.49 64.46 494.17C73.79 492.92 80.5701 496.49 86.3701 502.56C87.4201 503.66 88.7401 504.52 90.3301 505.81C90.8401 504.46 91.3399 503.67 91.3999 502.86C92.2199 491.49 92.4 480.12 91.69 468.72C90.94 456.69 90.5299 444.63 90.1099 432.58C89.8799 425.96 89.8502 419.32 89.9102 412.69C90.0802 393.87 90.1901 375.05 90.6201 356.23C90.8201 347.36 91.6903 338.51 92.2403 329.65C92.3803 327.49 92.83 325.5 94.67 324.1C96.55 324.63 97.6301 325.52 97.6201 327.46C97.6001 330.78 97.8601 334.11 97.6201 337.41C96.7801 348.74 95.38 360.04 94.94 371.38C94.4 385.28 94.3999 399.2 94.5699 413.11C94.7599 428.06 95.4299 443.01 95.8599 457.96C96.1699 468.62 96.5002 479.28 96.7002 489.94C96.7602 493.35 96.41 496.77 96.25 500.27ZM94.1402 22.5201C83.3002 20.3201 66.34 31.7401 70.46 44.9201C73.3 42.2401 72.8599 38.2501 75.1499 35.7901C77.5999 33.1601 79.91 30.3101 83.5 29.3001C86.93 28.3301 90.43 27.4101 93.96 27.1001C97.39 26.7901 101.07 26.5501 104.27 29.4701C100.82 32.0701 97.8401 34.6501 99.6001 39.5401C105.4 38.5401 109.12 34.2301 114.17 31.9801C114.05 33.3901 113.74 34.6801 113.14 35.8101C110.67 40.4001 111.15 42.2101 115.83 44.6301C117.8 45.6501 120.13 46.1001 121.9 47.3601C125.04 49.6101 128.09 50.7401 131.84 49.0301C133.63 48.2101 135.6 47.7801 137.47 47.1201C138.4 46.7901 139.29 46.3401 140.32 45.8801C137.71 41.1101 132.69 40.9001 128.15 38.2901C132.92 32.3101 139.77 29.0901 145.01 23.1201C143.39 23.0401 142.39 22.8701 141.43 22.9701C136.98 23.4001 133.1 25.3901 129.27 27.5201C128.38 28.0201 127.31 28.2001 125.83 28.6901C126.45 20.6401 129.59 13.5001 127.79 5.31012C121.57 10.1201 118.89 16.5001 115.71 22.6401C115.07 21.8001 114.8 21.1201 114.63 20.4101C114.14 18.3601 113.86 16.2401 113.18 14.2601C112.19 11.3401 109.69 9.64012 106.77 10.0001C101.66 10.6401 96.82 12.3001 92.17 14.2101C92.55 17.2401 95.5002 19.2101 94.1602 22.5501L94.1402 22.5201ZM72.42 76.8901C70.14 83.7501 72.5498 92.2301 78.7598 96.9601C83.5698 100.62 88.8 103.74 93.67 106.99C100.18 102.87 107.77 101.95 112.34 95.7801C116.63 89.9801 121.12 84.3401 121.78 76.5001C117.71 77.1801 114.11 77.9601 110.46 78.3401C108.27 78.5701 105.92 78.5801 103.8 78.0401C99.7498 77.0201 98.72 75.0301 99.44 70.9401C99.85 68.6501 100.24 66.3601 100.68 63.8801C97.6102 63.3301 94.9499 62.8501 92.3799 62.3801C91.4299 65.8201 90.5202 68.9801 89.7002 72.1601C88.6202 76.3201 85.2601 77.1201 81.7701 77.2901C78.6801 77.4501 75.56 77.0401 72.42 76.8801V76.8901ZM88.73 519.63C88.73 516.36 88.7602 512.82 88.7002 509.27C88.7002 508.83 88.3 508.31 87.94 507.99C84.87 505.28 81.9602 502.35 78.6402 500C74.3802 496.99 68.6702 495.97 63.9702 500.06C62.3902 501.44 60.49 502.47 58.73 503.64C53.49 507.12 48.7202 511.13 44.4702 515.76C49.2802 520.88 49.62 520.98 56.0201 519.93C57.1901 519.74 58.3901 519.65 59.5801 519.64C69.1001 519.62 78.62 519.63 88.73 519.63ZM67.7002 46.7401C64.7502 53.1301 64.8899 59.7101 65.1499 66.3201C65.2599 69.1001 66.2298 71.0001 69.2598 71.7701C74.1998 73.0401 78.9603 74.9301 84.2403 74.4701C86.4203 74.2801 87.8199 73.6001 88.0899 71.4001C88.7399 66.1701 89.5999 60.9301 89.8199 55.6801C90.0699 49.5301 87.95 47.2501 81.75 46.8001C77.16 46.4701 72.52 46.7301 67.69 46.7301L67.7002 46.7401ZM96.2798 505.41C94.6998 507.34 93.4701 508.79 92.3101 510.31C91.9301 510.8 91.5098 511.46 91.5298 512.03C91.6198 514.69 91.8598 517.34 92.0498 520.17C92.4098 520.19 92.9202 520.23 93.4302 520.24C101.34 520.35 109.29 519.61 117.16 521.15C118.09 521.33 119.4 520.78 120.2 520.15C122.06 518.69 123.7 516.95 125.46 515.35C127.45 513.53 129.47 511.74 131.59 509.83C126.99 506.65 122.82 503.67 118.54 500.85C117.04 499.86 115.38 499.55 113.46 500.31C111.29 501.17 108.92 501.59 106.61 502.05C103.77 502.62 100.87 502.82 98.5801 505.02C98.0301 505.55 96.7498 505.34 96.2798 505.4V505.41ZM100.78 60.9201C101.85 58.0801 102.65 55.5601 103.74 53.1801C104.95 50.5301 106.64 48.6401 110.14 49.0301C112.3 49.2701 114.57 48.6101 117.3 48.2901C112.2 44.3901 109.79 40.5001 110.07 36.6201C108.91 37.3801 107.83 38.1401 106.7 38.8101C105.56 39.4901 104.44 40.4001 103.2 40.6401C101.75 40.9201 99.9602 41.0401 98.7202 40.4201C96.9202 39.5201 96.56 37.4501 96.94 35.5401C97.16 34.4101 97.7899 33.3401 98.3199 32.2901C98.7699 31.3801 99.33 30.5301 99.92 29.5301C86.28 28.6601 75.6998 35.0001 75.0098 44.2901C75.7898 44.3501 76.5701 44.3901 77.3501 44.4801C80.3601 44.8601 83.4799 44.9201 86.3599 45.7501C90.6599 46.9901 92.0499 49.2701 92.0899 53.7001C92.1099 55.5401 92.0899 57.3801 92.0899 59.7701C95.0899 60.1701 97.8898 60.5301 100.78 60.9101V60.9201ZM106.88 50.9001C105.65 57.6301 104.38 63.8201 103.43 70.0701C102.72 74.7301 103.79 75.9501 108.48 75.6801C112.13 75.4701 115.74 74.6201 119.36 74.0601C123.56 73.4201 126.22 71.0601 127.27 66.9401C127.69 65.2801 128.12 63.6001 128.42 61.9101C129.65 55.0001 129.76 55.7201 123.65 52.0801C118.53 49.0201 112.86 50.9801 106.87 50.9001H106.88ZM123.96 521.77C125.82 522.01 127.6 522.23 129.37 522.48C132.14 522.87 130.95 525.09 130.84 526.97C143.49 526.54 155.72 526.13 167.95 525.72C168.04 525.4 168.13 525.09 168.22 524.77C162.12 523.2 157.1 519.51 151.51 516.92C145.72 514.24 140.07 511.24 134.19 508.29C133.16 515.08 127.28 517.31 123.94 521.77H123.96ZM85.3799 106.22C84.1799 111.32 86.2703 116.29 83.4903 120.67C83.3003 120.96 83.6502 121.69 83.8902 122.14C85.7402 125.72 87.6198 129.29 89.5298 132.94C93.2998 130.18 96.6801 127.71 99.8501 125.39C100.33 119.84 100.78 114.5 101.23 109.24C95.84 108.99 90.4801 109.41 85.3701 106.22H85.3799ZM12.1099 525.2C12.1399 525.58 12.18 525.96 12.21 526.34C24.45 525.4 36.7001 524.46 49.7701 523.46C46.89 521.45 44.8001 520.08 42.8101 518.58C39.9401 516.42 39.95 515.03 42.71 512.63C43.53 511.92 44.3399 511.2 45.1499 510.48C44.9399 510.15 44.7398 509.83 44.5298 509.5C33.7198 514.73 22.9199 519.97 12.1099 525.2ZM122.54 87.5801C122.8 87.8201 123.05 88.0501 123.31 88.2901C127.79 86.4301 131.88 83.7801 134.8 79.9001C136.48 77.6701 137.27 74.6101 135.89 71.6301C134.73 69.1101 132.26 68.1401 130.48 69.8501C128.52 71.7301 126.41 73.8301 125.42 76.2601C123.97 79.8401 123.45 83.8001 122.54 87.6001V87.5801ZM74.3301 478.78C76.5801 480.64 78.5302 482.18 80.3902 483.82C81.6702 484.95 82.7301 486.34 84.0801 487.38C85.1801 488.23 86.4502 488.46 87.4502 486.92C90.1902 482.7 88.0201 474.6 83.0601 471.88C80.3201 474.05 77.4501 476.31 74.3301 478.78ZM61.1802 65.5701C57.8402 67.5901 56.5099 70.4101 57.3799 73.5901C58.9399 79.3301 62.9301 82.9401 68.1201 85.6501C68.4701 83.9201 68.9001 82.4101 69.0401 80.8801C69.1901 79.2001 69.0699 77.4901 69.0699 76.3301C66.6799 74.8201 64.18 73.9701 62.92 72.2301C61.69 70.5201 61.72 67.9001 61.17 65.5801L61.1802 65.5701ZM59.67 526.66C66.77 526.66 73.7099 526.87 80.6299 526.54C82.9199 526.43 85.5199 525.59 87.1299 522.9C86.2399 522.74 85.6301 522.56 85.0201 522.54C78.9801 522.35 72.9302 522.4 66.9102 521.93C63.1802 521.64 60.51 522.25 59.67 526.65V526.66ZM92.5699 133.19C92.7099 133.59 92.86 133.99 93 134.39C96.72 133.84 100.47 133.46 104.13 132.63C105.07 132.42 106.19 130.9 106.37 129.85C106.63 128.29 106.12 126.6 105.89 124.46C100.32 126.54 96.3399 129.7 92.5699 133.2V133.19ZM77.0201 133.43H86.9702C84.4102 128.84 82.0202 124.57 79.1802 119.48C76.6702 124.51 78.6801 129.03 77.0201 133.43Z" fill="black"/>
<path d="M87.4601 88.5101C88.8201 90.0501 90.1799 91.5801 91.7999 93.4101C88.6299 94.3701 87.8302 91.6801 86.2902 90.5301C85.9902 90.3001 86.3903 89.1301 86.4703 88.3901C86.8003 88.4301 87.1301 88.4701 87.4601 88.5101Z" fill="black"/>
<path d="M103.87 84.0801C102.21 85.0001 100.55 85.9101 98.8901 86.8301C98.7501 86.5701 98.6102 86.3201 98.4702 86.0601C99.8302 84.5801 101.23 83.1901 103.35 83.1401C103.52 83.4501 103.69 83.7701 103.87 84.0801Z" fill="black"/>
<path d="M80.5001 59.5701C80.8901 61.8901 79.8299 62.6701 78.2999 62.9401C78.0399 62.9901 77.3102 62.2101 77.3502 61.8801C77.5802 60.0801 78.8901 59.8601 80.5001 59.5601V59.5701Z" fill="black"/>
<path d="M118.93 62.9101C119.11 64.9401 117.31 66.7201 115.56 66.5401C114.76 66.4601 113.68 65.6401 113.39 64.9001C112.93 63.7401 115.01 61.8901 116.81 61.9301C117.63 61.9501 118.43 62.6601 118.93 62.9101Z" fill="black"/>
</svg>
