<svg width="552" height="261" viewBox="0 0 552 261" fill="none" xmlns="http://www.w3.org/2000/svg">
<path d="M550.75 243.93L550.71 243.84C550.31 242.87 549.85 241.76 549.23 240.73C548.5 239.52 547.79 238.29 547.07 237.07L547.02 236.98C545.04 233.59 542.99 230.09 540.67 226.79C537.3 222 533.57 217.4 529.94 212.93L528.7 211.4C526.91 209.19 524.39 207.77 521.39 207.29C513.6 206.04 504.35 204.76 494.79 204.73C489.25 204.7 483.64 204.86 478.2 205H477.65C476.2 205.05 474.75 205.09 473.3 205.13C477.73 202.88 481.57 199.92 484.77 196.28C487.73 192.92 489.11 189.09 488.76 185.22C488.41 181.35 486.38 177.83 482.87 175.05C481.83 174.22 480.69 173.57 479.69 172.99L478.92 172.54C478.62 172.36 478.31 172.19 478 172.01C478.64 171.62 479.33 171.23 479.95 170.88C482.13 169.67 484.59 168.29 486.43 165.89C486.56 165.72 486.68 165.61 486.74 165.56C490.1 164.65 492.69 162.6 494.99 160.78C496.3 159.74 497.66 158.67 499.06 157.89C502.46 156 505.47 153.53 508.38 151.13C509.84 149.93 511.35 148.69 512.86 147.57C516.97 144.52 520.56 140.56 524.5 134.73C526.23 132.17 528.36 128.37 526.89 124.93C525.41 121.47 521.11 120.36 518 119.83C509.75 118.42 501.23 119.58 491.95 123.37C488.32 124.85 484.83 126.69 481.38 128.5C479.81 129.33 478.24 130.15 476.65 130.94C476.22 131.16 475.78 131.36 475.34 131.56C475.25 131.38 475.15 131.19 475.04 131C472.63 127.04 470.14 122.94 467.52 118.85C464.17 113.6 460.7 108.18 457.13 102.9C454.25 98.64 451.3 94.4 448.45 90.29L448.34 90.14C446.25 87.13 444.16 84.11 442.09 81.09C441.77 80.62 441.43 80.15 441.07 79.66C440.12 78.36 439.14 77.02 438.81 75.79C437.35 70.3 433.13 68.7 430.08 67.98C422.83 66.25 415.16 66.97 407.29 70.12C400.49 72.84 396.41 77.92 395.15 85.23C394.35 89.85 395.34 93.96 396.54 97.24L395.66 97.73C393.57 98.9 391.4 100.12 389.24 101.27C387.59 102.15 386.75 102.02 385.51 100.7C384.29 99.41 382.79 98.12 380.87 98.26C378.85 98.42 377.59 100.04 376.47 101.69C374.32 104.86 372.15 108.03 369.99 111.19C367.02 115.53 364.05 119.87 361.12 124.23C359.97 125.93 358.9 127.81 358.71 130.06C358.34 130.83 358.21 131.62 358.09 132.3C358.05 132.52 358.02 132.74 357.96 132.95L357.41 135.05L358.4 135.47C358.81 136.75 359.61 137.8 360.33 138.62C364.68 143.65 369.89 147.64 374.98 151.53C376.48 152.68 377.99 153.83 379.47 155.01C380.94 156.18 381.84 157.97 381.96 159.92C382.05 161.48 381.64 163 380.79 164.29C380.22 164.1 379.69 163.9 379.23 163.66C376.47 162.22 373.73 160.76 370.98 159.3C367.92 157.67 364.86 156.04 361.79 154.45L361.12 154.1C358.84 152.91 356.49 151.69 353.93 150.88C346.05 148.39 339.92 146.93 334.04 146.13C328.12 145.33 320.66 145.33 315.42 152.58C311.28 158.31 306.72 164.39 301.48 171.16C300.64 172.25 299.42 173.31 298.05 174.13C297.57 174.42 297.33 174.52 297.21 174.56C297.07 174.47 296.79 174.24 296.22 173.69C294.48 171.98 292.45 170.02 290.27 168.23C287.75 166.16 285.68 166.18 284.39 166.57C282.8 167.04 281.59 168.23 280.76 170.11C278.85 168.6 276.37 167.94 273.28 168.08C269.68 168.24 266 168.33 262.44 168.42C258.08 168.52 253.58 168.63 249.12 168.88C241.45 169.3 233.91 170.04 226.9 170.77L226.53 170.81C224.75 170.99 222.48 171.22 220.45 172.47C220.32 171.42 219.79 170.32 218.38 169.55C216.93 168.77 215.68 168.91 214.69 169.36C215.1 167.33 215.5 165.28 215.84 163.22C216.26 160.65 216.62 158.03 216.98 155.47C217.51 151.61 218.06 147.62 218.84 143.78C220.26 136.82 220.84 129.74 221.4 122.88L221.61 120.32C222.02 115.36 222.58 110.32 223.12 105.45L223.16 105.05C223.38 103.02 223.64 101 223.89 98.98C224.18 96.61 224.49 94.15 224.75 91.7C224.97 89.56 225.14 87.4 225.31 85.29C225.44 83.61 225.57 81.92 225.73 80.25C226.11 76.3 226.69 72.28 227.25 68.39C228.01 63.15 228.79 57.74 229.11 52.28L229.15 51.56C229.48 45.98 229.79 40.71 228.75 35.15C227.8 30.04 224.51 29.1999 221.92 29.4099C217.64 29.7499 213.47 30.32 209.53 31.12C207.79 31.47 206.12 31.98 204.48 32.51C204.84 31.22 204.94 29.78 204.75 28.27C204.11 23.19 203.35 17.76 202.13 12.42C201.6 10.09 200.37 7.61996 198.36 4.85996C195.1 0.379959 190.5 -0.690033 185.75 1.92997L182.71 3.59995C171.46 9.79995 159.83 16.2099 148.37 22.4699C145.28 24.1599 142.16 25.81 139 27.5C133.62 30.36 128.06 33.31 122.69 36.42C117.32 39.53 112.03 42.8899 106.87 46.1599C104.43 47.7099 102 49.26 99.5502 50.78L95.1502 53.52C89.4702 57.06 83.5902 60.73 77.7502 64.27C75.9402 65.37 74.0402 66.34 72.0102 67.38C71.7402 67.52 71.4602 67.66 71.1802 67.8C69.2602 65.52 66.6602 64.9 64.6602 64.43C64.4502 64.38 64.2502 64.33 64.0502 64.28C64.2002 63.22 64.1302 62.24 63.5602 61.33C62.7202 60 61.3802 59.67 59.7902 59.4C59.9302 59.23 60.0602 59.0699 60.1402 58.9699C60.5202 58.5199 60.9502 58.0099 61.3002 57.4099L62.7602 54.93L60.0902 53.83C59.0602 53.41 58.6202 53.1 58.4502 52.95C58.5002 52.78 58.6402 52.42 59.0102 51.81C59.3702 51.23 59.7102 50.65 60.1102 49.96L62.7502 45.46L58.9302 45.03C57.6502 44.88 57.1302 44.74 57.2002 42.62C57.2102 42.18 57.1402 41.81 57.0802 41.56L57.0202 40.81C56.4302 33.59 55.8302 26.12 52.5202 19.02C51.2702 16.34 49.7002 14.84 47.7202 14.45C45.8202 14.07 43.9302 14.76 41.9402 16.58C41.0502 17.39 40.0502 18.3 39.3502 19.55C39.0502 20.09 38.7402 20.63 38.4402 21.17C36.9802 23.75 35.4802 26.41 34.3202 29.26C32.9002 32.74 31.6802 36.31 30.5002 39.77L30.4402 39.96C30.3302 40.28 30.2202 40.6 30.1102 40.92C29.1402 40 28.1802 39.07 27.2302 38.15C24.3402 35.35 21.3602 32.46 18.1402 29.81C14.6002 26.9 10.6302 25.04 5.24019 23.77L3.72017 23.4099L2.73018 24.63C-0.0898246 28.1 0.89017 31.67 1.60017 34.27L1.75019 34.84C5.64019 49.44 13.1302 62.01 19.9402 72.38C21.5202 74.78 21.8802 75.8 21.0802 77.52C20.2802 79.23 20.2502 81.08 20.2302 82.76C20.2302 83.16 20.2302 83.55 20.2002 83.93C20.1202 85.72 20.1302 87.51 20.1402 89.26V90.38C20.1802 95.56 20.2102 102.01 21.8902 108.23C22.9502 112.14 25.7402 114.47 29.9702 114.96C31.7102 115.16 33.4202 114.88 34.9302 114.63L35.7102 114.5C36.7702 114.34 37.7602 114.1 38.7502 113.86C43.2302 119.6 44.4802 120.5 49.6002 122.37L50.2802 122.62L50.9802 122.47C57.6902 121.03 58.2602 114.83 58.4802 112.49C58.6202 110.94 58.9602 110.58 60.1002 110.06C63.9502 108.31 67.9602 106.28 71.0102 102.53C71.1002 102.42 71.2102 102.3 71.3402 102.18C71.6802 102.48 72.0302 102.77 72.4002 103.05C75.4902 105.38 78.9802 105.55 82.2202 103.53L82.5702 103.31C83.0402 103.02 83.5802 102.69 84.1002 102.29C85.8802 100.9 88.0302 100.5 91.3002 100.94C94.5302 101.37 97.9302 101.9 101.7 102.57C111.73 104.35 122.33 105.14 134.11 104.99C135.65 104.97 136.29 105.08 137.06 105.8C138.53 107.16 140.29 107.73 142 107.4C143.73 107.06 145.17 105.86 146.05 104.01C146.16 104 146.31 103.98 146.43 103.97C146.63 103.95 146.83 103.93 147.03 103.9C147.88 103.78 148.74 103.68 149.61 103.58C151.65 103.34 153.77 103.09 155.86 102.59C157.9 102.11 159.92 101.56 161.97 100.99L159.67 103.63C155.36 108.56 150.9 113.67 146.57 118.73C144.8 120.8 143.15 122.99 141.67 125.24C140.57 126.91 139.52 128.64 138.48 130.36C137.26 132.37 136 134.44 134.67 136.4C131.02 141.75 128.58 147.64 126.59 152.75C125.71 155 125.01 157.3 124.34 159.53C123.81 161.28 123.27 163.08 122.65 164.78C120.92 169.56 119.76 174.51 119.22 179.49C119.14 180.24 119.05 180.99 118.95 181.82C118.2 188.32 117.41 195.04 119.67 201.86C119.81 202.28 119.88 202.5 119.86 202.66C117.99 202.66 116.1 202.65 114.18 202.64H113.94C108.52 202.62 102.91 202.59 97.3002 202.7C93.5902 202.77 89.8502 203.02 86.2102 203.25C84.1002 203.39 81.9902 203.52 79.8702 203.63C77.2502 203.76 74.6402 203.87 72.0002 203.99C66.5802 204.22 60.9802 204.47 55.4602 204.86C53.3602 205.01 50.8602 206.3 49.3902 208C46.6902 211.12 44.5602 214.08 42.8702 217.05C40.4302 221.34 38.0202 226.04 35.0602 232.29C34.8402 232.76 34.6002 233.23 34.3702 233.71C33.0902 236.29 31.6402 239.22 31.7602 242.27C31.8102 243.47 31.5702 244.75 31.3302 245.99C31.0202 247.65 30.6602 249.54 30.9102 251.56C31.0802 252.97 31.4702 254.39 32.0302 255.66C33.3802 258.71 35.9402 259.98 39.0602 259.15C40.1202 258.87 41.4102 258.86 42.7402 258.86C53.6902 258.91 62.7002 258.99 71.1102 259.09C74.0502 259.13 76.9902 259.19 79.9302 259.26H80.1102C83.4802 259.34 86.9702 259.42 90.4102 259.46C104.88 259.59 119.26 259.67 135.21 259.76C138.14 259.78 141.07 259.77 144 259.77H144.67C148.71 259.77 152.88 259.77 156.97 259.81C160.98 259.85 164.99 259.93 169 260H169.23C174.04 260.1 179.02 260.19 183.92 260.22C189.18 260.26 194.5 260.22 199.65 260.19H199.9C203.28 260.17 206.66 260.15 210.02 260.14C211.64 260.14 213.25 260.18 214.87 260.21C216.77 260.25 218.73 260.3 220.69 260.28C222.43 260.26 224.17 260.19 225.86 260.11H225.98C227.84 260.02 229.77 259.93 231.64 259.95C236.24 259.96 240.84 260.02 245.44 260.07H245.66C249.42 260.12 253.17 260.16 256.92 260.18C258.23 260.19 259.52 260.13 260.77 260.06L261.06 260.04C262.17 259.98 263.32 259.92 264.43 259.91C267.9 259.88 271.51 259.91 274.7 259.92L278.51 259.94C283.39 259.96 288.28 259.99 293.16 260.04C295.22 260.06 297.28 260.09 299.34 260.13H299.48C302.95 260.19 306.53 260.25 310.07 260.24C312.9 260.24 315.76 260.16 318.63 260.09C321.03 260.03 323.43 259.97 325.82 259.95C328.2 259.93 330.63 259.96 332.77 259.99H333.39C335.32 260.02 337.26 260.05 339.19 260.04C341.74 260.03 344.28 259.99 346.83 259.95C350.23 259.9 354.08 259.83 357.75 259.86C361.46 259.89 365.25 259.99 368.91 260.09C372.33 260.18 375.88 260.28 379.39 260.32C385.24 260.38 391.18 260.37 396.93 260.36H399.8C402.28 260.36 404.75 260.36 407.23 260.32H407.42C408.1 260.31 408.77 260.3 409.45 260.29L425.27 260.18C426.78 260.17 428.28 260.15 429.79 260.14C432.72 260.11 436.36 260.07 439.8 260.09C441.68 260.09 443.55 260.15 445.43 260.19H445.75C447.83 260.25 449.97 260.3 452.1 260.3C453.54 260.3 454.97 260.21 456.38 260.12H456.52C457.91 260.03 459.36 259.94 460.73 259.95C462.81 259.97 464.96 260.06 467.03 260.14C469.3 260.23 471.97 260.33 474.59 260.34C477.12 260.34 479.67 260.23 482.14 260.13H482.26C484.92 260.02 487.67 259.9 490.35 259.92C496.27 259.96 502.3 260.09 508.19 260.21H508.41C512.38 260.3 516.35 260.38 520.32 260.44C522.78 260.47 525.23 260.47 527.69 260.46H527.85C531.47 260.45 535.21 260.44 538.85 260.57C538.99 260.57 539.13 260.57 539.26 260.57C543.17 260.57 547.08 258.45 549.46 255.03C551.81 251.65 552.29 247.59 550.77 243.91L550.75 243.93Z" fill="white"/>
<path d="M444.75 212.82C444.08 210.19 444.35 209.58 446.68 209.61C449.6 209.65 452.67 208.17 455.44 210.27C460.79 209.35 466.24 211.67 471.58 209.72C472.09 209.53 472.81 210.03 473.43 210.06C475.65 210.15 477.99 210.66 480.05 210.12C483.53 209.21 486.85 209.86 490.23 210.15C490.61 210.18 491.06 210.5 491.35 210.38C496.19 208.41 500.99 211.41 505.81 210.46C506.06 210.41 506.38 210.36 506.6 210.46C511.31 212.64 516.37 211.8 520.89 212.03C522.1 213.64 522.93 215.11 524.1 216.23C529.24 221.14 533.1 227.06 537.25 232.73C539.52 235.83 541.26 239.33 543.15 242.7C544.11 244.42 544.57 246.37 545.45 248.16C546.04 249.37 545.05 251.35 544.71 253.3C541 253.3 537.45 253.17 533.91 253.33C528.14 253.59 522.35 252.6 516.59 253.99C515.08 254.36 513.3 253.38 511.63 253.34C507.26 253.23 502.89 253.21 498.52 253.34C495.66 253.42 492.81 254.09 489.96 254.05C483.63 253.95 477.3 253.48 470.97 253.36C468.52 253.31 466.06 253.96 463.6 254.03C461.52 254.09 459.43 253.81 457.35 253.65C456.84 253.61 456.21 253.18 455.86 253.36C453.69 254.52 451.58 253.23 449.46 253.34C447.13 253.46 444.81 253.91 442.48 254.02C440.65 254.11 438.81 253.9 436.98 253.83C436.13 253.79 435.27 253.72 434.42 253.71C431.18 253.67 427.93 253.67 424.69 253.61C423.65 253.59 422.62 253.34 421.58 253.33C417.38 253.27 413.21 253.78 409.03 254.04C406.29 254.21 403.39 253.13 400.77 253.67C397.33 254.37 394.04 252.32 390.53 253.94C388.32 254.96 385.46 254.07 382.96 253.95C379.87 253.81 376.84 254.14 373.78 254.14C290.1 254.11 206.43 254.11 122.75 254.14C121.08 254.14 119.42 254.61 117.74 254.72C117.01 254.77 116.26 254.45 115.51 254.38C114.07 254.26 112.63 254.08 111.2 254.16C108.74 254.31 106.28 254.85 103.83 254.86C85.6902 254.92 67.5502 254.92 49.4102 254.87C45.1302 254.86 40.6802 255.76 36.5602 252.51C36.3402 251.66 35.7502 250.2 35.6002 248.69C35.4402 247.14 35.4002 245.47 35.8202 244C36.8602 240.42 38.5102 237 39.3502 233.39C40.3002 229.29 42.3102 225.73 44.1502 222.08C45.6002 219.19 47.3203 216.42 49.0303 213.67C49.4603 212.98 50.2702 212.18 50.9802 212.09C54.2102 211.67 57.4702 211.43 60.7302 211.23C65.8302 210.92 70.9702 210.95 76.0402 210.37C88.1902 208.99 100.36 209.99 112.51 209.6C115.24 209.51 117.95 209.09 120.68 208.84C122.92 208.63 124.43 209.48 125.94 211.32C129.26 215.36 132.48 219.5 136.52 222.94C140.68 226.48 145.35 229.22 149.86 232.22C150.51 232.65 151.34 232.89 151.83 233.44C154.06 235.97 157.22 236.82 160.19 237.27C168.29 238.5 176.37 239.98 184.66 239.89C191.38 239.82 197.84 238.45 204.34 237.2C211.24 235.88 217.49 232.7 223.89 229.91C226.93 228.58 230.26 227.82 233.53 227.14C238.64 226.08 243.89 225.98 249.03 225.32C256.3 224.39 263.53 224.56 270.72 224.88C276.22 225.13 281.78 224.99 287.22 225.66C291.03 226.12 294.8 226.11 298.58 226.33C300.65 226.45 302.7 226.89 304.76 227.12C307.35 227.41 309.94 227.81 312.53 227.85C316.59 227.91 320.58 228.35 324.51 229.36C325.01 229.49 325.56 229.42 326.08 229.48C335.8 230.57 345.55 230.31 355.3 230.23C360.01 230.19 364.74 229.96 369.41 229.39C372.32 229.04 375.15 227.96 377.98 227.08C382.64 225.64 386.83 223.07 392.05 222.88C395.47 222.76 398.79 220.47 402.22 219.34C403.91 218.78 405.91 218.07 407.5 218.48C411.43 219.49 415.35 218.96 419.27 219.15C425.04 219.43 430.83 220.15 436.56 219.82C442.53 219.47 448.58 219.69 454.5 218.44C455.45 218.24 456.56 218.58 457.55 218.85C459.79 219.46 461.97 219.38 464.03 218.35C464.83 217.95 465.43 217.16 466.61 216.13C464.98 215.4 463.9 214.74 462.73 214.43C460.37 213.8 457.97 213.24 455.55 212.9C454.63 212.77 453.62 213.32 452.65 213.56C449.99 213.31 447.34 213.06 444.68 212.81L444.74 212.85L444.75 212.82ZM298.84 247.73C298.9 247.92 298.96 248.12 299.02 248.31H540.58C537.41 248.5 534.37 246.38 531.11 247.65C530.5 247.89 529.62 247.35 528.86 247.29C527.44 247.18 526.01 247.07 524.6 247.14C523.19 247.22 521.79 247.68 520.37 247.7C516.27 247.78 512.16 247.79 508.06 247.71C504.05 247.64 500.05 247.77 496.05 247.73C494.16 247.71 492.27 247.77 490.39 247.71C487.34 247.61 484.29 247.45 481.25 247.32C479.53 247.24 477.81 247.05 476.1 247.12C474.43 247.19 472.76 247.7 471.1 247.7C415.11 247.73 359.11 247.73 303.12 247.73H298.84ZM185.49 248.25C183.23 248.52 181.14 248.31 179.06 247.74C178.69 247.64 178.27 247.72 177.88 247.76C175.43 248 172.98 248.4 170.52 248.48C166.69 248.6 162.85 248.51 159.01 248.51H135.6C131.76 248.51 127.92 248.7 124.1 248.46C120.37 248.22 116.66 248.53 112.95 248.53C90.8602 248.5 68.7702 248.52 46.6802 248.52H42.9702C42.9702 248.78 42.9702 249.05 42.9702 249.31H46.8602C91.5702 249.31 136.28 249.31 180.98 249.31C181.91 249.31 182.86 249.43 183.75 249.26C184.38 249.14 184.92 248.6 185.5 248.25H185.49ZM295.84 248.31C295.84 248.16 295.84 248.01 295.84 247.87C290.01 247.87 284.19 247.85 278.36 247.91C277.98 247.91 277.6 248.54 277.11 248.97C283.48 248.74 289.66 248.53 295.84 248.31ZM188.11 249.11H198.06C194.85 248.68 191.65 247.13 188.11 249.11Z" fill="#016FB3"/>
<path d="M200.89 195.9C205.67 195.9 206.89 193.35 207.31 189.49C207.76 185.31 208.93 181.21 209.79 177.08C212.42 177.07 214.13 178.24 215.28 180.03C217.06 179.79 218.67 179.57 220.37 179.34C220.18 183.07 220.04 186.41 219.83 189.75C219.61 193.29 219.26 196.82 219.09 200.35C218.99 202.43 218.8 204.57 220.23 206.39C220.46 206.68 220.61 207.11 220.63 207.48C220.83 212.3 221 217.11 221.19 222.01C216.07 224.57 211.05 227.57 205.26 228.73C202.48 229.29 199.7 229.83 196.9 230.23C192.66 230.83 188.41 231.63 184.16 231.71C179.2 231.8 174.18 232.56 169.23 231.17C167.25 230.61 165.14 230.55 163.08 230.27C156.51 229.36 150.77 226.63 145.69 222.43C142.68 219.94 139.61 217.52 136.66 214.96C133.06 211.83 131.15 207.59 128.81 203.53C126.47 199.47 127.28 195.22 126.16 191.17C124.77 186.14 126.41 181.31 127.59 176.43C128.65 172.05 129.13 167.53 130.13 163.13C130.69 160.68 131.79 158.34 132.65 155.96C135.37 148.45 138.63 141.22 143.38 134.73C145.88 131.31 148.11 127.68 150.63 124.27C153.49 120.41 156.1 116.38 159.55 112.94C162.49 110 164.94 106.59 167.68 103.45C169.1 101.82 170.75 100.39 172.21 98.79C177.47 93.04 182.62 87.18 187.97 81.52C190.48 78.86 193.55 76.73 196.07 74.08C199.5 70.47 202.64 66.59 205.73 62.67C203.95 63.21 201.57 65.04 200.47 66.62C196.69 72.01 191.71 76.09 186.43 79.88C184.63 81.17 182.86 82.56 181.36 84.17C177.91 87.89 173.48 90.07 168.96 91.95C165.3 93.47 161.37 94.37 157.52 95.35C154.9 96.02 152.21 96.4 149.53 96.81C147.22 97.16 144.89 97.39 142.57 97.61C140.92 97.77 140.11 97.16 139.54 95.36C137.42 88.71 135.2 82.14 134.81 75.07C134.63 71.74 133.72 68.45 133.41 65.11C133.3 63.91 133.97 62.64 134.31 61.29C141.47 58.82 148.63 56.34 155.79 53.87C162.47 51.56 169.14 49.24 175.82 46.96C176.67 46.67 177.62 46.7 178.48 46.43C183.11 44.99 187.7 43.38 192.36 42.06C199.29 40.09 206.25 38.26 213.23 36.49C215.22 35.99 217.32 35.75 219.38 35.71C221.9 35.66 222 36.12 222.32 38.78C223.03 44.75 221.81 50.48 220.88 56.32C220.12 61.07 218.49 65.59 217.83 70.27C217.21 74.62 215.48 78.8 215.85 83.35C216.02 85.5 215.37 87.72 215.06 89.9C214.57 93.36 214.07 96.81 213.54 100.26C213.31 101.79 213.04 103.32 212.74 104.84C211.77 109.83 211.37 114.87 211.06 119.95C210.73 125.22 209.57 130.44 208.83 135.69C208.25 139.79 207.81 143.92 207.17 148.02C206.46 152.61 205.6 157.18 204.77 161.75C204.57 162.82 203.5 163.83 204.72 164.96C204.92 165.14 204.92 165.91 204.72 166.09C201.94 168.69 203.73 172.34 202.54 175.39C201.43 178.22 201.54 181.49 200.77 184.48C199.92 187.75 199.64 190.99 200.08 194.3C200.16 194.88 200.65 195.41 200.92 195.9H200.89Z" fill="#0197D2"/>
<path d="M473.39 137.29C473.52 137.29 473.68 137.36 473.78 137.31C478.47 135 483.15 132.66 487.85 130.38C493.26 127.76 498.65 125.07 504.81 124.6C506.08 124.5 507.32 123.94 508.59 123.86C511.33 123.69 514.05 123.75 516.69 124.76C517.99 125.25 519.4 125.45 520.89 125.81C521.65 129.81 518.7 132.22 516.6 134.76C512.87 139.26 508.34 143.08 503.41 146.11C500.41 147.95 498.23 151.08 494.48 151.82C493.47 152.02 492.71 153.31 491.75 153.99C488.62 156.2 485.51 158.46 482.27 160.49C480.58 161.55 478.59 162.12 476.78 162.98C473.85 164.38 471.86 167.09 468.87 168.51C466.01 169.87 463.43 171.81 460.69 173.42C456.57 175.84 453.03 179.19 448.55 181.05C446.43 184.81 441.61 185.11 439.14 188.42C436.71 188.62 435.92 191.51 434.12 191.94C431.98 192.44 430.98 194.24 429.05 194.92C427.06 195.62 425.47 197.39 423.61 198.53C421.01 200.12 418.96 202.45 415.87 203.47C414.18 204.03 412.96 206.03 411.12 207.78C408.63 206.8 406.44 209.31 404.49 210.82C399.58 214.63 393.78 216.01 388.19 217.99C385.55 218.93 382.74 219.59 379.95 219.85C377.81 220.05 375.57 219.52 373.41 219.13C370.13 218.54 366.88 217.78 363.61 217.12C360.54 216.5 358.03 214.93 355.47 213.12C350.68 209.73 346.33 206.03 343 201.12C340.45 197.35 338.76 193.42 339.03 188.77C339.23 185.38 341.2 183.08 344.02 181.91C350.62 179.16 357.55 177.7 364.76 177.84C368.86 177.92 372.97 177.89 377.08 177.84C383.1 177.78 389.05 178.32 394.97 179.38C396.34 179.63 397.79 179.42 399.91 179.42C398.2 178.74 397.2 178.34 396.2 177.94C396.31 175.33 394.11 174.85 392.44 173.96C389.75 172.52 387 171.2 384.28 169.82C384.82 168.82 385.55 167.88 385.87 166.82C386.68 164.09 388.78 161.48 386.54 158.5C389.29 157.11 391.08 158.93 392.86 159.9C397.55 162.44 402.06 165.29 406.67 167.98C408.06 168.79 408.49 168.44 408.81 166.67C405.85 165.06 402.92 163.59 400.1 161.92C396.79 159.95 393.49 157.96 390.37 155.72C384.21 151.3 378.13 146.75 372.09 142.15C369 139.8 366.1 137.2 363.05 134.8C362.39 134.28 361.47 134.1 360.35 133.62C360.59 132.72 360.6 131.61 361.12 130.84C365.31 124.69 369.62 118.62 373.82 112.48C375.62 109.84 377.25 107.09 379.25 103.93C380.05 104.12 381.38 104.04 382.11 104.67C384.43 106.66 387.12 108.04 389.93 107.03C393.48 105.75 397.54 104.76 399.38 100.84C400.1 99.2899 401.21 99.1899 402.55 99.1899C404.72 102.15 406.32 105.66 410.55 107.33C410.55 104.47 410.42 101.98 410.6 99.5099C410.72 97.8599 411.09 96.1699 411.69 94.6299C413.52 89.8899 417.59 87.6499 422.02 85.9999C423.45 85.4699 425.11 85.1999 426.23 86.8799C416.43 94.7799 415.59 115.06 424.77 122.19C426.79 121.72 427.71 120.38 428.14 118.39C428.27 117.78 429.43 116.91 429.98 117C430.84 117.14 431.26 117.91 430.86 119.13C430.1 121.45 429.71 123.89 429.16 126.28C428.63 125.97 428.1 125.67 427.41 125.27C426.86 130.68 427.14 135.8 427.38 141.14C428.1 140.85 428.57 140.67 429.04 140.49C429.49 140.87 430.22 141.17 430.34 141.63C430.75 143.26 430.76 144.99 431.26 146.58C431.99 148.92 432.79 151.23 435.85 151.75C437.98 152.11 439.53 153.66 440.71 155.49C441.11 156.11 441.61 156.67 442.39 157.69C444.62 155.83 446.68 154.12 448.73 152.41C450.25 151.96 452.18 150.68 453.4 149.33C456.88 147.3 460.38 145.3 463.83 143.23C467.03 141.31 470.19 139.3 473.36 137.33L473.39 137.29ZM409.38 129.43C410.71 129.04 413.37 128.43 415.91 127.48C419.17 126.26 419.47 124.43 416.95 121.89C412.67 117.57 407.43 114.68 402.04 112.06C400.8 111.46 399.28 111.23 397.88 111.16C393.55 110.93 391.18 114.43 392.82 118.47C394.21 121.89 396.79 124.2 399.7 126.34C402.22 128.19 404.85 129.39 409.38 129.43Z" fill="#F6D3B8"/>
<path d="M384.28 169.81C387 171.18 389.75 172.51 392.44 173.95C394.11 174.84 396.31 175.32 396.2 177.93C391.7 177.38 387.19 176.8 382.68 176.3C381.37 176.16 380.03 176.34 378.71 176.23C376.39 176.04 373.92 175.11 371.81 175.65C369.5 176.24 367.55 175.65 365.41 175.57C361.92 175.43 358.34 175.71 354.9 176.36C351.4 177.03 347.97 178.21 344.6 179.43C341.06 180.72 337.8 182.52 336.01 186.14C335.18 187.82 334.98 189.4 335.37 191.36C336.13 195.25 337.79 198.75 339.97 201.84C342.03 204.76 344.75 207.3 347.51 209.62C350.95 212.52 354.57 215.26 358.78 217.04C361.49 218.18 364.27 219.19 367.42 220.42C367.69 221.26 368.12 222.58 368.61 224.07C364.99 226.03 361.27 225.62 357.55 225.26C356.6 225.17 355.63 225.24 354.68 225.28C354.3 225.29 353.86 225.57 353.55 225.45C349.58 223.93 345.37 225.47 341.46 224.61C334.81 223.15 327.93 224.84 321.31 222.48C318.23 221.38 314.6 221.87 311.23 221.5C307.24 221.06 303.28 220.46 299.29 219.98C298.38 219.87 297.44 219.93 296.51 219.94C291.8 220 287.17 219.46 282.59 218.38C282.34 218.32 282.06 218.35 281.8 218.35C270.35 218.08 258.89 217.52 247.45 217.68C241.67 217.76 235.92 219.15 230.14 219.89C228.98 220.04 227.79 219.91 226.38 219.91C225.78 216.64 225.04 213.52 224.66 210.36C224.22 206.61 224.13 202.81 223.8 199.05C223.63 197.12 223.54 195.12 222.96 193.3C221.47 188.63 222.67 183.9 222.12 178.8C226.33 178.2 230.38 177.66 234.42 177.05C237.48 176.58 240.52 176.02 243.58 175.52C243.97 175.46 244.37 175.5 244.77 175.47C249.07 175.21 253.46 175.36 257.67 174.57C263.19 173.53 268.69 174.22 274.18 173.85C277.41 173.63 280.16 174.32 282.34 177.23C283.15 175.83 283.84 174.63 284.59 173.33C287.38 172.34 289.41 173.58 291.31 175.75C293.31 178.03 295.65 179.94 299.05 179.44C299.68 179.35 300.71 179.33 300.86 178.99C301.85 176.62 304.69 177.11 306.08 175.46C307.42 173.87 308.82 172.33 310.07 170.67C313.87 165.61 317.61 160.51 321.38 155.43C321.69 155.01 322.18 154.65 322.32 154.19C323.4 150.64 326.19 149.99 329.33 150.09C335.04 150.29 340.61 151.45 346.13 152.81C354.3 154.83 361.81 158.5 369.21 162.38C373.54 164.65 377.72 167.19 382.02 169.52C382.65 169.86 383.52 169.74 384.28 169.83V169.81Z" fill="#D98FB7"/>
<path d="M473.39 137.29C470.21 139.26 467.06 141.27 463.86 143.19C460.41 145.26 456.91 147.26 453.43 149.29C451.88 149.94 450.32 150.57 448.81 151.29C448.66 151.36 448.77 152 448.76 152.37C446.7 154.08 444.65 155.79 442.42 157.65C441.64 156.63 441.14 156.07 440.74 155.45C439.56 153.62 438.02 152.07 435.88 151.71C432.82 151.19 432.02 148.88 431.29 146.54C430.79 144.95 430.78 143.22 430.37 141.59C430.25 141.13 429.52 140.83 429.07 140.45C429.37 139.92 429.92 139.39 429.93 138.85C429.96 137.46 429.73 136.07 429.65 134.68C429.48 131.87 429.34 129.06 429.19 126.24C429.73 123.85 430.12 121.41 430.89 119.09C431.29 117.86 430.87 117.09 430.01 116.96C429.46 116.87 428.3 117.75 428.17 118.35C427.74 120.34 426.82 121.68 424.8 122.15C415.62 115.01 416.46 94.7398 426.26 86.8398C425.14 85.1598 423.48 85.4198 422.05 85.9598C417.62 87.6198 413.55 89.8498 411.72 94.5898C411.12 96.1298 410.75 97.8197 410.63 99.4697C410.45 101.94 410.58 104.43 410.58 107.29C406.35 105.62 404.74 102.11 402.58 99.1498C402.34 98.4398 402.14 97.7098 401.86 97.0098C399.51 91.1898 399.18 85.3797 402.54 79.8697C403.63 78.0797 405.31 76.4498 407.08 75.3198C410.62 73.0598 414.66 72.0698 418.89 72.1998C422.9 72.3298 426.88 71.8097 430.86 73.4697C432.97 74.3497 434.51 75.5898 435.69 77.1898C437.85 80.1298 439.7 83.2998 441.55 86.4598C444.01 90.6498 446.25 94.9698 448.74 99.1498C452.6 105.64 456.54 112.09 460.53 118.5C462.16 121.12 464.16 123.51 465.71 126.17C467.24 128.81 468.41 131.65 469.92 134.76C470.73 134.86 472 135 473.26 135.15C473.32 135.96 473.37 136.61 473.42 137.27L473.39 137.29Z" fill="#EFB445"/>
<path d="M66.5506 73.7597C69.7206 72.4497 73.0706 71.4397 76.0406 69.7597C81.9506 66.4197 87.6606 62.6997 93.4606 59.1497C99.5706 55.4097 105.681 51.6797 111.811 47.9797C114.881 46.1297 118.001 44.3497 121.131 42.5997C121.761 42.2497 122.541 42.1597 123.251 41.9497C124.481 47.9397 125.701 53.6997 126.831 59.4897C127.091 60.8297 126.931 62.0797 125.291 62.6697C121.201 64.1397 117.261 66.2797 113.061 67.0697C107.891 68.0397 103.271 70.0797 98.6906 72.3697C96.5606 73.4297 94.6706 74.9897 93.0306 76.9597C99.1806 74.3497 105.171 71.1497 111.541 69.2897C117.861 67.4397 123.701 63.9297 130.481 63.3497C130.991 69.3897 131.071 75.1497 132.071 80.7597C133.051 86.2697 134.961 91.6097 136.531 97.2997C135.551 97.4197 134.701 97.5997 133.841 97.6097C127.621 97.6397 121.391 97.7697 115.171 97.5597C112.091 97.4597 109.051 96.6197 105.961 96.3097C103.481 96.0597 100.961 96.1797 98.4706 96.0097C96.1406 95.8497 93.8306 95.4697 91.5106 95.2497C88.1906 94.9397 85.0806 95.5997 82.2106 97.3697C81.1206 98.0397 79.9106 98.5297 78.8806 99.2697C77.1706 100.49 75.9306 99.9997 74.3306 98.8397C72.7506 97.6997 71.8306 95.7097 69.7306 95.2697C69.1506 94.4397 68.5706 93.6197 67.9906 92.7897C67.4606 90.2997 69.8706 90.2397 71.4206 88.8697C69.0106 89.2097 67.5206 88.5997 66.8006 86.4897C66.5806 85.8497 65.7606 85.2597 65.0806 84.9497C62.6906 83.8697 60.2406 82.9197 57.3506 81.7197C57.9906 80.4297 58.6406 79.1197 59.2906 77.8097C62.0006 76.9697 64.4606 75.6897 66.5506 73.7397V73.7597ZM72.4406 87.7697C72.4706 88.1197 72.5006 88.4697 72.5206 88.8197C75.6206 85.9497 79.0706 90.8297 82.3806 87.7397C79.4206 87.2197 76.7106 86.7397 73.8906 86.2497C73.5806 86.5797 73.0106 87.1797 72.4406 87.7797V87.7697ZM84.6406 85.0397C84.8406 85.2397 85.0406 85.4497 85.2406 85.6497C86.1906 84.0597 88.7006 83.5397 88.4406 80.2097C86.8606 82.2197 85.7506 83.6297 84.6306 85.0397H84.6406Z" fill="#F6D3B8"/>
<path d="M130.311 59.5299C129.681 57.4899 128.891 55.5899 128.541 53.6099C127.861 49.7899 127.391 45.9399 126.911 42.0899C126.671 40.1899 126.981 38.7799 129.111 37.6699C137.671 33.1999 146.051 28.3699 154.571 23.8099C159.311 21.2699 164.231 19.0499 169.021 16.5999C172.821 14.6599 176.511 12.5099 180.311 10.5699C182.601 9.39991 185.021 8.47988 187.361 7.40988C189.081 6.62988 190.621 6.9999 191.461 8.5599C192.421 10.3399 193.221 12.2999 193.601 14.2699C194.541 19.2099 195.241 24.1999 195.971 29.1699C196.141 30.3399 195.891 31.5699 196.081 32.7199C196.241 33.6699 196.581 34.7399 197.201 35.4299C198.821 37.2499 198.861 37.7799 196.701 38.4899C193.661 39.4899 190.491 40.1499 187.491 41.2499C182.821 42.9499 177.851 43.4299 173.261 45.6799C168.971 47.7899 164.021 48.4999 159.411 50.0199C155.391 51.3399 151.451 52.9299 147.471 54.3799C142.881 56.0399 138.301 57.7099 133.681 59.2599C132.731 59.5799 131.631 59.4299 130.331 59.5099L130.311 59.5299Z" fill="#0197D2"/>
<path d="M452.681 214.24C454.591 214.57 456.531 214.81 458.401 215.3C458.751 215.39 458.831 216.5 459.001 217.04C458.621 217.31 458.521 217.45 458.411 217.45C446.821 217.75 435.231 218.22 423.641 218.24C419.141 218.25 414.631 217.25 410.131 216.74C408.701 216.58 408.921 215.7 408.981 215.44C410.991 214.1 412.951 213.37 413.971 211.96C415.391 209.99 417.671 209.94 419.351 208.67C422.971 205.95 426.711 203.39 430.461 200.86C433.031 199.12 435.771 197.7 437.731 195.1C438.441 194.16 440.221 194.08 441.401 193.41C442.511 192.77 443.641 192.02 444.461 191.06C447.241 187.79 451.291 186.26 454.611 183.74C458.361 180.89 462.081 177.87 466.151 175.41C468.901 173.74 471.671 173.27 474.631 174.65C478.411 176.42 482.111 178.28 483.391 182.76C484.661 187.22 482.271 193.14 478.621 196.2C472.701 201.16 465.681 203.92 458.431 205.3C451.611 206.6 444.921 208.86 437.821 208.91C435.381 208.93 432.501 209.14 430.211 211.21C433.831 212.32 441.401 213.11 444.741 212.78L444.681 212.74C447.211 213.95 449.841 214.64 452.671 214.21L452.681 214.24Z" fill="#EFB445"/>
<path d="M66.5602 73.7598C64.4702 75.7098 62.0102 76.9898 59.3002 77.8298C58.5202 78.1998 57.7802 78.6897 56.9702 78.9097C55.5102 79.2997 54.9302 80.3898 55.4702 81.5198C55.9702 82.5598 57.1002 83.3698 58.1002 84.0598C58.5502 84.3698 59.3902 84.1897 60.0402 84.1097C62.9802 83.7497 64.2402 86.0298 65.5202 87.8798C66.5102 89.3098 65.4602 91.1698 63.2602 92.8898L63.3502 92.8198C62.9602 92.8298 62.5202 92.7398 62.1702 92.8798C56.2802 95.2998 50.3102 97.5498 44.6002 100.33C43.1402 101.04 41.8302 101.53 40.3002 101.69C38.3802 99.0998 36.6102 96.3698 34.4902 93.9498C33.0802 92.3398 32.8202 90.8598 33.4402 88.9398C34.9802 84.1598 36.4302 79.3497 37.9202 74.5497C38.6902 72.0797 39.6602 69.6398 40.1902 67.1198C40.7502 64.4998 40.9102 61.7897 41.2002 59.1097C41.4502 56.8097 42.0102 54.4498 41.7202 52.2098C41.4402 49.9698 41.2302 47.1598 37.9202 46.8298C38.1402 40.9898 40.1302 35.5698 41.8902 30.0898C42.9102 30.0898 43.9302 30.0898 44.9602 30.0898C45.5702 31.1398 46.1702 32.1798 46.8402 33.3398C48.0102 32.0498 48.9202 31.0398 49.8402 30.0298C50.3402 30.3298 51.2302 30.5598 51.3002 30.9398C51.9402 34.4898 52.4502 38.0598 52.9702 41.6198C53.2702 43.6598 53.5502 45.7098 53.7602 47.7598C53.9202 49.3498 53.5802 50.5298 51.6102 50.8398C50.7102 50.9798 49.9302 51.9098 48.5602 52.8398C51.1502 52.6098 53.0602 52.4298 54.7002 52.2798C55.4802 55.3898 56.2802 58.0798 56.8102 60.8198C57.1602 62.6498 57.4302 64.6398 55.3302 65.9598C56.3702 67.4798 57.8002 68.0498 59.5902 68.2598C62.1002 68.5598 64.5802 69.1197 67.5302 69.6597C67.1202 71.3697 66.8302 72.5598 66.5502 73.7498L66.5602 73.7598Z" fill="#80B7E1"/>
<path d="M41.9202 30.0897C40.1602 35.5697 38.1702 40.9897 37.9502 46.8297C38.0802 47.5597 38.0102 48.7797 38.3902 48.9397C39.7702 49.5297 39.4602 50.5997 39.4702 51.5797C39.4902 56.3397 39.4902 61.0897 39.4702 65.8497C39.4702 66.6197 39.5002 67.5497 39.1102 68.1297C37.7502 70.1397 37.7802 72.3097 37.9502 74.5497C36.4602 79.3497 35.0102 84.1597 33.4702 88.9397C32.8502 90.8597 33.1002 92.3397 34.5202 93.9497C36.6402 96.3697 38.4102 99.0897 40.3302 101.69V107.56C35.4802 108.57 31.0402 111.18 26.0502 108.37C25.7602 103.89 25.2402 99.3497 25.2402 94.8197C25.2402 90.1397 25.7502 85.4597 26.0602 80.7797C26.1602 79.2097 26.3202 77.6397 26.4402 76.0697C26.5802 74.4097 26.7102 72.7397 26.8702 70.8197C25.4302 70.6897 24.3002 70.5897 23.1302 70.4897C20.4202 65.9197 17.6802 61.4197 15.1002 56.8297C14.5002 55.7697 14.4602 54.3997 14.1602 53.1797C14.6002 52.9297 15.0302 52.6697 15.4702 52.4197C18.4702 52.4397 18.4602 52.4497 21.5802 54.6297C21.8402 54.8097 22.3202 54.6897 22.7002 54.7097C24.0702 56.4597 25.4502 58.1997 26.9802 60.1597H29.2102C29.9802 55.9797 30.7402 51.8597 31.5002 47.7497C32.5702 44.7897 33.6802 41.8497 34.6902 38.8697C35.9802 35.0297 36.6602 30.9497 39.3202 27.6797C40.1302 27.7197 40.9402 27.7497 41.7402 27.7897C41.7902 28.5697 41.8502 29.3397 41.9102 30.1197L41.9202 30.0897Z" fill="#0197D2"/>
<path d="M31.5106 47.7196C30.7506 51.8396 29.9905 55.9596 29.2205 60.1296H26.9905C25.4505 58.1696 24.0806 56.4296 22.7106 54.6796C20.9706 51.6796 18.3706 50.4396 14.9406 50.8696C12.4206 47.5296 11.1706 43.6396 10.0806 39.6796C11.8306 39.8096 13.5806 39.9496 15.5906 40.0996C15.3606 38.5796 15.1306 37.1096 14.9006 35.6396C16.6806 35.4596 18.0506 36.0096 19.3806 37.3496C22.2406 40.2196 25.3005 42.8896 28.3505 45.5696C29.3005 46.3996 30.4505 47.0096 31.5005 47.7096L31.5106 47.7196Z" fill="#80B7E1"/>
<path d="M68.0002 92.7998C68.5802 93.6298 69.1602 94.4498 69.7402 95.2798C69.8602 97.9298 68.8702 99.8298 66.5802 101.42C62.5902 104.18 58.6802 106.98 53.8402 108.04C52.9502 106.01 52.1702 103.92 50.5202 102.34C50.3602 100.53 51.2602 99.6398 52.8702 98.8198C56.4602 96.9998 60.3902 95.7198 63.3702 92.8198L63.2802 92.8898C64.8602 92.8598 66.4302 92.8298 68.0102 92.7998H68.0002Z" fill="#80B7E1"/>
<path d="M50.5101 102.34C52.1601 103.92 52.9401 106.02 53.8301 108.04C53.8101 108.96 53.7101 109.89 53.8001 110.79C54.0301 113.21 53.6001 115.4 51.5501 117.4C48.8901 117.81 46.5601 116.99 45.0101 114.24C44.5701 113.46 43.9502 112.74 43.2702 112.16C40.9202 110.16 41.3801 107.3 42.2601 105.3C42.8901 103.86 45.5401 103.18 47.3901 102.45C48.3001 102.09 49.4702 102.35 50.5202 102.34H50.5101Z" fill="#0197D2"/>
<path d="M14.9004 35.6397C15.1304 37.1097 15.3504 38.5797 15.5904 40.0997C13.5804 39.9497 11.8304 39.8097 10.0804 39.6797C9.24038 38.8997 8.41037 38.1097 7.57037 37.3297C6.84037 36.2897 5.75038 35.3497 5.45038 34.1997C4.93038 32.2497 4.90035 30.1697 4.61035 27.6797C6.01035 27.8497 7.61034 27.5597 8.41034 28.2297C10.9303 30.3497 13.7703 32.2897 14.9103 35.6497L14.9004 35.6397Z" fill="#0197D2"/>
<path d="M49.8602 30.0298C48.9502 31.0398 48.0402 32.0498 46.8602 33.3398C46.1902 32.1898 45.5902 31.1398 44.9802 30.0898C44.7202 28.2798 44.4602 26.4598 44.2002 24.6498C44.2202 23.8698 44.2502 23.0897 44.2702 22.2997C44.6602 21.2797 45.0502 20.2597 45.6302 18.7397C46.8502 19.0997 48.7802 19.0897 49.2802 19.9297C50.1302 21.3497 50.2602 23.2997 50.3402 25.0397C50.4102 26.6897 50.0402 28.3598 49.8602 30.0198V30.0298Z" fill="#0197D2"/>
<path d="M7.57021 37.3301C8.41021 38.1101 9.24022 38.9001 10.0802 39.6801C11.1702 43.6401 12.4202 47.5301 14.9402 50.8701C15.1202 51.3801 15.2902 51.8901 15.4702 52.4001C15.0302 52.6501 14.6002 52.91 14.1602 53.16C12.0502 49.07 9.87021 45.0201 7.88021 40.8801C7.39021 39.8601 6.76021 38.5801 7.57021 37.3301Z" fill="#0173A0"/>
<path d="M44.2706 22.3C44.2506 23.08 44.2206 23.86 44.2006 24.65C43.3806 25.69 42.5705 26.72 41.7505 27.76C40.9405 27.72 40.1306 27.69 39.3306 27.65C40.2306 25.55 41.1206 23.45 42.0706 21.23C43.1206 21.74 43.7006 22.02 44.2706 22.3Z" fill="#017BAB"/>
<path d="M409.38 129.43C404.85 129.39 402.22 128.19 399.7 126.34C396.79 124.2 394.21 121.89 392.82 118.47C391.18 114.43 393.55 110.93 397.88 111.16C399.29 111.23 400.8 111.46 402.04 112.06C407.43 114.68 412.68 117.58 416.95 121.89C419.47 124.44 419.17 126.26 415.91 127.48C413.38 128.43 410.72 129.04 409.38 129.43Z" fill="white"/>
<path d="M361.24 131.85C360.81 129.45 361.93 127.49 363.17 125.65C368.25 118.11 373.42 110.64 378.52 103.12C380.44 100.29 381.34 99.9701 383.67 102.44C385.8 104.7 387.93 104.8 390.39 103.5C393.5 101.85 396.56 100.09 399.65 98.3801C397.81 93.9901 396.84 90.0701 397.59 85.6701C398.71 79.1701 402.3 74.8201 408.19 72.4601C415.03 69.7201 422.18 68.6901 429.48 70.4301C432.74 71.2101 435.37 72.6701 436.38 76.4501C436.96 78.6401 438.68 80.5601 440.02 82.5101C445.01 89.7901 450.11 97.0101 455.05 104.32C458.6 109.56 462.01 114.9 465.42 120.24C467.97 124.23 470.44 128.28 472.9 132.33C473.3 132.98 473.49 133.77 473.95 134.92C475.23 134.34 476.51 133.81 477.76 133.18C482.8 130.67 487.69 127.8 492.89 125.68C500.77 122.47 509 120.83 517.58 122.29C525.34 123.61 526.85 126.78 522.43 133.32C519.35 137.88 515.88 142.2 511.37 145.55C506.84 148.92 502.72 152.98 497.84 155.69C493.73 157.98 490.71 161.92 485.98 163.15C485.4 163.3 484.83 163.84 484.44 164.34C482.36 167.05 479.24 168.24 476.49 169.97C475.55 170.56 474.72 171.34 473.47 172.33C475.2 173.29 476.44 173.95 477.64 174.66C478.89 175.4 480.18 176.08 481.31 176.98C487.3 181.73 488 188.78 482.88 194.6C478.62 199.44 473.32 202.83 467.22 204.97C465.39 205.61 463.61 206.41 461.95 207.7C464.34 207.7 466.74 207.74 469.13 207.7C477.68 207.54 486.23 207.19 494.78 207.21C503.58 207.24 512.31 208.34 521 209.74C523.33 210.11 525.33 211.18 526.76 212.95C530.81 217.96 534.92 222.95 538.63 228.21C541.73 232.61 544.32 237.37 547.09 242C547.63 242.9 548.04 243.9 548.44 244.87C551.2 251.55 545.16 258.31 538.93 258.08C532.74 257.85 526.53 258.04 520.34 257.95C510.35 257.81 500.35 257.5 490.36 257.44C485.1 257.4 479.83 257.84 474.57 257.86C469.96 257.87 465.35 257.51 460.74 257.47C457.85 257.44 454.96 257.8 452.08 257.81C447.99 257.82 443.9 257.62 439.8 257.6C434.95 257.58 430.09 257.66 425.24 257.69C419.97 257.73 414.69 257.76 409.42 257.8C407.59 257.81 405.76 257.86 403.93 257.86C395.76 257.86 387.58 257.91 379.41 257.83C372.19 257.75 364.98 257.43 357.76 257.37C351.57 257.32 345.37 257.52 339.18 257.55C334.72 257.57 330.26 257.43 325.8 257.46C320.55 257.5 315.3 257.73 310.06 257.75C304.44 257.77 298.81 257.61 293.19 257.55C287.95 257.5 282.72 257.47 277.48 257.45C273.12 257.43 268.77 257.38 264.41 257.42C261.92 257.44 259.43 257.7 256.94 257.68C248.51 257.63 240.07 257.47 231.64 257.45C227.98 257.45 224.32 257.75 220.66 257.78C217.12 257.81 213.57 257.63 210.03 257.64C201.33 257.64 192.63 257.78 183.93 257.72C174.95 257.66 165.97 257.4 156.99 257.3C149.73 257.22 142.47 257.3 135.21 257.25C120.28 257.17 105.35 257.09 90.4201 256.95C83.9901 256.89 77.5601 256.66 71.1401 256.58C61.6801 256.46 52.2101 256.39 42.7501 256.35C41.3001 256.35 39.8001 256.36 38.4201 256.73C36.3001 257.29 35.0801 256.39 34.3101 254.65C33.8401 253.59 33.5201 252.41 33.3801 251.26C33.0001 248.21 34.3701 245.35 34.2501 242.18C34.1401 239.28 35.9801 236.2 37.3201 233.36C39.7301 228.26 42.2501 223.19 45.0401 218.29C46.7901 215.21 48.9601 212.32 51.2801 209.64C52.2901 208.47 54.1101 207.47 55.6401 207.36C63.7501 206.79 71.8801 206.54 80.0001 206.14C85.7901 205.85 91.5701 205.33 97.3501 205.22C105.39 205.06 113.44 205.18 120.98 205.18C122.8 203.72 122.42 202.25 122.04 201.09C119.7 194.01 120.92 186.85 121.7 179.78C122.22 175.01 123.31 170.3 125 165.65C126.41 161.75 127.38 157.6 128.91 153.68C131.06 148.17 133.37 142.76 136.73 137.83C139.21 134.19 141.34 130.32 143.76 126.64C145.19 124.46 146.77 122.36 148.47 120.38C153.82 114.12 159.26 107.93 164.67 101.72C165.17 101.15 165.67 100.44 166.32 100.16C168.01 99.4401 168.19 97.8601 169.41 96.2901C164.26 97.7201 159.81 99.1101 155.28 100.18C152.47 100.85 149.55 101.05 146.68 101.45C145.55 101.61 144.5 101.45 143.8 102.94C142.73 105.22 140.61 105.72 138.76 104C137.29 102.64 135.83 102.51 134.08 102.53C123.37 102.66 112.71 102.02 102.14 100.14C98.6501 99.5201 95.1501 98.9601 91.6301 98.4901C88.4201 98.0601 85.2801 98.2301 82.5601 100.35C82.0401 100.75 81.4601 101.09 80.9001 101.44C78.4901 102.95 76.1401 102.78 73.9001 101.09C73.0701 100.46 72.3201 99.7301 71.3701 98.8901C70.5501 99.6301 69.6901 100.21 69.0601 100.98C66.4001 104.25 62.7401 106.13 59.0501 107.81C56.9001 108.79 56.1801 110.06 55.9801 112.29C55.6501 115.82 54.6901 119.14 50.4401 120.05C45.4601 118.23 44.8301 117.71 39.7201 111.07C38.3301 111.39 36.8401 111.81 35.3101 112.05C33.6301 112.31 31.8901 112.68 30.2301 112.49C27.3201 112.15 25.1501 110.8 24.2801 107.59C22.7501 101.92 22.6501 96.1601 22.6201 90.3801C22.6101 88.2701 22.5701 86.1601 22.6601 84.0501C22.7501 82.2101 22.5501 80.1601 23.3001 78.5801C24.7301 75.5601 23.6101 73.4701 21.9901 71.0001C14.4401 59.5201 7.70011 47.6101 4.13011 34.1901C3.44011 31.5801 2.46011 28.8701 4.63011 26.2001C9.01011 27.2301 12.8701 28.7401 16.5101 31.7301C21.4901 35.8301 25.8701 40.5001 30.5901 44.8201C30.7501 44.9601 31.0501 44.9501 31.2901 45.0101C33.0401 40.0701 34.6201 35.0501 36.6001 30.2001C37.9301 26.9301 39.7801 23.8601 41.5001 20.7601C42.0001 19.8601 42.8301 19.1101 43.6101 18.4001C46.4901 15.7701 48.5901 16.5701 50.2201 20.0701C53.4401 26.9901 53.9501 34.3601 54.5501 41.7601C54.5701 42.0201 54.6701 42.2801 54.6601 42.5401C54.5801 45.1001 55.3001 47.1301 58.6101 47.5001C57.8601 48.7601 57.3701 49.6401 56.8401 50.4901C55.1101 53.2901 55.6201 54.7101 59.0901 56.1401C58.1101 57.8101 55.7001 59.1501 57.4901 61.5501C61.5501 62.3001 62.2201 61.8001 61.0301 65.9201C64.0901 67.3801 68.3101 66.6701 70.2301 71.0701C73.2701 69.4501 76.2101 68.0601 78.9801 66.3801C86.3001 61.9501 93.5401 57.4001 100.8 52.8801C108.48 48.1001 116.04 43.0901 123.87 38.5601C132.28 33.6901 140.97 29.3101 149.5 24.6401C161.98 17.8201 174.43 10.9501 186.89 4.09012C190.41 2.15012 193.68 2.74008 196.27 6.30008C197.72 8.29008 199.09 10.5901 199.62 12.9401C200.79 18.0801 201.53 23.3201 202.19 28.5501C202.64 32.1001 201.15 34.6301 198.56 35.7201C196.58 36.5501 195.6 36.1201 195.04 34.1201C194.9 33.6201 194.85 33.0901 194.8 32.5701C194.17 26.7201 193.55 20.8601 192.92 15.0101C192.86 14.4801 192.81 13.9501 192.68 13.4401C191.42 8.20009 189.91 7.3601 185.05 9.3901C182.74 10.3501 180.51 11.5001 178.3 12.6701C171.78 16.1301 165.3 19.6601 158.78 23.1401C149.35 28.1701 139.9 33.1501 130.48 38.1901C129.35 38.7901 128.34 39.6001 127.36 40.2501C128.43 46.5301 129.44 52.4801 130.52 58.8201C132.24 58.5201 133.55 58.4701 134.73 58.0601C139.45 56.4201 144.12 54.6401 148.82 52.9501C153.4 51.3101 157.99 49.7001 162.6 48.1401C167.43 46.5001 172.25 44.8401 177.13 43.3501C185.03 40.9201 192.97 38.6201 200.89 36.2601C203.91 35.3601 206.86 34.1801 209.93 33.5601C213.92 32.7601 217.97 32.2101 222.03 31.8901C224.63 31.6801 225.72 33.0001 226.2 35.5901C227.23 41.0901 226.84 46.5501 226.52 52.1101C225.97 61.4901 224.04 70.6701 223.15 79.9801C222.79 83.7901 222.57 87.6101 222.17 91.4101C221.7 95.8601 221.08 100.3 220.59 104.75C220.03 109.86 219.46 114.97 219.03 120.08C218.38 127.83 217.87 135.58 216.3 143.24C214.98 149.69 214.35 156.27 213.28 162.77C212.58 167.02 211.63 171.23 210.8 175.45C211.05 175.59 211.29 175.73 211.54 175.87C212.38 174.87 213.18 173.83 214.08 172.89C214.89 172.04 215.76 170.97 217.11 171.7C218.3 172.34 217.94 173.46 217.64 174.52C217.51 174.98 217.55 175.5 217.49 176.36C218.62 176.15 219.81 176.3 220.25 175.79C222.1 173.62 224.68 173.46 227.09 173.21C234.44 172.44 241.81 171.73 249.19 171.33C257.23 170.89 265.29 170.9 273.33 170.54C276.68 170.39 279.3 171.26 281.02 174.27C281.1 174.42 281.48 174.4 282.01 174.54C282.22 173.69 282.39 172.82 282.65 171.98C283.71 168.6 285.87 167.88 288.61 170.14C290.63 171.8 292.53 173.62 294.4 175.45C296.21 177.23 297.07 177.57 299.26 176.25C300.8 175.32 302.28 174.08 303.38 172.67C308.13 166.52 312.82 160.32 317.37 154.02C321.54 148.25 327.26 147.72 333.62 148.59C340.27 149.5 346.72 151.24 353.09 153.25C355.68 154.07 358.12 155.39 360.54 156.65C366.38 159.68 372.15 162.82 377.98 165.86C379.12 166.46 380.41 166.78 381.53 167.19C385.67 163 385.14 156.38 380.93 153.03C374.48 147.89 367.58 143.26 362.13 136.95C360.75 135.36 359.79 133.75 361.24 131.7C363.03 133.39 364.7 135.24 366.64 136.73C379.83 146.81 392.91 157.08 407.85 164.76C414.63 159.85 421.51 154.87 428.48 149.81C426.09 142.55 425.08 134.81 426.23 126.8C426.36 125.87 425.57 124.71 424.98 123.8C424.58 123.19 423.74 122.89 423.16 122.37C419.43 118.99 417.46 114.65 416.53 109.51C413.31 111.49 410.84 110.47 408.57 108.2C406.09 105.73 403.53 103.35 401.24 101.16C399.51 102.61 397.96 104.19 396.14 105.34C394.49 106.38 392.57 107.03 390.72 107.7C386.17 109.36 383.02 108.06 380.67 103.68C378.28 107.45 375.95 111.26 373.47 114.97C370.17 119.9 366.79 124.78 363.38 129.64C362.8 130.46 361.92 131.08 361.18 131.79L361.24 131.85ZM432.88 162.81C431.74 162.94 430.32 162.67 429.51 163.25C425.69 166.03 422.21 164.86 418.72 162.71C419.18 166.67 423.33 169.14 426.97 167.26C429.12 166.15 430.85 164.25 432.77 162.7C433.69 162.17 434.6 161.64 435.97 160.84C434.67 159.94 433.91 159.41 432.3 158.29C432.57 160.42 432.73 161.61 432.88 162.79V162.81ZM447.15 210.56C447.12 210.79 447.09 211.02 447.06 211.25C448.13 211.44 449.19 211.67 450.26 211.82C454.83 212.47 459.41 213.01 463.95 213.82C464.94 213.99 466.62 215.37 466.51 215.7C466.1 216.95 465.28 218.63 464.23 218.97C462.17 219.64 459.86 219.58 457.64 219.68C456.62 219.73 455.58 219.29 454.56 219.35C448.91 219.68 443.26 220.26 437.61 220.45C432.48 220.62 427.33 220.57 422.2 220.33C417.21 220.1 412.24 219.39 407.25 219.16C405.64 219.08 403.86 219.58 402.37 220.26C398.38 222.08 394.3 223.48 389.92 223.98C388.51 224.14 387.02 224.37 385.76 224.98C377.03 229.2 367.74 231.01 358.16 231.05C348.66 231.09 339.14 230.76 329.65 230.19C320.58 229.64 311.53 228.55 302.47 227.75C298 227.36 293.51 227.1 289.03 226.8C282.85 226.39 276.67 225.75 270.48 225.66C262.97 225.55 255.45 225.73 247.95 226.1C238.41 226.57 229.1 228.15 220.39 232.47C215.7 234.8 210.87 236.96 205.62 237.81C200.18 238.7 194.75 239.71 189.27 240.26C179.62 241.22 170.08 239.99 160.6 238.15C157.32 237.51 154.25 236.42 151.46 234.56C148.62 232.67 145.88 230.6 142.93 228.91C134.88 224.29 129.23 217.29 123.62 209.83C122.36 209.83 120.92 209.81 119.48 209.83C111.57 209.94 103.66 210.04 95.7501 210.18C90.6101 210.27 85.4601 210.3 80.3201 210.57C73.3401 210.93 66.3701 211.46 59.4001 211.96C57.5601 212.09 55.6901 212.72 53.9201 212.5C51.7101 212.22 50.4801 212.94 49.4301 214.77C44.5301 223.34 39.9001 231.96 37.5501 241.73C36.6501 245.46 36.3401 248.77 37.4501 252.51C39.5401 253.13 41.6401 254.28 43.7401 254.3C58.4001 254.41 73.0701 254.34 87.7301 254.21C103.54 254.08 119.35 253.74 135.17 253.65C166.23 253.47 197.29 253.39 228.35 253.3C248.84 253.25 269.33 253.27 289.82 253.25C313.98 253.23 338.14 253.19 362.3 253.19C371 253.19 379.72 253.69 388.38 253.14C396.21 252.64 404.01 253.4 411.84 252.85C419.66 252.3 427.54 252.68 435.39 252.73C441.39 252.77 447.39 252.93 453.39 253.03C456.14 253.08 458.88 253.18 461.63 253.18C468.92 253.18 476.21 253.12 483.5 253.12C486.77 253.12 490.06 253.47 493.31 253.22C500.78 252.65 508.23 252.36 515.7 253.13C516.09 253.17 516.48 253.19 516.87 253.17C520.4 253.03 523.94 252.81 527.47 252.76C532.85 252.69 538.22 252.74 543.29 252.74C545.16 250.1 545.07 248.03 543.59 245.74C539.97 240.12 536.76 234.22 532.92 228.76C529.69 224.16 525.79 220.04 522.22 215.68C521.49 214.79 520.93 213.76 520.24 212.71C510.1 213.08 500.18 210.19 489.97 210.81C483.7 211.19 477.39 210.7 471.1 210.76C464.28 210.82 457.46 211.27 450.65 210.42C449.5 210.28 448.31 210.5 447.14 210.56H447.15ZM208.03 59.3901C207.48 60.9901 207.31 61.9501 206.84 62.7301C203.84 67.7501 199.81 71.9301 195.71 76.0501C191.16 80.6201 186.49 85.0601 182.06 89.7401C178.26 93.7601 174.79 98.0801 171.09 102.19C166.41 107.37 161.36 112.25 156.98 117.67C152.54 123.17 148.9 129.31 144.57 134.92C138.08 143.33 135.42 153.54 130.92 162.88C130.7 163.33 130.81 163.93 130.72 164.44C130.36 166.52 130.01 168.6 129.59 170.66C128.77 174.67 127.77 178.64 127.09 182.67C126.43 186.59 127.27 190.5 127.47 194.41C127.69 198.74 129.12 202.59 131.15 205.95C137.43 216.33 146.74 223.33 157.94 227.82C164.28 230.36 170.97 231.15 177.72 230.9C183.77 230.67 189.81 229.97 195.85 229.51C204.74 228.84 212.67 225.53 220.14 221.02C220.01 219.29 219.85 217.74 219.79 216.18C219.68 213.58 220.18 210.81 219.45 208.42C217.89 203.34 218.21 198.27 218.46 193.15C218.66 189.02 218.89 184.89 219.1 180.82H214.17C213.85 179.9 213.56 179.05 213.26 178.2C212.32 178.55 211.39 178.91 210.28 179.33C209.57 183.28 208.9 187.3 208.12 191.31C207.26 195.73 206.88 196.05 202.66 196.81C200.17 197.25 198.85 196.36 198.63 193.79C198.49 192.23 198.56 190.6 198.83 189.06C199.87 183.14 201.08 177.24 202.14 171.32C203.23 165.25 204.3 159.18 205.22 153.09C206.54 144.36 207.75 135.62 208.95 126.87C209.7 121.4 210.3 115.9 211.02 110.43C211.84 104.17 212.75 97.9301 213.55 91.6701C214.17 86.8401 214.41 81.9301 215.32 77.1601C217.07 68.0101 219.28 58.9601 221.08 49.8201C221.94 45.4501 222.17 40.9901 220.5 36.4701C219.44 36.5601 218.51 36.5101 217.65 36.7301C209.74 38.7401 201.83 40.7201 193.96 42.8701C190.02 43.9401 186.2 45.4101 182.28 46.5801C178.25 47.7901 174.12 48.7001 170.13 50.0301C162.14 52.6901 154.22 55.5501 146.28 58.3301C143.17 59.4201 140.1 60.6101 136.97 61.6301C135.15 62.2301 134.45 63.3801 134.61 65.2001C134.93 68.7401 134.9 72.3601 135.63 75.8201C136.95 82.0001 138.73 88.0801 140.32 94.2001C140.8 96.0601 141.92 96.7301 143.86 96.4301C146.99 95.9401 150.14 95.6101 153.28 95.2601C158.97 94.6201 164.27 92.6101 169.5 90.4601C171.74 89.5401 173.84 88.1601 175.81 86.7201C179.07 84.3301 182.08 81.6001 185.37 79.2501C191.64 74.7701 196.9 69.2601 201.9 63.4801C203.37 61.7801 204.97 60.3901 208 59.4101L208.03 59.3901ZM396.51 177C395.54 176.4 395.24 176.15 394.89 176.02C387.38 173.16 380.09 169.83 373.09 165.86C365.63 161.63 358.04 157.56 349.83 155.05C343.96 153.25 337.85 152.08 331.78 151.11C328.02 150.51 324.99 151.64 322.57 155.47C318.28 162.24 313.28 168.59 308.2 174.81C306.37 177.05 303.65 178.78 301 180.07C297.51 181.78 294.35 180.15 291.64 177.77C289.82 176.18 288.44 174.02 285.82 173.35C284.9 174.93 284.06 176.37 283.05 178.12C281.95 177.53 280.92 177.22 280.21 176.56C278.63 175.11 276.81 174.63 274.76 174.64C273.44 174.64 272.11 174.49 270.79 174.6C260.01 175.46 249.23 176.26 238.47 177.32C233.39 177.82 228.37 178.87 222.91 179.73C223.86 193.07 225.28 205.99 227.28 219.02C228.46 218.91 229.22 218.84 229.99 218.76C236.67 218.08 243.34 217.06 250.04 216.78C264.58 216.17 279.05 217.35 293.5 218.92C298.49 219.46 303.5 219.74 308.49 220.27C316.6 221.13 324.69 222.35 332.82 222.95C342.3 223.65 351.81 223.86 361.32 224.22C363.23 224.29 365.14 224.07 366.96 223.99C366.87 221.64 365.83 220.73 364.1 220.27C359.84 219.16 356.01 217.1 352.33 214.74C348.42 212.23 345.19 208.99 341.91 205.73C337.58 201.42 335.35 196.27 334.42 190.46C334.04 188.1 334.62 185.86 336.19 183.78C338.64 180.54 342.04 179 345.64 177.72C350.88 175.86 356.39 175.14 361.87 174.87C367.37 174.6 372.91 174.85 378.41 175.2C384.17 175.56 389.91 176.32 396.52 176.99L396.51 177ZM400.98 181.99C400.98 181.74 400.98 181.49 400.97 181.24C399.72 180.97 398.49 180.59 397.23 180.44C386.22 179.11 375.21 178.23 364.09 179.02C357.78 179.46 351.58 179.92 345.67 182.52C341.18 184.49 339.21 187.79 340.39 192.53C340.64 193.55 340.96 194.56 341.33 195.55C343.75 201.92 348.6 206.33 353.7 210.47C358.69 214.53 364.34 216.97 370.85 217.71C375.43 218.23 379.89 219.09 384.49 217.73C391.65 215.62 398.85 213.69 405.06 209.28C406.59 208.19 407.82 206.37 410.2 206.93C410.54 207.01 411.11 206.13 411.57 205.69C412.21 205.07 412.76 204.33 413.48 203.84C416.18 201.99 418.94 200.24 421.66 198.42C427.7 194.38 433.91 190.59 439.73 186.23C442.54 184.13 445.48 182.2 448.42 180.27C452.67 177.48 457 174.79 461.25 172C465.83 169 470.34 165.89 474.94 162.92C479.84 159.75 484.75 156.58 489.77 153.61C497.93 148.78 505.67 143.36 512.77 137.1C515.86 134.37 518.56 131.13 520.21 126.65C517.27 126.07 514.62 125.29 511.93 125.06C504.6 124.43 497.83 126.94 491.38 129.87C483.86 133.28 476.6 137.3 469.35 141.27C457.78 147.59 447.13 155.28 436.88 163.56C428.98 169.94 420.69 175.6 411.51 180.2C402.76 184.58 393.75 185.75 384.31 185.69C383.66 185.69 383.01 185.33 381.79 184.97C388.65 183.91 394.82 182.96 401 182.01L400.98 181.99ZM427.97 116.2C432.58 116 432.72 116.36 431.68 120.49C429.39 129.58 430.35 138.57 432.87 147.48C433.39 149.33 434.42 150.45 436.3 150.79C439.09 151.29 440.84 153.11 442.29 155.66C451.25 147.48 462.14 142.47 472.99 135.42C469.28 136.43 468.36 134.92 467.64 132.53C467 130.43 465.79 128.45 464.6 126.57C462.63 123.46 460.31 120.56 458.4 117.41C450.88 105.01 443.29 92.6501 436.11 80.0601C433.81 76.0301 430.62 74.1201 426.45 73.3801C419.87 72.2101 413.54 73.3001 407.56 76.2101C406.32 76.8201 405.18 77.9101 404.35 79.0401C398.37 87.1301 400.86 98.9801 409.86 104.82C408.55 99.9501 409.36 95.4901 412.14 91.5601C415.16 87.2901 419.17 84.5601 424.73 84.9501C425.82 85.0301 427.05 85.1901 427.08 86.5201C427.1 87.2901 426.53 88.1801 426.02 88.8501C424.99 90.1901 423.39 91.2401 422.79 92.7201C421.37 96.2201 419.87 99.8301 419.38 103.52C418.51 110.08 420.72 115.86 425.72 120.98C426.56 119.21 427.22 117.83 427.99 116.22L427.97 116.2ZM68.9001 92.0201C69.8101 92.8901 70.4701 93.5001 71.1101 94.1301C71.8601 94.8801 72.5501 95.6901 73.3201 96.4101C76.3601 99.2601 76.9001 99.3001 80.4701 97.1501C82.9701 95.6401 85.5401 94.3101 88.6001 94.4801C94.6601 94.8101 100.76 94.8001 106.76 95.5601C115.45 96.6601 124.15 96.9801 132.89 96.9301C133.52 96.9301 134.15 96.7301 135.09 96.5701C133.7 91.1801 131.99 86.0501 131.12 80.7701C130.23 75.3801 130.17 69.8601 129.72 64.0101C126.92 65.0501 124.24 66.0201 121.57 67.0401C113.83 69.9901 106.11 73.0001 98.3601 75.9201C94.5301 77.3701 91.6301 79.7801 89.1401 83.0801C85.8001 87.5201 81.8601 91.2701 75.4001 88.9901C74.5901 88.7101 73.3701 89.2201 72.4801 89.6501C71.3101 90.2201 70.2801 91.0801 68.9101 92.0101L68.9001 92.0201ZM457.5 216.15C452.81 215.5 448.13 214.8 443.44 214.21C439.26 213.68 435.05 213.32 430.87 212.77C430.23 212.69 429.32 212.04 429.19 211.49C429.07 211 429.71 210.07 430.27 209.74C431.14 209.22 432.19 208.91 433.2 208.76C436.19 208.31 439.23 208.09 442.21 207.56C447.26 206.66 452.32 205.74 457.3 204.54C463.85 202.96 470.22 200.88 475.84 196.97C479.09 194.71 481.49 191.86 482.55 187.98C483.29 185.25 482.89 182.87 480.96 180.64C478.73 178.06 475.99 176.41 472.88 175.15C471.25 174.49 469.84 174.5 468.42 175.53C465.98 177.29 463.54 179.05 461.08 180.78C455 185.06 448.93 189.34 442.83 193.59C441.36 194.61 439.75 195.43 438.31 196.48C435.69 198.38 433.19 200.44 430.56 202.32C428.34 203.91 425.97 205.29 423.73 206.87C419.53 209.83 415.39 212.86 411.3 215.8C426.57 218.2 442.01 217.16 457.49 216.15H457.5ZM66.6001 71.7301C64.4701 69.4901 61.8801 69.4201 59.4501 69.2301C57.0701 69.0501 55.1801 68.2601 53.3101 66.1101C55.9501 64.3801 56.5401 62.1501 54.8701 59.4701C53.4601 59.7601 52.0101 61.1001 50.8201 58.7301C51.8901 57.9801 52.9901 57.2101 54.2901 56.3001C54.0301 55.2801 53.7601 54.2001 53.5101 53.1701C51.3101 53.4001 49.3701 55.1301 47.0501 52.7801C49.0801 51.2101 50.9001 49.7901 53.0201 48.1601C52.2001 42.8301 51.3601 37.3401 50.4901 31.6201C48.9801 32.8301 47.8301 33.7601 46.5001 34.8301C45.2101 33.1701 44.2101 31.8701 42.9901 30.2901C41.4701 35.6101 40.0601 40.5201 38.6401 45.5101C42.0701 46.4201 42.3501 49.1501 42.5801 51.7601C43.1101 57.8601 42.4701 63.9101 40.8201 69.7701C39.1601 75.6901 37.0801 81.5101 35.0401 87.3201C34.2801 89.4801 34.2001 91.1201 35.8401 93.0801C38.0101 95.6701 39.6401 98.7101 41.2601 101.18C42.7301 100.21 44.1301 99.0201 45.7401 98.3001C49.2201 96.7401 52.8801 95.5501 56.3401 93.9501C59.2401 92.6001 62.4401 91.7501 65.2101 89.6301C64.5001 88.5701 64.1401 87.6601 63.4701 87.1201C61.8401 85.7701 60.0601 84.9201 57.7801 84.8201C54.6601 84.6801 53.0201 82.5601 54.0401 80.1801C54.5501 78.9801 55.8701 77.6101 57.0701 77.3101C60.7101 76.3901 63.4001 74.0501 66.6001 71.7401V71.7301ZM58.4801 79.9501C58.4801 80.3301 58.4701 80.7001 58.4601 81.0801C62.7601 82.3701 67.3901 83.1801 69.0601 88.3901C71.0501 87.0801 72.6601 86.0201 74.2701 84.9501C74.6701 85.0601 75.0601 85.1401 75.4301 85.2701C81.4601 87.3501 81.6101 87.2901 85.3401 82.4501C91.7001 74.2001 100.18 69.2301 110.17 66.7201C115.66 65.3401 120.88 63.3101 125.55 61.0401C124.54 54.8901 123.58 49.0701 122.61 43.1701C121.09 43.8801 119.46 44.4501 118.02 45.3401C108.03 51.4601 98.1301 57.7301 88.1001 63.7801C82.3801 67.2301 76.5001 70.4301 70.6401 73.6501C66.6401 75.8401 62.5401 77.8701 58.4901 79.9701L58.4801 79.9501ZM39.6901 106.29C39.3601 104.81 39.3801 103.39 38.7601 102.36C37.0001 99.4601 35.0801 96.6401 33.0001 93.9601C31.6001 92.1501 30.8701 90.5001 31.7201 88.1801C33.0701 84.4901 34.1501 80.7001 35.3801 76.9601C37.6101 70.1601 38.9801 63.2301 38.6901 56.0201C38.6001 53.7101 39.3001 51.2801 37.2801 49.3001C36.8801 48.9001 37.1201 47.8001 37.1401 47.0201C37.2601 41.7001 38.9201 36.6801 40.2801 31.6101C40.6501 30.2401 40.9701 28.8501 41.3101 27.4701C41.0601 27.3901 40.8201 27.3001 40.5701 27.2201C39.9701 28.6801 39.4101 30.1601 38.7501 31.5801C34.0601 41.7001 32.0601 52.6001 29.4401 63.3201C28.6301 66.6401 27.9101 70.0401 27.6701 73.4401C27.1101 81.3101 26.7301 89.2001 26.5801 97.0901C26.5101 100.7 26.0501 104.48 27.9901 107.98C31.9001 108.99 35.5101 107.94 39.7001 106.29H39.6901ZM387.76 158.41C389.17 162.49 387.21 165.99 385.8 169.43C390.31 171.72 394.61 173.89 399.62 176.43C398.59 176.89 398.04 177.14 397.52 177.38C399.46 178.12 401.28 178.58 402.85 179.47C404.33 180.32 405.56 180.2 406.93 179.46C410.51 177.53 414.13 175.65 417.68 173.68C419.44 172.7 421.09 171.54 422.77 170.48C420.96 169.53 419.29 168.94 418 167.88C416.75 166.85 415.9 165.33 414.98 164.15C413.36 164.94 411.83 165.68 410.27 166.44C410.21 167.17 410.15 167.91 410.09 168.61C408.25 169.41 406.7 169.21 405.07 168.26C399.39 164.96 393.65 161.76 387.76 158.42V158.41ZM30.4201 48.9501C25.6601 44.7001 21.2001 40.7201 16.6101 36.6201C16.4368 40.2934 14.8134 41.8067 11.7401 41.1601C12.7801 43.4501 13.6101 45.6101 14.7501 47.6101C15.1901 48.3801 16.2601 48.8901 17.1401 49.2801C19.2901 50.2201 21.5401 50.9101 23.1201 52.8601C24.6801 54.7901 26.4101 56.5801 28.0401 58.4101C28.8201 55.3101 29.6201 52.1301 30.4201 48.9501ZM55.1101 106.61C60.3301 103.91 65.8501 101.97 68.8801 96.6501C66.8901 93.2601 66.2701 93.0601 63.2901 94.6701C61.4401 95.6701 59.5501 96.5901 57.7301 97.6301C55.8501 98.7001 54.0201 99.8701 52.2401 100.95C53.2301 102.91 54.0501 104.53 55.1001 106.61H55.1101ZM48.3001 103.18C44.9801 103.93 42.7901 105.69 42.9201 109.63C45.4901 111.71 46.1701 116 50.2901 116.51C52.1901 115.3 52.9401 113.67 52.7301 111.7C52.3901 108.35 51.8801 105.02 48.3001 103.17V103.18ZM15.6801 55.5201C18.6801 60.4201 21.6001 65.2101 24.5301 70.0001C24.8101 69.9501 25.0801 69.8901 25.3601 69.8401C25.8501 67.7001 26.3801 65.5801 26.8101 63.4301C26.9001 62.9601 26.8401 62.2701 26.5501 61.9401C24.0701 59.1001 22.2501 55.5701 18.3401 54.0301C17.6901 54.4001 16.9001 54.8401 15.6901 55.5201H15.6801ZM6.96013 28.6701C6.62013 28.7501 6.2701 28.8301 5.9301 28.9101C6.2401 30.6601 6.03008 32.8001 6.98008 34.0601C8.57008 36.1601 10.8801 37.7301 12.9701 39.4201C13.3401 39.7201 14.1201 39.5101 15.0801 39.5601C14.3001 34.0701 10.3001 31.6301 6.97007 28.6801L6.96013 28.6701ZM47.1001 19.6901C45.1201 23.5401 44.6301 27.0601 47.1201 30.5401C49.7201 27.3401 49.8001 23.5401 47.1001 19.6901ZM420.37 160.01C421.39 162.02 423.1 162.47 424.75 162.5C425.54 162.51 426.6 161.66 427.06 160.91C427.27 160.56 426.5 159.29 425.88 158.82C424.08 157.45 423.1 157.71 420.38 160.01H420.37ZM420.72 91.4901C416.04 94.6801 414.3 100.41 416.41 104.48C417.78 100.34 419.24 95.9601 420.72 91.4901ZM430.28 155.93C428.68 155.317 426.99 155.333 425.21 155.98C428.37 158.35 428.39 158.35 430.28 155.93ZM437.41 156.91C436.55 153.9 435.96 153.51 432.68 153.51C434.14 154.56 435.58 155.59 437.41 156.91Z" fill="black"/>
<path d="M542.67 246.52C541.98 249.23 540.4 249.17 538.82 249.16C532.34 249.16 525.85 249.16 519.37 249.16C502.84 249.18 486.31 249.21 469.79 249.23C448.23 249.26 426.68 249.29 405.12 249.31C387.14 249.32 369.17 249.31 351.19 249.31C329.78 249.32 308.38 249.36 286.97 249.37C275.22 249.37 263.48 249.31 251.73 249.37C244.22 249.41 236.7 249.7 229.19 249.71C219.64 249.72 210.09 249.46 200.53 249.5C188.06 249.56 175.58 249.88 163.11 249.94C151.22 250 139.33 249.85 127.44 249.82C119.93 249.8 112.43 249.82 104.92 249.85C92.1101 249.88 79.3001 249.93 66.4901 249.96C59.2401 249.98 52.0001 249.99 44.7501 249.96C43.4801 249.96 42.2101 249.72 40.6401 249.55C42.2901 247.34 44.3801 247.85 46.1501 247.79C51.1701 247.63 56.2001 247.72 61.2201 247.7C73.2401 247.65 85.2602 247.56 97.2802 247.55C107.4 247.55 117.52 247.67 127.64 247.64C135.91 247.62 144.18 247.37 152.44 247.36C163.8 247.35 175.16 247.5 186.52 247.51C192.52 247.51 198.52 247.29 204.51 247.28C209.61 247.28 214.71 247.48 219.81 247.48C223.33 247.48 226.84 247.2 230.36 247.18C234.41 247.16 238.46 247.34 242.51 247.32C248.53 247.3 254.55 247.13 260.58 247.11C272.02 247.08 283.45 247.15 294.89 247.13C311.77 247.09 328.66 246.97 345.54 246.94C364.31 246.92 383.08 247.01 401.85 246.98C415.96 246.96 430.07 246.81 444.18 246.77C453.13 246.74 462.07 246.87 471.02 246.84C490.02 246.76 509.01 246.62 528 246.51C532.69 246.48 537.39 246.51 542.68 246.51L542.67 246.52Z" fill="black"/>
<path d="M408.93 130.78C401.9 130.25 397.55 127.14 394 122.67C393.35 121.85 392.8 120.93 392.24 120.04C390.21 116.8 390.35 114.22 392.96 111.49C394.88 109.48 397.61 109.44 399.86 110.2C406.64 112.5 412.8 116.01 417.87 121.2C420.89 124.29 420.49 126.89 416.54 128.43C413.77 129.51 410.84 130.21 408.94 130.79L408.93 130.78ZM394.8 119.01C394.61 119.32 394.42 119.63 394.24 119.94C395.38 121.27 396.38 122.76 397.67 123.91C402.84 128.49 406.94 130.51 414.49 127.26C416.12 126.56 417.44 125.59 417.79 123.52C414.03 120.32 410.37 116.97 405.68 115.29C402.28 117.48 399.68 121.33 394.8 119V119.01Z" fill="black"/>
<path d="M388.32 134.05C382.96 135.32 380.07 134.05 379.33 130.43C382.32 131.26 385.41 131.33 388.32 134.05Z" fill="black"/>
</svg>
