<svg width="258" height="225" viewBox="0 0 258 225" fill="none" xmlns="http://www.w3.org/2000/svg">
<path d="M35.9623 76.3809C35.9623 83.5636 35.9623 91.3684 35.9623 99.1631C35.9523 122.216 35.9923 145.279 35.9022 168.332C35.8421 184.825 35.592 201.327 35.5019 217.819C35.5019 218.532 36.2525 219.274 36.6929 219.976C37.1233 220.648 38.1242 221.571 37.9441 221.902C37.5137 222.715 36.5727 223.798 35.822 223.818C31.338 223.909 26.8237 223.939 22.3797 223.467C21.3988 223.367 19.8975 221.15 19.8975 219.906C19.8574 200.053 20.0576 180.2 20.1277 160.347C20.2077 138.929 20.2279 117.511 20.2479 96.0934C20.2679 71.2847 20.2179 46.4761 20.308 21.6674C20.318 18.8685 19.5174 17.9356 16.6748 18.1362C12.9815 18.387 9.248 18.3469 5.56466 18.076C2.16158 17.8252 -0.170664 16.2302 0.169644 12.2175C0.519961 8.17466 0.700378 4.12179 0.930587 0.470215H256.752C256.932 4.79392 257.553 9.62927 257.062 14.3442C256.912 15.7687 253.829 17.6246 251.857 17.9757C248.384 18.5877 244.721 18.4372 241.168 18.1462C238.155 17.9055 237.274 18.7984 237.294 21.828C237.445 41.6107 237.415 61.3934 237.435 81.1761C237.465 102.223 237.515 123.259 237.525 144.306C237.525 168.242 237.505 192.168 237.485 216.104C237.485 221.327 234.839 223.969 229.548 224.029C227.166 224.049 224.763 224.179 222.411 223.919C221.43 223.808 220.429 222.895 219.729 222.093C219.569 221.902 220.669 220.708 221.05 219.916C221.46 219.073 221.991 218.16 221.981 217.278C221.951 196.923 221.801 176.579 221.771 156.224C221.731 129.86 221.76 103.507 221.76 76.3809H35.9423H35.9623ZM220.98 18.4572C216.936 18.2165 213.533 17.8553 210.13 17.8252C190.782 17.6948 171.435 17.2434 152.097 17.7249C140.106 18.0259 127.885 15.3474 116.105 19.8517C111.2 21.7276 105.875 22.7408 101.301 25.1986C84.9364 33.9865 68.8122 43.2157 52.6175 52.3246C50.2654 53.6488 48.0632 55.2539 45.1205 57.1599H220.97V18.4572H220.98ZM221.3 72.3983V60.6008H36.2125V72.3983H221.3ZM5.93512 14.0031H251.658V5.30555H5.93512V14.0031ZM22.6402 18.4572C22.6402 20.2329 22.6302 21.6875 22.6402 23.1421C22.7102 30.7462 22.8303 38.3503 22.8503 45.9444C22.8704 55.5749 22.7502 65.2054 22.7902 74.836C22.8202 82.2896 23.1008 89.7432 23.0908 97.1968C23.0708 111.021 22.8305 124.845 22.8406 138.668C22.8506 154.629 23.0406 170.59 23.1607 186.54C23.2307 196.572 23.3306 206.614 23.4006 216.646C23.4106 218.501 23.4711 220.237 26.0334 220.056C28.5156 219.886 30.9977 219.675 33.6101 219.475C33.6701 218.702 33.7704 218.05 33.7704 217.408C33.7704 200.976 33.7701 184.554 33.7401 168.122C33.69 135.98 33.6601 103.828 33.57 71.686C33.53 58.4741 33.4498 45.2622 33.2196 32.0604C33.1395 27.2752 32.569 22.5001 32.2187 17.6146C28.6254 17.9256 25.9032 18.1663 22.6602 18.4472L22.6402 18.4572ZM226.004 17.6748C224.253 24.0249 222.691 208.791 224.223 219.575C226.164 219.675 228.176 219.525 230.088 219.916C233.371 220.588 234.262 219.314 234.282 216.174C234.352 202.461 234.732 188.737 234.752 175.024C234.772 161.441 234.362 147.868 234.382 134.284C234.402 117.862 234.742 101.44 234.822 85.0183C234.902 68.5762 234.832 52.124 234.832 35.6718C234.832 29.9437 234.832 24.2155 234.832 18.4171C231.679 18.1463 228.957 17.9155 226.014 17.6647L226.004 17.6748ZM36.6729 53.2475C55.7302 39.2331 76.1887 27.7768 98.2086 18.0259H36.6729V53.2475ZM37.904 57.9826C40.0359 57.4007 41.6774 57.3305 42.8685 56.568C47.3025 53.729 51.406 50.3283 55.9702 47.7401C70.4433 39.5441 85.0068 31.5086 99.6601 23.6437C103.864 21.3866 108.478 19.9319 113.553 17.8453C100.231 16.7418 50.8455 43.0251 37.8937 57.9826H37.904Z" fill="black"/>
</svg>
