<svg width="301" height="516" viewBox="0 0 301 516" fill="none" xmlns="http://www.w3.org/2000/svg">
<path d="M154.47 520.04C154.47 513.25 154.45 398.83 154.47 392.04C154.48 388.63 154.029 385.25 154.379 381.8C154.739 378.32 154.539 374.78 154.439 371.27C154.339 367.63 154.039 364 153.899 360.36C153.869 359.44 154.149 358.52 154.229 357.59C154.329 356.52 154.679 355.33 154.359 354.38C153.359 351.36 153.78 348.43 154.39 345.45C154.51 344.89 154.349 344.26 154.279 343.67C154.109 342.26 153.749 340.85 153.749 339.44C153.719 293.47 153.749 247.51 153.689 201.54C153.689 196.33 153.199 191.13 153.019 185.92C152.979 184.75 153.369 183.58 153.479 182.4C153.549 181.59 153.529 180.76 153.459 179.95C153.339 178.65 152.969 177.35 153.029 176.06C153.279 170.34 152.889 164.63 152.979 158.91C153.069 153.1 152.999 147.28 152.999 141.46C152.999 135.64 152.999 129.83 152.999 124.01C152.999 118.19 153.04 112.38 152.97 106.56C152.96 105.15 152.62 103.74 152.43 102.33C152.41 102.21 152.309 102.09 152.329 101.99C153.029 98.47 153.35 94.95 152.41 91.42C153.78 89.3 152.129 87.28 152.149 85.17C152.349 68.82 152.27 52.46 152.24 36.1C152.24 34.69 151.909 33.27 151.729 31.86C151.699 31.63 151.549 31.39 151.579 31.17C152.479 23.92 151.079 16.67 151.529 9.41998C151.599 8.21998 151.539 7.00999 151.539 5.60999C152.179 5.47999 152.739 5.21997 153.279 5.27997C156.949 5.66997 160.599 6.21001 164.269 6.51001C165.529 6.61001 166.88 5.83998 168.1 6.03998C171.82 6.64998 175.5 6.24 179.2 6C179.89 5.96 180.599 6.26998 181.309 6.28998C182.579 6.32998 183.859 6.31001 185.129 6.26001C185.959 6.22001 186.839 5.84001 187.609 6.01001C193.339 7.33001 199.149 6.45999 204.919 6.67999C206.739 6.74999 208.52 7.16001 210.39 6.14001C211.28 5.66001 212.879 6.51999 214.169 6.67999C216.419 6.95999 218.67 7.2 220.93 7.38C222.01 7.47 223.2 7.66002 224.18 7.33002C227.5 6.23002 230.88 7.11997 234.18 6.77997C237.08 6.47997 239.909 8.18997 242.809 6.77997C243.439 6.46997 244.439 6.89 245.259 7C246.079 7.12 246.929 7.50001 247.709 7.39001C252.709 6.69001 257.68 7.68997 262.68 7.46997C267.64 7.24997 272.619 7.28998 277.589 7.47998C279.929 7.56998 282.239 7.60001 284.569 7.45001C285.379 7.40001 286.199 7.60998 287.249 7.72998C288.089 7.23998 289.149 6.47998 290.309 5.97998C291.349 5.53998 292.52 5.39 294.1 5C294.1 9.42 294.249 13.39 294.049 17.34C293.899 20.3 294.029 23.24 294.019 26.19C294.009 28.7 293.61 31.2 293.43 33.71C293.35 34.8 293.39 35.89 293.39 36.98C293.39 74.06 293.389 111.13 293.359 148.21C293.359 149.98 292.929 151.74 292.729 153.51C292.659 154.11 292.55 154.75 292.7 155.32C293.77 159.46 293.789 163.6 292.799 167.75C294.529 172.26 291.289 176.9 293.259 181.51C293.849 182.89 293.049 184.86 292.879 186.56C292.819 187.15 292.639 187.75 292.689 188.34C292.879 190.61 293.229 192.86 293.309 195.13C293.349 196.16 292.679 197.21 292.709 198.24C292.789 200.74 293.199 203.23 293.269 205.72C293.299 206.99 292.699 208.28 292.689 209.56C292.629 218.28 292.66 227.01 292.66 235.73C294.09 238.63 292.009 241.69 293.209 244.77C293.819 246.33 292.689 248.48 292.689 250.37C292.639 271.57 292.689 292.78 292.629 313.98C292.619 317.32 292 320.66 291.99 324C291.98 326.86 292.769 329.73 292.609 332.57C291.069 359.17 292.379 493.43 291.939 520.03H278.85C278.8 519.19 278.999 520.72 278.649 520.03C278.049 521.35 277.979 518.7 278.649 520.03C278.969 519.32 278.879 520.86 278.829 520.03C278.589 516.08 279.079 395.74 278.289 391.75C277.749 389.03 278.859 386.03 278.779 383.17C278.639 378.01 279.549 372.81 278.169 367.68C277.969 366.93 278.4 366.04 278.41 365.21C278.44 362 278.44 358.79 278.41 355.58C278.41 354.88 278.02 354.11 278.2 353.48C279.19 350.04 279.069 346.68 278.209 343.22C277.819 341.62 277.78 339.74 278.22 338.17C279.27 334.45 277.459 330.64 278.789 326.98C278.889 326.71 278.549 326.31 278.529 325.96C278.399 323.69 278.16 321.42 278.22 319.16C278.33 315.02 279.039 310.85 278.689 306.76C278.409 303.54 277.68 300.4 278.6 297.2C277.16 291.68 278.749 286.09 278.169 280.53C277.799 277.01 278.1 273.42 278.1 269.86C278.1 265.74 278.1 261.62 278.1 257.5V245.14C278.1 240.9 277.9 236.65 278.16 232.42C278.4 228.39 277.45 224.44 277.99 220.36C278.45 216.9 277.879 213.33 278.009 209.78C278.159 205.85 277.519 201.89 277.419 197.94C277.379 196.3 278.44 194.44 277.95 193.05C276.74 189.63 277.649 186.22 277.479 182.84C277.139 176.32 277.22 169.76 277.43 163.22C277.64 156.66 276.729 150.1 277.379 143.54C277.759 139.65 276.559 135.76 277.359 131.85C277.489 131.19 277.22 130.44 277.12 129.73C276.97 128.67 276.649 127.61 276.689 126.56C276.849 122.71 276.66 118.86 276.66 115.02C276.66 106.33 276.67 97.63 276.66 88.94C276.65 73.07 276.66 57.2 276.66 41.33V38.32C276.4 38.3 276.139 38.29 275.879 38.27C275.649 39.62 275.21 40.98 275.24 42.33C275.39 47.69 274.91 53.03 275.16 58.39C275.37 63.03 275.19 67.69 275.2 72.34C275.2 81.23 275.22 90.12 275.18 99.01C275.18 100.06 274.779 101.11 274.729 102.17C274.659 103.95 274.679 105.74 274.729 107.52C274.769 108.93 274.729 110.38 275.059 111.74C275.869 115.1 273.789 118.46 275.169 121.78C274.159 123.96 275.54 126.17 275.1 128.37C274.82 129.76 274.499 131.18 274.499 132.59C274.459 146.64 274.47 160.7 274.47 174.75C274.47 175.72 274.719 176.81 274.359 177.63C273.619 179.31 274.089 180.77 274.259 182.45C274.609 185.9 274.169 189.43 274.029 192.92C274.009 193.51 273.719 194.11 273.779 194.67C274.179 198.1 274.959 201.5 273.809 204.98C273.509 205.9 274.02 207.08 274.14 208.14C274.21 208.72 274.349 209.3 274.299 209.87C274.159 211.4 273.769 212.93 273.759 214.46C273.709 224.08 273.679 233.69 273.769 243.31C273.789 245.59 272.869 247.97 274.339 250.21C274.589 250.58 273.929 251.5 273.809 252.18C273.679 252.94 273.679 253.72 273.649 254.49C273.519 259.42 273.369 264.35 273.279 269.28C273.249 271.19 273.35 273.11 273.39 275.03C273.44 277.06 273.589 279.09 273.529 281.11C273.469 282.93 272.68 284.88 273.1 286.54C273.85 289.45 273.699 292.16 273.029 294.99C272.819 295.89 273.059 296.9 273.169 297.86C273.319 299.16 273.73 300.45 273.68 301.73C273.57 304.35 273.109 306.96 273.039 309.58C272.999 311.1 273.649 312.63 273.629 314.14C273.589 316.41 273.179 318.66 273.019 320.93C272.969 321.62 273.339 322.32 273.379 323.02C273.439 324.18 273.449 325.35 273.379 326.51C273.319 327.46 272.879 328.44 273.039 329.32C273.639 332.63 272.879 335.91 273.019 339.19C273.099 340.96 273.919 342.81 273.609 344.47C272.729 349.26 272.6 353.97 273.66 358.72C273.78 359.27 273.579 359.9 273.499 360.49C273.339 361.66 273.039 362.83 273.019 364.01C272.959 367.52 273.07 371.04 272.97 374.55C272.91 376.6 271.849 378.97 272.559 380.63C273.689 383.28 273.109 385.68 273.019 388.23C272.919 391.26 272.819 517 273.039 520.01C273.299 523.63 272.01 516.46 273.66 520.01C273.81 520.34 273.399 519.55 273.329 520.01C273.189 520.95 273.099 519.06 272.999 520.01H266.45C266.45 518.27 266.379 521.75 266.459 520.01C266.659 515.7 266.049 524.33 267.069 520.01C267.479 518.27 266.17 390.3 266.6 388.58C267.66 384.37 267.179 380.17 267.109 375.99C266.999 368.77 267.959 361.51 266.479 354.33C266.389 353.9 266.69 353.4 266.7 352.93C266.72 352.04 266.65 351.14 266.66 350.25C266.66 349.19 266.659 348.13 266.759 347.08C266.829 346.26 267.209 345.44 267.149 344.64C266.999 342.25 266.7 339.87 266.47 337.48C266.44 337.12 266.35 336.7 266.49 336.4C268.34 332.59 266.199 328.72 266.669 324.89C266.859 323.39 267.24 321.82 266.97 320.38C265.9 314.7 266.699 309.03 266.789 303.35C266.819 301.52 267.519 299.55 267.059 297.89C266.149 294.63 266.839 291.38 266.519 288.13C266.199 284.89 266.499 281.59 266.439 278.32C266.379 275.03 266.659 271.74 266.499 268.44C266.289 263.97 266.45 259.48 266.45 254.99V215.01C266.45 210.53 266.29 206.04 266.49 201.56C266.69 197.17 265.669 192.83 266.399 188.42C267.139 183.95 265.499 179.43 266.419 174.93C266.509 174.49 266.299 173.99 266.269 173.51C266.109 170.63 265.52 167.69 265.91 164.89C266.55 160.33 266.729 155.9 265.829 151.35C265.469 149.52 265.919 147.53 266.029 145.62C266.109 144.32 266.379 143.01 266.319 141.72C266.249 140.19 265.749 138.67 265.749 137.14C265.749 135.62 266.309 134.09 266.309 132.57C266.309 131.05 265.669 129.51 265.749 128.01C265.989 123.24 265.979 118.49 265.749 113.72C265.569 110.05 265.81 106.36 265.7 102.68C265.33 90.98 266.579 79.25 265.039 67.58C264.999 67.24 265.2 66.88 265.2 66.53C265.22 64.91 265.2 63.29 265.2 61.67C265.2 60.61 265.169 59.55 265.249 58.49C265.339 57.31 265.72 56.13 265.68 54.96C265.51 50.28 265.2 45.61 264.99 40.94C264.79 36.4 265.559 31.79 263.919 27.11C262.869 29.25 262.34 31.09 262.6 33.5C262.95 36.67 262.329 39.96 262.059 43.19C261.899 45.08 261.45 46.97 261.43 48.85C261.41 52.01 261.47 55.22 261.62 58.33C261.77 61.55 262.189 64.64 261.459 67.87C261.109 69.43 261.589 71.19 261.729 72.86C261.799 73.69 262.089 74.52 262.039 75.33C261.869 77.96 261.41 80.59 261.39 83.22C261.37 86.51 261.57 89.78 261.47 93.09C261.4 95.51 261.56 97.94 261.45 100.41C261.04 110.05 260.95 119.7 260.93 129.35C260.91 136.25 261.249 143.14 261.299 150.04C261.309 152.05 260.72 154.05 260.64 156.07C260.52 158.97 259.919 162.13 260.819 164.72C261.759 167.44 259.779 170.41 262.029 172.78C262.209 172.97 262.109 173.5 262.009 173.84C260.839 178.04 260.789 182.29 261.309 186.59C261.429 187.53 261.48 188.61 261.12 189.44C260.65 190.55 260.57 191.41 261.14 192.5C261.43 193.06 261.239 193.9 261.169 194.6C261.029 195.89 260.73 197.17 260.62 198.47C260.15 204.06 261.389 209.64 260.649 215.24C260.509 216.26 260.939 217.34 261.069 218.4C261.139 218.97 261.24 219.58 261.12 220.13C260.34 223.81 260.18 227.47 261.24 231.13C261.43 231.8 261.419 232.6 261.279 233.29C260.189 238.77 260.209 244.23 261.279 249.71C261.419 250.4 261.32 251.16 261.24 251.88C261.06 253.41 260.66 254.93 260.64 256.46C260.56 261.18 260.629 265.91 260.609 270.63C260.589 275.37 261.049 280.1 260.669 284.86C260.369 288.59 260.669 292.37 260.579 296.12C260.539 297.77 259.579 299.6 260.049 301.01C261.279 304.79 259.92 308.57 260.6 312.3C260.88 313.81 261.109 315.34 261.229 316.87C261.289 317.68 261.199 318.56 260.919 319.31C259.779 322.33 260.749 325.56 259.899 328.6C259.839 328.82 259.83 329.12 259.93 329.32C260.55 330.56 260.719 331.68 260.009 333.05C259.639 333.77 260.07 334.91 260.18 335.86C260.29 336.8 260.719 337.8 260.529 338.65C260.259 339.82 260.419 340.85 260.509 342.01C260.759 345.31 261.109 348.75 260.439 351.92C259.649 355.68 260.149 359.36 259.939 363.06C259.879 364.08 260.639 365.2 260.419 366.14C259.239 371.17 259.67 376.29 260.1 381.26C260.38 384.55 259.899 387.84 260.529 391.12C261.079 393.96 260.579 517.01 261.109 519.96C261.519 522.25 260.519 517.52 261.299 519.96C261.359 520.14 261.219 519.85 261.059 519.96C259.089 521.31 260.429 518.42 260.629 519.96H237.35C237.55 517.89 237.92 522.15 237.47 519.96C237.03 517.82 237.729 522.21 237.709 519.96C237.659 514.9 237.44 389.21 237.37 384.15C237.35 382.89 237.699 381.63 237.709 380.37C237.709 378.59 237.45 376.8 237.49 375.02C237.55 371.29 237.709 367.57 237.399 363.83C237.179 361.18 236.649 358.24 237.519 355.9C238.769 352.53 236.269 349.26 237.979 346.12C236.459 344.39 238.63 342.64 237.99 340.99C236.49 337.14 238.03 333.19 237.47 329.3C237.22 327.58 238.149 325.68 237.859 323.97C237.169 319.9 236.929 315.91 238.009 311.89C238.149 311.35 237.97 310.7 237.89 310.11C237.73 308.94 237.399 307.77 237.379 306.6C237.289 302.1 237.489 297.59 237.439 293.08C237.399 289.8 237.849 286.58 237.559 283.19C236.989 276.61 237.57 269.92 237.7 263.28C237.73 261.7 238.529 259.52 237.779 258.65C236.209 256.83 237.299 255.33 237.309 253.65C237.329 251.39 236.969 249.13 236.799 246.87C236.729 246.03 236.46 245.09 236.74 244.37C237.37 242.72 237.769 241.19 236.779 239.55C236.619 239.28 236.6 238.8 236.72 238.5C238.07 234.84 236.679 231.05 237.289 227.32C237.699 224.84 237.37 222.24 237.37 219.7C237.37 217.28 237.949 214.64 237.189 212.48C236.249 209.81 237.629 207.58 237.479 205.1C237.129 199.09 237.4 193.06 236.72 187.04C236.44 184.6 236.189 181.99 236.769 179.67C237.409 177.1 236.62 174.76 236.64 172.32C236.67 167.84 236.64 163.35 236.64 158.87C236.64 154.39 236.539 149.9 236.669 145.42C236.799 141.04 236.239 136.68 236.579 132.28C236.879 128.43 236.549 124.53 236.669 120.65C236.789 116.87 236.209 113.13 236.549 109.32C236.779 106.73 236.1 104.06 235.95 101.42C235.89 100.36 236.129 99.29 236.259 98.22C236.349 97.52 236.749 96.73 236.549 96.14C235.189 92.11 236.19 87.99 235.95 83.92C235.88 82.78 236.51 81.61 236.49 80.45C236.45 78.68 235.969 76.92 235.939 75.14C235.859 70.42 235.809 65.69 235.939 60.97C236.079 56.22 235.269 51.49 235.899 46.74C235.989 46.03 236.099 45.21 235.859 44.57C234.519 41.1 235.629 37.5 235.419 33.99C235.249 31.07 234.649 28.12 234.979 25.12C234.449 25.61 233.869 26.26 234.019 26.63C234.919 28.92 233.969 31.06 233.839 33.28C233.479 39.23 233.36 45.21 233.6 51.16C233.75 54.85 232.89 58.46 233.47 62.19C233.87 64.74 233.039 67.45 233.029 70.09C232.969 82.86 233.05 95.63 232.97 108.39C232.95 111.9 232.569 115.41 232.259 118.91C231.809 124.02 232.92 129.08 232.47 134.25C232.24 136.96 232.179 139.84 232.289 142.64C232.339 143.94 232.669 145.22 232.819 146.51C232.899 147.21 232.93 147.94 232.85 148.64C232.7 150.05 232.319 151.45 232.289 152.87C232.209 156.99 232.259 161.11 232.259 165.23C232.259 167.29 232.299 169.35 232.249 171.41C232.199 173.4 233.59 175.49 231.87 177.38C232.51 180.35 232.599 183.3 231.649 186.23C233.219 190.75 231.619 195.39 232.169 199.97C232.459 202.4 231.899 204.96 231.499 207.43C231.089 210.03 233.34 212.54 231.64 215.13C232.95 219.69 231.909 224.23 231.559 228.78C231.479 229.83 231.769 230.91 231.899 231.97C231.969 232.55 232.159 233.13 232.129 233.7C231.959 236.7 231.709 239.69 231.559 242.69C231.529 243.26 231.869 243.83 231.939 244.42C232.079 245.61 232.45 246.87 232.2 247.98C231.43 251.42 231.01 254.8 232.18 258.24C232.31 258.62 231.92 259.14 231.91 259.6C231.81 264.29 231.67 268.99 231.7 273.68C231.72 276.87 232.409 280.11 232.029 283.23C231.459 287.91 231.129 292.5 232.149 297.12C232.249 297.56 232.299 298.27 232.049 298.49C230.669 299.74 231.499 301.03 231.799 302.35C231.999 303.25 232.109 304.2 232.049 305.11C231.849 308.17 231.15 311.24 231.37 314.26C231.91 321.79 231.109 329.3 231.509 336.82C231.689 340.14 230.809 343.37 231.359 346.84C232.089 351.37 231.609 356.11 231.509 360.76C231.469 362.89 230.429 365.22 230.999 367.1C232.219 371.12 231.24 375.09 231.41 379.05C231.81 388.36 231.539 510.57 231.539 519.9C231.539 521.64 231.539 518.16 231.539 519.9H224.99C225.15 516.65 223.739 523.08 225.459 519.9C225.499 519.83 225.4 520.01 225.39 519.9C224.91 511.98 224.35 386.33 225.7 378.43C225.76 378.08 225.799 377.65 225.649 377.35C224.359 374.68 224.779 371.93 224.899 369.09C225.169 362.95 225.14 356.79 224.95 350.64C224.64 340.52 225.589 330.39 224.439 320.25C224.029 316.69 225.059 312.93 224.289 309.25C224.119 308.44 224.019 307.42 224.359 306.74C226.289 302.95 223.039 298.95 224.899 295.17C224.999 294.97 224.56 294.55 224.49 294.21C224.37 293.63 224.179 292.99 224.309 292.45C225.389 287.94 225.329 283.45 224.309 278.93C224.089 277.93 224.409 276.8 224.519 275.73C224.639 274.55 225.06 273.34 224.91 272.2C224.59 269.86 224.65 267.59 224.89 265.23C225.19 262.23 224.709 259.15 225.029 256.16C225.349 253.2 223.389 250.31 224.919 247.38C223.759 245.18 224.289 243 224.919 240.77C225.169 239.87 224.999 238.84 224.919 237.88C224.729 235.63 224.199 233.36 224.319 231.13C224.439 229 224.29 226.91 224.2 224.81C224.11 222.61 224.739 220.53 224.439 218.2C223.729 212.63 224.499 206.94 224.269 201.3C224.099 197.07 224.24 192.82 224.24 188.58C224.24 184.34 224.139 180.1 224.269 175.86C224.389 171.72 223.749 167.61 224.189 163.45C224.669 158.86 223.619 154.23 224.189 149.59C224.439 147.59 224.009 145.51 224.009 143.47C224.009 141.38 224.189 139.29 224.229 137.19C224.299 133.9 222.749 130.63 224.189 127.3C224.429 126.74 224.059 125.9 223.939 125.2C223.839 124.62 223.419 123.91 223.629 123.51C224.359 122.09 224.22 120.9 223.68 119.4C223.25 118.21 223.539 116.69 223.749 115.35C224.099 113.13 223.039 110.67 223.689 108.86C225.029 105.15 223.07 101.55 224.12 98C222.57 93.98 224.439 89.81 223.539 85.74C222.849 82.62 224.829 79.42 223.539 76.24C223.429 75.96 223.69 75.55 223.7 75.2C223.84 72.32 224.059 69.45 224.059 66.57C224.059 65.04 223.539 63.52 223.529 61.99C223.479 52.9 223.53 43.82 223.47 34.73C223.46 33.08 222.929 31.45 222.799 29.79C222.679 28.26 222.769 26.71 222.769 25.17C221.919 28.28 221.42 31.36 221.35 34.44C221.08 45.24 221.43 56.03 220.72 66.84C220.35 72.43 219.789 78.17 221.259 83.76C221.379 84.21 221.36 84.75 221.24 85.2C220.24 88.98 220.2 92.74 221.22 96.54C221.43 97.33 221.43 98.27 221.22 99.06C220.22 102.85 220.23 106.61 221.22 110.4C221.37 110.96 221.29 111.61 221.22 112.2C221.03 113.85 220.609 115.49 220.609 117.14C220.559 130.83 220.57 144.52 220.6 158.21C220.6 160.77 220.18 163.31 220.47 165.91C220.67 167.68 219.779 169.59 220.059 171.32C220.369 173.23 220.28 174.95 220.1 176.86C219.8 179.96 220.409 183.14 220.569 186.28C220.609 187.11 220.39 187.95 220.37 188.78C220.34 191.13 220.33 193.48 220.35 195.83C220.36 197.26 220.55 198.7 220.47 200.13C220.35 202.4 219.329 204.93 220.019 206.88C221.539 211.16 220.219 215.38 220.269 219.55C220.319 223.56 219.529 227.58 220.539 231.6C220.679 232.17 220.579 232.81 220.519 233.41C220.319 235.3 219.889 237.18 219.879 239.07C219.819 251.31 219.84 263.54 219.87 275.78C219.87 276.96 220.139 278.14 220.279 279.32C220.339 279.89 220.509 280.5 220.399 281.05C219.179 286.92 220.13 292.84 219.91 298.73C219.88 299.63 220.389 300.55 220.359 301.45C220.289 303.47 219.319 305.77 219.999 307.45C221.579 311.37 218.559 315.3 220.539 319.03C219.069 323.78 219.85 328.64 219.85 333.46C219.85 337.7 219.929 341.94 219.819 346.18C219.749 348.68 219.189 351.17 219.209 353.66C219.229 355.73 218.329 357.98 220.079 359.92C220.459 360.34 220.439 361.68 220.059 362.13C218.569 363.87 219.249 365.75 219.309 367.63C219.389 370.22 219.389 372.81 219.359 375.41C219.339 376.97 218.82 378.64 219.22 380.06C220.56 384.77 219.649 515.21 219.689 519.92C219.719 522.98 219.37 516.81 219.2 519.92C219.04 522.8 219.599 517.02 219.839 519.92H195.839C196.049 516.58 196.4 523.26 196.41 519.92C196.42 517.02 195.939 522.83 195.859 519.92C195.759 515.8 195.7 385.3 195.87 381.19C196.04 377.05 195.31 372.95 195.74 368.77C196.15 364.77 195.829 360.69 195.829 356.65C195.829 351.27 195.879 345.9 195.799 340.52C195.779 338.88 195.019 337.16 195.309 335.62C195.979 332.15 196.129 328.77 195.249 325.34C195.079 324.67 195.189 323.92 195.269 323.21C195.419 321.92 195.839 320.62 195.789 319.34C195.439 309.95 196.69 300.51 195.12 291.15C196.86 288.02 194.96 284.71 195.68 281.42C196.45 277.91 194.799 274.16 195.779 270.49C195.949 269.86 195.549 269.09 195.509 268.39C195.459 267.61 195.519 266.82 195.509 266.03C195.499 263.17 195.5 260.31 195.45 257.44C195.45 256.86 194.999 256.15 195.209 255.73C196.979 252.31 194.429 248.69 195.759 245.27C195.829 245.09 195.6 244.82 195.6 244.59C195.58 242.24 195.569 239.89 195.569 237.55C195.569 236.25 195.629 234.94 195.539 233.65C195.469 232.59 194.949 231.49 195.129 230.49C195.999 225.64 194.689 220.79 195.499 215.86C196.009 212.73 195.31 209.31 195.72 205.98C195.94 204.15 195.049 202.21 195.129 200.33C195.339 195.05 194.329 189.72 195.749 184.49C195.889 183.96 195.639 183.32 195.559 182.73C195.399 181.55 195.119 180.38 195.109 179.2C195.049 175.04 195.089 170.87 195.089 166.71C195.089 161.62 194.959 156.53 195.129 151.45C195.289 146.34 194.92 141.25 194.97 136.14C195.05 128.21 195.649 120.26 194.509 112.3C193.939 108.3 195.02 104.15 194.45 100.02C194.16 97.94 194.839 95.75 194.839 93.61C194.839 91.37 194.47 89.14 194.41 86.9C194.38 85.98 194.76 85.05 194.89 84.11C194.99 83.41 195.069 82.68 195.009 81.98C194.849 80.33 194.42 78.69 194.41 77.04C194.36 65.41 194.4 53.78 194.35 42.16C194.35 41.24 194.969 39.96 193.529 39.37C192.179 41.67 191.859 43.88 192.399 46.29C192.599 47.2 192.829 48.15 192.779 49.06C192.709 50.47 192.259 51.87 192.229 53.28C192.149 57.64 192.169 62 192.209 66.36C192.249 70.77 192.08 75.17 192.18 79.58C192.21 80.65 192 81.72 191.91 82.79C191.76 84.7 191.179 86.7 191.589 88.49C192.389 92.02 192.259 95.41 191.549 98.88C191.409 99.54 191.659 100.29 191.769 100.99C191.889 101.81 192.37 102.73 192.14 103.42C190.74 107.59 192.139 111.84 191.569 116.06C190.989 120.38 192.049 124.79 191.529 129.19C191.229 131.7 191.889 134.36 191.359 136.79C190.789 139.46 191.589 141.94 191.539 144.51C191.369 155.01 191.519 165.52 191.439 176.03C191.419 178.89 190.819 181.74 190.799 184.6C190.779 187.31 191.759 189.9 191.249 192.75C190.769 195.44 191.259 198.31 191.319 201.1C191.339 202.05 191.629 203.14 191.279 203.93C190.259 206.23 191.11 208.34 191.37 210.58C191.62 212.78 190.899 215.06 190.839 217.32C190.809 218.59 191.43 219.88 191.45 221.16C191.49 223.4 191.369 225.68 191.249 227.88C191.149 229.62 191.939 231.35 191.339 233.01C190.449 235.49 190.689 237.87 191.249 240.4C191.659 242.23 191.389 244.23 191.299 246.14C191.209 247.92 190.459 249.81 190.879 251.44C191.499 253.87 190.92 256.1 190.89 258.43C190.84 263.94 189.99 269.52 191.43 274.99C191.55 275.44 191.469 275.96 191.419 276.43C191.219 278.2 190.839 279.96 190.789 281.73C190.699 285.85 190.869 289.97 190.729 294.08C190.589 298.22 191.549 302.34 190.819 306.5C190.619 307.61 191.18 308.84 191.24 310.02C191.32 311.8 191.309 313.59 191.229 315.37C191.179 316.43 190.809 317.48 190.799 318.54C190.749 322.54 190.959 326.54 190.729 330.53C190.509 334.39 192.199 338.32 190.289 342.1C191.309 344.94 190.76 347.73 190.1 350.55C189.95 351.19 190.31 351.94 190.41 352.65C190.78 355.23 191.139 357.82 191.479 360.41C191.509 360.63 191.449 360.96 191.299 361.08C189.829 362.29 190.719 363.61 191.069 364.92C191.249 365.6 191.709 366.54 191.439 366.96C189.879 369.27 191.309 371.8 190.759 374.12C189.809 378.07 190.65 382.07 190.43 386.03C190.21 390.11 191.229 515.79 190.189 519.93C190.129 520.19 190.389 519.71 190.629 519.93C191.879 521.11 191.729 518.77 190.569 519.93C190.309 520.19 190.259 519.5 190.289 519.93C190.429 522.67 190.619 517.19 190.799 519.93H183.529C183.319 518.65 182.75 521.14 182.95 519.93C183.86 514.2 183.939 397.03 182.899 391.31C182.819 390.87 182.969 390.37 183.079 389.92C183.789 387.08 183.629 384.3 183.079 381.41C182.659 379.21 183.079 376.85 183.129 374.56C183.229 371.08 183.45 367.6 183.41 364.12C183.38 361.36 182.439 358.48 182.979 355.87C183.669 352.6 183.37 349.4 183.49 346.18C183.54 344.91 182.9 343.62 182.93 342.34C182.97 340.33 183.459 338.32 183.479 336.31C183.499 334.4 183.089 332.48 183.019 330.56C182.929 328.12 182.93 325.67 182.99 323.22C183.03 321.77 183.399 320.31 183.359 318.86C183.259 315.59 182.91 312.32 182.85 309.05C182.82 307.65 183.73 306.13 183.41 304.87C182.65 301.84 182.79 298.81 182.85 295.78C182.9 293.04 183.44 290.31 183.47 287.57C183.49 285.56 182.899 283.56 182.839 281.54C182.689 276.26 183.049 270.99 182.859 265.71C182.739 262.32 183.71 258.82 183.16 255.54C182.2 249.77 183.49 244.08 182.91 238.33C182.49 234.25 182.3 230.09 182.72 225.92C182.97 223.47 182.229 220.94 182.229 218.44C182.229 215.95 182.689 213.47 182.779 210.97C182.879 208.19 182.869 205.4 182.779 202.61C182.729 201.2 181.849 199.63 182.259 198.44C183.219 195.68 182.629 192.93 182.769 190.2C182.829 189.05 182.06 187.84 182.22 186.73C183.16 180.15 183.249 173.6 182.149 167.03C182.019 166.23 182.25 165.37 182.35 164.54C182.49 163.36 182.979 162.13 182.759 161.02C182.099 157.58 182.909 154.19 182.809 150.78C182.699 147.01 182.56 143.24 182.35 139.48C182.09 135 182.67 130.5 182.12 126.02C182.05 125.47 182.379 124.87 182.479 124.29C182.579 123.72 182.73 123.13 182.68 122.56C182.53 120.91 182.13 119.26 182.12 117.61C182.08 90.71 182.119 63.82 182.059 36.92C182.059 34.19 181.63 31.47 181.35 28.06C179.59 30.86 179.17 33.12 179.14 35.58C179.1 38.68 178.2 41.85 178.6 44.86C179.31 50.14 179.579 55.33 178.519 60.57C178.359 61.35 178.69 62.23 178.7 63.06C178.71 65.89 178.7 68.73 178.66 71.56C178.64 73 178.319 74.47 178.519 75.88C178.769 77.62 179.409 79.15 178.759 81.1C178.249 82.63 179.089 84.57 179.149 86.34C179.189 87.6 178.809 88.86 178.819 90.12C178.829 93.4 178.74 96.7 179.1 99.95C179.37 102.36 178.709 104.66 179.049 107.11C179.519 110.56 179.589 114.19 179.039 117.61C178.499 120.99 178.22 124.18 179.1 127.52C179.42 128.73 178.94 130.13 178.93 131.44C178.88 134.91 178.879 138.37 178.879 141.84C178.879 142.06 179.14 142.28 179.14 142.5C179.16 143.95 179.229 145.41 179.129 146.86C178.989 148.75 178.529 150.64 178.519 152.53C178.509 154.42 179.039 156.31 179.039 158.2C179.039 160.2 178.349 162.24 178.539 164.2C178.939 168.24 178.65 172.25 178.41 176.25C178.19 180.04 178.599 183.81 178.439 187.59C178.309 190.51 177.76 193.43 179.12 196.23C179.22 196.43 179.169 196.71 179.149 196.95C178.929 199.58 178.429 202.22 178.529 204.83C178.699 209.34 177.89 213.81 178.41 218.34C178.67 220.6 178.269 222.94 178.209 225.25C178.179 226.38 178.199 227.53 178.309 228.65C178.479 230.4 179.03 232.15 178.93 233.87C178.68 238.56 177.689 243.25 177.939 247.9C178.159 252 178.05 256.11 178.39 260.21C178.65 263.42 177.64 266.79 178.2 269.9C178.77 273.1 177.82 276.16 178.35 279.32C178.71 281.49 177.899 283.84 177.789 286.11C177.719 287.65 177.939 289.22 178.069 290.77C178.119 291.35 178.49 291.97 178.37 292.49C177.68 295.46 178.779 298.54 177.769 301.48C177.629 301.88 177.91 302.41 177.93 302.89C177.98 303.78 178.01 304.68 177.99 305.57C177.97 306.28 177.769 307 177.829 307.69C177.989 309.46 178.36 311.22 178.45 312.99C178.7 317.94 177.419 322.88 178.439 327.84C178.579 328.5 178.3 329.25 178.18 329.95C178.06 330.65 177.579 331.47 177.799 332.01C178.729 334.26 177.779 336.44 177.819 338.62C177.949 344.87 176.989 351.16 178.419 357.38C178.589 358.14 178.199 359.02 178.149 359.85C178.099 360.63 178.13 361.42 178.18 362.21C178.22 362.92 178.44 363.63 178.39 364.32C178.23 366.21 177.849 368.09 177.769 369.99C177.659 372.77 177.439 375.6 177.819 378.34C178.219 381.2 177.619 383.96 177.749 386.76C177.929 390.59 177.129 516.12 178.419 519.9C178.629 520.52 178.33 519.19 178.24 519.9C178.09 521.08 177.799 518.72 177.769 519.9C177.699 522.68 177.749 517.11 177.749 519.9H154.47V520.04Z" fill="#9ED0CE"/>
<path d="M8.4301 520.04C8.4301 513.25 8.4101 398.83 8.4301 392.04C8.4401 388.63 7.98977 385.25 8.33977 381.8C8.69977 378.32 8.49983 374.78 8.39983 371.27C8.29983 367.63 7.99979 364 7.85979 360.36C7.82979 359.44 8.10987 358.52 8.18987 357.59C8.28987 356.52 8.63975 355.33 8.31975 354.38C7.31975 351.36 7.74003 348.43 8.35003 345.45C8.47003 344.89 8.31016 344.26 8.24016 343.67C8.07016 342.26 7.70989 340.85 7.70989 339.44C7.67989 293.47 7.70983 247.51 7.64983 201.54C7.64983 196.33 7.15991 191.13 6.97991 185.92C6.93991 184.75 7.32987 183.58 7.43987 182.4C7.50987 181.59 7.48985 180.76 7.41985 179.95C7.29985 178.65 6.93016 177.35 6.99016 176.06C7.24016 170.34 6.84987 164.63 6.93987 158.91C7.02987 153.1 6.95989 147.28 6.95989 141.46C6.95989 135.64 6.95989 129.83 6.95989 124.01C6.95989 118.19 7.0001 112.38 6.9301 106.56C6.9201 105.15 6.58006 103.74 6.39006 102.33C6.37006 102.21 6.26997 102.09 6.28997 101.99C6.98997 98.47 7.31004 94.95 6.37004 91.42C7.74004 89.3 6.08979 87.28 6.10979 85.17C6.30979 68.82 6.23012 52.46 6.20012 36.1C6.20012 34.69 5.86987 33.27 5.68987 31.86C5.65987 31.63 5.50997 31.39 5.53997 31.17C6.43997 23.92 5.04016 16.67 5.49016 9.41998C5.56016 8.21998 5.49993 7.00999 5.49993 5.60999C6.13993 5.47999 6.70016 5.21997 7.24016 5.27997C10.9102 5.66997 14.5599 6.21001 18.2299 6.51001C19.4899 6.61001 20.84 5.83998 22.06 6.03998C25.78 6.64998 29.4601 6.24 33.1601 6C33.8501 5.96 34.5599 6.26998 35.2699 6.28998C36.5399 6.32998 37.8198 6.31001 39.0898 6.26001C39.9198 6.22001 40.7998 5.84001 41.5698 6.01001C47.2998 7.33001 53.1098 6.45999 58.8798 6.67999C60.6998 6.74999 62.48 7.16001 64.35 6.14001C65.24 5.66001 66.8398 6.51999 68.1298 6.67999C70.3798 6.95999 72.6301 7.2 74.8901 7.38C75.9701 7.47 77.1601 7.66002 78.1401 7.33002C81.4601 6.23002 84.8401 7.11997 88.1401 6.77997C91.0401 6.47997 93.87 8.18997 96.77 6.77997C97.4 6.46997 98.4001 6.89 99.2201 7C100.04 7.12 100.89 7.50001 101.67 7.39001C106.67 6.69001 111.64 7.68997 116.64 7.46997C121.6 7.24997 126.58 7.28998 131.55 7.47998C133.89 7.56998 136.2 7.60001 138.53 7.45001C139.34 7.40001 140.16 7.60998 141.21 7.72998C142.05 7.23998 143.11 6.47998 144.27 5.97998C145.31 5.53998 146.48 5.39 148.06 5C148.06 9.42 148.21 13.39 148.01 17.34C147.86 20.3 147.99 23.24 147.98 26.19C147.97 28.7 147.57 31.2 147.39 33.71C147.31 34.8 147.35 35.89 147.35 36.98C147.35 74.06 147.35 111.13 147.32 148.21C147.32 149.98 146.89 151.74 146.69 153.51C146.62 154.11 146.51 154.75 146.66 155.32C147.73 159.46 147.75 163.6 146.76 167.75C148.49 172.26 145.25 176.9 147.22 181.51C147.81 182.89 147.01 184.86 146.84 186.56C146.78 187.15 146.6 187.75 146.65 188.34C146.84 190.61 147.19 192.86 147.27 195.13C147.31 196.16 146.64 197.21 146.67 198.24C146.75 200.74 147.16 203.23 147.23 205.72C147.26 206.99 146.66 208.28 146.65 209.56C146.59 218.28 146.62 227.01 146.62 235.73C148.05 238.63 145.97 241.69 147.17 244.77C147.78 246.33 146.65 248.48 146.65 250.37C146.6 271.57 146.65 292.78 146.59 313.98C146.58 317.32 145.96 320.66 145.95 324C145.94 326.86 146.73 329.73 146.57 332.57C145.03 359.17 146.34 493.43 145.9 520.03H132.81C132.76 519.19 132.96 520.72 132.61 520.03C132.01 521.35 131.94 518.7 132.61 520.03C132.93 519.32 132.84 520.86 132.79 520.03C132.55 516.08 133.04 395.74 132.25 391.75C131.71 389.03 132.82 386.03 132.74 383.17C132.6 378.01 133.51 372.81 132.13 367.68C131.93 366.93 132.36 366.04 132.37 365.21C132.4 362 132.4 358.79 132.37 355.58C132.37 354.88 131.98 354.11 132.16 353.48C133.15 350.04 133.03 346.68 132.17 343.22C131.78 341.62 131.74 339.74 132.18 338.17C133.23 334.45 131.42 330.64 132.75 326.98C132.85 326.71 132.51 326.31 132.49 325.96C132.36 323.69 132.12 321.42 132.18 319.16C132.29 315.02 133 310.85 132.65 306.76C132.37 303.54 131.64 300.4 132.56 297.2C131.12 291.68 132.71 286.09 132.13 280.53C131.76 277.01 132.06 273.42 132.06 269.86C132.06 265.74 132.06 261.62 132.06 257.5V245.14C132.06 240.9 131.86 236.65 132.12 232.42C132.36 228.39 131.41 224.44 131.95 220.36C132.41 216.9 131.84 213.33 131.97 209.78C132.12 205.85 131.48 201.89 131.38 197.94C131.34 196.3 132.4 194.44 131.91 193.05C130.7 189.63 131.61 186.22 131.44 182.84C131.1 176.32 131.18 169.76 131.39 163.22C131.6 156.66 130.69 150.1 131.34 143.54C131.72 139.65 130.52 135.76 131.32 131.85C131.45 131.19 131.18 130.44 131.08 129.73C130.93 128.67 130.61 127.61 130.65 126.56C130.81 122.71 130.62 118.86 130.62 115.02C130.62 106.33 130.63 97.63 130.62 88.94C130.61 73.07 130.62 57.2 130.62 41.33V38.32C130.36 38.3 130.1 38.29 129.84 38.27C129.61 39.62 129.17 40.98 129.2 42.33C129.35 47.69 128.87 53.03 129.12 58.39C129.33 63.03 129.15 67.69 129.16 72.34C129.16 81.23 129.18 90.12 129.14 99.01C129.14 100.06 128.74 101.11 128.69 102.17C128.62 103.95 128.64 105.74 128.69 107.52C128.73 108.93 128.69 110.38 129.02 111.74C129.83 115.1 127.75 118.46 129.13 121.78C128.12 123.96 129.5 126.17 129.06 128.37C128.78 129.76 128.46 131.18 128.46 132.59C128.42 146.64 128.43 160.7 128.43 174.75C128.43 175.72 128.68 176.81 128.32 177.63C127.58 179.31 128.05 180.77 128.22 182.45C128.57 185.9 128.13 189.43 127.99 192.92C127.97 193.51 127.68 194.11 127.74 194.67C128.14 198.1 128.92 201.5 127.77 204.98C127.47 205.9 127.98 207.08 128.1 208.14C128.17 208.72 128.31 209.3 128.26 209.87C128.12 211.4 127.73 212.93 127.72 214.46C127.67 224.08 127.64 233.69 127.73 243.31C127.75 245.59 126.83 247.97 128.3 250.21C128.55 250.58 127.89 251.5 127.77 252.18C127.64 252.94 127.64 253.72 127.61 254.49C127.48 259.42 127.33 264.35 127.24 269.28C127.21 271.19 127.31 273.11 127.35 275.03C127.4 277.06 127.55 279.09 127.49 281.11C127.43 282.93 126.64 284.88 127.06 286.54C127.81 289.45 127.66 292.16 126.99 294.99C126.78 295.89 127.02 296.9 127.13 297.86C127.28 299.16 127.69 300.45 127.64 301.73C127.53 304.35 127.07 306.96 127 309.58C126.96 311.1 127.61 312.63 127.59 314.14C127.55 316.41 127.14 318.66 126.98 320.93C126.93 321.62 127.3 322.32 127.34 323.02C127.4 324.18 127.41 325.35 127.34 326.51C127.28 327.46 126.84 328.44 127 329.32C127.6 332.63 126.84 335.91 126.98 339.19C127.06 340.96 127.88 342.81 127.57 344.47C126.69 349.26 126.56 353.97 127.62 358.72C127.74 359.27 127.54 359.9 127.46 360.49C127.3 361.66 127 362.83 126.98 364.01C126.92 367.52 127.03 371.04 126.93 374.55C126.87 376.6 125.81 378.97 126.52 380.63C127.65 383.28 127.07 385.68 126.98 388.23C126.88 391.26 126.78 517 127 520.01C127.26 523.63 125.97 516.46 127.62 520.01C127.77 520.34 127.36 519.55 127.29 520.01C127.15 520.95 127.06 519.06 126.96 520.01H120.41C120.41 518.27 120.34 521.75 120.42 520.01C120.62 515.7 120.01 524.33 121.03 520.01C121.44 518.27 120.13 390.3 120.56 388.58C121.62 384.37 121.14 380.17 121.07 375.99C120.96 368.77 121.92 361.51 120.44 354.33C120.35 353.9 120.65 353.4 120.66 352.93C120.68 352.04 120.61 351.14 120.62 350.25C120.62 349.19 120.62 348.13 120.72 347.08C120.79 346.26 121.17 345.44 121.11 344.64C120.96 342.25 120.66 339.87 120.43 337.48C120.4 337.12 120.31 336.7 120.45 336.4C122.3 332.59 120.16 328.72 120.63 324.89C120.82 323.39 121.2 321.82 120.93 320.38C119.86 314.7 120.66 309.03 120.75 303.35C120.78 301.52 121.48 299.55 121.02 297.89C120.11 294.63 120.8 291.38 120.48 288.13C120.16 284.89 120.46 281.59 120.4 278.32C120.34 275.03 120.62 271.74 120.46 268.44C120.25 263.97 120.41 259.48 120.41 254.99V215.01C120.41 210.53 120.25 206.04 120.45 201.56C120.65 197.17 119.63 192.83 120.36 188.42C121.1 183.95 119.46 179.43 120.38 174.93C120.47 174.49 120.26 173.99 120.23 173.51C120.07 170.63 119.48 167.69 119.87 164.89C120.51 160.33 120.69 155.9 119.79 151.35C119.43 149.52 119.88 147.53 119.99 145.62C120.07 144.32 120.34 143.01 120.28 141.72C120.21 140.19 119.71 138.67 119.71 137.14C119.71 135.62 120.27 134.09 120.27 132.57C120.27 131.05 119.63 129.51 119.71 128.01C119.95 123.24 119.94 118.49 119.71 113.72C119.53 110.05 119.77 106.36 119.66 102.68C119.29 90.98 120.54 79.25 119 67.58C118.96 67.24 119.16 66.88 119.16 66.53C119.18 64.91 119.16 63.29 119.16 61.67C119.16 60.61 119.13 59.55 119.21 58.49C119.3 57.31 119.68 56.13 119.64 54.96C119.47 50.28 119.16 45.61 118.95 40.94C118.75 36.4 119.52 31.79 117.88 27.11C116.83 29.25 116.3 31.09 116.56 33.5C116.91 36.67 116.29 39.96 116.02 43.19C115.86 45.08 115.41 46.97 115.39 48.85C115.37 52.01 115.43 55.22 115.58 58.33C115.73 61.55 116.15 64.64 115.42 67.87C115.07 69.43 115.55 71.19 115.69 72.86C115.76 73.69 116.05 74.52 116 75.33C115.83 77.96 115.37 80.59 115.35 83.22C115.33 86.51 115.53 89.78 115.43 93.09C115.36 95.51 115.52 97.94 115.41 100.41C115 110.05 114.91 119.7 114.89 129.35C114.87 136.25 115.21 143.14 115.26 150.04C115.27 152.05 114.68 154.05 114.6 156.07C114.48 158.97 113.88 162.13 114.78 164.72C115.72 167.44 113.74 170.41 115.99 172.78C116.17 172.97 116.07 173.5 115.97 173.84C114.8 178.04 114.75 182.29 115.27 186.59C115.39 187.53 115.44 188.61 115.08 189.44C114.61 190.55 114.53 191.41 115.1 192.5C115.39 193.06 115.2 193.9 115.13 194.6C114.99 195.89 114.69 197.17 114.58 198.47C114.11 204.06 115.35 209.64 114.61 215.24C114.47 216.26 114.9 217.34 115.03 218.4C115.1 218.97 115.2 219.58 115.08 220.13C114.3 223.81 114.14 227.47 115.2 231.13C115.39 231.8 115.38 232.6 115.24 233.29C114.15 238.77 114.17 244.23 115.24 249.71C115.38 250.4 115.28 251.16 115.2 251.88C115.02 253.41 114.62 254.93 114.6 256.46C114.52 261.18 114.59 265.91 114.57 270.63C114.55 275.37 115.01 280.1 114.63 284.86C114.33 288.59 114.63 292.37 114.54 296.12C114.5 297.77 113.54 299.6 114.01 301.01C115.24 304.79 113.88 308.57 114.56 312.3C114.84 313.81 115.07 315.34 115.19 316.87C115.25 317.68 115.16 318.56 114.88 319.31C113.74 322.33 114.71 325.56 113.86 328.6C113.8 328.82 113.79 329.12 113.89 329.32C114.51 330.56 114.68 331.68 113.97 333.05C113.6 333.77 114.03 334.91 114.14 335.86C114.25 336.8 114.68 337.8 114.49 338.65C114.22 339.82 114.38 340.85 114.47 342.01C114.72 345.31 115.07 348.75 114.4 351.92C113.61 355.68 114.11 359.36 113.9 363.06C113.84 364.08 114.6 365.2 114.38 366.14C113.2 371.17 113.63 376.29 114.06 381.26C114.34 384.55 113.86 387.84 114.49 391.12C115.04 393.96 114.54 517.01 115.07 519.96C115.48 522.25 114.48 517.52 115.26 519.96C115.32 520.14 115.18 519.85 115.02 519.96C113.05 521.31 114.39 518.42 114.59 519.96H91.31C91.51 517.89 91.8801 522.15 91.4301 519.96C90.9901 517.82 91.6899 522.21 91.6699 519.96C91.6199 514.9 91.4 389.21 91.33 384.15C91.31 382.89 91.6599 381.63 91.6699 380.37C91.6699 378.59 91.4101 376.8 91.4501 375.02C91.5101 371.29 91.6698 367.57 91.3598 363.83C91.1398 361.18 90.6099 358.24 91.4799 355.9C92.7299 352.53 90.2299 349.26 91.9399 346.12C90.4199 344.39 92.5901 342.64 91.9501 340.99C90.4501 337.14 91.9901 333.19 91.4301 329.3C91.1801 327.58 92.1098 325.68 91.8198 323.97C91.1298 319.9 90.8901 315.91 91.9701 311.89C92.1101 311.35 91.93 310.7 91.85 310.11C91.69 308.94 91.3598 307.77 91.3398 306.6C91.2498 302.1 91.4498 297.59 91.3998 293.08C91.3598 289.8 91.81 286.58 91.52 283.19C90.95 276.61 91.5301 269.92 91.6601 263.28C91.6901 261.7 92.4902 259.52 91.7402 258.65C90.1702 256.83 91.26 255.33 91.27 253.65C91.29 251.39 90.9297 249.13 90.7597 246.87C90.6897 246.03 90.4201 245.09 90.7001 244.37C91.3301 242.72 91.7302 241.19 90.7402 239.55C90.5802 239.28 90.5601 238.8 90.6801 238.5C92.0301 234.84 90.6399 231.05 91.2499 227.32C91.6599 224.84 91.33 222.24 91.33 219.7C91.33 217.28 91.9098 214.64 91.1498 212.48C90.2098 209.81 91.5899 207.58 91.4399 205.1C91.0899 199.09 91.3601 193.06 90.6801 187.04C90.4001 184.6 90.1499 181.99 90.7299 179.67C91.3699 177.1 90.58 174.76 90.6 172.32C90.63 167.84 90.6 163.35 90.6 158.87C90.6 154.39 90.4998 149.9 90.6298 145.42C90.7598 141.04 90.2 136.68 90.54 132.28C90.84 128.43 90.5098 124.53 90.6298 120.65C90.7498 116.87 90.1697 113.13 90.5097 109.32C90.7397 106.73 90.0601 104.06 89.9101 101.42C89.8501 100.36 90.0901 99.29 90.2201 98.22C90.3101 97.52 90.7097 96.73 90.5097 96.14C89.1497 92.11 90.1501 87.99 89.9101 83.92C89.8401 82.78 90.4701 81.61 90.4501 80.45C90.4101 78.68 89.9298 76.92 89.8998 75.14C89.8198 70.42 89.7698 65.69 89.8998 60.97C90.0398 56.22 89.2298 51.49 89.8598 46.74C89.9498 46.03 90.0598 45.21 89.8198 44.57C88.4798 41.1 89.5898 37.5 89.3798 33.99C89.2098 31.07 88.6099 28.12 88.9399 25.12C88.4099 25.61 87.8299 26.26 87.9799 26.63C88.8799 28.92 87.9297 31.06 87.7997 33.28C87.4397 39.23 87.32 45.21 87.56 51.16C87.71 54.85 86.8501 58.46 87.4301 62.19C87.8301 64.74 87.0002 67.45 86.9902 70.09C86.9302 82.86 87.0101 95.63 86.9301 108.39C86.9101 111.9 86.5301 115.41 86.2201 118.91C85.7701 124.02 86.8801 129.08 86.4301 134.25C86.2001 136.96 86.1399 139.84 86.2499 142.64C86.2999 143.94 86.6297 145.22 86.7797 146.51C86.8597 147.21 86.89 147.94 86.81 148.64C86.66 150.05 86.2799 151.45 86.2499 152.87C86.1699 156.99 86.2201 161.11 86.2201 165.23C86.2201 167.29 86.2599 169.35 86.2099 171.41C86.1599 173.4 87.55 175.49 85.83 177.38C86.47 180.35 86.5598 183.3 85.6098 186.23C87.1798 190.75 85.5798 195.39 86.1298 199.97C86.4198 202.4 85.8599 204.96 85.4599 207.43C85.0499 210.03 87.3 212.54 85.6 215.13C86.91 219.69 85.87 224.23 85.52 228.78C85.44 229.83 85.7298 230.91 85.8598 231.97C85.9298 232.55 86.1198 233.13 86.0898 233.7C85.9198 236.7 85.67 239.69 85.52 242.69C85.49 243.26 85.8298 243.83 85.8998 244.42C86.0398 245.61 86.4101 246.87 86.1601 247.98C85.3901 251.42 84.9701 254.8 86.1401 258.24C86.2701 258.62 85.88 259.14 85.87 259.6C85.77 264.29 85.6301 268.99 85.6601 273.68C85.6801 276.87 86.3702 280.11 85.9902 283.23C85.4202 287.91 85.0898 292.5 86.1098 297.12C86.2098 297.56 86.2597 298.27 86.0097 298.49C84.6297 299.74 85.4597 301.03 85.7597 302.35C85.9597 303.25 86.0697 304.2 86.0097 305.11C85.8097 308.17 85.11 311.24 85.33 314.26C85.87 321.79 85.0701 329.3 85.4701 336.82C85.6501 340.14 84.7698 343.37 85.3198 346.84C86.0498 351.37 85.5701 356.11 85.4701 360.76C85.4301 362.89 84.3899 365.22 84.9599 367.1C86.1799 371.12 85.2 375.09 85.37 379.05C85.77 388.36 85.4999 510.57 85.4999 519.9C85.4999 521.64 85.4999 518.16 85.4999 519.9H78.9501C79.1101 516.65 77.6999 523.08 79.4199 519.9C79.4599 519.83 79.36 520.01 79.35 519.9C78.87 511.98 78.3101 386.33 79.6601 378.43C79.7201 378.08 79.7598 377.65 79.6098 377.35C78.3198 374.68 78.7398 371.93 78.8598 369.09C79.1298 362.95 79.1001 356.79 78.9101 350.64C78.6001 340.52 79.5498 330.39 78.3998 320.25C77.9898 316.69 79.0199 312.93 78.2499 309.25C78.0799 308.44 77.9798 307.42 78.3198 306.74C80.2498 302.95 76.9998 298.95 78.8598 295.17C78.9598 294.97 78.5201 294.55 78.4501 294.21C78.3301 293.63 78.14 292.99 78.27 292.45C79.35 287.94 79.29 283.45 78.27 278.93C78.05 277.93 78.3699 276.8 78.4799 275.73C78.5999 274.55 79.02 273.34 78.87 272.2C78.55 269.86 78.61 267.59 78.85 265.23C79.15 262.23 78.6702 259.15 78.9902 256.16C79.3102 253.2 77.3498 250.31 78.8798 247.38C77.7198 245.18 78.2498 243 78.8798 240.77C79.1298 239.87 78.9598 238.84 78.8798 237.88C78.6898 235.63 78.1597 233.36 78.2797 231.13C78.3997 229 78.2501 226.91 78.1601 224.81C78.0701 222.61 78.6998 220.53 78.3998 218.2C77.6898 212.63 78.4599 206.94 78.2299 201.3C78.0599 197.07 78.2001 192.82 78.2001 188.58C78.2001 184.34 78.0999 180.1 78.2299 175.86C78.3499 171.72 77.7098 167.61 78.1498 163.45C78.6298 158.86 77.5798 154.23 78.1498 149.59C78.3998 147.59 77.9701 145.51 77.9701 143.47C77.9701 141.38 78.1499 139.29 78.1899 137.19C78.2599 133.9 76.7098 130.63 78.1498 127.3C78.3898 126.74 78.0198 125.9 77.8998 125.2C77.7998 124.62 77.3798 123.91 77.5898 123.51C78.3198 122.09 78.1801 120.9 77.6401 119.4C77.2101 118.21 77.4999 116.69 77.7099 115.35C78.0599 113.13 76.9998 110.67 77.6498 108.86C78.9898 105.15 77.03 101.55 78.08 98C76.53 93.98 78.3999 89.81 77.4999 85.74C76.8099 82.62 78.7899 79.42 77.4999 76.24C77.3899 75.96 77.6501 75.55 77.6601 75.2C77.8001 72.32 78.02 69.45 78.02 66.57C78.02 65.04 77.5002 63.52 77.4902 61.99C77.4402 52.9 77.4901 43.82 77.4301 34.73C77.4201 33.08 76.8897 31.45 76.7597 29.79C76.6397 28.26 76.7299 26.71 76.7299 25.17C75.8799 28.28 75.38 31.36 75.31 34.44C75.04 45.24 75.3901 56.03 74.6801 66.84C74.3101 72.43 73.7501 78.17 75.2201 83.76C75.3401 84.21 75.3201 84.75 75.2001 85.2C74.2001 88.98 74.1601 92.74 75.1801 96.54C75.3901 97.33 75.3901 98.27 75.1801 99.06C74.1801 102.85 74.1901 106.61 75.1801 110.4C75.3301 110.96 75.2501 111.61 75.1801 112.2C74.9901 113.85 74.5698 115.49 74.5698 117.14C74.5198 130.83 74.53 144.52 74.56 158.21C74.56 160.77 74.1401 163.31 74.4301 165.91C74.6301 167.68 73.74 169.59 74.02 171.32C74.33 173.23 74.24 174.95 74.06 176.86C73.76 179.96 74.3697 183.14 74.5297 186.28C74.5697 187.11 74.35 187.95 74.33 188.78C74.3 191.13 74.29 193.48 74.31 195.83C74.32 197.26 74.5101 198.7 74.4301 200.13C74.3101 202.4 73.2899 204.93 73.9799 206.88C75.4999 211.16 74.1799 215.38 74.2299 219.55C74.2799 223.56 73.4899 227.58 74.4999 231.6C74.6399 232.17 74.5399 232.81 74.4799 233.41C74.2799 235.3 73.8498 237.18 73.8398 239.07C73.7798 251.31 73.8 263.54 73.83 275.78C73.83 276.96 74.1002 278.14 74.2402 279.32C74.3002 279.89 74.4698 280.5 74.3598 281.05C73.1398 286.92 74.09 292.84 73.87 298.73C73.84 299.63 74.3498 300.55 74.3198 301.45C74.2498 303.47 73.2799 305.77 73.9599 307.45C75.5399 311.37 72.5199 315.3 74.4999 319.03C73.0299 323.78 73.81 328.64 73.81 333.46C73.81 337.7 73.8897 341.94 73.7797 346.18C73.7097 348.68 73.1499 351.17 73.1699 353.66C73.1899 355.73 72.29 357.98 74.04 359.92C74.42 360.34 74.4 361.68 74.02 362.13C72.53 363.87 73.21 365.75 73.27 367.63C73.35 370.22 73.3498 372.81 73.3198 375.41C73.2998 376.97 72.7801 378.64 73.1801 380.06C74.5201 384.77 73.6098 515.21 73.6498 519.92C73.6798 522.98 73.3301 516.81 73.1601 519.92C73.0001 522.8 73.5597 517.02 73.7997 519.92H49.7997C50.0097 516.58 50.36 523.26 50.37 519.92C50.38 517.02 49.8998 522.83 49.8198 519.92C49.7198 515.8 49.66 385.3 49.83 381.19C50 377.05 49.2701 372.95 49.7001 368.77C50.1101 364.77 49.79 360.69 49.79 356.65C49.79 351.27 49.8397 345.9 49.7597 340.52C49.7397 338.88 48.9799 337.16 49.2699 335.62C49.9399 332.15 50.0899 328.77 49.2099 325.34C49.0399 324.67 49.1499 323.92 49.2299 323.21C49.3799 321.92 49.7999 320.62 49.7499 319.34C49.3999 309.95 50.65 300.51 49.08 291.15C50.82 288.02 48.9201 284.71 49.6401 281.42C50.4101 277.91 48.7602 274.16 49.7402 270.49C49.9102 269.86 49.5101 269.09 49.4701 268.39C49.4201 267.61 49.4801 266.82 49.4701 266.03C49.4601 263.17 49.4601 260.31 49.4101 257.44C49.4101 256.86 48.9598 256.15 49.1698 255.73C50.9398 252.31 48.3901 248.69 49.7201 245.27C49.7901 245.09 49.56 244.82 49.56 244.59C49.54 242.24 49.5297 239.89 49.5297 237.55C49.5297 236.25 49.5899 234.94 49.4999 233.65C49.4299 232.59 48.9098 231.49 49.0898 230.49C49.9598 225.64 48.6499 220.79 49.4599 215.86C49.9699 212.73 49.2701 209.31 49.6801 205.98C49.9001 204.15 49.0098 202.21 49.0898 200.33C49.2998 195.05 48.2899 189.72 49.7099 184.49C49.8499 183.96 49.5999 183.32 49.5199 182.73C49.3599 181.55 49.0798 180.38 49.0698 179.2C49.0098 175.04 49.0497 170.87 49.0497 166.71C49.0497 161.62 48.9198 156.53 49.0898 151.45C49.2498 146.34 48.8801 141.25 48.9301 136.14C49.0101 128.21 49.6101 120.26 48.4701 112.3C47.9001 108.3 48.9801 104.15 48.4101 100.02C48.1201 97.94 48.7997 95.75 48.7997 93.61C48.7997 91.37 48.43 89.14 48.37 86.9C48.34 85.98 48.72 85.05 48.85 84.11C48.95 83.41 49.0301 82.68 48.9701 81.98C48.8101 80.33 48.38 78.69 48.37 77.04C48.32 65.41 48.36 53.78 48.31 42.16C48.31 41.24 48.9302 39.96 47.4902 39.37C46.1402 41.67 45.8198 43.88 46.3598 46.29C46.5598 47.2 46.7902 48.15 46.7402 49.06C46.6702 50.47 46.2199 51.87 46.1899 53.28C46.1099 57.64 46.1298 62 46.1698 66.36C46.2098 70.77 46.0401 75.17 46.1401 79.58C46.1701 80.65 45.96 81.72 45.87 82.79C45.72 84.7 45.1397 86.7 45.5497 88.49C46.3497 92.02 46.2197 95.41 45.5097 98.88C45.3697 99.54 45.6199 100.29 45.7299 100.99C45.8499 101.81 46.33 102.73 46.1 103.42C44.7 107.59 46.0997 111.84 45.5297 116.06C44.9497 120.38 46.0102 124.79 45.4902 129.19C45.1902 131.7 45.8498 134.36 45.3198 136.79C44.7498 139.46 45.5499 141.94 45.4999 144.51C45.3299 155.01 45.4798 165.52 45.3998 176.03C45.3798 178.89 44.7797 181.74 44.7597 184.6C44.7397 187.31 45.7199 189.9 45.2099 192.75C44.7299 195.44 45.2197 198.31 45.2797 201.1C45.2997 202.05 45.5902 203.14 45.2402 203.93C44.2202 206.23 45.07 208.34 45.33 210.58C45.58 212.78 44.8597 215.06 44.7997 217.32C44.7697 218.59 45.3901 219.88 45.4101 221.16C45.4501 223.4 45.3299 225.68 45.2099 227.88C45.1099 229.62 45.8997 231.35 45.2997 233.01C44.4097 235.49 44.6499 237.87 45.2099 240.4C45.6199 242.23 45.3497 244.23 45.2597 246.14C45.1697 247.92 44.4198 249.81 44.8398 251.44C45.4598 253.87 44.88 256.1 44.85 258.43C44.8 263.94 43.9501 269.52 45.3901 274.99C45.5101 275.44 45.4298 275.96 45.3798 276.43C45.1798 278.2 44.7999 279.96 44.7499 281.73C44.6599 285.85 44.8299 289.97 44.6899 294.08C44.5499 298.22 45.5097 302.34 44.7797 306.5C44.5797 307.61 45.1401 308.84 45.2001 310.02C45.2801 311.8 45.2699 313.59 45.1899 315.37C45.1399 316.43 44.7697 317.48 44.7597 318.54C44.7097 322.54 44.9199 326.54 44.6899 330.53C44.4699 334.39 46.1599 338.32 44.2499 342.1C45.2699 344.94 44.72 347.73 44.06 350.55C43.91 351.19 44.27 351.94 44.37 352.65C44.74 355.23 45.0999 357.82 45.4399 360.41C45.4699 360.63 45.4097 360.96 45.2597 361.08C43.7897 362.29 44.6797 363.61 45.0297 364.92C45.2097 365.6 45.6698 366.54 45.3998 366.96C43.8398 369.27 45.2701 371.8 44.7201 374.12C43.7701 378.07 44.6101 382.07 44.3901 386.03C44.1701 390.11 45.1898 515.79 44.1498 519.93C44.0898 520.19 44.3498 519.71 44.5898 519.93C45.8398 521.11 45.6897 518.77 44.5297 519.93C44.2697 520.19 44.2199 519.5 44.2499 519.93C44.3899 522.67 44.5797 517.19 44.7597 519.93H37.4902C37.2802 518.65 36.7101 521.14 36.9101 519.93C37.8201 514.2 37.8998 397.03 36.8598 391.31C36.7798 390.87 36.93 390.37 37.04 389.92C37.75 387.08 37.59 384.3 37.04 381.41C36.62 379.21 37.0398 376.85 37.0898 374.56C37.1898 371.08 37.41 367.6 37.37 364.12C37.34 361.36 36.3999 358.48 36.9399 355.87C37.6299 352.6 37.3301 349.4 37.4501 346.18C37.5001 344.91 36.8601 343.62 36.8901 342.34C36.9301 340.33 37.4199 338.32 37.4399 336.31C37.4599 334.4 37.0499 332.48 36.9799 330.56C36.8899 328.12 36.8901 325.67 36.9501 323.22C36.9901 321.77 37.3598 320.31 37.3198 318.86C37.2198 315.59 36.87 312.32 36.81 309.05C36.78 307.65 37.69 306.13 37.37 304.87C36.61 301.84 36.75 298.81 36.81 295.78C36.86 293.04 37.4001 290.31 37.4301 287.57C37.4501 285.56 36.8597 283.56 36.7997 281.54C36.6497 276.26 37.0098 270.99 36.8198 265.71C36.6998 262.32 37.67 258.82 37.12 255.54C36.16 249.77 37.45 244.08 36.87 238.33C36.45 234.25 36.2601 230.09 36.6801 225.92C36.9301 223.47 36.1899 220.94 36.1899 218.44C36.1899 215.95 36.6502 213.47 36.7402 210.97C36.8402 208.19 36.8302 205.4 36.7402 202.61C36.6902 201.2 35.8101 199.63 36.2201 198.44C37.1801 195.68 36.5899 192.93 36.7299 190.2C36.7899 189.05 36.0201 187.84 36.1801 186.73C37.1201 180.15 37.2098 173.6 36.1098 167.03C35.9798 166.23 36.21 165.37 36.31 164.54C36.45 163.36 36.9401 162.13 36.7201 161.02C36.0601 157.58 36.8699 154.19 36.7699 150.78C36.6599 147.01 36.52 143.24 36.31 139.48C36.05 135 36.63 130.5 36.08 126.02C36.01 125.47 36.3399 124.87 36.4399 124.29C36.5399 123.72 36.6901 123.13 36.6401 122.56C36.4901 120.91 36.09 119.26 36.08 117.61C36.04 90.71 36.0799 63.82 36.0199 36.92C36.0199 34.19 35.59 31.47 35.31 28.06C33.55 30.86 33.13 33.12 33.1 35.58C33.06 38.68 32.16 41.85 32.56 44.86C33.27 50.14 33.5399 55.33 32.4799 60.57C32.3199 61.35 32.6501 62.23 32.6601 63.06C32.6701 65.89 32.66 68.73 32.62 71.56C32.6 73 32.2799 74.47 32.4799 75.88C32.7299 77.62 33.3701 79.15 32.7201 81.1C32.2101 82.63 33.0498 84.57 33.1098 86.34C33.1498 87.6 32.7697 88.86 32.7797 90.12C32.7897 93.4 32.7 96.7 33.06 99.95C33.33 102.36 32.6697 104.66 33.0097 107.11C33.4797 110.56 33.5499 114.19 32.9999 117.61C32.4599 120.99 32.18 124.18 33.06 127.52C33.38 128.73 32.9001 130.13 32.8901 131.44C32.8401 134.91 32.8398 138.37 32.8398 141.84C32.8398 142.06 33.1 142.28 33.1 142.5C33.12 143.95 33.1898 145.41 33.0898 146.86C32.9498 148.75 32.4899 150.64 32.4799 152.53C32.4699 154.42 32.9999 156.31 32.9999 158.2C32.9999 160.2 32.3099 162.24 32.4999 164.2C32.8999 168.24 32.61 172.25 32.37 176.25C32.15 180.04 32.5598 183.81 32.3998 187.59C32.2698 190.51 31.72 193.43 33.08 196.23C33.18 196.43 33.1298 196.71 33.1098 196.95C32.8898 199.58 32.3902 202.22 32.4902 204.83C32.6602 209.34 31.85 213.81 32.37 218.34C32.63 220.6 32.2298 222.94 32.1698 225.25C32.1398 226.38 32.1599 227.53 32.2699 228.65C32.4399 230.4 32.9901 232.15 32.8901 233.87C32.6401 238.56 31.6498 243.25 31.8998 247.9C32.1198 252 32.01 256.11 32.35 260.21C32.61 263.42 31.6001 266.79 32.1601 269.9C32.7301 273.1 31.78 276.16 32.31 279.32C32.67 281.49 31.8599 283.84 31.7499 286.11C31.6799 287.65 31.8997 289.22 32.0297 290.77C32.0797 291.35 32.45 291.97 32.33 292.49C31.64 295.46 32.7399 298.54 31.7299 301.48C31.5899 301.88 31.8701 302.41 31.8901 302.89C31.9401 303.78 31.9701 304.68 31.9501 305.57C31.9301 306.28 31.73 307 31.79 307.69C31.95 309.46 32.3201 311.22 32.4101 312.99C32.6601 317.94 31.3798 322.88 32.3998 327.84C32.5398 328.5 32.2601 329.25 32.1401 329.95C32.0201 330.65 31.5397 331.47 31.7597 332.01C32.6897 334.26 31.7397 336.44 31.7797 338.62C31.9097 344.87 30.9498 351.16 32.3798 357.38C32.5498 358.14 32.1598 359.02 32.1098 359.85C32.0598 360.63 32.0901 361.42 32.1401 362.21C32.1801 362.92 32.4 363.63 32.35 364.32C32.19 366.21 31.8099 368.09 31.7299 369.99C31.6199 372.77 31.3997 375.6 31.7797 378.34C32.1797 381.2 31.5799 383.96 31.7099 386.76C31.8899 390.59 31.0898 516.12 32.3798 519.9C32.5898 520.52 32.2901 519.19 32.2001 519.9C32.0501 521.08 31.7599 518.72 31.7299 519.9C31.6599 522.68 31.7099 517.11 31.7099 519.9H8.4301V520.04Z" fill="#9ED0CE"/>
<path d="M291.22 519.504C291.24 512.134 291.28 397.114 291.29 389.744C291.32 373.424 291.29 357.094 291.39 340.774C291.5 322.064 291.76 303.354 291.91 284.644C292.01 272.194 292 259.734 292.06 247.284C292.14 233.214 292.3 219.144 292.32 205.074C292.34 194.834 292.09 184.594 292.14 174.344C292.21 161.184 292.56 148.034 292.62 134.874C292.74 112.024 292.71 89.1736 292.79 66.3236C292.84 52.7036 292.94 39.0836 293.08 25.4636C293.13 20.2736 293.33 15.0836 293.45 9.90364C293.48 8.48364 293.45 7.05362 293.45 5.50362C292.61 5.59362 291.97 5.45364 291.7 5.71364C288.84 8.44364 285.05 7.13365 281.77 8.03365C280.47 8.38365 278.95 8.2236 277.59 7.9836C270.55 6.7036 263.47 7.96362 256.42 7.56362C250.66 7.23362 244.87 7.26362 239.1 7.19362C233.34 7.12362 227.58 7.12364 221.82 7.08364C219.44 7.06364 217.06 6.97363 214.68 6.95363C207.53 6.90363 200.37 6.95362 193.22 6.81362C188.79 6.73362 184.37 6.22362 179.95 6.19362C175.12 6.16362 170.29 6.64365 165.46 6.59365C161.87 6.55365 158.27 6.11365 154.69 5.66365C153.79 5.55365 152.97 4.72366 151.9 4.10366C153.63 2.02366 155.57 1.78365 157.45 1.72365C161.66 1.58365 165.88 1.63361 170.1 1.55361C178.52 1.38361 186.94 1.12361 195.36 0.99361C203.18 0.87361 211 0.903618 218.82 0.813618C228.67 0.703618 238.53 0.463644 248.38 0.403644C256.23 0.353644 264.08 0.553639 271.93 0.52364C275.15 0.51364 278.43 -0.316375 281.56 0.133625C285.45 0.693625 289.67 -1.13636 293.33 1.77364C293.99 2.30364 295.69 1.51363 297.05 1.32363C298.86 3.29363 298.39 5.82364 298.41 8.15364C298.55 19.8736 298.6 31.6036 298.66 43.3236C298.73 55.4236 298.77 67.5236 298.83 79.6236C298.94 101.844 299.04 124.074 299.17 146.294C299.25 159.944 299.41 173.594 299.44 187.234C299.48 200.354 299.4 213.484 299.37 226.604C299.35 235.454 299.29 244.314 299.35 253.164C299.41 261.984 299.65 270.804 299.7 279.624C299.8 298.044 299.78 316.464 299.9 334.874C299.95 343.144 300.34 351.404 300.35 359.674C300.37 372.134 300.15 507.044 300.16 519.514C300.16 524.454 300.5 514.574 300.68 519.514H291.22V519.504Z" fill="black"/>
<path d="M146.47 519.503C146.37 517.023 146.18 521.983 146.19 519.503C146.23 505.133 146.31 375.663 146.4 361.293C146.49 346.173 146.62 331.053 146.68 315.933C146.72 306.523 146.64 297.103 146.68 287.693C146.74 274.933 146.9 262.163 146.97 249.403C147.07 232.853 147.11 216.293 147.2 199.743C147.25 189.113 147.35 178.493 147.42 167.863C147.49 156.753 147.51 145.643 147.6 134.533C147.68 124.613 147.82 114.693 147.93 104.783C148.05 93.5834 148.14 82.3834 148.27 71.1834C148.37 62.8334 148.55 54.4934 148.65 46.1434C148.74 38.3034 148.73 30.4634 148.87 22.6134C148.95 18.0334 149.17 13.4534 149.44 8.87341C149.51 7.66341 150.04 6.48346 150.36 5.29346C150.73 5.29346 151.1 5.29346 151.47 5.29346C151.73 6.83346 152.18 8.36344 152.22 9.90344C152.44 18.7734 152.6 27.6334 152.71 36.5034C152.93 54.1334 153.13 71.7634 153.28 89.3834C153.49 113.743 153.64 138.113 153.84 162.473C153.96 176.993 154.14 191.523 154.22 206.043C154.3 220.253 154.28 234.453 154.32 248.663C154.36 263.283 154.45 277.913 154.49 292.533C154.52 303.123 154.43 313.723 154.5 324.313C154.55 332.203 154.83 340.083 154.87 347.973C154.9 352.933 154.57 357.893 154.59 362.863C154.61 369.233 154.91 375.613 154.94 381.983C154.99 390.873 154.9 510.623 154.9 519.513C154.9 520.593 155.08 518.433 155.18 519.513H146.45L146.47 519.503Z" fill="black"/>
<path d="M259.94 519.504C259.91 518.184 259.56 520.704 259.93 519.504C260.83 516.604 260.22 522.304 260 519.504C259.79 516.884 260.23 394.054 259.57 391.344C258.89 388.554 259.54 385.454 259.54 382.494C259.52 373.124 259.16 363.754 259.55 354.404C259.77 349.214 259.77 344.044 259.71 338.864C259.65 333.404 259.14 327.884 259.68 322.484C260.8 311.244 258.92 300.004 260.12 288.764C260.64 283.834 259.82 278.774 259.71 273.764C259.65 271.144 259.73 268.504 259.9 265.884C260.22 260.764 259.6 255.654 260.52 250.484C261.15 246.934 260.08 243.114 260.07 239.414C260.05 231.764 260.27 224.114 260.31 216.464C260.34 209.634 260.17 202.804 260.23 195.974C260.27 190.784 260.51 185.594 260.71 180.414C260.81 177.944 261.06 175.484 261.16 173.014C261.18 172.464 260.84 171.894 260.64 171.344C260.44 170.794 259.94 170.204 260.01 169.704C260.81 164.524 260.06 159.344 260.09 154.164C260.14 146.404 260.55 138.654 260.6 130.904C260.65 124.504 260.26 118.104 260.34 111.704C260.4 106.584 260.96 101.464 261.14 96.3438C261.25 93.2438 261.04 90.1337 261.06 87.0237C261.09 82.8737 261.29 78.7337 261.27 74.5837C261.24 69.0937 260.98 63.6037 260.98 58.1137C260.98 52.9337 261.04 47.7437 261.33 42.5737C261.64 37.0637 262.24 31.5737 262.76 26.0737C262.82 25.4137 263.14 24.7737 263.51 23.5537C265.42 26.6837 265.48 29.6337 265.59 32.5237C265.87 40.2137 266.16 47.9037 266.26 55.5938C266.42 66.8438 266.39 78.0938 266.5 89.3438C266.57 96.1737 266.87 103.004 266.88 109.844C266.88 116.114 266.58 122.384 266.52 128.654C266.46 135.784 266.45 142.924 266.55 150.054C266.63 155.984 267.06 161.924 267.06 167.854C267.06 175.724 266.71 183.594 266.68 191.464C266.66 196.734 267.04 202.004 267.09 207.274C267.19 217.454 267.21 227.634 267.19 237.814C267.19 243.434 266.92 249.054 266.99 254.664C267.05 260.034 267.51 265.404 267.59 270.774C267.65 274.794 267.26 278.824 267.29 282.844C267.34 289.294 267.6 295.744 267.69 302.194C267.72 304.674 267.51 307.164 267.45 309.654C267.38 312.644 267.32 315.644 267.31 318.644C267.28 324.444 267.21 330.234 267.31 336.034C267.39 340.914 267.78 345.794 267.87 350.674C267.95 354.804 267.77 358.944 267.75 363.074C267.72 370.294 267.79 377.504 267.68 384.724C267.62 388.924 267.19 515.294 267.13 519.494C267.08 522.904 267.37 516.074 267.43 519.494C267.46 520.924 267.28 518.064 267.2 519.494H259.93L259.94 519.504Z" fill="black"/>
<path d="M230.84 519.504C230.75 518.904 230.56 520.104 230.57 519.504C230.62 516.044 230.76 522.964 230.78 519.504C230.8 516.174 230.7 393.014 230.68 389.684C230.65 383.784 230.62 377.884 230.62 371.974C230.62 363.634 230.7 355.294 230.68 346.954C230.67 340.064 230.41 333.174 230.54 326.284C230.68 318.674 231.15 311.064 231.44 303.454C231.47 302.754 231.23 302.044 231.04 301.354C230.88 300.774 230.27 300.064 230.44 299.694C232.02 296.354 230.37 292.954 230.72 289.574C231.16 285.414 231.06 281.184 231.08 276.984C231.1 271.954 230.99 266.924 230.94 261.894C230.9 257.994 230.32 254.004 230.96 250.224C231.88 244.724 230.7 239.294 231.34 233.804C231.96 228.494 232.14 223.034 231.64 217.714C230.76 208.464 231.76 199.254 231.44 190.024C231.3 185.834 231.32 181.624 231.39 177.424C231.44 174.354 231.8 171.284 231.83 168.214C231.87 163.884 231.61 159.554 231.67 155.224C231.76 149.234 232.07 143.254 232.22 137.264C232.29 134.634 232.18 132.004 232.19 129.384C232.2 122.074 232.22 114.764 232.26 107.454C232.33 94.0837 232.37 80.7137 232.52 67.3438C232.64 55.8638 232.83 44.3937 233.11 32.9237C233.19 29.7637 233.71 26.6137 234.03 23.4637C234.36 23.4237 234.69 23.3837 235.02 23.3438C235.29 24.4937 235.76 25.6338 235.79 26.7838C236.11 38.3938 236.45 50.0037 236.62 61.6137C236.76 71.9537 236.68 82.3037 236.72 92.6537C236.75 99.3137 236.83 105.984 236.85 112.644C236.88 120.194 236.8 127.744 236.9 135.294C237 142.574 237.33 149.844 237.44 157.124C237.51 162.124 237.28 167.124 237.35 172.124C237.42 177.284 237.74 182.444 237.86 187.614C237.95 191.574 237.86 195.524 237.88 199.484C237.91 207.484 237.98 215.474 237.96 223.474C237.94 228.364 237.68 233.264 237.71 238.154C237.74 242.614 238.18 247.074 238.17 251.534C238.15 261.014 237.84 270.494 237.85 279.974C237.85 285.804 238.29 291.624 238.42 297.454C238.49 300.444 238.24 303.444 238.26 306.434C238.32 313.304 238.55 320.164 238.54 327.034C238.53 334.034 238.25 341.034 238.2 348.034C238.16 352.894 238.35 357.744 238.35 362.604C238.35 368.754 238.26 374.904 238.24 381.064C238.22 386.774 238.26 513.784 238.24 519.504C238.22 524.054 238.15 514.954 238.1 519.504H230.83H230.84Z" fill="black"/>
<path d="M177.02 519.504C177.36 511.274 177.33 395.414 177.07 387.184C176.83 379.444 177.55 371.674 177.63 363.914C177.68 358.944 177.28 353.984 177.21 349.014C177.14 344.704 177.25 340.384 177.28 336.074C177.3 332.514 177.24 328.954 177.35 325.404C177.45 322.104 177.73 318.804 177.92 315.504C177.97 314.664 178.01 313.824 177.93 312.994C177.42 307.784 176.88 302.614 177.58 297.344C177.95 294.544 177.3 291.624 177.35 288.764C177.44 283.694 177.84 278.634 177.86 273.564C177.89 266.574 177.64 259.584 177.62 252.604C177.62 248.704 177.92 244.804 177.93 240.904C177.93 237.014 177.71 233.114 177.63 229.224C177.58 227.064 177.58 224.894 177.63 222.734C177.77 215.674 177.96 208.614 178.1 201.564C178.14 199.584 178.14 197.604 178.1 195.624C177.96 190.124 177.7 184.624 177.65 179.124C177.59 173.604 177.65 168.084 177.8 162.564C177.94 157.054 178.29 151.544 178.46 146.034C178.55 143.044 178.44 140.054 178.43 137.064C178.39 129.534 178.12 122.024 178.64 114.454C179.19 106.384 178.37 98.2237 178.34 90.1037C178.3 78.3237 178.38 66.5437 178.5 54.7537C178.58 46.9337 178.79 39.1237 179 31.3036C179.04 29.7436 179.24 28.1137 181.32 27.4937C183 29.1737 182.78 31.4237 182.8 33.4737C182.91 44.5237 182.9 55.5837 182.91 66.6337C182.91 80.2237 182.83 93.8237 182.88 107.414C182.91 117.804 183.07 128.184 183.2 138.574C183.29 146.014 183.54 153.454 183.52 160.894C183.49 169.554 183.09 178.204 183.14 186.864C183.19 195.854 183.74 204.844 183.8 213.834C183.84 219.274 183.22 224.704 183.18 230.144C183.15 234.284 183.7 238.424 183.76 242.564C183.85 248.304 183.72 254.054 183.69 259.804C183.65 267.064 183.52 274.314 183.62 281.564C183.71 289.104 184.06 296.654 184.21 304.194C184.24 305.734 183.72 307.284 183.72 308.834C183.72 315.704 183.88 322.574 183.88 329.444C183.88 338.264 183.69 347.074 183.73 355.894C183.76 363.094 184.14 370.294 184.14 377.494C184.14 387.654 183.94 509.354 183.87 519.514C183.87 520.804 184.17 518.224 184.33 519.514H177.06L177.02 519.504Z" fill="black"/>
<path d="M219.21 519.504C219.01 514.104 218.29 524.844 218.74 519.504C219.23 513.734 219.07 384.234 218.74 378.504C218.61 376.264 219.04 373.994 219.06 371.734C219.07 369.694 218.87 367.644 218.75 365.604C218.73 365.244 218.56 364.854 218.65 364.524C220.21 358.934 218.1 353.284 219.05 347.594C219.77 343.284 219.19 338.754 219.17 334.324C219.15 330.884 218.99 327.434 219.1 324.004C219.23 320.024 219.67 316.054 219.79 312.074C219.84 310.294 219.26 308.494 219.26 306.704C219.26 302.934 219.47 299.174 219.55 295.404C219.61 292.664 219.63 289.914 219.6 287.174C219.45 275.634 219.16 264.094 219.17 252.554C219.17 245.834 219.77 239.124 219.9 232.404C219.99 227.504 219.68 222.604 219.67 217.704C219.67 207.644 219.76 197.584 219.77 187.524C219.77 182.374 219.61 177.214 219.63 172.064C219.65 167.884 219.91 163.714 219.91 159.534C219.92 152.544 219.75 145.554 219.79 138.574C219.82 132.084 220.06 125.604 220.13 119.114C220.19 112.984 220.17 106.844 220.16 100.714C220.16 89.5437 219.99 78.3637 220.16 67.1937C220.36 54.0537 220.82 40.9237 221.23 27.7837C221.27 26.3937 221.71 25.0037 221.96 23.6237C222.28 23.5837 222.59 23.5537 222.91 23.5137C223.17 24.7537 223.62 25.9936 223.65 27.2336C223.94 37.0836 224.19 46.9437 224.38 56.8036C224.52 64.2236 224.63 71.6537 224.64 79.0737C224.64 84.4137 224.36 89.7637 224.41 95.1037C224.48 103.574 224.83 112.044 224.86 120.514C224.89 131.664 224.69 142.814 224.65 153.964C224.64 157.194 224.84 160.424 224.93 163.654C225.08 168.884 225.59 174.134 225.26 179.334C224.78 186.854 225.15 194.354 225.08 201.854C224.97 214.644 225.41 227.444 225.5 240.234C225.56 249.304 225.39 258.384 225.38 267.454C225.38 273.544 225.52 279.644 225.48 285.734C225.45 289.914 225.1 294.084 225.11 298.264C225.13 302.774 225.5 307.294 225.54 311.804C225.59 317.544 225.39 323.284 225.45 329.024C225.52 336.224 225.84 343.414 225.86 350.614C225.88 357.454 225.61 364.294 225.53 371.134C225.51 372.474 225.92 373.824 225.92 375.164C225.88 382.584 225.75 512.094 225.7 519.524C225.67 524.334 225.74 514.714 225.77 519.524H219.22L219.21 519.504Z" fill="black"/>
<path d="M190.11 519.503C190.18 512.583 190.34 398.024 190.3 391.104C190.28 387.524 189.77 383.943 189.73 380.363C189.69 376.163 189.93 371.963 190.05 367.763C190.09 366.493 190.14 365.223 190.15 363.953C190.17 361.723 190.22 359.493 190.18 357.263C190.08 352.033 189.46 346.763 189.9 341.573C190.75 331.573 189.55 321.554 190.65 311.544C191.14 307.104 190.18 302.523 190.11 297.993C190.03 292.823 190.26 287.644 190.27 282.474C190.28 276.874 190.19 271.273 190.17 265.673C190.17 264.833 190.38 264.004 190.39 263.164C190.53 256.224 190.73 249.284 190.76 242.344C190.79 236.054 190.67 229.754 190.57 223.464C190.48 217.894 190.23 212.333 190.24 206.763C190.25 201.153 190.6 195.543 190.63 189.923C190.67 183.833 190.51 177.754 190.48 171.664C190.48 169.974 190.7 168.294 190.7 166.604C190.73 155.994 190.68 145.383 190.76 134.773C190.84 125.043 191.1 115.324 191.19 105.594C191.25 98.8935 191.1 92.1935 191.19 85.4935C191.24 81.1935 191.64 76.8935 191.72 72.5835C191.8 68.1335 191.65 63.6735 191.67 59.2235C191.69 55.8435 191.86 52.4635 191.92 49.0835C191.96 46.7035 191.85 44.3235 191.96 41.9535C192.18 37.3035 192.5 32.6635 192.83 28.0235C192.86 27.6635 193.3 27.3235 194.02 26.3135C194.1 27.9735 194.16 28.8635 194.18 29.7535C194.56 41.8935 195.02 54.0435 195.3 66.1835C195.5 74.8135 195.49 83.4535 195.51 92.0835C195.54 103.633 195.47 115.184 195.54 126.724C195.59 135.124 195.87 143.514 195.91 151.904C195.98 168.034 195.9 184.173 195.96 200.303C196 210.653 196.22 220.994 196.28 231.344C196.32 239.344 196.25 247.343 196.21 255.333C196.18 261.543 196 267.754 196.06 273.964C196.15 283.244 196.43 292.524 196.57 301.794C196.66 307.744 196.73 313.704 196.66 319.654C196.6 324.894 196.2 330.123 196.23 335.363C196.25 339.503 196.77 343.633 196.93 347.773C197 349.573 196.59 351.383 196.59 353.193C196.59 358.353 196.75 363.504 196.71 368.664C196.66 376.694 196.44 511.433 196.42 519.463C196.4 525.813 196.56 513.113 196.64 519.463H190.09L190.11 519.503Z" fill="black"/>
<path d="M273.03 519.503C272.77 516.623 272.37 522.393 272.28 519.503C272.17 515.643 272.25 395.503 272.35 391.643C272.42 388.963 272.82 386.283 272.79 383.613C272.75 380.253 272.35 376.894 272.24 373.534C272.1 369.374 271.52 365.103 272.21 361.073C272.87 357.193 272.09 353.504 272.24 349.724C272.42 345.474 272.73 341.263 272.46 336.933C271.97 329.153 272.78 321.304 272.86 313.474C272.92 307.004 272.62 300.543 272.64 294.073C272.65 288.873 272.98 283.674 273.01 278.474C273.04 273.224 272.78 267.973 272.85 262.733C272.9 258.703 273.38 254.684 273.44 250.664C273.47 248.474 272.78 246.363 272.9 244.053C273.27 236.963 273.05 229.843 273.14 222.743C273.2 218.063 273.5 213.383 273.5 208.703C273.5 203.963 273.19 199.214 273.15 194.474C273.13 191.474 273.39 188.463 273.45 185.453C273.58 178.773 273.68 172.094 273.76 165.404C273.85 157.694 273.94 149.983 273.98 142.263C274.01 136.263 273.9 130.263 273.98 124.273C274.09 116.123 274.43 107.973 274.47 99.8235C274.53 89.7035 274.32 79.5835 274.37 69.4635C274.42 59.1135 274.6 48.7735 274.79 38.4335C274.84 35.4335 275.1 32.4335 275.31 29.4335C275.35 28.8935 275.59 28.3735 276.34 27.8535C276.56 30.3635 276.94 32.8735 276.97 35.3935C277.17 53.2235 277.29 71.0635 277.45 88.8935C277.53 98.5235 277.67 108.164 277.73 117.794C277.81 131.434 277.8 145.074 277.93 158.714C277.99 165.314 278.39 171.913 278.45 178.513C278.51 185.233 278.24 191.944 278.28 198.664C278.32 205.714 278.62 212.763 278.71 219.813C278.8 227.103 278.81 234.393 278.81 241.683C278.81 250.983 278.72 260.283 278.74 269.583C278.77 280.433 278.83 291.283 278.96 302.133C279.02 307.353 279.36 312.574 279.38 317.794C279.4 322.434 279.08 327.074 279.08 331.714C279.08 337.544 279.29 343.363 279.37 349.193C279.44 353.873 279.47 358.563 279.49 363.243C279.52 369.783 279.58 376.323 279.52 382.863C279.48 387.913 279.18 514.484 279.19 519.534C279.19 524.164 279.45 514.904 279.6 519.534H273.05L273.03 519.503Z" fill="black"/>
<path d="M145.74 519.504C145.76 512.134 145.8 397.114 145.81 389.744C145.84 373.424 145.81 357.094 145.91 340.774C146.02 322.064 146.28 303.354 146.43 284.644C146.53 272.194 146.52 259.734 146.58 247.284C146.66 233.214 146.82 219.144 146.84 205.074C146.86 194.834 146.61 184.594 146.66 174.344C146.73 161.184 147.08 148.034 147.14 134.874C147.26 112.024 147.23 89.1736 147.31 66.3236C147.36 52.7036 147.46 39.0836 147.6 25.4636C147.65 20.2736 147.85 15.0836 147.97 9.90364C148 8.48364 147.97 7.05362 147.97 5.50362C147.13 5.59362 146.49 5.45364 146.22 5.71364C143.36 8.44364 139.57 7.13365 136.29 8.03365C134.99 8.38365 133.47 8.2236 132.11 7.9836C125.07 6.7036 117.99 7.96362 110.94 7.56362C105.18 7.23362 99.3901 7.26362 93.6201 7.19362C87.8601 7.12362 82.0998 7.12364 76.3398 7.08364C73.9598 7.06364 71.5802 6.97363 69.2002 6.95363C62.0502 6.90363 54.8902 6.95362 47.7402 6.81362C43.3102 6.73362 38.8902 6.22362 34.4702 6.19362C29.6402 6.16362 24.81 6.64365 19.98 6.59365C16.39 6.55365 12.79 6.11365 9.20996 5.66365C8.30996 5.55365 7.48992 4.72366 6.41992 4.10366C8.14992 2.02366 10.0902 1.78365 11.9702 1.72365C16.1802 1.58365 20.4001 1.63361 24.6201 1.55361C33.0401 1.38361 41.4599 1.12361 49.8799 0.99361C57.6999 0.87361 65.5198 0.903618 73.3398 0.813618C83.1898 0.703618 93.0499 0.463644 102.9 0.403644C110.75 0.353644 118.6 0.553639 126.45 0.52364C129.67 0.51364 132.95 -0.316375 136.08 0.133625C139.97 0.693625 144.19 -1.13636 147.85 1.77364C148.51 2.30364 150.21 1.51363 151.57 1.32363C153.38 3.29363 152.91 5.82364 152.93 8.15364C153.07 19.8736 153.12 31.6036 153.18 43.3236C153.25 55.4236 153.29 67.5236 153.35 79.6236C153.46 101.844 153.56 124.074 153.69 146.294C153.77 159.944 153.93 173.594 153.96 187.234C154 200.354 153.92 213.484 153.89 226.604C153.87 235.454 153.81 244.314 153.87 253.164C153.93 261.984 154.17 270.804 154.22 279.624C154.32 298.044 154.3 316.464 154.42 334.874C154.47 343.144 154.86 351.404 154.87 359.674C154.89 372.134 154.67 507.044 154.68 519.514C154.68 524.454 155.02 514.574 155.2 519.514H145.74V519.504Z" fill="black"/>
<path d="M0.999892 519.503C0.899892 517.023 0.710107 521.983 0.720107 519.503C0.760107 505.133 0.840068 375.663 0.930068 361.293C1.02007 346.173 1.14985 331.053 1.20985 315.933C1.24985 306.523 1.16985 297.103 1.20985 287.693C1.26985 274.933 1.42989 262.163 1.49989 249.403C1.59989 232.853 1.63987 216.293 1.72987 199.743C1.77987 189.113 1.88009 178.493 1.95009 167.863C2.02009 156.753 2.03977 145.643 2.12977 134.533C2.20977 124.613 2.34985 114.693 2.45985 104.783C2.57985 93.5834 2.6697 82.3834 2.7997 71.1834C2.8997 62.8334 3.08007 54.4934 3.18007 46.1434C3.27007 38.3034 3.25979 30.4634 3.39979 22.6134C3.47979 18.0334 3.70011 13.4534 3.97011 8.87341C4.04011 7.66341 4.57003 6.48346 4.89003 5.29346C5.26003 5.29346 5.62989 5.29346 5.99989 5.29346C6.25989 6.83346 6.70989 8.36344 6.74989 9.90344C6.96989 18.7734 7.13013 27.6334 7.24013 36.5034C7.46013 54.1334 7.65995 71.7634 7.80995 89.3834C8.01995 113.743 8.17001 138.113 8.37001 162.473C8.49001 176.993 8.66989 191.523 8.74989 206.043C8.82989 220.253 8.80999 234.453 8.84999 248.663C8.88999 263.283 8.97991 277.913 9.01991 292.533C9.04991 303.123 8.95968 313.723 9.02968 324.313C9.07968 332.203 9.35979 340.083 9.39979 347.973C9.42979 352.933 9.10001 357.893 9.12001 362.863C9.14001 369.233 9.44011 375.613 9.47011 381.983C9.52011 390.873 9.43007 510.623 9.43007 519.513C9.43007 520.593 9.60985 518.433 9.70985 519.513H0.979872L0.999892 519.503Z" fill="black"/>
<path d="M114.47 519.504C114.44 518.184 114.09 520.704 114.46 519.504C115.36 516.604 114.75 522.304 114.53 519.504C114.32 516.884 114.76 394.054 114.1 391.344C113.42 388.554 114.07 385.454 114.07 382.494C114.05 373.124 113.69 363.754 114.08 354.404C114.3 349.214 114.3 344.044 114.24 338.864C114.18 333.404 113.67 327.884 114.21 322.484C115.33 311.244 113.45 300.004 114.65 288.764C115.17 283.834 114.35 278.774 114.24 273.764C114.18 271.144 114.26 268.504 114.43 265.884C114.75 260.764 114.13 255.654 115.05 250.484C115.68 246.934 114.61 243.114 114.6 239.414C114.58 231.764 114.8 224.114 114.84 216.464C114.87 209.634 114.7 202.804 114.76 195.974C114.8 190.784 115.04 185.594 115.24 180.414C115.34 177.944 115.59 175.484 115.69 173.014C115.71 172.464 115.37 171.894 115.17 171.344C114.97 170.794 114.47 170.204 114.54 169.704C115.34 164.524 114.59 159.344 114.62 154.164C114.67 146.404 115.08 138.654 115.13 130.904C115.18 124.504 114.79 118.104 114.87 111.704C114.93 106.584 115.49 101.464 115.67 96.3438C115.78 93.2438 115.57 90.1337 115.59 87.0237C115.62 82.8737 115.82 78.7337 115.8 74.5837C115.77 69.0937 115.51 63.6037 115.51 58.1137C115.51 52.9337 115.57 47.7437 115.86 42.5737C116.17 37.0637 116.77 31.5737 117.29 26.0737C117.35 25.4137 117.67 24.7737 118.04 23.5537C119.95 26.6837 120.01 29.6337 120.12 32.5237C120.4 40.2137 120.69 47.9037 120.79 55.5938C120.95 66.8438 120.92 78.0938 121.03 89.3438C121.1 96.1737 121.4 103.004 121.41 109.844C121.41 116.114 121.11 122.384 121.05 128.654C120.99 135.784 120.98 142.924 121.08 150.054C121.16 155.984 121.59 161.924 121.59 167.854C121.59 175.724 121.24 183.594 121.21 191.464C121.19 196.734 121.57 202.004 121.62 207.274C121.72 217.454 121.74 227.634 121.72 237.814C121.72 243.434 121.45 249.054 121.52 254.664C121.58 260.034 122.04 265.404 122.12 270.774C122.18 274.794 121.79 278.824 121.82 282.844C121.87 289.294 122.13 295.744 122.22 302.194C122.25 304.674 122.04 307.164 121.98 309.654C121.91 312.644 121.85 315.644 121.84 318.644C121.81 324.444 121.74 330.234 121.84 336.034C121.92 340.914 122.31 345.794 122.4 350.674C122.48 354.804 122.3 358.944 122.28 363.074C122.25 370.294 122.32 377.504 122.21 384.724C122.15 388.924 121.72 515.294 121.66 519.494C121.61 522.904 121.9 516.074 121.96 519.494C121.99 520.924 121.81 518.064 121.73 519.494H114.46L114.47 519.504Z" fill="black"/>
<path d="M85.37 519.504C85.28 518.904 85.09 520.104 85.1 519.504C85.15 516.044 85.2899 522.964 85.3099 519.504C85.3299 516.174 85.2298 393.014 85.2098 389.684C85.1798 383.784 85.1498 377.884 85.1498 371.974C85.1498 363.634 85.2298 355.294 85.2098 346.954C85.1998 340.064 84.9397 333.174 85.0697 326.284C85.2097 318.674 85.6801 311.064 85.9701 303.454C86.0001 302.754 85.7597 302.044 85.5697 301.354C85.4097 300.774 84.8001 300.064 84.9701 299.694C86.5501 296.354 84.8999 292.954 85.2499 289.574C85.6899 285.414 85.5897 281.184 85.6097 276.984C85.6297 271.954 85.5201 266.924 85.4701 261.894C85.4301 257.994 84.8501 254.004 85.4901 250.224C86.4101 244.724 85.23 239.294 85.87 233.804C86.49 228.494 86.6698 223.034 86.1698 217.714C85.2898 208.464 86.2901 199.254 85.9701 190.024C85.8301 185.834 85.8498 181.624 85.9198 177.424C85.9698 174.354 86.3297 171.284 86.3597 168.214C86.3997 163.884 86.1401 159.554 86.2001 155.224C86.2901 149.234 86.5999 143.254 86.7499 137.264C86.8199 134.634 86.7101 132.004 86.7201 129.384C86.7301 122.074 86.7499 114.764 86.7899 107.454C86.8599 94.0837 86.8997 80.7137 87.0497 67.3438C87.1697 55.8638 87.36 44.3937 87.64 32.9237C87.72 29.7637 88.2399 26.6137 88.5599 23.4637C88.8899 23.4237 89.2197 23.3837 89.5497 23.3438C89.8197 24.4937 90.2897 25.6338 90.3197 26.7838C90.6397 38.3938 90.9798 50.0037 91.1498 61.6137C91.2898 71.9537 91.2099 82.3037 91.2499 92.6537C91.2799 99.3137 91.3597 105.984 91.3797 112.644C91.4097 120.194 91.33 127.744 91.43 135.294C91.53 142.574 91.8601 149.844 91.9701 157.124C92.0401 162.124 91.8097 167.124 91.8797 172.124C91.9497 177.284 92.27 182.444 92.39 187.614C92.48 191.574 92.39 195.524 92.41 199.484C92.44 207.484 92.5101 215.474 92.4901 223.474C92.4701 228.364 92.2101 233.264 92.2401 238.154C92.2701 242.614 92.7101 247.074 92.7001 251.534C92.6801 261.014 92.3697 270.494 92.3797 279.974C92.3797 285.804 92.8201 291.624 92.9501 297.454C93.0201 300.444 92.7699 303.444 92.7899 306.434C92.8499 313.304 93.0797 320.164 93.0697 327.034C93.0597 334.034 92.7798 341.034 92.7298 348.034C92.6898 352.894 92.8797 357.744 92.8797 362.604C92.8797 368.754 92.7899 374.904 92.7699 381.064C92.7499 386.774 92.7899 513.784 92.7699 519.504C92.7499 524.054 92.6797 514.954 92.6297 519.504H85.3597H85.37Z" fill="black"/>
<path d="M31.5498 519.504C31.8898 511.274 31.8601 395.414 31.6001 387.184C31.3601 379.444 32.0802 371.674 32.1602 363.914C32.2102 358.944 31.8102 353.984 31.7402 349.014C31.6702 344.704 31.7801 340.384 31.8101 336.074C31.8301 332.514 31.7699 328.954 31.8799 325.404C31.9799 322.104 32.2602 318.804 32.4502 315.504C32.5002 314.664 32.54 313.824 32.46 312.994C31.95 307.784 31.4099 302.614 32.1099 297.344C32.4799 294.544 31.8299 291.624 31.8799 288.764C31.9699 283.694 32.3701 278.634 32.3901 273.564C32.4201 266.574 32.1699 259.584 32.1499 252.604C32.1499 248.704 32.45 244.804 32.46 240.904C32.46 237.014 32.2402 233.114 32.1602 229.224C32.1102 227.064 32.1102 224.894 32.1602 222.734C32.3002 215.674 32.4899 208.614 32.6299 201.564C32.6699 199.584 32.6699 197.604 32.6299 195.624C32.4899 190.124 32.2302 184.624 32.1802 179.124C32.1202 173.604 32.1801 168.084 32.3301 162.564C32.4701 157.054 32.8202 151.544 32.9902 146.034C33.0802 143.044 32.97 140.054 32.96 137.064C32.92 129.534 32.6499 122.024 33.1699 114.454C33.7199 106.384 32.9001 98.2237 32.8701 90.1037C32.8301 78.3237 32.9098 66.5437 33.0298 54.7537C33.1098 46.9337 33.3198 39.1237 33.5298 31.3036C33.5698 29.7436 33.7701 28.1137 35.8501 27.4937C37.5301 29.1737 37.3101 31.4237 37.3301 33.4737C37.4401 44.5237 37.4299 55.5837 37.4399 66.6337C37.4399 80.2237 37.3602 93.8237 37.4102 107.414C37.4402 117.804 37.6 128.184 37.73 138.574C37.82 146.014 38.0698 153.454 38.0498 160.894C38.0198 169.554 37.6199 178.204 37.6699 186.864C37.7199 195.854 38.2701 204.844 38.3301 213.834C38.3701 219.274 37.75 224.704 37.71 230.144C37.68 234.284 38.23 238.424 38.29 242.564C38.38 248.304 38.2502 254.054 38.2202 259.804C38.1802 267.064 38.0499 274.314 38.1499 281.564C38.2399 289.104 38.5902 296.654 38.7402 304.194C38.7702 305.734 38.25 307.284 38.25 308.834C38.25 315.704 38.4102 322.574 38.4102 329.444C38.4102 338.264 38.2198 347.074 38.2598 355.894C38.2898 363.094 38.6699 370.294 38.6699 377.494C38.6699 387.654 38.4699 509.354 38.3999 519.514C38.3999 520.804 38.6999 518.224 38.8599 519.514H31.5898L31.5498 519.504Z" fill="black"/>
<path d="M73.7298 519.504C73.5298 514.104 72.8096 524.844 73.2596 519.504C73.7496 513.734 73.5896 384.234 73.2596 378.504C73.1296 376.264 73.5599 373.994 73.5799 371.734C73.5899 369.694 73.3899 367.644 73.2699 365.604C73.2499 365.244 73.0798 364.854 73.1698 364.524C74.7298 358.934 72.6197 353.284 73.5697 347.594C74.2897 343.284 73.7098 338.754 73.6898 334.324C73.6698 330.884 73.51 327.434 73.62 324.004C73.75 320.024 74.1899 316.054 74.3099 312.074C74.3599 310.294 73.7796 308.494 73.7796 306.704C73.7796 302.934 73.9897 299.174 74.0697 295.404C74.1297 292.664 74.15 289.914 74.12 287.174C73.97 275.634 73.6798 264.094 73.6898 252.554C73.6898 245.834 74.2898 239.124 74.4198 232.404C74.5098 227.504 74.1998 222.604 74.1898 217.704C74.1898 207.644 74.2799 197.584 74.2899 187.524C74.2899 182.374 74.1298 177.214 74.1498 172.064C74.1698 167.884 74.43 163.714 74.43 159.534C74.44 152.544 74.2699 145.554 74.3099 138.574C74.3399 132.084 74.5798 125.604 74.6498 119.114C74.7098 112.984 74.69 106.844 74.68 100.714C74.68 89.5437 74.51 78.3637 74.68 67.1937C74.88 54.0537 75.3398 40.9237 75.7498 27.7837C75.7898 26.3937 76.2298 25.0037 76.4798 23.6237C76.7998 23.5837 77.11 23.5537 77.43 23.5137C77.69 24.7537 78.1398 25.9936 78.1698 27.2336C78.4598 37.0836 78.7098 46.9437 78.8998 56.8036C79.0398 64.2236 79.15 71.6537 79.16 79.0737C79.16 84.4137 78.88 89.7637 78.93 95.1037C79 103.574 79.3497 112.044 79.3797 120.514C79.4097 131.664 79.2098 142.814 79.1698 153.964C79.1598 157.194 79.36 160.424 79.45 163.654C79.6 168.884 80.1096 174.134 79.7796 179.334C79.2996 186.854 79.6699 194.354 79.5999 201.854C79.4899 214.644 79.9299 227.444 80.0199 240.234C80.0799 249.304 79.9098 258.384 79.8998 267.454C79.8998 273.544 80.0398 279.644 79.9998 285.734C79.9698 289.914 79.6197 294.084 79.6297 298.264C79.6497 302.774 80.0199 307.294 80.0599 311.804C80.1099 317.544 79.9101 323.284 79.9701 329.024C80.0401 336.224 80.3597 343.414 80.3797 350.614C80.3997 357.454 80.1297 364.294 80.0497 371.134C80.0297 372.474 80.4398 373.824 80.4398 375.164C80.3998 382.584 80.2701 512.094 80.2201 519.524C80.1901 524.334 80.2599 514.714 80.2899 519.524H73.7401L73.7298 519.504Z" fill="black"/>
<path d="M44.6402 519.503C44.7102 512.583 44.8701 398.024 44.8301 391.104C44.8101 387.524 44.2998 383.943 44.2598 380.363C44.2198 376.163 44.4601 371.963 44.5801 367.763C44.6201 366.493 44.6702 365.223 44.6802 363.953C44.7002 361.723 44.75 359.493 44.71 357.263C44.61 352.033 43.9902 346.763 44.4302 341.573C45.2802 331.573 44.0802 321.554 45.1802 311.544C45.6702 307.104 44.7102 302.523 44.6402 297.993C44.5602 292.823 44.7898 287.644 44.7998 282.474C44.8098 276.874 44.7202 271.273 44.7002 265.673C44.7002 264.833 44.91 264.004 44.92 263.164C45.06 256.224 45.2601 249.284 45.2901 242.344C45.3201 236.054 45.2001 229.754 45.1001 223.464C45.0101 217.894 44.7601 212.333 44.7701 206.763C44.7801 201.153 45.1302 195.543 45.1602 189.923C45.2002 183.833 45.0398 177.754 45.0098 171.664C45.0098 169.974 45.23 168.294 45.23 166.604C45.26 155.994 45.2101 145.383 45.2901 134.773C45.3701 125.043 45.6303 115.324 45.7203 105.594C45.7803 98.8935 45.6303 92.1935 45.7203 85.4935C45.7703 81.1935 46.17 76.8935 46.25 72.5835C46.33 68.1335 46.1802 63.6735 46.2002 59.2235C46.2202 55.8435 46.3902 52.4635 46.4502 49.0835C46.4902 46.7035 46.3803 44.3235 46.4903 41.9535C46.7103 37.3035 47.0299 32.6635 47.3599 28.0235C47.3899 27.6635 47.8298 27.3235 48.5498 26.3135C48.6298 27.9735 48.69 28.8635 48.71 29.7535C49.09 41.8935 49.5501 54.0435 49.8301 66.1835C50.0301 74.8135 50.0201 83.4535 50.0401 92.0835C50.0701 103.633 49.9999 115.184 50.0699 126.724C50.1199 135.124 50.4 143.514 50.44 151.904C50.51 168.034 50.4303 184.173 50.4903 200.303C50.5303 210.653 50.7501 220.994 50.8101 231.344C50.8501 239.344 50.7803 247.343 50.7403 255.333C50.7103 261.543 50.5299 267.754 50.5899 273.964C50.6799 283.244 50.9601 292.524 51.1001 301.794C51.1901 307.744 51.26 313.704 51.19 319.654C51.13 324.894 50.7298 330.123 50.7598 335.363C50.7798 339.503 51.3 343.633 51.46 347.773C51.53 349.573 51.1202 351.383 51.1202 353.193C51.1202 358.353 51.2803 363.504 51.2403 368.664C51.1903 376.694 50.9702 511.433 50.9502 519.463C50.9302 525.813 51.09 513.113 51.17 519.463H44.6202L44.6402 519.503Z" fill="black"/>
<path d="M127.56 519.503C127.3 516.623 126.9 522.393 126.81 519.503C126.7 515.643 126.78 395.503 126.88 391.643C126.95 388.963 127.35 386.283 127.32 383.613C127.28 380.253 126.88 376.894 126.77 373.534C126.63 369.374 126.05 365.103 126.74 361.073C127.4 357.193 126.62 353.504 126.77 349.724C126.95 345.474 127.26 341.263 126.99 336.933C126.5 329.153 127.31 321.304 127.39 313.474C127.45 307.004 127.15 300.543 127.17 294.073C127.18 288.873 127.51 283.674 127.54 278.474C127.57 273.224 127.31 267.973 127.38 262.733C127.43 258.703 127.91 254.684 127.97 250.664C128 248.474 127.31 246.363 127.43 244.053C127.8 236.963 127.58 229.843 127.67 222.743C127.73 218.063 128.03 213.383 128.03 208.703C128.03 203.963 127.72 199.214 127.68 194.474C127.66 191.474 127.92 188.463 127.98 185.453C128.11 178.773 128.21 172.094 128.29 165.404C128.38 157.694 128.47 149.983 128.51 142.263C128.54 136.263 128.43 130.263 128.51 124.273C128.62 116.123 128.96 107.973 129 99.8235C129.06 89.7035 128.85 79.5835 128.9 69.4635C128.95 59.1135 129.13 48.7735 129.32 38.4335C129.37 35.4335 129.63 32.4335 129.84 29.4335C129.88 28.8935 130.12 28.3735 130.87 27.8535C131.09 30.3635 131.47 32.8735 131.5 35.3935C131.7 53.2235 131.82 71.0635 131.98 88.8935C132.06 98.5235 132.2 108.164 132.26 117.794C132.34 131.434 132.33 145.074 132.46 158.714C132.52 165.314 132.92 171.913 132.98 178.513C133.04 185.233 132.77 191.944 132.81 198.664C132.85 205.714 133.15 212.763 133.24 219.813C133.33 227.103 133.34 234.393 133.34 241.683C133.34 250.983 133.25 260.283 133.27 269.583C133.3 280.433 133.36 291.283 133.49 302.133C133.55 307.353 133.89 312.574 133.91 317.794C133.93 322.434 133.61 327.074 133.61 331.714C133.61 337.544 133.82 343.363 133.9 349.193C133.97 353.873 134 358.563 134.02 363.243C134.05 369.783 134.11 376.323 134.05 382.863C134.01 387.913 133.71 514.484 133.72 519.534C133.72 524.164 133.98 514.904 134.13 519.534H127.58L127.56 519.503Z" fill="black"/>
</svg>
