<svg width="423" height="1080" viewBox="0 0 423 1080" fill="none" xmlns="http://www.w3.org/2000/svg">
<path d="M413.806 884.535C411.644 884.987 409.918 885.439 408.163 885.7C407.28 885.831 406.119 885.951 405.484 885.499C402.24 883.198 398.848 884.052 395.426 884.695C394.93 884.786 394.384 885.007 393.928 884.896C386.944 883.178 379.831 884.143 372.828 884.354C369.256 884.464 365.695 884.163 362.223 883.912C359.921 883.741 357.719 884.103 355.567 884.283C351.728 884.605 348.067 884.434 344.357 883.43C342.74 882.998 341.193 884.123 339.199 883.751C335.766 883.108 332.066 884.022 328.485 884.123C324.676 884.233 320.828 883.851 317.048 884.223C311.9 884.725 306.83 883.701 301.751 883.922C298.348 884.073 295.045 883.55 291.702 883.45C290.165 883.399 288.786 884.394 286.941 883.62C285.621 883.068 283.727 884.083 282.081 884.113C276.684 884.193 271.287 884.073 265.901 884.183C263.728 884.223 261.516 884.474 259.413 884.997C257.121 885.569 254.979 885.7 252.846 884.605C252.499 884.434 252.122 884.143 251.785 884.173C249.484 884.384 247.102 885.157 244.92 884.776C242.598 884.374 240.476 883.641 238.174 884.746C237.688 884.977 236.945 884.746 236.339 884.635C235.843 884.545 235.189 884.022 234.931 884.193C232.352 885.891 229.544 884.273 226.855 884.846C225.447 885.147 223.831 884.294 222.313 884.304C218.166 884.334 214.02 884.705 209.883 884.625C206.213 884.555 202.701 885.529 198.892 885.178C193.515 884.685 187.97 884.183 182.514 885.63C180.679 886.122 178.605 885.71 176.155 885.71C176.155 884.354 176.284 883.068 176.135 881.812C175.401 875.694 176.344 869.586 176.195 863.468C176.036 857.209 176.165 850.95 176.165 844.691V826.317C176.165 820.058 176.214 813.799 176.135 807.54C176.115 805.742 175.639 803.954 175.47 802.155C175.411 801.543 175.699 800.91 175.739 800.287C175.828 798.74 175.877 797.203 175.917 795.655C175.947 794.701 175.917 793.747 175.937 792.792C175.937 792.541 176.215 792.22 176.125 792.069C174.29 788.734 176.215 785.418 176.244 782.103C176.363 771.454 175.679 760.815 176.066 750.156C176.453 739.517 176.205 728.848 176.116 718.199C176.096 715.738 176.423 713.306 175.55 710.775C174.984 709.137 176.115 706.977 176.125 705.058C176.175 684.413 176.155 663.778 176.165 643.133C176.165 639.818 175.728 636.533 176.086 633.177C176.433 629.882 176.165 626.527 176.165 623.202V612.814C176.165 609.488 176.254 606.153 176.135 602.828C176.056 600.768 176.631 598.679 175.52 596.599C175.113 595.836 176.195 594.389 176.116 593.284C175.897 590.431 176.958 587.477 175.47 584.684C175.242 584.252 175.669 583.459 175.807 582.836C175.917 582.333 176.255 581.781 176.146 581.339C175.044 576.949 176.77 572.578 176.195 568.188C175.689 564.351 176.027 560.493 176.146 556.645C176.265 552.657 176.175 548.658 176.175 544.66V533.077C176.175 529.078 176.245 525.08 176.146 521.091C176.106 519.424 175.669 517.766 175.51 516.098C175.451 515.486 175.64 514.853 175.739 514.23C175.878 513.336 176.007 512.432 176.195 511.547C176.76 508.855 175.421 506.283 175.858 503.531C176.284 500.808 176.185 497.985 176.165 495.212C176.155 493.575 175.669 491.937 175.699 490.31C175.778 486.12 176.066 481.941 176.165 477.762C176.185 476.757 175.818 475.733 175.629 474.718C175.56 474.336 175.381 473.944 175.431 473.593C177.196 461.176 175.887 448.698 176.055 436.251C176.095 433.348 176.146 430.424 176.146 427.501C176.146 423.914 175.778 420.358 176.106 416.741C176.374 413.777 175.778 410.754 175.739 407.75C175.709 406.122 176.423 404.414 176.116 402.867C175.352 398.959 175.114 395.132 176.195 391.274C174.489 386.612 176.652 381.961 176.185 377.31C176.046 375.903 175.758 374.497 175.55 373.1C175.49 372.718 175.322 372.266 175.451 371.945C176.79 368.469 176.165 365.063 175.5 361.557C175.153 359.708 175.837 357.669 175.887 355.72C175.956 353.138 175.887 350.556 175.828 347.974C175.808 347.211 175.322 346.407 175.451 345.694C176.78 338.501 174.449 331.278 175.491 324.135C176.145 319.674 174.261 315.153 176.066 310.793C174.548 296.518 175.679 282.192 175.461 267.886C175.242 253.64 175.421 239.385 175.391 225.139C175.391 224.124 175.004 223.12 174.836 222.105C174.727 221.462 174.538 220.779 174.667 220.166C176.304 212.42 175.342 204.584 175.282 196.799C175.253 192.258 174.598 187.616 174.866 183.105C174.995 180.915 174.597 178.866 174.607 176.756C174.607 173.702 175.272 170.729 174.736 167.584C174.21 164.48 174.598 161.215 174.628 158.02C174.657 154.644 175.729 153.861 179.002 154.624C180.371 154.946 181.779 155.247 183.168 155.247C198.822 155.287 214.476 155.277 230.139 155.277C232.371 155.277 234.613 155.247 236.845 155.277C239.087 155.318 241.379 155.77 243.541 155.378C245.684 154.996 247.687 155.83 249.83 155.378C251.219 155.086 252.817 156.021 254.314 156.011C257.271 156.001 260.267 155.277 263.153 155.659C266.09 156.041 269.015 154.584 271.951 155.971C272.884 156.413 274.253 155.94 275.414 155.81C275.771 155.77 276.187 155.227 276.415 155.318C280.086 156.794 283.787 154.564 287.705 155.8C290.83 156.784 294.619 155.629 298.11 155.428C298.487 155.408 298.924 155.187 299.242 155.308C303.438 156.925 307.793 155.75 312.058 156.031C313.903 156.151 315.907 156.242 317.594 155.629C320.113 154.715 322.236 156.171 324.597 156.131C333.019 155.981 341.431 156.091 349.853 156.051C350.994 156.051 352.125 155.709 353.266 155.539C353.901 155.448 354.585 155.167 355.161 155.318C361.49 157.005 367.928 155.75 374.296 156.011C376.955 156.121 379.811 154.855 382.261 155.478C385.297 156.252 388.283 156.292 391.149 155.95C396.883 155.267 402.597 155.398 408.331 155.227C410.583 155.157 412.815 154.594 415.453 154.192C415.076 158.944 416.188 163.144 414.69 167.273C414.432 167.976 414.65 168.86 414.63 169.654C414.372 184.502 414.541 199.37 413.738 214.189C412.518 236.883 413.43 259.567 413.024 282.252C412.994 283.789 412.527 285.316 412.358 286.863C412.239 287.918 412.18 288.993 412.289 290.038C412.468 291.846 412.726 293.644 413.073 295.423C413.391 297.03 412.161 298.547 412.984 300.225C413.242 300.767 412.716 301.691 412.577 302.445C412.458 303.078 412.16 303.781 412.309 304.354C413.727 309.949 411.783 315.515 412.19 321.131C412.596 326.827 412.28 332.574 412.28 338.3V372.256C412.28 480.927 412.279 589.597 412.309 698.267C412.309 700.186 411.843 702.145 412.924 704.104C413.341 704.857 412.329 706.294 412.309 707.419C412.229 712.211 412.101 717.013 412.339 721.795C412.478 724.568 412.577 727.281 412.507 730.074C412.418 733.901 411.833 737.759 412.28 741.607C412.389 742.511 412.636 743.395 412.666 744.299C412.746 746.64 412.786 748.981 412.736 751.321C412.706 752.477 412.121 753.692 412.329 754.777C413.371 760.242 413.499 765.657 412.398 771.153C412.11 772.569 412.725 774.207 413.092 775.694C413.519 777.442 412.478 779.059 412.924 780.877C413.321 782.515 413.162 784.323 413.043 786.041C412.904 788.111 412.458 790.16 412.329 792.24C412.22 793.948 412.309 795.686 412.438 797.393C412.547 798.81 413.102 800.227 413.013 801.613C412.765 805.531 413.867 809.539 412.369 813.387C413.887 817.365 412.825 821.494 413.024 825.543C413.222 829.531 413.062 833.53 413.062 837.528V849.915C413.062 853.914 412.974 857.912 413.083 861.9C413.271 868.36 413.598 874.82 413.846 881.28C413.886 882.334 413.846 883.389 413.846 884.525L413.806 884.535ZM385.317 532.404C385.594 530.515 386.061 528.626 386.081 526.727C386.101 525.22 385.594 523.714 385.317 522.207C385.337 512.432 385.367 502.647 385.377 492.872C385.377 489.985 384.828 487.447 383.73 485.256C383.948 484.814 384.176 484.372 384.523 483.669C382.857 483.408 381.368 483.006 379.87 482.986C374.236 482.906 368.601 482.886 362.967 482.996C361.35 483.026 359.724 483.549 358.137 483.981C357.918 484.041 357.908 484.865 357.799 485.337C357.035 485.337 356.272 485.327 355.498 485.317C355.22 485.166 354.823 484.804 354.694 484.885C353.037 485.94 352.968 487.577 352.978 489.375C353.028 509.187 353.008 529.008 353.008 548.819V552.657C349.189 552.878 345.727 553.29 342.265 553.199C340.033 553.139 337.831 553.34 335.609 553.3C333.396 553.26 331.224 552.988 328.962 553.139C322.941 553.541 316.879 553.36 310.838 553.249C304.757 553.149 298.646 553.802 292.397 552.637C290.542 557.007 291.742 561.528 291.365 566.993C292.992 565.847 293.786 565.305 294.54 564.732C295.333 564.13 296.107 563.497 296.881 562.874C297.704 562.874 298.538 562.874 299.361 562.874C300.224 564.501 301.692 563.607 302.833 563.607C318.745 563.677 334.666 563.647 350.578 563.657C351.579 563.657 352.591 563.748 353.781 563.808C353.781 566.31 354.237 568.681 353.662 570.76C352.997 573.151 354.327 575.351 353.722 577.511C353.038 579.962 353.94 582.353 353.652 584.654C353.265 587.738 353.474 590.702 353.722 593.736C353.821 594.961 352.651 596.659 353.147 597.423C355.002 600.276 352.264 603.27 353.762 605.992C352.224 609.418 353.146 613.035 353.037 616.551C352.878 621.604 352.948 626.667 353.037 631.731C353.057 632.675 353.573 634.333 354.029 634.393C355.577 634.604 356.946 635.8 358.701 635.126C359.564 634.795 360.666 635.126 361.658 635.177C362.65 635.217 363.721 635.538 364.614 635.257C366.677 634.614 368.592 634.614 370.675 635.297C371.994 635.729 373.691 635.96 374.901 635.468C377.351 634.483 379.792 634.865 382.232 634.805C386.101 634.704 386.13 634.745 386.14 630.726C386.15 618.741 386.14 606.766 386.14 594.781C386.14 575.472 386.16 556.173 386.1 536.864C386.1 535.709 386.984 534.212 385.377 533.348L385.287 532.404H385.317Z" fill="white"/>
<path d="M145.355 1080.87H31.3442C33.5563 1076.52 31.9789 961.711 31.8896 957.572C31.8499 955.974 32.3262 954.437 32.2965 953.031C32.1873 947.696 32.5445 942.362 32.3759 937.047C32.2866 934.375 31.2356 931.783 32.3565 929.03C32.664 928.267 31.6819 927.051 31.7414 926.077C31.9795 922.279 31.0374 918.442 32.3468 914.644C32.7734 913.418 32.069 911.831 32.0194 910.404C31.9599 908.335 31.9895 906.245 32.0688 904.176C32.1085 903.01 32.7236 901.724 32.3962 900.71C31.0273 896.41 31.7808 892.02 31.7511 887.69C31.7312 885.158 31.6619 882.617 31.6619 880.085C31.6619 877.553 31.8803 875.032 31.7414 872.48C31.4835 867.698 31.533 862.886 31.7017 858.104C31.9596 850.971 31.0169 843.818 32.2073 836.685C32.5149 834.847 31.692 832.847 31.692 830.919C31.6622 754.467 31.6714 678.005 31.6416 601.553C31.6416 600.005 31.2551 598.468 31.0468 596.921C30.9972 596.539 30.8185 596.107 30.9276 595.766C32.5347 590.833 31.6026 585.77 31.6125 580.777C31.7117 547.212 31.6714 513.648 31.6416 480.083C31.6416 478.536 31.2258 476.999 31.0671 475.452C31.0076 474.839 31.0767 474.196 31.1659 473.573C31.3048 472.549 31.7311 471.504 31.6319 470.509C30.8482 463.045 31.979 455.591 31.721 448.126C31.4631 440.672 31.6619 433.208 31.6619 425.753C31.6619 418.299 31.6914 410.563 31.6319 402.978C31.622 401.562 31.2549 400.155 31.0565 398.739C30.997 398.357 30.8187 397.925 30.9179 397.594C32.4754 392.39 31.5525 387.065 31.5525 381.811C31.5525 378.747 31.4335 375.703 31.5922 372.629C31.6914 370.85 31.0365 369.032 30.9373 367.224C30.848 365.657 31.0271 364.069 31.1659 362.502C31.2354 361.738 31.8409 360.834 31.6028 360.262C30.095 356.746 32.0987 353.32 31.692 349.844C31.3745 347.151 31.1756 344.439 31.1756 341.736C31.1756 338.984 31.6125 336.231 31.6125 333.478C31.6125 331.68 31.1461 329.882 30.9179 328.074C30.8485 327.551 30.7091 326.928 30.8976 326.486C32.4848 322.9 29.8563 319.162 31.4633 315.455C32.0883 313.999 31.2358 311.889 31.0671 310.081C30.9878 309.297 30.8086 308.493 30.8879 307.72C31.5029 301.993 30.6304 296.277 30.8288 290.551C31.0272 284.694 30.8685 278.827 30.8685 272.97V220.227C30.8685 214.37 30.9179 208.503 30.8385 202.646C30.8187 201.109 30.4016 199.572 30.1933 198.025C30.1239 197.502 29.976 196.93 30.1149 196.458C31.7417 190.982 30.5511 185.397 30.8288 179.861C30.9677 177.209 30.5413 174.577 30.7 171.874C30.8686 169.132 30.5411 166.319 30.7891 163.496C30.9379 161.728 30.1149 159.899 30.1149 158.101C30.0553 141.716 30.0846 12.3098 30.0945 -4.07568C30.0945 -4.45744 30.1837 -3.48295 30.2631 -4.07568H146.792C146.842 -3.06101 146.932 -5.1004 146.932 -4.07568C146.932 11.5061 146.961 141.826 146.902 157.408C146.902 159.075 146.237 160.743 146.197 162.411C146.148 164.561 146.664 166.751 146.475 168.881C146.287 170.98 145.652 173 146.843 175.009C147.021 175.3 146.991 175.813 146.882 176.184C145.275 181.79 145.929 187.567 146.376 193.152C146.653 196.588 146.089 199.833 146.099 203.158C146.178 234.061 146.168 264.963 146.118 295.865C146.118 298.718 145.543 301.571 145.543 304.425C145.543 307.167 146.545 310.051 145.989 312.622C145.334 315.666 146.991 318.6 145.552 321.694C144.868 323.181 146.128 325.482 146.088 327.4C146.038 330.133 145.444 332.866 145.414 335.598C145.384 337.788 144.888 340.039 146.009 342.239C146.356 342.922 145.354 344.198 145.414 345.182C145.632 348.719 144.56 352.335 146.088 355.781C146.187 356.002 146.227 356.364 146.128 356.565C144.015 360.654 147.318 364.943 145.533 369.243C144.739 371.172 145.741 373.864 145.94 376.215C145.97 376.597 146.208 377.029 146.099 377.35C144.482 382.283 145.384 387.356 145.463 392.339C145.533 396.74 145.324 401.13 145.344 405.52C145.364 410.051 145.344 414.582 145.344 419.103V446.278C145.344 450.809 145.275 455.339 145.374 459.86C145.414 461.669 145.89 463.457 146.059 465.255C146.128 466.019 145.979 466.812 145.87 467.586C145.721 468.611 145.235 469.675 145.384 470.64C146.257 476.115 145.027 481.55 145.275 487.025C145.543 492.742 145.334 498.478 145.334 504.204V572.137C145.334 577.733 145.265 583.329 145.374 588.924C145.414 591.125 144.739 593.425 146.039 595.535C146.247 595.876 145.95 596.54 145.89 597.052C145.702 598.599 145.355 600.156 145.355 601.703C145.325 677.492 145.335 753.281 145.325 829.07C145.325 835.6 145.325 842.13 145.325 848.66C145.325 855.19 145.295 861.71 145.325 868.24C145.344 872.369 145.265 876.508 145.235 880.637C145.206 884.636 145.493 888.644 145.315 892.643C145.196 895.255 144.769 897.947 144.779 900.439C144.779 905.1 144.739 909.782 144.799 914.433C144.858 918.974 145.731 923.465 144.67 928.046C144.372 929.312 145.294 930.818 145.265 932.205C145.175 936.334 143.589 940.453 145.285 944.612C145.483 945.114 145.026 945.858 144.977 946.491C144.818 948.59 144.541 950.69 144.611 952.78C144.68 955.12 145.245 957.461 145.275 959.802C145.295 961.59 144.621 1079.13 144.611 1080.93C144.601 1082.57 145.047 1079.1 145.325 1080.93L145.355 1080.87ZM93.1956 723.564C93.9396 724.529 94.5836 725.975 95.6649 726.518C96.2204 726.799 97.5597 725.473 98.5517 724.88C99.1767 724.499 99.8023 724.127 100.467 723.725C99.9313 721.414 99.6827 719.114 97.1035 719.033C95.7345 720.611 94.5439 721.997 93.1849 723.564H93.1956ZM110.982 665.788C112.42 664.653 113.829 663.548 115.158 662.503C114.602 660.213 113.769 658.274 111.031 658.023C110.099 659.911 109.137 661.84 108.085 663.95C109.137 664.623 110.079 665.216 110.982 665.788ZM50.4895 427.953C51.8683 427.109 53.2281 426.185 54.6764 425.412C55.718 424.859 56.5707 424.035 56.0549 422.97C55.5887 422.016 54.5771 421.142 53.6049 420.74C53.1288 420.549 52.1263 421.433 51.4815 421.986C51.0251 422.378 50.8472 423.101 50.4207 423.543C48.6153 425.371 48.5948 425.361 50.4895 427.963V427.953ZM128.332 685.831C129.165 686.825 129.69 687.458 130.087 687.93C131.238 686.895 132.388 685.861 133.609 684.756C132.716 683.942 131.972 683.269 130.98 682.365C129.899 683.781 128.997 684.967 128.332 685.831ZM67.3146 386.573C68.5844 385.227 69.6252 384.132 70.7759 382.916C69.7839 382.193 69.1989 381.761 68.4945 381.238C67.4926 382.685 66.6395 383.911 65.7666 385.186C66.213 385.588 66.6004 385.93 67.3146 386.583V386.573Z" fill="#F1BA91"/>
<path d="M24.5789 1080.87H8.78643C8.78643 1082.29 8.78643 1079.4 8.78643 1080.87C8.78643 1038.12 8.79608 880.567 8.7564 837.81C8.7564 835.75 8.14121 833.691 8.10153 831.621C8.07177 830.235 8.74648 828.828 8.7564 827.432C8.81592 817.577 9.13297 807.701 8.60721 797.876C8.41873 794.35 8.82518 790.944 8.82518 787.478C8.77558 739.668 8.80577 691.858 8.76609 644.048C8.76609 642.119 8.13106 640.19 8.11122 638.261C8.1013 636.604 8.73633 634.936 8.76609 633.278C8.85537 627.683 8.79612 622.087 8.79612 616.501C8.79612 606.244 8.83553 595.987 8.76609 585.739C8.75617 583.811 8.16082 581.882 8.11122 579.953C8.08146 578.697 8.74625 577.431 8.76609 576.165C8.83553 569.776 9.19299 563.346 8.62756 557.007C8.35972 553.993 8.84576 551.14 8.83584 548.217C8.77632 517.455 8.80577 486.683 8.76609 455.922C8.76609 454.123 8.14148 452.325 8.13156 450.527C8.13156 448.869 8.72641 447.212 8.76609 445.544C8.85537 440.752 8.79612 435.96 8.79612 431.158C8.79612 421.031 8.82561 410.915 8.76609 400.788C8.75617 398.99 8.27985 397.191 8.11122 395.383C8.0517 394.77 8.27044 394.127 8.37956 393.504C8.50852 392.741 8.94511 391.887 8.74671 391.224C7.62576 387.336 9.17331 383.478 8.78643 379.631C8.30035 374.838 8.71699 370.046 8.78643 365.254C8.85587 360.462 8.88513 355.66 8.76609 350.868C8.70657 348.537 8.25006 346.207 8.0715 343.876C8.01198 343.122 8.24986 342.339 8.3689 341.575C8.49786 340.812 8.94488 339.958 8.7564 339.305C7.68505 335.678 9.14285 332.112 8.81549 328.515C8.57741 325.893 8.44896 323.271 8.33984 320.639C8.30016 319.785 8.55781 318.931 8.55781 318.077C8.52805 315.736 8.45841 313.386 8.35921 311.045C8.33937 310.532 7.93285 309.98 8.06181 309.538C9.21252 305.389 7.69466 301.119 8.68665 296.93C8.98425 295.664 7.63537 293.775 8.18096 292.841C9.54 290.46 6.94086 287.948 8.8058 285.819C6.85158 283.347 9.57991 280.735 8.41928 277.922C7.42728 275.531 8.11114 272.437 8.03178 269.654C7.90282 265.395 7.98276 261.115 8.13156 256.865C8.3498 250.335 7.83408 243.825 8.00272 237.305C8.17135 230.785 8.04243 224.255 8.04243 217.725C8.04243 211.195 8.26978 204.394 7.95234 197.753C7.77378 194.006 8.0918 190.299 8.05212 186.572C8.01244 182.845 8.12152 179.107 8.0124 175.39C7.9628 173.582 7.52617 171.794 7.35753 169.995C7.29801 169.383 7.54628 168.75 7.63556 168.117C7.78436 166.951 8.20061 165.726 7.98237 164.631C7.57566 162.581 7.1694 160.683 7.467 158.482C7.70508 156.704 7.29817 154.815 8.0124 153.007C8.24056 152.435 8.15082 151.671 8.03178 151.028C6.48427 142.871 7.62525 4.06146 7.23838 -4.12624C7.1491 -5.93456 6.71266 -2.31791 6.5341 -4.12624C6.42498 -5.18109 6.20725 -3.20198 6.55444 -4.12624C7.64564 -6.98942 7.53625 -1.30324 6.52441 -4.12624C6.32601 -4.68883 6.49438 -3.40291 6.49438 -4.12624H25.9371C26.0263 -3.31249 26.2054 -5.00026 26.2054 -4.12624C26.2252 15.9864 26.2252 150.244 26.2054 170.357C26.2054 171.512 25.8783 172.668 25.7394 173.833C25.6105 174.868 25.2427 175.993 25.4808 176.947C26.8795 182.563 25.8486 188.189 25.7394 193.805C25.6799 196.708 25.5013 199.602 25.4517 202.505C25.4021 205.569 25.4411 208.633 25.4411 211.697C25.4411 247.653 25.4113 283.618 25.4808 319.574C25.4808 322.899 24.9353 326.174 25.3519 329.55C25.7686 332.966 25.4411 336.462 25.4411 339.928C25.4411 343.394 25.4021 346.85 25.4517 350.316C25.5013 353.912 25.2337 357.509 25.4023 361.115C25.5809 364.832 25.4411 368.57 25.4411 372.297C25.4411 376.024 25.4113 379.751 25.4411 383.488C25.4907 389.757 25.1642 396.026 25.4023 402.295C25.4817 404.395 25.3224 406.524 25.0545 408.604C24.8065 410.553 25.9471 412.411 24.8162 414.521C24.2409 415.586 25.4222 417.505 25.4023 419.022C25.3031 425.763 24.8862 432.494 24.916 439.235C24.9557 450.356 25.293 461.487 25.412 472.609C25.4318 474.407 24.896 476.205 24.7174 478.013C24.5984 479.199 24.3504 480.525 24.7174 481.59C25.9673 485.227 25.2828 488.934 25.4217 492.601C25.511 495.132 25.3229 497.674 25.3229 500.216C25.3229 502.737 25.4311 505.259 25.4411 507.791C25.4609 512.452 25.531 517.113 25.412 521.775C25.3426 524.236 25.4318 526.677 24.916 529.209C24.4696 531.389 25.5305 533.83 24.8162 536.392C24.3004 538.241 25.3126 540.471 25.4217 542.551C25.5507 545.072 25.2829 547.624 25.5011 550.135C25.7094 552.567 25.7786 555.229 25.2231 557.298C23.993 561.88 25.8876 566.109 25.5999 570.539C25.4511 572.74 24.6384 574.91 25.2832 577.331C25.8188 579.35 24.4197 581.942 25.0545 583.891C26.1755 587.367 23.5175 590.692 25.3229 594.148C25.8883 595.233 24.6378 597.162 24.7271 598.679C24.9354 602.346 23.8738 606.083 25.3122 609.7C25.5106 610.212 25.2039 610.935 25.1146 611.568C24.9757 612.462 24.489 613.467 24.7271 614.241C25.7389 617.465 24.1418 620.831 25.3917 624.046C25.6793 624.789 25.253 625.834 25.134 626.738C25.0149 627.632 24.4201 628.828 24.7872 629.35C25.8188 630.837 24.5782 632.264 24.8957 633.318C25.352 634.845 24.8561 636.001 24.8065 637.337C24.6776 640.863 25.124 644.399 25.3025 647.936C25.3819 649.513 25.7294 651.201 25.3326 652.668C24.4001 656.063 24.2809 659.318 25.382 662.674C25.6002 663.347 25.2923 664.211 25.1931 664.984C25.0344 666.14 24.5186 667.365 24.7368 668.44C25.6197 672.86 24.4495 677.231 24.638 681.621C24.8265 686.011 24.6383 690.411 24.7077 694.801C24.7276 696.218 25.0644 697.635 25.2628 699.041C25.3124 699.423 25.5507 699.875 25.4217 700.176C23.9635 703.491 24.5392 707.018 24.7872 710.363C25.1344 715.055 24.5986 719.686 24.668 724.337C24.7275 729.129 24.6777 733.922 24.6777 738.724V796.249C24.6777 801.041 24.6085 805.843 24.7077 810.635C24.7573 812.704 25.194 814.754 25.4023 816.823C25.4519 817.326 25.3129 817.848 25.2434 818.36C25.055 819.907 24.6971 821.455 24.6971 823.002C24.6673 870.551 24.6777 1033.34 24.6777 1080.88C24.6777 1082.33 24.6777 1079.04 24.6777 1080.88L24.5789 1080.87Z" fill="#F5CF87"/>
<path d="M150.899 -4.12636H170.61C170.521 -3.08155 170.481 -4.99034 170.372 -4.12636C170.223 -2.97104 169.638 -5.16112 169.906 -4.12636C171.136 0.575284 169.737 -8.78782 169.816 -4.12636C169.905 0.665701 169.885 137.325 169.816 142.117C169.776 144.729 170.193 147.361 169.132 149.943C168.715 150.968 168.884 152.344 169.092 153.499C169.737 157.116 170.342 160.702 169.072 164.309C168.943 164.661 168.943 165.133 169.053 165.495C170.174 169.362 168.775 173.2 168.993 177.078C169.212 181.056 168.795 185.085 169.092 189.053C169.578 195.593 168.795 202.093 168.993 208.623C169.192 215.404 169.043 222.206 169.043 228.997C169.043 235.788 169.429 242.348 168.894 248.959C168.576 252.947 169.37 256.835 168.775 260.853C168.199 264.772 169.003 268.891 168.993 272.919C168.993 274.989 168.526 277.048 168.288 279.118C168.229 279.64 168.14 280.213 168.269 280.705C168.745 282.443 168.765 284.05 168.447 285.919C168.199 287.335 169.281 289.063 168.259 290.651C170.223 293.202 167.286 296.236 169.032 298.808C167.653 302.405 169.707 306.142 168.884 309.558C167.832 313.968 168.745 318.117 168.993 322.387C169.053 323.401 168.685 324.446 168.655 325.471C168.576 328.344 168.566 331.227 168.527 334.111C168.517 335.075 168.497 336.04 168.447 336.994C168.417 337.647 168.13 338.35 168.279 338.943C169.538 343.886 167.862 348.788 168.18 353.731C168.497 358.634 167.942 363.607 168.339 368.499C168.686 372.789 167.951 377.028 168.269 381.278C168.388 382.825 168.755 384.352 168.924 385.889C169.013 386.663 169.142 387.567 168.835 388.21C167.991 390.008 167.992 391.736 168.706 393.544C168.894 394.006 169.142 394.659 168.963 395.031C167.545 397.955 168.308 401.039 168.288 404.033C168.189 417.354 168.219 430.665 168.279 443.987C168.279 445.654 168.725 447.322 168.924 448.99C168.983 449.502 168.973 450.034 168.903 450.547C168.705 452.084 168.279 453.621 168.269 455.158C168.229 486.191 168.229 517.224 168.269 548.247C168.269 549.784 168.864 551.321 168.864 552.858C168.864 554.375 168.318 555.902 168.269 557.429C168.17 560.885 168.1 564.361 168.269 567.817C168.457 571.483 167.733 575.14 168.854 578.837C169.37 580.525 168.269 582.655 168.259 584.584C168.2 600.296 168.12 616.018 168.299 631.731C168.348 635.86 168.369 639.979 168.249 644.108C168.13 648.498 168.219 652.898 168.219 657.288V773.956C168.219 778.215 168.14 782.485 168.249 786.744C168.309 788.814 168.725 790.873 168.963 792.943C169.013 793.335 169.092 793.777 168.983 794.138C167.406 799.473 168.428 804.928 168.249 810.323C168.071 815.778 167.941 821.263 168.279 826.698C168.685 833.369 167.972 840.01 168.17 846.67C168.368 853.321 168.21 859.992 168.21 866.642V927.774C168.21 934.434 168.21 941.095 168.21 947.746C168.21 954.537 168.21 1074.06 168.21 1080.85C168.21 1081.49 168.21 1080 168.21 1080.85H152.416C152.416 1082.27 152.416 1079.38 152.416 1080.85C152.416 1033.17 152.417 870.57 152.387 822.891C152.387 821.344 152 819.807 151.791 818.26C151.742 817.878 151.563 817.446 151.672 817.104C153.279 812.171 152.337 807.108 152.357 802.125C152.466 775.091 152.417 748.056 152.387 721.022C152.387 719.605 152.01 718.199 151.812 716.782C151.752 716.401 151.543 715.938 151.672 715.637C153.121 712.322 152.486 708.816 152.318 705.45C152.099 701.301 152.446 697.192 152.416 693.073C152.396 688.814 152.497 684.544 152.378 680.284C152.308 677.954 153.022 675.522 151.702 673.272C151.494 672.92 151.792 672.267 151.871 671.765C152.04 670.74 152.556 669.655 152.357 668.721C151.435 664.431 152.566 660.182 152.397 655.922C152.328 654.275 151.862 652.627 151.891 650.99C151.961 647.313 152.318 643.646 152.378 639.979C152.397 638.592 152.04 637.156 151.653 635.8C151.266 634.433 153.28 633.187 151.732 631.781C151.504 631.57 151.604 630.686 151.842 630.294C152.626 629.038 152.436 627.923 151.99 626.557C151.623 625.412 151.95 624.025 152.039 622.76C152.069 622.257 152.545 621.634 152.367 621.283C150.829 618.128 153.379 614.893 152.139 611.749C151.911 611.166 151.554 610.443 151.702 609.91C152.962 605.229 152.714 600.587 151.672 595.906C151.454 594.921 151.484 593.696 151.871 592.782C152.605 591.054 152.496 589.607 151.791 587.879C151.028 586.02 151.653 583.86 151.772 581.932C152.06 577.381 151.445 572.89 151.653 568.369C151.732 566.561 152.317 564.773 152.327 562.964C152.347 560.483 152 558.001 151.901 555.51C151.663 549.593 150.939 543.665 152.348 537.768C152.546 536.924 152.248 535.95 152.119 535.046C152 534.282 151.534 533.489 151.663 532.785C152.466 528.244 151.326 523.744 151.564 519.203C151.802 514.551 151.683 509.88 151.594 505.218C151.534 502.285 151.92 499.372 151.672 496.418C151.424 493.515 151.534 490.561 151.653 487.637C151.732 485.829 152.189 484.041 152.348 482.233C152.467 480.917 152.466 479.56 152.367 478.244C152.178 475.904 151.683 473.583 151.653 471.242C151.554 463.788 151.564 456.323 151.634 448.869C151.683 444.057 151.782 439.255 151.643 434.443C151.504 429.52 151.564 424.587 151.643 419.665C151.663 418.248 152.03 416.842 152.228 415.435C152.288 415.053 152.407 414.652 152.367 414.28C151.772 408.825 150.958 403.38 152.208 397.904C151.008 386.532 151.871 375.13 151.613 363.737C151.534 360.141 151.763 356.544 151.634 352.947C151.515 349.351 151.604 345.754 151.604 342.158C151.604 338.561 151.623 334.703 151.604 330.966C151.584 328.043 152.02 325.16 151.693 322.186C151.345 319.031 151.613 315.806 151.613 312.602V209.919C151.613 206.855 151.683 203.791 151.594 200.727C151.485 197.19 150.929 193.644 151.127 190.128C151.365 185.808 149.917 181.438 151.564 177.158C151.832 176.465 151.842 175.48 151.564 174.797C150.314 171.723 150.86 168.528 150.85 165.384C150.8 147.009 150.82 14.1679 150.82 -4.21678C150.82 -3.16192 150.82 -5.11089 150.82 -4.21678L150.899 -4.12636Z" fill="#F5CF87"/>
<path d="M299.381 562.884C298.557 562.884 297.724 562.884 296.901 562.884C296.246 562.854 295.591 562.823 294.837 562.783V553.932H373.324C373.324 553.681 373.324 553.44 373.324 553.189H355.299C355.617 550.266 356.113 547.814 356.123 545.353C356.192 529.651 356.192 513.948 356.123 498.246C356.123 496.046 355.031 493.705 355.527 491.696C356.083 489.426 354.923 487.406 355.488 485.307C356.252 485.307 357.015 485.317 357.789 485.327C359.813 485.598 361.836 486.06 363.87 486.11C368.592 486.231 373.324 486.231 378.046 486.11C379.94 486.06 381.826 485.558 383.72 485.256C384.818 487.446 385.366 489.985 385.366 492.871C385.347 502.646 385.327 512.431 385.307 522.206C385.069 522.588 384.593 522.99 384.622 523.352C384.9 526.366 383.799 529.49 385.307 532.403L385.396 533.348C385.129 535.397 384.642 537.457 384.622 539.506C384.543 550.688 384.583 561.869 384.583 573.061V581.851C384.583 584.785 384.811 587.728 384.524 590.631C384.226 593.595 385.138 596.579 384.494 599.422C383.839 602.305 384.841 605.008 384.633 607.821C384.415 610.734 384.583 613.678 384.583 616.601C384.583 620.328 384.623 624.055 384.573 627.782C384.533 630.425 384.206 630.776 381.597 630.786C373.175 630.816 364.763 630.786 356.341 630.756C356.123 630.756 355.895 630.555 355.369 630.304V620.569C355.369 617.375 355.329 614.18 355.379 610.985C355.429 607.79 354.813 604.656 355.23 601.391C355.597 598.467 354.625 595.403 354.635 592.4C354.635 589.135 355.448 585.849 355.269 582.615C355.091 579.51 354.377 576.496 354.853 573.282C355.299 570.187 354.953 566.973 354.953 563.627H376.27C377.341 560.191 379.94 557.037 376.885 553.34C373.254 555.871 376.35 559.89 374.594 562.894C371.271 561.939 367.888 563.075 364.475 562.914C360.805 562.743 357.115 562.874 353.425 562.874H321.066C317.386 562.874 313.705 562.874 310.015 562.874C306.463 562.874 302.913 562.884 299.361 562.894L299.381 562.884ZM369.217 584.533C366.847 584.242 366.39 585.538 366.429 587.407C366.479 589.928 366.489 592.45 366.429 594.971C366.37 597.483 366.192 599.985 366.331 602.516C366.43 604.345 365.884 606.133 367.62 607.499C368.027 606.836 368.245 606.133 368.711 605.771C370.248 604.586 370.447 603.039 370.427 601.22C370.388 598.036 369.069 594.851 370.378 591.666C370.428 591.556 370.398 591.405 370.378 591.274C370.011 589.114 369.634 586.944 369.217 584.533Z" fill="#9FD1CF"/>
<path d="M170.045 -4.12653H173.983C174.37 10.3702 174.747 136.32 175.134 150.937C177.187 150.937 178.834 150.937 180.48 150.937C190.123 150.937 199.765 151.008 209.407 150.937C214.813 150.897 220.22 150.525 225.627 150.535C230.815 150.535 236.012 150.988 241.2 150.978C244.94 150.978 248.68 150.415 252.43 150.335C255.644 150.254 258.858 150.515 262.072 150.586C265.107 150.646 268.153 150.706 271.189 150.656C275.603 150.576 280.017 150.314 284.431 150.254C295.304 150.114 306.176 150.013 317.038 149.953C325.599 149.913 334.161 149.913 342.722 150.003C349.963 150.073 357.214 150.435 364.455 150.385C371.449 150.335 378.443 149.752 385.446 149.732C390.347 149.722 395.247 150.445 400.148 150.505C404.651 150.566 409.165 150.194 413.678 150.003C415.484 149.923 417.289 149.832 419.382 149.732C419.382 155.8 419.244 161.536 419.412 167.252C420.007 187.687 420.83 208.111 421.326 228.545C421.684 243.564 421.674 258.593 421.813 273.612C421.912 284.563 421.971 295.523 422.061 306.473C422.19 322.929 422.389 339.395 422.458 355.851C422.537 373.14 422.508 390.44 422.537 407.73C422.577 429.671 422.646 451.612 422.676 473.553C422.706 490.42 422.676 507.288 422.696 524.156C422.716 543.665 422.805 563.175 422.746 582.695C422.666 610.865 422.468 639.034 422.329 667.214C422.25 683.298 422.219 699.392 422.15 715.476C422.1 726.587 421.942 737.699 421.922 748.81C421.902 765.758 422.021 782.706 421.972 799.654C421.912 819.565 421.803 839.477 421.535 859.379C421.465 864.482 420.603 869.576 420.315 874.689C420.117 878.135 420.315 881.601 420.275 885.057C420.226 888.694 418.718 890.371 415.137 890.683C409.602 891.165 404.056 891.698 398.511 891.929C394.384 892.099 390.228 891.768 386.091 891.788C380.953 891.818 375.824 892.019 370.685 892.099C364.704 892.19 358.682 892.662 352.74 892.18C344.745 891.537 336.789 893.134 328.783 891.969C325.053 891.426 321.175 891.858 317.366 891.888C310.085 891.949 302.804 892.15 295.532 892.099C288.965 892.059 282.368 891.336 275.831 891.718C268.054 892.18 260.346 891.858 252.598 891.376C249.543 891.185 246.449 891.778 243.363 891.848C239.762 891.929 236.151 891.838 232.541 891.818C224.664 891.788 216.778 891.848 208.901 891.687C202.602 891.567 196.313 891.115 190.014 890.934C185.778 890.813 181.542 890.914 176.79 890.914V1080.87H167.743C167.743 1072.96 167.763 954.688 167.743 947.022C167.704 935.338 167.585 923.655 167.565 911.971C167.535 893.797 167.486 875.634 167.565 857.46C167.605 848.489 168.071 839.517 168.12 830.536C168.16 823.383 167.733 816.23 167.743 809.067C167.743 803.954 168.13 798.85 168.319 793.737C168.358 792.682 168.26 791.617 168.25 790.552C168.141 783.409 168.031 776.276 167.932 769.133C167.823 761.589 167.624 754.044 167.654 746.499C167.684 738.573 168.071 730.646 168.061 722.71C168.051 711.327 167.753 699.955 167.704 688.572C167.674 682.364 168.012 676.145 168.002 669.937C167.982 661.648 167.714 653.37 167.694 645.082C167.674 637.447 167.932 629.822 167.923 622.187C167.903 611.729 167.694 601.281 167.684 590.822C167.684 584.353 167.962 577.873 168.002 571.403C168.071 558.514 168.1 545.624 168.08 532.735C168.08 528.254 167.724 523.774 167.734 519.293C167.753 510.04 167.962 500.788 168.012 491.535C168.041 484.141 167.912 476.757 167.912 469.363C167.912 463.687 168.051 458.021 168.041 452.345C168.031 446.93 167.843 441.525 167.843 436.11C167.843 431.499 168.071 426.898 168.091 422.287C168.121 416.339 167.972 410.392 168.021 404.444C168.071 398.678 168.428 392.901 168.398 387.135C168.339 375.25 168.061 363.365 167.962 351.491C167.903 344.217 168.032 336.934 168.051 329.66C168.071 324.617 168.051 319.584 168.061 314.541C168.091 303.962 168.091 293.393 168.171 282.814C168.28 268.639 168.488 254.454 168.587 240.279C168.617 235.898 168.319 231.508 168.358 227.128C168.418 220.779 168.765 214.43 168.785 208.08C168.795 202.555 168.409 197.03 168.419 191.494C168.419 186.903 168.834 182.312 168.904 177.721C169.023 170.055 168.983 162.38 169.072 154.715C169.162 147.411 169.371 3.17709 169.49 -4.12653C169.599 -10.6164 169.628 2.36334 169.727 -4.12653C169.757 -5.965 169.906 -1.97664 170.025 -4.12653H170.045ZM176.8 885.81C179.389 885.479 181.294 885.137 183.208 885.017C187.464 884.745 191.73 884.494 195.986 884.394C200.043 884.293 204.179 884.866 208.157 884.303C215.042 883.319 221.956 885.74 228.781 883.811C234.396 885.519 240.119 884.062 245.704 883.882C251.487 883.691 257.212 885.589 262.995 884.093C265.058 883.56 267.3 883.61 269.453 883.65C274.502 883.741 279.69 884.796 284.571 883.972C290.315 883.008 295.939 883.821 301.594 883.55C307.625 883.269 313.705 883.962 319.757 884.032C324.677 884.082 329.597 883.801 334.517 883.721C341.223 883.61 347.92 883.5 354.626 883.5C361.193 883.5 367.77 883.61 374.337 883.741C378.711 883.831 383.085 884.153 387.47 884.183C391.745 884.203 396.021 883.942 400.297 883.882C401.596 883.861 403.124 883.65 404.146 884.233C407.28 886.031 410.157 884.625 413.54 884.163C413.54 881.259 413.619 878.517 413.53 875.784C413.193 866.11 412.617 856.445 412.478 846.771C412.22 829.21 412.171 811.649 412.121 794.098C412.072 773.222 412.131 752.356 412.101 731.48C412.081 720.861 411.903 710.242 411.883 699.623C411.863 689.004 412.022 678.375 411.972 667.757C411.933 659.659 411.595 651.572 411.556 643.485C411.457 623.131 411.427 602.777 411.427 582.424C411.427 538.1 411.456 493.786 411.516 449.462C411.536 436.683 411.724 423.914 411.764 411.135C411.804 395.875 411.714 380.605 411.764 365.334C411.804 353.821 412.032 342.308 412.091 330.785C412.161 316.158 412.062 301.531 412.181 286.913C412.369 263.636 412.547 240.349 412.974 217.072C413.281 200.465 414.006 183.869 414.492 167.262C414.611 163.073 414.512 158.864 414.512 154.514C412.449 155.026 410.702 155.729 408.927 155.85C403.381 156.222 397.826 156.513 392.271 156.573C384.176 156.654 376.082 156.503 367.987 156.453C360.885 156.413 353.782 156.352 346.679 156.352C338.902 156.352 331.135 156.453 323.357 156.443C312.584 156.443 301.802 156.372 291.029 156.332C282.775 156.302 274.512 156.332 266.259 156.232C254.811 156.101 243.363 155.87 231.916 155.709C223.891 155.599 215.865 155.508 207.84 155.448C199.051 155.378 190.261 155.348 181.472 155.307C179.469 155.307 177.465 155.307 175.084 155.307C175.084 160.31 175.055 164.63 175.084 168.95C175.114 171.984 175.223 175.018 175.293 178.052C175.392 182.915 175.53 187.787 175.56 192.649C175.6 197.803 175.481 202.957 175.531 208.111C175.591 214.008 175.799 219.915 175.868 225.812C175.918 230.192 175.789 234.572 175.819 238.963C175.918 253.55 176.106 268.137 176.136 282.724C176.145 290.922 175.779 299.13 175.798 307.327C175.838 318.991 176.116 330.655 176.205 342.318C176.255 348.688 176.047 355.067 176.076 361.436C176.136 371.734 176.344 382.041 176.414 392.339C176.453 399.341 176.324 406.343 176.344 413.345C176.364 421.011 176.513 428.666 176.503 436.331C176.483 445.333 176.294 454.334 176.294 463.336C176.304 474.447 176.493 485.558 176.512 496.669C176.522 502.606 176.265 508.534 176.275 514.471C176.285 523.824 176.493 533.167 176.493 542.51C176.493 552.647 176.285 562.783 176.275 572.92C176.265 581.7 176.394 590.481 176.444 599.261C176.503 610.091 176.582 620.931 176.592 631.761C176.592 633.74 176.146 635.709 176.166 637.688C176.205 643.073 176.454 648.458 176.483 653.843C176.523 662.161 176.403 670.489 176.423 678.807C176.443 685.81 176.632 692.812 176.632 699.814C176.632 707.58 176.473 715.346 176.463 723.111C176.453 731.41 176.582 739.708 176.533 748.006C176.503 752.075 176.037 756.143 176.076 760.212C176.136 766.27 176.603 772.318 176.642 778.376C176.662 782.103 175.967 785.83 175.997 789.557C176.047 795.816 176.423 802.075 176.632 808.334C176.731 811.358 176.741 814.392 176.771 817.416C176.801 820.078 176.88 822.74 176.83 825.392C176.721 831.671 176.443 837.96 176.423 844.239C176.403 849.252 176.701 854.275 176.8 859.298C176.86 862.312 176.82 865.326 176.82 868.34C176.82 873.976 176.82 879.612 176.82 885.83L176.8 885.81Z" fill="black"/>
<path d="M3.07213 -4.12681H6.99048C7.11943 -2.26826 7.31817 -5.83468 7.34792 -4.12681C7.57607 7.40628 7.8041 135.858 7.97273 147.391C8.07192 154.031 8.01206 160.672 8.11125 167.312C8.23028 175.058 8.56754 182.814 8.60722 190.559C8.63698 196.356 8.21033 202.143 8.24009 207.94C8.2996 216.549 8.72614 225.159 8.73606 233.778C8.74597 245.05 8.41879 256.312 8.39895 267.584C8.38903 276.455 8.68646 285.336 8.73606 294.207C8.76581 298.969 8.50818 303.741 8.5181 308.502C8.52802 314.711 8.69688 320.92 8.7564 327.138C8.84567 337.335 8.92476 347.532 8.97435 357.729C9.00411 366.047 8.98427 374.366 8.97435 382.684C8.96443 392.268 8.89496 401.862 8.93464 411.446C8.97431 420.287 9.20223 429.118 9.19231 437.958C9.18239 446.136 8.87504 454.304 8.8552 462.481C8.83537 469.996 9.10319 477.521 9.10319 485.035C9.10319 494.84 8.86539 504.645 8.88523 514.451C8.89515 522.468 9.18316 530.484 9.24268 538.501C9.27244 542.992 9.04433 547.493 9.03441 551.983C9.03441 556.424 9.19281 560.864 9.21265 565.315C9.23249 568.871 9.11361 572.438 9.12353 575.994C9.14337 581.69 9.27244 587.386 9.24268 593.073C9.203 602.988 9.01384 612.914 9.02376 622.83C9.02376 630.334 9.34172 637.829 9.3318 645.333C9.32188 656.113 9.05379 666.902 9.05379 677.682C9.05379 687.769 9.33133 697.855 9.35117 707.941C9.36109 712.814 8.9344 717.686 8.94432 722.549C8.97408 730.746 9.31196 738.934 9.3318 747.132C9.35164 759.057 9.2123 770.982 9.10319 782.896C9.08335 785.388 8.82564 787.889 8.8058 790.381C8.8058 792.089 9.0737 793.787 9.13322 795.494C9.26217 799.292 9.39093 803.089 9.43061 806.897C9.4802 811.81 9.49012 816.722 9.43061 821.635C9.33141 828.878 9.05402 836.122 9.0441 843.365C9.0441 850.126 9.40058 856.887 9.40058 863.658C9.40058 878.245 9.21215 892.833 9.19231 907.42C9.19231 918.832 9.34129 930.245 9.39089 941.667C9.43057 951.061 9.39089 1071.14 9.39089 1080.87H0.414047C0.414047 1073.01 0.443805 954.356 0.414047 946.399C0.35453 934.354 0.225113 922.308 0.185436 910.273C0.145758 900.608 0.205778 890.954 0.205778 881.289C0.205778 870.781 0.205313 860.273 0.225152 849.754C0.244991 839.497 0.225501 829.25 0.334614 818.993C0.39413 813.196 1.16742 807.349 0.641689 801.623C0.254833 797.343 1.65358 793.134 1.00882 789.185C-0.330294 780.917 0.43373 772.679 0.503166 764.482C0.542843 760.031 0.175594 755.601 0.264868 751.15C0.423578 743.395 0.225462 735.629 0.294898 727.863C0.344495 722.438 0.67226 717.013 0.731777 711.588C0.761535 708.725 0.393704 705.862 0.393704 702.999C0.423462 692.289 0.602437 681.58 0.582598 670.871C0.56276 661.256 0.27502 651.642 0.255182 642.028C0.245262 634.373 0.493324 626.717 0.582598 619.062C0.671873 611.568 0.79106 604.073 0.741463 596.589C0.672028 586.864 0.374524 577.149 0.324927 567.424C0.295169 561.507 0.652112 555.59 0.662031 549.673C0.662031 539.516 0.473873 529.359 0.483792 519.202C0.483792 509.317 0.711938 499.421 0.731777 489.536C0.741696 482.132 0.543347 474.738 0.523508 467.334C0.50367 459.005 0.572447 450.667 0.592285 442.339C0.622043 431.368 0.621888 420.398 0.681405 409.427C0.721082 401.762 0.88049 394.086 0.900329 386.421C0.930087 379.037 0.830583 371.653 0.830583 364.279C0.830583 346.899 0.830854 329.519 0.860612 312.139C0.90029 295.985 0.979102 279.83 1.04854 263.666C1.08822 255.589 1.15827 247.512 1.18803 239.434C1.20787 234.783 1.09848 230.142 1.158 225.49C1.21752 219.724 1.43559 213.957 1.4951 208.191C1.55462 203.168 1.48542 198.144 1.48542 193.131C1.48542 188.791 1.48546 184.461 1.52513 180.121C1.56481 175.249 1.62402 170.377 1.70337 165.504C1.86208 156.794 2.03122 4.60338 2.21968 -4.09668C2.3288 -9.4011 2.46732 1.20775 2.60619 -4.09668C2.74506 -9.33077 2.89428 1.34839 3.04307 -4.09668L3.07213 -4.12681Z" fill="black"/>
<path d="M26.1563 -4.12664H30.6995C32.8421 283.518 32.0083 793.154 32.663 1080.87H23.7559C23.7559 1076.37 23.7061 961.458 23.7656 957.108C23.8747 949.544 24.1821 941.969 24.1821 934.404C24.1821 923.273 23.9247 912.151 23.9148 901.02C23.9049 887.629 24.0035 874.237 24.1027 860.845C24.1622 852.748 24.4204 844.641 24.3807 836.543C24.3113 821.243 24.0626 805.933 23.9535 790.632C23.8841 781.57 23.9535 772.509 23.9535 763.437C23.9535 753.833 23.9344 744.218 23.9642 734.614C23.984 728.928 24.1625 723.252 24.1725 717.566C24.1923 705.189 24.1028 692.822 24.1424 680.445C24.1821 670.549 24.4197 660.654 24.4495 650.768C24.509 634.312 24.4597 617.847 24.4795 601.391C24.4994 582.645 24.549 563.908 24.559 545.162C24.5788 521.362 24.5786 497.563 24.5687 473.763C24.5687 446.91 24.4893 420.066 24.5289 393.213C24.5587 375.149 24.7971 357.086 24.8467 339.023C24.8863 325.601 24.7471 312.19 24.7372 298.768C24.7174 284.582 24.7075 270.387 24.7769 256.202C24.8364 245.071 25.0945 233.949 25.1441 222.818C25.1738 216.77 24.8665 210.722 24.8467 204.675C24.8268 199.119 25.0051 193.563 25.0646 188.008C25.2035 176.334 25.3224 164.66 25.4414 152.987C25.5803 139.354 25.7099 9.50612 25.8686 -4.12664C25.8885 -5.5733 26.0472 -2.3585 26.1563 -4.12664Z" fill="black"/>
<path d="M146.267 -4.12665H150.89C151.059 -1.53472 151.346 -6.59803 151.356 -4.12665C151.396 7.1352 151.316 137.495 151.375 148.747C151.415 156.834 151.634 164.922 151.723 173.009C151.822 181.89 151.822 190.771 151.921 199.662C151.99 205.84 152.228 212.018 152.248 218.197C152.268 224.285 152.05 230.363 152.021 236.451C152.011 239.887 152.239 243.322 152.239 246.768C152.229 256.724 152.1 266.68 152.11 276.636C152.12 286.582 152.289 296.527 152.299 306.473C152.318 317.363 152.199 328.264 152.229 339.154C152.259 351.119 152.467 363.094 152.467 375.059C152.467 399.501 152.348 423.954 152.358 448.397C152.358 476.436 152.457 504.475 152.487 532.514C152.506 553.259 152.487 573.995 152.517 594.74C152.526 609.619 152.576 624.497 152.586 639.366C152.596 650.216 152.586 661.066 152.586 671.916C152.586 680.897 152.477 689.888 152.586 698.87C152.666 706.726 153.132 714.582 153.132 722.448C153.122 734.976 152.774 747.503 152.725 760.021C152.695 767.636 153.072 775.241 153.082 782.856C153.082 792.511 152.834 802.155 152.824 811.81C152.814 818.39 153.082 824.97 153.111 831.55C153.181 846.268 153.201 860.986 153.201 875.704C153.201 888.573 153.102 901.432 153.082 914.301C153.082 921.565 153.151 928.828 153.161 936.092C153.181 947.374 153.161 1069.3 153.161 1080.87H144.63C144.511 1076.82 144.283 962.001 144.293 957.842C144.323 948.951 144.521 940.06 144.56 931.169C144.62 917.225 144.611 903.281 144.611 889.336C144.611 874.589 144.591 859.841 144.62 845.093C144.66 821.303 144.789 797.514 144.789 773.724C144.789 753.933 144.601 734.142 144.62 714.351C144.63 702.295 144.967 690.24 144.977 678.184C144.987 665.566 144.729 652.958 144.709 640.34C144.69 630.284 144.908 620.218 144.918 610.161C144.918 600.567 144.729 590.963 144.749 581.369C144.779 568.138 144.977 554.917 144.997 541.686C145.017 527.27 144.898 512.843 144.848 498.427C144.818 488.521 144.759 478.616 144.799 468.71C144.848 457.087 145.086 445.463 145.096 433.84C145.106 422.769 144.858 411.708 144.878 400.637C144.898 388.852 145.156 377.068 145.196 365.274C145.295 337.787 145.304 310.291 145.384 282.804C145.423 267.644 145.533 252.495 145.573 237.335C145.602 226.585 145.493 215.846 145.573 205.097C145.702 187.495 145.96 169.905 146.108 152.303C146.208 140.338 146.218 7.83843 146.267 -4.12665C146.277 -7.00992 146.267 -0.931942 146.267 -4.12665Z" fill="black"/>
<path d="M52.7112 419.353C54.0702 420.117 54.8942 420.478 55.6184 421.001C57.1064 422.055 57.2153 423.402 55.9555 424.668C54.4874 426.134 52.8897 427.46 51.3918 428.807C47.771 426.446 47.6221 425.572 50.0723 422.719C51.0048 421.634 51.8382 420.478 52.7112 419.363V419.353Z" fill="black"/>
<path d="M101.379 723.513C99.9607 724.608 98.929 725.733 97.6593 726.276C96.7268 726.668 94.9809 726.738 94.475 726.155C93.7806 725.362 93.6113 723.774 93.7998 722.619C93.9486 721.705 94.901 720.861 95.6152 720.108C97.4306 718.199 99.008 718.39 100.238 720.64C100.675 721.434 100.912 722.328 101.369 723.513H101.379Z" fill="black"/>
<path d="M115.832 662.744C114.165 664.09 112.737 665.225 111.229 666.441C109.186 666.069 107.857 665.054 108.155 662.724C108.343 661.247 111.13 658.283 112.231 658.313C114.899 658.373 115.128 660.523 115.832 662.744Z" fill="black"/>
<path d="M129.759 689.506C128.946 688.17 127.677 686.935 127.915 686.332C128.431 685.036 129.64 683.921 130.791 683.067C131.148 682.806 132.487 683.428 132.963 683.991C133.281 684.363 133.082 685.518 132.735 686.06C132.051 687.125 131.089 688.009 129.75 689.516L129.759 689.506Z" fill="black"/>
<path d="M71.8672 382.734C70.1411 384.543 68.9209 385.828 67.1155 387.727C66.3616 386.15 65.3294 384.914 65.6072 384.392C66.3115 383.066 67.4822 381.85 68.742 381.056C69.1587 380.795 70.4487 381.941 71.8672 382.734Z" fill="black"/>
<path d="M385.457 484.031C383.721 486.482 381.786 486.934 379.594 486.874C372.263 486.673 364.942 486.492 357.611 486.331C357.254 486.331 356.887 486.572 356.58 486.683C356.907 508.413 357.095 530.073 356.599 552.395H373.949C373.532 555.248 371.867 554.816 370.577 554.816C362.71 554.857 354.854 554.857 346.987 554.837C333.585 554.796 320.193 554.736 306.791 554.686C302.942 554.676 299.083 554.686 295.056 554.686C295.175 557.268 295.294 559.739 295.403 562.231H374.396C375.09 558.564 373.652 554.796 377.213 551.943C379.405 554.676 379.277 557.639 378.642 560.553C378.056 563.235 375.982 564.31 373.383 564.35C369.177 564.411 364.981 564.421 360.775 564.451C359.099 564.461 357.433 564.451 355.985 564.451V629.952C359.625 629.952 362.739 629.932 365.854 629.952C370.705 629.993 375.556 630.103 380.407 630.113C383.551 630.113 383.7 629.912 383.71 626.687C383.79 598.819 383.82 570.951 383.969 543.082C384.009 535.658 384.534 528.244 384.573 520.83C384.623 511.186 384.375 501.531 384.316 491.877C384.316 490.33 384.604 488.772 384.762 487.225C385.09 487.195 385.407 487.165 385.734 487.145C385.853 488.16 386.072 489.184 386.082 490.199C386.131 498.979 386.101 507.76 386.19 516.54C386.279 525.291 386.547 534.041 386.597 542.791C386.647 552.305 386.478 561.809 386.518 571.322C386.567 581.288 386.795 591.254 386.855 601.22C386.914 611.055 386.905 620.901 386.875 630.736C386.865 635.146 386.458 635.397 382.143 635.407C374.435 635.418 366.728 635.578 359.02 635.669C358.236 635.669 357.443 635.638 356.659 635.558C352.453 635.096 352.492 634.945 352.661 630.635C352.82 626.527 352.542 622.408 352.591 618.299C352.72 605.048 352.929 591.787 353.068 578.536C353.117 574.015 353.068 569.494 353.068 564.38C350.251 564.38 347.285 564.391 344.329 564.38C329.756 564.29 315.184 564.36 300.621 563.989C297.308 563.908 294.64 564.913 291.971 566.54C289.888 560.473 290.661 553.762 292.725 552.245C297.06 552.496 300.641 552.877 304.212 552.867C318.259 552.817 332.305 552.646 346.352 552.526C348.177 552.506 350.002 552.526 352.373 552.526C352.453 548.116 352.592 544.067 352.572 540.028C352.512 527.933 352.363 515.837 352.284 503.741C352.254 499.361 352.284 494.981 352.403 490.601C352.443 489.014 352.621 487.396 353.038 485.879C353.256 485.105 354.278 483.88 354.715 483.97C357.919 484.643 360.498 482.152 363.673 482.483C366.639 482.795 369.684 482.303 372.69 482.313C375.815 482.323 378.949 482.413 382.054 482.694C383.165 482.795 384.217 483.528 385.467 484.051L385.457 484.031Z" fill="black"/>
<path d="M368.006 608.343C365.725 608.092 365.388 606.384 365.408 604.837C365.507 598.628 365.775 592.43 366.003 586.221C366.082 584.152 367.252 583.147 369.891 583.006C370.258 585.9 370.763 588.823 370.972 591.757C371.16 594.359 370.823 597.021 371.091 599.613C371.448 603.019 370.674 605.872 367.996 608.353L368.006 608.343Z" fill="black"/>
</svg>
