<svg width="622" height="1080" viewBox="0 0 622 1080" fill="none" xmlns="http://www.w3.org/2000/svg">
<path d="M611.16 1080.32C611.16 1061.22 611.06 1042.12 611.2 1023.02C611.29 1010.6 611.65 998.197 612.09 985.793C612.23 981.952 613.06 978.131 613.73 973.218C602.97 973.599 592.43 974.11 581.88 974.301C571.35 974.481 560.8 974.341 549.96 974.341C550.05 976.196 550.12 977.63 550.2 979.184C549.64 979.024 549.18 979.004 549.15 978.874C548.21 974.812 546.43 973.509 541.69 974.11C531.31 975.434 520.8 974.732 510.36 973.649C508 973.408 505.53 974.321 503.12 974.291C490.05 974.11 476.98 973.629 463.91 973.589C454.78 973.559 445.64 974.261 436.51 974.271C428.73 974.271 420.96 973.589 413.18 973.539C407.67 973.499 402.15 974.15 396.63 974.221C392.27 974.271 387.9 973.84 383.53 973.719C380.42 973.629 377.29 973.439 374.22 973.789C371.93 974.05 370.04 975.073 371.74 978.202C372.23 979.094 371.39 980.719 371.15 982.012C370.45 981.992 369.75 981.972 369.05 981.952C368.78 979.525 368.51 977.109 368.17 974.08C364.41 972.155 340.95 973.599 337.77 976.517C331.73 971.172 324.98 975.474 318.02 974.361C318.83 976.758 319.36 978.342 319.9 979.926C319.35 980.177 318.8 980.428 318.25 980.679C317.6 979.214 317.07 977.67 316.25 976.306C315.63 975.274 314.66 973.689 313.82 973.669C309.31 973.579 304.79 974.06 300.27 974.04C289.77 973.98 279.27 973.639 268.77 973.629C262.82 973.629 256.86 974.161 250.91 974.251C248.64 974.281 246.37 973.559 244.09 973.529C236.42 973.428 152.57 973.489 144.09 973.489C144.09 1009.88 144.09 1045.11 144.09 1080.33H611.17L611.16 1080.32Z" fill="#FCEEE3"/>
<path d="M144.08 972.987C144.12 972.015 144.13 971.032 144.08 970.039L537.76 970.009C562.21 970.16 586.66 970.38 611.12 970.621C617.57 970.681 619.2 971.945 619.74 978.613C620.55 988.781 621.18 998.989 621.3 1009.19C621.57 1032.89 621.5 1056.6 621.56 1080.3H610.29C610.63 1045.02 610.98 1009.72 611.32 974.532H571.45C572.13 977.771 572.65 980.298 573.18 982.825C572.79 982.975 572.4 983.136 572.01 983.286C571.45 982.093 570.66 980.95 570.37 979.686C569.61 976.387 568.25 974.421 564.3 974.762C559.91 975.143 555.47 974.853 550.64 974.853C550.9 976.186 551.28 977.099 551.19 977.951C551.12 978.643 550.6 979.646 550.05 979.826C549.55 979.987 548.53 979.395 548.13 978.844C547.17 977.54 546.43 974.863 545.6 974.863C541.85 974.863 538.1 975.605 534.35 976.096C533.18 976.246 532 976.698 530.86 976.608C523.5 976.046 516.17 975.113 508.81 974.813C500.94 974.492 493.04 974.692 485.15 974.732C474.21 974.782 463.26 974.993 452.32 974.953C444.75 974.923 437.19 974.472 429.62 974.442C421.91 974.421 414.2 974.803 406.48 974.803C398.5 974.803 390.53 974.482 382.55 974.452C378.92 974.442 375.29 974.803 373.11 974.923C372.53 977.971 372.12 980.137 371.71 982.303C370.49 981.972 368.77 982.033 368.14 981.23C366.53 979.195 365.01 976.738 368.67 974.492C362.43 974.492 356.18 974.492 349.94 974.492C348.52 974.492 347.11 974.592 345.69 974.652C344.83 974.692 343.96 974.672 343.11 974.782C339.88 975.194 337.45 978.322 333.16 975.384C330.29 973.419 325.12 974.823 320.97 974.742C320.43 974.732 319.88 974.873 319.41 974.933C319.95 976.908 320.44 978.723 320.93 980.538C320.62 980.869 320.31 981.2 319.99 981.531C318.51 980.819 316.67 980.418 315.66 979.285C314.91 978.453 315.24 976.648 315.05 974.963H144.05C144.11 974.291 144.02 973.629 144.05 972.957L144.08 972.987Z" fill="black"/>
<path d="M350.11 1052.24C349.01 1053.41 348.27 1054.2 347.52 1055C348.84 1056.15 350.05 1057.97 351.51 1058.21C352.59 1058.39 354.01 1056.51 355.28 1055.55C353.71 1054.54 352.14 1053.54 350.11 1052.24Z" fill="black"/>
<path d="M388.42 1031C389.79 1029.91 390.73 1029.15 391.67 1028.4C390.53 1027.46 389.36 1025.71 388.25 1025.75C386.82 1025.81 385.44 1027.28 384.03 1028.14C385.36 1029 386.68 1029.86 388.42 1030.99V1031Z" fill="black"/>
<path d="M426.47 1039.34C427.6 1039.21 428.74 1039.08 429.87 1038.95C429.84 1038.53 429.81 1038.11 429.79 1037.69C428.61 1037.69 427.43 1037.69 426.26 1037.69C426.33 1038.24 426.4 1038.79 426.47 1039.33V1039.34Z" fill="black"/>
<path opacity="0.7" d="M185.22 158.853H353.45V387.516H185.22V158.853ZM185.22 693.804H347.17V494.222H185.22V693.804Z" fill="#9FD1CF"/>
<path d="M33.3996 1080.32C33.3996 1028.03 33.3998 865.43 33.3698 813.135C33.3698 810.638 32.7397 808.151 32.7697 805.654C32.8797 798.304 33.3098 790.964 33.3698 783.613C33.4698 769.775 33.4096 755.937 33.3996 742.098C33.3896 715.104 33.4197 688.099 33.3197 661.104C33.2997 653.964 32.7396 646.834 32.6896 639.705C32.6296 632.013 32.9996 624.312 32.9696 616.621C32.9096 598.15 32.6798 579.689 32.6098 561.227C32.5398 542.425 32.5998 523.613 32.5998 504.811C32.5998 491.775 32.5998 478.739 32.5998 465.703C32.5998 455.314 32.5998 444.935 32.5998 434.547C32.5998 376.526 32.5998 318.515 32.5998 260.495C32.5998 256.834 32.5998 253.184 32.5998 249.524C32.5598 232.036 32.5796 214.557 32.4396 197.069C32.3696 188.425 31.9597 179.781 31.8197 171.127C31.5097 152.405 31.2697 133.673 31.0097 114.952C30.9797 112.615 31.0097 -0.337696 31.0097 -2.67417C62.3997 -2.67417 93.1196 -2.67417 123.91 -2.67417C124.04 -1.88197 124.22 -3.18558 124.2 -2.67417C123.96 5.66894 123.5 126.453 123.46 134.797C123.35 156.978 123.48 179.159 123.39 201.341C123.36 208.22 122.74 215.089 122.67 221.968C122.55 234.272 122.64 246.576 122.64 258.88C122.64 321.614 122.64 384.358 122.64 447.091C122.64 458.673 122.64 470.245 122.64 481.828C122.64 494.322 122.64 506.807 122.64 519.301C122.64 538.344 122.69 557.387 122.63 576.429C122.57 592.985 122.41 609.541 122.25 626.097C122.22 629.476 121.84 632.856 121.91 636.225C122.03 641.57 122.63 646.915 122.59 652.249C122.53 660.913 121.91 669.567 121.89 678.231C121.8 712.827 121.84 747.423 121.89 782.019C121.89 784.776 122.52 787.534 122.48 790.292C122.38 797.903 121.9 805.514 121.89 813.135C121.83 865.43 121.86 1028.03 121.86 1080.32C92.3798 1080.32 62.8996 1080.32 33.4296 1080.32H33.3996ZM64.9296 691.458C65.8696 691.679 67.0996 690.646 68.1996 690.184C67.5896 689.152 67.1097 688.008 66.3097 687.146C65.8397 686.635 64.7196 686.775 64.1496 686.304C60.9996 683.757 59.8598 685.572 58.8698 688.841C61.1498 689.874 62.9596 690.997 64.9396 691.468L64.9296 691.458ZM88.4897 723.256C87.6097 722.384 84.6796 722.083 83.9796 722.805C80.1396 726.736 86.5398 726.234 86.3598 729.323C89.0398 727.167 90.5397 725.302 88.4897 723.256Z" fill="#F6D3B8"/>
<path d="M513.01 970.02C513.01 952.461 512.91 934.903 513.04 917.344C513.12 905.932 513.45 894.531 513.86 883.129C513.99 879.599 514.76 876.09 515.36 871.567C505.47 871.918 495.78 872.389 486.09 872.56C476.41 872.73 466.72 872.6 456.75 872.6C456.84 874.305 456.9 875.628 456.97 877.052C456.45 876.902 456.03 876.882 456.01 876.772C455.15 873.041 453.51 871.838 449.16 872.399C439.62 873.613 429.96 872.971 420.36 871.978C418.19 871.758 415.92 872.6 413.71 872.57C401.69 872.399 389.68 871.958 377.67 871.918C369.27 871.888 360.88 872.54 352.48 872.55C345.33 872.55 338.18 871.928 331.03 871.878C325.96 871.838 320.89 872.44 315.82 872.5C311.81 872.55 307.79 872.149 303.78 872.038C300.93 871.958 298.04 871.778 295.22 872.099C293.12 872.339 291.37 873.282 292.94 876.15C293.39 876.972 292.61 878.466 292.4 879.65C291.76 879.629 291.11 879.609 290.47 879.599C290.22 877.373 289.97 875.147 289.66 872.359C286.21 870.584 264.64 871.918 261.71 874.596C256.16 869.682 249.95 873.633 243.55 872.61C244.3 874.816 244.79 876.27 245.28 877.724C244.78 877.955 244.27 878.185 243.77 878.416C243.17 877.072 242.68 875.658 241.93 874.405C241.36 873.452 240.47 871.998 239.69 871.988C235.54 871.898 231.39 872.349 227.24 872.329C217.59 872.279 207.94 871.958 198.29 871.948C192.82 871.948 187.35 872.44 181.87 872.52C179.79 872.55 177.7 871.878 175.61 871.848C168.56 871.758 161.51 871.818 153.71 871.818C153.71 905.27 153.71 937.65 153.71 970.03H513.02L513.01 970.02Z" fill="#FCEEE3"/>
<path d="M144.14 1080.33C144.08 1077.23 143.98 963.823 143.98 960.724C143.96 946.444 143.89 932.165 144 917.885C144.08 908.299 144.57 898.722 144.63 889.146C144.66 883.56 143.99 877.965 144.02 872.379C144.06 864.347 144.58 856.325 144.64 848.303C144.68 843.69 144.02 839.077 144 834.464C143.92 815.532 143.97 796.589 143.97 777.657C143.97 769.043 143.97 760.439 143.97 751.825C143.97 743.091 143.9 734.357 143.99 725.623C144.09 716.488 144.42 707.352 144.49 698.217C144.52 694.106 143.96 689.994 144.01 685.893C144.1 679.194 144.66 672.496 144.69 665.787C144.71 660.262 144.04 654.727 144.04 649.201C144.04 640.808 144.42 632.425 144.48 624.032C144.51 619.87 144.1 615.699 144.08 611.537C144.06 605.701 144.29 599.875 144.27 594.039C144.23 582.577 144.07 571.115 144 559.643C143.98 557.066 144.15 554.499 144.18 551.922C144.32 541.323 144.44 530.723 144.58 520.124C144.61 518.038 144.76 515.952 144.76 513.867C144.77 480.604 144.72 447.342 144.8 414.08C144.82 404.494 145.38 394.917 145.43 385.341C145.47 377.699 144.99 370.048 144.98 362.407C144.98 356.421 145.52 350.444 145.54 344.457C145.61 319.839 145.49 295.231 145.6 270.613C145.66 258.7 146.25 246.787 146.3 234.874C146.41 203.998 146.36 173.113 146.36 142.237C146.36 130.976 146.36 8.91824 146.36 -2.65381C139.88 -2.65381 132.8 -2.65381 125.27 -2.65381C125.27 0.956188 125.21 115.383 125.28 119.013C125.48 128.409 125.72 137.815 125.99 147.211C126.21 154.933 126.65 162.654 126.72 170.385C126.76 175.309 126.2 180.233 126.13 185.156C126.09 187.633 126.75 190.12 126.75 192.597C126.79 246.887 126.75 301.168 126.81 355.458C126.82 363.881 127.43 372.305 127.5 380.728C127.54 385.651 126.85 390.575 126.87 395.489C126.9 401.696 127.51 407.903 127.54 414.11C127.63 434.778 127.57 455.445 127.57 476.112C127.57 488.526 127.66 500.951 127.54 513.365C127.45 522.761 126.87 532.157 126.9 541.543C126.98 561.057 127.51 580.571 127.53 600.085C127.61 668.254 127.56 736.423 127.56 804.582C127.56 815.151 127.46 825.72 127.59 836.289C127.72 846.498 128.24 856.706 128.3 866.904C128.34 873.332 127.63 879.76 127.63 886.188C127.63 892.304 128.35 898.431 128.3 904.548C128.21 916.672 127.76 928.796 127.58 940.919C127.43 950.616 127.45 1070.63 127.39 1080.34C132.97 1080.34 138.54 1080.34 144.12 1080.34L144.14 1080.33Z" fill="#9FD1CF"/>
<path d="M27.8198 1080.33C27.7598 1071.02 27.7796 951.408 27.6296 942.102C27.4696 931.613 26.9797 921.134 26.9697 910.645C26.9697 900.938 27.5098 891.231 27.5898 881.524C27.6298 877.182 26.8597 872.83 26.8997 868.478C26.9697 860.045 27.5498 851.612 27.5598 843.188C27.5698 832.539 27.0298 821.879 27.0598 811.23C27.1498 786.12 27.5499 761.011 27.6099 735.901C27.7099 696.783 27.6396 657.665 27.6396 618.546C27.6396 595.081 27.6097 571.626 27.6597 548.161C27.6697 540.871 27.9997 533.591 27.9897 526.301C27.9597 514.528 27.6997 502.746 27.6597 490.973C27.5997 471.108 27.6396 451.233 27.6396 431.368C27.6396 421.35 27.5597 411.322 27.6697 401.305C27.7297 396.11 28.2899 390.936 28.3699 385.742C28.4899 377.98 28.3699 370.219 28.3699 362.457C28.3699 360.241 28.4297 358.035 28.4297 355.819C28.4297 305.519 28.3897 255.23 28.4697 204.931C28.4797 195.615 29.1297 186.309 29.1597 176.994C29.1897 169.011 28.4599 161.019 28.5999 153.037C28.8099 140.793 29.4997 128.559 29.9497 116.315C30.0497 113.678 29.9597 0.244027 29.9597 -2.68408C22.7097 -2.68408 15.6297 -2.68408 8.73975 -2.68408C8.73975 7.26347 8.73975 127.938 8.73975 137.825C8.73975 139.149 8.84985 140.482 8.84985 141.806C8.84985 164.288 8.78965 186.781 8.88965 209.263C8.91965 216.373 9.48984 223.482 9.58984 230.592C9.64984 235.044 9.13968 239.507 9.16968 243.959C9.20968 250.838 9.61964 257.707 9.62964 264.586C9.68964 291.46 9.60969 318.345 9.67969 345.219C9.69969 353.522 10.1498 361.815 10.2598 370.118C10.3998 381.119 10.4397 392.129 10.4397 403.13C10.4597 440.694 10.4397 478.258 10.4397 515.832C10.4397 521.858 10.3397 527.885 10.4597 533.902C10.6197 541.814 11.0397 549.716 11.1897 557.628C11.2597 561.147 10.8499 564.667 10.8699 568.187C10.9099 574.745 11.2497 581.303 11.1797 587.861C11.0897 596.365 10.5898 604.868 10.5298 613.382C10.4998 618.356 11.1997 623.33 11.1697 628.293C11.1197 637.288 10.5898 646.283 10.5898 655.278C10.5898 664.814 11.0797 674.341 11.1897 683.877C11.2997 693.484 11.3097 703.09 11.1897 712.697C11.0897 720.288 10.5198 727.869 10.5198 735.45C10.5198 743.031 11.1097 750.612 11.1897 758.193C11.3097 769.725 11.2197 781.267 11.2197 792.809C11.2197 803.498 11.3097 814.188 11.1997 824.868C11.0397 839.147 10.6198 853.427 10.5098 867.706C10.4698 873.161 11.1797 878.616 11.1597 884.072C11.1197 893.257 10.7198 902.432 10.5898 911.618C10.5598 913.694 11.1797 915.779 11.1897 917.865C11.2497 932.145 11.2297 946.424 11.2097 960.704C11.2097 963.802 11.1098 1077.21 11.0498 1080.29C16.6298 1080.29 22.1998 1080.29 27.7798 1080.29L27.8198 1080.33Z" fill="#9FD1CF"/>
<path d="M405.81 869.411C323.12 869.411 240.42 869.391 157.73 869.491C154.23 869.491 153.56 868.248 153.64 865.109C153.91 854.219 154.04 843.319 154.02 832.419C153.99 813.697 153.81 794.975 153.7 776.253C153.7 774.709 153.7 773.155 153.7 771.239C155.44 771.33 157.06 770.928 157.66 771.53C160.3 774.198 163.53 773.596 166.65 773.576C178.57 773.526 190.5 773.405 202.42 773.345C205.81 773.325 209.2 773.536 212.58 773.466C218.94 773.325 225.3 772.974 231.66 772.844C236.72 772.733 241.81 772.563 246.85 772.894C253.62 773.345 261.04 770.578 266.86 776.634C267.19 776.985 269.07 776.253 269.87 775.591C270.4 775.15 270.29 773.937 270.45 773.135C275.37 772.102 279.62 772.643 282.85 776.775C284.117 774.147 285.96 772.827 288.38 772.814C292.63 772.804 296.88 772.934 301.12 772.764C303.47 772.673 304.63 773.666 305.8 775.601C306.67 777.035 308.45 777.918 309.82 779.051C310.15 777.326 310.47 775.611 310.83 773.887C310.88 773.646 311.07 773.435 311.43 772.814C312.64 772.814 314.07 772.814 315.5 772.814C340.72 772.814 365.94 772.814 391.16 772.814C398.04 772.814 404.92 772.974 411.79 772.723C417.03 772.533 416.74 772.292 416.66 777.206C416.29 799.919 416.05 822.632 415.82 845.345C415.74 853.146 415.81 860.948 415.81 869.421C412.61 869.421 409.21 869.421 405.8 869.421L405.81 869.411ZM282.19 834.876C282.94 834.956 283.88 833.281 284.73 832.409C282.82 831.777 280.94 831.015 278.99 830.614C278.45 830.503 277.69 831.466 276.08 832.609C278.72 833.652 280.41 834.675 282.2 834.866L282.19 834.876Z" fill="#FCEEE3"/>
<path d="M193.81 149.939C195.74 149.909 197.68 149.377 199.6 149.437C213.03 149.818 226.45 150.44 239.88 150.691C246.03 150.801 252.19 150.029 258.34 150.049C266.16 150.079 273.98 150.51 281.8 150.761C282.33 150.781 282.86 150.731 283.39 150.711C289.91 150.47 296.44 150.099 302.96 150.049C306.79 150.019 310.63 150.751 314.46 150.711C320.92 150.641 327.37 150.189 333.83 149.999C337.04 149.909 340.26 150.059 343.48 150.069C347.37 150.079 351.28 150.34 355.14 149.989C358.73 149.658 360.61 151.333 359.95 154.953C359.62 156.748 359.27 158.583 359.27 160.398C359.23 216.934 359.25 273.481 359.21 330.017C359.21 332.234 358.52 334.44 358.56 336.646C358.69 343.916 359.23 351.186 359.18 358.456C359.12 369.447 358.7 380.447 358.42 391.438C358.4 392.059 358.21 392.671 358.05 393.523C351.88 393.523 345.89 393.624 339.9 393.493C335.56 393.393 331.2 392.541 326.9 392.811C315.29 393.553 303.77 392.109 291.96 394.546C279.31 397.163 265.91 396.11 252.84 396.682C249.6 396.822 246.34 397.394 243.13 397.153C237.93 396.772 232.48 396.692 227.68 394.977C223.86 393.614 220.3 392.651 216.29 392.681C205.14 392.781 193.99 392.711 182.84 392.711C181.43 392.711 180.02 392.711 178.23 392.711C178.58 389.021 179.15 385.892 179.11 382.774C178.96 369.086 178.42 355.408 178.42 341.72C178.42 327.46 178.99 313.201 179.05 298.941C179.09 290.769 178.46 282.596 178.39 274.423C178.07 237.22 177.86 200.017 177.53 162.814C177.49 158.382 176.91 153.95 176.61 149.949C182.73 149.949 188.26 149.999 193.79 149.919L193.81 149.939ZM188.87 388.69C199.44 389.011 210.01 389.322 220.59 389.432C222.11 389.452 223.64 388.379 225.17 387.827C226.48 387.356 227.79 386.524 229.12 386.494C235.49 386.343 241.87 386.253 248.24 386.454C255.02 386.664 261.78 387.436 268.56 387.587C274.69 387.727 280.83 387.146 286.95 387.306C290.42 387.396 293.86 388.56 297.34 388.88C301.8 389.282 306.29 389.392 310.77 389.482C315.85 389.582 320.93 389.602 326 389.482C333.81 389.302 341.62 388.951 349.44 388.73C351.11 388.68 352.79 388.87 355 388.971C355.13 386.594 355.32 384.207 355.39 381.821C355.63 373.027 355.96 364.222 355.99 355.418C356.01 349.441 355.48 343.475 355.38 337.498C355.34 335.292 356.02 333.066 355.98 330.86C355.84 321.594 355.55 312.328 355.32 303.063C355.29 302 355.26 300.937 355.26 299.874C355.26 290.428 355.31 280.982 355.25 271.535C355.01 236.067 354.74 200.589 354.43 165.121C354.41 163.045 354.3 160.779 353.46 158.954C352.91 157.75 350.98 156.507 349.64 156.467C334.43 156.036 319.21 155.875 303.99 155.534C297.86 155.404 291.74 154.973 285.61 154.792C282.66 154.702 279.7 154.862 276.74 154.933C267.79 155.123 258.85 155.394 249.9 155.474C247.3 155.494 244.69 154.762 242.09 154.802C232.15 154.953 222.2 155.354 212.26 155.524C204.86 155.645 197.45 155.544 190.04 155.564C183.74 155.584 183.19 156.136 183.19 162.223C183.19 171.669 183.29 181.115 183.16 190.561C183.05 198.132 182.46 205.693 182.43 213.254C182.33 237.762 182.46 262.28 182.36 286.788C182.33 295.081 181.7 303.364 181.64 311.657C181.52 326.718 181.6 341.79 181.6 356.852C181.6 366.98 181.6 377.098 181.6 387.807C184.78 388.199 186.83 388.62 188.89 388.68L188.87 388.69Z" fill="#5DB9B6"/>
<path d="M348.87 688.951C293.48 688.951 239.02 688.951 185.14 688.951C185.06 687.397 185.29 685.943 184.81 684.78C184.51 684.078 182.79 683.236 182.29 683.506C181.35 684.028 180.3 685.291 180.25 686.294C180.13 688.47 180.23 690.827 180.94 692.852C181.95 695.75 184.3 694.005 186.29 693.955C194.98 693.725 203.69 693.664 212.38 693.775C219.67 693.865 226.96 694.487 234.25 694.477C242.37 694.467 250.48 693.815 258.6 693.795C265.49 693.775 272.38 694.427 279.28 694.497C291.33 694.627 303.38 694.527 315.43 694.527C325.46 694.527 335.49 694.477 345.51 694.567C348.08 694.587 350.65 695.048 353.34 695.329C353.73 689.764 354.41 684.519 354.43 679.275C354.53 648.108 354.48 616.932 354.48 585.766C354.48 577.352 354.41 568.929 354.49 560.516C354.71 539.337 355.01 518.158 355.27 496.97C355.3 494.312 355.89 489.569 355.15 489.349C351.95 488.376 348.35 488.687 344.9 488.617C342.34 488.567 339.77 488.737 337.21 488.637C330.67 488.386 324 487.113 317.62 487.975C309.98 489.008 302.49 488.777 294.9 488.597C291.07 488.506 287.23 489.018 283.4 489.258C283 489.279 282.6 489.319 282.21 489.309C275.45 489.068 268.69 488.647 261.93 488.637C255.3 488.627 248.68 489.148 242.05 489.218C235.23 489.289 228.42 489.068 221.6 489.038C217.39 489.018 213.19 489.098 208.98 489.158C208.19 489.168 207.4 489.339 206.61 489.319C198.26 489.098 189.92 488.757 181.57 488.737C180.52 488.737 178.56 490.372 178.55 491.264C178.45 503.618 178.65 515.982 178.7 528.337C178.72 534.143 178.52 539.959 178.56 545.765C178.57 547.841 179.17 549.916 179.17 552.002C179.23 567.174 179.2 582.336 179.2 597.508C179.2 616.31 179.2 635.112 179.2 653.904C182.2 655.138 183.22 654.727 183.21 652.17C183.18 645.22 183.16 638.261 183.3 631.312C183.39 626.839 183.91 622.367 183.96 617.895C184.07 608.298 183.99 598.712 183.99 589.115C183.99 558.691 183.99 528.277 183.99 497.852C183.99 496.579 183.99 495.305 183.99 494.393C186.34 494.393 188.07 494.403 189.8 494.383C190.19 494.383 190.57 494.152 190.96 494.162C200.24 494.373 209.52 494.643 218.8 494.774C220.87 494.804 222.95 494.122 225.02 494.172C230.29 494.302 235.55 494.884 240.81 494.864C248 494.844 255.19 494.182 262.37 494.222C289.7 494.363 317.03 494.694 344.37 494.894C346.69 494.914 348.16 495.275 348.16 498.113C348.16 500.991 348.85 503.869 348.85 506.747C348.91 533.511 348.79 560.275 348.92 587.049C349 603.134 349.38 619.218 349.7 635.293C349.88 644.067 350.52 652.841 350.39 661.616C350.26 670.52 349.43 679.415 348.87 688.972V688.951Z" fill="#5DB9B6"/>
<path d="M195.93 460.719C201.98 460.94 208.02 461.331 214.07 461.321C219.08 461.321 224.09 460.689 229.1 460.649C232.89 460.619 236.69 461.251 240.49 461.281C243.48 461.301 246.48 460.649 249.48 460.629C253.65 460.609 257.81 461.06 261.98 461.04C269.49 461 277.01 460.479 284.52 460.659C295.97 460.93 307.4 461.853 318.85 462.073C326.74 462.224 334.65 461.632 342.56 461.401C343.88 461.361 345.21 461.482 346.53 461.522C347 460.81 347.89 460.088 347.88 459.386C347.82 452.336 347.61 445.277 347.44 438.227C346.49 437.966 345.54 437.475 344.59 437.465C327.61 437.415 310.62 437.355 293.64 437.465C286.12 437.515 278.6 438.157 271.08 438.167C263.96 438.167 256.84 437.555 249.71 437.495C245.38 437.455 241.05 438.197 236.73 438.167C228.29 438.107 219.85 437.676 211.41 437.535C205.97 437.445 200.52 437.605 195.08 437.656C195.37 445.347 195.65 453.028 195.94 460.719H195.93Z" fill="#D93832"/>
<path d="M347.43 438.217C347.6 445.266 347.81 452.326 347.87 459.376C347.87 460.087 346.99 460.799 346.52 461.511C346.75 463.467 346.85 465.452 347.23 467.378C347.84 470.476 351.51 473.444 354.32 472.552C355.92 472.041 357.22 470.095 358.28 468.541C358.78 467.809 358.57 466.445 358.39 465.412C357.69 461.371 359.54 460.258 363.28 460.539C371.14 461.13 377.87 452.196 374.34 444.605C373.49 442.77 371.69 440.774 369.87 440.132C366.07 438.788 361.98 438.297 357.67 437.375C358.82 433.033 355.04 432.17 352.89 430.285C352.48 429.924 349.98 431.017 349.43 431.99C348.39 433.845 348.06 436.111 347.43 438.207V438.217Z" fill="#5DB9B6"/>
<path d="M195.93 460.719C195.64 453.028 195.36 445.346 195.07 437.655C194.78 435.319 194.73 432.912 194.08 430.686C193.79 429.683 192.4 428.6 191.33 428.369C190.7 428.229 189.35 429.523 188.97 430.435C187.95 432.862 187.27 435.429 186.51 437.745C183.59 437.906 180.51 438.016 177.45 438.287C176.76 438.347 175.69 438.838 175.53 439.36C173.7 445.266 168.83 450.631 172.3 457.55C172.73 458.403 172.13 459.766 172 461.02C176.52 461.02 180.81 461.02 185.12 461.02C186.107 466.642 187.783 470.336 190.15 472.101C192.11 468.24 194.01 464.479 195.91 460.729L195.93 460.719Z" fill="#5DB9B6"/>
<path d="M512.21 970.019C512.53 937.579 512.84 905.14 513.16 872.8C501.8 872.8 489.37 872.8 476.52 872.8C477.14 875.778 477.63 878.095 478.11 880.421C477.75 880.562 477.39 880.702 477.04 880.852C476.52 879.749 475.8 878.706 475.53 877.543C474.83 874.505 473.58 872.7 469.95 873.021C465.92 873.372 461.83 873.101 457.4 873.101C457.64 874.324 457.99 875.167 457.9 875.949C457.83 876.591 457.35 877.513 456.85 877.674C456.39 877.824 455.45 877.272 455.08 876.771C454.19 875.568 453.52 873.111 452.76 873.111C449.31 873.111 445.86 873.793 442.42 874.244C441.35 874.384 440.26 874.796 439.21 874.715C432.45 874.204 425.71 873.342 418.94 873.061C411.7 872.76 404.45 872.95 397.2 872.991C387.14 873.041 377.08 873.231 367.02 873.191C360.07 873.171 353.11 872.74 346.16 872.72C339.07 872.7 331.98 873.051 324.89 873.051C317.56 873.051 310.23 872.76 302.89 872.73C299.56 872.72 296.22 873.051 294.22 873.161C293.69 875.959 293.31 877.954 292.93 879.95C291.81 879.649 290.23 879.699 289.65 878.967C288.17 877.102 286.77 874.846 290.14 872.77C284.4 872.77 278.66 872.77 272.92 872.77C271.62 872.77 270.32 872.86 269.02 872.92C268.23 872.95 267.43 872.94 266.65 873.041C263.68 873.422 261.44 876.29 257.51 873.592C254.87 871.787 250.12 873.071 246.31 873.001C245.81 873.001 245.31 873.121 244.88 873.171C245.37 874.986 245.83 876.651 246.28 878.325C245.99 878.626 245.71 878.927 245.42 879.238C244.06 878.586 242.37 878.215 241.44 877.172C240.75 876.41 241.05 874.755 240.88 873.201C212.6 873.201 183.76 873.201 154.59 873.201C154.59 881.564 154.59 889.386 154.59 897.208C154.59 911.387 154.63 925.576 154.61 939.755C154.61 949.843 154.54 1070.23 154.5 1080.31C150.78 1080.31 147.06 1080.31 143.35 1080.31C143.42 1070.3 143.53 949.984 143.56 939.966C143.61 926.098 143.62 912.229 143.61 898.361C143.59 879.809 143.54 861.248 143.5 842.697C143.46 823.915 143.41 805.133 143.38 786.351C143.36 773.284 143.34 760.208 143.41 747.142C143.45 738.127 143.72 729.102 143.74 720.087C143.77 708.816 143.58 697.535 143.61 686.264C143.63 679.154 144 672.044 143.99 664.934C143.97 655.107 143.64 645.28 143.63 635.443C143.61 622.687 143.82 609.932 143.81 597.167C143.81 583.9 143.52 570.633 143.58 557.367C143.66 537.832 144.02 518.308 144.11 498.774C144.18 483.703 143.88 468.631 143.99 453.549C144.21 422.242 144.64 390.936 144.9 359.619C145.02 345.781 144.9 331.932 144.96 318.094C145.12 283.508 145.27 248.912 145.53 214.327C145.75 185.176 146.14 156.035 146.42 126.884C146.48 120.567 146.42 114.239 146.42 107.882C232.52 107.882 317.96 107.882 403.89 107.882C403.89 116.857 403.86 125.581 403.89 134.305C403.94 147.351 404.01 160.397 404.13 173.433C404.24 185.587 404.48 197.741 404.56 209.894C404.66 224.856 404.61 239.817 404.71 254.779C404.77 264.516 405.02 274.243 405.08 283.979C405.16 296.855 405.12 309.741 405.14 322.616C405.15 333.567 405.22 344.517 405.17 355.467C405.14 363.66 404.89 371.863 404.89 380.056C404.89 389.512 405.06 398.958 405.12 408.414C405.19 420.377 405.19 432.34 405.29 444.293C405.38 455.324 405.64 466.354 405.66 477.385C405.69 495.194 405.54 513.004 405.57 530.813C405.59 548.682 405.78 566.562 405.8 584.431C405.8 591.672 405.43 598.902 405.45 606.142C405.48 614.414 405.89 622.687 405.9 630.96C405.9 640.146 405.53 649.331 405.52 658.517C405.52 664.283 406.05 670.049 406.02 675.815C405.93 692.05 405.62 708.274 405.52 724.509C405.45 735.931 405.63 747.363 405.56 758.784C405.51 766.606 405.41 766.606 397.62 768.832C397.5 768.862 397.48 769.213 397.35 769.584C400.98 769.584 404.55 769.674 408.11 769.564C412.04 769.434 415.97 768.983 419.9 768.993C420.72 768.993 422.22 770.407 422.23 771.179C422.26 774.779 421.62 778.399 421.69 781.999C421.92 793.912 422.42 805.815 422.7 817.728C423.05 833.07 423.35 848.423 423.47 863.775C423.48 865.369 422.1 866.984 421.33 868.679C420.83 868.488 421.19 868.749 421.55 868.749C429.55 868.709 437.54 868.558 445.54 868.608C468.02 868.749 490.49 868.949 512.97 869.17C518.9 869.23 520.4 870.383 520.89 876.52C521.64 885.866 522.21 895.252 522.32 904.628C522.57 926.419 522.5 948.209 522.56 969.999C519.11 969.999 515.66 969.999 512.2 969.999L512.21 970.019ZM415.71 773.355C381.49 773.355 346.79 773.355 311.74 773.355C312.37 776.393 313.8 779.943 308.99 779.722C307.64 779.662 305.67 778.068 305.19 776.734C304.15 773.866 302.46 773.375 299.75 773.495C294.99 773.716 290.21 773.555 285.54 773.555C283.1 778.499 283.21 778.188 278.86 774.638C277.17 773.264 273.98 773.736 272.02 773.445C270.75 775.471 269.7 778.128 269.05 778.028C267.18 777.757 265.49 776.333 263.7 775.43C262.49 774.829 261.23 773.866 259.99 773.866C245.74 773.886 231.49 774.157 217.24 774.177C198.81 774.197 180.39 774.097 161.97 773.856C159.7 773.826 157.44 772.623 154.73 771.83C154.73 804.3 154.73 836.379 154.73 868.649C241.87 868.649 328.57 868.649 415.73 868.649C415.73 836.66 415.73 805.183 415.73 773.345L415.71 773.355ZM195.76 460.358C246.31 460.358 296.39 460.358 346.88 460.358C346.88 453.178 346.88 445.788 346.88 438.467C296.33 438.467 246.1 438.467 195.76 438.467C195.76 445.848 195.76 452.907 195.76 460.358ZM323.43 489.699C315.37 489.138 307.42 490.05 299.42 489.91C291.44 489.769 283.46 489.418 275.49 489.418C267.51 489.418 259.54 489.85 251.56 489.91C240.09 490 228.61 489.95 217.14 489.91C205.48 489.86 193.82 489.789 182.17 489.579C179.5 489.529 178.81 490.371 178.85 493.008C179.29 524.716 179.59 556.434 179.98 588.142C180.28 613.442 180.71 638.732 180.95 664.032C181.03 672.175 180.73 680.327 180.52 688.47C180.42 692.26 181.8 693.514 185.84 693.473C195.83 693.383 205.81 693.433 215.8 693.423C230.15 693.423 244.49 693.383 258.84 693.413C265.54 693.423 272.23 693.584 278.93 693.624C292.26 693.714 305.59 693.794 318.92 693.834C330.07 693.865 341.22 693.834 352.71 693.834C353.09 688.129 353.82 681.972 353.87 675.805C354.04 652.711 353.98 629.627 354.01 606.533C354.04 584.522 354.03 562.511 354.13 540.5C354.2 526.1 354.43 511.7 354.64 497.31C354.68 494.843 355.02 492.377 355.22 489.9C344.17 489.9 333.76 490.441 323.43 489.729V489.699ZM178.54 173.644C178.78 191.152 178.73 208.661 178.87 226.169C178.98 239.958 179.3 253.736 179.34 267.524C179.42 292.032 179.29 316.53 179.38 341.037C179.43 355.086 179.78 369.135 179.91 383.184C179.93 385.27 179.52 387.376 179.2 389.452C178.88 391.547 179.63 392.319 181.77 392.299C196.31 392.199 210.84 392.229 225.38 392.129C235.28 392.059 245.18 391.708 255.08 391.748C273.26 391.818 291.44 392.089 309.62 392.269C324.78 392.42 339.95 392.56 355.11 392.66C355.87 392.66 356.62 392.35 358.11 392.029C358.11 311.666 358.11 231.314 358.11 150.71C298.21 150.71 238.12 150.71 177.45 150.71C177.81 158.051 178.43 165.842 178.53 173.644H178.54ZM372.7 454.512C374.88 451.263 375.15 448.114 373.65 444.785C372.26 441.696 369.52 440.703 366.25 440.373C364.27 440.172 362.42 438.939 360.44 438.447C358.72 438.026 356.9 437.986 355.03 437.765C355.03 445.467 355.03 452.657 355.03 459.806C362.92 460.709 369.46 459.355 372.71 454.502L372.7 454.512ZM177.89 439.239C176.72 439.54 175.94 441.686 175.15 443.1C172.69 447.512 170.22 451.904 173.25 457.139C173.63 457.791 173.02 459.024 172.88 459.887C176.36 459.887 179.78 459.846 183.2 459.897C185.71 459.937 186.63 458.864 186.56 456.297C186.4 450.751 186.51 445.206 186.51 438.668C183.45 438.808 180.55 438.547 177.89 439.229V439.239ZM189.29 439.119C189.11 439.47 188.89 439.701 188.9 439.931C189.05 445.497 189.15 451.062 189.46 456.618C189.52 457.65 190.43 458.633 190.95 459.646C191.33 458.643 192.01 457.64 192.03 456.628C192.14 450.942 192.08 445.246 192.08 439.119H189.29ZM349.76 460.538C350.07 460.538 350.38 460.538 350.69 460.538C350.69 452.907 350.69 445.276 350.69 437.645C350.38 437.645 350.07 437.645 349.76 437.645C349.76 445.276 349.76 452.907 349.76 460.538Z" fill="black"/>
<path d="M11.8896 1080.33C11.8396 1069.79 11.7798 948.931 11.7498 938.392C11.7098 922.548 11.6797 906.714 11.6597 890.87C11.6397 878.767 11.6996 866.673 11.6296 854.57C11.5596 842.286 11.2698 830.002 11.2698 817.718C11.2698 804.742 11.6296 791.776 11.6296 778.8C11.6296 764.5 11.2498 750.191 11.2698 735.891C11.2898 722.223 11.7197 708.555 11.7397 694.888C11.7597 685.05 11.2398 675.213 11.2498 665.376C11.2798 649.462 11.6197 633.548 11.6797 617.634C11.7197 607.155 11.4097 596.676 11.3997 586.197C11.3997 576.61 11.6797 567.013 11.6597 557.427C11.6297 545.584 11.3598 533.731 11.2998 521.889C11.0998 483.873 10.9198 445.858 10.7998 407.843C10.7498 392.831 10.9696 377.81 10.8796 362.798C10.7196 334.911 10.3997 307.033 10.2097 279.146C10.0997 263.242 10.2098 247.328 10.0498 231.424C9.8098 206.956 9.33964 182.489 9.12964 158.021C8.97964 141.455 9.09985 14.3229 9.09985 -2.67416C7.16985 -2.76441 5.80965 -2.56385 3.38965 -2.67416C3.38965 7.95528 3.42965 128.559 3.38965 138.858C3.28965 160.478 3.17975 182.108 2.98975 203.727C2.72975 233.019 2.33987 262.31 2.11987 291.601C2.00987 305.75 2.26967 319.909 2.15967 334.068C1.95967 360.07 1.52986 386.082 1.35986 412.084C1.12986 445.788 0.989687 479.501 0.929688 513.204C0.889688 537.251 1.10984 561.298 1.08984 585.334C1.04984 617.313 0.839795 649.291 0.789795 681.27C0.739795 712.968 0.839824 744.665 0.819824 776.363C0.819824 793.731 0.689678 811.089 0.669678 828.457C0.649678 850.98 0.709707 873.492 0.699707 896.015C0.689707 920.151 0.629844 1054.59 0.589844 1078.73C0.589844 1079.26 0.689746 1079.78 0.739746 1080.31C4.45975 1080.31 8.17965 1080.31 11.8896 1080.31V1080.33Z" fill="black"/>
<path d="M128.2 1080.32C128.36 1071.73 128.62 952.822 128.65 944.228C128.7 930.48 128.59 916.722 128.57 902.973C128.54 883.911 128.54 864.838 128.5 845.775C128.46 828.277 128.39 810.778 128.35 793.28C128.26 760.228 128.15 727.187 128.1 694.135C128.06 670.359 128.17 646.573 128.11 622.798C128.05 595.743 127.83 568.688 127.79 541.633C127.77 524.275 128 506.917 128.03 489.559C128.06 468.2 128.03 446.84 127.97 425.481C127.9 402.297 127.72 379.113 127.63 355.929C127.51 324.592 127.42 293.255 127.32 261.918C127.24 237.751 127.2 213.584 127.06 189.417C126.94 168.66 126.73 147.903 126.48 127.155C126.41 121.72 126.07 2.75058 125.79 -2.67444C125.73 -3.71733 125.34 -1.64158 125.1 -2.67444C124.69 -2.64436 124.28 -2.70453 123.87 -2.67444C123.58 1.97844 123.1 117.167 123.02 121.82C122.74 139.61 122.52 157.399 122.4 175.198C122.23 200.007 122.15 224.805 122.08 249.614C121.94 299.352 121.82 349.09 121.72 398.827C121.66 425.521 121.67 452.215 121.63 478.909C121.59 508.15 121.47 537.401 121.49 566.642C121.49 581.152 121.88 595.652 121.83 610.163C121.78 626.939 121.32 643.705 121.25 660.482C121.17 681.651 121.37 702.829 121.36 723.998C121.34 744.174 121.14 764.35 121.13 784.515C121.12 819.392 121.23 854.259 121.22 889.135C121.22 916.1 121.1 1053.37 121.04 1080.33C123.43 1080.33 125.82 1080.33 128.21 1080.33L128.2 1080.32Z" fill="black"/>
<path d="M150.58 970.019C150.74 961.425 151 952.822 151.03 944.228C151.08 930.48 150.97 916.722 150.95 902.973C150.92 883.911 150.92 864.838 150.88 845.775C150.84 828.277 150.77 810.778 150.73 793.28C150.64 760.228 150.53 727.187 150.48 694.135C150.44 670.359 150.55 646.573 150.49 622.798C150.43 595.743 150.21 568.688 150.17 541.633C150.15 524.275 150.38 506.917 150.41 489.559C150.44 468.2 150.41 446.84 150.35 425.481C150.28 402.297 150.1 379.113 150.01 355.929C149.89 324.592 149.8 293.255 149.7 261.918C149.62 237.751 149.58 213.584 149.44 189.417C149.32 168.66 149.11 147.903 148.86 127.155C148.79 121.72 148.45 2.75058 148.17 -2.67444C148.11 -3.71733 147.72 -1.64158 147.48 -2.67444C147.07 -2.64436 146.66 -2.70453 146.25 -2.67444C145.96 1.97844 145.48 117.167 145.4 121.82C145.12 139.61 144.9 157.399 144.78 175.198C144.61 200.007 144.53 224.805 144.46 249.614C144.32 299.352 144.2 349.09 144.1 398.827C144.04 425.521 144.05 452.215 144.01 478.909C143.97 508.15 143.85 537.401 143.87 566.642C143.87 581.152 144.26 595.652 144.21 610.163C144.16 626.939 143.7 643.705 143.63 660.482C143.55 681.651 143.75 702.829 143.74 723.998C143.72 744.174 143.52 764.35 143.51 784.515C143.5 819.392 143.61 854.259 143.6 889.135C143.6 916.1 143.48 943.064 143.42 970.029C145.81 970.029 148.2 970.029 150.59 970.029L150.58 970.019Z" fill="black"/>
<path d="M34.1997 1080.32C34.1997 1055.22 34.2197 919.8 34.1997 894.701C34.1997 866.954 34.1597 839.197 34.1497 811.45C34.1397 783.352 34.1499 755.265 34.0999 727.167C34.0699 703.501 33.9797 679.846 33.9097 656.18C33.8397 632.374 33.7297 608.558 33.6697 584.753C33.6097 558.309 33.5998 531.856 33.5298 505.413C33.4898 486.27 33.3599 467.117 33.3399 447.974C33.2999 412.746 33.3298 377.519 33.3098 342.281C33.2998 315.467 33.2698 288.642 33.2198 261.828C33.1798 238.754 33.1698 215.68 33.0298 192.607C32.8998 171.007 32.6697 149.407 32.3897 127.807C32.3097 121.841 31.8899 3.30232 31.5899 -2.66421C31.5499 -3.35612 31.2399 -1.92215 30.0799 -2.66421C29.8399 -1.50099 29.4197 -3.82743 29.3797 -2.66421C29.0197 8.60701 28.6597 133.824 28.4397 145.105C28.2597 154.361 28.2097 163.626 28.1797 172.882C28.0497 213.464 27.9799 254.047 27.8399 294.629C27.7799 312.559 27.5898 330.498 27.4998 348.428C27.3898 371.612 27.2498 394.796 27.2498 417.981C27.2498 439.992 27.4098 462.003 27.4998 484.004C27.5598 498.845 27.6797 513.686 27.6397 528.527C27.5597 554.007 27.3198 579.488 27.2398 604.968C27.1498 635.754 27.1799 666.539 27.0999 697.324C27.0299 726.665 26.8398 756.017 26.7998 785.358C26.7798 800.59 27.0298 815.822 27.0398 831.045C27.0398 843.118 26.8198 855.191 26.7498 867.265C26.6598 882.858 26.5699 898.461 26.5799 914.054C26.5799 932.315 26.6998 1060.88 26.7798 1079.14C26.7798 1079.53 26.9498 1079.91 27.0398 1080.3C29.4298 1080.3 31.8197 1080.3 34.2097 1080.3L34.1997 1080.32Z" fill="black"/>
<path d="M69.1297 687.447C67.0997 686.565 65.3498 685.341 63.4898 685.161C62.0198 685.01 59.8898 685.702 58.9998 686.795C57.5498 688.56 58.9299 689.854 60.8499 690.515C61.4599 690.726 61.9498 691.227 62.5398 691.518C67.0098 693.744 68.3397 692.962 69.1297 687.447Z" fill="black"/>
<path d="M90.9998 723.928C89.0398 722.805 87.1799 721.22 85.0799 720.809C84.2699 720.649 81.8199 724.068 82.0199 724.319C83.4699 726.124 85.2399 727.899 87.2999 728.841C87.9299 729.132 89.7599 726.816 91.0399 725.693C91.0299 725.101 91.0198 724.519 90.9998 723.938V723.928Z" fill="black"/>
<path d="M93.4998 359.729C95.5798 361.524 96.8897 362.888 98.4497 363.821C98.7497 364.001 100.03 362.547 100.86 361.845C99.5799 360.502 98.4197 359.007 96.9497 357.924C96.5997 357.664 95.2398 358.787 93.4998 359.729Z" fill="black"/>
<path d="M86.5598 278.364C85.2298 277.983 83.9098 277.612 82.5798 277.231C82.4298 277.732 82.2699 278.224 82.1199 278.725C83.3999 279.196 84.6797 279.658 85.9597 280.129C86.1597 279.537 86.3598 278.956 86.5598 278.364Z" fill="black"/>
<path d="M101.34 296.384C102.11 297.226 102.88 298.069 103.65 298.901C104.07 298.48 104.49 298.049 104.91 297.628C104.08 296.845 103.24 296.053 102.41 295.271C102.05 295.642 101.7 296.013 101.34 296.384Z" fill="black"/>
<path d="M45.8399 739.671C45.6999 740.173 45.5299 740.494 45.5599 740.794C45.5799 740.955 46.0197 741.226 46.1497 741.176C46.4297 741.045 46.6399 740.744 46.8699 740.514C46.5899 740.283 46.2999 740.052 45.8399 739.671Z" fill="black"/>
<path d="M273.06 944.198C272.05 945.271 271.37 946.013 270.68 946.745C271.89 947.798 273 949.472 274.35 949.693C275.34 949.853 276.65 948.129 277.82 947.236C276.38 946.314 274.94 945.391 273.06 944.198Z" fill="black"/>
<path d="M308.26 924.684C309.52 923.671 310.38 922.989 311.24 922.297C310.19 921.425 309.11 919.83 308.1 919.87C306.78 919.921 305.51 921.274 304.22 922.066C305.44 922.859 306.66 923.651 308.25 924.684H308.26Z" fill="black"/>
<path d="M343.24 932.345C344.28 932.225 345.33 932.104 346.37 931.984C346.34 931.593 346.32 931.212 346.29 930.821C345.21 930.821 344.13 930.821 343.04 930.821C343.11 931.322 343.17 931.834 343.24 932.335V932.345Z" fill="black"/>
<path d="M280.33 829.24C279.06 830.423 277.78 831.596 276.51 832.779C278.48 833.742 280.38 835.146 282.44 835.467C283.32 835.607 285.48 833.471 285.44 832.428C285.35 830.022 283.45 829.26 281.08 830.162C280.83 829.851 280.58 829.54 280.33 829.229V829.24Z" fill="black"/>
<path d="M339.51 828.708C340.57 828.397 341.64 828.097 342.7 827.786C342.55 827.314 342.4 826.843 342.25 826.382C341.2 826.743 340.15 827.104 339.1 827.455C339.24 827.876 339.37 828.287 339.51 828.708Z" fill="black"/>
<path d="M300.19 824.948C300.64 824.206 300.94 823.724 301.23 823.233C300.83 823.002 300.3 822.481 300.05 822.591C299.58 822.802 299.19 823.333 298.97 823.825C298.91 823.955 299.59 824.416 300.18 824.958L300.19 824.948Z" fill="black"/>
<path d="M192.17 493.349C207.29 493.52 222.41 493.881 237.52 493.981C249.25 494.061 260.98 493.74 272.71 493.8C295.22 493.911 317.73 494.131 340.24 494.342C349.43 494.432 349.53 494.472 349.58 503.908C349.66 520.625 349.48 537.331 349.61 554.047C349.77 574.494 350.12 594.93 350.42 615.377C350.61 628.112 351.03 640.848 351.04 653.583C351.04 663.4 350.74 673.217 350.21 683.014C350.05 686.003 350.43 689.482 344.86 689.412C326.91 689.171 308.95 689.783 290.99 689.944C278.1 690.054 265.22 689.964 252.33 689.974C244.79 689.974 237.25 689.974 229.71 690.014C216.37 690.104 203.03 690.264 189.69 690.315C187.57 690.315 185.44 689.903 182.79 689.623C183.65 687.898 184.13 686.935 184.62 685.973C183.25 684.298 182.55 682.663 182.55 681.029C182.55 670.811 182.8 660.582 182.82 650.364C182.87 626.749 182.79 603.133 182.84 579.528C182.89 556.765 183 534.002 183.16 511.239C183.21 504.681 183.53 498.112 183.73 491.554C184.03 491.514 184.33 491.484 184.63 491.444C185.33 492.326 186.04 493.199 186.71 494.041C188.82 493.76 190.51 493.319 192.19 493.339L192.17 493.349ZM187.24 496.989C187.24 560.475 187.24 623.299 187.24 686.755C240.34 686.755 292.41 686.755 345.15 686.755C345.15 623.49 345.15 560.194 345.15 496.989C292.58 496.989 239.62 496.989 187.24 496.989Z" fill="black"/>
<path d="M182.82 179.199C182.82 172.561 183.2 165.892 182.66 159.294C182.39 155.935 183.97 155.183 186.26 154.982C191.22 154.551 196.2 154.3 201.18 154.3C209.34 154.3 217.51 154.711 225.67 154.711C239.78 154.711 253.9 154.401 268.01 154.441C282.33 154.481 296.66 154.772 310.98 154.972C324.03 155.153 337.08 155.343 350.13 155.564C352.83 155.614 354.49 156.516 354.53 159.826C354.81 179.33 355.42 198.834 355.66 218.338C356.02 248.2 356.23 278.073 356.38 307.946C356.43 317.081 355.96 326.216 355.95 335.342C355.95 351.877 356.12 368.413 356.19 384.949C356.2 388.178 356.31 391.648 351.31 389.101C350.94 388.91 350.3 389.301 349.78 389.341C345.72 389.682 341.66 390.284 337.6 390.284C319.81 390.244 302.02 389.923 284.23 389.903C270.55 389.883 256.87 390.314 243.2 390.244C223.9 390.133 204.59 389.792 185.29 389.351C183.87 389.321 181.29 387.727 181.26 386.794C180.94 377.859 181.07 368.915 181.05 359.97C181.02 344.607 180.91 329.255 180.99 313.892C181.07 298.6 181.46 283.308 181.5 268.015C181.59 238.413 181.52 208.811 181.52 179.209C181.95 179.209 182.38 179.209 182.81 179.209L182.82 179.199ZM187.49 160.858C187.96 235.716 188.44 310.262 188.91 385.069C241.77 385.069 295.42 385.069 349.27 385.069C349.68 310.423 350.1 235.445 350.51 160.858C295.92 160.858 241.58 160.858 187.49 160.858Z" fill="black"/>
</svg>
