<svg width="433" height="1080" viewBox="0 0 433 1080" fill="none" xmlns="http://www.w3.org/2000/svg">
<path d="M337.271 110.321C340.181 110.321 343.081 110.321 345.991 110.321C345.991 118.101 345.991 125.891 345.991 133.771H406.59V110.321C407.91 110.321 409.23 110.321 410.55 110.321C410.82 112.411 411.29 114.491 411.32 116.581C411.64 139.871 411.991 163.161 412.131 186.451C412.461 245.051 412.741 303.651 412.931 362.251C413.041 398.071 412.951 433.891 412.951 469.721C412.951 475.541 413 481.351 413.01 487.171C413.03 499.241 412.96 511.311 413.07 523.381C413.13 529.971 413.6 536.571 413.61 543.161C413.61 548.041 412.97 552.931 413.01 557.821C413.06 564.421 413.651 571.011 413.711 577.611C413.831 589.611 413.751 601.621 413.751 613.631V970.261H404.191V960.931H387.461V970.261H377.461C377.061 967.181 378.701 964.101 378.271 960.701H373.86C360.34 960.701 346.82 960.751 333.3 960.671C329.5 960.651 325.711 960.161 321.911 959.991C319.721 959.891 317.991 960.441 318.131 963.251C318.251 965.581 318.151 967.921 318.151 970.261H310.981C310.981 968.541 310.85 966.821 311.01 965.111C311.28 962.311 310.56 960.471 307.34 960.481C299.11 960.501 290.88 960.481 282.3 960.481V970.251H272.741C272.741 852.271 272.721 734.291 272.771 616.311C272.771 606.941 273.411 597.561 273.471 588.191C273.511 582.631 272.761 577.061 272.791 571.491C272.841 563.131 273.361 554.781 273.501 546.431C273.631 538.611 273.53 530.781 273.53 522.961C273.53 508.561 273.53 494.151 273.53 479.751C273.53 434.831 273.51 389.921 273.59 345.001C273.6 338.191 274.29 331.371 274.3 324.561C274.37 279.681 274.301 234.801 274.371 189.911C274.391 180.851 274.94 171.791 275.11 162.731C275.44 145.271 275.661 127.801 275.931 110.341C276.721 110.341 277.501 110.341 278.291 110.341C278.761 111.191 279.611 112.021 279.641 112.891C279.831 117.831 279.841 122.791 279.901 127.731C279.921 129.781 279.901 131.841 279.901 133.841H337.291V110.331L337.271 110.321ZM405.211 365.181V318.611H342.221V365.181H405.211ZM376.271 377.141C374.811 377.071 373.781 376.951 372.751 376.971C363.921 377.131 355.09 377.461 346.26 377.451C336.47 377.451 326.691 377.081 316.901 377.061C316.011 377.061 314.341 378.421 314.351 379.131C314.391 386.601 314.721 394.061 314.941 401.531C314.991 403.121 314.901 404.711 314.901 406.301C314.901 412.341 314.901 418.371 314.901 424.051H376.291V377.131L376.271 377.141ZM282.61 901.761V949.371C283.59 949.441 284.251 949.541 284.901 949.521C292.551 949.311 300.21 948.871 307.86 948.901C318.3 948.931 328.731 949.321 339.171 949.521C341.711 949.571 343.011 948.461 342.871 945.661C342.681 942.091 342.76 938.501 342.84 934.911C343.06 925.271 343.491 915.631 343.421 905.991C343.411 904.571 341.131 901.951 339.871 901.941C320.901 901.681 301.92 901.761 282.61 901.761ZM376.28 773.811C376.28 758.931 376.28 744.891 376.28 730.861C376.28 728.231 374.98 727.281 372.28 727.301C358.22 727.411 344.16 727.351 330.09 727.351H315.241V773.811H376.28ZM405.901 248.751V202.341H346.291C346.211 202.661 346.05 203.041 346.05 203.411C346.03 217.611 346.071 231.811 345.971 246.001C345.951 249.351 348.011 249.551 350.391 249.531C355.501 249.481 360.621 249.391 365.731 249.291C373.661 249.121 381.58 248.891 389.51 248.761C394.72 248.681 399.931 248.741 405.901 248.741V248.751ZM346.351 482.151H404.751V435.671H346.351V482.151ZM318.001 190.811H376.691V144.031H318.001V190.811ZM282.601 784.911V832.081H340.041V784.911H282.601ZM281.481 551.591V569.971C281.481 578.211 281.631 586.461 281.411 594.691C281.321 598.201 282.461 599.261 285.951 599.211C299.371 599.041 312.791 599.141 326.221 599.141H338.931V551.591H281.491H281.481ZM375.03 844.021H318.661V890.591H375.03V844.021ZM337.32 249.161C337.12 244.991 336.801 240.791 336.751 236.581C336.631 226.521 336.351 216.451 336.721 206.411C336.881 201.891 337.411 201.781 332.701 201.771C316.651 201.761 300.6 201.771 284.55 201.771C283.39 201.771 282.231 201.901 280.681 202.001V249.151H337.331L337.32 249.161ZM338.391 668.701H282.191V716.181C298.391 716.181 313.911 716.201 329.441 716.161C331.111 716.161 332.811 715.511 334.441 715.691C337.171 715.981 339.001 714.691 338.811 712.051C338.581 708.851 338.121 705.661 337.941 702.461C337.651 697.091 337.271 691.701 337.351 686.331C337.431 680.601 338.001 674.881 338.391 668.721V668.701ZM314.76 610.901V657.351H370.941V610.901H314.76ZM404.78 551.961H348.8V599.121C352.88 598.861 356.83 598.431 360.78 598.381C367.84 598.281 374.911 598.331 381.971 598.451C385.951 598.521 389.921 599.011 393.901 599.001C397.041 599.001 400.201 598.671 403.291 598.131C403.991 598.011 404.841 596.411 404.891 595.461C405.051 592.601 404.791 589.731 404.791 586.861C404.771 575.531 404.791 564.201 404.791 551.971L404.78 551.961ZM311.811 541.001C322.971 541.001 334.481 541.021 346.001 540.971C347.411 540.971 348.821 540.361 350.231 540.391C355.141 540.511 360.041 540.861 364.951 540.971C367.301 541.021 368.431 539.861 368.381 537.271C368.251 529.581 368.331 521.891 368.331 514.211V493.841H311.811V541.011V541.001ZM347.53 715.451H403.78C404.17 707.051 404.62 699.411 404.86 691.771C405.03 686.161 404.881 680.541 404.951 674.921C405.001 670.341 403.751 668.461 400.101 668.451C384.031 668.401 367.971 668.471 351.901 668.391C348.891 668.381 348.441 670.031 348.471 672.431C348.521 676.231 348.371 680.021 348.471 683.821C348.561 687.011 348.981 690.201 349.101 693.391C349.171 695.361 349.011 697.341 348.851 699.311C348.421 704.781 347.951 710.241 347.521 715.461L347.53 715.451ZM373.101 260.701H369.141C357.061 260.701 344.991 260.701 332.911 260.701C330.921 260.701 328.931 260.631 326.941 260.631C323.801 260.621 320.651 260.631 317.601 260.631V307.591C329.971 307.591 342.061 307.611 354.151 307.581C359.431 307.561 364.731 307.141 369.981 307.461C372.501 307.611 373.081 306.811 373.081 304.741C373.091 299.791 373.081 294.841 373.081 289.891C373.081 280.391 373.081 270.901 373.081 260.711L373.101 260.701ZM404.181 831.971V827.291C404.181 814.821 404.181 802.341 404.181 789.871C404.181 784.841 404.071 784.701 399.041 784.701C383.371 784.681 367.711 784.691 352.041 784.701C350.901 784.701 349.76 784.841 348.8 784.911V831.971H404.171H404.181ZM281.701 482.281H335.371V435.321H281.701V482.281ZM281.241 365.811C297.251 365.811 312.391 365.741 327.521 365.861C331.211 365.891 332.591 364.731 332.561 360.841C332.501 352.801 333.061 344.751 333.231 336.711C333.351 330.591 333.251 324.471 333.251 318.381H281.231V365.811H281.241ZM353.271 901.731C353.271 908.211 353.241 914.171 353.271 920.141C353.301 924.321 353.461 928.491 353.481 932.671C353.491 936.841 353.641 941.041 353.271 945.181C352.971 948.471 354.191 949.901 357.501 949.411C359.251 949.151 361.071 949.201 362.851 949.221C365.571 949.261 368.3 949.541 371.01 949.481C377.81 949.311 384.611 948.951 391.421 948.781C395.531 948.671 399.651 948.761 403.961 948.761V901.901C387.181 901.601 370.45 901.861 353.26 901.751L353.271 901.731ZM280.461 191.401C289.541 191.401 297.711 191.501 305.881 191.271C306.801 191.241 308.381 189.411 308.451 188.351C308.931 180.581 309.19 172.791 309.34 165.001C309.47 158.311 309.371 151.611 309.371 143.691C299.951 143.581 290.031 143.641 280.471 143.661V191.401H280.461ZM310.251 891.621V843.961H282.211V891.621H310.251ZM281.001 259.901V308.611C290.091 308.191 298.841 307.791 307.631 307.391C307.911 301.051 308.301 295.101 308.401 289.151C308.531 280.761 308.431 272.371 308.471 263.971C308.471 261.851 308.451 259.891 305.541 259.891C297.471 259.901 289.391 259.891 281.001 259.891V259.901ZM305.661 726.891H282.191V775.361C290.591 774.911 298.291 774.501 305.661 774.101V726.891ZM380.851 494.151V540.481H404.641V494.151H380.851ZM381.651 260.921V307.131H405.55V260.921H381.651ZM380.951 610.911V657.481H404.381V610.911H380.951ZM406.03 190.831V144.021H384.521V190.831H406.03ZM302.59 424.591V377.181H281.461V425.781C288.891 425.361 295.6 424.981 302.59 424.581V424.591ZM282.151 610.521V659.091C289.151 658.711 295.441 658.451 301.721 657.931C302.441 657.871 303.56 656.441 303.61 655.601C303.81 651.911 303.671 648.201 303.671 644.491C303.671 635.701 303.701 626.901 303.711 618.111C303.711 615.581 303.711 613.051 303.711 610.511H282.141L282.151 610.521ZM281.691 542.021C288.881 541.601 295.851 541.201 302.791 540.801C299.831 524.791 302.421 509.051 301.081 493.461H281.691V542.021ZM404.181 844.281H384.03V890.781C389.12 890.781 394.511 890.131 399.641 890.991C403.681 891.661 404.251 890.481 404.211 887.131C404.111 879.011 404.181 870.901 404.181 862.781V844.281ZM404.251 773.811V727.571H383.671C384.121 743.001 384.571 758.171 385.021 773.811H404.251ZM405.11 377.691H385.451V424.151H405.11V377.691Z" fill="#FCEEE3"/>
<path d="M275.911 110.321C275.641 127.781 275.411 145.251 275.091 162.711C274.921 171.771 274.361 180.831 274.351 189.891C274.271 234.771 274.35 279.651 274.28 324.541C274.27 331.351 273.591 338.171 273.571 344.981C273.501 389.901 273.52 434.811 273.51 479.731C273.51 494.131 273.51 508.541 273.51 522.941C273.51 530.761 273.611 538.591 273.481 546.411C273.341 554.771 272.821 563.121 272.771 571.471C272.741 577.041 273.491 582.611 273.451 588.171C273.391 597.551 272.751 606.921 272.751 616.291C272.701 734.271 272.721 852.251 272.721 970.231H263.961C263.951 961.971 264.011 953.711 263.901 945.451C263.841 940.831 263.431 936.211 263.331 931.581C263.261 928.291 263.481 925.001 263.481 921.711C263.481 918.621 263.361 915.531 263.311 912.441C263.251 908.731 263.181 905.021 263.161 901.311C263.141 895.021 263.161 888.731 263.161 882.451V855.761C263.161 766.381 263.181 676.991 263.131 587.611C263.131 578.631 262.521 569.651 262.441 560.671C262.401 555.941 263.121 551.211 263.111 546.481C263.091 540.821 262.411 535.161 262.451 529.511C262.531 518.831 263.031 508.151 263.121 497.471C263.161 492.611 262.391 487.741 262.431 482.881C262.521 472.421 262.941 461.951 263.111 451.491C263.141 449.431 262.421 447.371 262.411 445.311C262.351 428.461 262.461 411.601 262.361 394.751C262.151 358.981 261.801 323.221 261.641 287.451C261.601 278.221 262.251 269.001 262.241 259.771C262.241 250.281 261.641 240.791 261.611 231.311C261.521 202.781 261.581 174.251 261.581 145.711V110.321C265.961 110.321 270.941 110.321 275.931 110.321H275.911Z" fill="#EFB445"/>
<path d="M413.741 970.241V613.611C413.741 601.601 413.831 589.601 413.701 577.591C413.631 570.991 413.05 564.401 413 557.801C412.96 552.921 413.611 548.031 413.601 543.141C413.591 536.551 413.111 529.961 413.061 523.361C412.961 511.291 413.02 499.221 413 487.151C413 481.331 412.94 475.521 412.94 469.701C412.94 433.881 413.03 398.061 412.92 362.231C412.73 303.631 412.451 245.031 412.121 186.431C411.991 163.141 411.631 139.851 411.311 116.561C411.281 114.471 410.811 112.391 410.541 110.301C415.431 110.301 420.321 110.301 425.661 110.301C425.661 116.951 425.76 123.561 425.63 130.171C425.51 136.431 424.93 142.691 424.92 148.951C424.85 183.321 424.931 217.681 424.851 252.051C424.831 260.041 424.151 268.021 424.161 276.011C424.161 284.511 424.681 293.011 424.831 301.521C424.871 303.571 424.13 305.621 424.13 307.671C424.09 353.451 424.101 399.231 424.101 445.011C424.101 454.301 424.101 463.601 424.101 472.891C424.101 479.371 424.191 485.851 424.081 492.331C423.891 503.001 423.511 513.671 423.331 524.341C423.211 531.331 423.241 538.321 423.331 545.321C423.401 551.341 423.76 557.361 423.78 563.391C423.8 567.801 423.331 572.221 423.331 576.631C423.301 657.301 423.311 737.971 423.311 818.641V872.421C423.311 881.571 423.41 890.721 423.28 899.871C423.18 906.941 422.611 914.021 422.581 921.091C422.551 928.051 423.111 935.011 423.121 941.971C423.121 949.431 423.451 956.801 423.271 964.251C423.221 966.221 422.991 968.271 422.971 970.251H413.76L413.741 970.241Z" fill="#FBECD1"/>
<path d="M318.13 970.241C318.13 967.901 318.22 965.561 318.11 963.231C317.97 960.421 319.701 959.871 321.891 959.971C325.691 960.141 329.49 960.631 333.28 960.651C346.8 960.741 360.32 960.681 373.84 960.681H375.541C375.981 964.071 374.86 967.841 375.26 970.921C354.81 970.921 338.58 970.231 318.13 970.231V970.241Z" fill="#E89163"/>
<path d="M282.271 970.241V960.471C290.851 960.471 299.081 960.481 307.311 960.471C310.531 960.471 311.25 962.301 310.98 965.101C310.82 966.801 310.951 968.531 310.951 970.251H282.271V970.241Z" fill="#E89163"/>
<path d="M383.73 970.241V960.911H404.181C404.181 964.031 404.701 967.141 404.701 970.241H383.73Z" fill="#E89163"/>
<path d="M254.811 884.311C249.711 883.751 244.691 882.781 239.661 882.711C224.661 882.501 209.651 882.711 194.651 882.621C158.921 882.401 123.201 882.101 87.4709 881.851C81.0609 881.801 74.6506 881.841 68.2306 881.841C49.4106 881.841 30.5805 881.841 11.3805 881.841V877.761C11.3805 860.901 11.3006 844.051 11.4206 827.191C11.4806 818.781 12.0206 810.371 12.1506 801.951C12.2806 793.471 12.1106 784.991 12.1906 776.511C12.3506 760.521 12.7904 744.541 12.7604 728.551C12.7104 700.891 12.3406 673.231 12.1906 645.571C12.1006 629.261 12.2608 612.951 12.1408 596.641C12.0708 587.311 11.6108 577.971 11.4308 568.641C11.4008 566.991 12.1508 565.341 12.1408 563.691C11.9308 539.751 11.6405 515.821 11.3805 491.891C11.1105 467.831 10.7305 443.771 10.6105 419.711C10.2805 352.651 10.0704 285.581 9.76042 218.511C9.73042 213.021 9.11046 207.531 9.05046 202.041C9.02046 198.411 9.58066 194.781 9.75066 191.141C9.87066 188.641 9.83064 186.131 9.73064 183.631C9.54064 179.101 9.06069 174.571 9.04069 170.031C9.03069 165.791 9.47089 161.551 9.74089 156.841C19.0309 157.761 27.8406 158.641 36.6506 159.501C37.1806 159.551 37.7109 159.571 38.2409 159.551C44.9009 159.291 51.5706 158.931 58.2306 158.811C60.5406 158.771 62.8706 159.551 65.1906 159.511C72.1406 159.381 79.0804 158.821 86.0304 158.821C93.0804 158.821 100.131 159.491 107.181 159.491C114.531 159.491 121.871 158.931 129.221 158.841C132.721 158.801 136.221 159.501 139.721 159.491C145.111 159.491 150.491 159.101 155.881 159.011C157.771 158.981 159.671 159.521 161.561 159.531C173.251 159.581 184.931 159.561 196.621 159.561H223.28C231.74 159.561 240.191 159.621 248.651 159.521C251.231 159.491 253.801 159.011 256.751 158.701C256.111 400.511 255.471 642.151 254.831 884.311H254.811ZM68.7009 620.671C68.9909 619.911 69.2807 619.141 69.5807 618.381C70.8507 618.281 72.1104 618.181 73.5304 618.061C73.5304 612.011 73.5504 606.191 73.5304 600.361C73.5204 597.181 73.3906 594.011 73.4006 590.831C73.4206 584.871 73.4605 578.911 73.6105 572.951C73.6305 572.321 74.4506 571.711 74.9006 571.101C80.1906 563.951 81.2306 559.371 76.4406 551.591C73.9106 547.471 73.5404 543.771 73.5304 539.531C73.5104 530.771 73.5304 522.021 73.5304 513.261V500.061C71.3604 499.561 68.5606 498.451 65.7106 498.361C60.6106 498.191 55.4808 498.551 50.3708 498.861C49.3208 498.921 48.1905 499.521 47.3005 500.171C44.2905 502.361 44.1405 505.781 44.0905 509.011C43.9505 517.231 44.1709 525.461 43.9709 533.681C43.9009 536.291 43.3607 539.071 42.2707 541.431C41.1607 543.831 38.7907 545.631 37.5607 548.001C34.7707 553.381 32.0605 559.061 34.6105 565.211C35.7205 567.911 38.2204 570.021 40.0304 572.451C41.1504 573.961 42.7404 575.461 43.0304 577.141C43.4104 579.341 42.5409 581.731 42.4909 584.041C42.1909 596.431 41.9307 608.821 41.8307 621.211C41.8307 622.081 43.0506 623.491 43.9606 623.751C51.3606 625.891 58.8107 623.961 66.2507 623.751C67.6907 623.711 69.3209 622.851 68.7009 620.681V620.671ZM146.3 318.031C147.5 318.031 148.051 317.941 148.561 318.041C153.291 319.011 159.37 313.971 161.03 308.671C162.83 302.921 159.541 297.291 154.931 294.861C149.361 291.931 143.691 291.741 137.871 295.311C132.351 298.701 129.98 305.241 133.03 311.021C136.02 316.691 140.84 318.631 146.3 318.021V318.031Z" fill="white"/>
<path d="M406.59 110.321V133.771H345.991C345.991 125.891 345.991 118.101 345.991 110.321C366.191 110.321 386.39 110.321 406.59 110.321Z" fill="#E89163"/>
<path d="M337.271 110.321V133.831H279.88C279.88 131.821 279.9 129.771 279.88 127.721C279.82 122.771 279.811 117.821 279.621 112.881C279.591 112.011 278.741 111.181 278.271 110.331C297.941 110.331 317.611 110.331 337.271 110.331V110.321Z" fill="#E89163"/>
<path d="M405.21 365.181H342.221V318.611H405.21V365.181Z" fill="#E89163"/>
<path d="M376.271 377.141V424.061H314.88C314.88 418.381 314.88 412.341 314.88 406.311C314.88 404.721 314.97 403.131 314.92 401.541C314.7 394.071 314.381 386.611 314.331 379.141C314.331 378.421 315.99 377.061 316.88 377.071C326.67 377.091 336.451 377.451 346.241 377.461C355.071 377.461 363.9 377.141 372.73 376.981C373.76 376.961 374.8 377.081 376.25 377.151L376.271 377.141Z" fill="#E89163"/>
<path d="M282.61 901.761C301.92 901.761 320.901 901.681 339.871 901.941C341.131 901.961 343.41 904.571 343.42 905.991C343.49 915.631 343.06 925.271 342.84 934.911C342.76 938.491 342.681 942.081 342.871 945.661C343.021 948.461 341.72 949.571 339.17 949.521C328.73 949.321 318.3 948.931 307.86 948.901C300.21 948.881 292.55 949.311 284.9 949.521C284.25 949.541 283.59 949.441 282.61 949.371V901.761Z" fill="#E89163"/>
<path d="M376.28 773.811H315.241V727.351H330.09C344.15 727.351 358.21 727.411 372.28 727.301C374.98 727.281 376.28 728.231 376.28 730.861C376.3 744.901 376.28 758.931 376.28 773.811Z" fill="#E89163"/>
<path d="M405.901 248.751C399.931 248.751 394.72 248.681 389.51 248.771C381.58 248.891 373.661 249.131 365.731 249.301C360.621 249.411 355.501 249.491 350.391 249.541C348.011 249.561 345.951 249.361 345.971 246.011C346.071 231.811 346.02 217.621 346.05 203.421C346.05 203.041 346.211 202.671 346.291 202.351H405.901V248.761V248.751Z" fill="#E89163"/>
<path d="M346.351 482.151V435.671H404.75V482.151H346.351Z" fill="#E89163"/>
<path d="M318 190.811V144.031H376.69V190.811H318Z" fill="#E89163"/>
<path d="M282.601 784.911H340.041V832.081H282.601V784.911Z" fill="#E89163"/>
<path d="M281.48 551.591H338.92V599.141H326.21C312.79 599.141 299.36 599.041 285.94 599.211C282.45 599.261 281.31 598.191 281.4 594.691C281.62 586.451 281.471 578.211 281.471 569.971V551.591H281.48Z" fill="#E89163"/>
<path d="M375.03 844.021V890.591H318.661V844.021H375.03Z" fill="#E89163"/>
<path d="M337.32 249.161H280.67V202.011C282.23 201.921 283.391 201.781 284.541 201.781C300.591 201.771 316.64 201.761 332.69 201.781C337.4 201.781 336.87 201.891 336.71 206.421C336.35 216.471 336.621 226.541 336.741 236.591C336.791 240.791 337.111 245.001 337.311 249.171L337.32 249.161Z" fill="#E89163"/>
<path d="M338.391 668.701C338.011 674.871 337.441 680.591 337.351 686.311C337.271 691.681 337.64 697.071 337.94 702.441C338.12 705.641 338.571 708.831 338.811 712.031C339.001 714.671 337.18 715.961 334.44 715.671C332.81 715.501 331.11 716.141 329.44 716.141C313.92 716.181 298.39 716.161 282.19 716.161V668.681H338.391V668.701Z" fill="#E89163"/>
<path d="M314.76 610.901H370.94V657.351H314.76V610.901Z" fill="#E89163"/>
<path d="M404.78 551.961C404.78 564.191 404.77 575.521 404.78 586.851C404.78 589.721 405.04 592.601 404.88 595.451C404.83 596.411 403.97 598.001 403.28 598.121C400.19 598.661 397.031 598.981 393.891 598.991C389.921 598.991 385.94 598.511 381.96 598.441C374.9 598.321 367.831 598.271 360.771 598.371C356.821 598.431 352.871 598.851 348.791 599.111V551.951H404.771L404.78 551.961Z" fill="#E89163"/>
<path d="M311.811 541.001V493.831H368.331V514.201C368.331 521.891 368.24 529.581 368.38 537.261C368.43 539.851 367.301 541.011 364.951 540.961C360.041 540.851 355.14 540.501 350.23 540.381C348.83 540.351 347.41 540.951 346 540.961C334.48 541.011 322.971 540.991 311.811 540.991V541.001Z" fill="#E89163"/>
<path d="M347.53 715.451C347.96 710.231 348.44 704.771 348.86 699.301C349.01 697.331 349.18 695.351 349.11 693.381C348.99 690.191 348.57 687.001 348.48 683.811C348.37 680.021 348.52 676.221 348.48 672.421C348.45 670.021 348.901 668.371 351.911 668.381C367.981 668.451 384.04 668.381 400.11 668.441C403.76 668.451 405.01 670.331 404.96 674.911C404.9 680.531 405.041 686.151 404.871 691.761C404.641 699.411 404.191 707.041 403.791 715.441H347.541L347.53 715.451Z" fill="#E89163"/>
<path d="M373.101 260.701C373.101 270.881 373.101 280.381 373.101 289.881C373.101 294.831 373.101 299.781 373.101 304.731C373.101 306.791 372.52 307.601 370 307.451C364.74 307.131 359.45 307.551 354.17 307.571C342.08 307.611 329.991 307.581 317.621 307.581V260.621C320.671 260.621 323.82 260.621 326.96 260.621C328.95 260.621 330.941 260.691 332.931 260.691C345.011 260.691 357.081 260.691 369.161 260.691H373.121L373.101 260.701Z" fill="#E89163"/>
<path d="M404.181 831.971H348.811V784.911C349.761 784.851 350.91 784.711 352.05 784.701C367.72 784.691 383.38 784.681 399.05 784.701C404.07 784.701 404.18 784.841 404.19 789.871C404.19 802.341 404.19 814.821 404.19 827.291V831.971H404.181Z" fill="#E89163"/>
<path d="M281.701 482.281V435.321H335.371V482.281H281.701Z" fill="#E89163"/>
<path d="M281.241 365.811V318.381H333.26C333.26 324.471 333.361 330.601 333.241 336.711C333.081 344.761 332.51 352.801 332.57 360.841C332.6 364.731 331.22 365.891 327.53 365.861C312.39 365.741 297.26 365.811 281.25 365.811H281.241Z" fill="#E89163"/>
<path d="M353.271 901.731C370.451 901.841 387.181 901.581 403.971 901.881V948.741C399.661 948.741 395.551 948.651 391.431 948.761C384.631 948.941 377.831 949.301 371.021 949.461C368.301 949.531 365.58 949.251 362.86 949.201C361.08 949.171 359.26 949.121 357.51 949.391C354.2 949.891 352.99 948.451 353.28 945.161C353.65 941.021 353.501 936.821 353.491 932.651C353.481 928.471 353.31 924.301 353.28 920.121C353.24 914.161 353.28 908.201 353.28 901.711L353.271 901.731Z" fill="#E89163"/>
<path d="M280.46 191.401V143.661C290.02 143.631 299.94 143.581 309.36 143.691C309.36 151.611 309.461 158.311 309.331 165.001C309.181 172.791 308.92 180.581 308.44 188.351C308.37 189.421 306.791 191.251 305.871 191.271C297.701 191.501 289.531 191.401 280.451 191.401H280.46Z" fill="#E89163"/>
<path d="M310.25 891.621H282.21V843.961H310.25V891.621Z" fill="#E89163"/>
<path d="M281 259.901C289.39 259.901 297.471 259.901 305.541 259.901C308.451 259.901 308.481 261.861 308.471 263.981C308.431 272.371 308.54 280.771 308.4 289.161C308.3 295.121 307.91 301.071 307.63 307.401C298.83 307.801 290.08 308.211 281 308.621V259.911V259.901Z" fill="#E89163"/>
<path d="M305.661 726.891V774.101C298.291 774.491 290.6 774.911 282.19 775.361V726.891H305.661Z" fill="#E89163"/>
<path d="M380.851 494.151H404.641V540.481H380.851V494.151Z" fill="#E89163"/>
<path d="M381.65 260.921H405.55V307.131H381.65V260.921Z" fill="#E89163"/>
<path d="M380.951 610.911H404.38V657.481H380.951V610.911Z" fill="#E89163"/>
<path d="M406.03 190.831H384.521V144.021H406.03V190.831Z" fill="#E89163"/>
<path d="M302.59 424.591C295.6 424.991 288.9 425.361 281.46 425.791V377.191H302.59V424.601V424.591Z" fill="#E89163"/>
<path d="M282.15 610.521H303.721C303.721 613.051 303.721 615.581 303.721 618.121C303.711 626.911 303.691 635.711 303.681 644.501C303.681 648.201 303.821 651.921 303.621 655.611C303.571 656.451 302.45 657.881 301.73 657.941C295.45 658.461 289.151 658.721 282.161 659.101V610.531L282.15 610.521Z" fill="#E89163"/>
<path d="M281.69 542.021V493.461H301.081C302.431 509.051 299.841 524.781 302.791 540.801C295.851 541.201 288.88 541.601 281.69 542.021Z" fill="#E89163"/>
<path d="M404.181 844.281V862.781C404.181 870.901 404.11 879.011 404.21 887.131C404.25 890.491 403.681 891.661 399.641 890.991C394.511 890.141 389.13 890.781 384.03 890.781V844.281H404.181Z" fill="#E89163"/>
<path d="M404.25 773.811H385.021C384.561 758.181 384.12 743.001 383.67 727.571H404.25V773.811Z" fill="#E89163"/>
<path d="M405.11 377.691V424.151H385.451V377.691H405.11Z" fill="#E89163"/>
<path d="M69.5705 618.381C69.2805 619.141 68.9906 619.911 68.6906 620.671C61.9406 619.531 55.2006 618.381 48.1706 617.191V578.671C49.4206 578.481 50.5505 578.321 51.3205 578.201C48.4105 575.551 45.9008 572.391 42.6608 570.531C38.7808 568.311 38.7108 565.151 38.4108 561.531C37.9708 556.141 41.6304 552.681 44.0304 548.651C48.2904 541.491 52.4606 541.341 60.4606 544.071C67.6906 546.531 71.2307 552.411 74.5407 558.431C77.3007 563.451 75.9806 567.111 71.9006 571.031C66.6206 576.111 61.0606 580.011 52.2306 578.021C58.5206 581.901 63.4306 578.921 68.2506 577.311C68.5306 578.061 68.7106 578.311 68.7106 578.551C68.7306 590.491 68.7107 602.441 68.7907 614.381C68.7907 615.711 69.3107 617.041 69.5807 618.381H69.5705ZM60.7707 600.681C60.7707 598.031 61.1008 595.321 60.6408 592.761C60.4008 591.401 58.7707 590.301 57.7707 589.081C57.1707 590.061 56.4406 590.981 55.9806 592.021C53.5406 597.441 54.4905 602.901 56.1105 608.271C56.3705 609.141 57.8505 610.031 58.8405 610.131C59.4105 610.191 60.5906 608.711 60.6906 607.831C60.9506 605.481 60.7804 603.071 60.7804 600.691L60.7707 600.681Z" fill="#9FD1CF"/>
<path d="M47.1206 503.601C53.2906 503.601 59.7306 503.491 66.1606 503.721C67.0506 503.751 68.6204 505.411 68.6304 506.331C68.8104 516.781 68.7407 527.231 68.7407 537.681C68.7407 538.721 68.7407 539.751 68.7407 541.551C61.9007 537.771 55.5806 533.752 47.1206 536.842V503.591V503.601Z" fill="#9FD1CF"/>
<path d="M147.371 316.441C141.321 316.461 137.42 312.881 137.23 307.491C137.02 301.811 142.041 294.901 145.951 295.251C154.911 296.061 159.56 298.741 159.44 305.861C159.35 311.201 155.451 316.411 147.371 316.441ZM148.471 313.021C150.851 310.401 153.561 308.631 154.351 306.241C155.291 303.401 150.6 298.741 147.67 298.631C145.39 298.551 140.281 305.201 141.501 307.771C142.471 309.831 145.52 310.911 148.48 313.021H148.471Z" fill="#9FD1CF"/>
<path d="M148.241 311.651C146.011 309.661 143.68 308.231 143.88 307.641C144.46 305.901 146.041 304.481 147.221 302.941C148.421 304.191 150.14 305.271 150.62 306.761C150.94 307.741 149.461 309.291 148.241 311.651Z" fill="#016FB3"/>
<path d="M271.92 970.241C272.03 963.531 272.171 956.821 272.241 950.121C272.361 939.491 272.48 928.871 272.51 918.241C272.53 913.281 272.281 908.321 272.271 903.361C272.261 896.251 272.35 889.141 272.4 882.031C272.47 871.791 272.601 861.561 272.621 851.321C272.661 837.301 272.661 823.291 272.601 809.271C272.561 800.731 272.27 792.201 272.28 783.671C272.29 771.311 272.541 758.951 272.581 746.591C272.611 736.941 272.471 727.281 272.431 717.631C272.391 708.011 272.361 698.401 272.391 688.781C272.431 675.541 272.581 662.311 272.621 649.071C272.681 624.161 272.7 599.261 272.71 574.351C272.74 539.201 272.701 504.041 272.791 468.891C272.841 448.501 273.17 428.111 273.25 407.721C273.41 367.851 273.47 327.981 273.61 288.111C273.64 278.461 273.901 268.821 273.951 259.171C274.071 239.541 274.12 219.901 274.21 200.271C274.3 180.651 274.37 161.021 274.53 141.401C274.61 132.031 274.9 122.651 275.11 113.281C275.13 112.501 275.22 111.731 275.32 110.431C276.81 110.571 278.13 110.701 279.71 110.851V133.481H336.081C336.411 125.971 336.211 117.291 336.561 109.171C338.141 110.921 338.65 111.831 338.75 117.541C338.8 120.171 338.961 122.801 339.121 125.431C339.281 128.061 339.501 130.691 339.721 133.661C340.991 133.551 342.1 133.451 343.71 133.301C343.71 127.421 343.7 121.631 343.71 115.851C343.71 114.391 343.68 112.911 343.94 111.491C344.04 110.921 344.891 110.481 345.391 109.981C345.661 110.111 345.93 110.251 346.21 110.381V133.041C347.4 133.331 348.491 133.831 349.581 133.831C364.451 133.851 379.331 133.801 394.201 133.771C398.131 133.771 402.06 133.771 406.53 133.771V110.421C408.3 110.331 409.561 110.271 411.201 110.191C411.341 115.561 411.54 120.681 411.59 125.801C411.81 147.121 411.971 168.431 412.161 189.751C412.281 202.321 412.491 214.891 412.541 227.451C412.741 273.491 412.871 319.531 413.081 365.571C413.181 386.851 413.511 408.131 413.561 429.411C413.681 482.971 413.69 536.531 413.75 590.101C413.78 619.371 413.8 648.641 413.86 677.911C413.9 696.541 414.05 715.171 414.07 733.801C414.09 748.421 413.951 763.031 413.971 777.651C413.981 786.981 414.211 796.311 414.241 805.641C414.281 819.531 414.271 833.421 414.221 847.311C414.171 859.821 413.95 872.331 413.96 884.841C413.96 894.301 414.32 903.761 414.34 913.221C414.36 922.141 414.011 931.061 414.041 939.981C414.071 950.061 414.21 961.761 414.38 971.841C410.93 971.841 407.95 972.241 404.5 972.241C404.45 970.011 404 965.771 404.03 963.541C404.05 962.191 403.791 961.031 402.241 961.021C397.341 961.011 389.25 961.121 384.23 961.191V970.221H382.431V961.501H378.05V970.221H375.23V961.091H318.891V970.221H316.5C316.45 967.941 316.511 965.651 316.311 963.391C316.221 962.401 315.62 961.451 315.26 960.481C314.88 960.571 314.49 960.651 314.11 960.741V970.231H310.13C310.38 967.151 310.62 964.071 310.9 960.651H282.73C282.56 963.981 282.401 967.101 282.241 970.231H271.88L271.92 970.241ZM310.51 144.621C312.41 152.101 312.141 159.721 312.291 167.281C312.451 175.171 312.331 183.071 312.331 190.831C314.841 191.381 315.55 190.281 315.53 188.561C315.5 185.261 315.291 181.971 315.291 178.671C315.281 168.241 315.29 157.801 315.4 147.371C315.4 146.541 316.16 145.711 316.57 144.881C317.18 145.721 318.28 146.541 318.32 147.411C318.58 151.991 318.67 156.581 318.63 161.161C318.56 170.201 318.351 179.251 318.241 188.291C318.231 189.151 318.551 190.021 318.791 191.291C338.081 191.011 357.19 190.741 376.51 190.461C376.8 174.841 375.66 159.461 376.82 143.881H280.601V191.861C290.101 191.591 299.141 191.341 308.391 191.081C309.541 175.491 307.54 159.961 310.51 144.621ZM404.681 365.271C404.891 364.271 405.041 363.901 405.041 363.521C405.071 349.731 405.04 335.941 405.13 322.151C405.14 319.811 404.37 318.751 401.96 318.721C394.35 318.641 386.741 318.391 379.141 318.351C367.121 318.281 355.09 318.331 342.73 318.331V365.261H404.681V365.271ZM282.32 948.961H342.541C342.681 948.061 342.79 947.681 342.8 947.291C342.83 933.591 342.881 919.891 342.851 906.191C342.851 904.821 342.39 903.461 342.13 902.021C327.66 902.021 313.591 902.011 299.521 902.021C294.801 902.021 290.071 902.201 285.351 902.101C283.111 902.051 282.171 902.891 282.241 905.051C282.271 905.841 282.25 906.641 282.25 907.431C282.27 915.691 282.291 923.961 282.311 932.221C282.311 937.851 282.311 943.471 282.311 948.941L282.32 948.961ZM375.991 423.781V377.521H315.05V424.661C335.12 424.371 355.191 424.081 375.991 423.781ZM375.75 773.391V727.701H315.69V774.251C335.91 773.961 355.8 773.671 375.75 773.391ZM405.65 203.331C401.41 202.071 350.891 201.381 346.371 202.611V248.991H405.65V203.321V203.331ZM312.241 891.331C332.861 891.041 353.661 890.751 374.811 890.451V844.341H319.041C318.981 845.481 318.911 846.261 318.911 847.041C318.911 859.691 318.911 872.341 318.911 885.001C318.911 887.101 318.7 889.131 316.32 891.361C314.34 883.071 315.671 875.291 315.181 867.661C314.671 859.741 315.07 851.751 315.07 843.751C313.22 843.491 312.64 844.361 312.67 846.241C312.77 852.271 312.81 858.301 312.73 864.331C312.63 873.161 312.41 881.981 312.23 891.321L312.241 891.331ZM346.431 482.251H404.11C404.36 480.431 404.73 479.021 404.73 477.611C404.77 468.381 404.73 459.141 404.73 449.911C404.73 446.491 404.781 443.061 404.851 439.641C404.901 437.081 403.83 435.791 401.11 435.781C394.03 435.731 386.95 435.511 379.86 435.421C373.87 435.341 367.89 435.341 361.9 435.331C356.79 435.321 351.681 435.331 346.431 435.331V482.271V482.251ZM339.76 785.151H282.471V831.971H339.76V785.151ZM282.26 551.821V598.701H338.71V551.821H282.26ZM336.331 249.141V202.071H280.851V249.141H336.331ZM338.431 715.791C337.051 699.761 337.61 684.351 337.98 668.871H282.521V715.791H338.431ZM315.101 658.031C333.831 657.731 352.171 657.441 370.911 657.141V610.751H315.101V658.031ZM311.96 540.951C330.49 540.671 349.341 540.401 368.451 540.111V494.391H312.581C312.581 506.101 312.63 517.571 312.55 529.041C312.53 532.791 312.181 536.541 311.951 540.951H311.96ZM348.86 715.401H403.96V668.961C396.08 668.821 388.61 668.621 381.13 668.561C371.62 668.491 362.1 668.551 352.59 668.501C349.62 668.491 349.17 668.881 349.15 671.811C349.06 686.261 348.96 700.701 348.86 715.391V715.401ZM349.141 598.471H404.101C404.251 597.361 404.411 596.721 404.411 596.091C404.381 589.881 404.311 583.671 404.291 577.451C404.271 570.041 404.231 562.621 404.331 555.211C404.361 553.231 403.731 552.201 401.721 552.081C398.431 551.881 395.151 551.511 391.871 551.471C383.401 551.381 374.93 551.441 366.46 551.441C360.85 551.441 355.251 551.441 349.141 551.441V598.461V598.471ZM349.01 784.571V832.321C367.65 831.391 385.841 832.541 404.061 831.441V785.481C385.731 784.091 367.7 785.811 349.01 784.581V784.571ZM373.061 306.761V261.091H317.73V307.531C336.03 307.271 354.461 307.011 373.061 306.751V306.761ZM335.331 435.391C317.101 435.471 299.48 434.881 282.07 435.691V482.321H335.331V435.401V435.391ZM333.57 318.451H281.601V365.271H332.42C332.97 349.391 331.73 334.051 333.57 318.451ZM353.061 948.691H404.201C404.201 944.921 404.231 941.651 404.201 938.381C404.151 934.831 403.95 931.271 403.96 927.721C403.99 920.241 404.11 912.771 404.23 905.291C404.26 903.491 403.45 902.581 401.67 902.471C398.39 902.271 395.1 901.891 391.82 901.871C381.65 901.811 371.49 901.871 361.32 901.891C358.9 901.891 356.491 901.891 353.911 901.891C353.911 907.701 353.911 912.811 353.911 917.921C353.911 922.541 353.87 927.161 353.96 931.771C354.07 937.321 354.931 942.901 353.061 948.671V948.691ZM282.71 843.921C282.56 845.461 282.32 846.751 282.32 848.041C282.31 861.741 282.34 875.441 282.32 889.141C282.32 891.061 282.71 891.971 285.03 891.861C292.3 891.511 299.581 891.471 306.851 891.251C307.961 891.221 309.06 890.871 309.94 890.711V843.931H282.71V843.921ZM281.36 260.501V308.141C290.37 307.861 298.89 307.591 307.73 307.311V260.501H281.36ZM305.21 774.421V727.341H282.271V774.421H305.21ZM381.201 611.141V657.061H404.17V611.141H381.201ZM381.28 494.491V540.021H404.23V494.491H381.28ZM405.15 306.691V261.211H382.081V306.691H405.15ZM302.721 377.461H281.721V424.791H302.721V377.461ZM303.041 657.731V610.651H282.34V658.551C289.43 658.271 296.131 658.001 303.041 657.731ZM384.71 190.671H405.94V144.401H384.71V190.671ZM404.141 844.661H384.15V890.391H404.141V844.661ZM282.13 541.091H301.57V494.011H282.13V541.091ZM385.84 377.921V423.921H404.721V377.921H385.84ZM404.09 773.321V727.881H384.701C383.461 743.291 385.891 758.271 385.101 773.321H404.101H404.09ZM405.61 193.451C404.87 193.721 404.311 194.081 403.741 194.111C398.871 194.281 393.97 194.751 389.13 194.431C384.25 194.101 379.49 195.051 374.57 194.681C365.36 193.981 356.071 194.221 346.811 194.171C341.001 194.141 335.15 194.721 329.38 194.221C323.67 193.731 318.061 194.721 312.331 194.291C302.261 193.541 292.12 193.881 282 193.801C281.65 193.801 281.301 194.091 280.871 194.271V197.431C281.591 197.471 282.091 197.521 282.601 197.531C294.631 197.601 306.661 197.681 318.701 197.721C331.931 197.761 345.17 197.751 358.4 197.771C370.17 197.791 381.941 197.941 393.701 197.811C397.621 197.771 401.54 197.061 405.61 196.651V193.451ZM281.4 313.881C288.04 313.881 294.24 313.861 300.44 313.881C312.22 313.931 324.001 314.041 335.791 314.051C351.011 314.071 366.231 314.101 381.451 313.971C388.571 313.911 395.68 313.441 402.8 313.201C404.9 313.131 405.661 312.331 404.891 310.421H281.4V313.871V313.881ZM404.061 543.771H282.09C282.27 544.951 282.43 545.931 282.59 547.001C284.3 547.101 285.75 547.261 287.19 547.271C297.37 547.311 307.551 547.321 317.721 547.321C330.821 547.321 343.921 547.321 357.021 547.321C367.201 547.321 377.37 547.411 387.55 547.291C392.42 547.231 397.281 546.751 402.161 546.541C403.911 546.471 404.59 545.771 404.07 543.781L404.061 543.771ZM282.621 660.611C281.451 663.861 283.16 664.241 285.51 664.251C297.41 664.251 309.321 664.341 321.221 664.361C332.871 664.381 344.511 664.361 356.161 664.381C366.341 664.391 376.521 664.501 386.701 664.421C391.571 664.381 396.451 664.051 401.311 663.721C402.441 663.641 404.42 664.051 404.05 661.951C403.96 661.431 402.171 660.901 401.161 660.891C396.801 660.861 392.44 661.131 388.09 661.111C372.62 661.071 357.151 660.971 341.681 660.881C330.231 660.811 318.781 660.681 307.331 660.621C299.171 660.581 291.011 660.621 282.621 660.621V660.611ZM282.71 897.361C284.35 897.471 285.78 897.651 287.21 897.651C298.05 897.681 308.89 897.671 319.73 897.671C331.9 897.671 344.071 897.651 356.241 897.671C368.271 897.691 380.31 897.841 392.34 897.731C396.22 897.701 400.081 897.061 403.931 896.701V894.151H282.3C282.43 895.201 282.56 896.191 282.71 897.351V897.361ZM383.331 429.241C382.911 429.021 381.771 427.931 380.621 427.921C366.341 427.751 352.071 427.771 337.791 427.661C320.271 427.521 302.76 427.301 285.25 427.141C284.12 427.131 283.001 427.281 281.851 427.361C282.251 430.681 282.24 430.821 284.61 430.871C289.63 430.981 294.66 430.931 299.69 430.951C311.6 431.001 323.521 431.061 335.431 431.081C350.521 431.101 365.61 431.171 380.69 431.041C387.81 430.981 394.921 430.491 402.041 430.281C404.111 430.221 404.94 429.401 404.61 427.791C399.75 427.791 395.051 427.651 390.371 427.851C388.171 427.941 386.001 428.691 383.331 429.241ZM404.11 779.691C403.99 777.321 403.041 776.981 401.241 777.031C392.911 777.251 384.581 777.361 376.241 777.391C363.941 777.421 351.651 777.371 339.351 777.311C334.451 777.291 329.54 777.311 324.65 777.021C319.87 776.731 315.15 777.461 310.3 777.051C301.56 776.321 292.711 776.771 283.911 776.761C283.431 776.761 282.951 777.021 282.371 777.191C282.451 778.221 282.521 779.111 282.621 780.311C284.441 780.421 286.14 780.611 287.84 780.611C298.29 780.641 308.74 780.631 319.19 780.631C331.9 780.631 344.61 780.611 357.32 780.631C369.36 780.651 381.4 780.801 393.44 780.721C396.94 780.701 400.441 780.071 404.101 779.701L404.11 779.691ZM378.42 539.951V494.671H372.36V539.951H378.42ZM338.94 482.721C341.15 482.351 342.74 482.091 344.3 481.831V435.141C342.27 435.291 340.64 435.421 338.94 435.551V482.731V482.721ZM341.38 551.641V598.261C342.47 598.451 343.491 598.661 344.521 598.811C346.271 599.071 346.791 598.301 346.741 596.561C346.551 589.121 346.45 581.671 346.4 574.231C346.35 566.771 346.391 559.311 346.391 551.641H341.38ZM307.771 727.121V774.191C309.291 774.071 310.95 773.941 312.94 773.791V727.411C311.51 727.331 310.001 727.251 307.771 727.131V727.121ZM282.451 837.101C282.331 837.421 282.211 837.741 282.081 838.061C282.651 838.491 283.221 839.301 283.791 839.301C289.461 839.281 295.121 839.051 300.791 839.021C308.691 838.981 316.59 839.051 324.48 839.071C330.41 839.091 336.33 839.181 342.26 839.091C348.2 839.001 354.14 838.591 360.07 838.561C372.88 838.521 385.691 838.591 398.491 838.731C400.111 838.751 401.72 839.451 403.34 839.811C403.53 839.851 403.751 839.791 404.021 839.771V837.091H282.451V837.101ZM282.581 603.441C282.391 603.921 282.211 604.411 282.021 604.891C282.731 605.311 283.431 606.071 284.141 606.081C287.691 606.141 291.25 605.971 294.8 605.921C303.09 605.811 311.391 605.681 319.681 605.651C327.181 605.631 334.67 605.791 342.17 605.761C355.62 605.701 369.08 605.541 382.53 605.461C389.7 605.421 396.88 605.461 404.3 605.461C404.02 604.741 403.89 604.111 403.76 604.111C363.37 603.861 322.971 603.651 282.581 603.431V603.441ZM312.101 424.071C312.101 418.861 312.081 413.871 312.101 408.891C312.141 399.811 312.191 390.741 312.271 381.661C312.311 377.081 311.68 376.521 307.26 377.501C306.93 393.161 309.01 408.871 306.78 424.711C308.44 424.511 309.851 424.341 312.101 424.071ZM382.161 890.731V844.041C380.471 844.241 379.33 844.371 377.8 844.541V890.261C378.86 890.371 380.271 890.521 382.161 890.721V890.731ZM403.69 955.741C403.92 955.591 404.15 955.431 404.38 955.281C403.73 954.801 403.12 953.981 402.42 953.891C400.23 953.601 398.011 953.481 395.811 953.481C358.911 953.461 322.01 953.461 285.11 953.481C284.28 953.481 283.451 953.721 281.721 953.981C282.961 954.871 283.471 955.541 283.991 955.551C287.291 955.631 290.591 955.571 293.891 955.541C302.321 955.471 310.76 955.361 319.19 955.321C326.57 955.291 333.94 955.411 341.32 955.361C349.11 955.321 356.9 955.111 364.69 955.061C376.33 954.991 387.961 954.961 399.601 954.991C400.971 954.991 402.331 955.471 403.701 955.721L403.69 955.741ZM404.07 721.821C404.12 721.441 404.171 721.061 404.221 720.681C396.261 719.691 388.22 720.241 380.23 720.151C372 720.051 363.78 720.121 355.55 720.131C347.46 720.131 339.361 720.161 331.271 720.161C323.041 720.161 314.81 720.071 306.59 720.161C298.52 720.251 290.421 719.721 282.271 720.451C282.431 721.311 282.471 721.791 282.521 721.791C323.041 721.821 363.561 721.821 404.081 721.821H404.07ZM309.971 260.771V306.631C314.131 307.871 314.601 307.571 314.561 303.991C314.461 294.611 314.34 285.221 314.26 275.841C314.22 270.861 314.26 265.891 314.26 260.771H309.971ZM378.8 377.711C378.8 390.011 378.8 401.721 378.8 413.421C378.8 415.801 378.68 418.171 378.69 420.551C378.69 422.121 378.521 423.951 380.931 423.931C383.181 423.901 382.801 422.161 382.871 420.751C382.901 420.221 382.831 419.691 382.831 419.161C383.001 409.941 383.211 400.721 383.351 391.501C383.421 386.961 383.36 382.431 383.36 377.481C381.72 377.561 380.331 377.631 378.791 377.711H378.8ZM307.331 610.511V657.811C308.021 657.811 308.78 657.881 309.53 657.791C310.28 657.701 311.001 657.451 311.411 657.351V610.611C310.591 610.481 310.08 610.341 309.57 610.331C308.92 610.331 308.261 610.431 307.331 610.521V610.511ZM381.69 773.221C380.94 757.851 383.59 742.821 381.82 727.831C378.97 727.621 377.85 728.421 377.9 731.171C378.04 739.071 377.88 746.981 377.86 754.881C377.84 760.931 377.86 766.991 377.86 773.211H381.69V773.221ZM304.931 494.111V540.891C306.221 540.791 307.81 540.671 309.05 540.581V493.811C307.8 493.901 306.651 493.991 304.931 494.111ZM345.32 668.871C341.6 668.061 341.31 669.641 341.34 671.801C341.45 681.641 341.5 691.481 341.55 701.321C341.57 706.011 341.55 710.701 341.55 715.561H345.32V668.881V668.871ZM345.471 785.281C342.511 784.721 342.18 785.011 342.17 788.001C342.15 799.061 342.1 810.111 342.07 821.171C342.07 824.681 342.07 828.201 342.07 831.701C345.85 831.681 346.621 830.861 345.971 827.931C345.801 827.171 345.271 826.441 345.271 825.691C345.291 819.271 345.421 812.851 345.451 806.431C345.491 799.491 345.451 792.541 345.451 785.281H345.471ZM346.021 902.161V948.751C347.211 948.871 348.3 948.991 349.65 949.131V901.841C349.01 901.901 347.731 902.011 346.021 902.161ZM376.311 261.451C375.951 276.811 377.33 291.711 375.96 306.851C376.68 306.801 377.78 306.721 379.59 306.581V261.451H376.311ZM339.61 318.031C337.76 318.341 336.67 318.521 336.19 318.611V364.701C338.8 365.591 339.51 365.171 339.48 362.801C339.39 354.121 339.561 345.441 339.601 336.761C339.631 330.731 339.601 324.691 339.601 318.031H339.61ZM343.541 202.131C340.671 201.701 340.411 203.191 340.431 204.941C340.501 210.301 340.63 215.671 340.61 221.031C340.58 229.991 340.451 238.951 340.391 247.921C340.391 248.271 340.65 248.621 340.86 249.151C341.88 248.971 342.861 248.801 343.541 248.681V202.131ZM382.34 143.911C379.13 143.631 379.331 145.221 379.351 146.931C379.431 153.791 379.441 160.651 379.411 167.501C379.381 174.101 379.25 180.701 379.21 187.301C379.2 188.971 378.93 191.001 382.34 190.221V143.901V143.911ZM337.82 371.951C338.94 372.121 340.07 372.451 341.19 372.441C348.83 372.381 356.471 372.211 364.101 372.161C375.841 372.091 387.58 372.031 399.32 372.111C400.76 372.111 402.19 373.021 403.63 373.481C403.96 373.581 404.33 373.561 404.96 373.621C404.83 372.491 404.72 371.531 404.61 370.621C380.54 369.581 340.191 369.941 337.811 371.951H337.82ZM346.5 137.081C346.45 137.551 346.39 138.011 346.34 138.481C347.54 138.631 348.74 138.911 349.94 138.901C353.62 138.851 357.311 138.581 360.991 138.601C371.921 138.641 382.861 138.701 393.791 138.901C397.911 138.981 402.4 137.281 406.11 141.751V137.131C386.1 136.281 366.3 137.091 346.5 137.091V137.081ZM374.61 610.771V656.971C375.23 657.021 375.96 657.071 376.82 657.141C377.12 641.781 377.41 626.591 377.71 611.141C377.02 611.061 376.02 610.941 374.61 610.771ZM343.661 139.051C343.701 138.571 343.751 138.081 343.791 137.601C342.501 137.341 341.201 136.861 339.911 136.861C334.141 136.871 328.371 137.101 322.601 137.101C313.371 137.101 304.14 136.981 294.9 136.901C290.55 136.861 286.201 136.771 281.851 136.821C281.271 136.821 280.7 137.511 280.13 137.881C280.59 138.401 280.971 139.211 281.541 139.381C282.381 139.641 283.371 139.511 284.291 139.461C286.801 139.321 289.311 138.991 291.811 139.011C299.841 139.071 307.881 139.331 315.911 139.361C321.821 139.381 327.74 139.141 333.65 139.061C336.99 139.011 340.321 139.061 343.661 139.061V139.051ZM281.21 253.361C281.65 255.501 282.01 255.821 283.8 255.791C287.36 255.731 290.911 255.661 294.471 255.601C302.771 255.461 311.06 255.251 319.36 255.221C326.73 255.191 334.09 255.381 341.46 255.421C342.21 255.421 342.951 254.981 343.701 254.751C343.661 254.361 343.61 253.981 343.57 253.591C322.9 253.311 302.22 253.691 281.21 253.371V253.361ZM404.44 486.811C400.29 486.811 396.63 486.811 392.98 486.811C389.27 486.811 385.57 486.791 381.86 486.791C378.15 486.791 374.451 486.791 370.741 486.811C367.031 486.811 363.331 486.841 359.621 486.841C355.911 486.841 352.21 486.751 348.5 486.821C345.01 486.891 341.451 486.411 338.041 487.751C339.421 488.441 340.79 488.741 342.15 488.711C348.08 488.571 354.001 488.181 359.931 488.161C372.851 488.121 385.761 488.211 398.681 488.341C400.401 488.361 402.121 488.901 404.061 489.241C404.111 488.941 404.221 488.201 404.431 486.811H404.44ZM281.791 370.561C281.621 370.921 281.45 371.281 281.28 371.641C282.01 372.031 282.74 372.731 283.48 372.741C286.9 372.811 290.33 372.681 293.75 372.651C302.3 372.581 310.861 372.511 319.411 372.451C324.021 372.421 328.64 372.451 333.25 372.351C334.11 372.331 334.971 371.881 335.831 371.621C335.771 371.261 335.711 370.911 335.661 370.551H281.8L281.791 370.561ZM405.411 253.951C402.601 253.771 400.4 253.521 398.21 253.511C381.63 253.471 365.05 253.481 348.46 253.511C347.74 253.511 347.02 253.961 346.3 254.201C351.18 254.781 355.901 254.771 360.621 254.791C373.701 254.841 386.771 254.951 399.851 254.921C401.871 254.921 403.46 255.321 404.75 256.871C404.85 256.991 405.181 256.911 405.621 256.941C405.551 255.881 405.48 254.871 405.42 253.941L405.411 253.951ZM282.471 487.111C282.311 487.441 282.15 487.781 281.98 488.111C282.71 488.391 283.441 488.911 284.161 488.901C288.371 488.871 292.581 488.641 296.791 488.631C309.021 488.601 321.261 488.651 333.491 488.631C334.121 488.631 334.761 488.241 335.831 487.891C332.771 486.641 289.871 486.191 282.471 487.111Z" fill="black"/>
<path d="M254.39 970.242C254.43 956.312 254.46 942.392 254.53 928.462C254.58 916.812 254.69 905.172 254.73 893.522C254.73 891.712 254.48 889.902 254.34 887.922C249.48 888.142 244.88 888.462 240.28 888.542C226.8 888.792 213.31 888.972 199.83 889.142C177 889.432 154.18 889.682 131.35 889.952C120.48 890.082 109.62 890.332 98.7503 890.302C88.0103 890.272 77.2703 889.882 66.5203 889.812C55.8103 889.752 45.1004 889.912 34.3904 889.952C27.8604 889.972 21.3203 890.001 14.7903 889.911C12.8403 889.881 10.8902 889.472 8.94021 889.212C8.70021 889.182 8.34004 889.052 8.26004 888.872C6.23004 884.352 -0.21963 881.932 1.85037 875.462C1.80037 855.982 1.85021 836.502 1.69021 817.032C1.52021 797.312 1.05015 777.592 0.880155 757.882C0.750155 742.872 0.950155 727.862 0.880155 712.862C0.840155 702.972 0.510506 693.082 0.490506 683.202C0.460506 668.852 0.630409 654.511 0.640409 640.161C0.640409 631.351 0.410233 622.541 0.460233 613.731C0.520233 601.861 0.760155 589.991 0.880155 578.111C1.02015 563.801 1.09025 549.481 1.23025 535.171C1.33025 525.691 1.54017 516.212 1.65017 506.732C1.79017 493.752 1.86051 480.761 1.99051 467.781C2.26051 439.451 2.51035 411.122 2.83035 382.792C2.99035 368.832 3.40025 354.871 3.48025 340.911C3.54025 330.211 3.16043 319.501 3.16043 308.801C3.16043 295.171 3.33017 281.531 3.40017 267.901C3.49017 251.631 3.53039 235.352 3.62039 219.082C3.70039 206.272 3.87043 193.472 3.91043 180.662C3.93043 173.802 3.74019 166.942 3.67019 160.082C3.66019 158.902 3.75019 157.701 3.92019 156.541C4.37019 153.521 4.55023 153.532 7.71023 154.112C9.78023 154.492 11.9403 154.782 14.0203 154.602C18.9903 154.172 23.9302 153.341 28.9002 152.871C32.1702 152.561 35.47 152.512 38.76 152.492C46.09 152.442 53.4203 152.382 60.7503 152.502C65.4703 152.582 70.1802 153.042 74.9002 153.192C77.1102 153.262 79.3303 152.992 81.5403 152.942C87.1903 152.812 92.85 152.672 98.51 152.612C109.55 152.512 120.6 152.382 131.64 152.422C142.55 152.452 153.46 152.732 164.36 152.772C168.04 152.792 171.73 152.312 175.41 152.252C179.19 152.192 182.97 152.411 186.75 152.431C190.04 152.451 193.34 152.321 196.63 152.341C205.95 152.381 215.28 152.471 224.6 152.511C232.39 152.541 240.18 152.442 247.96 152.572C250.82 152.622 253.67 153.162 256.73 153.502C256.98 139.332 257.231 125.072 257.491 110.542H261.5C261.5 118.602 261.47 126.531 261.5 134.451C261.56 147.391 261.68 160.332 261.75 173.282C261.88 196.872 262.01 220.452 262.13 244.042C262.24 265.102 262.36 286.151 262.44 307.211C262.48 317.521 262.41 327.832 262.46 338.142C262.5 346.802 262.69 355.451 262.71 364.111C262.77 386.531 262.75 408.941 262.82 431.361C262.89 451.891 263.1 472.421 263.14 492.941C263.17 511.731 262.99 530.521 263.01 549.311C263.02 562.771 263.27 576.232 263.3 589.702C263.32 602.742 263.14 615.792 263.15 628.832C263.15 638.082 263.36 647.332 263.43 656.582C263.46 659.732 263.36 662.872 263.34 666.022C263.26 675.472 263.11 684.922 263.15 694.372C263.2 705.502 263.44 716.622 263.56 727.752C263.66 736.782 263.74 745.822 263.75 754.852C263.78 772.152 263.79 789.452 263.77 806.742C263.75 825.112 263.63 843.482 263.64 861.852C263.64 876.142 263.82 890.422 263.83 904.712C263.85 925.102 263.8 945.492 263.79 965.882C263.79 967.342 263.87 968.792 263.91 970.252H254.35L254.39 970.242ZM11.5603 881.302C17.0203 881.302 21.8705 881.302 26.7205 881.302C38.4605 881.272 50.2105 881.191 61.9505 881.221C69.8805 881.241 77.8105 881.512 85.7405 881.522C96.0405 881.532 106.33 881.342 116.63 881.362C121.76 881.362 126.9 881.782 132.03 881.792C145.23 881.832 158.43 881.662 171.62 881.752C186.04 881.852 200.46 882.112 214.88 882.392C225.74 882.602 236.59 882.922 247.44 883.302C249.75 883.382 252.04 883.882 254.43 884.202C255.13 642.282 255.84 400.692 256.54 159.442C253.22 159.442 250.21 159.442 247.2 159.442C242.86 159.442 238.51 159.422 234.17 159.442C218.97 159.502 203.77 159.552 188.57 159.642C182.96 159.672 177.35 159.932 171.75 159.892C160.31 159.812 148.87 159.551 137.43 159.451C126.9 159.361 116.37 159.411 105.84 159.341C98.0801 159.291 90.3301 159.072 82.5701 159.052C77.3701 159.042 72.1705 159.312 66.9705 159.352C57.8805 159.422 48.8002 159.492 39.7102 159.412C35.9202 159.382 32.1301 158.951 28.3401 158.701C22.2201 158.301 16.1105 157.901 9.70047 157.481C9.70047 163.191 9.72047 168.212 9.70047 173.242C9.65047 186.352 9.53031 199.462 9.54031 212.562C9.56031 225.412 9.72033 238.262 9.81033 251.112C9.85033 255.992 9.86043 260.861 9.91043 265.741C9.97043 271.281 10.1104 276.821 10.1204 282.361C10.1304 289.741 9.99031 297.121 10.0403 304.491C10.0803 310.021 10.4302 315.542 10.4602 321.072C10.5102 329.502 10.3601 337.922 10.3601 346.352C10.3601 355.622 10.4505 364.881 10.4905 374.151C10.5605 391.381 10.5502 408.601 10.6902 425.831C10.8302 442.871 11.1703 459.911 11.3303 476.961C11.4403 488.471 11.3305 499.991 11.4705 511.501C11.6005 521.691 12.0804 531.882 12.1804 542.072C12.3504 560.422 12.3304 578.781 12.4304 597.132C12.5004 609.002 12.7005 620.882 12.7405 632.752C12.7905 648.382 12.7405 664.002 12.7405 679.632C12.7405 690.452 12.8603 701.272 12.8103 712.102C12.7603 723.052 12.5002 733.992 12.4402 744.942C12.3802 758.202 12.5704 771.472 12.4104 784.732C12.2104 801.752 11.7105 818.762 11.4905 835.782C11.3605 846.102 11.5303 856.432 11.5603 866.752C11.5703 871.492 11.5603 876.232 11.5603 881.292V881.302Z" fill="black"/>
<path d="M422.951 970.241C422.971 952.101 422.541 933.951 422.581 915.811C422.621 898.481 422.721 881.151 422.731 863.821C422.731 848.491 422.611 833.171 422.641 817.841C422.671 804.161 422.881 790.481 422.931 776.791C422.981 763.031 422.881 749.271 422.931 735.511C422.961 726.211 423.241 716.901 423.241 707.601C423.241 697.281 422.931 686.951 422.941 676.631C422.941 666.181 423.271 655.731 423.271 645.271C423.271 627.791 423.06 610.301 423.07 592.821C423.08 578.961 423.371 565.111 423.401 551.251C423.441 532.861 423.31 514.461 423.32 496.071C423.33 477.121 423.441 458.171 423.491 439.231C423.531 425.871 423.49 412.511 423.57 399.151C423.63 389.431 423.871 379.711 423.911 369.991C423.941 362.901 423.681 355.811 423.721 348.731C423.891 314.351 424.151 279.971 424.311 245.591C424.391 229.081 424.211 212.581 424.311 196.071C424.471 171.141 424.78 146.221 425.01 121.301C425.04 117.871 425.01 114.441 425.01 110.601C426.45 110.451 427.681 110.321 429.101 110.171C429.101 114.081 429.071 117.711 429.101 121.351C429.241 134.581 429.49 147.821 429.55 161.051C429.65 180.671 429.571 200.281 429.691 219.901C429.781 234.591 430.131 249.271 430.221 263.961C430.351 283.831 430.311 303.701 430.401 323.571C430.491 344.111 430.67 364.641 430.78 385.181C430.86 399.591 430.901 414.001 430.941 428.401C430.991 442.691 431.071 456.971 431.061 471.261C431.041 484.361 430.831 497.471 430.861 510.571C430.921 534.171 431.141 557.781 431.201 581.381C431.251 601.521 431.121 621.661 431.131 641.791C431.131 652.251 431.351 662.711 431.371 673.171C431.411 689.441 431.341 705.711 431.371 721.981C431.381 731.641 431.51 741.291 431.55 750.951C431.6 762.021 431.631 773.081 431.631 784.151C431.631 799.471 431.59 814.781 431.55 830.101C431.52 840.681 431.391 851.271 431.451 861.851C431.501 870.311 431.861 878.761 431.921 887.221C432.001 897.931 431.881 908.641 431.901 919.351C431.931 936.331 432.001 953.301 432.061 970.281H422.951V970.241Z" fill="black"/>
<path d="M68.4002 618.521V577.121C61.4402 581.771 54.9903 580.831 48.2903 577.701V617.871C53.2703 618.311 58.0902 618.741 62.9002 619.161C63.6902 619.231 64.5003 619.191 65.2503 619.401C66.8103 619.841 68.5704 620.461 68.3704 622.421C68.1804 624.321 66.4902 624.081 64.9802 624.161C59.9202 624.421 54.8603 625.171 49.8103 625.111C47.3103 625.081 44.4604 624.181 42.4304 622.751C40.3504 621.281 42.1201 619.551 43.3001 618.761C42.9301 616.651 42.3701 614.901 42.3601 613.151C42.3401 601.621 42.3903 590.081 42.5403 578.551C42.5703 576.251 41.9201 574.691 40.1101 573.141C37.9501 571.291 36.02 569.021 34.51 566.611C33.6 565.161 33.2802 563.071 33.4002 561.311C33.9102 553.831 36.5801 547.131 41.6301 541.521C42.8701 540.141 43.3804 538.761 43.4104 536.921C43.5804 527.001 43.8604 517.081 44.1404 507.161C44.1904 505.251 44.4201 503.351 44.6301 500.551C47.1501 503.561 46.8304 506.241 46.8504 508.751C46.9204 517.971 46.8801 527.191 46.8801 537.271C55.4001 533.091 61.6601 537.331 68.3801 541.691V504.201C66.9601 504.201 65.4003 504.251 63.8303 504.191C59.6203 504.021 55.4102 503.811 51.2102 503.581C50.6902 503.551 50.0702 503.461 49.6902 503.161C48.8202 502.471 48.0703 501.631 47.2703 500.851C48.1803 500.231 49.0403 499.161 50.0003 499.071C53.7803 498.691 57.5901 498.451 61.3801 498.461C64.9401 498.471 68.5003 498.861 72.0603 499.121C74.2103 499.281 74.9203 500.581 74.2703 502.581C73.8003 504.021 73.4505 505.581 73.4505 507.081C73.4605 519.491 73.5102 531.901 73.7302 544.311C73.7602 545.851 74.6103 547.561 75.5403 548.881C79.6103 554.631 81.7403 563.141 77.0003 568.751C73.7603 572.581 73.5001 576.771 73.5501 581.301C73.6501 590.161 73.6305 599.021 73.7005 607.881C73.7205 610.001 73.8502 612.111 73.9602 614.221C74.1902 618.491 73.8202 618.851 68.4002 618.531V618.521ZM58.2102 578.861C60.0102 578.161 62.1001 577.671 63.8201 576.591C66.3801 574.971 68.7801 573.061 71.0501 571.051C76.4801 566.251 76.9204 562.831 73.1604 556.721C72.8804 556.271 72.6404 555.801 72.3704 555.341C69.0904 549.741 64.7303 545.611 58.3303 543.491C52.5203 541.561 49.4904 542.891 46.4104 546.601C44.6504 548.721 43.1303 551.061 41.5803 553.361C38.4703 557.961 37.68 563.081 40.26 567.921C43.91 574.771 50.8005 576.961 58.2005 578.871L58.2102 578.861Z" fill="black"/>
<path d="M146.651 291.921C152.331 291.781 158.861 295.911 160.851 300.501C162.971 305.411 162.041 310.711 157.791 314.611C152.871 319.131 146.98 319.801 140.78 317.791C137.58 316.751 134.93 314.991 133.05 311.981C129.08 305.611 131.341 297.771 138.291 294.881C141.021 293.751 143.871 292.901 146.661 291.921H146.651ZM137.901 307.211C137.301 311.101 141.501 316.171 146.881 316.361C152.951 316.571 158.761 311.301 158.871 305.641C158.971 300.221 154.431 296.171 148.641 295.901C141.871 295.591 138.141 301.991 137.901 307.201V307.211Z" fill="black"/>
<path d="M60.6004 610.902C58.5104 610.312 57.0702 609.912 55.6902 609.522C54.4302 603.672 53.9903 598.112 55.3103 592.432C55.7503 590.532 56.2901 588.862 58.3201 589.152C60.2501 589.432 61.4004 591.042 61.4104 593.172C61.4204 595.682 61.5504 598.192 61.4304 600.692C61.2804 603.902 60.9201 607.102 60.6101 610.902H60.6004Z" fill="black"/>
<path d="M146.181 311.801C145.461 311.531 143.971 311.111 142.601 310.461C140.741 309.581 140.33 308.061 141.07 306.171C141.73 304.461 142.271 302.691 143.021 301.021C143.321 300.351 143.98 299.761 144.61 299.351C146.66 298.051 149.471 298.281 151.541 300.181C153.611 302.091 155.25 304.411 154.57 307.471C153.98 310.151 151.88 311.201 149.38 311.601C148.6 311.721 147.801 311.701 146.181 311.801ZM144.53 309.261C146.52 309.171 148.64 310.901 150.19 308.561C150.75 307.721 150.681 305.911 150.121 305.051C149.571 304.221 147.751 303.381 146.971 303.701C144.881 304.571 144.181 306.551 144.541 309.251L144.53 309.261Z" fill="black"/>
<path d="M280.9 110.521V85.8014C282.46 85.7114 283.621 85.5714 284.771 85.5714C300.821 85.5614 316.87 85.5514 332.92 85.5714C337.63 85.5714 337.1 85.6814 336.94 90.2114C336.7 96.9714 336.74 103.751 336.84 110.521H346.271C346.271 102.751 346.27 94.9914 346.28 87.2214C346.28 86.8414 346.451 86.4714 346.521 86.1514H406.13V110.521H412.561C412.491 97.1014 412.431 83.6714 412.351 70.2514C412.221 46.9614 411.861 23.6714 411.541 0.381427C411.511 -1.70857 411.041 2.07143 410.771 -0.0185733C409.451 -0.0185733 408.131 -0.0185733 406.811 -0.0185733V17.5614H346.21C346.21 9.68143 346.21 7.76143 346.21 -0.0185733C343.3 -0.0185733 340.401 -0.0185733 337.491 -0.0185733V17.6214H280.101C280.101 15.6114 280.121 13.5614 280.101 11.5114C280.041 6.56143 280.03 4.93143 279.84 -0.00857329C279.81 -0.878573 278.961 0.841427 278.491 -0.00857329C277.701 -0.00857329 276.92 -0.00857329 276.13 -0.00857329C275.86 17.4514 275.631 29.0514 275.311 46.5214C275.141 55.5814 274.58 64.6414 274.57 73.7014C274.55 85.9814 274.54 98.2514 274.53 110.531H280.891L280.9 110.521ZM384.75 27.8314H406.26V74.6414H384.75V27.8314ZM318.23 27.8414H376.92V74.6214H318.23V27.8414ZM280.69 27.4714C290.25 27.4414 300.17 27.3914 309.59 27.5014C309.59 35.4214 309.691 42.1214 309.561 48.8114C309.411 56.6014 309.15 64.3914 308.67 72.1614C308.6 73.2314 307.021 75.0614 306.101 75.0814C297.931 75.3114 289.761 75.2114 280.681 75.2114V27.4714H280.69Z" fill="#FCEEE3"/>
<path d="M412.36 70.2512C412.44 83.6712 412.5 97.1012 412.57 110.521H425.13C425.15 84.6012 425.11 58.6812 425.17 32.7712C425.18 26.5112 425.76 20.2512 425.88 13.9912C426.01 7.38119 425.911 6.64119 425.911 -0.00880766H410.791C411.061 2.08119 411.531 -1.69881 411.561 0.391192C411.881 23.6812 412.231 46.9712 412.371 70.2612L412.36 70.2512Z" fill="#FBECD1"/>
<path d="M406.82 -0.00878906V17.5712H346.221C346.221 9.69121 346.221 7.77121 346.221 -0.00878906C366.421 -0.00878906 386.62 -0.00878906 406.82 -0.00878906Z" fill="#E89163"/>
<path d="M337.5 -0.0086758V17.6313H280.11C280.11 15.6213 280.13 13.5713 280.11 11.5213C280.05 6.57133 280.041 4.94132 279.851 0.00132421C279.821 -0.868676 278.97 0.851324 278.5 0.00132421C298.17 0.00132421 317.84 0.00132421 337.5 0.00132421V-0.0086758Z" fill="#E89163"/>
<path d="M318.23 74.6213V27.8413H376.92V74.6213H318.23Z" fill="#E89163"/>
<path d="M407 110.851C407 102.781 406.13 94.3814 406.13 86.1514H346.521C346.441 86.4714 346.28 86.8514 346.28 87.2214C346.27 94.9914 346.281 102.751 346.271 110.521L407 110.851Z" fill="#E89163"/>
<path d="M336.84 110.521C336.75 103.751 336.7 96.9713 336.94 90.2113C337.1 85.6913 337.63 85.5813 332.92 85.5713C316.87 85.5613 300.821 85.5713 284.771 85.5713C283.611 85.5713 282.45 85.7013 280.9 85.8013C280.9 94.1013 279.73 102.341 279.73 110.521H336.84Z" fill="#E89163"/>
<path d="M280.69 75.2114V27.4714C290.25 27.4414 300.17 27.3914 309.59 27.5014C309.59 35.4214 309.691 42.1214 309.561 48.8114C309.411 56.6014 309.15 64.3914 308.67 72.1614C308.6 73.2314 307.021 75.0614 306.101 75.0814C297.931 75.3114 289.761 75.2114 280.681 75.2114H280.69Z" fill="#E89163"/>
<path d="M406.271 74.6415H384.76V27.8315H406.271V74.6415Z" fill="#E89163"/>
<path d="M429.11 112.242C429.09 109.962 429.35 105.642 429.34 103.352C429.22 83.7315 429.91 64.4415 429.8 44.8315C429.73 31.6015 429.491 18.3615 429.351 5.13154C429.311 1.50154 429.351 3.90154 429.351 -0.00845654C427.931 0.141543 426.69 -0.158457 425.26 -0.00845654C425.26 3.83154 425.29 1.65154 425.26 5.08154C425.03 30.0015 424.721 54.9315 424.561 79.8515C424.491 90.0715 425.011 101.052 425.041 111.272L429.13 112.232L429.11 112.242Z" fill="black"/>
<path d="M257.491 111.821L261.521 112.231C261.431 94.4112 262.11 74.8912 262.01 57.0712C261.94 44.1312 261.82 31.1912 261.76 18.2412C261.72 10.3112 261.76 8.05121 261.76 -0.00878906H257.76C257.5 14.5312 257.251 23.1312 257.001 37.3012C256.931 37.3012 256.85 37.2812 256.78 37.2712C256.88 38.1912 256.961 39.1112 257.001 40.0412C257.071 41.6912 256.98 43.3712 256.78 45.0712C256.72 66.8812 257.57 90.0112 257.51 111.831L257.491 111.821Z" fill="black"/>
<path d="M279.71 112.231C279.71 104.071 281.081 94.1714 281.081 85.8814H336.561V110.531L339.721 133.661C339.731 131.771 340.84 106.741 340.84 104.851C340.86 99.4914 340.731 94.1214 340.661 88.7614C340.641 87.0014 340.901 85.5114 343.771 85.9514C343.771 94.1714 343.76 105.111 343.76 113.311L346.221 112.081C346.221 104.001 346.61 94.4214 346.61 86.4414C351.13 85.2114 401.651 85.9014 405.891 87.1614C405.891 95.0214 406.55 103.911 406.55 111.671L411.53 121.301C411.47 108.981 412.53 85.9114 412.42 73.5914C412.22 52.2714 412.061 30.9614 411.851 9.64139C411.801 4.52139 411.6 5.38139 411.46 0.021389C409.82 0.101389 408.571 -0.068611 406.791 0.021389V17.6214C402.321 17.6214 398.39 17.6214 394.46 17.6214C379.59 17.6514 364.71 17.7014 349.84 17.6814C348.75 17.6814 347.671 17.1814 346.471 16.8914V-0.00861096C346.201 -0.138611 345.93 0.121389 345.65 -0.00861096C345.14 0.491389 344.301 -0.578611 344.201 -0.00861096C343.941 1.41139 343.971 -1.79861 343.971 -0.338611C343.951 5.44139 343.971 11.2314 343.971 17.1114C342.361 17.2514 341.24 17.3514 339.98 17.4714C339.76 14.4914 339.54 11.8714 339.38 9.24139C339.22 6.61139 339.05 3.98139 339.01 1.35139C338.91 -4.35861 338.94 1.75139 337.36 0.00138903C337.01 8.12139 336.67 9.79139 336.34 17.3014H279.971V-0.00861096C278.381 -0.158611 277.071 0.131389 275.581 -0.00861096C275.481 1.29139 275.391 -3.68861 275.371 -2.91861C275.161 6.45139 274.871 15.8214 274.791 25.2014C274.621 44.8214 274.561 64.4514 274.471 84.0714C274.431 92.8914 274.4 101.701 274.36 110.521L279.741 112.231H279.71ZM405.84 80.4514C401.77 80.8714 397.851 81.5714 393.931 81.6114C382.161 81.7314 370.4 81.5914 358.63 81.5714C345.4 81.5414 332.161 81.5614 318.931 81.5214C306.901 81.4814 294.87 81.4014 282.84 81.3314C282.33 81.3314 281.83 81.2714 281.11 81.2314V78.0714C281.54 77.8814 281.901 77.5914 282.241 77.6014C292.351 77.6914 302.5 77.3514 312.57 78.0914C318.3 78.5214 323.911 77.5214 329.621 78.0214C335.381 78.5214 341.23 77.9414 347.05 77.9714C356.31 78.0214 365.601 77.7814 374.811 78.4814C379.731 78.8614 384.491 77.9114 389.371 78.2314C394.211 78.5514 399.11 78.0914 403.98 77.9114C404.55 77.8914 405.111 77.5214 405.851 77.2514V80.4514H405.84ZM379.59 30.7414C379.57 29.0214 379.371 27.4414 382.581 27.7214V74.0414C379.161 74.8214 379.441 72.7814 379.451 71.1214C379.491 64.5214 379.62 57.9214 379.65 51.3214C379.68 44.4614 379.67 37.6014 379.59 30.7514V30.7414ZM406.17 74.4814H384.94V28.2014H406.17V74.4714V74.4814ZM346.73 20.8814C366.53 20.8814 386.33 20.0714 406.34 20.9214V25.5414C402.62 21.0714 398.141 22.7614 394.021 22.6914C383.091 22.4914 372.151 22.4314 361.221 22.3914C357.541 22.3814 353.85 22.6514 350.17 22.6914C348.97 22.7114 347.77 22.4214 346.57 22.2714C346.62 21.8014 346.68 21.3414 346.73 20.8714V20.8814ZM377.05 27.6914C375.89 43.2714 377.031 58.6514 376.741 74.2714C357.421 74.5514 338.311 74.8214 319.021 75.1014C318.781 73.8314 318.461 72.9714 318.471 72.1014C318.581 63.0614 318.79 54.0114 318.86 44.9714C318.9 40.3914 318.81 35.8014 318.55 31.2214C318.5 30.3514 317.41 29.5314 316.8 28.6914C316.39 29.5214 315.64 30.3514 315.63 31.1814C315.53 41.6114 315.511 52.0514 315.521 62.4814C315.521 65.7814 315.73 69.0714 315.76 72.3714C315.78 74.0814 315.071 75.1914 312.561 74.6414C312.561 66.8814 312.681 58.9814 312.521 51.0914C312.371 43.5214 312.641 35.9114 310.741 28.4314C307.761 43.7714 309.761 59.3114 308.621 74.8914C299.371 75.1514 290.341 75.4114 280.831 75.6714V27.6914H377.05ZM282.081 20.6314C286.431 20.5814 290.78 20.6714 295.13 20.7114C304.36 20.7914 313.591 20.9114 322.831 20.9114C328.601 20.9114 334.371 20.6814 340.141 20.6714C341.431 20.6714 342.731 21.1514 344.021 21.4114C343.981 21.8914 343.931 22.3814 343.891 22.8614C340.551 22.8614 337.21 22.8214 333.88 22.8614C327.97 22.9414 322.051 23.1814 316.141 23.1614C308.111 23.1314 300.081 22.8714 292.041 22.8114C289.531 22.7914 287.031 23.1314 284.521 23.2614C283.601 23.3114 282.611 23.4414 281.771 23.1814C281.201 23.0014 280.82 22.2014 280.36 21.6814C280.93 21.3114 281.501 20.6314 282.081 20.6214V20.6314Z" fill="black"/>
<path d="M275.141 112.571C275.141 100.291 274.551 85.9812 274.571 73.7012C274.591 64.6412 275.141 55.5812 275.311 46.5212C275.641 29.0612 275.861 17.4612 276.131 -0.00878906H261.78V29.5212C261.78 56.5212 261.44 83.5312 261.51 110.531L275.131 112.571H275.141Z" fill="#EFB445"/>
<path d="M404.411 970.241C404.411 972.571 404.411 970.241 404.411 972.531C404.411 980.651 404.34 988.761 404.44 996.881C404.48 1000.24 403.911 1001.41 399.871 1000.74C394.741 999.891 389.36 1000.53 384.26 1000.53V970.231H375.26V1000.33H318.891V970.231H310.471V1001.36H282.431V970.231H272.931C272.931 1008.35 272.931 1041.86 272.931 1079.98H282.491V1070.21C291.071 1070.21 299.3 1070.22 307.53 1070.21C310.75 1070.21 311.471 1072.04 311.201 1074.84C311.041 1076.54 311.17 1078.27 311.17 1079.99H318.34C318.34 1077.65 318.43 1075.31 318.32 1072.98C318.18 1070.17 319.911 1069.62 322.101 1069.72C325.901 1069.89 329.701 1070.38 333.491 1070.4C347.011 1070.49 360.53 1070.43 374.05 1070.43H378.46C378.9 1073.82 379.29 1076.91 379.69 1079.99H387.661V1070.66H404.391V1079.99H413.951V970.241H404.391H404.411ZM343.11 1055.41C343.26 1058.21 341.961 1059.32 339.411 1059.27C328.971 1059.07 318.541 1058.68 308.101 1058.65C300.451 1058.63 292.791 1059.06 285.141 1059.27C284.491 1059.29 283.831 1059.19 282.851 1059.12V1011.51C302.161 1011.51 321.14 1011.43 340.11 1011.69C341.37 1011.71 343.651 1014.32 343.661 1015.74C343.731 1025.38 343.301 1035.02 343.081 1044.66C343.001 1048.24 342.93 1051.83 343.11 1055.41ZM404.201 1058.5C399.891 1058.5 395.771 1058.41 391.661 1058.52C384.861 1058.7 378.06 1059.06 371.25 1059.22C368.53 1059.29 365.81 1059.01 363.09 1058.96C361.31 1058.93 359.491 1058.88 357.741 1059.15C354.431 1059.65 353.22 1058.21 353.51 1054.92C353.88 1050.78 353.731 1046.58 353.721 1042.41C353.711 1038.23 353.54 1034.06 353.51 1029.88C353.47 1023.92 353.51 1017.96 353.51 1011.47C370.69 1011.58 387.42 1011.32 404.21 1011.62V1058.48L404.201 1058.5Z" fill="#FCEEE3"/>
<path d="M422.951 970.242H414.541C414.541 1008.36 413.98 1041.87 413.98 1079.99H422.741C422.761 1078.02 422.75 1076.05 422.8 1074.08C422.99 1066.62 423.34 1059.17 423.34 1051.71C423.34 1044.75 422.78 1037.79 422.8 1030.83C422.83 1023.76 423.4 1016.69 423.5 1009.61C423.63 1000.46 423.53 991.312 423.53 982.162C423.53 976.642 422.951 975.742 422.951 970.222V970.242Z" fill="#FBECD1"/>
<path d="M318.36 1079.99C318.36 1077.65 318.45 1075.31 318.34 1072.98C318.2 1070.17 319.931 1069.62 322.121 1069.72C325.921 1069.89 329.72 1070.38 333.51 1070.4C347.03 1070.49 360.55 1070.43 374.07 1070.43H378.481C378.921 1073.82 379.311 1076.91 379.711 1079.99H318.36Z" fill="#E89163"/>
<path d="M282.51 1079.99V1070.22C291.09 1070.22 299.32 1070.23 307.55 1070.22C310.77 1070.22 311.491 1072.05 311.221 1074.85C311.061 1076.55 311.19 1078.28 311.19 1080H282.51V1079.99Z" fill="#E89163"/>
<path d="M387.681 1079.99V1070.66H404.411V1079.99H387.681Z" fill="#E89163"/>
<path d="M282.84 1011.51C302.15 1011.51 321.131 1011.43 340.101 1011.69C341.361 1011.71 343.64 1014.32 343.65 1015.74C343.72 1025.38 343.29 1035.02 343.07 1044.66C342.99 1048.24 342.911 1051.83 343.101 1055.41C343.251 1058.21 341.95 1059.32 339.4 1059.27C328.96 1059.07 318.53 1058.68 308.09 1058.65C300.44 1058.63 292.78 1059.06 285.13 1059.27C284.48 1059.29 283.82 1059.19 282.84 1059.12V1011.51Z" fill="#E89163"/>
<path d="M353.51 1011.49C370.69 1011.6 387.42 1011.34 404.21 1011.64V1058.5C399.9 1058.5 395.79 1058.41 391.67 1058.52C384.87 1058.7 378.07 1059.06 371.26 1059.22C368.54 1059.29 365.821 1059.01 363.101 1058.96C361.321 1058.93 359.501 1058.88 357.751 1059.15C354.441 1059.65 353.231 1058.21 353.521 1054.92C353.891 1050.78 353.74 1046.58 353.73 1042.41C353.72 1038.23 353.551 1034.06 353.521 1029.88C353.481 1023.92 353.521 1017.96 353.521 1011.47L353.51 1011.49Z" fill="#E89163"/>
<path d="M264.11 1014.45C264.09 1000.16 263.92 985.882 263.92 971.592C263.92 969.602 263.921 972.232 263.931 970.242H254.391C254.371 978.532 254.701 982.192 254.681 990.472C254.931 992.112 255.11 993.782 255.19 995.472C255.27 997.362 255.16 999.292 254.88 1001.24C254.93 1001.93 254.971 1002.6 254.971 1003.28C254.931 1014.93 254.82 1026.57 254.77 1038.22C254.71 1052.15 254.68 1066.07 254.63 1080H264.19C264.15 1078.54 264.07 1077.09 264.07 1075.63C264.08 1055.24 264.13 1034.85 264.11 1014.46V1014.45Z" fill="black"/>
<path d="M432.161 996.931C432.101 988.471 431.74 980.021 431.69 971.561C431.68 969.581 431.68 972.211 431.69 970.231H422.951C422.951 972.881 422.96 970.911 422.96 973.561C422.95 990.891 422.851 1008.22 422.811 1025.55C422.771 1043.69 422.76 1061.84 422.73 1079.98H432.291C432.241 1063 432.16 1046.03 432.13 1029.05C432.11 1018.34 432.23 1007.63 432.15 996.921L432.161 996.931Z" fill="black"/>
<path d="M414.601 1022.98C414.581 1013.52 414.231 1004.06 414.221 994.602C414.221 984.942 414.34 979.902 414.42 970.242H404.38V1000.15H384.391V970.242H382.391V1000.49C380.501 1000.29 379.09 1000.14 378.03 1000.03V970.252H375.041V1000.21C355.321 1000.49 338.141 1000.73 318.891 1001C318.891 998.592 319.15 996.842 319.15 994.762C319.15 985.052 319.15 979.962 319.15 970.242H316.541C316.511 974.192 316.241 978.472 316.491 982.392C316.981 989.982 314.6 992.762 316.55 1001.02C315.19 1001.04 313.83 1001.06 312.48 1001.08C312.66 991.742 313.681 987.362 313.791 978.532C313.821 975.712 314.161 973.062 314.161 970.242H310.19V1000.46C309.32 1000.62 308.211 1000.97 307.101 1001C299.831 1001.22 292.54 1001.26 285.28 1001.61C282.96 1001.72 282.57 1000.81 282.57 998.892C282.58 987.802 282.401 979.311 282.391 968.221L271.971 967.812C271.931 976.532 272.1 983.352 272.03 992.072C271.98 999.182 271.91 1006.62 271.92 1013.73C271.92 1018.69 272.77 1023.02 272.75 1027.98C272.71 1038.61 272.6 1049.24 272.48 1059.86C272.41 1066.57 272.271 1073.28 272.161 1079.98H282.52C282.68 1076.86 282.84 1073.73 283.01 1070.4H311.181C310.911 1073.82 310.661 1076.9 310.411 1079.98H314.391V1070.49C314.771 1070.4 315.161 1070.32 315.541 1070.23C315.911 1071.2 316.511 1072.15 316.601 1073.14C316.801 1075.41 316.741 1077.7 316.791 1079.97H319.181V1070.84H378.94V1079.97H382.13V1071.26H386.11V1079.97H387.701V1070.94C392.721 1070.87 397.63 1070.76 402.53 1070.77C404.08 1070.77 404.34 1071.94 404.32 1073.29C404.29 1075.52 404.39 1077.74 404.44 1079.97H414.8C414.63 1069.89 414.371 1059.8 414.331 1049.72C414.301 1040.8 414.64 1031.88 414.63 1022.96L414.601 1022.98ZM404.46 1015.05C404.34 1022.53 404.22 1030 404.19 1037.48C404.17 1041.03 404.381 1044.59 404.431 1048.14C404.471 1051.41 404.431 1054.67 404.431 1058.45H353.291C355.161 1052.68 354.3 1047.11 354.19 1041.55C354.1 1036.93 354.141 1032.32 354.141 1027.7C354.141 1022.59 354.141 1017.47 354.141 1011.67C356.721 1011.67 359.13 1011.67 361.55 1011.67C371.72 1011.65 381.88 1011.58 392.05 1011.65C395.34 1011.67 398.62 1012.04 401.9 1012.25C403.68 1012.36 404.49 1013.26 404.46 1015.07V1015.05ZM404.17 1003.92V1006.47C400.32 1006.83 396.451 1007.47 392.581 1007.5C380.551 1007.6 368.52 1007.46 356.48 1007.44C344.31 1007.42 332.141 1007.44 319.971 1007.44C309.131 1007.44 298.291 1007.44 287.451 1007.42C286.021 1007.42 284.581 1007.24 282.951 1007.13C282.801 1005.97 282.681 1004.98 282.541 1003.93H404.17V1003.92ZM349.891 1011.59V1058.88C348.541 1058.74 347.44 1058.62 346.26 1058.5V1011.91C347.98 1011.76 349.251 1011.65 349.891 1011.59ZM285.581 1011.86C290.301 1011.96 295.03 1011.79 299.75 1011.78C313.82 1011.76 327.89 1011.78 342.36 1011.78C342.62 1013.22 343.071 1014.58 343.081 1015.95C343.111 1029.65 343.06 1043.35 343.03 1057.05C343.03 1057.43 342.921 1057.81 342.771 1058.72H282.55C282.55 1053.25 282.55 1047.62 282.55 1042C282.54 1033.74 282.511 1025.47 282.491 1017.21C282.491 1016.42 282.5 1015.62 282.48 1014.83C282.41 1012.67 283.351 1011.83 285.581 1011.88V1011.86ZM403.92 1065.49C402.56 1065.23 401.19 1064.76 399.82 1064.76C388.18 1064.73 376.551 1064.76 364.911 1064.83C357.121 1064.88 349.331 1065.08 341.541 1065.13C334.161 1065.17 326.791 1065.06 319.411 1065.09C310.981 1065.12 302.54 1065.23 294.11 1065.31C290.81 1065.34 287.51 1065.4 284.21 1065.32C283.69 1065.31 283.18 1064.64 281.94 1063.75C283.67 1063.48 284.501 1063.25 285.331 1063.25C322.231 1063.23 359.13 1063.23 396.03 1063.25C398.24 1063.25 400.461 1063.37 402.641 1063.66C403.341 1063.75 403.951 1064.57 404.601 1065.05C404.371 1065.2 404.141 1065.36 403.911 1065.51L403.92 1065.49Z" fill="black"/>
<path d="M263.951 970.242C263.951 979.102 263.391 983.342 263.391 992.212C263.391 998.502 263.371 1004.79 263.391 1011.07C263.401 1014.78 263.481 1018.49 263.541 1022.2C263.591 1025.29 263.711 1028.38 263.711 1031.47C263.711 1034.76 263.491 1038.05 263.561 1041.34C263.661 1045.97 264.07 1050.59 264.13 1055.21C264.23 1063.47 264.181 1071.73 264.191 1079.99H272.951C272.951 1041.87 271.921 1008.36 271.921 970.242H263.951Z" fill="#EFB445"/>
<path d="M282.38 968.222C282.38 980.322 282.451 989.632 282.451 1001.37H310.491C310.491 989.082 310.17 981.892 310.17 970.242L282.391 968.222H282.38Z" fill="#E89163"/>
<path d="M404.411 972.532C404.411 970.242 404.411 972.572 404.411 970.242H384.26V1000.54C389.35 1000.54 395.24 1000.15 400.44 1000.37C405.64 1000.59 404.491 1000.24 404.451 996.882C404.351 988.762 404.42 980.652 404.42 972.532H404.411Z" fill="#E89163"/>
<path d="M318.9 970.242V1000.99C337.53 1000.99 356.181 1000.34 375.271 1000.34V970.242H318.9Z" fill="#E89163"/>
</svg>
