<svg width="432" height="1080" viewBox="0 0 432 1080" fill="none" xmlns="http://www.w3.org/2000/svg">
<path d="M336.819 110.321C339.729 110.321 342.629 110.321 345.539 110.321C345.539 118.101 345.539 125.891 345.539 133.771H406.139V110.321C407.459 110.321 408.779 110.321 410.099 110.321C410.369 112.411 410.839 114.491 410.869 116.581C411.189 139.871 411.539 163.161 411.679 186.451C412.009 245.051 412.289 303.651 412.479 362.251C412.589 398.071 412.499 433.891 412.499 469.721C412.499 475.541 412.549 481.351 412.559 487.171C412.579 499.241 412.509 511.311 412.619 523.381C412.679 529.971 413.149 536.571 413.159 543.161C413.159 548.041 412.519 552.931 412.559 557.821C412.609 564.421 413.199 571.011 413.259 577.611C413.379 589.611 413.299 601.621 413.299 613.631V970.261H403.739V960.931H387.009V970.261H377.009C376.609 967.181 378.249 964.101 377.819 960.701H373.409C359.889 960.701 346.369 960.751 332.849 960.671C329.049 960.651 325.259 960.161 321.459 959.991C319.269 959.891 317.539 960.441 317.679 963.251C317.799 965.581 317.699 967.921 317.699 970.261H310.529C310.529 968.541 310.399 966.821 310.559 965.111C310.829 962.311 310.109 960.471 306.889 960.481C298.659 960.501 290.429 960.481 281.849 960.481V970.251H272.289C272.289 852.271 272.269 734.291 272.319 616.311C272.319 606.941 272.959 597.561 273.019 588.191C273.059 582.631 272.309 577.061 272.339 571.491C272.389 563.131 272.909 554.781 273.049 546.431C273.179 538.611 273.079 530.781 273.079 522.961C273.079 508.561 273.079 494.151 273.079 479.751C273.079 434.831 273.059 389.921 273.139 345.001C273.149 338.191 273.839 331.371 273.849 324.561C273.919 279.681 273.849 234.801 273.919 189.911C273.939 180.851 274.489 171.791 274.659 162.731C274.989 145.271 275.209 127.801 275.479 110.341C276.269 110.341 277.049 110.341 277.839 110.341C278.309 111.191 279.159 112.021 279.189 112.891C279.379 117.831 279.389 122.791 279.449 127.731C279.469 129.781 279.449 131.841 279.449 133.841H336.839V110.331L336.819 110.321ZM404.759 365.181V318.611H341.769V365.181H404.759ZM375.819 377.141C374.359 377.071 373.329 376.951 372.299 376.971C363.469 377.131 354.639 377.461 345.809 377.451C336.019 377.451 326.239 377.081 316.449 377.061C315.559 377.061 313.889 378.421 313.899 379.131C313.939 386.601 314.269 394.061 314.489 401.531C314.539 403.121 314.449 404.711 314.449 406.301C314.449 412.341 314.449 418.371 314.449 424.051H375.839V377.131L375.819 377.141ZM282.159 901.761V949.371C283.139 949.441 283.799 949.541 284.449 949.521C292.099 949.311 299.759 948.871 307.409 948.901C317.849 948.931 328.279 949.321 338.719 949.521C341.259 949.571 342.559 948.461 342.419 945.661C342.229 942.091 342.309 938.501 342.389 934.911C342.609 925.271 343.039 915.631 342.969 905.991C342.959 904.571 340.679 901.951 339.419 901.941C320.449 901.681 301.469 901.761 282.159 901.761ZM375.829 773.811C375.829 758.931 375.829 744.891 375.829 730.861C375.829 728.231 374.529 727.281 371.829 727.301C357.769 727.411 343.709 727.351 329.639 727.351H314.789V773.811H375.829ZM405.449 248.751V202.341H345.839C345.759 202.661 345.599 203.041 345.599 203.411C345.579 217.611 345.619 231.811 345.519 246.001C345.499 249.351 347.559 249.551 349.939 249.531C355.049 249.481 360.169 249.391 365.279 249.291C373.209 249.121 381.129 248.891 389.059 248.761C394.269 248.681 399.479 248.741 405.449 248.741V248.751ZM345.899 482.151H404.299V435.671H345.899V482.151ZM317.549 190.811H376.239V144.031H317.549V190.811ZM282.149 784.911V832.081H339.589V784.911H282.149ZM281.029 551.591V569.971C281.029 578.211 281.179 586.461 280.959 594.691C280.869 598.201 282.009 599.261 285.499 599.211C298.919 599.041 312.339 599.141 325.769 599.141H338.479V551.591H281.039H281.029ZM374.579 844.021H318.209V890.591H374.579V844.021ZM336.869 249.161C336.669 244.991 336.349 240.791 336.299 236.581C336.179 226.521 335.899 216.451 336.269 206.411C336.429 201.891 336.959 201.781 332.249 201.771C316.199 201.761 300.149 201.771 284.099 201.771C282.939 201.771 281.779 201.901 280.229 202.001V249.151H336.879L336.869 249.161ZM337.939 668.701H281.739V716.181C297.939 716.181 313.459 716.201 328.989 716.161C330.659 716.161 332.359 715.511 333.989 715.691C336.719 715.981 338.549 714.691 338.359 712.051C338.129 708.851 337.669 705.661 337.489 702.461C337.199 697.091 336.819 691.701 336.899 686.331C336.979 680.601 337.549 674.881 337.939 668.721V668.701ZM314.309 610.901V657.351H370.489V610.901H314.309ZM404.329 551.961H348.349V599.121C352.429 598.861 356.379 598.431 360.329 598.381C367.389 598.281 374.459 598.331 381.519 598.451C385.499 598.521 389.469 599.011 393.449 599.001C396.589 599.001 399.749 598.671 402.839 598.131C403.539 598.011 404.389 596.411 404.439 595.461C404.599 592.601 404.339 589.731 404.339 586.861C404.319 575.531 404.339 564.201 404.339 551.971L404.329 551.961ZM311.359 541.001C322.519 541.001 334.029 541.021 345.549 540.971C346.959 540.971 348.369 540.361 349.779 540.391C354.689 540.511 359.589 540.861 364.499 540.971C366.849 541.021 367.979 539.861 367.929 537.271C367.799 529.581 367.879 521.891 367.879 514.211V493.841H311.359V541.011V541.001ZM347.089 715.451H403.339C403.729 707.051 404.179 699.411 404.419 691.771C404.589 686.161 404.439 680.541 404.509 674.921C404.559 670.341 403.309 668.461 399.659 668.451C383.589 668.401 367.529 668.471 351.459 668.391C348.449 668.381 347.999 670.031 348.029 672.431C348.079 676.231 347.929 680.021 348.029 683.821C348.119 687.011 348.539 690.201 348.659 693.391C348.729 695.361 348.569 697.341 348.409 699.311C347.979 704.781 347.509 710.241 347.079 715.461L347.089 715.451ZM372.659 260.701H368.699C356.619 260.701 344.549 260.701 332.469 260.701C330.479 260.701 328.489 260.631 326.499 260.631C323.359 260.621 320.209 260.631 317.159 260.631V307.591C329.529 307.591 341.619 307.611 353.709 307.581C358.989 307.561 364.289 307.141 369.539 307.461C372.059 307.611 372.639 306.811 372.639 304.741C372.649 299.791 372.639 294.841 372.639 289.891C372.639 280.391 372.639 270.901 372.639 260.711L372.659 260.701ZM403.729 831.971V827.291C403.729 814.821 403.729 802.341 403.729 789.871C403.729 784.841 403.619 784.701 398.589 784.701C382.919 784.681 367.259 784.691 351.589 784.701C350.449 784.701 349.309 784.841 348.349 784.911V831.971H403.719H403.729ZM281.259 482.281H334.929V435.321H281.259V482.281ZM280.789 365.811C296.799 365.811 311.939 365.741 327.069 365.861C330.759 365.891 332.139 364.731 332.109 360.841C332.049 352.801 332.609 344.751 332.779 336.711C332.899 330.591 332.799 324.471 332.799 318.381H280.779V365.811H280.789ZM352.819 901.731C352.819 908.211 352.789 914.171 352.819 920.141C352.849 924.321 353.009 928.491 353.029 932.671C353.039 936.841 353.189 941.041 352.819 945.181C352.519 948.471 353.739 949.901 357.049 949.411C358.799 949.151 360.619 949.201 362.399 949.221C365.119 949.261 367.849 949.541 370.559 949.481C377.359 949.311 384.159 948.951 390.969 948.781C395.079 948.671 399.199 948.761 403.509 948.761V901.901C386.729 901.601 369.999 901.861 352.809 901.751L352.819 901.731ZM280.009 191.401C289.089 191.401 297.259 191.501 305.429 191.271C306.349 191.241 307.929 189.411 307.999 188.351C308.479 180.581 308.739 172.791 308.889 165.001C309.019 158.311 308.919 151.611 308.919 143.691C299.499 143.581 289.579 143.641 280.019 143.661V191.401H280.009ZM309.799 891.621V843.961H281.759V891.621H309.799ZM280.549 259.901V308.611C289.639 308.191 298.389 307.791 307.179 307.391C307.459 301.051 307.849 295.101 307.949 289.151C308.079 280.761 307.979 272.371 308.019 263.971C308.019 261.851 307.999 259.891 305.089 259.891C297.019 259.901 288.939 259.891 280.549 259.891V259.901ZM305.209 726.891H281.739V775.361C290.139 774.911 297.839 774.501 305.209 774.101V726.891ZM380.409 494.151V540.481H404.199V494.151H380.409ZM381.199 260.921V307.131H405.099V260.921H381.199ZM380.499 610.911V657.481H403.929V610.911H380.499ZM405.589 190.831V144.021H384.079V190.831H405.589ZM302.139 424.591V377.181H281.009V425.781C288.439 425.361 295.149 424.981 302.139 424.581V424.591ZM281.709 610.521V659.091C288.709 658.711 294.999 658.451 301.279 657.931C301.999 657.871 303.119 656.441 303.169 655.601C303.369 651.911 303.229 648.201 303.229 644.491C303.229 635.701 303.259 626.901 303.269 618.111C303.269 615.581 303.269 613.051 303.269 610.511H281.699L281.709 610.521ZM281.239 542.021C288.429 541.601 295.399 541.201 302.339 540.801C299.379 524.791 301.969 509.051 300.629 493.461H281.239V542.021ZM403.729 844.281H383.579V890.781C388.669 890.781 394.059 890.131 399.189 890.991C403.229 891.661 403.799 890.481 403.759 887.131C403.659 879.011 403.729 870.901 403.729 862.781V844.281ZM403.809 773.811V727.571H383.229C383.679 743.001 384.129 758.171 384.579 773.811H403.809ZM404.659 377.691H384.999V424.151H404.659V377.691Z" fill="#FCEEE3"/>
<path d="M275.458 110.321C275.188 127.781 274.957 145.251 274.637 162.711C274.467 171.771 273.907 180.831 273.897 189.891C273.817 234.771 273.898 279.651 273.828 324.541C273.818 331.351 273.138 338.171 273.118 344.981C273.048 389.901 273.067 434.811 273.057 479.731C273.057 494.131 273.057 508.541 273.057 522.941C273.057 530.761 273.157 538.591 273.027 546.411C272.887 554.771 272.367 563.121 272.317 571.471C272.287 577.041 273.038 582.611 272.998 588.171C272.938 597.551 272.297 606.921 272.297 616.291C272.247 734.271 272.267 852.251 272.267 970.231H263.507C263.497 961.971 263.557 953.711 263.447 945.451C263.387 940.831 262.977 936.211 262.877 931.581C262.807 928.291 263.027 925.001 263.027 921.711C263.027 918.621 262.907 915.531 262.857 912.441C262.797 908.731 262.728 905.021 262.708 901.311C262.688 895.021 262.708 888.731 262.708 882.451V855.761C262.708 766.381 262.727 676.991 262.677 587.611C262.677 578.631 262.067 569.651 261.987 560.671C261.947 555.941 262.667 551.211 262.657 546.481C262.637 540.821 261.958 535.161 261.998 529.511C262.078 518.831 262.577 508.151 262.667 497.471C262.707 492.611 261.937 487.741 261.977 482.881C262.067 472.421 262.487 461.951 262.657 451.491C262.687 449.431 261.968 447.371 261.958 445.311C261.898 428.461 262.007 411.601 261.907 394.751C261.697 358.981 261.347 323.221 261.187 287.451C261.147 278.221 261.798 269.001 261.788 259.771C261.788 250.281 261.187 240.791 261.157 231.311C261.067 202.781 261.127 174.251 261.127 145.711V110.321C265.507 110.321 270.487 110.321 275.477 110.321H275.458Z" fill="#EFB445"/>
<path d="M413.288 970.241V613.611C413.288 601.601 413.378 589.601 413.248 577.591C413.178 570.991 412.598 564.401 412.548 557.801C412.508 552.921 413.157 548.031 413.147 543.141C413.137 536.551 412.657 529.961 412.607 523.361C412.507 511.291 412.568 499.221 412.548 487.151C412.548 481.331 412.487 475.521 412.487 469.701C412.487 433.881 412.578 398.061 412.468 362.231C412.278 303.631 411.998 245.031 411.668 186.431C411.538 163.141 411.177 139.851 410.857 116.561C410.827 114.471 410.358 112.391 410.088 110.301C414.978 110.301 419.868 110.301 425.208 110.301C425.208 116.951 425.308 123.561 425.178 130.171C425.058 136.431 424.478 142.691 424.468 148.951C424.398 183.321 424.477 217.681 424.397 252.051C424.377 260.041 423.698 268.021 423.708 276.011C423.708 284.511 424.228 293.011 424.378 301.521C424.418 303.571 423.678 305.621 423.678 307.671C423.638 353.451 423.647 399.231 423.647 445.011C423.647 454.301 423.647 463.601 423.647 472.891C423.647 479.371 423.738 485.851 423.628 492.331C423.438 503.001 423.058 513.671 422.878 524.341C422.758 531.331 422.788 538.321 422.878 545.321C422.948 551.341 423.308 557.361 423.328 563.391C423.348 567.801 422.878 572.221 422.878 576.631C422.848 657.301 422.857 737.971 422.857 818.641V872.421C422.857 881.571 422.958 890.721 422.828 899.871C422.728 906.941 422.158 914.021 422.128 921.091C422.098 928.051 422.658 935.011 422.668 941.971C422.668 949.431 422.997 956.801 422.817 964.251C422.767 966.221 422.538 968.271 422.518 970.251H413.308L413.288 970.241Z" fill="#FBECD1"/>
<path d="M317.677 970.241C317.677 967.901 317.766 965.561 317.656 963.231C317.516 960.421 319.247 959.871 321.437 959.971C325.237 960.141 329.037 960.631 332.827 960.651C346.347 960.741 359.867 960.681 373.387 960.681H375.087C375.527 964.071 374.407 967.841 374.807 970.921C354.357 970.921 338.127 970.231 317.677 970.231V970.241Z" fill="#E89163"/>
<path d="M281.828 970.241V960.471C290.408 960.471 298.638 960.481 306.868 960.471C310.088 960.471 310.808 962.301 310.538 965.101C310.378 966.801 310.508 968.531 310.508 970.251H281.828V970.241Z" fill="#E89163"/>
<path d="M383.277 970.241V960.911H403.728C403.728 964.031 404.248 967.141 404.248 970.241H383.277Z" fill="#E89163"/>
<path d="M254.368 884.311C249.268 883.751 244.248 882.781 239.218 882.711C224.218 882.501 209.208 882.711 194.208 882.621C158.478 882.401 122.758 882.101 87.0275 881.851C80.6175 881.801 74.2083 881.841 67.7883 881.841C48.9683 881.841 30.1377 881.841 10.9377 881.841V877.761C10.9377 860.901 10.8577 844.051 10.9777 827.191C11.0377 818.781 11.5782 810.371 11.7082 801.951C11.8382 793.471 11.6682 784.991 11.7482 776.511C11.9082 760.521 12.3476 744.541 12.3176 728.551C12.2676 700.891 11.8982 673.231 11.7482 645.571C11.6582 629.261 11.8174 612.951 11.6974 596.641C11.6274 587.311 11.1675 577.971 10.9875 568.641C10.9575 566.991 11.7074 565.341 11.6974 563.691C11.4874 539.751 11.1977 515.821 10.9377 491.891C10.6677 467.831 10.2881 443.771 10.1681 419.711C9.83814 352.651 9.62755 285.581 9.31755 218.511C9.28755 213.021 8.66759 207.531 8.60759 202.041C8.57759 198.411 9.13778 194.781 9.30778 191.141C9.42778 188.641 9.38825 186.131 9.28825 183.631C9.09825 179.101 8.61782 174.571 8.59782 170.031C8.58782 165.791 9.02802 161.551 9.29802 156.841C18.588 157.761 27.3982 158.641 36.2082 159.501C36.7382 159.551 37.268 159.571 37.798 159.551C44.458 159.291 51.1283 158.931 57.7883 158.811C60.0983 158.771 62.4282 159.551 64.7482 159.511C71.6982 159.381 78.6381 158.821 85.5881 158.821C92.6381 158.821 99.6875 159.491 106.737 159.491C114.087 159.491 121.428 158.931 128.778 158.841C132.278 158.801 135.778 159.501 139.278 159.491C144.668 159.491 150.048 159.101 155.438 159.011C157.328 158.981 159.228 159.521 161.118 159.531C172.808 159.581 184.488 159.561 196.178 159.561H222.838C231.298 159.561 239.748 159.621 248.208 159.521C250.788 159.491 253.358 159.011 256.308 158.701C255.668 400.511 255.028 642.151 254.388 884.311H254.368ZM68.2482 620.671C68.5382 619.911 68.8281 619.141 69.1281 618.381C70.3981 618.281 71.6583 618.181 73.0783 618.061C73.0783 612.011 73.0983 606.191 73.0783 600.361C73.0683 597.181 72.9374 594.011 72.9474 590.831C72.9674 584.871 73.0074 578.911 73.1574 572.951C73.1774 572.321 73.9974 571.711 74.4474 571.101C79.7374 563.951 80.7775 559.371 75.9875 551.591C73.4575 547.471 73.0883 543.771 73.0783 539.531C73.0583 530.771 73.0783 522.021 73.0783 513.261V500.061C70.9083 499.561 68.108 498.451 65.258 498.361C60.158 498.191 55.0281 498.551 49.9181 498.861C48.8681 498.921 47.7378 499.521 46.8478 500.171C43.8378 502.361 43.6879 505.781 43.6379 509.011C43.4979 517.231 43.7177 525.461 43.5177 533.681C43.4477 536.291 42.9076 539.071 41.8176 541.431C40.7076 543.831 38.3376 545.631 37.1076 548.001C34.3176 553.381 31.6074 559.061 34.1574 565.211C35.2674 567.911 37.7683 570.021 39.5783 572.451C40.6983 573.961 42.2883 575.461 42.5783 577.141C42.9583 579.341 42.0883 581.731 42.0383 584.041C41.7383 596.431 41.4781 608.821 41.3781 621.211C41.3781 622.081 42.598 623.491 43.508 623.751C50.908 625.891 58.358 623.961 65.798 623.751C67.238 623.711 68.8682 622.851 68.2482 620.681V620.671ZM145.858 318.031C147.058 318.031 147.608 317.941 148.118 318.041C152.848 319.011 158.928 313.971 160.588 308.671C162.388 302.921 159.097 297.291 154.487 294.861C148.917 291.931 143.248 291.741 137.428 295.311C131.908 298.701 129.538 305.241 132.588 311.021C135.578 316.691 140.398 318.631 145.858 318.021V318.031Z" fill="white"/>
<path d="M406.139 110.321V133.771H345.539C345.539 125.891 345.539 118.101 345.539 110.321C365.739 110.321 385.939 110.321 406.139 110.321Z" fill="#E89163"/>
<path d="M336.816 110.321V133.831H279.427C279.427 131.821 279.447 129.771 279.427 127.721C279.367 122.771 279.357 117.821 279.167 112.881C279.137 112.011 278.286 111.181 277.816 110.331C297.486 110.331 317.156 110.331 336.816 110.331V110.321Z" fill="#E89163"/>
<path d="M404.758 365.181H341.768V318.611H404.758V365.181Z" fill="#E89163"/>
<path d="M375.818 377.141V424.061H314.429C314.429 418.381 314.429 412.341 314.429 406.311C314.429 404.721 314.519 403.131 314.469 401.541C314.249 394.071 313.929 386.611 313.879 379.141C313.879 378.421 315.539 377.061 316.429 377.071C326.219 377.091 335.999 377.451 345.789 377.461C354.619 377.461 363.448 377.141 372.278 376.981C373.308 376.961 374.349 377.081 375.799 377.151L375.818 377.141Z" fill="#E89163"/>
<path d="M282.156 901.762C301.466 901.762 320.447 901.682 339.417 901.942C340.677 901.962 342.957 904.572 342.967 905.992C343.037 915.632 342.607 925.272 342.387 934.912C342.307 938.492 342.227 942.082 342.417 945.662C342.567 948.462 341.267 949.572 338.717 949.522C328.277 949.322 317.846 948.932 307.406 948.902C299.756 948.882 292.096 949.312 284.446 949.522C283.796 949.542 283.136 949.442 282.156 949.372V901.762Z" fill="#E89163"/>
<path d="M375.829 773.812H314.789V727.352H329.639C343.699 727.352 357.759 727.412 371.829 727.302C374.529 727.282 375.829 728.232 375.829 730.862C375.849 744.902 375.829 758.932 375.829 773.812Z" fill="#E89163"/>
<path d="M405.447 248.752C399.477 248.752 394.268 248.682 389.058 248.772C381.128 248.892 373.207 249.132 365.277 249.302C360.167 249.412 355.048 249.492 349.938 249.542C347.558 249.562 345.498 249.362 345.518 246.012C345.618 231.812 345.568 217.622 345.598 203.422C345.598 203.042 345.758 202.672 345.838 202.352H405.447V248.762V248.752Z" fill="#E89163"/>
<path d="M345.898 482.151V435.671H404.299V482.151H345.898Z" fill="#E89163"/>
<path d="M317.547 190.811V144.031H376.236V190.811H317.547Z" fill="#E89163"/>
<path d="M282.148 784.911H339.589V832.081H282.148V784.911Z" fill="#E89163"/>
<path d="M281.026 551.591H338.467V599.141H325.757C312.337 599.141 298.906 599.041 285.486 599.211C281.996 599.261 280.856 598.191 280.946 594.691C281.166 586.451 281.017 578.211 281.017 569.971V551.591H281.026Z" fill="#E89163"/>
<path d="M374.577 844.021V890.591H318.207V844.021H374.577Z" fill="#E89163"/>
<path d="M336.869 249.162H280.219V202.012C281.779 201.922 282.939 201.782 284.089 201.782C300.139 201.772 316.188 201.762 332.238 201.782C336.948 201.782 336.419 201.892 336.259 206.422C335.899 216.472 336.169 226.542 336.289 236.592C336.339 240.792 336.658 245.002 336.858 249.172L336.869 249.162Z" fill="#E89163"/>
<path d="M337.938 668.702C337.558 674.872 336.988 680.592 336.898 686.312C336.818 691.682 337.188 697.072 337.488 702.442C337.668 705.642 338.118 708.832 338.358 712.032C338.548 714.672 336.728 715.962 333.988 715.672C332.358 715.502 330.658 716.142 328.988 716.142C313.468 716.182 297.938 716.162 281.738 716.162V668.682H337.938V668.702Z" fill="#E89163"/>
<path d="M314.309 610.901H370.488V657.351H314.309V610.901Z" fill="#E89163"/>
<path d="M404.328 551.961C404.328 564.191 404.318 575.521 404.328 586.851C404.328 589.721 404.588 592.601 404.428 595.451C404.378 596.411 403.518 598.001 402.828 598.121C399.738 598.661 396.578 598.981 393.438 598.991C389.467 598.991 385.488 598.511 381.508 598.441C374.448 598.321 367.377 598.271 360.317 598.371C356.367 598.431 352.418 598.851 348.338 599.111V551.951H404.317L404.328 551.961Z" fill="#E89163"/>
<path d="M311.357 541.002V493.832H367.878V514.202C367.878 521.892 367.788 529.582 367.928 537.262C367.978 539.852 366.848 541.012 364.498 540.962C359.588 540.852 354.687 540.502 349.777 540.382C348.377 540.352 346.958 540.952 345.548 540.962C334.028 541.012 322.517 540.992 311.357 540.992V541.002Z" fill="#E89163"/>
<path d="M347.088 715.451C347.518 710.231 347.998 704.771 348.418 699.301C348.568 697.331 348.738 695.351 348.668 693.381C348.548 690.191 348.128 687.001 348.038 683.811C347.928 680.021 348.078 676.221 348.038 672.421C348.008 670.021 348.458 668.371 351.468 668.381C367.538 668.451 383.598 668.381 399.668 668.441C403.318 668.451 404.568 670.331 404.518 674.911C404.458 680.531 404.598 686.151 404.428 691.761C404.198 699.411 403.748 707.041 403.348 715.441H347.098L347.088 715.451Z" fill="#E89163"/>
<path d="M372.657 260.702C372.657 270.882 372.657 280.382 372.657 289.882C372.657 294.832 372.657 299.782 372.657 304.732C372.657 306.792 372.078 307.602 369.558 307.452C364.298 307.132 359.008 307.552 353.728 307.572C341.638 307.612 329.548 307.582 317.178 307.582V260.622C320.228 260.622 323.378 260.622 326.518 260.622C328.508 260.622 330.497 260.692 332.487 260.692C344.567 260.692 356.638 260.692 368.718 260.692H372.678L372.657 260.702Z" fill="#E89163"/>
<path d="M403.728 831.971H348.357V784.911C349.307 784.851 350.458 784.711 351.598 784.701C367.268 784.691 382.928 784.681 398.598 784.701C403.618 784.701 403.727 784.841 403.737 789.871C403.737 802.341 403.737 814.821 403.737 827.291V831.971H403.728Z" fill="#E89163"/>
<path d="M281.258 482.281V435.321H334.928V482.281H281.258Z" fill="#E89163"/>
<path d="M280.789 365.811V318.381H332.809C332.809 324.471 332.909 330.601 332.789 336.711C332.629 344.761 332.059 352.801 332.119 360.841C332.149 364.731 330.769 365.891 327.079 365.861C311.939 365.741 296.809 365.811 280.799 365.811H280.789Z" fill="#E89163"/>
<path d="M352.816 901.731C369.996 901.841 386.726 901.581 403.516 901.881V948.741C399.206 948.741 395.096 948.651 390.976 948.761C384.176 948.941 377.376 949.301 370.566 949.461C367.846 949.531 365.126 949.251 362.406 949.201C360.626 949.171 358.806 949.121 357.056 949.391C353.746 949.891 352.537 948.451 352.827 945.161C353.197 941.021 353.047 936.821 353.037 932.651C353.027 928.471 352.857 924.301 352.827 920.121C352.787 914.161 352.827 908.201 352.827 901.711L352.816 901.731Z" fill="#E89163"/>
<path d="M280.008 191.401V143.661C289.568 143.631 299.487 143.581 308.907 143.691C308.907 151.611 309.008 158.311 308.878 165.001C308.728 172.791 308.467 180.581 307.987 188.351C307.917 189.421 306.338 191.251 305.418 191.271C297.248 191.501 289.078 191.401 279.998 191.401H280.008Z" fill="#E89163"/>
<path d="M309.798 891.621H281.758V843.961H309.798V891.621Z" fill="#E89163"/>
<path d="M280.547 259.901C288.937 259.901 297.017 259.901 305.087 259.901C307.997 259.901 308.027 261.861 308.017 263.981C307.977 272.371 308.086 280.771 307.946 289.161C307.846 295.121 307.457 301.071 307.177 307.401C298.377 307.801 289.627 308.211 280.547 308.621V259.911V259.901Z" fill="#E89163"/>
<path d="M305.209 726.892V774.102C297.839 774.492 290.148 774.912 281.738 775.362V726.892H305.209Z" fill="#E89163"/>
<path d="M380.406 494.151H404.196V540.481H380.406V494.151Z" fill="#E89163"/>
<path d="M381.197 260.921H405.098V307.131H381.197V260.921Z" fill="#E89163"/>
<path d="M380.498 610.911H403.928V657.481H380.498V610.911Z" fill="#E89163"/>
<path d="M405.588 190.831H384.078V144.021H405.588V190.831Z" fill="#E89163"/>
<path d="M302.138 424.591C295.148 424.991 288.448 425.361 281.008 425.791V377.191H302.138V424.601V424.591Z" fill="#E89163"/>
<path d="M281.707 610.521H303.276C303.276 613.051 303.276 615.581 303.276 618.121C303.266 626.911 303.246 635.711 303.236 644.501C303.236 648.201 303.377 651.921 303.177 655.611C303.127 656.451 302.007 657.881 301.287 657.941C295.007 658.461 288.707 658.721 281.717 659.101V610.531L281.707 610.521Z" fill="#E89163"/>
<path d="M281.238 542.021V493.461H300.629C301.979 509.051 299.389 524.781 302.339 540.801C295.399 541.201 288.428 541.601 281.238 542.021Z" fill="#E89163"/>
<path d="M403.728 844.281V862.781C403.728 870.901 403.658 879.011 403.758 887.131C403.798 890.491 403.227 891.661 399.188 890.991C394.057 890.141 388.678 890.781 383.578 890.781V844.281H403.728Z" fill="#E89163"/>
<path d="M403.807 773.811H384.577C384.117 758.181 383.677 743.001 383.227 727.571H403.807V773.811Z" fill="#E89163"/>
<path d="M404.657 377.691V424.151H384.998V377.691H404.657Z" fill="#E89163"/>
<path d="M69.1183 618.382C68.8283 619.142 68.5375 619.912 68.2375 620.672C61.4875 619.532 54.7479 618.382 47.7179 617.192V578.672C48.9679 578.482 50.0983 578.322 50.8683 578.202C47.9583 575.552 45.4482 572.392 42.2082 570.532C38.3282 568.312 38.2582 565.152 37.9582 561.532C37.5182 556.142 41.1783 552.682 43.5783 548.652C47.8383 541.492 52.008 541.342 60.008 544.072C67.238 546.532 70.778 552.412 74.088 558.432C76.848 563.452 75.5274 567.112 71.4474 571.032C66.1674 576.112 60.6075 580.012 51.7775 578.022C58.0675 581.902 62.978 578.922 67.798 577.312C68.078 578.062 68.258 578.312 68.258 578.552C68.278 590.492 68.258 602.442 68.338 614.382C68.338 615.712 68.8581 617.042 69.1281 618.382H69.1183ZM60.3283 600.682C60.3283 598.032 60.6574 595.322 60.1974 592.762C59.9574 591.402 58.3283 590.302 57.3283 589.082C56.7283 590.062 55.9982 590.982 55.5382 592.022C53.0982 597.442 54.0481 602.902 55.6681 608.272C55.9281 609.142 57.4076 610.032 58.3976 610.132C58.9676 610.192 60.1482 608.712 60.2482 607.832C60.5082 605.482 60.338 603.072 60.338 600.692L60.3283 600.682Z" fill="#9FD1CF"/>
<path d="M46.668 503.601C52.838 503.601 59.278 503.491 65.708 503.721C66.598 503.751 68.1677 505.411 68.1777 506.331C68.3577 516.781 68.2881 527.231 68.2881 537.681C68.2881 538.721 68.2881 539.751 68.2881 541.551C61.4481 537.771 55.128 533.752 46.668 536.842V503.591V503.601Z" fill="#9FD1CF"/>
<path d="M146.917 316.442C140.867 316.462 136.966 312.882 136.776 307.492C136.566 301.812 141.587 294.902 145.497 295.252C154.457 296.062 159.106 298.742 158.986 305.862C158.896 311.202 154.997 316.412 146.917 316.442ZM148.016 313.022C150.396 310.402 153.106 308.632 153.896 306.242C154.836 303.402 150.146 298.742 147.216 298.632C144.936 298.552 139.826 305.202 141.046 307.772C142.016 309.832 145.066 310.912 148.026 313.022H148.016Z" fill="#9FD1CF"/>
<path d="M147.788 311.651C145.558 309.661 143.228 308.231 143.428 307.641C144.008 305.901 145.588 304.481 146.768 302.941C147.968 304.191 149.688 305.271 150.168 306.761C150.488 307.741 149.008 309.291 147.788 311.651Z" fill="#016FB3"/>
<path d="M271.466 970.241C271.576 963.531 271.716 956.821 271.786 950.121C271.906 939.491 272.026 928.871 272.056 918.241C272.076 913.281 271.825 908.321 271.815 903.361C271.805 896.251 271.895 889.141 271.945 882.031C272.015 871.791 272.146 861.561 272.166 851.321C272.206 837.301 272.206 823.291 272.146 809.271C272.106 800.731 271.816 792.201 271.826 783.671C271.836 771.311 272.086 758.951 272.126 746.591C272.156 736.941 272.016 727.281 271.976 717.631C271.936 708.011 271.906 698.401 271.936 688.781C271.976 675.541 272.126 662.311 272.166 649.071C272.226 624.161 272.246 599.261 272.256 574.351C272.286 539.201 272.246 504.041 272.336 468.891C272.386 448.501 272.716 428.111 272.796 407.721C272.956 367.851 273.015 327.981 273.155 288.111C273.185 278.461 273.446 268.821 273.496 259.171C273.616 239.541 273.666 219.901 273.756 200.271C273.846 180.651 273.916 161.021 274.076 141.401C274.156 132.031 274.445 122.651 274.655 113.281C274.675 112.501 274.766 111.731 274.866 110.431C276.356 110.571 277.676 110.701 279.256 110.851V133.481H335.626C335.956 125.971 335.755 117.291 336.105 109.171C337.685 110.921 338.196 111.831 338.296 117.541C338.346 120.171 338.506 122.801 338.666 125.431C338.826 128.061 339.046 130.691 339.266 133.661C340.536 133.551 341.646 133.451 343.256 133.301C343.256 127.421 343.246 121.631 343.256 115.851C343.256 114.391 343.225 112.911 343.485 111.491C343.585 110.921 344.436 110.481 344.936 109.981C345.206 110.111 345.476 110.251 345.756 110.381V133.041C346.946 133.331 348.036 133.831 349.126 133.831C363.996 133.851 378.876 133.801 393.746 133.771C397.676 133.771 401.606 133.771 406.076 133.771V110.421C407.846 110.331 409.106 110.271 410.746 110.191C410.886 115.561 411.086 120.681 411.136 125.801C411.356 147.121 411.516 168.431 411.706 189.751C411.826 202.321 412.036 214.891 412.086 227.451C412.286 273.491 412.416 319.531 412.626 365.571C412.726 386.851 413.055 408.131 413.105 429.411C413.225 482.971 413.236 536.531 413.296 590.101C413.326 619.371 413.345 648.641 413.405 677.911C413.445 696.541 413.596 715.171 413.616 733.801C413.636 748.421 413.496 763.031 413.516 777.651C413.526 786.981 413.756 796.311 413.786 805.641C413.826 819.531 413.816 833.421 413.766 847.311C413.716 859.821 413.496 872.331 413.506 884.841C413.506 894.301 413.866 903.761 413.886 913.221C413.906 922.141 413.556 931.061 413.586 939.981C413.616 950.061 413.756 961.761 413.926 971.841C410.476 971.841 407.496 972.241 404.046 972.241C403.996 970.011 403.546 965.771 403.576 963.541C403.596 962.191 403.336 961.031 401.786 961.021C396.886 961.011 388.795 961.121 383.775 961.191V970.221H381.976V961.501H377.596V970.221H374.775V961.091H318.436V970.221H316.046C315.996 967.941 316.055 965.651 315.855 963.391C315.765 962.401 315.166 961.451 314.806 960.481C314.426 960.571 314.035 960.651 313.655 960.741V970.231H309.676C309.926 967.151 310.165 964.071 310.445 960.651H282.275C282.105 963.981 281.946 967.101 281.786 970.231H271.426L271.466 970.241ZM310.056 144.621C311.956 152.101 311.686 159.721 311.836 167.281C311.996 175.171 311.876 183.071 311.876 190.831C314.386 191.381 315.096 190.281 315.076 188.561C315.046 185.261 314.836 181.971 314.836 178.671C314.826 168.241 314.835 157.801 314.945 147.371C314.945 146.541 315.706 145.711 316.116 144.881C316.726 145.721 317.826 146.541 317.866 147.411C318.126 151.991 318.216 156.581 318.176 161.161C318.106 170.201 317.896 179.251 317.786 188.291C317.776 189.151 318.096 190.021 318.336 191.291C337.626 191.011 356.736 190.741 376.056 190.461C376.346 174.841 375.206 159.461 376.366 143.881H280.146V191.861C289.646 191.591 298.686 191.341 307.936 191.081C309.086 175.491 307.086 159.961 310.056 144.621ZM404.226 365.271C404.436 364.271 404.586 363.901 404.586 363.521C404.616 349.731 404.586 335.941 404.676 322.151C404.686 319.811 403.916 318.751 401.506 318.721C393.896 318.641 386.286 318.391 378.686 318.351C366.666 318.281 354.635 318.331 342.275 318.331V365.261H404.226V365.271ZM281.866 948.961H342.086C342.226 948.061 342.336 947.681 342.346 947.291C342.376 933.591 342.426 919.891 342.396 906.191C342.396 904.821 341.936 903.461 341.676 902.021C327.206 902.021 313.135 902.011 299.065 902.021C294.345 902.021 289.616 902.201 284.896 902.101C282.656 902.051 281.716 902.891 281.786 905.051C281.816 905.841 281.796 906.641 281.796 907.431C281.816 915.691 281.835 923.961 281.855 932.221C281.855 937.851 281.855 943.471 281.855 948.941L281.866 948.961ZM375.536 423.781V377.521H314.596V424.661C334.666 424.371 354.736 424.081 375.536 423.781ZM375.296 773.391V727.701H315.235V774.251C335.455 773.961 355.346 773.671 375.296 773.391ZM405.195 203.331C400.955 202.071 350.436 201.381 345.916 202.611V248.991H405.195V203.321V203.331ZM311.786 891.331C332.406 891.041 353.205 890.751 374.355 890.451V844.341H318.586C318.526 845.481 318.456 846.261 318.456 847.041C318.456 859.691 318.456 872.341 318.456 885.001C318.456 887.101 318.246 889.131 315.866 891.361C313.886 883.071 315.216 875.291 314.726 867.661C314.216 859.741 314.616 851.751 314.616 843.751C312.766 843.491 312.186 844.361 312.216 846.241C312.316 852.271 312.355 858.301 312.275 864.331C312.175 873.161 311.955 881.981 311.775 891.321L311.786 891.331ZM345.976 482.251H403.655C403.905 480.431 404.275 479.021 404.275 477.611C404.315 468.381 404.275 459.141 404.275 449.911C404.275 446.491 404.326 443.061 404.396 439.641C404.446 437.081 403.375 435.791 400.655 435.781C393.575 435.731 386.495 435.511 379.405 435.421C373.415 435.341 367.435 435.341 361.445 435.331C356.335 435.321 351.226 435.331 345.976 435.331V482.271V482.251ZM339.306 785.151H282.016V831.971H339.306V785.151ZM281.815 551.821V598.701H338.266V551.821H281.815ZM335.876 249.141V202.071H280.396V249.141H335.876ZM337.976 715.791C336.596 699.761 337.155 684.351 337.525 668.871H282.065V715.791H337.976ZM314.655 658.031C333.385 657.731 351.726 657.441 370.466 657.141V610.751H314.655V658.031ZM311.506 540.951C330.036 540.671 348.886 540.401 367.996 540.111V494.391H312.126C312.126 506.101 312.176 517.571 312.096 529.041C312.076 532.791 311.726 536.541 311.496 540.951H311.506ZM348.405 715.401H403.506V668.961C395.626 668.821 388.156 668.621 380.676 668.561C371.166 668.491 361.646 668.551 352.136 668.501C349.166 668.491 348.715 668.881 348.695 671.811C348.605 686.261 348.505 700.701 348.405 715.391V715.401ZM348.686 598.471H403.646C403.796 597.361 403.956 596.721 403.956 596.091C403.926 589.881 403.856 583.671 403.836 577.451C403.816 570.041 403.776 562.621 403.876 555.211C403.906 553.231 403.276 552.201 401.266 552.081C397.976 551.881 394.696 551.511 391.416 551.471C382.946 551.381 374.476 551.441 366.006 551.441C360.396 551.441 354.796 551.441 348.686 551.441V598.461V598.471ZM348.556 784.571V832.321C367.196 831.391 385.385 832.541 403.605 831.441V785.481C385.275 784.091 367.246 785.811 348.556 784.581V784.571ZM372.605 306.761V261.091H317.275V307.531C335.575 307.271 354.005 307.011 372.605 306.751V306.761ZM334.876 435.391C316.646 435.471 299.026 434.881 281.616 435.691V482.321H334.876V435.401V435.391ZM333.126 318.451H281.155V365.271H331.976C332.526 349.391 331.286 334.051 333.126 318.451ZM352.605 948.691H403.746C403.746 944.921 403.776 941.651 403.746 938.381C403.696 934.831 403.496 931.271 403.506 927.721C403.536 920.241 403.655 912.771 403.775 905.291C403.805 903.491 402.996 902.581 401.216 902.471C397.936 902.271 394.646 901.891 391.366 901.871C381.196 901.811 371.036 901.871 360.866 901.891C358.446 901.891 356.036 901.891 353.456 901.891C353.456 907.701 353.456 912.811 353.456 917.921C353.456 922.541 353.416 927.161 353.506 931.771C353.616 937.321 354.475 942.901 352.605 948.671V948.691ZM282.256 843.921C282.106 845.461 281.866 846.751 281.866 848.041C281.856 861.741 281.886 875.441 281.866 889.141C281.866 891.061 282.256 891.971 284.576 891.861C291.846 891.511 299.126 891.471 306.396 891.251C307.506 891.221 308.605 890.871 309.485 890.711V843.931H282.256V843.921ZM280.905 260.501V308.141C289.915 307.861 298.435 307.591 307.275 307.311V260.501H280.905ZM304.766 774.421V727.341H281.826V774.421H304.766ZM380.746 611.141V657.061H403.716V611.141H380.746ZM380.826 494.491V540.021H403.775V494.491H380.826ZM404.695 306.691V261.211H381.626V306.691H404.695ZM302.266 377.461H281.266V424.791H302.266V377.461ZM302.596 657.731V610.651H281.896V658.551C288.986 658.271 295.686 658.001 302.596 657.731ZM384.256 190.671H405.485V144.401H384.256V190.671ZM403.695 844.661H383.706V890.391H403.695V844.661ZM281.676 541.091H301.116V494.011H281.676V541.091ZM385.386 377.921V423.921H404.266V377.921H385.386ZM403.636 773.321V727.881H384.246C383.006 743.291 385.436 758.271 384.646 773.321H403.646H403.636ZM405.155 193.451C404.415 193.721 403.856 194.081 403.286 194.111C398.416 194.281 393.516 194.751 388.676 194.431C383.796 194.101 379.036 195.051 374.116 194.681C364.906 193.981 355.615 194.221 346.355 194.171C340.545 194.141 334.696 194.721 328.926 194.221C323.216 193.731 317.606 194.721 311.876 194.291C301.806 193.541 291.666 193.881 281.546 193.801C281.196 193.801 280.846 194.091 280.416 194.271V197.431C281.136 197.471 281.636 197.521 282.146 197.531C294.176 197.601 306.206 197.681 318.246 197.721C331.476 197.761 344.715 197.751 357.945 197.771C369.715 197.791 381.486 197.941 393.246 197.811C397.166 197.771 401.085 197.061 405.155 196.651V193.451ZM280.956 313.881C287.596 313.881 293.796 313.861 299.996 313.881C311.776 313.931 323.556 314.041 335.346 314.051C350.566 314.071 365.786 314.101 381.006 313.971C388.126 313.911 395.235 313.441 402.355 313.201C404.455 313.131 405.215 312.331 404.445 310.421H280.956V313.871V313.881ZM403.605 543.771H281.636C281.816 544.951 281.976 545.931 282.136 547.001C283.846 547.101 285.295 547.261 286.735 547.271C296.915 547.311 307.096 547.321 317.266 547.321C330.366 547.321 343.465 547.321 356.565 547.321C366.745 547.321 376.916 547.411 387.096 547.291C391.966 547.231 396.826 546.751 401.706 546.541C403.456 546.471 404.136 545.771 403.616 543.781L403.605 543.771ZM282.166 660.611C280.996 663.861 282.706 664.241 285.056 664.251C296.956 664.251 308.866 664.341 320.766 664.361C332.416 664.381 344.056 664.361 355.706 664.381C365.886 664.391 376.066 664.501 386.246 664.421C391.116 664.381 395.995 664.051 400.855 663.721C401.985 663.641 403.966 664.051 403.596 661.951C403.506 661.431 401.716 660.901 400.706 660.891C396.346 660.861 391.986 661.131 387.636 661.111C372.166 661.071 356.696 660.971 341.226 660.881C329.776 660.811 318.326 660.681 306.876 660.621C298.716 660.581 290.556 660.621 282.166 660.621V660.611ZM282.256 897.361C283.896 897.471 285.326 897.651 286.756 897.651C297.596 897.681 308.435 897.671 319.275 897.671C331.445 897.671 343.616 897.651 355.786 897.671C367.816 897.691 379.856 897.841 391.886 897.731C395.766 897.701 399.626 897.061 403.476 896.701V894.151H281.846C281.976 895.201 282.106 896.191 282.256 897.351V897.361ZM382.876 429.241C382.456 429.021 381.316 427.931 380.166 427.921C365.886 427.751 351.616 427.771 337.336 427.661C319.816 427.521 302.306 427.301 284.796 427.141C283.666 427.131 282.546 427.281 281.396 427.361C281.796 430.681 281.785 430.821 284.155 430.871C289.175 430.981 294.205 430.931 299.235 430.951C311.145 431.001 323.066 431.061 334.976 431.081C350.066 431.101 365.155 431.171 380.235 431.041C387.355 430.981 394.466 430.491 401.586 430.281C403.656 430.221 404.485 429.401 404.155 427.791C399.295 427.791 394.596 427.651 389.916 427.851C387.716 427.941 385.546 428.691 382.876 429.241ZM403.655 779.691C403.535 777.321 402.586 776.981 400.786 777.031C392.456 777.251 384.126 777.361 375.786 777.391C363.486 777.421 351.196 777.371 338.896 777.311C333.996 777.291 329.085 777.311 324.195 777.021C319.415 776.731 314.696 777.461 309.846 777.051C301.106 776.321 292.256 776.771 283.456 776.761C282.976 776.761 282.496 777.021 281.916 777.191C281.996 778.221 282.066 779.111 282.166 780.311C283.986 780.421 285.686 780.611 287.386 780.611C297.836 780.641 308.285 780.631 318.735 780.631C331.445 780.631 344.156 780.611 356.866 780.631C368.906 780.651 380.945 780.801 392.985 780.721C396.485 780.701 399.986 780.071 403.646 779.701L403.655 779.691ZM377.976 539.951V494.671H371.916V539.951H377.976ZM338.485 482.721C340.695 482.351 342.286 482.091 343.846 481.831V435.141C341.816 435.291 340.185 435.421 338.485 435.551V482.731V482.721ZM340.926 551.641V598.261C342.016 598.451 343.035 598.661 344.065 598.811C345.815 599.071 346.336 598.301 346.286 596.561C346.096 589.121 345.995 581.671 345.945 574.231C345.895 566.771 345.936 559.311 345.936 551.641H340.926ZM307.326 727.121V774.191C308.846 774.071 310.506 773.941 312.496 773.791V727.411C311.066 727.331 309.556 727.251 307.326 727.131V727.121ZM281.996 837.101C281.876 837.421 281.756 837.741 281.626 838.061C282.196 838.491 282.766 839.301 283.336 839.301C289.006 839.281 294.666 839.051 300.336 839.021C308.236 838.981 316.135 839.051 324.025 839.071C329.955 839.091 335.876 839.181 341.806 839.091C347.746 839.001 353.686 838.591 359.616 838.561C372.426 838.521 385.236 838.591 398.036 838.731C399.656 838.751 401.266 839.451 402.886 839.811C403.076 839.851 403.295 839.791 403.565 839.771V837.091H281.996V837.101ZM282.126 603.441C281.936 603.921 281.755 604.411 281.565 604.891C282.275 605.311 282.976 606.071 283.686 606.081C287.236 606.141 290.796 605.971 294.346 605.921C302.636 605.811 310.936 605.681 319.226 605.651C326.726 605.631 334.216 605.791 341.716 605.761C355.166 605.701 368.626 605.541 382.076 605.461C389.246 605.421 396.426 605.461 403.846 605.461C403.566 604.741 403.436 604.111 403.306 604.111C362.916 603.861 322.516 603.651 282.126 603.431V603.441ZM311.646 424.071C311.646 418.861 311.626 413.871 311.646 408.891C311.686 399.811 311.735 390.741 311.815 381.661C311.855 377.081 311.226 376.521 306.806 377.501C306.476 393.161 308.556 408.871 306.326 424.711C307.986 424.511 309.396 424.341 311.646 424.071ZM381.706 890.731V844.041C380.016 844.241 378.876 844.371 377.346 844.541V890.261C378.406 890.371 379.816 890.521 381.706 890.721V890.731ZM403.235 955.741C403.465 955.591 403.696 955.431 403.926 955.281C403.276 954.801 402.666 953.981 401.966 953.891C399.776 953.601 397.555 953.481 395.355 953.481C358.455 953.461 321.555 953.461 284.655 953.481C283.825 953.481 282.996 953.721 281.266 953.981C282.506 954.871 283.016 955.541 283.536 955.551C286.836 955.631 290.136 955.571 293.436 955.541C301.866 955.471 310.305 955.361 318.735 955.321C326.115 955.291 333.486 955.411 340.866 955.361C348.656 955.321 356.445 955.111 364.235 955.061C375.875 954.991 387.506 954.961 399.146 954.991C400.516 954.991 401.876 955.471 403.246 955.721L403.235 955.741ZM403.616 721.821C403.666 721.441 403.716 721.061 403.766 720.681C395.806 719.691 387.765 720.241 379.775 720.151C371.545 720.051 363.326 720.121 355.096 720.131C347.006 720.131 338.905 720.161 330.815 720.161C322.585 720.161 314.356 720.071 306.136 720.161C298.066 720.251 289.965 719.721 281.815 720.451C281.975 721.311 282.015 721.791 282.065 721.791C322.585 721.821 363.106 721.821 403.626 721.821H403.616ZM309.516 260.771V306.631C313.676 307.871 314.145 307.571 314.105 303.991C314.005 294.611 313.886 285.221 313.806 275.841C313.766 270.861 313.806 265.891 313.806 260.771H309.516ZM378.346 377.711C378.346 390.011 378.346 401.721 378.346 413.421C378.346 415.801 378.225 418.171 378.235 420.551C378.235 422.121 378.066 423.951 380.476 423.931C382.726 423.901 382.346 422.161 382.416 420.751C382.446 420.221 382.376 419.691 382.376 419.161C382.546 409.941 382.756 400.721 382.896 391.501C382.966 386.961 382.905 382.431 382.905 377.481C381.265 377.561 379.876 377.631 378.336 377.711H378.346ZM306.876 610.511V657.811C307.566 657.811 308.326 657.881 309.076 657.791C309.826 657.701 310.546 657.451 310.956 657.351V610.611C310.136 610.481 309.626 610.341 309.116 610.331C308.466 610.331 307.806 610.431 306.876 610.521V610.511ZM381.235 773.221C380.485 757.851 383.136 742.821 381.366 727.831C378.516 727.621 377.395 728.421 377.445 731.171C377.585 739.071 377.425 746.981 377.405 754.881C377.385 760.931 377.405 766.991 377.405 773.211H381.235V773.221ZM304.476 494.111V540.891C305.766 540.791 307.356 540.671 308.596 540.581V493.811C307.346 493.901 306.196 493.991 304.476 494.111ZM344.866 668.871C341.146 668.061 340.856 669.641 340.886 671.801C340.996 681.641 341.046 691.481 341.096 701.321C341.116 706.011 341.096 710.701 341.096 715.561H344.866V668.881V668.871ZM345.016 785.281C342.056 784.721 341.726 785.011 341.716 788.001C341.696 799.061 341.646 810.111 341.616 821.171C341.616 824.681 341.616 828.201 341.616 831.701C345.396 831.681 346.166 830.861 345.516 827.931C345.346 827.171 344.815 826.441 344.815 825.691C344.835 819.271 344.966 812.851 344.996 806.431C345.036 799.491 344.996 792.541 344.996 785.281H345.016ZM345.565 902.161V948.751C346.755 948.871 347.845 948.991 349.195 949.131V901.841C348.555 901.901 347.275 902.011 345.565 902.161ZM375.855 261.451C375.495 276.811 376.876 291.711 375.506 306.851C376.226 306.801 377.326 306.721 379.136 306.581V261.451H375.855ZM339.166 318.031C337.316 318.341 336.226 318.521 335.746 318.611V364.701C338.356 365.591 339.066 365.171 339.036 362.801C338.946 354.121 339.115 345.441 339.155 336.761C339.185 330.731 339.155 324.691 339.155 318.031H339.166ZM343.086 202.131C340.216 201.701 339.956 203.191 339.976 204.941C340.046 210.301 340.175 215.671 340.155 221.031C340.125 229.991 339.996 238.951 339.936 247.921C339.936 248.271 340.195 248.621 340.405 249.151C341.425 248.971 342.406 248.801 343.086 248.681V202.131ZM381.886 143.911C378.676 143.631 378.876 145.221 378.896 146.931C378.976 153.791 378.986 160.651 378.956 167.501C378.926 174.101 378.796 180.701 378.756 187.301C378.746 188.971 378.476 191.001 381.886 190.221V143.901V143.911ZM337.366 371.951C338.486 372.121 339.615 372.451 340.735 372.441C348.375 372.381 356.016 372.211 363.646 372.161C375.386 372.091 387.126 372.031 398.866 372.111C400.306 372.111 401.736 373.021 403.176 373.481C403.506 373.581 403.876 373.561 404.506 373.621C404.376 372.491 404.265 371.531 404.155 370.621C380.085 369.581 339.735 369.941 337.355 371.951H337.366ZM346.046 137.081C345.996 137.551 345.936 138.011 345.886 138.481C347.086 138.631 348.285 138.911 349.485 138.901C353.165 138.851 356.856 138.581 360.536 138.601C371.466 138.641 382.406 138.701 393.336 138.901C397.456 138.981 401.945 137.281 405.655 141.751V137.131C385.645 136.281 365.846 137.091 346.046 137.091V137.081ZM374.155 610.771V656.971C374.775 657.021 375.506 657.071 376.366 657.141C376.666 641.781 376.956 626.591 377.256 611.141C376.566 611.061 375.565 610.941 374.155 610.771ZM343.206 139.051C343.246 138.571 343.296 138.081 343.336 137.601C342.046 137.341 340.746 136.861 339.456 136.861C333.686 136.871 327.916 137.101 322.146 137.101C312.916 137.101 303.685 136.981 294.445 136.901C290.095 136.861 285.746 136.771 281.396 136.821C280.816 136.821 280.246 137.511 279.676 137.881C280.136 138.401 280.516 139.211 281.086 139.381C281.926 139.641 282.916 139.511 283.836 139.461C286.346 139.321 288.855 138.991 291.355 139.011C299.385 139.071 307.426 139.331 315.456 139.361C321.366 139.381 327.285 139.141 333.195 139.061C336.535 139.011 339.866 139.061 343.206 139.061V139.051ZM280.766 253.361C281.206 255.501 281.565 255.821 283.355 255.791C286.915 255.731 290.465 255.661 294.025 255.601C302.325 255.461 310.616 255.251 318.916 255.221C326.286 255.191 333.646 255.381 341.016 255.421C341.766 255.421 342.506 254.981 343.256 254.751C343.216 254.361 343.166 253.981 343.126 253.591C322.456 253.311 301.776 253.691 280.766 253.371V253.361ZM403.985 486.811C399.835 486.811 396.175 486.811 392.525 486.811C388.815 486.811 385.115 486.791 381.405 486.791C377.695 486.791 373.996 486.791 370.286 486.811C366.576 486.811 362.876 486.841 359.166 486.841C355.456 486.841 351.756 486.751 348.046 486.821C344.556 486.891 340.996 486.411 337.586 487.751C338.966 488.441 340.335 488.741 341.695 488.711C347.625 488.571 353.546 488.181 359.476 488.161C372.396 488.121 385.306 488.211 398.226 488.341C399.946 488.361 401.665 488.901 403.605 489.241C403.655 488.941 403.766 488.201 403.976 486.811H403.985ZM281.336 370.561C281.166 370.921 280.996 371.281 280.826 371.641C281.556 372.031 282.285 372.731 283.025 372.741C286.445 372.811 289.876 372.681 293.296 372.651C301.846 372.581 310.406 372.511 318.956 372.451C323.566 372.421 328.186 372.451 332.796 372.351C333.656 372.331 334.516 371.881 335.376 371.621C335.316 371.261 335.256 370.911 335.206 370.551H281.346L281.336 370.561ZM404.956 253.951C402.146 253.771 399.946 253.521 397.756 253.511C381.176 253.471 364.596 253.481 348.006 253.511C347.286 253.511 346.566 253.961 345.846 254.201C350.726 254.781 355.446 254.771 360.166 254.791C373.246 254.841 386.316 254.951 399.396 254.921C401.416 254.921 403.006 255.321 404.296 256.871C404.396 256.991 404.726 256.911 405.166 256.941C405.096 255.881 405.026 254.871 404.966 253.941L404.956 253.951ZM282.016 487.111C281.856 487.441 281.695 487.781 281.525 488.111C282.255 488.391 282.986 488.911 283.706 488.901C287.916 488.871 292.126 488.641 296.336 488.631C308.566 488.601 320.806 488.651 333.036 488.631C333.666 488.631 334.306 488.241 335.376 487.891C332.316 486.641 289.416 486.191 282.016 487.111Z" fill="black"/>
<path d="M253.937 970.242C253.977 956.312 254.007 942.392 254.077 928.462C254.127 916.812 254.237 905.172 254.277 893.522C254.277 891.712 254.027 889.902 253.887 887.922C249.027 888.142 244.427 888.462 239.827 888.542C226.347 888.792 212.857 888.972 199.377 889.142C176.547 889.432 153.727 889.682 130.897 889.952C120.027 890.082 109.167 890.332 98.2972 890.302C87.5572 890.272 76.8167 889.882 66.0667 889.812C55.3567 889.752 44.6468 889.912 33.9368 889.952C27.4068 889.972 20.8672 890.001 14.3372 889.911C12.3872 889.881 10.4366 889.472 8.48661 889.212C8.24661 889.182 7.88693 889.052 7.80693 888.872C5.77693 884.352 -0.67323 881.932 1.39677 875.462C1.34677 855.982 1.39661 836.502 1.23661 817.032C1.06661 797.312 0.597043 777.592 0.427043 757.882C0.297043 742.872 0.497043 727.862 0.427043 712.862C0.387043 702.972 0.0573945 693.082 0.0373945 683.202C0.00739452 668.852 0.176809 654.511 0.186809 640.161C0.186809 631.351 -0.0428789 622.541 0.00712108 613.731C0.0671211 601.861 0.307043 589.991 0.427043 578.111C0.567043 563.801 0.636652 549.481 0.776652 535.171C0.876652 525.691 1.08657 516.212 1.19657 506.732C1.33657 493.752 1.40739 480.761 1.53739 467.781C1.80739 439.451 2.05724 411.122 2.37724 382.792C2.53724 368.832 2.94665 354.871 3.02665 340.911C3.08665 330.211 2.70732 319.501 2.70732 308.801C2.70732 295.171 2.87657 281.531 2.94657 267.901C3.03657 251.631 3.07728 235.352 3.16728 219.082C3.24728 206.272 3.41732 193.472 3.45732 180.662C3.47732 173.802 3.28708 166.942 3.21708 160.082C3.20708 158.902 3.29708 157.701 3.46708 156.541C3.91708 153.521 4.09712 153.532 7.25712 154.112C9.32712 154.492 11.4867 154.782 13.5667 154.602C18.5367 154.172 23.4766 153.341 28.4466 152.871C31.7166 152.561 35.0169 152.512 38.3069 152.492C45.6369 152.442 52.9672 152.382 60.2972 152.502C65.0172 152.582 69.7266 153.042 74.4466 153.192C76.6566 153.262 78.8772 152.992 81.0872 152.942C86.7372 152.812 92.3969 152.672 98.0569 152.612C109.097 152.512 120.147 152.382 131.187 152.422C142.097 152.452 153.007 152.732 163.907 152.772C167.587 152.792 171.277 152.312 174.957 152.252C178.737 152.192 182.517 152.411 186.297 152.431C189.587 152.451 192.887 152.321 196.177 152.341C205.497 152.381 214.827 152.471 224.147 152.511C231.937 152.541 239.727 152.442 247.507 152.572C250.367 152.622 253.217 153.162 256.277 153.502C256.527 139.332 256.777 125.072 257.037 110.542H261.047C261.047 118.602 261.017 126.531 261.047 134.451C261.107 147.391 261.227 160.332 261.297 173.282C261.427 196.872 261.557 220.452 261.677 244.042C261.787 265.102 261.907 286.151 261.987 307.211C262.027 317.521 261.957 327.832 262.007 338.142C262.047 346.802 262.237 355.451 262.257 364.111C262.317 386.531 262.297 408.941 262.367 431.361C262.437 451.891 262.647 472.421 262.687 492.941C262.717 511.731 262.537 530.521 262.557 549.311C262.567 562.771 262.817 576.232 262.847 589.702C262.867 602.742 262.687 615.792 262.697 628.832C262.697 638.082 262.907 647.332 262.977 656.582C263.007 659.732 262.907 662.872 262.887 666.022C262.807 675.472 262.657 684.922 262.697 694.372C262.747 705.502 262.987 716.622 263.107 727.752C263.207 736.782 263.287 745.822 263.297 754.852C263.327 772.152 263.337 789.452 263.317 806.742C263.297 825.112 263.177 843.482 263.187 861.852C263.187 876.142 263.367 890.422 263.377 904.712C263.397 925.102 263.347 945.492 263.337 965.882C263.337 967.342 263.417 968.792 263.457 970.252H253.897L253.937 970.242ZM11.1067 881.302C16.5667 881.302 21.4169 881.302 26.2669 881.302C38.0069 881.272 49.7574 881.191 61.4974 881.221C69.4274 881.241 77.3574 881.512 85.2874 881.522C95.5874 881.532 105.877 881.342 116.177 881.362C121.307 881.362 126.447 881.782 131.577 881.792C144.777 881.832 157.977 881.662 171.167 881.752C185.587 881.852 200.007 882.112 214.427 882.392C225.287 882.602 236.137 882.922 246.987 883.302C249.297 883.382 251.587 883.882 253.977 884.202C254.677 642.282 255.387 400.692 256.087 159.442C252.767 159.442 249.757 159.442 246.747 159.442C242.407 159.442 238.057 159.422 233.717 159.442C218.517 159.502 203.317 159.552 188.117 159.642C182.507 159.672 176.897 159.932 171.297 159.892C159.857 159.812 148.417 159.551 136.977 159.451C126.447 159.361 115.917 159.411 105.387 159.341C97.627 159.291 89.8775 159.072 82.1175 159.052C76.9175 159.042 71.7169 159.312 66.5169 159.352C57.4269 159.422 48.3471 159.492 39.2571 159.412C35.4671 159.382 31.677 158.951 27.887 158.701C21.767 158.301 15.6574 157.901 9.24736 157.481C9.24736 163.191 9.26736 168.212 9.24736 173.242C9.19736 186.352 9.0772 199.462 9.0872 212.562C9.1072 225.412 9.26673 238.262 9.35673 251.112C9.39673 255.992 9.40732 260.861 9.45732 265.741C9.51732 271.281 9.65728 276.821 9.66728 282.361C9.67728 289.741 9.5372 297.121 9.5872 304.491C9.6272 310.021 9.97712 315.542 10.0071 321.072C10.0571 329.502 9.90654 337.922 9.90654 346.352C9.90654 355.622 9.99739 364.881 10.0374 374.151C10.1074 391.381 10.0966 408.601 10.2366 425.831C10.3766 442.871 10.7172 459.911 10.8772 476.961C10.9872 488.471 10.8769 499.991 11.0169 511.501C11.1469 521.691 11.6268 531.882 11.7268 542.072C11.8968 560.422 11.8768 578.781 11.9768 597.132C12.0468 609.002 12.2474 620.882 12.2874 632.752C12.3374 648.382 12.2874 664.002 12.2874 679.632C12.2874 690.452 12.4067 701.272 12.3567 712.102C12.3067 723.052 12.0466 733.992 11.9866 744.942C11.9266 758.202 12.1173 771.472 11.9573 784.732C11.7573 801.752 11.2574 818.762 11.0374 835.782C10.9074 846.102 11.0767 856.432 11.1067 866.752C11.1167 871.492 11.1067 876.232 11.1067 881.292V881.302Z" fill="black"/>
<path d="M67.946 618.521V577.121C60.986 581.771 54.5367 580.831 47.8367 577.701V617.871C52.8167 618.311 57.636 618.741 62.446 619.161C63.236 619.231 64.0466 619.191 64.7966 619.401C66.3566 619.841 68.1167 620.461 67.9167 622.421C67.7267 624.321 66.0361 624.081 64.5261 624.161C59.4661 624.421 54.4062 625.171 49.3562 625.111C46.8562 625.081 44.0063 624.181 41.9763 622.751C39.8963 621.281 41.6664 619.551 42.8464 618.761C42.4764 616.651 41.916 614.901 41.906 613.151C41.886 601.621 41.9367 590.081 42.0867 578.551C42.1167 576.251 41.466 574.691 39.656 573.141C37.496 571.291 35.5664 569.021 34.0564 566.611C33.1464 565.161 32.826 563.071 32.946 561.311C33.456 553.831 36.1265 547.131 41.1765 541.521C42.4165 540.141 42.9268 538.761 42.9568 536.921C43.1268 527.001 43.4063 517.081 43.6863 507.161C43.7363 505.251 43.9665 503.351 44.1765 500.551C46.6965 503.561 46.3762 506.241 46.3962 508.751C46.4662 517.971 46.4265 527.191 46.4265 537.271C54.9465 533.091 61.2065 537.331 67.9265 541.691V504.201C66.5065 504.201 64.9467 504.251 63.3767 504.191C59.1667 504.021 54.9566 503.811 50.7566 503.581C50.2366 503.551 49.6161 503.461 49.2361 503.161C48.3661 502.471 47.6162 501.631 46.8162 500.851C47.7262 500.231 48.5866 499.161 49.5466 499.071C53.3266 498.691 57.1365 498.451 60.9265 498.461C64.4865 498.471 68.0462 498.861 71.6062 499.121C73.7562 499.281 74.4662 500.581 73.8162 502.581C73.3462 504.021 72.9968 505.581 72.9968 507.081C73.0068 519.491 73.0561 531.901 73.2761 544.311C73.3061 545.851 74.1567 547.561 75.0867 548.881C79.1567 554.631 81.2866 563.141 76.5466 568.751C73.3066 572.581 73.0464 576.771 73.0964 581.301C73.1964 590.161 73.1768 599.021 73.2468 607.881C73.2668 610.001 73.3966 612.111 73.5066 614.221C73.7366 618.491 73.366 618.851 67.946 618.531V618.521ZM57.7566 578.861C59.5566 578.161 61.6469 577.671 63.3669 576.591C65.9269 574.971 68.3264 573.061 70.5964 571.051C76.0264 566.251 76.4668 562.831 72.7068 556.721C72.4268 556.271 72.1867 555.801 71.9167 555.341C68.6367 549.741 64.2767 545.611 57.8767 543.491C52.0667 541.561 49.0368 542.891 45.9568 546.601C44.1968 548.721 42.6767 551.061 41.1267 553.361C38.0167 557.961 37.2264 563.081 39.8064 567.921C43.4564 574.771 50.3468 576.961 57.7468 578.871L57.7566 578.861Z" fill="black"/>
<path d="M146.196 291.921C151.876 291.781 158.407 295.911 160.397 300.501C162.517 305.411 161.587 310.711 157.337 314.611C152.417 319.131 146.527 319.801 140.327 317.791C137.127 316.751 134.477 314.991 132.597 311.981C128.627 305.611 130.887 297.771 137.837 294.881C140.567 293.751 143.417 292.901 146.207 291.921H146.196ZM137.446 307.211C136.846 311.101 141.047 316.171 146.427 316.361C152.497 316.571 158.307 311.301 158.417 305.641C158.517 300.221 153.977 296.171 148.187 295.901C141.417 295.591 137.686 301.991 137.446 307.201V307.211Z" fill="black"/>
<path d="M60.1463 610.902C58.0563 610.312 56.6161 609.912 55.2361 609.522C53.9761 603.672 53.5362 598.112 54.8562 592.432C55.2962 590.532 55.837 588.862 57.867 589.152C59.797 589.432 60.9468 591.042 60.9568 593.172C60.9668 595.682 61.0963 598.192 60.9763 600.692C60.8263 603.902 60.466 607.102 60.156 610.902H60.1463Z" fill="black"/>
<path d="M145.727 311.801C145.007 311.531 143.517 311.111 142.147 310.461C140.287 309.581 139.877 308.061 140.617 306.171C141.277 304.461 141.817 302.691 142.567 301.021C142.867 300.351 143.526 299.761 144.156 299.351C146.206 298.051 149.017 298.281 151.087 300.181C153.157 302.091 154.797 304.411 154.117 307.471C153.527 310.151 151.427 311.201 148.927 311.601C148.147 311.721 147.347 311.701 145.727 311.801ZM144.077 309.261C146.067 309.171 148.187 310.901 149.737 308.561C150.297 307.721 150.227 305.911 149.667 305.051C149.117 304.221 147.297 303.381 146.517 303.701C144.427 304.571 143.727 306.551 144.087 309.251L144.077 309.261Z" fill="black"/>
<path d="M280.456 110.521V85.8014C282.016 85.7114 283.176 85.5714 284.326 85.5714C300.376 85.5614 316.426 85.5514 332.476 85.5714C337.186 85.5714 336.656 85.6814 336.496 90.2114C336.256 96.9714 336.296 103.751 336.396 110.521H345.826C345.826 102.751 345.826 94.9914 345.836 87.2214C345.836 86.8414 346.006 86.4714 346.076 86.1514H405.686V110.521H412.116C412.046 97.1014 411.985 83.6714 411.905 70.2514C411.775 46.9614 411.416 23.6714 411.096 0.381427C411.066 -1.70857 410.596 2.07143 410.326 -0.0185733C409.006 -0.0185733 407.686 -0.0185733 406.366 -0.0185733V17.5614H345.766C345.766 9.68143 345.766 7.76143 345.766 -0.0185733C342.856 -0.0185733 339.956 -0.0185733 337.046 -0.0185733V17.6214H279.655C279.655 15.6114 279.675 13.5614 279.655 11.5114C279.595 6.56143 279.586 4.93143 279.396 -0.00857329C279.366 -0.878573 278.516 0.841427 278.046 -0.00857329C277.256 -0.00857329 276.476 -0.00857329 275.686 -0.00857329C275.416 17.4514 275.186 29.0514 274.866 46.5214C274.696 55.5814 274.136 64.6414 274.126 73.7014C274.106 85.9814 274.096 98.2514 274.086 110.531H280.445L280.456 110.521ZM384.306 27.8314H405.815V74.6414H384.306V27.8314ZM317.775 27.8414H376.466V74.6214H317.775V27.8414ZM280.246 27.4714C289.806 27.4414 299.726 27.3914 309.146 27.5014C309.146 35.4214 309.246 42.1214 309.116 48.8114C308.966 56.6014 308.706 64.3914 308.226 72.1614C308.156 73.2314 306.575 75.0614 305.655 75.0814C297.485 75.3114 289.315 75.2114 280.235 75.2114V27.4714H280.246Z" fill="#FCEEE3"/>
<path d="M411.905 70.2512C411.985 83.6712 412.046 97.1012 412.116 110.521H424.676C424.696 84.6012 424.656 58.6812 424.716 32.7712C424.726 26.5112 425.306 20.2512 425.426 13.9912C425.556 7.38119 425.456 6.64119 425.456 -0.00880766H410.336C410.606 2.08119 411.075 -1.69881 411.105 0.391192C411.425 23.6812 411.776 46.9712 411.916 70.2612L411.905 70.2512Z" fill="#FBECD1"/>
<path d="M406.366 -0.00878906V17.5712H345.766C345.766 9.69121 345.766 7.77121 345.766 -0.00878906C365.966 -0.00878906 386.166 -0.00878906 406.366 -0.00878906Z" fill="#E89163"/>
<path d="M337.057 -0.0086758V17.6313H279.667C279.667 15.6213 279.687 13.5713 279.667 11.5213C279.607 6.57133 279.596 4.94132 279.406 0.00132421C279.376 -0.868676 278.527 0.851324 278.057 0.00132421C297.727 0.00132421 317.397 0.00132421 337.057 0.00132421V-0.0086758Z" fill="#E89163"/>
<path d="M317.777 74.6213V27.8413H376.468V74.6213H317.777Z" fill="#E89163"/>
<path d="M406.558 110.851C406.558 102.781 405.688 94.3814 405.688 86.1514H346.078C345.998 86.4714 345.838 86.8514 345.838 87.2214C345.828 94.9914 345.838 102.751 345.828 110.521L406.558 110.851Z" fill="#E89163"/>
<path d="M336.388 110.521C336.298 103.751 336.247 96.9713 336.487 90.2113C336.647 85.6913 337.178 85.5813 332.468 85.5713C316.418 85.5613 300.367 85.5713 284.317 85.5713C283.157 85.5713 281.997 85.7013 280.447 85.8013C280.447 94.1013 279.277 102.341 279.277 110.521H336.388Z" fill="#E89163"/>
<path d="M280.247 75.2114V27.4714C289.807 27.4414 299.726 27.3914 309.146 27.5014C309.146 35.4214 309.247 42.1214 309.117 48.8114C308.967 56.6014 308.707 64.3914 308.227 72.1614C308.157 73.2314 306.576 75.0614 305.656 75.0814C297.486 75.3114 289.316 75.2114 280.236 75.2114H280.247Z" fill="#E89163"/>
<path d="M405.816 74.6415H384.307V27.8315H405.816V74.6415Z" fill="#E89163"/>
<path d="M257.047 111.821L261.077 112.231C260.987 94.4112 261.667 74.8912 261.567 57.0712C261.497 44.1312 261.377 31.1912 261.317 18.2412C261.277 10.3112 261.317 8.05121 261.317 -0.00878906H257.317C257.057 14.5312 256.807 23.1312 256.557 37.3012C256.487 37.3012 256.407 37.2812 256.337 37.2712C256.437 38.1912 256.517 39.1112 256.557 40.0412C256.627 41.6912 256.537 43.3712 256.337 45.0712C256.277 66.8812 257.127 90.0112 257.067 111.831L257.047 111.821Z" fill="black"/>
<path d="M279.257 112.231C279.257 104.071 280.627 94.1714 280.627 85.8814H336.106V110.531L339.267 133.661C339.277 131.771 340.387 106.741 340.387 104.851C340.407 99.4914 340.277 94.1214 340.207 88.7614C340.187 87.0014 340.446 85.5114 343.316 85.9514C343.316 94.1714 343.307 105.111 343.307 113.311L345.767 112.081C345.767 104.001 346.156 94.4214 346.156 86.4414C350.676 85.2114 401.197 85.9014 405.437 87.1614C405.437 95.0214 406.097 103.911 406.097 111.671L411.077 121.301C411.017 108.981 412.077 85.9114 411.967 73.5914C411.767 52.2714 411.606 30.9614 411.396 9.64139C411.346 4.52139 411.147 5.38139 411.007 0.021389C409.367 0.101389 408.117 -0.068611 406.337 0.021389V17.6214C401.867 17.6214 397.937 17.6214 394.007 17.6214C379.137 17.6514 364.257 17.7014 349.387 17.6814C348.297 17.6814 347.217 17.1814 346.017 16.8914V-0.00861096C345.747 -0.138611 345.476 0.121389 345.196 -0.00861096C344.686 0.491389 343.847 -0.578611 343.747 -0.00861096C343.487 1.41139 343.517 -1.79861 343.517 -0.338611C343.497 5.44139 343.517 11.2314 343.517 17.1114C341.907 17.2514 340.786 17.3514 339.526 17.4714C339.306 14.4914 339.087 11.8714 338.927 9.24139C338.767 6.61139 338.597 3.98139 338.557 1.35139C338.457 -4.35861 338.486 1.75139 336.906 0.00138903C336.556 8.12139 336.217 9.79139 335.887 17.3014H279.517V-0.00861096C277.927 -0.158611 276.617 0.131389 275.127 -0.00861096C275.027 1.29139 274.937 -3.68861 274.917 -2.91861C274.707 6.45139 274.417 15.8214 274.337 25.2014C274.167 44.8214 274.107 64.4514 274.017 84.0714C273.977 92.8914 273.946 101.701 273.906 110.521L279.287 112.231H279.257ZM405.396 80.4514C401.326 80.8714 397.406 81.5714 393.486 81.6114C381.716 81.7314 369.957 81.5914 358.187 81.5714C344.957 81.5414 331.716 81.5614 318.486 81.5214C306.456 81.4814 294.426 81.4014 282.396 81.3314C281.886 81.3314 281.387 81.2714 280.667 81.2314V78.0714C281.097 77.8814 281.457 77.5914 281.797 77.6014C291.907 77.6914 302.057 77.3514 312.127 78.0914C317.857 78.5214 323.467 77.5214 329.177 78.0214C334.937 78.5214 340.786 77.9414 346.606 77.9714C355.866 78.0214 365.157 77.7814 374.367 78.4814C379.287 78.8614 384.047 77.9114 388.927 78.2314C393.767 78.5514 398.667 78.0914 403.537 77.9114C404.107 77.8914 404.666 77.5214 405.406 77.2514V80.4514H405.396ZM379.137 30.7414C379.117 29.0214 378.917 27.4414 382.127 27.7214V74.0414C378.707 74.8214 378.987 72.7814 378.997 71.1214C379.037 64.5214 379.166 57.9214 379.196 51.3214C379.226 44.4614 379.217 37.6014 379.137 30.7514V30.7414ZM405.727 74.4814H384.497V28.2014H405.727V74.4714V74.4814ZM346.276 20.8814C366.076 20.8814 385.877 20.0714 405.887 20.9214V25.5414C402.167 21.0714 397.686 22.7614 393.566 22.6914C382.636 22.4914 371.697 22.4314 360.767 22.3914C357.087 22.3814 353.397 22.6514 349.717 22.6914C348.517 22.7114 347.317 22.4214 346.117 22.2714C346.167 21.8014 346.226 21.3414 346.276 20.8714V20.8814ZM376.597 27.6914C375.437 43.2714 376.577 58.6514 376.287 74.2714C356.967 74.5514 337.856 74.8214 318.566 75.1014C318.326 73.8314 318.007 72.9714 318.017 72.1014C318.127 63.0614 318.336 54.0114 318.406 44.9714C318.446 40.3914 318.357 35.8014 318.097 31.2214C318.047 30.3514 316.957 29.5314 316.347 28.6914C315.937 29.5214 315.187 30.3514 315.177 31.1814C315.077 41.6114 315.056 52.0514 315.066 62.4814C315.066 65.7814 315.277 69.0714 315.307 72.3714C315.327 74.0814 314.616 75.1914 312.106 74.6414C312.106 66.8814 312.226 58.9814 312.066 51.0914C311.916 43.5214 312.187 35.9114 310.287 28.4314C307.307 43.7714 309.307 59.3114 308.167 74.8914C298.917 75.1514 289.887 75.4114 280.377 75.6714V27.6914H376.597ZM281.627 20.6314C285.977 20.5814 290.327 20.6714 294.677 20.7114C303.907 20.7914 313.137 20.9114 322.377 20.9114C328.147 20.9114 333.917 20.6814 339.687 20.6714C340.977 20.6714 342.276 21.1514 343.566 21.4114C343.526 21.8914 343.477 22.3814 343.437 22.8614C340.097 22.8614 336.757 22.8214 333.427 22.8614C327.517 22.9414 321.597 23.1814 315.687 23.1614C307.657 23.1314 299.627 22.8714 291.587 22.8114C289.077 22.7914 286.576 23.1314 284.066 23.2614C283.146 23.3114 282.156 23.4414 281.316 23.1814C280.746 23.0014 280.366 22.2014 279.906 21.6814C280.476 21.3114 281.047 20.6314 281.627 20.6214V20.6314Z" fill="black"/>
<path d="M274.686 112.571C274.686 100.291 274.097 85.9812 274.117 73.7012C274.137 64.6412 274.686 55.5812 274.856 46.5212C275.186 29.0612 275.406 17.4612 275.676 -0.00878906H261.327V29.5212C261.327 56.5212 260.986 83.5312 261.056 110.531L274.676 112.571H274.686Z" fill="#EFB445"/>
<path d="M403.957 970.241C403.957 972.571 403.957 970.241 403.957 972.531C403.957 980.651 403.886 988.761 403.986 996.881C404.026 1000.24 403.457 1001.41 399.417 1000.74C394.287 999.891 388.907 1000.53 383.807 1000.53V970.231H374.807V1000.33H318.437V970.231H310.017V1001.36H281.977V970.231H272.477C272.477 1008.35 272.477 1041.86 272.477 1079.98H282.037V1070.21C290.617 1070.21 298.847 1070.22 307.077 1070.21C310.297 1070.21 311.017 1072.04 310.747 1074.84C310.587 1076.54 310.717 1078.27 310.717 1079.99H317.887C317.887 1077.65 317.977 1075.31 317.867 1072.98C317.727 1070.17 319.456 1069.62 321.646 1069.72C325.446 1069.89 329.247 1070.38 333.037 1070.4C346.557 1070.49 360.077 1070.43 373.597 1070.43H378.007C378.447 1073.82 378.836 1076.91 379.236 1079.99H387.207V1070.66H403.937V1079.99H413.497V970.241H403.937H403.957ZM342.656 1055.41C342.806 1058.21 341.507 1059.32 338.957 1059.27C328.517 1059.07 318.086 1058.68 307.646 1058.65C299.996 1058.63 292.337 1059.06 284.687 1059.27C284.037 1059.29 283.376 1059.19 282.396 1059.12V1011.51C301.706 1011.51 320.686 1011.43 339.656 1011.69C340.916 1011.71 343.197 1014.32 343.207 1015.74C343.277 1025.38 342.847 1035.02 342.627 1044.66C342.547 1048.24 342.476 1051.83 342.656 1055.41ZM403.747 1058.5C399.437 1058.5 395.317 1058.41 391.207 1058.52C384.407 1058.7 377.607 1059.06 370.797 1059.22C368.077 1059.29 365.357 1059.01 362.637 1058.96C360.857 1058.93 359.037 1058.88 357.287 1059.15C353.977 1059.65 352.767 1058.21 353.057 1054.92C353.427 1050.78 353.277 1046.58 353.267 1042.41C353.257 1038.23 353.087 1034.06 353.057 1029.88C353.017 1023.92 353.057 1017.96 353.057 1011.47C370.237 1011.58 386.967 1011.32 403.757 1011.62V1058.48L403.747 1058.5Z" fill="#FCEEE3"/>
<path d="M422.498 970.241H414.088C414.088 1008.36 413.527 1041.87 413.527 1079.99H422.288C422.308 1078.02 422.298 1076.05 422.348 1074.08C422.538 1066.62 422.888 1059.17 422.888 1051.71C422.888 1044.75 422.328 1037.79 422.348 1030.83C422.378 1023.76 422.948 1016.69 423.048 1009.61C423.178 1000.46 423.078 991.311 423.078 982.161C423.078 976.641 422.498 975.741 422.498 970.221V970.241Z" fill="#FBECD1"/>
<path d="M317.906 1079.99C317.906 1077.65 317.997 1075.31 317.887 1072.98C317.747 1070.17 319.477 1069.62 321.667 1069.72C325.467 1069.89 329.267 1070.38 333.057 1070.4C346.577 1070.49 360.097 1070.43 373.617 1070.43H378.026C378.466 1073.82 378.857 1076.91 379.257 1079.99H317.906Z" fill="#E89163"/>
<path d="M282.057 1079.99V1070.22C290.637 1070.22 298.867 1070.23 307.097 1070.22C310.317 1070.22 311.037 1072.05 310.767 1074.85C310.607 1076.55 310.736 1078.28 310.736 1080H282.057V1079.99Z" fill="#E89163"/>
<path d="M387.227 1079.99V1070.66H403.957V1079.99H387.227Z" fill="#E89163"/>
<path d="M282.387 1011.51C301.697 1011.51 320.676 1011.43 339.646 1011.69C340.906 1011.71 343.186 1014.32 343.196 1015.74C343.266 1025.38 342.837 1035.02 342.617 1044.66C342.537 1048.24 342.456 1051.83 342.646 1055.41C342.796 1058.21 341.496 1059.32 338.946 1059.27C328.506 1059.07 318.077 1058.68 307.637 1058.65C299.987 1058.63 292.327 1059.06 284.677 1059.27C284.027 1059.29 283.367 1059.19 282.387 1059.12V1011.51Z" fill="#E89163"/>
<path d="M353.055 1011.49C370.235 1011.6 386.965 1011.34 403.755 1011.64V1058.5C399.445 1058.5 395.335 1058.41 391.215 1058.52C384.415 1058.7 377.615 1059.06 370.805 1059.22C368.085 1059.29 365.365 1059.01 362.645 1058.96C360.865 1058.93 359.045 1058.88 357.295 1059.15C353.985 1059.65 352.775 1058.21 353.065 1054.92C353.435 1050.78 353.285 1046.58 353.275 1042.41C353.265 1038.23 353.095 1034.06 353.065 1029.88C353.025 1023.92 353.065 1017.96 353.065 1011.47L353.055 1011.49Z" fill="#E89163"/>
<path d="M263.656 1014.45C263.636 1000.16 263.467 985.881 263.467 971.591C263.467 969.601 263.466 972.231 263.476 970.241H253.936C253.916 978.531 254.246 982.191 254.226 990.471C254.476 992.111 254.656 993.781 254.736 995.471C254.816 997.361 254.707 999.291 254.427 1001.24C254.477 1001.93 254.516 1002.6 254.516 1003.28C254.476 1014.93 254.366 1026.57 254.316 1038.22C254.256 1052.15 254.227 1066.07 254.177 1080H263.736C263.696 1078.54 263.617 1077.09 263.617 1075.63C263.627 1055.24 263.676 1034.85 263.656 1014.46V1014.45Z" fill="black"/>
<path d="M414.145 1022.98C414.125 1013.52 413.776 1004.06 413.766 994.602C413.766 984.942 413.886 979.902 413.966 970.242H403.926V1000.15H383.936V970.242H381.936V1000.49C380.046 1000.29 378.636 1000.14 377.576 1000.03V970.252H374.586V1000.21C354.866 1000.49 337.686 1000.73 318.436 1001C318.436 998.592 318.695 996.842 318.695 994.762C318.695 985.052 318.695 979.962 318.695 970.242H316.086C316.056 974.192 315.786 978.472 316.036 982.392C316.526 989.982 314.146 992.762 316.096 1001.02C314.736 1001.04 313.375 1001.06 312.025 1001.08C312.205 991.742 313.226 987.362 313.336 978.532C313.366 975.712 313.706 973.062 313.706 970.242H309.735V1000.46C308.865 1000.62 307.755 1000.97 306.645 1001C299.375 1001.22 292.086 1001.26 284.826 1001.61C282.506 1001.72 282.116 1000.81 282.116 998.892C282.126 987.802 281.946 979.311 281.936 968.221L271.516 967.812C271.476 976.532 271.646 983.352 271.576 992.072C271.526 999.182 271.456 1006.62 271.466 1013.73C271.466 1018.69 272.316 1023.02 272.296 1027.98C272.256 1038.61 272.145 1049.24 272.025 1059.86C271.955 1066.57 271.816 1073.28 271.706 1079.98H282.065C282.225 1076.86 282.386 1073.73 282.556 1070.4H310.726C310.456 1073.82 310.206 1076.9 309.956 1079.98H313.936V1070.49C314.316 1070.4 314.706 1070.32 315.086 1070.23C315.456 1071.2 316.055 1072.15 316.145 1073.14C316.345 1075.41 316.286 1077.7 316.336 1079.97H318.726V1070.84H378.485V1079.97H381.676V1071.26H385.655V1079.97H387.246V1070.94C392.266 1070.87 397.176 1070.76 402.076 1070.77C403.626 1070.77 403.886 1071.94 403.866 1073.29C403.836 1075.52 403.935 1077.74 403.985 1079.97H414.346C414.176 1069.89 413.916 1059.8 413.876 1049.72C413.846 1040.8 414.186 1031.88 414.176 1022.96L414.145 1022.98ZM404.006 1015.05C403.886 1022.53 403.765 1030 403.735 1037.48C403.715 1041.03 403.926 1044.59 403.976 1048.14C404.016 1051.41 403.976 1054.67 403.976 1058.45H352.836C354.706 1052.68 353.845 1047.11 353.735 1041.55C353.645 1036.93 353.686 1032.32 353.686 1027.7C353.686 1022.59 353.686 1017.47 353.686 1011.67C356.266 1011.67 358.676 1011.67 361.096 1011.67C371.266 1011.65 381.426 1011.58 391.596 1011.65C394.886 1011.67 398.165 1012.04 401.445 1012.25C403.225 1012.36 404.036 1013.26 404.006 1015.07V1015.05ZM403.716 1003.92V1006.47C399.866 1006.83 395.996 1007.47 392.126 1007.5C380.096 1007.6 368.065 1007.46 356.025 1007.44C343.855 1007.42 331.686 1007.44 319.516 1007.44C308.676 1007.44 297.836 1007.44 286.996 1007.42C285.566 1007.42 284.126 1007.24 282.496 1007.13C282.346 1005.97 282.226 1004.98 282.086 1003.93H403.716V1003.92ZM349.436 1011.59V1058.88C348.086 1058.74 346.986 1058.62 345.806 1058.5V1011.91C347.526 1011.76 348.796 1011.65 349.436 1011.59ZM285.126 1011.86C289.846 1011.96 294.576 1011.79 299.296 1011.78C313.366 1011.76 327.435 1011.78 341.905 1011.78C342.165 1013.22 342.616 1014.58 342.626 1015.95C342.656 1029.65 342.606 1043.35 342.576 1057.05C342.576 1057.43 342.465 1057.81 342.315 1058.72H282.096C282.096 1053.25 282.096 1047.62 282.096 1042C282.086 1033.74 282.056 1025.47 282.036 1017.21C282.036 1016.42 282.045 1015.62 282.025 1014.83C281.955 1012.67 282.896 1011.83 285.126 1011.88V1011.86ZM403.466 1065.49C402.106 1065.23 400.736 1064.76 399.366 1064.76C387.726 1064.73 376.096 1064.76 364.456 1064.83C356.666 1064.88 348.876 1065.08 341.086 1065.13C333.706 1065.17 326.336 1065.06 318.956 1065.09C310.526 1065.12 302.085 1065.23 293.655 1065.31C290.355 1065.34 287.056 1065.4 283.756 1065.32C283.236 1065.31 282.725 1064.64 281.485 1063.75C283.215 1063.48 284.046 1063.25 284.876 1063.25C321.776 1063.23 358.676 1063.23 395.576 1063.25C397.786 1063.25 400.006 1063.37 402.186 1063.66C402.886 1063.75 403.495 1064.57 404.145 1065.05C403.915 1065.2 403.686 1065.36 403.456 1065.51L403.466 1065.49Z" fill="black"/>
<path d="M263.497 970.241C263.497 979.101 262.937 983.341 262.937 992.211C262.937 998.501 262.917 1004.79 262.937 1011.07C262.947 1014.78 263.027 1018.49 263.087 1022.2C263.137 1025.29 263.257 1028.38 263.257 1031.47C263.257 1034.76 263.037 1038.05 263.107 1041.34C263.207 1045.97 263.617 1050.59 263.677 1055.21C263.777 1063.47 263.726 1071.73 263.736 1079.99H272.497C272.497 1041.87 271.467 1008.36 271.467 970.241H263.497Z" fill="#EFB445"/>
<path d="M281.926 968.221C281.926 980.321 281.996 989.631 281.996 1001.37H310.036C310.036 989.081 309.716 981.891 309.716 970.241L281.936 968.221H281.926Z" fill="#E89163"/>
<path d="M403.957 972.531C403.957 970.241 403.957 972.571 403.957 970.241H383.807V1000.54C388.897 1000.54 394.786 1000.15 399.986 1000.37C405.186 1000.59 404.037 1000.24 403.997 996.881C403.897 988.761 403.967 980.651 403.967 972.531H403.957Z" fill="#E89163"/>
<path d="M318.445 970.241V1000.99C337.075 1000.99 355.725 1000.34 374.815 1000.34V970.241H318.445Z" fill="#E89163"/>
<path d="M424 0V0.00395286C423.822 0.00964231 423.669 0.021885 423.55 0.0432999C423.55 1.60128 423.554 2.16826 423.556 2.52103V2.7322C423.558 3.10023 423.56 3.40287 423.55 5.13314C423.503 13.7847 423.453 22.4375 423.4 31.0906V31.1008C423.302 47.368 423.207 63.6366 423.144 79.9008C423.123 85.4965 423.203 91.32 423.283 97.1218L423.289 97.6733V97.738C423.349 102.093 423.41 106.432 423.421 110.647L423.406 110.65L423.41 114.458V115.101L423.414 117.819C423.414 119.006 423.412 120.178 423.406 121.349L423.253 147.723C423.158 163.852 423.062 179.983 423.002 196.117C422.972 204.671 422.986 213.222 423 221.773V222.966C423.011 230.522 423.023 238.078 423.002 245.636C422.953 263.711 422.888 281.787 422.824 299.862L422.66 348.772C422.648 352.369 422.681 355.969 422.714 359.57L422.72 360.022C422.75 363.358 422.779 366.695 422.769 370.032C422.757 375.166 422.714 380.3 422.669 385.434L422.636 389.183L422.605 393.509C422.591 395.403 422.582 397.297 422.574 399.191C422.548 406.586 422.544 413.982 422.541 421.377V423.084C422.539 428.479 422.537 433.874 422.527 439.27C422.515 446.475 422.5 453.682 422.484 460.89V460.91C422.459 472.641 422.433 484.375 422.429 496.108C422.427 504.424 422.441 512.742 422.455 521.06L422.474 533.917C422.48 539.707 422.482 545.497 422.476 551.286C422.466 557.939 422.423 564.589 422.38 571.24C422.334 578.444 422.289 585.648 422.285 592.855C422.281 601.324 422.308 609.795 422.335 618.266L422.365 626.227C422.384 632.587 422.4 638.946 422.4 645.303C422.4 650.417 422.353 655.528 422.306 660.638L422.304 660.99C422.255 666.215 422.209 671.439 422.209 676.662C422.207 679.527 422.22 682.392 422.24 685.257C422.255 687.633 422.275 690.01 422.296 692.387C422.32 695.241 422.343 698.095 422.361 700.949C422.375 703.177 422.382 705.404 422.382 707.631C422.382 712.557 422.337 717.485 422.293 722.414L422.259 726.206C422.232 729.318 422.21 732.43 422.203 735.541C422.197 738.789 422.195 742.037 422.195 745.286L422.203 756.045V757.034C422.21 763.629 422.216 770.224 422.203 776.819C422.189 783.277 422.156 789.733 422.123 796.187C422.084 803.415 422.044 810.642 422.037 817.868C422.025 826.08 422.043 834.289 422.058 842.498L422.06 843.484C422.074 850.271 422.087 857.058 422.087 863.847C422.085 874.335 422.062 884.824 422.039 895.313L422.031 899.418C422.019 904.89 422.007 910.362 422.002 915.835C421.99 925.098 422.048 934.363 422.109 943.628C422.166 952.508 422.22 961.387 422.216 970.263V970.303L422.22 973.583L422.173 1004.51C422.158 1011.53 422.144 1018.55 422.134 1025.57C422.121 1036.45 422.113 1047.34 422.105 1058.23L422.087 1080H432V0H424Z" fill="black"/>
</svg>
