<svg width="616" height="1080" viewBox="0 0 616 1080" fill="none" xmlns="http://www.w3.org/2000/svg">
<path d="M10.322 1079.99C10.322 1060.93 10.4211 1041.87 10.2822 1022.8C10.193 1010.42 9.83594 998.039 9.39947 985.662C9.26059 981.829 8.43734 978.017 7.77271 973.114C18.4466 973.494 28.902 974.004 39.3675 974.195C49.8132 974.375 60.2787 974.235 71.0319 974.235C70.9426 976.086 70.8732 977.517 70.7938 979.068C71.3493 978.907 71.8057 978.887 71.8355 978.757C72.7679 974.705 74.5337 973.404 79.2357 974.004C89.5326 975.325 99.9585 974.625 110.315 973.544C112.656 973.304 115.106 974.215 117.497 974.185C130.462 974.004 143.428 973.524 156.393 973.484C165.45 973.454 174.517 974.155 183.573 974.165C191.291 974.165 198.999 973.484 206.717 973.434C212.183 973.394 217.659 974.044 223.135 974.115C227.46 974.165 231.794 973.734 236.129 973.614C239.214 973.524 242.319 973.334 245.365 973.684C247.636 973.944 249.511 974.965 247.825 978.087C247.339 978.978 248.172 980.599 248.411 981.889C249.105 981.869 249.799 981.849 250.493 981.829C250.761 979.408 251.029 976.996 251.367 973.974C255.097 972.053 278.369 973.494 281.523 976.406C287.515 971.073 294.211 975.365 301.115 974.255C300.311 976.646 299.786 978.227 299.25 979.808C299.796 980.058 300.341 980.308 300.887 980.559C301.532 979.098 302.057 977.557 302.871 976.196C303.486 975.165 304.448 973.584 305.281 973.564C309.755 973.474 314.239 973.954 318.723 973.934C329.139 973.874 339.555 973.534 349.971 973.524C355.873 973.524 361.785 974.055 367.688 974.145C369.939 974.175 372.191 973.454 374.453 973.424C382.061 973.324 465.24 973.384 473.652 973.384V1080H10.312L10.322 1079.99Z" fill="#FCEEE3"/>
<path d="M473.652 972.883C473.613 971.913 473.603 970.932 473.652 969.942L83.1247 969.912C58.8705 970.062 34.6161 970.282 10.352 970.522C3.9536 970.582 2.33678 971.843 1.8011 978.497C0.997587 988.643 0.372573 998.829 0.253533 1009.01C-0.0143048 1032.66 0.0551251 1056.31 -0.00439453 1079.97H11.1754C10.8381 1044.76 10.4909 1009.54 10.1536 974.424H49.7043C49.0297 977.656 48.5139 980.178 47.9881 982.7C48.375 982.85 48.762 983.01 49.1489 983.16C49.7044 981.969 50.488 980.828 50.7757 979.568C51.5296 976.276 52.8788 974.314 56.7972 974.655C61.152 975.035 65.5564 974.745 70.3477 974.745C70.0898 976.075 69.7128 976.986 69.8021 977.837C69.8715 978.527 70.3875 979.528 70.9331 979.708C71.4291 979.868 72.4408 979.277 72.8376 978.727C73.7899 977.426 74.524 974.755 75.3474 974.755C79.0674 974.755 82.7873 975.495 86.5073 975.985C87.6679 976.135 88.8385 976.586 89.9694 976.496C97.2704 975.935 104.542 975.005 111.843 974.705C119.65 974.384 127.487 974.585 135.313 974.625C146.166 974.675 157.028 974.885 167.881 974.845C175.39 974.815 182.89 974.364 190.399 974.334C198.047 974.314 205.695 974.695 213.353 974.695C221.269 974.695 229.176 974.374 237.092 974.344C240.693 974.334 244.294 974.695 246.456 974.815C247.032 977.857 247.438 980.018 247.845 982.179C249.055 981.849 250.762 981.909 251.387 981.109C252.984 979.077 254.491 976.626 250.861 974.384C257.051 974.384 263.251 974.384 269.441 974.384C270.849 974.384 272.248 974.484 273.657 974.544C274.51 974.585 275.373 974.564 276.216 974.675C279.42 975.085 281.831 978.207 286.087 975.275C288.934 973.314 294.062 974.715 298.179 974.635C298.715 974.625 299.26 974.765 299.727 974.825C299.191 976.796 298.705 978.607 298.219 980.418C298.526 980.748 298.834 981.078 299.151 981.409C300.619 980.698 302.445 980.298 303.447 979.167C304.191 978.337 303.863 976.536 304.052 974.855H473.682C473.623 974.184 473.712 973.524 473.682 972.853L473.652 972.883Z" fill="black"/>
<path d="M269.282 1051.95C270.374 1053.12 271.107 1053.91 271.851 1054.71C270.542 1055.85 269.341 1057.68 267.893 1057.92C266.822 1058.1 265.413 1056.21 264.153 1055.25C265.711 1054.25 267.269 1053.25 269.282 1051.95Z" fill="black"/>
<path d="M231.279 1030.77C229.92 1029.68 228.987 1028.93 228.055 1028.18C229.186 1027.24 230.346 1025.5 231.447 1025.54C232.866 1025.6 234.235 1027.06 235.633 1027.92C234.314 1028.78 233.005 1029.64 231.279 1030.76V1030.77Z" fill="black"/>
<path d="M193.533 1039.09C192.412 1038.96 191.281 1038.83 190.161 1038.7C190.19 1038.28 190.22 1037.86 190.24 1037.44H193.741C193.672 1037.99 193.602 1038.54 193.533 1039.08V1039.09Z" fill="black"/>
<path opacity="0.7" d="M432.852 388.674H265.969V160.504H432.852V388.674ZM432.852 495.15H272.198V694.302H432.852V495.15Z" fill="#9FD1CF"/>
<path d="M495.734 1079.99C495.734 1027.81 495.754 865.559 495.705 813.377C495.705 805.782 495.218 798.187 495.119 790.583C495.079 787.831 495.705 785.079 495.705 782.328C495.744 747.806 495.784 713.285 495.705 678.764C495.685 670.119 495.07 661.483 495.01 652.838C494.97 647.505 495.566 642.181 495.685 636.848C495.754 633.486 495.377 630.114 495.347 626.742C495.188 610.222 495.03 593.702 494.97 577.182C494.911 558.18 494.961 539.178 494.961 520.176C494.961 507.709 494.961 495.251 494.961 482.783C494.961 471.226 494.961 459.679 494.961 448.122C494.961 385.524 494.961 322.915 494.961 260.317C494.961 248.039 495.05 235.761 494.931 223.484C494.861 216.62 494.246 209.755 494.217 202.901C494.117 180.768 494.246 158.634 494.147 136.5C494.107 128.175 493.661 7.65118 493.413 -0.673943C493.403 -1.18426 493.572 0.116544 493.701 -0.673943H585.857C585.857 1.65749 585.887 114.377 585.857 116.698C585.599 135.38 585.361 154.071 585.053 172.753C584.914 181.378 584.498 190.003 584.438 198.639C584.309 216.079 584.319 233.53 584.279 250.981C584.279 254.633 584.279 258.275 584.279 261.928C584.279 319.823 584.279 377.709 584.279 435.604C584.279 445.971 584.279 456.327 584.279 466.694V505.718C584.279 524.479 584.329 543.251 584.27 562.012C584.21 580.444 583.972 598.865 583.913 617.286C583.893 624.961 584.25 632.646 584.19 640.32C584.14 647.445 583.585 654.559 583.565 661.673C583.476 688.61 583.506 715.557 583.486 742.493C583.486 756.302 583.416 770.11 583.515 783.919C583.565 791.253 584.002 798.578 584.111 805.912C584.15 808.394 583.515 810.885 583.515 813.377C583.476 865.559 583.486 1027.81 583.486 1079.99H495.764H495.734ZM558.2 689.341C557.218 686.079 556.077 684.267 552.962 686.809C552.397 687.269 551.286 687.139 550.819 687.649C550.026 688.51 549.55 689.661 548.945 690.681C550.036 691.142 551.256 692.172 552.189 691.952C554.143 691.482 555.948 690.361 558.21 689.331L558.2 689.341ZM530.92 729.735C530.752 726.663 537.09 727.154 533.281 723.231C532.587 722.511 529.67 722.811 528.807 723.682C526.773 725.723 528.262 727.584 530.92 729.735Z" fill="#F6D3B8"/>
<path d="M107.686 969.923C107.686 952.402 107.785 934.881 107.656 917.361C107.577 905.974 107.25 894.597 106.843 883.22C106.714 879.697 105.95 876.195 105.355 871.682C115.166 872.033 124.778 872.503 134.391 872.673C143.993 872.843 153.606 872.713 163.496 872.713C163.407 874.414 163.347 875.735 163.277 877.156C163.793 877.006 164.21 876.986 164.23 876.876C165.083 873.153 166.71 871.953 171.025 872.513C180.489 873.724 190.071 873.083 199.595 872.093C201.747 871.872 203.999 872.713 206.191 872.683C218.115 872.513 230.029 872.073 241.943 872.033C250.275 872.003 258.598 872.653 266.931 872.663C274.024 872.663 281.116 872.043 288.209 871.993C293.238 871.953 298.268 872.553 303.297 872.613C307.275 872.663 311.263 872.263 315.241 872.153C318.068 872.073 320.935 871.893 323.732 872.213C325.815 872.453 327.552 873.393 325.994 876.255C325.548 877.076 326.322 878.567 326.53 879.747C327.165 879.727 327.809 879.707 328.444 879.697C328.692 877.476 328.94 875.255 329.248 872.473C332.67 870.702 354.068 872.033 356.974 874.704C362.48 869.801 368.64 873.744 374.989 872.723C374.245 874.924 373.758 876.375 373.272 877.826C373.768 878.056 374.275 878.286 374.771 878.517C375.366 877.176 375.852 875.765 376.596 874.514C377.161 873.564 378.044 872.113 378.818 872.103C382.935 872.013 387.051 872.463 391.168 872.443C400.741 872.393 410.314 872.073 419.886 872.063C425.313 872.063 430.739 872.553 436.175 872.633C438.238 872.663 440.312 871.993 442.385 871.963C449.379 871.873 456.372 871.933 464.11 871.933V969.933H107.676L107.686 969.923Z" fill="#FCEEE3"/>
<path d="M473.603 1079.99C473.662 1076.9 473.761 963.739 473.761 960.647C473.781 946.398 473.851 932.149 473.742 917.901C473.662 908.335 473.176 898.779 473.117 889.223C473.087 883.65 473.751 878.066 473.722 872.493C473.682 864.478 473.166 856.473 473.107 848.468C473.067 843.865 473.722 839.262 473.742 834.659C473.821 815.768 473.771 796.866 473.771 777.975V752.199C473.771 743.483 473.841 734.768 473.751 726.053C473.652 716.937 473.325 707.821 473.255 698.706C473.226 694.603 473.781 690.501 473.731 686.408C473.642 679.724 473.087 673.04 473.057 666.346C473.037 660.833 473.702 655.309 473.702 649.796C473.702 641.421 473.325 633.056 473.265 624.68C473.236 620.528 473.642 616.365 473.662 612.213C473.682 606.389 473.454 600.575 473.474 594.752C473.513 583.315 473.672 571.878 473.742 560.431C473.761 557.859 473.593 555.298 473.563 552.726C473.424 542.15 473.305 531.573 473.166 520.997C473.136 518.915 472.987 516.834 472.987 514.753C472.977 481.562 473.027 448.372 472.948 415.181C472.928 405.616 472.372 396.06 472.323 386.504C472.283 378.879 472.76 371.244 472.769 363.62C472.769 357.646 472.234 351.682 472.214 345.709C472.144 321.144 472.263 296.589 472.154 272.023C472.095 260.136 471.509 248.249 471.46 236.362C471.351 205.553 471.401 174.734 471.401 143.925C471.401 132.688 471.401 10.8928 471.401 -0.654297C477.829 -0.654297 484.852 -0.654297 492.322 -0.654297C492.322 2.94792 492.381 117.128 492.311 120.75C492.113 130.126 491.875 139.512 491.607 148.888C491.389 156.592 490.952 164.297 490.883 172.012C490.843 176.925 491.399 181.838 491.469 186.751C491.508 189.223 490.853 191.704 490.853 194.176C490.814 248.349 490.853 302.512 490.794 356.685C490.784 365.091 490.179 373.496 490.109 381.901C490.07 386.814 490.754 391.727 490.734 396.63C490.705 402.824 490.1 409.018 490.07 415.211C489.98 435.834 490.04 456.457 490.04 477.08C490.04 489.467 489.951 501.865 490.07 514.252C490.159 523.628 490.735 533.004 490.705 542.37C490.625 561.842 490.099 581.314 490.079 600.786C490 668.807 490.05 736.829 490.05 804.841C490.05 815.388 490.149 825.934 490.02 836.481C489.891 846.667 489.375 856.853 489.316 867.029C489.276 873.443 489.981 879.857 489.981 886.271C489.981 892.375 489.266 898.489 489.316 904.593C489.405 916.69 489.851 928.787 490.03 940.885C490.179 950.561 490.159 1070.31 490.218 1080H473.622L473.603 1079.99Z" fill="#9FD1CF"/>
<path d="M588.991 1079.99C589.05 1070.7 589.031 951.351 589.18 942.065C589.339 931.599 589.824 921.142 589.834 910.676C589.834 900.99 589.298 891.304 589.219 881.618C589.179 877.285 589.944 872.943 589.904 868.6C589.834 860.185 589.259 851.77 589.249 843.365C589.239 832.738 589.775 822.102 589.745 811.475C589.656 786.42 589.259 761.364 589.2 736.309C589.1 697.275 589.17 658.241 589.17 619.207C589.17 595.792 589.199 572.388 589.15 548.974C589.14 541.699 588.812 534.435 588.822 527.16C588.852 515.413 589.11 503.656 589.15 491.908C589.209 472.086 589.17 452.254 589.17 432.432C589.17 422.436 589.249 412.43 589.14 402.433C589.081 397.25 588.525 392.087 588.445 386.904C588.326 379.159 588.445 371.414 588.445 363.67C588.445 361.458 588.386 359.257 588.386 357.045C588.386 306.855 588.426 256.674 588.346 206.483C588.336 197.187 587.692 187.901 587.662 178.606C587.632 170.641 588.356 162.666 588.217 154.701C588.009 142.484 587.324 130.276 586.878 118.058C586.779 115.427 586.868 2.23723 586.868 -0.68457H607.918C607.918 9.24154 607.918 129.656 607.918 139.522C607.918 140.842 607.809 142.173 607.809 143.494C607.809 165.928 607.869 188.372 607.769 210.806C607.74 217.9 607.174 224.994 607.075 232.089C607.015 236.531 607.522 240.984 607.492 245.427C607.452 252.291 607.046 259.145 607.036 266.009C606.976 292.826 607.055 319.652 606.986 346.469C606.966 354.754 606.519 363.029 606.41 371.314C606.271 382.291 606.232 393.278 606.232 404.255C606.212 441.738 606.232 479.221 606.232 516.714C606.232 522.727 606.331 528.741 606.212 534.745C606.054 542.64 605.637 550.524 605.488 558.419C605.419 561.932 605.825 565.444 605.805 568.956C605.766 575.5 605.428 582.044 605.498 588.588C605.587 597.073 606.083 605.558 606.142 614.054C606.172 619.017 605.478 623.98 605.508 628.933C605.558 637.908 606.083 646.884 606.083 655.859C606.083 665.375 605.597 674.881 605.488 684.397C605.379 693.983 605.369 703.569 605.488 713.155C605.587 720.729 606.153 728.294 606.153 735.859C606.153 743.423 605.567 750.988 605.488 758.552C605.369 770.06 605.458 781.577 605.458 793.094C605.458 803.76 605.369 814.427 605.478 825.083C605.637 839.332 606.053 853.581 606.162 867.83C606.202 873.273 605.498 878.716 605.518 884.16C605.557 893.325 605.954 902.481 606.083 911.647C606.113 913.718 605.498 915.799 605.488 917.88C605.429 932.129 605.448 946.378 605.468 960.627C605.468 963.719 605.567 1076.88 605.627 1079.96H589.031L588.991 1079.99Z" fill="#9FD1CF"/>
<path d="M204.098 869.52C204.098 861.065 204.167 853.28 204.088 845.495C203.86 822.831 203.632 800.168 203.255 777.504C203.176 772.601 202.898 772.841 208.086 773.031C214.901 773.281 221.726 773.111 228.551 773.121C253.569 773.121 278.587 773.121 303.605 773.121C305.023 773.121 306.452 773.121 307.642 773.121C307.99 773.741 308.188 773.951 308.237 774.192C308.584 775.903 308.902 777.624 309.239 779.345C310.598 778.214 312.364 777.334 313.227 775.903C314.388 773.981 315.539 772.981 317.87 773.071C322.076 773.241 326.292 773.111 330.508 773.121C332.908 773.121 334.737 774.438 335.994 777.073C339.198 772.951 343.424 772.42 348.294 773.441C348.453 774.242 348.344 775.452 348.87 775.893C349.663 776.553 351.528 777.283 351.855 776.933C357.629 770.89 364.99 773.651 371.705 773.201C376.705 772.871 381.754 773.051 386.774 773.151C393.083 773.281 399.392 773.631 405.701 773.771C409.063 773.851 412.426 773.641 415.779 773.651C427.604 773.711 439.438 773.831 451.263 773.881C454.358 773.891 457.553 774.502 460.181 771.84C460.776 771.23 462.383 771.64 464.11 771.55C464.11 773.461 464.11 775.012 464.11 776.553C464 795.234 463.822 813.916 463.792 832.597C463.772 843.474 463.911 854.351 464.169 865.218C464.248 868.349 463.584 869.6 460.112 869.59C378.084 869.49 296.046 869.51 214.018 869.51C210.645 869.51 207.272 869.51 204.088 869.51L204.098 869.52ZM342.719 832.818C341.122 831.667 340.368 830.716 339.832 830.826C337.898 831.227 336.033 831.987 334.139 832.618C334.982 833.488 335.914 835.159 336.658 835.079C338.424 834.889 340.1 833.868 342.729 832.828L342.719 832.818Z" fill="#FCEEE3"/>
<path d="M441.373 151.629C441.076 155.621 440.5 160.044 440.46 164.467C440.123 201.589 439.925 238.712 439.607 275.835C439.538 283.99 438.913 292.145 438.952 300.3C439.012 314.529 439.588 328.758 439.578 342.986C439.578 356.645 439.042 370.293 438.893 383.952C438.853 387.064 439.429 390.176 439.766 393.868H435.193C424.132 393.868 413.071 393.928 402.011 393.838C398.033 393.798 394.501 394.768 390.712 396.129C385.94 397.84 380.544 397.92 375.386 398.3C372.201 398.531 368.968 397.97 365.754 397.83C352.788 397.26 339.495 398.31 326.947 395.699C315.231 393.257 303.813 394.708 292.286 393.968C288.021 393.688 283.696 394.548 279.391 394.648C273.448 394.778 267.506 394.678 261.385 394.678C261.237 393.838 261.039 393.217 261.019 392.597C260.741 381.63 260.324 370.663 260.265 359.687C260.225 352.432 260.761 345.178 260.88 337.923C260.919 335.722 260.235 333.511 260.235 331.309C260.195 274.895 260.215 218.47 260.175 162.055C260.175 160.244 259.828 158.423 259.501 156.622C258.846 153.01 260.701 151.329 264.272 151.669C268.101 152.029 271.98 151.769 275.839 151.749C279.033 151.739 282.218 151.589 285.412 151.679C291.82 151.869 298.218 152.319 304.627 152.389C308.426 152.429 312.235 151.699 316.035 151.729C322.512 151.779 328.98 152.159 335.448 152.389C335.974 152.409 336.499 152.459 337.025 152.439C344.782 152.189 352.54 151.759 360.298 151.729C366.398 151.709 372.509 152.479 378.61 152.369C391.932 152.119 405.245 151.499 418.567 151.118C420.472 151.058 422.396 151.599 424.311 151.619C429.796 151.689 435.282 151.649 441.353 151.649L441.373 151.629ZM436.452 388.965V358.076C436.452 343.046 436.542 328.007 436.413 312.978C436.344 304.703 435.728 296.438 435.699 288.163C435.6 263.708 435.719 239.243 435.629 214.788C435.6 207.243 435.014 199.698 434.905 192.144C434.776 182.718 434.875 173.292 434.875 163.866C434.875 157.793 434.33 157.242 428.08 157.222C420.729 157.202 413.389 157.312 406.038 157.182C396.178 157.012 386.307 156.612 376.447 156.462C373.868 156.422 371.279 157.152 368.699 157.132C359.821 157.042 350.953 156.782 342.075 156.592C339.138 156.532 336.202 156.372 333.275 156.452C327.194 156.632 321.124 157.062 315.043 157.192C299.945 157.522 284.847 157.682 269.758 158.123C268.419 158.163 266.514 159.414 265.969 160.604C265.135 162.415 265.026 164.677 265.007 166.758C264.699 202.15 264.431 237.552 264.193 272.943C264.133 282.369 264.193 291.795 264.183 301.221C264.183 302.281 264.153 303.342 264.124 304.403C263.895 313.648 263.608 322.894 263.469 332.14C263.439 334.341 264.104 336.563 264.064 338.764C263.955 344.728 263.439 350.691 263.459 356.645C263.479 365.43 263.816 374.206 264.054 382.991C264.114 385.383 264.312 387.764 264.441 390.125C266.633 390.025 268.3 389.835 269.956 389.885C277.704 390.105 285.451 390.456 293.209 390.636C298.248 390.756 303.287 390.736 308.317 390.636C312.761 390.556 317.215 390.436 321.639 390.035C325.091 389.725 328.504 388.565 331.946 388.464C338.017 388.294 344.118 388.885 350.189 388.745C356.914 388.595 363.621 387.824 370.346 387.614C376.665 387.414 382.994 387.514 389.313 387.654C390.633 387.684 391.932 388.504 393.231 388.985C394.749 389.535 396.267 390.596 397.775 390.586C408.26 390.476 418.756 390.165 429.241 389.845C431.285 389.785 433.308 389.365 436.472 388.975L436.452 388.965Z" fill="#5DB9B6"/>
<path d="M270.512 689.46H432.931C433.01 687.909 432.782 686.458 433.259 685.297C433.556 684.597 435.262 683.757 435.758 684.027C436.691 684.547 437.732 685.808 437.782 686.808C437.901 688.98 437.802 691.331 437.098 693.352C436.096 696.244 433.764 694.503 431.79 694.453C423.17 694.223 414.53 694.163 405.909 694.273C398.678 694.363 391.446 694.983 384.214 694.973C376.159 694.963 368.114 694.313 360.059 694.293C353.224 694.273 346.389 694.923 339.545 694.993C327.591 695.123 315.638 695.023 303.684 695.023C293.735 695.023 283.785 694.973 273.845 695.063C271.296 695.083 268.746 695.544 266.078 695.824C265.691 690.271 265.016 685.037 264.996 679.804C264.897 648.705 264.947 617.596 264.947 586.497C264.947 578.102 265.016 569.696 264.937 561.301C264.719 540.168 264.421 519.035 264.163 497.892C264.134 495.241 263.548 490.508 264.283 490.287C267.457 489.317 271.028 489.627 274.45 489.557C276.99 489.507 279.539 489.677 282.079 489.577C288.566 489.327 295.183 488.056 301.512 488.917C309.091 489.947 316.521 489.717 324.05 489.537C327.849 489.447 331.659 489.957 335.458 490.197C335.855 490.217 336.252 490.257 336.638 490.247C343.344 490.007 350.05 489.587 356.756 489.577C363.333 489.567 369.9 490.087 376.477 490.157C383.242 490.227 389.998 490.007 396.763 489.977C400.939 489.957 405.106 490.037 409.282 490.097C410.066 490.107 410.85 490.277 411.633 490.257C419.916 490.037 428.189 489.697 436.472 489.677C437.514 489.677 439.458 491.308 439.468 492.199C439.567 504.526 439.369 516.864 439.319 529.191C439.3 534.985 439.498 540.789 439.458 546.582C439.449 548.653 438.854 550.725 438.854 552.806C438.794 567.945 438.823 583.075 438.823 598.214V654.489C435.847 655.719 434.836 655.309 434.846 652.757C434.876 645.823 434.895 638.879 434.756 631.945C434.667 627.482 434.151 623.019 434.102 618.556C433.993 608.981 434.072 599.415 434.072 589.839C434.072 559.48 434.072 529.131 434.072 498.773C434.072 497.502 434.072 496.231 434.072 495.321C431.741 495.321 430.024 495.331 428.308 495.311C427.921 495.311 427.545 495.08 427.158 495.09C417.952 495.301 408.746 495.571 399.54 495.701C397.487 495.731 395.424 495.05 393.371 495.1C388.143 495.231 382.925 495.811 377.707 495.791C370.574 495.771 363.442 495.11 356.319 495.15C329.208 495.291 302.097 495.621 274.976 495.821C272.675 495.841 271.216 496.201 271.216 499.033C271.216 501.905 270.532 504.776 270.532 507.648C270.472 534.355 270.592 561.061 270.463 587.777C270.383 603.827 270.006 619.877 269.689 635.917C269.51 644.672 268.875 653.428 269.004 662.183C269.133 671.069 269.957 679.944 270.512 689.48V689.46Z" fill="#5DB9B6"/>
<path d="M422.227 461.709C416.226 461.929 410.234 462.32 404.232 462.31C399.263 462.31 394.293 461.679 389.323 461.639C385.563 461.609 381.794 462.239 378.024 462.27C375.058 462.29 372.082 461.639 369.106 461.619C364.97 461.599 360.843 462.049 356.706 462.029C349.256 461.989 341.797 461.469 334.347 461.649C322.988 461.919 311.65 462.84 300.292 463.06C292.465 463.21 284.618 462.62 276.771 462.39C275.462 462.35 274.142 462.47 272.833 462.51C272.367 461.799 271.484 461.079 271.494 460.378C271.554 453.344 271.762 446.3 271.931 439.265C272.873 439.005 273.815 438.515 274.757 438.505C291.601 438.455 308.456 438.395 325.3 438.505C332.759 438.555 340.219 439.195 347.679 439.205C354.742 439.205 361.805 438.595 368.878 438.535C373.173 438.495 377.469 439.235 381.754 439.205C390.127 439.145 398.499 438.715 406.871 438.575C412.268 438.485 417.674 438.645 423.071 438.695C422.783 446.37 422.505 454.034 422.218 461.709H422.227Z" fill="#D93832"/>
<path d="M271.94 439.266C271.772 446.3 271.563 453.344 271.504 460.379C271.504 461.089 272.377 461.799 272.843 462.51C272.615 464.461 272.516 466.442 272.139 468.363C271.534 471.455 267.893 474.417 265.105 473.527C263.518 473.016 262.229 471.075 261.177 469.524C260.681 468.794 260.889 467.433 261.068 466.402C261.762 462.37 259.927 461.259 256.217 461.539C248.42 462.13 241.744 453.214 245.246 445.639C246.089 443.808 247.875 441.817 249.68 441.177C253.45 439.836 257.507 439.346 261.782 438.425C260.642 434.092 264.391 433.232 266.524 431.351C266.931 430.99 269.411 432.081 269.956 433.052C270.988 434.903 271.315 437.164 271.94 439.256V439.266Z" fill="#5DB9B6"/>
<path d="M422.227 461.71C422.515 454.035 422.793 446.37 423.08 438.696C423.368 436.364 423.418 433.963 424.063 431.741C424.35 430.741 425.729 429.66 426.791 429.43C427.416 429.29 428.755 430.581 429.132 431.491C430.143 433.913 430.818 436.474 431.572 438.786C434.468 438.946 437.524 439.056 440.559 439.326C441.244 439.386 442.305 439.876 442.464 440.397C444.279 446.29 449.11 451.644 445.668 458.548C445.241 459.398 445.837 460.759 445.966 462.01H432.951C431.972 467.62 430.309 471.306 427.961 473.067C426.017 469.214 424.132 465.462 422.247 461.72L422.227 461.71Z" fill="#5DB9B6"/>
<path d="M98.2028 969.922C98.2623 948.178 98.1929 926.435 98.4409 904.692C98.55 895.336 99.1253 885.97 99.8594 876.644C100.345 870.521 101.834 869.37 107.716 869.31C130.016 869.09 152.306 868.89 174.606 868.75C182.542 868.7 190.468 868.86 198.404 868.89C198.761 868.89 199.118 868.64 198.622 868.82C197.848 867.119 196.49 865.518 196.5 863.927C196.619 848.607 196.916 833.288 197.263 817.978C197.531 806.091 198.027 794.214 198.265 782.326C198.334 778.734 197.7 775.132 197.729 771.53C197.729 770.759 199.227 769.358 200.041 769.348C203.939 769.338 207.838 769.789 211.736 769.919C215.268 770.039 218.81 769.939 222.41 769.939C222.282 769.569 222.262 769.228 222.143 769.188C214.415 766.967 214.305 766.967 214.266 759.162C214.196 747.765 214.385 736.358 214.306 724.961C214.196 708.761 213.889 692.571 213.81 676.371C213.78 670.618 214.315 664.864 214.306 659.111C214.296 649.945 213.919 640.779 213.929 631.614C213.929 623.359 214.345 615.104 214.375 606.848C214.395 599.624 214.028 592.41 214.028 585.185C214.048 567.354 214.236 549.513 214.256 531.682C214.276 513.911 214.127 496.14 214.167 478.369C214.187 467.363 214.444 456.356 214.534 445.349C214.623 433.412 214.633 421.474 214.703 409.547C214.762 400.111 214.941 390.685 214.931 381.25C214.931 373.075 214.683 364.89 214.653 356.715C214.613 345.788 214.673 334.861 214.683 323.934C214.703 311.087 214.672 298.229 214.742 285.381C214.801 275.665 215.05 265.959 215.109 256.243C215.198 241.314 215.159 226.384 215.258 211.455C215.337 199.328 215.575 187.2 215.685 175.073C215.804 162.055 215.873 149.037 215.923 136.029C215.962 127.323 215.923 118.618 215.923 109.663H471.331C471.331 116.007 471.281 122.32 471.331 128.624C471.619 157.712 471.996 186.79 472.214 215.878C472.472 250.389 472.621 284.91 472.779 319.422C472.839 333.23 472.72 347.049 472.839 360.857C473.097 392.096 473.524 423.336 473.742 454.585C473.851 469.624 473.553 484.663 473.623 499.713C473.712 519.205 474.069 538.687 474.148 558.179C474.208 571.417 473.93 584.655 473.92 597.893C473.92 610.621 474.129 623.359 474.099 636.086C474.079 645.892 473.752 655.699 473.742 665.515C473.732 672.609 474.099 679.703 474.119 686.798C474.148 698.045 473.96 709.302 473.99 720.548C474.01 729.544 474.278 738.549 474.317 747.545C474.377 760.583 474.367 773.631 474.347 786.669C474.327 805.411 474.267 824.152 474.228 842.894C474.188 861.405 474.138 879.926 474.119 898.438C474.109 912.276 474.118 926.115 474.168 939.953C474.198 949.95 474.307 1070 474.377 1080H463.316C463.276 1069.93 463.217 949.809 463.207 939.743C463.197 925.595 463.227 911.436 463.227 897.287C463.227 889.482 463.227 881.678 463.227 873.332H377.627C377.459 874.883 377.756 876.534 377.072 877.295C376.149 878.335 374.473 878.696 373.124 879.356C372.836 879.056 372.558 878.756 372.271 878.446C372.717 876.785 373.173 875.113 373.659 873.302C373.233 873.242 372.737 873.122 372.241 873.132C368.461 873.202 363.75 871.922 361.131 873.723C357.222 876.414 355 873.543 352.064 873.172C351.29 873.072 350.496 873.092 349.713 873.052C348.423 873.002 347.134 872.912 345.844 872.902C340.15 872.882 334.456 872.902 328.762 872.902C332.105 874.963 330.716 877.225 329.248 879.086C328.673 879.816 327.105 879.766 325.994 880.067C325.617 878.075 325.24 876.084 324.715 873.292C322.721 873.182 319.417 872.852 316.114 872.862C308.843 872.882 301.572 873.182 294.29 873.182C287.257 873.182 280.224 872.832 273.191 872.852C266.296 872.872 259.392 873.292 252.497 873.322C242.518 873.352 232.539 873.162 222.559 873.122C215.367 873.082 208.165 872.902 200.993 873.192C194.277 873.473 187.591 874.323 180.885 874.843C179.844 874.923 178.772 874.513 177.701 874.373C174.279 873.923 170.866 873.252 167.444 873.242C166.69 873.242 166.015 875.694 165.142 876.895C164.775 877.395 163.843 877.945 163.387 877.795C162.891 877.635 162.414 876.715 162.345 876.074C162.266 875.284 162.603 874.453 162.841 873.232C158.446 873.232 154.389 873.503 150.391 873.152C146.791 872.832 145.551 874.643 144.856 877.665C144.588 878.816 143.874 879.866 143.358 880.967C143.001 880.827 142.644 880.687 142.297 880.537C142.773 878.215 143.259 875.904 143.874 872.932H107.527C107.835 905.202 108.152 937.572 108.47 969.942H98.1929L98.2028 969.922ZM204.207 868.77H463.118V772.16C460.429 772.951 458.187 774.151 455.935 774.181C437.663 774.422 419.38 774.512 401.108 774.502C386.972 774.492 372.836 774.221 358.7 774.191C357.47 774.191 356.21 775.142 355.02 775.752C353.234 776.653 351.568 778.074 349.713 778.344C349.058 778.444 348.017 775.792 346.767 773.771C344.822 774.061 341.658 773.591 339.981 774.962C335.666 778.504 335.775 778.804 333.355 773.881C328.722 773.881 323.981 774.041 319.259 773.821C316.57 773.691 314.894 774.181 313.862 777.053C313.386 778.384 311.442 779.975 310.092 780.035C305.321 780.255 306.73 776.723 307.364 773.681H204.227V868.78L204.207 868.77ZM422.396 439.506H272.486V461.349H422.396V439.506ZM264.213 490.807C264.411 493.279 264.748 495.74 264.788 498.202C265.006 512.57 265.225 526.939 265.294 541.298C265.403 563.262 265.383 585.225 265.413 607.189C265.443 630.233 265.383 653.267 265.552 676.311C265.592 682.455 266.316 688.599 266.703 694.302C278.101 694.302 289.162 694.332 300.222 694.302C313.446 694.262 326.669 694.182 339.892 694.092C346.538 694.052 353.175 693.892 359.821 693.882C374.056 693.852 388.281 693.882 402.516 693.892C412.426 693.892 422.326 693.842 432.236 693.942C436.244 693.982 437.613 692.741 437.514 688.949C437.296 680.824 437.008 672.689 437.087 664.564C437.326 639.318 437.752 614.083 438.05 588.837C438.427 557.198 438.724 525.548 439.171 493.909C439.21 491.277 438.526 490.437 435.877 490.487C424.321 490.707 412.754 490.767 401.187 490.817C389.809 490.867 378.421 490.917 367.043 490.817C359.127 490.757 351.22 490.327 343.304 490.327C335.388 490.327 327.482 490.677 319.566 490.817C311.63 490.957 303.744 490.047 295.748 490.607C285.501 491.327 275.174 490.777 264.213 490.777V490.807ZM440.55 152.379H261.336V393.177C262.814 393.507 263.568 393.817 264.312 393.807C279.351 393.697 294.399 393.557 309.438 393.417C327.472 393.237 345.506 392.977 363.541 392.897C373.362 392.857 383.183 393.207 393.003 393.277C407.427 393.377 421.84 393.347 436.264 393.447C438.387 393.457 439.131 392.687 438.814 390.605C438.496 388.534 438.09 386.433 438.109 384.352C438.238 370.333 438.585 356.314 438.635 342.296C438.724 317.841 438.595 293.396 438.675 268.941C438.714 255.182 439.032 241.434 439.141 227.675C439.28 210.204 439.23 192.734 439.468 175.263C439.577 167.488 440.182 159.713 440.54 152.379H440.55ZM264.401 460.819V438.825C262.536 439.045 260.741 439.075 259.035 439.506C257.071 439.996 255.235 441.227 253.271 441.427C250.027 441.757 247.309 442.748 245.931 445.829C244.443 449.161 244.71 452.293 246.873 455.535C250.087 460.368 256.585 461.729 264.411 460.829L264.401 460.819ZM431.572 439.716C431.572 446.24 431.681 451.773 431.523 457.306C431.453 459.858 432.356 460.939 434.855 460.899C438.248 460.839 441.641 460.889 445.093 460.889C444.954 460.028 444.349 458.797 444.726 458.147C447.732 452.924 445.282 448.531 442.841 444.138C442.058 442.738 441.284 440.586 440.123 440.286C437.484 439.606 434.607 439.866 431.572 439.726V439.716ZM426.037 440.166C426.037 446.28 425.987 451.963 426.086 457.637C426.106 458.647 426.791 459.638 427.158 460.649C427.674 459.648 428.586 458.657 428.636 457.627C428.943 452.083 429.042 446.53 429.191 440.976C429.191 440.746 428.973 440.516 428.804 440.166H426.037ZM269.629 438.695C269.321 438.695 269.014 438.695 268.707 438.695V461.539C269.014 461.539 269.321 461.539 269.629 461.539V438.695Z" fill="black"/>
<path d="M604.794 1079.99C604.844 1069.47 604.903 948.879 604.933 938.363C604.973 922.553 605.002 906.753 605.022 890.944C605.042 878.866 604.983 866.799 605.052 854.721C605.122 842.464 605.409 830.206 605.409 817.949C605.409 805.001 605.052 792.063 605.052 779.115C605.052 764.846 605.429 750.567 605.409 736.299C605.389 722.66 604.962 709.022 604.943 695.383C604.923 685.567 605.439 675.751 605.429 665.935C605.399 650.056 605.062 634.176 605.002 618.296C604.963 607.84 605.27 597.383 605.28 586.927C605.28 577.361 605.002 567.785 605.022 558.219C605.052 546.402 605.32 534.574 605.379 522.757C605.577 484.824 605.756 446.891 605.875 408.957C605.925 393.978 605.707 378.989 605.796 364.01C605.955 336.183 606.272 308.365 606.461 280.538C606.57 264.669 606.46 248.789 606.619 232.919C606.857 208.504 607.324 184.089 607.532 159.674C607.681 143.144 607.561 16.2857 607.561 -0.674698C609.476 -0.764754 610.825 -0.56463 613.225 -0.674698C613.225 9.93183 613.186 130.276 613.225 140.552C613.325 162.125 613.434 183.709 613.622 205.282C613.88 234.51 614.267 263.738 614.485 292.966C614.594 307.085 614.336 321.213 614.445 335.342C614.644 361.288 615.071 387.244 615.239 413.19C615.467 446.821 615.606 480.461 615.666 514.092C615.705 538.087 615.487 562.081 615.507 586.066C615.546 617.976 615.755 649.885 615.805 681.795C615.854 713.425 615.755 745.054 615.775 776.683C615.775 794.014 615.904 811.335 615.924 828.665C615.944 851.139 615.884 873.603 615.894 896.077C615.904 920.162 615.963 1054.31 616.003 1078.4C616.003 1078.93 615.904 1079.45 615.854 1079.98H604.794V1079.99Z" fill="black"/>
<path d="M489.406 1079.99C489.247 1071.41 488.989 952.762 488.959 944.186C488.909 930.468 489.019 916.739 489.039 903.021C489.068 883.999 489.068 864.968 489.108 845.946C489.147 828.485 489.217 811.024 489.257 793.564C489.346 760.583 489.455 727.613 489.505 694.633C489.545 670.908 489.435 647.174 489.495 623.449C489.554 596.452 489.772 569.456 489.812 542.459C489.832 525.138 489.604 507.818 489.574 490.497C489.544 469.184 489.574 447.871 489.634 426.558C489.703 403.424 489.882 380.289 489.971 357.155C490.09 325.886 490.179 294.617 490.279 263.347C490.358 239.233 490.397 215.118 490.536 191.003C490.655 170.29 490.864 149.577 491.112 128.875C491.181 123.451 491.518 4.73824 491.796 -0.675095C491.856 -1.71574 492.243 0.355539 492.481 -0.675095C492.888 -0.645076 493.294 -0.705113 493.701 -0.675095C493.989 3.96776 494.465 118.908 494.544 123.551C494.822 141.302 495.04 159.053 495.159 176.814C495.328 201.569 495.407 226.315 495.476 251.07C495.615 300.7 495.735 350.331 495.834 399.961C495.893 426.598 495.883 453.234 495.923 479.871C495.963 509.049 496.082 538.236 496.062 567.414C496.062 581.893 495.675 596.362 495.724 610.841C495.774 627.581 496.23 644.312 496.3 661.052C496.379 682.175 496.181 703.308 496.191 724.431C496.211 744.564 496.409 764.696 496.419 784.818C496.429 819.62 496.32 854.411 496.33 889.213C496.33 916.119 496.449 1053.09 496.508 1080H489.396L489.406 1079.99Z" fill="black"/>
<path d="M467.215 969.922C467.056 961.347 466.798 952.761 466.768 944.186C466.718 930.468 466.828 916.739 466.847 903.021C466.877 883.999 466.877 864.967 466.917 845.946C466.957 828.485 467.026 811.024 467.066 793.563C467.155 760.583 467.264 727.613 467.314 694.633C467.353 670.908 467.244 647.173 467.304 623.449C467.363 596.452 467.582 569.456 467.621 542.459C467.641 525.138 467.413 507.818 467.383 490.497C467.353 469.184 467.383 447.871 467.443 426.558C467.512 403.423 467.69 380.289 467.78 357.155C467.899 325.886 467.988 294.617 468.087 263.347C468.167 239.232 468.207 215.118 468.346 191.003C468.465 170.29 468.673 149.577 468.921 128.875C468.99 123.451 469.328 4.73823 469.605 -0.675095C469.665 -1.71573 470.052 0.355539 470.29 -0.675095C470.697 -0.645076 471.103 -0.705113 471.51 -0.675095C471.798 3.96776 472.274 118.908 472.353 123.551C472.631 141.302 472.849 159.053 472.968 176.814C473.137 201.569 473.216 226.315 473.286 251.07C473.425 300.7 473.543 350.331 473.643 399.961C473.702 426.598 473.692 453.234 473.732 479.87C473.771 509.048 473.891 538.236 473.871 567.414C473.871 581.893 473.484 596.362 473.534 610.841C473.583 627.581 474.04 644.312 474.109 661.052C474.188 682.175 473.99 703.308 474 724.431C474.019 744.563 474.218 764.696 474.228 784.818C474.238 819.619 474.129 854.411 474.139 889.212C474.139 916.119 474.258 943.025 474.317 969.932H467.204L467.215 969.922Z" fill="black"/>
<path d="M582.663 1079.99C582.663 1054.93 582.643 919.811 582.663 894.766C582.663 867.079 582.702 839.382 582.712 811.695C582.722 783.658 582.712 755.63 582.762 727.593C582.792 703.979 582.881 680.374 582.95 656.76C583.02 633.005 583.129 609.24 583.189 585.486C583.248 559.099 583.258 532.703 583.327 506.317C583.367 487.215 583.496 468.104 583.515 449.002C583.555 413.85 583.526 378.699 583.546 343.537C583.555 316.78 583.585 290.014 583.635 263.257C583.674 240.233 583.684 217.209 583.823 194.185C583.952 172.632 584.18 151.078 584.458 129.525C584.537 123.572 584.954 5.28873 585.251 -0.664931C585.291 -1.35536 585.599 0.075525 586.75 -0.664931C586.988 0.495784 587.405 -1.82564 587.444 -0.664931C587.801 10.582 588.158 135.529 588.377 146.786C588.555 156.021 588.605 165.267 588.634 174.503C588.763 214.998 588.833 255.493 588.971 295.988C589.031 313.879 589.22 331.78 589.309 349.671C589.418 372.805 589.557 395.939 589.557 419.073C589.557 441.037 589.398 463 589.309 484.954C589.25 499.763 589.13 514.572 589.17 529.381C589.249 554.807 589.487 580.233 589.567 605.658C589.656 636.377 589.626 667.096 589.706 697.815C589.775 727.093 589.963 756.381 590.003 785.659C590.023 800.858 589.775 816.058 589.765 831.247C589.765 843.294 589.984 855.342 590.053 867.389C590.142 882.949 590.232 898.518 590.222 914.078C590.222 932.299 590.102 1060.59 590.023 1078.81C590.023 1079.2 589.855 1079.58 589.765 1079.97H582.653L582.663 1079.99Z" fill="black"/>
<path d="M548.012 687.959C550.026 687.078 551.762 685.857 553.607 685.677C555.065 685.527 557.178 686.218 558.061 687.308C559.499 689.069 558.13 690.36 556.225 691.02C555.62 691.231 555.134 691.731 554.549 692.021C550.115 694.242 548.796 693.462 548.012 687.959Z" fill="black"/>
<path d="M526.318 724.361C528.262 723.24 530.107 721.659 532.19 721.249C532.993 721.089 535.424 724.501 535.225 724.751C533.787 726.552 532.031 728.323 529.987 729.264C529.363 729.554 527.548 727.243 526.278 726.122C526.288 725.532 526.298 724.951 526.318 724.371V724.361Z" fill="black"/>
<path d="M523.838 360.948C521.774 362.739 520.475 364.1 518.927 365.03C518.629 365.21 517.36 363.759 516.537 363.059C517.806 361.718 518.957 360.227 520.415 359.147C520.762 358.886 522.111 360.007 523.838 360.948Z" fill="black"/>
<path d="M530.722 279.758C532.041 279.377 533.35 279.007 534.669 278.627C534.818 279.127 534.977 279.618 535.125 280.118C533.856 280.588 532.586 281.048 531.317 281.519C531.119 280.928 530.92 280.348 530.722 279.758Z" fill="black"/>
<path d="M516.06 297.739C515.296 298.579 514.533 299.42 513.769 300.25C513.352 299.83 512.935 299.4 512.519 298.979C513.342 298.199 514.175 297.408 514.999 296.628C515.356 296.998 515.703 297.368 516.06 297.739Z" fill="black"/>
<path d="M571.115 740.071C571.254 740.571 571.423 740.891 571.393 741.191C571.374 741.352 570.937 741.622 570.808 741.572C570.531 741.442 570.322 741.141 570.094 740.911C570.372 740.681 570.659 740.451 571.115 740.071Z" fill="black"/>
<path d="M345.715 944.156C346.717 945.226 347.391 945.967 348.076 946.697C346.876 947.748 345.775 949.419 344.435 949.639C343.453 949.799 342.154 948.078 340.993 947.188C342.421 946.267 343.85 945.346 345.715 944.156Z" fill="black"/>
<path d="M310.787 924.674C309.537 923.664 308.684 922.983 307.831 922.293C308.872 921.422 309.944 919.831 310.946 919.871C312.255 919.921 313.515 921.272 314.795 922.063C313.584 922.853 312.374 923.644 310.797 924.674H310.787Z" fill="black"/>
<path d="M276.087 932.329C275.055 932.209 274.014 932.089 272.982 931.969C273.012 931.579 273.031 931.199 273.061 930.809H276.285C276.216 931.309 276.156 931.819 276.087 932.319V932.329Z" fill="black"/>
<path d="M338.503 829.446C339.763 830.627 341.033 831.797 342.293 832.978C340.338 833.939 338.454 835.34 336.41 835.66C335.537 835.8 333.395 833.669 333.434 832.628C333.524 830.227 335.408 829.466 337.759 830.367C338.007 830.056 338.255 829.746 338.503 829.436V829.446Z" fill="black"/>
<path d="M279.796 828.915C278.745 828.605 277.684 828.305 276.633 827.995C276.781 827.524 276.93 827.054 277.079 826.594C278.121 826.954 279.162 827.314 280.203 827.664C280.064 828.085 279.935 828.495 279.796 828.915Z" fill="black"/>
<path d="M318.792 825.162C318.346 824.422 318.048 823.942 317.76 823.451C318.157 823.221 318.683 822.701 318.931 822.811C319.397 823.021 319.784 823.551 320.003 824.042C320.062 824.172 319.388 824.632 318.802 825.172L318.792 825.162Z" fill="black"/>
<path d="M431.383 494.97C432.048 494.129 432.753 493.258 433.447 492.378C433.745 492.418 434.042 492.448 434.34 492.488C434.538 499.032 434.856 505.586 434.905 512.13C435.064 534.844 435.173 557.558 435.223 580.272C435.272 603.837 435.193 627.401 435.242 650.955C435.262 661.152 435.5 671.358 435.51 681.554C435.51 683.185 434.816 684.816 433.457 686.487C433.933 687.448 434.409 688.409 435.272 690.13C432.643 690.41 430.53 690.83 428.427 690.82C415.194 690.77 401.961 690.61 388.728 690.52C381.248 690.47 373.768 690.48 366.289 690.48C353.502 690.48 340.716 690.56 327.939 690.45C310.122 690.29 292.306 689.689 274.5 689.919C268.974 689.989 269.351 686.527 269.193 683.536C268.667 673.76 268.369 663.953 268.369 654.167C268.369 641.46 268.796 628.752 268.984 616.044C269.282 595.641 269.629 575.249 269.788 554.846C269.917 538.176 269.738 521.496 269.817 504.816C269.857 495.4 269.967 495.36 279.083 495.27C301.413 495.06 323.742 494.829 346.072 494.729C357.708 494.669 369.344 494.99 380.98 494.909C395.979 494.809 410.978 494.459 425.967 494.279C427.634 494.259 429.31 494.699 431.403 494.98L431.383 494.97ZM274.202 497.901V687.258H430.848V497.901H274.202Z" fill="black"/>
<path d="M436.503 180.797C436.503 210.335 436.443 239.873 436.522 269.411C436.562 284.671 436.949 299.93 437.028 315.189C437.107 330.509 436.988 345.838 436.968 361.168C436.959 370.093 437.078 379.019 436.76 387.934C436.73 388.865 434.171 390.456 432.763 390.486C413.617 390.926 394.472 391.266 375.316 391.376C361.746 391.456 348.185 391.016 334.615 391.036C316.967 391.066 299.32 391.376 281.672 391.416C277.645 391.416 273.617 390.816 269.589 390.476C269.074 390.436 268.439 390.045 268.072 390.236C263.122 392.777 263.221 389.315 263.231 386.093C263.301 369.593 263.469 353.093 263.469 336.593C263.469 327.477 262.993 318.361 263.043 309.256C263.191 279.447 263.4 249.649 263.757 219.841C263.995 200.379 264.6 180.917 264.877 161.455C264.927 158.163 266.564 157.252 269.243 157.202C282.188 156.972 295.134 156.792 308.079 156.612C322.284 156.412 336.499 156.122 350.705 156.081C364.702 156.041 378.709 156.342 392.706 156.352C400.801 156.352 408.905 155.951 417 155.941C421.93 155.941 426.88 156.192 431.8 156.622C434.072 156.822 435.639 157.572 435.371 160.924C434.846 167.509 435.213 174.163 435.213 180.787C435.639 180.787 436.066 180.787 436.492 180.787L436.503 180.797ZM268.875 162.505C269.282 236.931 269.699 311.747 270.105 386.233H429.182C429.648 311.587 430.124 237.201 430.59 162.505H268.875Z" fill="black"/>
</svg>
