<svg width="424" height="1080" viewBox="0 0 424 1080" fill="none" xmlns="http://www.w3.org/2000/svg">
<path d="M31.9817 1082.98C31.9817 1078.43 31.9026 973.613 32.0315 969.078C32.1704 964.2 32.6165 959.343 32.7058 954.465C32.7653 951.318 32.2893 948.16 32.3091 945.002C32.3587 938.686 32.7556 932.371 32.716 926.065C32.6862 920.785 32.1404 915.506 32.0214 910.216C31.8924 904.202 31.9817 898.178 31.9817 892.164C31.9817 881.212 31.9817 870.25 31.9817 859.299V614.699C31.9817 573.738 32.0017 532.777 31.9521 491.816C31.9521 487.21 31.3669 482.614 31.2677 478.008C31.228 476.077 31.9521 474.136 31.9521 472.206C32.0116 452.856 31.9817 433.517 31.9817 414.168C31.9817 408.295 32.0811 402.432 31.9521 396.559C31.8132 390.082 31.2776 383.606 31.2478 377.139C31.228 372.272 31.9618 367.394 31.9221 362.517C31.8526 354.17 31.2674 345.833 31.2377 337.496C31.2178 330.074 31.7338 322.652 31.8727 315.22C31.9124 313.299 31.2178 311.358 31.2178 309.428C31.1781 277.668 31.1883 245.919 31.1883 214.16C31.1883 206.155 31.2574 198.14 31.1781 190.135C30.9499 166.853 30.6625 143.562 30.4045 120.281C30.4045 119.647 30.4045 -1.96861 30.4045 -2.7832H147.341C147.341 -1.62668 147.341 120.623 147.341 121.88C147.341 137.226 147.4 152.573 147.301 167.909C147.271 172.385 146.567 176.86 146.607 181.325C146.676 189.934 147.132 198.532 147.281 207.141C147.321 209.333 146.597 211.546 146.587 213.748C146.537 241.504 146.626 269.251 146.517 297.008C146.468 308.965 145.902 320.922 145.833 332.88C145.793 339.749 146.448 346.627 146.468 353.496C146.478 359.299 145.833 365.102 145.823 370.914C145.823 376.456 146.339 381.997 146.448 387.548C146.488 389.61 145.793 391.681 145.793 393.743C145.743 417.226 145.763 440.708 145.763 464.19V601.082C145.763 681.808 145.793 762.523 145.733 843.248C145.724 858.132 145.307 873.016 145.218 887.9C145.188 893.2 145.763 898.51 145.714 903.81C145.644 910.698 145.079 917.577 145.029 924.466C144.999 928.941 145.714 933.417 145.704 937.892C145.704 942.749 145.029 947.617 145.029 952.474C145.029 958.709 145.446 964.934 145.624 971.17C145.734 975.011 145.724 1079.14 145.763 1082.99H31.9817V1082.98ZM101.679 735.621C100.102 733.499 98.9413 731.93 97.8204 730.412C96.0745 732.453 94.874 733.861 93.6737 735.259C95.7767 741.333 98.3066 736.184 101.679 735.631V735.621ZM111.292 677.503C112.7 676.397 114.099 675.301 116.013 673.803C114.595 672.244 113.256 670.785 111.649 669.026C110.339 671.821 109.436 673.732 108.494 675.743C109.605 676.447 110.449 676.98 111.292 677.503ZM50.165 439.531C52.2581 438.324 53.9049 437.6 55.264 436.504C55.8988 435.991 56.5039 434.493 56.2162 433.94C55.75 433.045 54.0931 431.798 53.6864 432.029C52.1289 432.924 50.6016 434.161 49.6196 435.649C49.1434 436.363 49.9073 437.922 50.1751 439.531H50.165ZM130.368 699.94C131.568 698.793 132.719 697.697 133.959 696.511C133.096 695.706 132.362 695.022 131.3 694.027C130.09 696.118 126.797 697.335 130.368 699.93V699.94Z" fill="#F1BA91"/>
<path d="M9.06654 1082.98C9.06654 1038.55 9.06654 893.854 9.06654 849.423C9.06654 837.154 9.06654 824.885 9.06654 812.616V360.818C9.06654 354.15 9.16595 347.482 9.03699 340.815C8.89812 333.936 8.40216 327.057 8.33272 320.178C8.29304 316.116 8.96773 312.043 8.96773 307.97C8.96773 303.645 8.41185 299.331 8.34241 295.006C8.22337 288.077 8.29323 281.148 8.28331 274.209C8.28331 269 8.28331 263.79 8.28331 258.581C8.28331 242.702 8.28331 226.832 8.28331 210.952C8.28331 202.686 8.38224 194.419 8.25328 186.153C8.15408 179.797 7.61842 173.461 7.52915 167.105C7.40019 157.773 7.48943 148.43 7.48943 139.097C7.48943 132.218 7.48943 4.35736 7.48943 -2.74268H27.1312C26.7443 285.402 25.256 794.825 24.8692 1082.98H9.06654Z" fill="#F5CF87"/>
<path d="M152.876 1082.98C152.876 1034.15 152.876 885.044 152.876 836.218C152.876 802.066 152.916 767.923 152.836 733.771C152.817 726.369 152.162 718.977 152.162 711.576C152.162 704.174 152.767 696.772 152.817 689.37C152.846 684.634 152.112 679.897 152.142 675.17C152.191 668.181 152.797 661.181 152.817 654.192C152.836 648.409 152.221 642.637 152.142 636.844C152.102 633.847 152.847 630.85 152.807 627.853C152.728 621.246 152.311 614.649 152.152 608.042C152.033 603.225 152.102 598.397 152.092 593.57C152.092 589.437 152.092 585.293 152.092 581.16C152.092 572.461 152.092 563.762 152.092 555.063C152.092 541.858 152.003 528.654 152.122 515.45C152.202 507.364 152.846 499.278 152.817 491.203C152.787 480.854 152.251 470.516 152.112 460.168C151.983 450.895 152.083 441.613 152.083 432.341V342.122C152.083 298.637 152.112 255.152 152.043 211.666C152.043 205.552 151.348 199.427 151.329 193.313C151.239 168.382 151.289 22.4594 151.289 -2.72266H170.246C170.246 4.47795 170.345 132.681 170.216 139.892C170.087 147.173 169.532 154.444 169.512 161.715C169.492 167.799 170.147 173.873 170.167 179.958C170.187 185.086 169.512 190.215 169.492 195.354C169.403 215.759 169.452 236.175 169.452 256.58C169.452 266.063 169.552 275.537 169.423 285.02C169.324 292.402 168.798 299.783 168.738 307.175C168.699 311.509 169.432 315.844 169.393 320.178C169.333 326.926 168.758 333.664 168.699 340.412C168.58 353.345 168.58 366.288 168.699 379.221C168.758 385.557 169.413 391.883 169.393 398.218C169.363 406.153 168.798 414.088 168.699 422.023C168.57 432.964 168.669 443.906 168.669 454.838V835.816C168.669 884.772 168.669 1034.01 168.669 1082.97H152.866L152.876 1082.98Z" fill="#F5CF87"/>
<path d="M414.722 897.665C409.564 897.132 405.249 896.398 400.914 896.297C392.502 896.096 384.05 895.734 375.687 896.388C368.009 896.981 360.321 894.648 352.663 896.911C350.977 897.414 348.884 896.247 346.989 896.277C336.276 896.448 325.562 896.86 314.848 896.961C310.841 897.001 306.833 896.227 302.826 896.207C289.394 896.126 275.943 895.875 262.531 896.458C258.821 896.619 255.349 897.062 251.55 896.458C247.314 895.774 242.81 896.971 238.426 896.951C232.99 896.931 227.553 896.328 222.107 896.307C217.971 896.287 213.834 896.871 209.687 897.001C205.491 897.132 201.285 897.042 197.079 897.052C190.433 897.052 183.786 897.052 176.584 897.052V884.038C176.584 861.753 176.634 839.467 176.545 817.191C176.525 811.559 175.821 805.938 175.851 800.306C175.88 792.904 176.416 785.513 176.555 778.111C176.684 770.91 176.584 763.71 176.584 756.519V656.093C176.584 641.832 176.654 627.572 176.545 613.311C176.495 607.398 175.87 601.495 175.86 595.591C175.85 590.342 176.515 585.102 176.545 579.853C176.644 563.993 176.644 548.124 176.545 532.264C176.515 526.884 175.84 521.504 175.86 516.123C175.9 508.772 176.386 501.42 176.555 494.069C176.674 489.151 176.634 484.223 176.565 479.306C176.336 463.919 175.95 448.532 175.84 433.135C175.801 426.981 176.505 420.816 176.515 414.651C176.525 409.251 175.95 403.86 175.831 398.45C175.791 396.388 176.565 394.316 176.525 392.255C176.386 385.668 175.91 379.08 175.84 372.483C175.801 368.843 176.495 365.202 176.505 361.562C176.515 357.368 176.138 353.164 175.93 348.961C175.88 347.905 175.791 346.849 175.791 345.783C175.781 335.937 175.791 326.092 175.791 316.256V239.403C175.791 229.809 175.89 220.204 175.761 210.61C175.662 203.118 175.176 195.626 175.027 188.123C174.898 181.466 175.087 174.808 174.968 168.161C174.908 165.003 176.863 165.144 178.906 165.315C181.079 165.506 183.241 166.039 185.413 166.039C203.19 166.099 220.966 166.009 238.743 166.109C245.121 166.15 251.49 166.813 257.868 166.813C264.326 166.813 270.784 166.14 277.242 166.14C283.611 166.14 289.979 166.843 296.348 166.813C304.413 166.783 312.468 166.119 320.523 166.129C330.056 166.15 339.589 166.642 349.122 166.854C353.318 166.944 357.524 166.874 361.73 166.874C371.164 166.874 380.618 167.075 390.042 166.813C397.293 166.612 404.535 165.798 411.776 165.295C413.056 165.204 414.355 165.285 416.29 165.285C415.913 170.504 415.367 175.462 415.238 180.43C414.871 195.304 414.623 210.188 414.425 225.072C414.118 247.659 413.929 270.247 413.602 292.834C413.492 300.236 413.056 307.638 412.858 315.039C412.758 318.629 412.838 322.23 412.838 325.82C412.838 454.184 412.838 582.548 412.838 710.912V730.874C412.838 738.558 412.738 746.241 412.867 753.924C413.006 762 413.453 770.065 413.602 778.131C413.731 784.768 413.631 791.416 413.631 798.063C413.631 823.406 413.552 848.739 413.681 874.082C413.721 881.594 414.326 889.117 414.733 897.685L414.722 897.665ZM385.994 544.815C385.994 531.098 386.054 517.38 385.895 503.663C385.865 501.32 384.864 498.987 384.318 496.643C385.33 493.616 382.959 494.381 381.639 494.361C375.35 494.28 369.051 494.18 362.772 494.431C361.274 494.491 359.835 495.899 358.367 496.694C357.603 496.694 356.84 496.694 356.076 496.694C352.743 496.513 353.606 499.047 353.606 500.817C353.566 520.397 353.576 539.968 353.576 559.548V564.315H292.698V577.992C294.334 576.755 295.882 575.589 297.429 574.412C298.253 574.412 299.076 574.412 299.899 574.412C301.07 574.673 302.231 575.146 303.401 575.146C318.936 575.196 334.46 575.176 349.995 575.176H354.36C354.36 584.207 354.459 592.796 354.33 601.394C354.221 608.323 353.745 615.242 353.616 622.161C353.487 628.698 353.923 635.255 353.457 641.762C353.189 645.583 355.034 646.629 357.891 647.052C359.935 647.353 362.038 647.293 364.111 647.223C370.222 647.011 376.332 646.448 382.443 646.539C385.974 646.589 386.857 645.463 386.847 641.983C386.728 610.777 386.788 579.561 386.738 548.355C386.738 547.168 386.262 545.992 386.004 544.805L385.994 544.815Z" fill="white"/>
<path d="M384.318 496.643C384.874 498.986 385.875 501.319 385.895 503.663C386.054 517.38 385.985 531.097 385.994 544.815C385.717 546.746 385.221 548.666 385.211 550.597C385.151 567.271 385.221 583.955 385.141 600.629C385.122 605.115 384.516 609.59 384.556 614.065C384.625 622.543 385.032 631.021 385.072 639.489C385.072 640.464 383.663 642.284 382.879 642.294C373.981 642.496 365.073 642.425 355.669 642.425V575.226H377.384C377.85 572.37 378.386 569.635 378.674 566.869C378.723 566.386 377.741 565.803 377.235 565.27C376.729 565.894 375.827 566.487 375.777 567.151C375.599 569.514 375.707 571.897 375.707 574.422H299.899C299.076 574.422 298.253 574.422 297.429 574.422C296.656 573.869 295.297 573.376 295.217 572.732C294.95 570.429 295.108 568.066 295.108 565.391H373.535C373.535 565.18 373.535 564.968 373.535 564.767H356.076V496.693C356.84 496.693 357.603 496.693 358.367 496.693C363.02 496.975 367.672 497.458 372.335 497.458C376.332 497.458 380.33 496.935 384.318 496.643ZM367.087 619.918C371.353 615.875 371.809 612.205 370.232 608.092C370.053 607.629 370.192 607.046 370.192 606.513C370.192 603.023 370.192 599.523 370.192 594.807C368.486 596.265 367.186 596.858 367.176 597.482C367.037 604.662 367.087 611.843 367.087 619.918Z" fill="#9FD1CF"/>
<path d="M168.679 1082.98C168.5 1071.73 168.222 960.188 168.153 948.934C168.043 930.46 168.014 911.996 168.063 893.522C168.093 881.313 168.411 869.104 168.411 856.885C168.411 844.576 168.103 832.276 168.123 819.967C168.123 814.597 168.827 809.216 168.837 803.846C168.837 798.164 168.242 792.472 168.192 786.79C168.063 770.619 168.004 754.437 168.063 738.256C168.133 719.46 168.411 700.674 168.47 681.878C168.5 673.189 168.113 664.5 168.133 655.811C168.162 644.457 168.51 633.103 168.51 621.749C168.51 607.71 168.212 593.671 168.202 579.621C168.202 568.157 168.45 556.682 168.52 545.217C168.579 535.834 168.579 526.452 168.549 517.069C168.52 505.674 168.361 494.29 168.371 482.896C168.391 468.475 168.619 454.043 168.589 439.622C168.559 427.202 168.113 414.782 168.143 402.362C168.183 386.351 168.559 370.351 168.708 354.341C168.788 346.115 168.609 337.888 168.668 329.662C168.778 312.968 169.045 296.273 169.085 279.569C169.115 265.751 168.857 251.933 168.817 238.115C168.777 222.538 168.718 206.95 168.907 191.372C169.115 174.929 169.67 158.496 169.968 142.054C170.107 134.23 169.988 5.41309 169.988 -2.69263L174.898 -2.9541V161.765C180.612 161.765 185.364 161.765 190.115 161.765C198.458 161.765 206.801 161.815 215.143 161.775C222.653 161.745 230.172 161.584 237.682 161.564C246.203 161.544 254.734 161.735 263.255 161.594C272.401 161.433 281.548 160.85 290.694 160.719C298.074 160.608 305.464 161.011 312.845 160.991C324.262 160.97 335.681 160.709 347.098 160.679C358.764 160.649 370.43 160.749 382.086 160.86C391.758 160.95 401.44 161.222 411.112 161.252C413.939 161.252 416.766 160.709 420.149 160.357C420.149 169.157 419.98 177.443 420.189 185.72C420.605 202.193 421.359 218.656 421.726 235.139C422.163 254.96 422.46 274.802 422.609 294.624C422.817 324.121 422.847 353.627 422.936 383.123C423.036 416.833 423.155 450.544 423.184 484.254C423.204 509.667 423.095 535.08 423.075 560.504C423.055 588.441 423.135 616.379 423.075 644.316C423.006 671.892 422.778 699.467 422.688 727.033C422.589 755.141 422.609 783.25 422.51 811.358C422.44 831.442 422.4 851.535 422.103 871.618C421.974 880.468 421.17 889.298 420.783 898.148C420.625 901.829 417.927 902.432 415.397 902.573C405.596 903.136 395.775 903.508 385.955 903.77C375.082 904.051 364.2 904.232 353.318 904.262C345.323 904.293 337.327 904.001 329.332 903.89C325.503 903.84 321.664 903.87 317.835 903.89C310.672 903.951 303.52 904.061 296.358 904.101C287.083 904.152 277.798 904.212 268.523 904.152C264.366 904.122 260.209 903.689 256.053 903.639C251.401 903.589 246.758 903.83 242.106 903.82C234.339 903.8 226.561 903.649 218.794 903.589C210.58 903.528 202.366 903.609 194.153 903.428C188.627 903.307 183.112 902.854 177.071 902.523C177.071 910.085 177.091 917.316 177.071 924.547C177.041 936.213 176.991 947.868 176.932 959.524C176.892 966.483 176.803 973.443 176.793 980.392C176.793 981.146 177.16 1082.19 177.348 1082.95H168.659L168.679 1082.98ZM176.148 166.321C176.495 410.286 176.843 653.981 177.18 897.374C191.385 897.042 204.807 896.69 218.228 896.428C220.817 896.378 223.407 896.83 225.996 896.78C231.878 896.68 237.751 896.247 243.634 896.277C248.137 896.297 252.641 897.072 257.135 897.011C263.305 896.921 269.455 896.197 275.625 896.006C284.395 895.744 293.163 895.604 301.933 895.644C309.869 895.674 317.815 896.187 325.751 896.177C335.74 896.177 345.74 895.714 355.729 895.714C363.595 895.714 371.461 896.197 379.328 896.287C383.425 896.338 387.542 895.724 391.639 895.885C396.638 896.086 401.688 896.438 406.598 897.363C411.28 898.248 414.227 896.207 413.989 891.45C413.641 884.561 413.125 877.682 413.086 870.794C412.977 853.999 413.155 837.204 413.106 820.42C413.006 788.862 412.838 757.304 412.679 725.746C412.59 707.533 412.431 689.31 412.351 671.097C412.242 644.99 412.114 618.883 412.114 592.776C412.114 555.576 412.223 518.386 412.253 481.186C412.282 446.973 412.203 412.76 412.282 378.547C412.332 359.812 412.629 341.086 412.798 322.351C413.046 293.709 413.086 265.057 413.572 236.416C413.949 214.05 414.871 191.694 415.516 169.338C415.556 167.97 415.338 166.602 415.249 165.265C412.808 165.788 410.904 166.492 408.989 166.552C399.694 166.844 390.399 167.014 381.104 167.115C371.432 167.226 361.77 167.286 352.098 167.256C341.186 167.226 330.274 167.025 319.362 166.974C301.189 166.884 283.025 166.894 264.852 166.763C256.499 166.703 248.147 166.26 239.795 166.23C224.905 166.17 210.015 166.29 195.125 166.321C188.786 166.331 182.447 166.321 176.138 166.321H176.148Z" fill="black"/>
<path d="M0.376465 1082.98C0.584772 1078.42 0.981644 973.583 0.971724 969.027C0.902289 949.839 0.654149 930.661 0.564875 911.473C0.505359 898.157 0.525004 884.842 0.614278 871.527C0.713472 856.362 0.882314 841.196 1.0807 826.031C1.18982 817.654 1.61656 809.276 1.54713 800.909C1.47769 792.673 0.74354 784.446 0.684024 776.22C0.574911 760.018 0.783314 743.817 0.783314 727.626C0.783314 711.404 0.545094 695.183 0.624449 678.961C0.674046 668.804 1.27932 658.647 1.319 648.5C1.35868 637.377 0.931989 626.254 0.91215 615.121C0.892311 605.417 1.2294 595.722 1.2294 586.017C1.2294 575.719 0.902231 565.431 0.91215 555.133C0.922069 542.311 1.23957 529.488 1.23957 516.666C1.23957 496.653 0.961573 476.64 0.981411 456.617C1.00125 436.725 1.32849 416.843 1.37809 396.951C1.41777 381.976 1.16984 366.992 1.18968 352.018C1.20952 340.865 1.57669 329.722 1.59653 318.569C1.61637 300.286 1.37838 281.993 1.42798 263.709C1.45774 252.989 1.96376 242.269 2.06295 231.548C2.15223 222.557 1.85428 213.567 1.93363 204.566C2.04275 193.494 2.41015 182.421 2.57878 171.359C2.76725 158.908 2.86634 146.458 2.97546 134.008C3.01514 128.889 2.97546 2.77794 2.97546 -2.64263L7.20088 -2.94434C7.33975 -0.983276 7.53802 121.709 7.5777 123.408C7.80585 134.833 8.07402 146.257 8.18313 157.692C8.322 171.318 8.33186 184.945 8.37154 198.572C8.4013 209.795 8.31204 221.029 8.3914 232.252C8.49059 246.462 8.74825 260.682 8.8772 274.893C8.98631 287.755 9.04577 300.618 9.06561 313.48C9.09537 326.725 9.02591 339.98 9.04575 353.224C9.06559 366.63 9.14529 380.036 9.15521 393.431C9.16513 406.615 9.0855 419.8 9.12518 432.984C9.1847 454.264 9.36352 475.534 9.4032 496.814C9.42303 506.509 9.11549 516.193 9.11549 525.888C9.11549 537.101 9.38312 548.304 9.41288 559.518C9.44264 571.807 9.26444 584.096 9.27436 596.376C9.2942 612.637 9.49255 628.899 9.48263 645.151C9.48263 653.196 9.02593 661.241 9.06561 669.287C9.15488 686.102 9.56185 702.916 9.59161 719.731C9.62136 736.667 9.314 753.592 9.23464 770.528C9.19497 778.744 9.34366 786.96 9.38334 795.177C9.42301 805.042 9.42286 814.908 9.47246 824.774C9.51213 833.634 9.63111 842.484 9.66087 851.344C9.70054 863.019 9.7006 874.705 9.72044 886.381C9.74028 899.656 9.83949 912.921 9.7403 926.196C9.60143 945.032 9.30392 1064.14 9.07578 1082.97H0.386152L0.376465 1082.98Z" fill="black"/>
<path d="M24.0854 1082.98C24.1151 1066.76 24.1249 950.261 24.1944 934.04C24.2638 919.98 24.492 905.931 24.5019 891.872C24.5119 875.54 24.3038 859.218 24.3237 842.886C24.3237 828.354 24.6012 813.822 24.5814 799.3C24.5615 781.399 24.2639 763.488 24.2738 745.587C24.2738 728.692 24.5718 711.786 24.6511 694.891C24.7602 671.942 24.8197 648.992 24.8395 626.053C24.8792 592.494 24.8793 558.944 24.8793 525.385C24.8793 485.048 24.8294 444.7 24.8691 404.363C24.8889 386.411 25.1469 368.45 25.1568 350.499C25.1667 331.763 24.9287 313.027 24.9684 294.292C25.0081 279.287 25.4049 264.283 25.4644 249.288C25.514 238.055 25.1268 226.821 25.2062 215.598C25.3451 197.275 25.762 178.961 25.9802 160.638C26.129 148.047 26.1288 135.456 26.2181 122.875C26.228 121.427 26.3867 -1.00363 26.4859 -2.68311H31.1383C31.1383 3.94427 31.1185 131.524 31.1383 138.111C31.2276 159.009 31.3467 179.897 31.4459 200.784C31.5649 225.604 31.6942 250.424 31.8033 275.244C31.9125 298.676 32.0117 322.099 32.0911 345.531C32.1506 363.341 32.1304 381.162 32.1899 398.972C32.2692 422.113 32.4381 445.253 32.4679 468.394C32.4877 485.581 32.2396 502.768 32.2693 519.944C32.309 539.917 32.5866 559.89 32.6263 579.862C32.6461 589.014 32.2494 598.156 32.2296 607.307C32.2098 617.334 32.458 627.35 32.5076 637.377C32.5771 653.709 32.5968 670.041 32.6166 686.373C32.6265 698.039 32.5968 709.695 32.5968 721.36C32.5968 735.319 32.6362 749.278 32.6462 763.247C32.666 783.883 32.6861 804.509 32.6762 825.146C32.6762 861.732 32.6464 898.318 32.6563 934.905C32.6563 950.845 32.7256 1067.06 32.7653 1083H24.0757L24.0854 1082.98Z" fill="black"/>
<path d="M144.97 1082.98C144.92 1063.05 144.811 942.839 144.831 922.907C144.851 901.486 144.99 880.065 145.059 858.644C145.129 834.287 145.208 809.93 145.228 785.582C145.248 764.172 145.178 742.761 145.148 721.35C145.128 698.25 145.069 675.15 145.128 652.059C145.158 640.022 145.515 627.974 145.515 615.936C145.515 599.272 145.248 582.618 145.228 565.954C145.218 551.15 145.436 536.337 145.466 521.533C145.485 507.896 145.366 494.259 145.357 480.612C145.357 469.51 145.456 458.417 145.476 447.315C145.486 435.951 145.416 424.597 145.446 413.232C145.475 401.024 145.605 388.805 145.635 376.596C145.704 348.92 145.714 321.244 145.803 293.568C145.863 273.736 146.001 253.904 146.101 234.082C146.269 201.689 146.438 169.287 146.587 136.894C146.617 130.81 146.587 3.73311 146.587 -2.66296L151.815 -3.05518C151.815 4.20577 151.785 132.177 151.815 139.167C151.894 154.292 152.013 169.418 152.092 184.533C152.162 197.647 152.182 210.751 152.251 223.865C152.36 243.485 152.509 263.106 152.598 282.726C152.708 303.725 152.797 324.723 152.846 345.722C152.886 359.298 152.846 372.875 152.827 386.451C152.797 417.718 152.727 448.974 152.727 480.24C152.727 517.792 152.727 555.354 152.827 592.906C152.876 613.532 153.184 634.148 153.203 654.775C153.223 673.329 152.896 691.894 152.905 710.449C152.915 729.818 153.223 749.177 153.263 768.546C153.303 787 153.075 805.454 153.114 823.909C153.164 841.246 153.491 858.584 153.551 875.922C153.58 886.28 153.273 896.639 153.233 906.997C153.203 916.41 153.352 925.813 153.412 935.226C153.501 951.046 153.58 1067.15 153.66 1082.98H144.97Z" fill="black"/>
<path d="M54.0835 430.751C55.0755 431.978 57.1191 433.939 56.8711 434.301C55.4922 436.303 53.6566 438.033 51.7421 439.561C51.4544 439.792 49.1234 438.143 49.1928 437.952C50.1451 435.528 51.3751 433.205 52.5258 430.862C53.0416 430.822 53.5575 430.792 54.0733 430.751H54.0835Z" fill="black"/>
<path d="M96.1537 739.684C95.0724 737.823 93.6738 736.274 93.9813 735.782C95.1022 733.921 96.779 732.412 98.2472 730.763C99.3086 732.081 101.52 734.022 101.213 734.605C100.28 736.355 98.3857 737.582 96.1537 739.684Z" fill="black"/>
<path d="M112.968 668.864C114.347 671.077 116.004 672.937 115.696 673.39C114.466 675.16 112.621 676.477 111.004 677.966C110.171 676.92 108.435 675.472 108.673 674.908C109.496 673.028 111.024 671.459 112.968 668.864Z" fill="black"/>
<path d="M134.444 696.581C132.54 698.2 131.24 699.286 129.951 700.382C129.375 699.638 128.175 698.461 128.334 698.23C129.206 696.943 130.318 695.776 131.568 694.861C131.845 694.66 132.986 695.686 134.444 696.581Z" fill="black"/>
<path d="M72.1873 393.823C70.4017 395.482 69.1518 396.729 67.763 397.765C67.644 397.856 65.898 396.146 65.9873 396.015C66.8801 394.658 67.9018 393.32 69.1517 392.294C69.4394 392.053 70.7191 393.059 72.1873 393.823Z" fill="black"/>
<path d="M385.598 496.834C376.333 499.841 366.72 497.648 357.058 497.92V563.982H374.15C374.22 564.475 374.279 564.968 374.348 565.451C373.188 565.732 372.018 566.265 370.857 566.265C351.94 566.235 333.032 566.135 314.115 566.064C308.014 566.044 301.913 566.064 295.753 566.064V573.828H374.715C375.37 570.157 375.946 566.989 376.521 563.812C377.067 563.852 377.612 563.892 378.148 563.932C379.705 566.497 379.913 569.333 379.08 572.319C378.296 575.125 376.065 575.809 373.575 575.839C367.801 575.9 362.028 575.859 356.354 575.859V641.661C362.832 641.661 368.932 641.61 375.023 641.671C384.586 641.771 384.358 641.801 384.387 632.097C384.467 603.234 384.764 574.361 384.923 545.498C385.002 531.459 384.953 517.41 384.993 503.371C384.993 501.822 385.241 500.273 385.37 498.724C385.697 498.714 386.034 498.704 386.362 498.684C386.441 500.142 386.59 501.611 386.6 503.069C386.768 520.246 386.986 537.423 387.076 554.589C387.224 583.804 387.265 613.019 387.433 642.244C387.453 646.035 386.282 647.252 382.324 647.071C374.884 646.719 367.415 647.222 359.955 647.222C353.507 647.222 353.438 647.121 353.457 640.584C353.517 620.642 353.626 600.689 353.725 580.747C353.725 579.289 353.725 577.841 353.725 575.789C345.789 575.789 337.813 575.829 329.828 575.779C319.243 575.709 308.659 575.437 298.074 575.538C296.17 575.558 294.275 576.925 291.606 577.971C291.606 573.516 291.438 569.584 291.735 565.692C291.805 564.827 293.481 563.379 294.414 563.399C301.13 563.48 307.846 564.043 314.561 564.113C327.17 564.244 339.768 564.153 353.12 564.153C353.12 559.568 353.12 555.394 353.12 551.221C353.09 536.437 353.05 521.654 353.031 506.87C353.031 504.487 352.971 502.083 353.229 499.72C353.467 497.538 353.675 496.411 356.979 495.476C365.064 493.193 373.019 494.299 381.015 493.917C382.542 493.847 384.11 494.581 385.667 494.943C385.647 495.577 385.618 496.21 385.598 496.834Z" fill="black"/>
<path d="M367.613 620.169C367.067 618.782 366.046 617.394 366.046 616.006C366.046 610.183 366.194 604.35 366.65 598.548C366.76 597.19 368.307 595.943 369.199 594.646C369.794 595.903 370.806 597.13 370.915 598.427C371.322 603.405 371.719 608.403 371.54 613.381C371.461 615.644 370.033 617.856 369.209 620.099C368.674 620.119 368.138 620.139 367.613 620.169Z" fill="black"/>
</svg>
