<svg width="88" height="114" viewBox="0 0 88 114" fill="none" xmlns="http://www.w3.org/2000/svg">
<path d="M87.47 71.4203C87.41 66.7003 87.2597 61.9302 87.1097 57.3102C86.9697 52.8802 86.8296 48.3103 86.7596 43.7903C86.6496 36.3403 86.6096 28.7802 86.5696 21.4602C86.5396 16.6702 86.52 11.8903 86.47 7.10025C86.47 6.14025 86.31 5.23025 86.16 4.35025C86.1 3.97025 86.03 3.59024 85.97 3.18024L85.6697 1.04025L76.4998 0.980256C52.9998 0.820256 28.6997 0.660236 4.35965 1.46024L2.24003 1.53024L1.95975 3.63025C0.849752 11.9502 0.92981 20.1702 1.01981 28.1302C1.05981 31.5602 1.08981 35.1102 1.01981 38.5902C0.79981 50.5502 0.819654 62.4402 0.859654 73.5902C0.889654 81.5302 0.999654 89.2802 1.10965 97.4902V97.6102C1.15965 101.18 1.20979 104.77 1.24979 108.38L1.26981 110.33L3.16971 110.78C4.01971 110.98 4.83969 111.21 5.64969 111.44C7.57969 111.98 9.40995 112.49 11.4099 112.63C15.6499 112.92 19.9299 112.98 24.0799 113.03C25.1799 113.04 26.2797 113.06 27.3797 113.07C36.3597 113.22 46.0498 113.29 56.9998 113.29C63.8398 113.29 70.4096 113.26 76.5096 113.23C83.4396 113.19 87.4496 109.33 87.5096 102.63C87.6096 91.6302 87.5898 81.4302 87.4598 71.4402L87.47 71.4203Z" fill="white"/>
<path d="M5.5498 107.1C5.9698 103.93 6.3301 101.51 6.6001 99.0802C6.7201 98.0302 6.68994 96.9602 6.68994 95.9002C6.68994 86.3402 6.90986 76.7601 6.60986 67.2101C6.44986 62.0001 6.75996 56.8101 6.70996 51.6201C6.64996 46.4401 6.7002 41.2601 6.7002 36.0801C6.7002 30.9001 6.77016 25.4502 6.66016 20.1402C6.62016 18.0702 5.91023 16.0002 5.99023 13.9402C6.08023 11.3502 6.67008 8.78015 7.08008 5.90015H82.25C83.35 39.1101 81.3499 72.3502 81.6699 106.08H77.21C57.01 106.08 36.8101 106.04 16.6001 106.12C13.2201 106.13 9.8498 106.7 5.5498 107.1Z" fill="#80B6E0"/>
<path d="M4.43974 3.94016C31.0597 3.06016 57.09 3.34017 83.49 3.51017C83.67 4.84017 83.96 5.98016 83.97 7.12016C84.08 19.3602 84.0796 31.5901 84.2596 43.8301C84.3896 53.0401 84.85 62.2502 84.97 71.4702C85.11 81.8502 85.1098 92.2301 85.0198 102.6C84.9698 107.93 82.0296 110.69 76.5096 110.72C60.1496 110.81 43.79 110.83 27.43 110.57C22.15 110.48 16.8599 110.5 11.5999 110.13C9.03989 109.95 6.53982 109 3.76982 108.34C3.62982 96.5502 3.41968 85.0602 3.37968 73.5702C3.33968 61.9202 3.31958 50.2702 3.52958 38.6202C3.73958 27.1802 2.86974 15.6902 4.43974 3.95017V3.94016ZM80.8797 105.19C81.2997 72.3902 81.73 39.3801 82.16 6.05015H7.08964V106.26C31.5196 104.25 55.9597 106.12 80.8797 105.18V105.19Z" fill="black"/>
<path d="M39.2998 54.7202C35.8098 49.6602 27.9701 45.5202 10.6201 39.0402C16.2601 38.0602 21.0399 40.8202 25.8799 43.0302C37.8899 48.5402 42.35 52.0402 44.04 57.5002C42.46 57.9102 40.8899 58.3202 38.6499 58.9002C39.6699 60.1302 40.3401 60.9902 41.0601 61.8102C47.9701 69.5302 54.5698 77.4902 58.7598 87.1002C60.1298 90.2402 61.0302 93.5902 62.2002 96.8202C63.2602 99.7402 61.17 101.14 59.54 102.99C56.97 101.81 56.6502 99.5802 56.1602 97.3802C55.3902 93.9002 54.5599 90.4202 53.6099 86.9902C53.1899 85.4802 52.6202 83.8602 49.9902 83.8802C47.7302 88.5602 44.2201 91.7502 37.6401 89.2002C39.8301 92.3702 41.6499 94.9202 43.3799 97.5302C44.1099 98.6302 44.66 99.8402 45.25 101.02C46 102.54 45.4202 103.55 43.9502 104.18C42.5902 104.76 41.6798 104.28 41.0298 103.01C39.9498 100.89 39.0399 98.6502 37.6899 96.7202C33.6899 91.0002 29.4999 85.4002 25.4399 79.8202C21.5799 81.5002 18.2801 83.0502 14.8701 84.3302C13.9601 84.6702 12.25 84.5502 11.77 83.9502C11.24 83.2802 11.25 81.5202 11.77 80.7702C14.1 77.4302 16.4398 74.0302 19.2598 71.1202C23.3998 66.8602 27.8501 62.8902 32.3701 59.0302C34.3501 57.3402 36.83 56.2202 39.27 54.7202H39.2998ZM22.6602 72.8802C27.4102 77.8802 32.05 82.7702 37 87.9902V81.5702C35.28 80.8502 33.6299 80.3302 32.1499 79.5102C28.3699 77.4102 28.1 74.9302 31.52 72.1502C32.78 71.1302 34.5499 70.6802 36.1499 70.1502C37.0999 69.8402 38.1698 69.8802 39.0498 69.7802C40.7798 65.8302 38.4201 63.3002 36.3101 59.8702C31.6101 64.3902 26.2099 67.6402 22.6699 72.8802H22.6602ZM39.5601 79.8702C42.2601 80.1502 44.4599 80.5902 46.6499 80.5402C48.0499 80.5102 49.2498 79.5202 48.2998 77.8302C46.7498 75.0702 45.1698 72.2202 40.8198 72.6502C40.4498 74.7802 40.0701 76.9402 39.5601 79.8702ZM38.6401 72.0402C32.5901 72.4702 32.1498 72.7302 31.2798 76.4102C33.1298 77.2902 35.0402 78.1902 37.4102 79.3102C37.8702 76.6002 38.2201 74.5002 38.6401 72.0402ZM46 83.2202C43.94 82.8302 41.84 82.4202 39.71 82.0202C39.29 85.9502 40.23 87.2802 43.23 87.5202C45.44 87.6902 45.82 87.1402 46 83.2202ZM20.25 74.5602C19.07 77.4102 16.2402 78.2802 15.9502 81.4702C18.4602 80.2702 20.5199 79.2802 22.9199 78.1302C22.0699 77.0002 21.4002 76.1102 20.2402 74.5602H20.25Z" fill="black"/>
<path d="M70.2501 58.4902C65.9101 58.3302 61.5603 58.2702 57.2203 57.9902C52.7803 57.7002 51.78 56.6102 50.86 52.4502C50.44 50.5302 51.07 49.4402 52.86 49.4402C58.69 49.4202 64.52 49.5102 70.34 49.7802C71.34 49.8302 72.3304 50.9102 73.2404 51.6302C74.9604 53.0002 75.9301 55.1202 74.9601 56.8802C74.2601 58.1402 72.0499 58.5502 70.5099 59.3502C70.4199 59.0602 70.3401 58.7802 70.2501 58.4902ZM62.32 51.1202C61.62 52.7402 61.0303 54.1002 60.3903 55.5802C64.1203 55.8702 67.4901 56.1402 70.9201 56.4002C70.0267 54.8402 68.8369 54.1402 67.3502 54.3002C67.3902 50.9002 65.01 51.1202 62.32 51.1202ZM57.6403 51.4202C55.8303 51.2202 54.4104 50.8702 54.4904 53.0302C54.5704 55.1802 55.6402 55.7402 57.8302 55.0702C57.7702 53.8802 57.7103 52.7602 57.6403 51.4202Z" fill="black"/>
<path d="M72.1602 36.9901C61.0202 37.5701 49.87 37.2501 38.75 37.8701C38.75 38.1901 38.75 38.5101 38.75 38.8301H72.3501C72.4301 39.1101 72.5098 39.3901 72.5898 39.6701C71.4898 40.0001 70.39 40.6101 69.29 40.6201C59.34 40.7301 49.3899 40.6901 39.4399 40.7901C36.8199 40.8201 35.7901 39.1101 34.3901 36.5901C40.9101 35.4601 47.1801 36.0501 53.3701 35.9701C59.6301 35.8901 65.9599 35.1401 72.1499 36.9901H72.1602Z" fill="black"/>
<path d="M69.0201 29.0601C69.1601 26.4201 69.2602 24.3901 69.3902 21.9701C68.9402 23.3101 68.7301 24.3601 68.2501 25.2701C67.8501 26.0101 67.1301 26.5801 66.5601 27.2201C65.9401 26.6501 65.2903 26.1201 64.7203 25.5001C64.3703 25.1201 64.1599 24.6101 63.7999 24.0101C63.1899 25.3401 62.6001 26.6101 61.8101 28.3101C60.2701 23.3901 61.5099 19.1401 64.8599 17.1601C65.4099 17.9701 65.98 18.79 66.67 19.8C67.65 18.33 68.5903 16.9101 69.9703 14.8201C70.3703 16.5001 70.5601 17.3101 70.7901 18.2901C72.6701 16.4701 74.7502 15.77 77.3902 16.55C77.0202 19.4 74.2199 18.4901 72.5299 19.9501C73.5599 20.5001 74.3299 20.9001 75.1099 21.3201C75.1799 23.7001 70.4299 22.5601 72.0499 26.1201C73.2399 26.2001 74.7303 26.3001 76.2203 26.4001C76.2703 26.7201 76.3202 27.04 76.3702 27.36C74.1302 27.88 71.8901 28.4001 69.0201 29.0701V29.0601Z" fill="black"/>
<path d="M65.4902 77.4802C63.3802 77.4802 61.2599 77.5102 59.1499 77.4802C57.1399 77.4502 55.62 76.6701 54.79 74.6901C53.64 71.9401 54.3 70.5102 57.21 70.4502C61.82 70.3602 66.4501 70.4502 71.0601 70.6402C73.4401 70.7402 75.1002 72.6301 75.2002 75.0001C75.3002 77.1301 73.9602 77.7202 72.1602 77.6702C69.9402 77.6102 67.72 77.4701 65.5 77.3601C65.5 77.4101 65.5 77.4501 65.5 77.5001L65.4902 77.4802ZM57.2598 72.2701C57.8198 74.3601 58.0599 75.3301 60.1499 75.1901C63.1599 74.9801 66.21 75.3102 69.23 75.5402C71.7 75.7302 71.5502 74.4401 71.4302 73.1801C69.2902 73.4901 66.8502 74.5702 65.9302 73.8202C63.7802 72.0502 62.4102 72.9102 60.9502 74.1702C59.7802 73.5702 58.8098 73.0701 57.2598 72.2701Z" fill="black"/>
<path d="M24.3399 19.2501C25.4099 18.4001 25.9999 16.3801 28.3399 17.8101C25.7399 20.8601 24.0403 24.0201 27.1803 27.8901C23.9603 26.6101 19.82 28.7501 17.19 24.5701C16.35 25.3401 15.5499 26.0701 14.7999 26.7501C13.1799 26.2101 14.7101 20.2601 17.2901 17.4001C17.7701 18.2101 18.2602 18.9001 18.6202 19.6501C19.0102 20.4701 19.27 21.3501 19.67 22.4301C20.28 21.0301 20.6199 19.8001 21.2999 18.7901C22.1999 17.4601 23.2502 17.6601 24.0802 19.0101C20.5102 20.5101 20.1202 22.3501 23.1602 26.0401C23.6002 23.4801 23.9702 21.3701 24.3302 19.2601L24.3399 19.2501Z" fill="black"/>
<path d="M34.1001 25.2202C33.8201 26.1502 33.6301 26.7702 33.3501 27.6802C32.6601 27.6202 31.95 27.4902 31.23 27.5102C30.62 27.5202 30.0202 27.7002 28.9302 27.9002C29.1702 24.8202 29.3798 22.0602 29.5898 19.3002C29.9098 19.2802 30.2401 19.2702 30.5601 19.2502C30.9301 20.2902 31.3 21.3402 31.71 22.5102C32.28 20.9802 32.8001 19.5902 33.6201 17.3902C34.6601 18.9602 35.2401 19.8402 35.8101 20.7002C36.4801 19.2002 37.2002 17.5702 37.9302 15.9502C38.2702 16.0602 38.6102 16.1602 38.9502 16.2702C38.5502 19.4502 38.29 22.6602 37.71 25.8102C37.4 27.4902 36.3301 27.3402 34.1001 25.2302V25.2202Z" fill="black"/>
<path d="M59.1001 63.6202C64.4901 61.7202 68.6302 62.0602 72.6802 63.6002C73.4302 63.8802 74.38 65.2502 74.23 65.8802C74.02 66.7702 72.9301 68.0301 72.1201 68.1101C69.2701 68.3701 66.27 68.6402 63.54 68.0102C62.03 67.6602 60.9299 65.5202 59.1099 63.6202H59.1001ZM70.48 66.6902C70.33 65.6102 70.3102 64.4802 70.1602 64.4602C67.7102 64.1802 65.2498 64.0402 62.7998 63.8702C62.7498 64.3102 62.6901 64.7602 62.6401 65.2002C64.6001 68.0602 67.6902 65.8802 70.4902 66.6902H70.48Z" fill="black"/>
<path d="M60.6801 21.5501C59.4401 23.5701 58.4001 25.6501 56.9901 27.4401C55.8301 28.9101 54.6498 28.0401 53.8998 26.7401C52.5198 24.3501 53.7999 19.6601 56.2699 18.3801C56.9799 18.0101 58.2899 17.8501 58.7699 18.2501C59.5699 18.9201 59.9201 20.1301 60.6801 21.5401V21.5501ZM55.9398 25.5501C58.4498 22.8501 58.4699 22.7201 56.7299 20.1201C55.7899 21.8501 54.8498 23.4501 55.9398 25.5501Z" fill="black"/>
<path d="M43.3401 27.2702C42.5901 26.4702 41.8304 25.6702 40.9504 24.7502C40.3404 25.4102 39.7501 26.0402 39.1501 26.7002C38.8901 26.4702 38.5703 26.3302 38.5803 26.1902C38.6103 22.9802 39.6501 20.1602 42.1501 16.9502C43.7701 20.8202 43.5702 24.1002 43.2502 27.4102L43.3401 27.2802V27.2702Z" fill="black"/>
<path d="M12.02 21.0201C12.55 18.6501 13.0901 16.2802 13.6201 13.9102C13.9801 13.9902 14.3399 14.0602 14.6899 14.1402C13.8699 18.2902 13.0499 22.4502 12.2299 26.6002C11.9399 26.6002 11.6501 26.6002 11.3701 26.6002C9.98006 23.7802 8.93976 20.8602 9.81976 17.2802C10.3498 18.5202 10.8698 19.7702 11.3998 21.0102C11.6098 21.0102 11.8197 21.0102 12.0297 21.0102L12.02 21.0201Z" fill="black"/>
<path d="M43.25 27.4001C44.74 24.9501 46.2201 22.5001 47.8301 19.8401C46.8801 19.2801 46.2201 18.8902 45.5601 18.5002C45.5901 18.2502 45.6302 17.9901 45.6602 17.7401C46.9302 17.6501 48.2098 17.5702 50.5298 17.4102C48.6998 21.2402 47.2698 24.2302 45.8398 27.2202C46.4698 27.6902 46.9498 28.0502 47.8198 28.7002C46.2998 29.1302 45.1001 29.4702 43.6401 29.8802C43.5101 28.7602 43.4201 28.0101 43.3301 27.2701L43.2402 27.4001H43.25Z" fill="black"/>
<path d="M50.61 28.3602C49.3 24.6502 50.5503 21.9502 51.1803 19.1902C52.6703 22.0402 52.5 25.1502 50.61 28.3602Z" fill="black"/>
</svg>
